<svg width="54" height="54" fill="none" xmlns="http://www.w3.org/2000/svg"><path d="M26.1 14.4h1.8v1.8h-1.8v-1.8zM19.92 16.538l1.56-.9.9 1.56-1.56.9-.9-1.56zM15.638 21.48l.9-1.559 1.557.9-.9 1.558-1.557-.9zM14.4 26.1h1.8v1.8h-1.8v-1.8zM37.8 26.1h1.8v1.8h-1.8v-1.8zM35.903 20.82l1.558-.9.9 1.558-1.558.9-.9-1.558zM31.62 17.197l.9-1.559 1.56.9-.9 1.56-1.56-.9zM31.764 20.964l-3.607 3.606A2.665 2.665 0 0027 24.3a2.7 2.7 0 102.7 2.7 2.666 2.666 0 00-.27-1.157l3.607-3.607-1.273-1.272zM27 27.9a.9.9 0 110-1.8.9.9 0 010 1.8zM28.543 21.824l.515-1.725A7.2 7.2 0 0019.8 27h1.8a5.4 5.4 0 016.942-5.176z" fill="#00C9C9"/><path fill-rule="evenodd" clip-rule="evenodd" d="M4.5 0h45A4.505 4.505 0 0154 4.5v34.2a4.505 4.505 0 01-4.5 4.5H34.32l.675 5.4H36.9a2.7 2.7 0 010 5.4H17.1a2.7 2.7 0 010-5.4h1.905l.675-5.4H4.5A4.505 4.505 0 010 38.7V4.5A4.505 4.505 0 014.5 0zm45 1.8h-45a2.7 2.7 0 00-2.7 2.7v2.7h50.4V4.5a2.7 2.7 0 00-2.7-2.7zM36.9 52.2a.9.9 0 000-1.8H17.1a.9.9 0 000 1.8h19.8zm-15.405-9l-.675 5.4h12.36l-.675-5.4h-11.01zM4.5 41.4h45a2.7 2.7 0 002.7-2.7V36H1.8v2.7a2.7 2.7 0 002.7 2.7zm10.04-7.2H52.2V9H1.8v25.2h12.739z" fill="#0084E4"/><path fill-rule="evenodd" clip-rule="evenodd" d="M17.738 15.956a14.4 14.4 0 0122.86 15.77h1.893A16.187 16.187 0 0027 10.8a16.185 16.185 0 00-15.491 20.925h1.893a14.403 14.403 0 014.336-15.77z" fill="#00C9C9"/><path d="M46.8 37.8h1.8v1.8h-1.8v-1.8zM5.4 3.6h1.8v1.8H5.4V3.6zM9 3.6h1.8v1.8H9V3.6zM12.6 3.6h1.8v1.8h-1.8V3.6z" fill="#0084E4"/></svg>