<svg width="54" height="54" fill="none" xmlns="http://www.w3.org/2000/svg"><path d="M44.719 1.688c-3.774 0-7.594 1.159-7.594 3.375v12.656c0 2.215 3.82 3.375 7.594 3.375v3.375H43.03v1.687h2.532a.844.844 0 00.843-.843v-4.3c3.146-.294 5.907-1.411 5.907-3.294V5.062c0-2.215-3.82-3.375-7.594-3.375zm0 17.718c-3.837 0-5.907-1.197-5.907-1.687v-2.025c1.465.778 3.691 1.181 5.907 1.181 2.215 0 4.441-.402 5.906-1.181v2.025c0 .49-2.07 1.687-5.906 1.687zm0-4.218c-3.837 0-5.907-1.198-5.907-1.688v-2.025c1.465.779 3.691 1.181 5.907 1.181 2.215 0 4.441-.402 5.906-1.181V13.5c0 .49-2.07 1.688-5.906 1.688zm0-4.22c-3.837 0-5.907-1.197-5.907-1.687V7.256c1.465.779 3.691 1.181 5.907 1.181 2.215 0 4.441-.402 5.906-1.18V9.28c0 .49-2.07 1.688-5.906 1.688zm0-4.218c-3.837 0-5.907-1.197-5.907-1.688 0-.49 2.07-1.687 5.907-1.687 3.836 0 5.906 1.197 5.906 1.688 0 .49-2.07 1.687-5.906 1.687z" fill="#00C9C9"/><path d="M7.594 21.013v4.3c0 .465.378.843.843.843h17.72v4.23c-4.114.092-10.126.876-10.126 3.364v15.188c0 2.664 6.895 3.374 10.969 3.374 4.075 0 10.969-.71 10.969-3.374V33.75c0-2.488-6.012-3.272-10.125-3.365v-4.229h3.375V24.47h-3.375v-3.396c3.479-.16 6.75-1.304 6.75-3.354V5.062c0-2.215-3.82-3.375-7.594-3.375-3.774 0-7.594 1.16-7.594 3.375V17.72c0 2.05 3.271 3.193 6.75 3.354v3.396H9.281v-3.375c3.774 0 7.594-1.16 7.594-3.375V5.062c0-2.215-3.82-3.375-7.594-3.375-3.774 0-7.594 1.16-7.594 3.375V17.72c0 1.883 2.761 3 5.907 3.294zm10.125 14.681c2.302 1.09 6.465 1.431 9.281 1.431 2.818 0 6.984-.34 9.285-1.433l.006 3.06C35.993 39.38 32.632 40.5 27 40.5c-5.632 0-8.993-1.12-9.281-1.688v-3.118zm0 5.063c2.302 1.09 6.465 1.43 9.281 1.43 2.818 0 6.984-.34 9.285-1.432l.006 3.06c-.298.627-3.659 1.748-9.291 1.748-5.632 0-8.993-1.121-9.281-1.688v-3.118zM27 50.625c-5.632 0-8.993-1.12-9.281-1.688V45.82c2.302 1.09 6.465 1.431 9.281 1.431 2.818 0 6.984-.34 9.285-1.433l.006 3.06c-.298.627-3.659 1.748-9.291 1.748zm9.254-16.875c-.475.636-3.8 1.688-9.254 1.688-5.455 0-8.78-1.052-9.254-1.688.45-.602 3.46-1.576 8.41-1.677v1.677h1.688v-1.677c4.95.1 7.96 1.075 8.41 1.677zM27 3.375c3.837 0 5.906 1.197 5.906 1.688 0 .49-2.07 1.687-5.906 1.687-3.837 0-5.906-1.197-5.906-1.688 0-.49 2.07-1.687 5.906-1.687zm-5.906 3.881c1.464.779 3.69 1.181 5.906 1.181 2.216 0 4.442-.402 5.906-1.18V9.28c0 .49-2.07 1.688-5.906 1.688-3.837 0-5.906-1.198-5.906-1.688V7.256zm0 4.219c1.464.779 3.69 1.181 5.906 1.181 2.216 0 4.442-.402 5.906-1.181V13.5c0 .49-2.07 1.688-5.906 1.688-3.837 0-5.906-1.198-5.906-1.688v-2.025zm0 6.244v-2.025c1.464.778 3.69 1.181 5.906 1.181 2.216 0 4.442-.402 5.906-1.181v2.025c0 .49-2.07 1.687-5.906 1.687-3.837 0-5.906-1.197-5.906-1.687zM9.28 19.406c-3.836 0-5.906-1.197-5.906-1.687v-2.025c1.465.778 3.69 1.181 5.906 1.181 2.216 0 4.442-.402 5.906-1.181v2.025c0 .49-2.07 1.687-5.906 1.687zm0-16.031c3.837 0 5.906 1.197 5.906 1.688 0 .49-2.07 1.687-5.906 1.687S3.375 5.553 3.375 5.062c0-.49 2.07-1.687 5.906-1.687zM3.375 7.256c1.465.779 3.69 1.181 5.906 1.181 2.216 0 4.442-.402 5.906-1.18V9.28c0 .49-2.07 1.688-5.906 1.688S3.375 9.77 3.375 9.28V7.256zm0 4.219c1.465.779 3.69 1.181 5.906 1.181 2.216 0 4.442-.402 5.906-1.181V13.5c0 .49-2.07 1.688-5.906 1.688S3.375 13.99 3.375 13.5v-2.025z" fill="#0084E4"/><path d="M39.656 24.469h1.688v1.687h-1.688V24.47zM36.281 24.469h1.688v1.687H36.28V24.47zM32.906 24.469h1.688v1.687h-1.688V24.47z" fill="#00C9C9"/></svg>