<svg width="54" height="54" fill="none" xmlns="http://www.w3.org/2000/svg"><path d="M9.281 34.805H7.594v-.211H.844v4.218a4.224 4.224 0 004.218 4.22h18.605l-.494-1.688H5.063a2.534 2.534 0 01-2.532-2.532v-2.53h20.35l.292-1.688H9.28v.21z" fill="#0084E4"/><path fill-rule="evenodd" clip-rule="evenodd" d="M34.594 23.173V12.656h6.75V5.062A4.224 4.224 0 0037.125.845H11.812a4.224 4.224 0 00-4.218 4.218v29.532H9.28V5.062a2.534 2.534 0 012.531-2.53h21.96a4.176 4.176 0 00-.866 2.53v18.605l1.688-.494zm5.062-12.204V5.063a2.534 2.534 0 00-2.531-2.532 2.534 2.534 0 00-2.531 2.531v5.907h5.062z" fill="#0084E4"/><path d="M7.594 34.805H9.28v-.211H7.594v.21z" fill="#0084E4"/><path fill-rule="evenodd" clip-rule="evenodd" d="M37.969 22.781a15.14 15.14 0 00-3.375.392l-1.688.494c-4.852 1.724-8.572 5.837-9.733 10.927l-.292 1.687c-.062.555-.1 1.117-.1 1.688 0 1.16.144 2.287.392 3.375l.494 1.687c2.092 5.89 7.704 10.125 14.302 10.125 8.374 0 15.187-6.813 15.187-15.187 0-8.375-6.813-15.188-15.187-15.188zm9.62 6.17l.285-.123a13.45 13.45 0 00-8.99-4.313 4.033 4.033 0 00-.072.732c0 .94.324 1.861.91 2.595l1.734 2.166c.472.59.731 1.331.731 2.087 0 .913.743 1.655 1.655 1.655.978 0 1.72-.742 1.72-1.655 0-1.411.795-2.617 2.026-3.144zm-13.285.64a17.445 17.445 0 00-3.798-2.862c-3.635 2.422-6.037 6.554-6.037 11.24 0 2.454.669 4.75 1.818 6.736a3.372 3.372 0 003.244-3.361v-.266a5.551 5.551 0 013.37-5.109l.192-.083a3.867 3.867 0 002.344-3.558 3.85 3.85 0 00-1.133-2.738zm-3.085 11.753c0 2.383-1.658 4.382-3.88 4.917a13.592 13.592 0 002.773 2.664l.946-.71a4.647 4.647 0 001.848-3.699 6.325 6.325 0 013.18-5.48l1.891-1.08a6.33 6.33 0 013.131-.831h1.02c3.307 0 6.504 1.08 9.142 3.066.12-.725.199-1.464.199-2.222 0-2.898-.927-5.578-2.487-7.78l-.73.313a1.654 1.654 0 00-1.002 1.52c0 1.916-1.5 3.416-3.342 3.416-1.909 0-3.408-1.5-3.408-3.343 0-.374-.128-.741-.362-1.034l-1.733-2.166a5.86 5.86 0 01-1.28-3.648c0-.247.03-.493.062-.739a13.382 13.382 0 00-4.973 1.267c1.188.753 2.29 1.63 3.283 2.622a5.524 5.524 0 011.628 3.931 5.551 5.551 0 01-3.37 5.11l-.192.082a3.867 3.867 0 00-2.344 3.558v.266zm.422 8.542a13.406 13.406 0 006.328 1.583c6.03 0 11.148-3.976 12.874-9.444-2.451-2.067-5.522-3.212-8.715-3.212h-1.02c-.802 0-1.596.21-2.294.609l-1.89 1.08a4.635 4.635 0 00-2.33 4.014 6.34 6.34 0 01-2.525 5.05l-.428.32z" fill="#00C9C9"/><path d="M38.813 42.188h-1.688v1.687h1.688v-1.688zM42.188 46.406H40.5v1.688h1.688v-1.688zM46.406 41.344H44.72v1.687h1.687v-1.687zM37.125 48.094h-1.688v1.687h1.688v-1.687zM31.219 30.375H29.53v1.688h1.688v-1.688zM27.844 36.281h-1.688v1.688h1.688V36.28z" fill="#00C9C9"/><path d="M11.074 13.656h9.07V5.22h-9.07v8.437zm1.688-6.75h5.695v5.063h-5.695V6.906zM31.113 5.219h-9.07v1.687h9.07V5.22zM31.113 8.594h-9.07v1.687h9.07V8.594zM31.113 11.969h-9.07v1.687h9.07V11.97zM22.043 23.781h9.07v-8.437h-9.07v8.437zm1.688-6.75h5.695v5.063H23.73V17.03zM20.145 15.344h-9.07v1.687h9.07v-1.687zM20.145 18.719h-7.257v1.687h7.257V18.72zM12.888 18.719h-1.814v1.687h1.814V18.72zM20.145 22.094h-9.07v1.687h9.07v-1.687zM20.145 25.469h-9.07v1.687h9.07V25.47zM20.145 28.844h-9.07v1.687h9.07v-1.687zM23.836 28.844h-1.688v1.687h1.688v-1.687z" fill="#0084E4"/></svg>