<svg width="139" height="35" fill="none" xmlns="http://www.w3.org/2000/svg"><path d="M36.038 24.384c-1.801 0-3.418-.38-4.85-1.14-1.433-.76-2.55-1.812-3.354-3.158-.803-1.367-1.204-2.908-1.204-4.622 0-1.715.401-3.245 1.204-4.59.803-1.346 1.91-2.399 3.32-3.159 1.433-.76 3.061-1.139 4.884-1.139 1.715 0 3.212.347 4.493 1.042a6.739 6.739 0 012.93 2.995l-3.126 1.823c-.499-.803-1.128-1.4-1.888-1.79a4.92 4.92 0 00-2.441-.62c-1.52 0-2.778.5-3.777 1.498-.998.977-1.497 2.29-1.497 3.94 0 1.649.488 2.973 1.465 3.971.998.977 2.268 1.465 3.809 1.465.89 0 1.703-.195 2.441-.586.76-.412 1.39-1.02 1.888-1.823l3.126 1.823a7.118 7.118 0 01-2.963 3.028c-1.28.694-2.767 1.042-4.46 1.042zM63.81 6.771v17.385h-3.875v-2.214a6.63 6.63 0 01-2.442 1.823 8.033 8.033 0 01-3.157.619c-2.322 0-4.156-.64-5.502-1.921-1.324-1.302-1.986-3.223-1.986-5.762V6.77h4.07v9.376c0 1.563.347 2.735 1.041 3.516.716.76 1.726 1.14 3.028 1.14 1.454 0 2.604-.445 3.45-1.335.869-.912 1.303-2.214 1.303-3.907v-8.79h4.07zM73.011 9.31c1.172-1.822 3.234-2.734 6.186-2.734v3.874a5.168 5.168 0 00-.944-.098c-1.585 0-2.822.467-3.712 1.4-.89.912-1.334 2.236-1.334 3.972v8.432h-4.07V6.77h3.874v2.54zM98.832 15.561c0 .282-.021.684-.065 1.205h-13.64c.239 1.28.857 2.3 1.855 3.06 1.02.738 2.28 1.107 3.777 1.107 1.91 0 3.483-.63 4.72-1.888l2.181 2.506c-.781.934-1.769 1.639-2.962 2.116-1.194.478-2.54.717-4.037.717-1.91 0-3.592-.38-5.046-1.14-1.454-.76-2.583-1.812-3.386-3.158-.781-1.367-1.172-2.908-1.172-4.622 0-1.693.38-3.213 1.14-4.558a8.28 8.28 0 013.223-3.19c1.367-.76 2.908-1.14 4.623-1.14 1.692 0 3.2.38 4.525 1.14a7.687 7.687 0 013.125 3.157c.76 1.346 1.14 2.909 1.14 4.688zm-8.79-5.73c-1.302 0-2.409.391-3.32 1.173-.89.76-1.432 1.78-1.628 3.06h9.864c-.173-1.26-.705-2.28-1.595-3.06-.89-.782-1.997-1.172-3.32-1.172zM102.741 0h4.07v24.156h-4.07V0zM112.152 0h4.069v24.156h-4.069V0zM138.556 6.771v17.385h-3.874v-2.247a6.277 6.277 0 01-2.507 1.856c-.977.412-2.062.619-3.256.619-1.693 0-3.212-.37-4.557-1.107a8.016 8.016 0 01-3.126-3.126c-.738-1.345-1.106-2.908-1.106-4.688 0-1.78.368-3.33 1.106-4.655a8.016 8.016 0 013.126-3.125c1.345-.738 2.864-1.107 4.557-1.107 1.129 0 2.16.195 3.093.586.955.39 1.78.966 2.474 1.725V6.771h4.07zm-9.181 14.13c1.498 0 2.735-.5 3.711-1.498.977-.999 1.465-2.312 1.465-3.94 0-1.627-.488-2.94-1.465-3.939-.976-.998-2.213-1.497-3.711-1.497-1.497 0-2.735.5-3.711 1.497-.955.999-1.433 2.312-1.433 3.94 0 1.627.478 2.94 1.433 3.939.976.998 2.214 1.497 3.711 1.497z" fill="#343159"/><path fill-rule="evenodd" clip-rule="evenodd" d="M4.362 24.156H0L10.255 1.367h4.167l10.287 22.789h-4.427l-2.28-5.274-12.6 2.832-1.04 2.442zm7.944-18.557l4.297 9.962-9.46 2.084 5.163-12.046z" fill="#343159"/><path d="M102.548 34.98h3.674v-.992h-2.461v-4.704h-1.213v5.697zM109.029 29.284h-1.214v5.697h1.214v-5.697zM110.817 29.284v5.697h1.177v-3.722h.048l1.485 3.694h.802l1.486-3.68h.047v3.708h1.178v-5.697h-1.497l-1.581 3.827h-.067l-1.581-3.827h-1.497zM120.043 29.284h-1.214v5.697h1.214v-5.697zM121.612 30.277h1.757v4.704h1.2v-4.704h1.757v-.993h-4.714v.993zM127.892 34.98h3.879v-.992h-2.665v-1.36h2.455v-.994h-2.455v-1.357h2.654v-.993h-3.868v5.697zM135.549 34.98c1.749 0 2.809-1.073 2.809-2.853 0-1.775-1.06-2.843-2.792-2.843h-2.052v5.697h2.035zm-.821-1.031v-3.633h.774c1.076 0 1.645.545 1.645 1.81 0 1.272-.569 1.823-1.648 1.823h-.771z" fill="#343159"/></svg>