<svg width="145" height="49" fill="none" xmlns="http://www.w3.org/2000/svg"><g clip-path="url(#clip0)"><path fill-rule="evenodd" clip-rule="evenodd" d="M22.145.354c-2.728.496-5.7 1.617-8.076 3.046-2.411 1.45-5.841 4.6-7.407 6.803-1.383 1.947-2.986 5.28-3.635 7.562-.385 1.352-.692 1.91-1.352 2.456C.66 21.06 0 22.35 0 23.495c0 1.084.869 2.863 1.65 3.376.339.223.616.61.616.858 0 1.14 1.16 4.94 2.162 7.083 1.426 3.053 2.838 5.015 5.316 7.39 3.545 3.4 7.851 5.597 12.594 6.428 13.177 2.306 25.67-6.39 28.288-19.692.235-1.193.482-1.669 1.25-2.402 2.07-1.98 1.766-5.116-.642-6.61-.478-.296-.869-.737-.869-.98 0-.242-.267-1.228-.593-2.191C46.874 8.21 39.548 1.87 30.797.339c-2.615-.457-6.086-.452-8.652.015zm10.126.844C40.373 3.3 46.944 9.48 49.329 17.243c.664 2.16.663 2.185-.072 2.185-.53 0-.68-.237-1.24-1.959-2.406-7.412-8.603-13.168-16.16-15.009-2.813-.685-7.15-.74-9.911-.125C15.034 3.874 9.311 8.479 6.309 14.917c-.541 1.16-1.119 2.65-1.284 3.31-.271 1.086-.37 1.201-1.026 1.201-.89 0-.896-.164-.099-2.518C6.293 9.848 11.866 4.217 18.821 1.836c1.352-.464 3.195-.955 4.095-1.092 2.386-.363 7.081-.135 9.355.454zm.089 1.917c2.41.667 5.971 2.526 8.043 4.198 3.192 2.579 6.023 6.764 7.206 10.656l.44 1.449-1.02.574c-1.295.728-1.952 1.95-1.952 3.63 0 1.924.86 3.005 3.223 4.056.2.088-.787 3.602-1.45 5.165-2.46 5.802-7.386 10.4-13.231 12.347-4.171 1.39-7.712 1.539-12.163.51C15.082 44.23 9.71 39.77 6.814 33.547c-.899-1.932-1.787-4.72-1.77-5.559.003-.188.457-.551 1.008-.807.658-.304 1.22-.834 1.63-1.539 1.305-2.234.542-4.565-1.992-6.086-.388-.233-.373-.393.182-2.023 1.581-4.637 3.888-7.825 7.782-10.755 2.393-1.8 4.664-2.898 7.625-3.688 2.021-.539 2.663-.593 5.918-.498 2.308.067 4.208.26 5.163.524zm29.086 3.137c0 .156.268.283.596.283.327 0 .894.236 1.259.524l.663.524v4.99c0 4.673-.032 5.026-.513 5.543a1.837 1.837 0 01-1.26.554c-.41 0-.745.114-.745.253 0 .158 1.51.253 4.03.253 2.517 0 4.028-.095 4.028-.253 0-.14-.327-.253-.727-.253-.4 0-.995-.218-1.322-.483-.537-.436-.603-.72-.682-2.908l-.087-2.424h3.044l2.212 3.16 2.212 3.16h2.475c1.585 0 2.419-.09 2.319-.252-.086-.14-.474-.253-.862-.253-.955 0-1.78-.704-2.945-2.51-.853-1.322-1.151-1.577-2.366-2.021-.764-.28-1.612-.672-1.883-.871-.453-.333-.373-.376 1.011-.533.828-.094 2.09-.333 2.805-.532 3.157-.875 3.54-4.04.658-5.444-1.14-.555-1.536-.59-7.561-.688-4.586-.074-6.359-.023-6.359.181zm19.139.03c0 .14.27.253.602.253.33 0 .856.208 1.169.461.495.403.598.824.81 3.31.317 3.694.068 6.865-.607 7.726-.327.417-.75.638-1.222.638-.397 0-.792.114-.878.253-.101.164 1.257.253 3.888.253 2.529 0 4.044-.095 4.044-.253 0-.14-.331-.253-.737-.253-.496 0-.907-.218-1.259-.666-.486-.62-.522-.993-.522-5.447 0-4.739.006-4.786.618-5.401.34-.341.907-.62 1.26-.62.352 0 .64-.115.64-.254 0-.157-1.468-.252-3.903-.252-2.434 0-3.903.095-3.903.252zm9.318 0c0 .14.235.253.522.253 1.005 0 1.898 1.42 4.492 7.142 1.435 3.163 2.685 5.751 2.779 5.751.094 0 1.157-2.247 2.363-4.993 2.849-6.487 3.087-6.898 4.377-7.552.582-.296.988-.608.901-.695-.225-.227-4.858-.197-4.856.031.001.105.337.381.746.615 1.27.726 1.215 1.312-.503 5.303-.859 1.994-1.645 3.717-1.748 3.829-.265.29-3.785-7.519-3.785-8.396 0-.768.362-1.035 1.406-1.035.335 0 .609-.114.609-.253 0-.157-1.386-.252-3.652-.252-2.267 0-3.651.095-3.651.252zm16.749-.004c-.092.15.119.257.502.257 1.804 0 2.136.973 2.138 6.265.001 4.715-.199 5.38-1.799 5.947-1.035.367-.703.39 6.018.409l7.114.02V16.52c0-1.46-.086-2.654-.192-2.654-.106 0-.386.546-.623 1.214-.512 1.449-1.929 2.952-3.169 3.363-.492.163-1.752.31-2.799.325l-1.905.027-.071-2.848c-.081-3.232.029-3.418 1.651-2.798 1.094.418 2.016 1.669 2.233 3.03.085.53.253.902.374.827.312-.193.282-8.129-.031-8.323-.139-.086-.252.082-.252.372 0 1.732-1.565 3.547-3.059 3.547h-.971V6.535l1.952.002c1.073 0 2.366.116 2.871.257 1.21.338 2.399 1.591 2.928 3.086.234.663.517 1.206.628 1.206.111 0 .17-1.11.13-2.465l-.072-2.465-6.719-.067c-4.352-.044-6.775.023-6.877.19zm15.63-.027c-.075.121.309.293.853.38 1.666.268 1.772.619 1.772 5.92v4.641l-.737.739c-.423.425-1.005.739-1.37.739-.349 0-.704.114-.789.253-.101.164 1.051.253 3.273.253 2.222 0 3.375-.09 3.274-.253-.086-.14-.427-.253-.758-.253-.847 0-1.724-.445-2.152-1.092-.427-.647-.703-9.526-.295-9.526.129 0 2.643 2.503 5.586 5.562 2.943 3.059 5.453 5.561 5.577 5.561.127 0 .226-2.325.226-5.271 0-5.06.023-5.306.572-6.13.336-.504.909-.96 1.385-1.102 1.504-.447.832-.642-2.208-.642-1.847 0-3.022.098-3.022.252 0 .14.238.253.528.253.291 0 .915.387 1.386.86l.856.86V15.397l-3.211-3.342-4.5-4.685-1.29-1.341h-2.41c-1.325 0-2.471.1-2.546.22zm-49.638.643c1.734.728 2.16 3.284.778 4.673-.62.622-.812.66-3.67.74l-3.018.085V6.535h2.527c1.613 0 2.836.13 3.383.36zM7.446 17.884c-.11.178.068.28.488.28 1.8 0 2.136.976 2.138 6.22.002 4.977-.335 5.915-2.123 5.915-.355 0-.646.114-.646.253 0 .158 1.511.253 4.03.253 2.518 0 4.028-.095 4.028-.253 0-.14-.29-.253-.646-.253-1.559 0-2.12-1.085-2.122-4.108l-.002-1.706 1.574.01 1.574.008 2.153 3.088 2.153 3.087 2.464.073c1.654.049 2.41-.014 2.302-.19-.09-.144-.446-.262-.793-.262-1.012 0-1.446-.365-2.84-2.389-.722-1.05-1.474-1.909-1.67-1.909-.195 0-1.01-.302-1.81-.67-1.449-.669-1.452-.673-.7-.856a9.865 9.865 0 011.655-.213c1.323-.044 3.132-.733 3.87-1.473.821-.825.892-2.472.146-3.424-1.046-1.335-2.096-1.531-8.85-1.651-4.38-.079-6.25-.028-6.373.17zm24.535-.004c-2.105.692-3.795 2.29-4.553 4.305-2.05 5.455 3.588 10.292 9.793 8.4 1.923-.587 2.955-.68 3.197-.286.086.14.308.253.493.253.248 0 .36-.566.426-2.14.099-2.387.347-2.834 1.76-3.17.516-.122-.927-.196-3.686-.19-2.655.005-3.973.077-3.18.173 1.697.206 2.299.85 2.299 2.464 0 .62-.117 1.345-.26 1.613-.427.801-1.76 1.334-3.392 1.355-2.009.027-3.067-.585-3.903-2.258-.56-1.12-.629-1.571-.623-4.043.006-2.447.082-2.934.63-4.032.77-1.545 1.608-2.177 3.115-2.347 2.414-.273 4.982 1.42 6.226 4.106l.702 1.517.011-2.844c.007-1.564-.076-2.845-.184-2.845s-.39.228-.627.506c-.555.65-1.207.639-2.524-.044-1.148-.595-4.525-.885-5.72-.493zm-13.23.676c1.355.645 1.828 2.585 1.016 4.162-.514.997-1.713 1.31-4.657 1.213l-2.393-.079-.072-2.51c-.04-1.38-.016-2.66.055-2.844.193-.504 4.968-.459 6.051.058zM4.423 27.864c.009.018.21.887.448 1.93.455 1.998 2.418 6.34 3.542 7.836 1.152 1.534 3.741 4.057 5.352 5.216 6.142 4.42 14.945 5.306 21.925 2.206 6.17-2.739 11.022-8.484 12.712-15.05.48-1.864.651-2.21 1.138-2.304.485-.093.574-.002.574.585 0 1.082-1.18 4.905-2.05 6.642-3.329 6.647-9.325 11.399-16.423 13.012-2.451.557-8.002.547-10.295-.02-7.068-1.745-12.6-6.043-15.925-12.374-1.088-2.07-2.197-5.246-2.478-7.094l-.147-.965.806.173c.443.095.812.188.82.207zm56.268 1.324c-2.785 1.014-4.51 3.123-4.721 5.77-.229 2.854 1.016 5.087 3.565 6.398 1.834.942 4.782 1.092 6.919.35 1.818-.632 1.962-.642 2.844-.18.37.195.739.289.818.21.08-.08.144-1.036.144-2.125 0-1.644.085-2.066.504-2.486.277-.278.702-.508.944-.51a1.81 1.81 0 00.818-.249c.251-.162-1.145-.237-4.155-.22-3.144.016-4.208.087-3.474.233.582.115 1.281.33 1.553.476.647.347 1.13 1.853.934 2.906-.537 2.875-6.098 2.889-7.556.018-.702-1.383-.873-5.542-.307-7.495.693-2.392 2.534-3.492 4.97-2.968 2.081.448 4.484 2.677 4.89 4.537.337 1.535.627.655.627-1.896 0-2.62-.235-3.393-.743-2.44-.427.802-1.097.832-2.679.122-1.892-.85-4.296-1.033-5.895-.45zm37.53.095c-6.068 2.257-6.395 9.604-.543 12.209 1.624.723 4.391.87 6.113.326 3.886-1.228 5.94-4.83 4.759-8.345-.47-1.399-2.292-3.26-3.862-3.945-1.872-.818-4.647-.923-6.467-.245zm-23.386.041c1.791.498 1.847.683 1.847 6.158 0 5.476-.058 5.669-1.847 6.147-.705.188.06.248 3.232.25 3.095.003 3.93-.058 3.273-.24-1.5-.413-1.763-.96-1.763-3.67v-2.386l1.444.075 1.443.076 2.145 3.083 2.146 3.082 2.518-.01c2.342-.01 2.445-.03 1.48-.302-1.315-.369-1.526-.555-2.855-2.523-.958-1.418-1.252-1.67-2.377-2.033-.707-.228-1.568-.64-1.914-.914l-.63-.498 1.26-.008c1.492-.01 3.68-.557 4.569-1.142.35-.23.8-.816 1.004-1.304.34-.816.327-.972-.158-1.979-.927-1.922-1.344-2.017-9.067-2.072-4.884-.034-6.426.022-5.75.21zm27.421-.036c1.132.315 2.068 1.29 2.79 2.907.449 1.004.564 1.718.558 3.474-.005 1.939-.097 2.388-.745 3.66-.533 1.046-1.019 1.61-1.741 2.021-3.274 1.862-6.416-1.012-6.416-5.868 0-2.957 1.048-5.134 2.87-5.965 1.196-.545 1.469-.569 2.684-.23zm9.681.028c1.773.405 1.888.733 1.895 5.372.006 5.021.262 5.82 2.169 6.761 1.077.532 1.575.605 4.121.605 3.55 0 4.589-.408 5.477-2.153.51-1.003.567-1.48.57-4.789.003-2.408.112-3.893.316-4.307.172-.348.822-.884 1.444-1.19l1.133-.56-3.274.017c-2.94.014-3.174.047-2.295.32 2.077.646 2.605 2.244 2.357 7.134-.155 3.042-.548 3.944-2.063 4.733-1.19.62-3.529.837-4.73.439-.477-.158-1.197-.633-1.601-1.056l-.734-.768-.08-4.323c-.044-2.377-.014-4.585.066-4.906.174-.697.911-1.141 2.281-1.375.554-.094-1.033-.175-3.526-.178-3.283-.004-4.255.057-3.526.224zm18.552.004c1.745.493 1.837.76 1.929 5.618.11 5.816-.062 6.315-2.349 6.82-.277.061 1.423.113 3.777.115 3.136.003 4.012-.057 3.274-.226-1.572-.359-1.889-.931-1.889-3.413v-2.12l2.708-.002c3.352-.001 4.445-.294 5.66-1.513 1.222-1.227 1.316-2.56.269-3.81-1.235-1.473-1.838-1.593-8.385-1.665-4.404-.048-5.681.002-4.994.196zm-45.749.213c1.437.334 2.14 1.25 2.14 2.788 0 2.296-1.244 3.017-5.225 3.028l-2.078.006v-6.067l2.078.006c1.143.003 2.531.11 3.085.24zm54.539.009c1.499.418 2.122 1.306 2.122 3.026 0 2.37-1.233 3.293-4.399 3.293h-1.771v-6.573l1.574.001c.866.001 1.979.115 2.474.253z" fill="#fff"/></g><defs><clipPath id="clip0"><path fill="#fff" d="M0 0h144.59v49H0z"/></clipPath></defs></svg>