<svg width="201" height="49" fill="none" xmlns="http://www.w3.org/2000/svg"><path d="M149.228 16.788h1.474c-.245-1.568-1.603-2.66-3.369-2.66-2.091 0-3.659 1.537-3.659 4.111 0 2.527 1.498 4.095 3.701 4.095 1.978 0 3.394-1.271 3.394-3.33v-.96h-3.241v1.131h1.84c-.023 1.139-.783 1.86-1.985 1.86-1.338 0-2.254-1.002-2.254-2.812 0-1.798.932-2.796 2.223-2.796.963 0 1.619.515 1.876 1.361zM152.168 22.225h4.965v-1.213h-3.518v-6.775h-1.447v7.988zM165.216 18.231c0-2.582-1.576-4.103-3.671-4.103-2.098 0-3.67 1.521-3.67 4.103 0 2.578 1.572 4.103 3.67 4.103 2.095 0 3.671-1.52 3.671-4.103zm-1.455 0c0 1.818-.913 2.805-2.216 2.805-1.298 0-2.215-.987-2.215-2.805 0-1.817.917-2.804 2.215-2.804 1.303 0 2.216.987 2.216 2.804zM166.584 22.225h3.233c1.829 0 2.726-.932 2.726-2.176 0-1.21-.858-1.92-1.708-1.962v-.078c.78-.183 1.396-.73 1.396-1.7 0-1.19-.858-2.072-2.59-2.072h-3.057v7.988zm1.447-1.209v-2.34h1.595c.893 0 1.447.546 1.447 1.26 0 .635-.437 1.08-1.486 1.08h-1.556zm0-3.381V15.43h1.462c.85 0 1.291.448 1.291 1.065 0 .702-.569 1.139-1.322 1.139h-1.431zM174.828 22.225l.659-1.97h3.003l.663 1.97h1.545l-2.816-7.988h-1.787l-2.812 7.988h1.545zm1.049-3.132l1.08-3.218h.063l1.08 3.218h-2.223zM181.75 22.225h4.965v-1.213h-3.518v-6.775h-1.447v7.988zM143.877 34.429h4.965v-1.213h-3.518V26.44h-1.447v7.988zM156.924 30.435c0-2.582-1.575-4.103-3.67-4.103-2.098 0-3.67 1.52-3.67 4.103 0 2.578 1.572 4.103 3.67 4.103 2.095 0 3.67-1.521 3.67-4.103zm-1.454 0c0 1.817-.913 2.804-2.216 2.804-1.299 0-2.215-.986-2.215-2.804 0-1.818.916-2.804 2.215-2.804 1.303 0 2.216.986 2.216 2.804zM163.644 28.992h1.474c-.246-1.568-1.603-2.66-3.37-2.66-2.09 0-3.658 1.537-3.658 4.11 0 2.528 1.497 4.096 3.701 4.096 1.977 0 3.393-1.271 3.393-3.33v-.96h-3.241v1.13h1.841c-.023 1.14-.784 1.861-1.985 1.861-1.338 0-2.255-1.002-2.255-2.812 0-1.798.933-2.796 2.224-2.796.963 0 1.618.514 1.876 1.36zM168.031 26.441h-1.447v7.988h1.447V26.44zM173.939 28.637h1.392c-.027-1.35-1.178-2.305-2.878-2.305-1.678 0-2.937.944-2.933 2.356 0 1.146.815 1.805 2.129 2.145l.909.234c.862.218 1.431.487 1.435 1.108-.004.682-.651 1.138-1.595 1.138-.905 0-1.607-.405-1.665-1.244h-1.424c.058 1.588 1.24 2.48 3.101 2.48 1.915 0 3.026-.955 3.03-2.363-.004-1.384-1.146-2.016-2.348-2.301l-.749-.187c-.655-.156-1.365-.433-1.357-1.1.004-.6.542-1.041 1.447-1.041.862 0 1.431.401 1.506 1.08zM176.379 27.654h2.469v6.775h1.435v-6.775h2.469v-1.213h-6.373v1.213zM185.428 26.441h-1.447v7.988h1.447V26.44zM193.832 29.136c-.246-1.774-1.611-2.804-3.381-2.804-2.087 0-3.659 1.52-3.659 4.103 0 2.578 1.552 4.103 3.659 4.103 1.899 0 3.159-1.228 3.381-2.754l-1.459-.007c-.183.936-.947 1.462-1.903 1.462-1.295 0-2.223-.97-2.223-2.804 0-1.802.92-2.804 2.227-2.804.971 0 1.732.55 1.899 1.505h1.459zM199.498 28.637h1.393c-.028-1.35-1.178-2.305-2.879-2.305-1.677 0-2.937.944-2.933 2.356 0 1.146.815 1.805 2.13 2.145l.909.234c.862.218 1.431.487 1.435 1.108-.004.682-.651 1.138-1.595 1.138-.905 0-1.607-.405-1.666-1.244h-1.423c.058 1.588 1.24 2.48 3.1 2.48 1.916 0 3.027-.955 3.031-2.363-.004-1.384-1.147-2.016-2.348-2.301l-.749-.187c-.655-.156-1.365-.433-1.357-1.1.004-.6.542-1.041 1.447-1.041.862 0 1.431.401 1.505 1.08z" fill="#343159"/><path fill-rule="evenodd" clip-rule="evenodd" d="M129.055 47.243V.258h1.22v46.985h-1.22z" fill="#343159"/><path d="M30.117 28.449H17.406l-2.631 5.98h-3.52l10.832-23.92h3.383l10.866 23.92h-3.588l-2.63-5.98zm-1.196-2.734l-5.16-11.72-5.16 11.72h10.32zM56.583 16.319v15.65c0 3.166-.785 5.501-2.357 7.005-1.572 1.526-3.919 2.289-7.04 2.289-1.708 0-3.337-.24-4.886-.718-1.549-.455-2.802-1.116-3.758-1.982l1.571-2.528c.843.729 1.88 1.298 3.11 1.708 1.253.433 2.54.65 3.861.65 2.119 0 3.68-.502 4.681-1.504 1.026-1.002 1.538-2.529 1.538-4.579v-1.435a7.386 7.386 0 01-2.87 2.119c-1.117.455-2.335.683-3.656.683-1.732 0-3.304-.364-4.716-1.093a8.45 8.45 0 01-3.28-3.11c-.798-1.344-1.196-2.87-1.196-4.579 0-1.708.398-3.223 1.196-4.544a8.136 8.136 0 013.28-3.11c1.412-.729 2.984-1.093 4.716-1.093 1.366 0 2.63.25 3.792.751 1.185.502 2.153 1.242 2.905 2.221V16.32h3.11zm-9.43 14.488c1.184 0 2.243-.25 3.177-.752.957-.501 1.697-1.196 2.221-2.084.547-.912.82-1.937.82-3.076 0-1.754-.58-3.166-1.742-4.237-1.162-1.093-2.654-1.64-4.477-1.64-1.845 0-3.348.547-4.51 1.64-1.162 1.07-1.743 2.483-1.743 4.237 0 1.14.262 2.164.786 3.076a5.753 5.753 0 002.221 2.084c.957.501 2.04.752 3.246.752zM70.608 34.634c-1.8 0-3.417-.399-4.852-1.196a8.833 8.833 0 01-3.383-3.28c-.797-1.413-1.196-3.008-1.196-4.784 0-1.777.399-3.36 1.196-4.75a8.519 8.519 0 013.383-3.28c1.435-.798 3.052-1.196 4.852-1.196 1.8 0 3.406.398 4.818 1.196a8.289 8.289 0 013.349 3.28c.82 1.39 1.23 2.973 1.23 4.75 0 1.777-.41 3.371-1.23 4.784-.798 1.39-1.914 2.483-3.35 3.28-1.411.797-3.017 1.196-4.817 1.196zm0-2.87c1.162 0 2.198-.262 3.11-.786a5.782 5.782 0 002.186-2.256c.524-.98.786-2.095.786-3.348 0-1.253-.262-2.358-.786-3.315-.524-.98-1.253-1.731-2.187-2.255-.91-.524-1.947-.786-3.11-.786-1.16 0-2.209.262-3.143.786-.91.524-1.64 1.276-2.187 2.255-.524.957-.785 2.062-.785 3.315 0 1.253.261 2.369.785 3.348a6.115 6.115 0 002.187 2.256c.934.524 1.982.785 3.144.785zM87.685 19.36c.57-1.048 1.412-1.845 2.529-2.392 1.116-.547 2.471-.82 4.066-.82v3.178a6.424 6.424 0 00-.752-.035c-1.777 0-3.178.536-4.203 1.606-1.002 1.048-1.503 2.552-1.503 4.51v9.022h-3.28v-18.11h3.143v3.04zM104.884 16.148c2.506 0 4.42.615 5.741 1.845 1.344 1.23 2.016 3.064 2.016 5.501V34.43h-3.109v-2.392c-.547.843-1.333 1.492-2.358 1.948-1.002.432-2.198.649-3.588.649-2.027 0-3.656-.49-4.886-1.47-1.208-.979-1.811-2.266-1.811-3.86 0-1.595.58-2.871 1.742-3.828 1.162-.98 3.007-1.47 5.536-1.47h5.194v-.648c0-1.413-.41-2.495-1.23-3.247-.82-.751-2.028-1.127-3.622-1.127a9.318 9.318 0 00-3.144.547c-1.025.341-1.89.808-2.597 1.4l-1.367-2.46c.934-.752 2.05-1.321 3.349-1.708a13.648 13.648 0 014.134-.615zm-.751 15.957c1.253 0 2.335-.273 3.246-.82.911-.57 1.572-1.367 1.982-2.392v-2.528h-5.057c-2.78 0-4.169.934-4.169 2.802 0 .91.353 1.628 1.059 2.152.706.524 1.686.786 2.939.786z" fill="#343159"/><path fill-rule="evenodd" clip-rule="evenodd" d="M24.505 3.055C12.88 2.833 3.276 12.076 3.055 23.7 2.833 35.324 12.076 44.928 23.7 45.15c4.194.08 8.12-1.07 11.44-3.119l1.602 2.597a23.996 23.996 0 01-13.1 3.572C10.333 47.946-.25 36.95.004 23.642.26 10.333 11.254-.25 24.563.004c7.648.147 14.396 3.842 18.702 9.479l-2.424 1.852c-3.766-4.93-9.658-8.153-16.337-8.28z" fill="#343159"/></svg>