<svg width="42" height="42" viewBox="0 0 42 42" fill="none" xmlns="http://www.w3.org/2000/svg">
<path fill-rule="evenodd" clip-rule="evenodd" d="M21 2C10.5066 2 2 10.5066 2 21C2 31.4934 10.5066 40 21 40C31.4934 40 40 31.4934 40 21C40 10.5066 31.4934 2 21 2ZM0 21C0 9.40202 9.40202 0 21 0C32.598 0 42 9.40202 42 21C42 32.598 32.598 42 21 42C9.40202 42 0 32.598 0 21ZM31.1178 14.2137C31.5521 14.5549 31.6275 15.1835 31.2863 15.6178L20.2863 29.6178C20.1009 29.8538 19.8193 29.994 19.5193 29.9998C19.2192 30.0056 18.9324 29.8763 18.7381 29.6476L10.2381 19.6476C9.88037 19.2268 9.93154 18.5957 10.3524 18.2381C10.7732 17.8804 11.4043 17.9315 11.7619 18.3524L19.4696 27.4201L29.7137 14.3822C30.0549 13.9479 30.6835 13.8725 31.1178 14.2137Z" fill="#0084E4"/>
</svg>
