<svg width="30" height="40" viewBox="0 0 30 40" fill="none" xmlns="http://www.w3.org/2000/svg">
<path d="M29.7555 28.5774L13.0902 11.9121C12.8503 11.6755 12.4936 11.6022 12.1819 11.7322C11.8703 11.8605 11.667 12.1655 11.667 12.5021V35.5768C11.667 35.8951 11.8486 36.1851 12.1353 36.3251C12.4219 36.4651 12.7636 36.4301 13.0119 36.2335L17.2432 32.9254L20.9362 39.5715C21.0896 39.8448 21.3728 39.9998 21.6661 39.9998C21.7911 39.9998 21.9195 39.9714 22.0395 39.9115L27.039 37.4117C27.2424 37.31 27.3957 37.13 27.4624 36.9133C27.529 36.695 27.504 36.46 27.3957 36.2618L23.916 30.0006H29.1656C29.5022 30.0006 29.8055 29.7973 29.9355 29.4857C30.0654 29.174 29.9938 28.8157 29.7555 28.5774ZM22.5011 28.3358C22.2061 28.3358 21.9328 28.4924 21.7828 28.7474C21.6328 29.0007 21.6278 29.3157 21.7711 29.574L25.5158 36.3118L22.0078 38.0666L18.2297 31.2638C18.1114 31.0505 17.9047 30.8988 17.6664 30.8505C17.6098 30.8388 17.5548 30.8339 17.4998 30.8339C17.3164 30.8339 17.1332 30.8955 16.9865 31.0105L13.3334 33.8669V14.5136L27.1556 28.3358H22.5011Z" fill="#FF8A00"/>
<path d="M12.5003 0C12.0403 0 11.667 0.373328 11.667 0.833289V5.83287C11.667 6.29283 12.0403 6.66616 12.5003 6.66616C12.9602 6.66616 13.3336 6.29283 13.3336 5.83287V0.833289C13.3335 0.373328 12.9602 0 12.5003 0Z" fill="#FF8A00"/>
<path d="M5.83408 11.6655H0.834509C0.374548 11.6655 0.0012207 12.0389 0.0012207 12.4988C0.0012207 12.9588 0.374548 13.3321 0.834509 13.3321H5.83408C6.29404 13.3321 6.66737 12.9588 6.66737 12.4988C6.66737 12.0389 6.29404 11.6655 5.83408 11.6655Z" fill="#FF8A00"/>
<path d="M24.165 11.6655H19.1654C18.7055 11.6655 18.3322 12.0389 18.3322 12.4988C18.3322 12.9588 18.7055 13.3321 19.1654 13.3321H24.165C24.625 13.3321 24.9983 12.9588 24.9983 12.4988C24.9983 12.0389 24.625 11.6655 24.165 11.6655Z" fill="#FF8A00"/>
<path d="M8.37594 7.19591L4.83959 3.66121C4.51462 3.33624 3.9863 3.33624 3.66133 3.66121C3.33636 3.98618 3.33636 4.5145 3.66133 4.83947L7.19768 8.37417C7.36102 8.5358 7.57429 8.61751 7.78763 8.61751C8.00097 8.61751 8.21423 8.53752 8.37594 8.37417C8.70091 8.0492 8.70091 7.52089 8.37594 7.19591Z" fill="#FF8A00"/>
<path d="M8.37594 16.6251C8.05096 16.3001 7.52265 16.3001 7.19768 16.6251L3.66133 20.1598C3.33636 20.4847 3.33636 21.0131 3.66133 21.338C3.82468 21.4997 4.03794 21.5814 4.25128 21.5814C4.46462 21.5814 4.67789 21.4997 4.83959 21.338L8.37594 17.8033C8.70091 17.4784 8.70091 16.95 8.37594 16.6251Z" fill="#FF8A00"/>
<path d="M21.3394 3.66098C21.0144 3.33436 20.4861 3.33436 20.1595 3.66098L16.6231 7.19568C16.2982 7.52065 16.2982 8.04897 16.6231 8.37394C16.7865 8.53557 16.9997 8.61728 17.2131 8.61728C17.4264 8.61728 17.6397 8.53728 17.803 8.37394L21.3394 4.83924C21.6644 4.51426 21.6644 3.98767 21.3394 3.66098Z" fill="#FF8A00"/>
</svg>
