<svg width="40" height="30" viewBox="0 0 40 30" fill="none" xmlns="http://www.w3.org/2000/svg">
<path d="M37.3695 0.344238H2.63047C1.18008 0.344238 0 1.52432 0 2.97471V27.0248C0 28.4753 1.18008 29.6553 2.63047 29.6553H37.3695C38.82 29.6553 40 28.4752 40 27.0248V2.97471C40 1.52432 38.8199 0.344238 37.3695 0.344238ZM9.35281 28.4027H2.63047C1.8707 28.4027 1.25258 27.7846 1.25258 27.0248V2.97471C1.25258 2.21494 1.8707 1.59682 2.63047 1.59682H9.35281V28.4027ZM38.7474 27.0249C38.7474 27.7846 38.1293 28.4028 37.3695 28.4028H10.6055V1.59689H37.3695C38.1293 1.59689 38.7474 2.21502 38.7474 2.97479V27.0249Z" fill="#13ACAC"/>
<path d="M15.3234 3.0166H12.6511C12.3052 3.0166 12.0248 3.29699 12.0248 3.64293C12.0248 3.98887 12.3052 4.26926 12.6511 4.26926H15.3234C15.6692 4.26926 15.9497 3.98887 15.9497 3.64293C15.9497 3.29699 15.6692 3.0166 15.3234 3.0166Z" fill="#13ACAC"/>
<path d="M7.30754 3.0166H3.29918C2.95332 3.0166 2.67285 3.29699 2.67285 3.64293C2.67285 3.98887 2.95324 4.26926 3.29918 4.26926H7.30754C7.6534 4.26926 7.93387 3.98887 7.93387 3.64293C7.93387 3.29699 7.65348 3.0166 7.30754 3.0166Z" fill="#13ACAC"/>
<path d="M7.30754 9.69727H3.29918C2.95332 9.69727 2.67285 9.97766 2.67285 10.3236C2.67285 10.6695 2.95324 10.9499 3.29918 10.9499H7.30754C7.6534 10.9499 7.93387 10.6695 7.93387 10.3236C7.93387 9.97766 7.65348 9.69727 7.30754 9.69727Z" fill="#13ACAC"/>
<path d="M7.30754 15.0415H3.29918C2.95332 15.0415 2.67285 15.3219 2.67285 15.6678C2.67285 16.0138 2.95324 16.2942 3.29918 16.2942H7.30754C7.6534 16.2942 7.93387 16.0138 7.93387 15.6678C7.93387 15.3219 7.65348 15.0415 7.30754 15.0415Z" fill="#13ACAC"/>
<path d="M7.30754 20.3862H3.29918C2.95332 20.3862 2.67285 20.6666 2.67285 21.0126C2.67285 21.3585 2.95324 21.6389 3.29918 21.6389H7.30754C7.6534 21.6389 7.93387 21.3585 7.93387 21.0126C7.93387 20.6666 7.65348 20.3862 7.30754 20.3862Z" fill="#13ACAC"/>
<path d="M7.30754 12.3696H3.29918C2.95332 12.3696 2.67285 12.65 2.67285 12.996C2.67285 13.3419 2.95324 13.6223 3.29918 13.6223H7.30754C7.6534 13.6223 7.93387 13.3419 7.93387 12.996C7.93387 12.65 7.65348 12.3696 7.30754 12.3696Z" fill="#13ACAC"/>
<path d="M7.30754 17.7139H3.29918C2.95332 17.7139 2.67285 17.9943 2.67285 18.3402C2.67285 18.6861 2.95324 18.9665 3.29918 18.9665H7.30754C7.6534 18.9665 7.93387 18.6861 7.93387 18.3402C7.93387 17.9943 7.65348 17.7139 7.30754 17.7139Z" fill="#13ACAC"/>
<path d="M5.97145 24.3945H3.29918C2.95332 24.3945 2.67285 24.6749 2.67285 25.0209C2.67285 25.3667 2.95324 25.6472 3.29918 25.6472H5.97145C6.31731 25.6472 6.59777 25.3668 6.59777 25.0209C6.59777 24.6749 6.31731 24.3945 5.97145 24.3945Z" fill="#13ACAC"/>
<path d="M5.97145 5.68896H3.29918C2.95332 5.68896 2.67285 5.96936 2.67285 6.31529C2.67285 6.66123 2.95324 6.94162 3.29918 6.94162H5.97145C6.31731 6.94162 6.59777 6.66123 6.59777 6.31529C6.59777 5.96936 6.31731 5.68896 5.97145 5.68896Z" fill="#13ACAC"/>
<path d="M20.6686 3.0166H17.9963C17.6505 3.0166 17.37 3.29699 17.37 3.64293C17.37 3.98887 17.6504 4.26926 17.9963 4.26926H20.6686C21.0144 4.26926 21.2949 3.98887 21.2949 3.64293C21.2949 3.29699 21.0145 3.0166 20.6686 3.0166Z" fill="#13ACAC"/>
<path d="M26.0123 3.0166H23.3401C22.9942 3.0166 22.7137 3.29699 22.7137 3.64293C22.7137 3.98887 22.9941 4.26926 23.3401 4.26926H26.0123C26.3582 4.26926 26.6387 3.98887 26.6387 3.64293C26.6387 3.29699 26.3583 3.0166 26.0123 3.0166Z" fill="#13ACAC"/>
<path d="M31.3571 3.0166H28.6848C28.3389 3.0166 28.0585 3.29699 28.0585 3.64293C28.0585 3.98887 28.3389 4.26926 28.6848 4.26926H31.3571C31.7029 4.26926 31.9834 3.98887 31.9834 3.64293C31.9834 3.29699 31.7029 3.0166 31.3571 3.0166Z" fill="#13ACAC"/>
<path d="M36.7013 3.0166H34.029C33.6832 3.0166 33.4027 3.29699 33.4027 3.64293C33.4027 3.98887 33.6831 4.26926 34.029 4.26926H36.7013C37.0472 4.26926 37.3276 3.98887 37.3276 3.64293C37.3276 3.29699 37.0472 3.0166 36.7013 3.0166Z" fill="#13ACAC"/>
<path d="M19.7084 17.1717C19.4318 16.964 19.0391 17.0198 18.8315 17.2963C18.313 17.9864 17.5215 18.3822 16.6598 18.3822C15.1633 18.3822 13.9458 17.1647 13.9458 15.6682C13.9458 14.1717 15.1633 12.9542 16.6598 12.9542C17.5221 12.9542 18.3141 13.3506 18.8324 14.0415C19.04 14.3181 19.4326 14.3743 19.7092 14.1667C19.9859 13.959 20.0419 13.5665 19.8344 13.2899C19.0771 12.2805 17.9201 11.7017 16.6597 11.7017C14.4726 11.7017 12.6931 13.4811 12.6931 15.6682C12.6931 17.8553 14.4726 19.6348 16.6597 19.6348C17.9191 19.6348 19.0756 19.0567 19.8329 18.0486C20.0408 17.772 19.985 17.3795 19.7084 17.1717Z" fill="#13ACAC"/>
<path d="M25.8868 16.9062C27.0779 16.6555 27.975 15.5968 27.975 14.3321C27.975 12.8817 26.795 11.7017 25.3446 11.7017H22.0043C21.6584 11.7017 21.3779 11.9821 21.3779 12.328V19.0085C21.3779 19.3544 21.6583 19.6349 22.0043 19.6349C22.3502 19.6349 22.6306 19.3545 22.6306 19.0085V16.9626H24.3634L26.1796 19.3843C26.3028 19.5484 26.4908 19.6349 26.6812 19.6349C26.812 19.6349 26.9439 19.594 27.0565 19.5096C27.3332 19.3021 27.3893 18.9095 27.1818 18.6328L25.8868 16.9062ZM22.6305 15.7101V12.9544H25.3445C26.1043 12.9544 26.7224 13.5725 26.7224 14.3323C26.7224 15.0921 26.1043 15.7102 25.3445 15.7102H22.6305V15.7101Z" fill="#13ACAC"/>
<path d="M36.6564 18.9457L35.9883 12.2652C35.9596 11.9781 35.7385 11.7478 35.4528 11.7074C35.1674 11.6669 34.8907 11.827 34.7836 12.095L32.6929 17.3218L30.6021 12.095C30.4949 11.8271 30.2186 11.6673 29.9329 11.7074C29.6472 11.7478 29.4261 11.9781 29.3974 12.2652L28.7293 18.9458C28.695 19.29 28.9461 19.5968 29.2903 19.6313C29.6341 19.6657 29.9413 19.4146 29.9758 19.0704L30.3893 14.9354L32.1115 19.2407C32.2066 19.4784 32.4368 19.6343 32.6929 19.6343C32.9491 19.6343 33.1793 19.4784 33.2744 19.2407L34.9965 14.9354L35.41 19.0704C35.4424 19.3933 35.7146 19.6343 36.0325 19.6343C36.0534 19.6343 36.0744 19.6333 36.0956 19.6311C36.4397 19.5968 36.6907 19.2899 36.6564 18.9457Z" fill="#13ACAC"/>
</svg>
