<svg width="22" height="22" viewBox="0 0 22 22" fill="none" xmlns="http://www.w3.org/2000/svg">
<path d="M21.9945 22L22 21.999V14C22 9.87342 21.1503 7.25843 16.5358 7.25843C14.3174 7.25843 12.8288 8.5311 12.221 9.73764H12.1569V7.64368H7.78161V21.999H12.3374V15.3956C12.3374 13.3937 12.7004 11.4578 15.0718 11.4578C17.4084 11.4578 17.4433 13.2185 17.4433 15V22H21.9945Z" fill="#9DA8B2"/>
<path d="M0.362832 7.64461H4.92416V22H0.362832V7.64461Z" fill="#9DA8B2"/>
<path d="M2.64183 0C1.18341 0 0 1.23721 0 2.76191C0 4.28662 1.18341 5.5497 2.64183 5.5497C4.10024 5.5497 5.28365 4.28662 5.28365 2.76191C5.28274 1.23721 4.09932 0 2.64183 0Z" fill="#9DA8B2"/>
</svg>
