<svg width="40" height="30" viewBox="0 0 40 30" fill="none" xmlns="http://www.w3.org/2000/svg">
<path fill-rule="evenodd" clip-rule="evenodd" d="M2.63047 0.344482H37.3695C38.8199 0.344482 40 1.52456 40 2.97495V27.025C40 28.4754 38.82 29.6555 37.3695 29.6555H2.63047C1.18008 29.6555 0 28.4755 0 27.025V2.97495C0 1.52456 1.18008 0.344482 2.63047 0.344482ZM2.63047 28.4029H9.35281L10.6055 28.403H37.3695C38.1293 28.403 38.7474 27.7849 38.7474 27.0251V5.75817V4.50024V2.97503C38.7474 2.21526 38.1293 1.59714 37.3695 1.59714H10.6055L9.35281 1.59706H2.63047C1.8707 1.59706 1.25258 2.21519 1.25258 2.97495V4.50024V5.75817V27.025C1.25258 27.7848 1.8707 28.4029 2.63047 28.4029Z" fill="#7F52D1"/>
<path d="M1.25258 4.50024V5.75817H38.7474V4.50024H1.25258Z" fill="#7F52D1"/>
<path d="M3.5 2.50024V3.50024H4.5V2.50024H3.5Z" fill="#7F52D1"/>
<path d="M5.5 2.50024V3.50024H6.5V2.50024H5.5Z" fill="#7F52D1"/>
<path d="M7.5 2.50024V3.50024H8.5V2.50024H7.5Z" fill="#7F52D1"/>
<path d="M16.2917 11.8364C16.2366 11.7811 16.1711 11.7373 16.099 11.7074C16.0269 11.6775 15.9496 11.6621 15.8715 11.6621C15.7934 11.6621 15.7161 11.6775 15.644 11.7074C15.5719 11.7373 15.5064 11.7811 15.4512 11.8364L11.1743 16.113C11.119 16.1682 11.0752 16.2337 11.0453 16.3058C11.0154 16.378 11 16.4553 11 16.5334C11 16.6115 11.0154 16.6888 11.0453 16.761C11.0752 16.8331 11.119 16.8986 11.1743 16.9538L15.4512 21.2318C15.5627 21.3432 15.7139 21.4058 15.8715 21.4058C16.0291 21.4058 16.1803 21.3432 16.2917 21.2318C16.4032 21.1203 16.4658 20.9691 16.4658 20.8115C16.4658 20.6539 16.4032 20.5027 16.2917 20.3913L12.4354 16.5332L16.2917 12.6769C16.347 12.6217 16.3908 12.5562 16.4207 12.4841C16.4506 12.412 16.466 12.3347 16.466 12.2566C16.466 12.1786 16.4506 12.1013 16.4207 12.0292C16.3908 11.957 16.347 11.8915 16.2917 11.8364Z" fill="#7F52D1"/>
<path d="M25.0644 11.8362C24.9529 11.7247 24.8018 11.6621 24.6441 11.6621C24.4865 11.6621 24.3353 11.7247 24.2239 11.8362C24.1124 11.9476 24.0498 12.0988 24.0498 12.2564C24.0498 12.4141 24.1124 12.5652 24.2239 12.6767L28.0802 16.533L24.2239 20.3897C24.1686 20.4449 24.1247 20.5104 24.0948 20.5826C24.0648 20.6547 24.0494 20.7321 24.0493 20.8102C24.0493 20.8883 24.0646 20.9656 24.0944 21.0378C24.1242 21.11 24.168 21.1756 24.2232 21.2309C24.2784 21.2862 24.3439 21.33 24.4161 21.36C24.4882 21.3899 24.5655 21.4054 24.6436 21.4055C24.7218 21.4055 24.7991 21.3902 24.8713 21.3604C24.9435 21.3305 25.0091 21.2868 25.0644 21.2316L29.3413 16.9536C29.3966 16.8984 29.4404 16.8329 29.4703 16.7608C29.5002 16.6886 29.5156 16.6113 29.5156 16.5332C29.5156 16.4551 29.5002 16.3778 29.4703 16.3056C29.4404 16.2335 29.3966 16.168 29.3413 16.1128L25.0644 11.8362Z" fill="#7F52D1"/>
<path d="M22.5779 8.1271C22.4259 8.08548 22.2635 8.10581 22.1265 8.18362C21.9894 8.26143 21.8887 8.39038 21.8465 8.54226L17.523 24.2085C17.5013 24.284 17.4949 24.3631 17.504 24.4412C17.5131 24.5192 17.5376 24.5947 17.5761 24.6632C17.6145 24.7317 17.6662 24.7919 17.7281 24.8404C17.7899 24.8888 17.8608 24.9245 17.9366 24.9454C18.0123 24.9663 18.0914 24.9719 18.1694 24.962C18.2473 24.9521 18.3226 24.9269 18.3907 24.8877C18.4588 24.8486 18.5185 24.7963 18.5663 24.734C18.6142 24.6716 18.6491 24.6004 18.6693 24.5245L22.9927 8.85821C23.0135 8.78297 23.0193 8.70437 23.0097 8.6269C23.0001 8.54942 22.9753 8.4746 22.9368 8.40671C22.8983 8.33881 22.8468 8.27917 22.7852 8.2312C22.7236 8.18322 22.6532 8.14785 22.5779 8.1271Z" fill="#7F52D1"/>
</svg>
