<svg width="56" height="54" viewBox="0 0 56 54" fill="none" xmlns="http://www.w3.org/2000/svg">
<path d="M17.2949 30.8236C20.5176 30.8236 22.1289 32.4349 22.1289 35.6576V48.763C22.1289 51.9857 20.5176 53.597 17.2949 53.597H4.83398C1.61133 53.597 0 51.9857 0 48.763V35.6576C0 28.138 0.78776 21.5853 2.36328 15.9993C4.01042 10.3418 7.19727 5.40039 11.9238 1.17513C13.4993 -0.185547 14.8242 -0.364583 15.8984 0.638021L20.7324 5.14974C21.8066 6.15234 21.556 7.36979 19.9805 8.80208C17.5456 10.9505 15.5404 14.0658 13.9648 18.1478C12.4609 22.1582 11.709 26.3835 11.709 30.8236H17.2949Z" fill="#0051AF"/>
<path d="M50.991 30.8236C54.2137 30.8236 55.825 32.4349 55.825 35.6576V48.763C55.825 51.9857 54.2137 53.597 50.991 53.597H38.5301C35.3074 53.597 33.6961 51.9857 33.6961 48.763V35.6576C33.6961 28.138 34.4839 21.5853 36.0594 15.9993C37.7065 10.3418 40.8934 5.40039 45.6199 1.17513C47.1954 -0.185547 48.5203 -0.364583 49.5945 0.638021L54.4285 5.14974C55.5027 6.15234 55.2521 7.36979 53.6766 8.80208C51.2417 10.9505 49.2365 14.0658 47.6609 18.1478C46.157 22.1582 45.4051 26.3835 45.4051 30.8236H50.991Z" fill="#0051AF"/>
</svg>
