<svg width="32" height="32" viewBox="0 0 32 32" fill="none" xmlns="http://www.w3.org/2000/svg">
<path fill-rule="evenodd" clip-rule="evenodd" d="M16 30.4C23.9529 30.4 30.4 23.9529 30.4 16C30.4 8.0471 23.9529 1.6 16 1.6C8.0471 1.6 1.6 8.0471 1.6 16C1.6 23.9529 8.0471 30.4 16 30.4ZM16 32C24.8366 32 32 24.8366 32 16C32 7.16344 24.8366 0 16 0C7.16344 0 0 7.16344 0 16C0 24.8366 7.16344 32 16 32Z" fill="#BABCCD"/>
<path fill-rule="evenodd" clip-rule="evenodd" d="M20.8995 15.1395L15.8011 10.597L16.8655 9.40234L24.1959 15.9336L16.8714 22.5916L15.7952 21.4077L20.9306 16.7395H8V15.1395H20.8995Z" fill="#BABCCD"/>
</svg>
