<svg width="38" height="37" viewBox="0 0 38 37" fill="none" xmlns="http://www.w3.org/2000/svg">
<path d="M32.1251 13.625H25.8751C25.0893 13.626 24.3329 13.9242 23.7579 14.4598C23.1829 14.9954 22.8318 15.7287 22.7751 16.5125L19.0001 21.7C18.9956 20.3462 18.5035 19.0394 17.6139 18.019C16.7244 16.9985 15.4969 16.3328 14.1564 16.1438L12.4626 15.5812L12.1251 15.2437V13.4625C12.6156 13.1196 13.0306 12.6798 13.3445 12.1703C13.6583 11.6607 13.8645 11.0923 13.9501 10.5H14.6251C14.9563 10.499 15.2737 10.367 15.5079 10.1328C15.7421 9.89859 15.8741 9.58122 15.8751 9.25V8.625C15.8741 8.29378 15.7421 7.97642 15.5079 7.74221C15.2737 7.508 14.9563 7.37599 14.6251 7.375H14.0001V7.2C14.5775 6.79919 15.0495 6.26483 15.3759 5.64239C15.7024 5.01995 15.8736 4.32785 15.8751 3.625V1.125C15.8751 0.95924 15.8093 0.800269 15.6921 0.683058C15.5748 0.565848 15.4159 0.5 15.2501 0.5H7.75011C6.5902 0.501323 5.47817 0.962685 4.65798 1.78287C3.8378 2.60305 3.37644 3.71508 3.37511 4.875V6.125C3.37697 6.39309 3.43589 6.65772 3.54797 6.90127C3.66004 7.14481 3.8227 7.3617 4.02511 7.5375C3.82901 7.64359 3.66513 7.80059 3.55074 7.99197C3.43635 8.18335 3.37568 8.40204 3.37511 8.625V9.25C3.3761 9.58122 3.50812 9.89859 3.74232 10.1328C3.97653 10.367 4.2939 10.499 4.62511 10.5H5.30011C5.38575 11.0923 5.59188 11.6607 5.90577 12.1703C6.21965 12.6798 6.63464 13.1196 7.12511 13.4625V15.2437L6.78761 15.5812L5.09386 16.1438C3.74439 16.333 2.5095 17.0056 1.61862 18.0368C0.727738 19.0679 0.241453 20.3874 0.250114 21.75V36.125C0.250114 36.2908 0.315962 36.4497 0.433172 36.5669C0.550382 36.6842 0.709353 36.75 0.875114 36.75H17.1251C17.6219 36.7485 18.098 36.5505 18.4493 36.1992C18.8006 35.8479 18.9986 35.3718 19.0001 34.875V30.6813L27.4689 17.375H29.6251C30.4539 17.375 31.2488 17.0458 31.8348 16.4597C32.4209 15.8737 32.7501 15.0788 32.7501 14.25C32.7501 14.0842 32.6843 13.9253 32.5671 13.8081C32.4498 13.6908 32.2909 13.625 32.1251 13.625ZM14.6251 8.625V9.25H14.0001V8.625H14.6251ZM5.25011 9.25H4.62511V8.625H5.25011V9.25ZM5.59386 5.56875C5.49024 5.62 5.40309 5.6993 5.34232 5.79764C5.28155 5.89598 5.2496 6.0094 5.25011 6.125V6.75C5.08435 6.75 4.92538 6.68415 4.80817 6.56694C4.69096 6.44973 4.62511 6.29076 4.62511 6.125V4.875C4.62511 4.0462 4.95435 3.25134 5.54041 2.66529C6.12646 2.07924 6.92131 1.75 7.75011 1.75H14.6251V3.625C14.6236 4.39168 14.3387 5.13073 13.8251 5.7C13.743 5.61403 13.6394 5.55148 13.5251 5.51875L8.52511 4.26875C8.38009 4.23209 8.22665 4.24988 8.09386 4.31875L5.59386 5.56875ZM6.50011 9.875V6.5125L8.45011 5.5375L12.7501 6.6125V9.875C12.7501 10.7038 12.4209 11.4987 11.8348 12.0847C11.2488 12.6708 10.4539 13 9.62511 13C8.79631 13 8.00146 12.6708 7.41541 12.0847C6.82935 11.4987 6.50011 10.7038 6.50011 9.875ZM11.0564 15.9437L11.2439 16.125L9.62511 17.7437L8.00636 16.125L8.19386 15.9437C8.30899 15.8246 8.37388 15.6657 8.37511 15.5V14.0687C9.19093 14.3104 10.0593 14.3104 10.8751 14.0687V15.5C10.8763 15.6657 10.9412 15.8246 11.0564 15.9437ZM6.95636 16.8375L9.18136 19.0687C9.29937 19.1858 9.45887 19.2516 9.62511 19.2516C9.79136 19.2516 9.95086 19.1858 10.0689 19.0687L12.2939 16.8375L13.0001 17.075L10.5564 20.5H8.69386L6.25011 17.075L6.95636 16.8375ZM10.7626 24.25L11.4564 28.4125L9.62511 30.2437L7.79386 28.4125L8.48761 24.25H10.7626ZM8.69386 23L8.90636 21.75H10.3439L10.5564 23H8.69386ZM4.00011 35.5H1.50011V29.25H4.00011V35.5ZM17.8501 30.1625C17.7834 30.2623 17.7485 30.38 17.7501 30.5V34.875C17.7501 35.0408 17.6843 35.1997 17.5671 35.3169C17.4498 35.4342 17.2909 35.5 17.1251 35.5H5.25011V28.625C5.25011 28.4592 5.18427 28.3003 5.06706 28.1831C4.94985 28.0658 4.79087 28 4.62511 28H1.50011V21.75C1.49297 20.7409 1.83415 19.7602 2.46607 18.9734C3.098 18.1867 3.98198 17.642 4.96886 17.4312L7.71886 21.275L6.50636 28.525C6.49078 28.623 6.49851 28.7233 6.52891 28.8178C6.55932 28.9122 6.61154 28.9982 6.68136 29.0687L9.18136 31.5687C9.29984 31.6849 9.45917 31.75 9.62511 31.75C9.79106 31.75 9.95039 31.6849 10.0689 31.5687L12.5689 29.0687C12.6387 28.9982 12.6909 28.9122 12.7213 28.8178C12.7517 28.7233 12.7594 28.623 12.7439 28.525L11.5314 21.275L14.2814 17.4312C15.2682 17.642 16.1522 18.1867 16.7842 18.9734C17.4161 19.7602 17.7573 20.7409 17.7501 21.75V23.625C17.7496 23.7573 17.7911 23.8863 17.8686 23.9935C17.9461 24.1006 18.0557 24.1805 18.1814 24.2215C18.3072 24.2625 18.4427 24.2625 18.5685 24.2216C18.6942 24.1807 18.8038 24.1009 18.8814 23.9937L23.6939 17.375H25.9876L17.8501 30.1625ZM29.6251 16.125H24.1064C24.2368 15.76 24.4766 15.4441 24.7931 15.2204C25.1097 14.9967 25.4875 14.8761 25.8751 14.875H31.3939C31.2635 15.24 31.0236 15.5559 30.7071 15.7796C30.3906 16.0033 30.0127 16.1239 29.6251 16.125Z" fill="#BFAE6F"/>
<path d="M32.1251 1.125H24.6251C24.1283 1.12648 23.6522 1.3245 23.3009 1.67581C22.9496 2.02712 22.7516 2.50318 22.7501 3V10.5C22.7516 10.9968 22.9496 11.4729 23.3009 11.8242C23.6522 12.1755 24.1283 12.3735 24.6251 12.375H32.1251C32.6219 12.3735 33.098 12.1755 33.4493 11.8242C33.8006 11.4729 33.9986 10.9968 34.0001 10.5V3C33.9986 2.50318 33.8006 2.02712 33.4493 1.67581C33.098 1.3245 32.6219 1.12648 32.1251 1.125ZM27.7501 2.375H29.0001V5.24375L28.8189 5.05625C28.7009 4.93916 28.5414 4.87345 28.3751 4.87345C28.2089 4.87345 28.0494 4.93916 27.9314 5.05625L27.7501 5.24375V2.375ZM32.7501 10.5C32.7501 10.6658 32.6843 10.8247 32.5671 10.9419C32.4499 11.0592 32.2909 11.125 32.1251 11.125H24.6251C24.4594 11.125 24.3004 11.0592 24.1832 10.9419C24.066 10.8247 24.0001 10.6658 24.0001 10.5V3C24.0001 2.83424 24.066 2.67527 24.1832 2.55806C24.3004 2.44085 24.4594 2.375 24.6251 2.375H26.5001V6.75C26.4997 6.87364 26.5363 6.99457 26.6054 7.0971C26.6745 7.19963 26.7728 7.27903 26.8876 7.325C27.0014 7.37286 27.1269 7.38594 27.2481 7.36258C27.3694 7.33922 27.481 7.28047 27.5689 7.19375L28.3751 6.38125L29.1814 7.19375C29.2996 7.31033 29.4591 7.37548 29.6251 7.375C29.7071 7.37716 29.7885 7.36003 29.8626 7.325C29.9774 7.27903 30.0757 7.19963 30.1448 7.0971C30.2139 6.99457 30.2506 6.87364 30.2501 6.75V2.375H32.1251C32.2909 2.375 32.4499 2.44085 32.5671 2.55806C32.6843 2.67527 32.7501 2.83424 32.7501 3V10.5Z" fill="#BFAE6F"/>
<path d="M30.2501 21.75C28.7668 21.75 27.3167 22.1899 26.0833 23.014C24.85 23.8381 23.8887 25.0094 23.321 26.3799C22.7534 27.7503 22.6048 29.2583 22.8942 30.7132C23.1836 32.168 23.8979 33.5044 24.9468 34.5533C25.9957 35.6022 27.3321 36.3165 28.7869 36.6059C30.2418 36.8953 31.7498 36.7467 33.1202 36.1791C34.4907 35.6114 35.662 34.6501 36.4861 33.4168C37.3102 32.1834 37.7501 30.7334 37.7501 29.25C37.748 27.2615 36.9571 25.3551 35.551 23.9491C34.145 22.543 32.2386 21.7522 30.2501 21.75ZM30.2501 35.5C29.014 35.5 27.8056 35.1334 26.7778 34.4467C25.75 33.7599 24.9489 32.7838 24.4759 31.6418C24.0028 30.4997 23.8791 29.2431 24.1202 28.0307C24.3614 26.8183 24.9566 25.7047 25.8307 24.8306C26.7048 23.9565 27.8184 23.3612 29.0308 23.1201C30.2432 22.8789 31.4999 23.0027 32.6419 23.4758C33.7839 23.9488 34.76 24.7499 35.4468 25.7777C36.1336 26.8055 36.5001 28.0139 36.5001 29.25C36.4983 30.907 35.8392 32.4957 34.6675 33.6674C33.4958 34.8391 31.9072 35.4982 30.2501 35.5Z" fill="#BFAE6F"/>
<path d="M9.00012 7.375H7.75012V8.625H9.00012V7.375Z" fill="#BFAE6F"/>
<path d="M11.5001 7.375H10.2501V8.625H11.5001V7.375Z" fill="#BFAE6F"/>
<path d="M30.8751 24.25H29.6251V29.25C29.6251 29.4158 29.691 29.5747 29.8082 29.6919C29.9254 29.8092 30.0844 29.875 30.2501 29.875H34.0001V28.625H30.8751V24.25Z" fill="#BFAE6F"/>
</svg>
