<svg width="54" height="54" viewBox="0 0 54 54" fill="none" xmlns="http://www.w3.org/2000/svg">
<path d="M46.4062 31.1384H43.875V28.6071C43.875 26.2809 41.9825 24.3884 39.6562 24.3884H35.4375V21.8571C35.4375 21.3914 35.0595 21.0134 34.5938 21.0134H27.8438V19.2061C29.295 18.8289 30.375 17.5186 30.375 15.9509C30.375 14.0896 28.8613 12.5759 27 12.5759C25.1387 12.5759 23.625 14.0896 23.625 15.9509C23.625 17.5186 24.705 18.8289 26.1562 19.2061V21.0134H19.4062C18.9405 21.0134 18.5625 21.3914 18.5625 21.8571V24.3884H14.3438C12.0175 24.3884 10.125 26.2809 10.125 28.6071V31.1384H7.59375C6.19819 31.1384 5.0625 32.2741 5.0625 33.6696V43.7946C5.0625 45.1902 6.19819 46.3259 7.59375 46.3259H10.125V48.8571C10.125 51.1834 12.0175 53.0759 14.3438 53.0759H39.6562C41.9825 53.0759 43.875 51.1834 43.875 48.8571V46.3259H46.4062C47.8018 46.3259 48.9375 45.1902 48.9375 43.7946V33.6696C48.9375 32.2741 47.8018 31.1384 46.4062 31.1384ZM25.3125 15.9509C25.3125 15.0202 26.0693 14.2634 27 14.2634C27.9307 14.2634 28.6875 15.0202 28.6875 15.9509C28.6875 16.8816 27.9307 17.6384 27 17.6384C26.0693 17.6384 25.3125 16.8816 25.3125 15.9509ZM7.59375 44.6384C7.12884 44.6384 6.75 44.2596 6.75 43.7946V33.6696C6.75 33.2047 7.12884 32.8259 7.59375 32.8259H10.125V44.6384H7.59375ZM20.25 22.7009H33.75V24.3884H20.25V22.7009ZM42.1875 48.8571C42.1875 50.2527 41.0518 51.3884 39.6562 51.3884H14.3438C12.9482 51.3884 11.8125 50.2527 11.8125 48.8571V28.6071C11.8125 27.2116 12.9482 26.0759 14.3438 26.0759H39.6562C41.0518 26.0759 42.1875 27.2116 42.1875 28.6071V48.8571ZM47.25 43.7946C47.25 44.2596 46.8712 44.6384 46.4062 44.6384H43.875V32.8259H46.4062C46.8712 32.8259 47.25 33.2047 47.25 33.6696V43.7946Z" fill="#C6D0DE"/>
<path d="M34.5938 39.5759H19.4062C18.9405 39.5759 18.5625 39.9539 18.5625 40.4196V41.2634C18.5625 45.9158 22.3476 49.7009 27 49.7009C31.6524 49.7009 35.4375 45.9158 35.4375 41.2634V40.4196C35.4375 39.9539 35.0595 39.5759 34.5938 39.5759ZM27 48.0134C23.2782 48.0134 20.25 44.9852 20.25 41.2634H33.75C33.75 44.9852 30.7218 48.0134 27 48.0134Z" fill="#C6D0DE"/>
<path d="M21.9375 34.5134C21.9375 32.6521 20.4238 31.1384 18.5625 31.1384C16.7012 31.1384 15.1875 32.6521 15.1875 34.5134C15.1875 36.3747 16.7012 37.8884 18.5625 37.8884C20.4238 37.8884 21.9375 36.3747 21.9375 34.5134ZM16.875 34.5134C16.875 33.5827 17.6318 32.8259 18.5625 32.8259C19.4932 32.8259 20.25 33.5827 20.25 34.5134C20.25 35.4441 19.4932 36.2009 18.5625 36.2009C17.6318 36.2009 16.875 35.4441 16.875 34.5134Z" fill="#C6D0DE"/>
<path d="M35.4375 31.1384C33.5762 31.1384 32.0625 32.6521 32.0625 34.5134C32.0625 36.3747 33.5762 37.8884 35.4375 37.8884C37.2988 37.8884 38.8125 36.3747 38.8125 34.5134C38.8125 32.6521 37.2988 31.1384 35.4375 31.1384ZM35.4375 36.2009C34.5068 36.2009 33.75 35.4441 33.75 34.5134C33.75 33.5827 34.5068 32.8259 35.4375 32.8259C36.3682 32.8259 37.125 33.5827 37.125 34.5134C37.125 35.4441 36.3682 36.2009 35.4375 36.2009Z" fill="#C6D0DE"/>
<path d="M13.7472 19.0787C13.9084 19.2398 14.1244 19.3259 14.3438 19.3259C14.4526 19.3259 14.5623 19.3048 14.6669 19.2618C14.9816 19.131 15.1875 18.8239 15.1875 18.4821V15.9509H20.25C21.6456 15.9509 22.7812 14.8152 22.7812 13.4196V3.29465C22.7812 1.89908 21.6456 0.763397 20.25 0.763397H3.375C1.97944 0.763397 0.84375 1.89908 0.84375 3.29465V13.4196C0.84375 14.8152 1.97944 15.9509 3.375 15.9509H10.6194L13.7472 19.0787ZM2.53125 13.4196V3.29465C2.53125 2.82974 2.91009 2.4509 3.375 2.4509H20.25C20.7149 2.4509 21.0938 2.82974 21.0938 3.29465V13.4196C21.0938 13.8846 20.7149 14.2634 20.25 14.2634H14.3438C13.878 14.2634 13.5 14.6414 13.5 15.1071V16.4453L11.5653 14.5106C11.4067 14.352 11.1923 14.2634 10.9688 14.2634H3.375C2.91009 14.2634 2.53125 13.8854 2.53125 13.4196Z" fill="#C6D0DE"/>
<path d="M50.625 4.1384H33.75C32.3544 4.1384 31.2188 5.27408 31.2188 6.66965V16.7946C31.2188 18.1902 32.3544 19.3259 33.75 19.3259H38.8125V21.8571C38.8125 22.198 39.0184 22.506 39.3331 22.6368C39.4377 22.6798 39.5474 22.7009 39.6562 22.7009C39.8756 22.7009 40.0916 22.6148 40.2528 22.4537L43.3806 19.3259H50.625C52.0206 19.3259 53.1562 18.1902 53.1562 16.7946V6.66965C53.1562 5.27408 52.0206 4.1384 50.625 4.1384ZM51.4688 16.7946C51.4688 17.2596 51.0899 17.6384 50.625 17.6384H43.0312C42.8077 17.6384 42.5925 17.727 42.4347 17.8856L40.5 19.8203V18.4821C40.5 18.0164 40.122 17.6384 39.6562 17.6384H33.75C33.2851 17.6384 32.9062 17.2596 32.9062 16.7946V6.66965C32.9062 6.20474 33.2851 5.8259 33.75 5.8259H50.625C51.0899 5.8259 51.4688 6.20474 51.4688 6.66965V16.7946Z" fill="#C6D0DE"/>
<path d="M4.21875 4.1384H19.4062V5.8259H4.21875V4.1384Z" fill="#C6D0DE"/>
<path d="M4.21875 10.8884H19.4062V12.5759H4.21875V10.8884Z" fill="#C6D0DE"/>
<path d="M5.90625 7.5134H17.7188V9.2009H5.90625V7.5134Z" fill="#C6D0DE"/>
<path d="M34.5938 7.5134H49.7812V9.2009H34.5938V7.5134Z" fill="#C6D0DE"/>
<path d="M34.5938 14.2634H49.7812V15.9509H34.5938V14.2634Z" fill="#C6D0DE"/>
<path d="M36.2812 10.8884H48.0938V12.5759H36.2812V10.8884Z" fill="#C6D0DE"/>
</svg>
