<svg width="54" height="54" viewBox="0 0 54 54" fill="none" xmlns="http://www.w3.org/2000/svg">
<path d="M47.9149 6.08003C39.8538 -2.00339 26.7661 -2.02162 18.6827 6.03948C10.883 13.8175 10.553 26.3454 17.9322 34.5234L16.3537 36.1019C15.0783 34.8264 13.0104 34.8262 11.7349 36.1015C11.7348 36.1017 11.7346 36.1018 11.7345 36.1019L0.956777 46.8797C-0.318721 48.155 -0.318994 50.2229 0.956369 51.4984C0.956505 51.4986 0.956641 51.4987 0.956777 51.4988L2.49614 53.0382C3.7715 54.3131 5.83886 54.3131 7.11422 53.0382L17.8919 42.2605C19.1674 40.9851 19.1677 38.9172 17.8923 37.6417C17.8922 37.6416 17.8921 37.6414 17.8919 37.6413L19.4705 36.0628C27.9402 43.717 41.0112 43.0557 48.6654 34.5861C56.0588 26.405 55.7285 13.8608 47.9149 6.08003ZM16.3537 40.72L5.57595 51.4977C5.15083 51.9227 4.46171 51.9227 4.03659 51.4977L2.49723 49.9573C2.07292 49.5323 2.07292 48.844 2.49723 48.419L13.2749 37.6413C13.7055 37.2297 14.3837 37.2297 14.8143 37.6413L16.3537 39.1818C16.778 39.6067 16.778 40.295 16.3537 40.72ZM46.3767 33.7929C39.1491 41.0202 27.4309 41.0201 20.2036 33.7925C12.9762 26.5649 12.9764 14.8467 20.204 7.61939C27.4314 0.392202 39.1492 0.392202 46.3767 7.61939C53.5924 14.8519 53.5924 26.5604 46.3767 33.7929Z" fill="#C6D0DE"/>
<path d="M44.8353 9.1586L43.2959 10.698C48.8134 16.2289 48.8134 25.182 43.2959 30.7129L44.8353 32.2523C51.2034 25.8714 51.2034 15.5395 44.8353 9.1586Z" fill="#C6D0DE"/>
</svg>
