<svg width="50" height="51" viewBox="0 0 50 51" fill="none" xmlns="http://www.w3.org/2000/svg">
<path d="M49.7795 46.0516L47.0947 43.3668C46.9554 43.2323 46.769 43.1578 46.5754 43.1594C46.3818 43.1611 46.1966 43.2387 46.0597 43.3755C45.9228 43.5124 45.8451 43.6976 45.8434 43.8911C45.8417 44.0847 45.9161 44.2712 46.0505 44.4105L47.4752 45.8352H4.16508V2.52463L5.58933 3.94845C5.72779 4.08692 5.91559 4.1647 6.1114 4.1647C6.30722 4.1647 6.49501 4.08692 6.63347 3.94845C6.77193 3.80999 6.84972 3.6222 6.84972 3.42638C6.84972 3.23057 6.77193 3.04278 6.63347 2.90431L3.94824 0.220345C3.87971 0.151731 3.79833 0.0972988 3.70875 0.0601604C3.61917 0.023022 3.52314 0.00390625 3.42617 0.00390625C3.32919 0.00390625 3.23317 0.023022 3.14359 0.0601604C3.05401 0.0972988 2.97263 0.151731 2.9041 0.220345L0.220129 2.90474C0.0877398 3.04436 0.015087 3.23014 0.0176434 3.42253C0.0201997 3.61492 0.0977632 3.79872 0.233816 3.93477C0.369868 4.07082 0.55366 4.14838 0.746051 4.15094C0.938441 4.1535 1.12423 4.08084 1.26385 3.94845L2.68852 2.5242V46.573C2.68846 46.67 2.70752 46.766 2.74461 46.8556C2.78169 46.9452 2.83607 47.0266 2.90463 47.0952C2.9732 47.1638 3.05461 47.2181 3.14421 47.2552C3.2338 47.2923 3.32983 47.3114 3.4268 47.3113H47.4752L46.0505 48.736C45.98 48.8041 45.9238 48.8856 45.8851 48.9756C45.8464 49.0657 45.8261 49.1626 45.8253 49.2606C45.8244 49.3587 45.8431 49.4559 45.8803 49.5466C45.9174 49.6373 45.9722 49.7197 46.0416 49.7891C46.1109 49.8584 46.1934 49.9132 46.2841 49.9503C46.3748 49.9874 46.4721 50.006 46.5701 50.0052C46.6681 50.0043 46.765 49.9839 46.855 49.9452C46.9451 49.9065 47.0266 49.8502 47.0947 49.7797L49.7795 47.0953C49.8481 47.0268 49.9025 46.9454 49.9397 46.8558C49.9768 46.7662 49.9959 46.6702 49.9959 46.5732C49.9959 46.4762 49.9768 46.3802 49.9397 46.2906C49.9025 46.2011 49.8481 46.1197 49.7795 46.0512V46.0516Z" fill="#028BFC"/>
<path d="M8.20485 31.2223C8.24883 31.2222 8.29273 31.2184 8.33606 31.2109C16.2028 29.7997 36.3372 17.6329 43.9841 4.78719L44.4275 6.64555C44.4659 6.80688 44.5576 6.95055 44.6877 7.05342C44.8178 7.15628 44.9788 7.21233 45.1446 7.21255C45.2561 7.21232 45.366 7.1869 45.4662 7.13818C45.5664 7.08947 45.6543 7.01872 45.7232 6.93123C45.7922 6.84374 45.8405 6.74178 45.8645 6.63299C45.8885 6.52419 45.8876 6.41137 45.8618 6.30298L44.981 2.60989C44.9586 2.51548 44.9178 2.4264 44.861 2.34774C44.8042 2.26908 44.7325 2.20238 44.6499 2.15145C44.5673 2.10052 44.4755 2.06636 44.3797 2.05092C44.2839 2.03548 44.1861 2.03906 44.0916 2.06145L40.3981 2.94233C40.2076 2.98775 40.043 3.10699 39.9404 3.27381C39.8378 3.44063 39.8057 3.64136 39.8512 3.83185C39.8966 4.02234 40.0158 4.18698 40.1827 4.28956C40.3495 4.39213 40.5502 4.42424 40.7407 4.37881L42.7952 3.88859C35.3044 16.6554 14.9392 28.5261 8.07492 29.7559C7.89319 29.7882 7.73016 29.8874 7.61794 30.0339C7.50573 30.1804 7.45247 30.3637 7.46867 30.5476C7.48487 30.7314 7.56935 30.9025 7.70546 31.0272C7.84157 31.1518 8.01944 31.221 8.20401 31.221L8.20485 31.2223Z" fill="#028BFC"/>
<path d="M12.4844 33.543C12.2886 33.543 12.1008 33.6208 11.9623 33.7592C11.8239 33.8977 11.7461 34.0854 11.7461 34.2812V42.2214C11.7461 42.4172 11.8239 42.6049 11.9623 42.7434C12.1008 42.8819 12.2886 42.9596 12.4844 42.9596H16.2812C16.4771 42.9596 16.6648 42.8819 16.8033 42.7434C16.9417 42.6049 17.0195 42.4172 17.0195 42.2214V34.2812C17.0195 34.0854 16.9417 33.8977 16.8033 33.7592C16.6648 33.6208 16.4771 33.543 16.2812 33.543H12.4844ZM15.543 41.4831H13.2227V35.0195H15.543V41.4831Z" fill="#00C9C9"/>
<path d="M21.2412 28.4805C21.0454 28.4805 20.8576 28.5583 20.7192 28.6967C20.5807 28.8352 20.5029 29.0229 20.5029 29.2188V42.2214C20.5029 42.4172 20.5807 42.6049 20.7192 42.7434C20.8576 42.8819 21.0454 42.9596 21.2412 42.9596H25.0381C25.2339 42.9596 25.4217 42.8819 25.5601 42.7434C25.6986 42.6049 25.7764 42.4172 25.7764 42.2214V29.2188C25.7764 29.0229 25.6986 28.8352 25.5601 28.6967C25.4217 28.5583 25.2339 28.4805 25.0381 28.4805H21.2412ZM24.2998 41.4831H21.9795V29.957H24.2998V41.4831Z" fill="#00C9C9"/>
<path d="M29.9986 23.418C29.8029 23.4181 29.6152 23.4959 29.4768 23.6344C29.3385 23.7728 29.2607 23.9605 29.2607 24.1562V42.2214C29.2607 42.4172 29.3385 42.6049 29.477 42.7434C29.6154 42.8819 29.8032 42.9596 29.999 42.9596H33.7959C33.9917 42.9595 34.1794 42.8817 34.3178 42.7433C34.4563 42.6048 34.5341 42.4171 34.5342 42.2214V24.1562C34.5341 23.9605 34.4563 23.7728 34.3178 23.6343C34.1794 23.4959 33.9917 23.4181 33.7959 23.418H29.9986ZM33.0572 41.4831H30.7373V24.8945H33.0576L33.0572 41.4831Z" fill="#00C9C9"/>
<path d="M38.7549 18.3555C38.5591 18.3556 38.3714 18.4334 38.233 18.5718C38.0945 18.7103 38.0167 18.898 38.0166 19.0938V42.2214C38.0167 42.4171 38.0945 42.6048 38.233 42.7433C38.3714 42.8817 38.5591 42.9595 38.7549 42.9596H42.5518C42.7476 42.9596 42.9353 42.8819 43.0738 42.7434C43.2123 42.6049 43.29 42.4172 43.29 42.2214V19.0938C43.29 18.8979 43.2123 18.7102 43.0738 18.5717C42.9353 18.4333 42.7476 18.3555 42.5518 18.3555H38.7549ZM41.8135 41.4831H39.4932V19.832H41.8135V41.4831Z" fill="#00C9C9"/>
</svg>
