<svg width="54" height="54" viewBox="0 0 54 54" fill="none" xmlns="http://www.w3.org/2000/svg">
<path d="M9.28125 34.8047H7.59375V34.5938H0.84375V38.8125C0.84375 41.1387 2.73628 43.0312 5.0625 43.0312H23.6672L23.1728 41.3438H5.0625C3.66694 41.3438 2.53125 40.2081 2.53125 38.8125V36.2812H22.8808L23.1728 34.5938H9.28125V34.8047Z" fill="#0084E4"/>
<path fill-rule="evenodd" clip-rule="evenodd" d="M34.5938 23.1728V12.6562H41.3438V5.0625C41.3438 2.73628 39.4512 0.84375 37.125 0.84375H11.8125C9.48628 0.84375 7.59375 2.73628 7.59375 5.0625V34.5938H9.28125V5.0625C9.28125 3.66694 10.4169 2.53125 11.8125 2.53125H33.7719C33.2362 3.23831 32.9062 4.10906 32.9062 5.0625V23.6672L34.5938 23.1728ZM39.6562 10.9688V5.0625C39.6562 3.66694 38.5206 2.53125 37.125 2.53125C35.7294 2.53125 34.5938 3.66694 34.5938 5.0625V10.9688H39.6562Z" fill="#0084E4"/>
<path d="M7.59375 34.8047H9.28125V34.5938H7.59375V34.8047Z" fill="#0084E4"/>
<path fill-rule="evenodd" clip-rule="evenodd" d="M37.9688 22.7812C36.8077 22.7812 35.6813 22.9247 34.5938 23.1728L32.9062 23.6672C28.0538 25.391 24.3338 29.5043 23.1728 34.5938L22.8808 36.2812C22.8192 36.8364 22.7812 37.3975 22.7812 37.9688C22.7812 39.1297 22.9247 40.2562 23.1728 41.3438L23.6672 43.0312C25.7588 48.9206 31.3715 53.1562 37.9688 53.1562C46.343 53.1562 53.1562 46.343 53.1562 37.9688C53.1562 29.5945 46.343 22.7812 37.9688 22.7812ZM47.5883 28.9508L47.8744 28.8284C45.6005 26.3663 42.4313 24.7548 38.8842 24.5152C38.8395 24.7573 38.8125 25.002 38.8125 25.2467C38.8125 26.1866 39.1357 27.108 39.7229 27.8421L41.456 30.008C41.9276 30.5977 42.1875 31.3394 42.1875 32.0954C42.1875 33.0075 42.93 33.75 43.8421 33.75C44.82 33.75 45.5625 33.0075 45.5625 32.0954C45.5625 30.6838 46.3573 29.4781 47.5883 28.9508ZM34.3035 29.5903C33.1796 28.4673 31.8997 27.5122 30.5058 26.7292C26.8709 29.1507 24.4688 33.2834 24.4688 37.9688C24.4688 40.4232 25.1378 42.7199 26.287 44.7053C28.0868 44.6352 29.5312 43.1595 29.5312 41.3438V41.078C29.5312 38.8513 30.8534 36.8457 32.9003 35.9691L33.0927 35.8864C34.5161 35.2763 35.4375 33.8791 35.4375 32.3283C35.4375 31.2938 35.0342 30.3218 34.3035 29.5903ZM31.2188 41.3438C31.2188 43.7273 29.5608 45.7262 27.3383 46.2611C28.1315 47.2753 29.0647 48.1722 30.1117 48.9248L31.0576 48.2153C32.2152 47.3462 32.9062 45.9641 32.9062 44.5162C32.9062 42.2575 34.1246 40.1583 36.0863 39.0369L37.9772 37.9561C38.9298 37.4127 40.0123 37.125 41.1083 37.125H42.1276C45.4351 37.125 48.6321 38.205 51.2696 40.1912C51.3903 39.4664 51.4688 38.7273 51.4688 37.9688C51.4688 35.0713 50.5423 32.3907 48.9822 30.1885L48.2524 30.5016C47.644 30.7631 47.25 31.3597 47.25 32.0228C47.25 33.9382 45.7507 35.4375 43.9079 35.4375C41.9993 35.4375 40.5 33.9382 40.5 32.0954C40.5 31.7208 40.3717 31.3538 40.138 31.061L38.405 28.8951C37.5798 27.864 37.125 26.568 37.125 25.2467C37.125 24.9995 37.1545 24.7539 37.1866 24.5084C35.4156 24.6105 33.739 25.0526 32.2144 25.7749C33.4024 26.5283 34.5035 27.4042 35.4966 28.3972C36.5462 29.4469 37.125 30.8433 37.125 32.3283C37.125 34.5549 35.8028 36.5605 33.7559 37.4372L33.5635 37.5199C32.1401 38.1299 31.2188 39.5272 31.2188 41.078V41.3438ZM31.6415 49.8859C33.5306 50.8933 35.683 51.4688 37.9688 51.4688C43.999 51.4688 49.1172 47.493 50.8435 42.0255C48.3916 39.9575 45.3212 38.8125 42.1276 38.8125H41.1083C40.3059 38.8125 39.512 39.0234 38.8142 39.4217L36.9233 40.5017C35.4864 41.3235 34.5938 42.8617 34.5938 44.5162C34.5938 46.4923 33.6504 48.3798 32.0692 49.5653L31.6415 49.8859Z" fill="#00C9C9"/>
<path d="M38.8125 42.1875H37.125V43.875H38.8125V42.1875Z" fill="#00C9C9"/>
<path d="M42.1875 46.4062H40.5V48.0938H42.1875V46.4062Z" fill="#00C9C9"/>
<path d="M46.4062 41.3438H44.7188V43.0312H46.4062V41.3438Z" fill="#00C9C9"/>
<path d="M37.125 48.0938H35.4375V49.7812H37.125V48.0938Z" fill="#00C9C9"/>
<path d="M31.2188 30.375H29.5312V32.0625H31.2188V30.375Z" fill="#00C9C9"/>
<path d="M27.8438 36.2812H26.1562V37.9688H27.8438V36.2812Z" fill="#00C9C9"/>
<path d="M11.0742 13.6562H20.1445V5.21875H11.0742V13.6562ZM12.7617 6.90625H18.457V11.9688H12.7617V6.90625Z" fill="#0084E4"/>
<path d="M31.1133 5.21875H22.043V6.90625H31.1133V5.21875Z" fill="#0084E4"/>
<path d="M31.1133 8.59375H22.043V10.2812H31.1133V8.59375Z" fill="#0084E4"/>
<path d="M31.1133 11.9688H22.043V13.6562H31.1133V11.9688Z" fill="#0084E4"/>
<path d="M22.043 23.7812H31.1133V15.3438H22.043V23.7812ZM23.7305 17.0312H29.4258V22.0938H23.7305V17.0312Z" fill="#0084E4"/>
<path d="M20.1445 15.3438H11.0742V17.0312H20.1445V15.3438Z" fill="#0084E4"/>
<path d="M20.1445 18.7188H12.8883V20.4062H20.1445V18.7188Z" fill="#0084E4"/>
<path d="M12.8883 18.7188H11.0742V20.4062H12.8883V18.7188Z" fill="#0084E4"/>
<path d="M20.1445 22.0938H11.0742V23.7812H20.1445V22.0938Z" fill="#0084E4"/>
<path d="M20.1445 25.4688H11.0742V27.1562H20.1445V25.4688Z" fill="#0084E4"/>
<path d="M20.1445 28.8438H11.0742V30.5312H20.1445V28.8438Z" fill="#0084E4"/>
<path d="M23.8359 28.8438H22.1484V30.5312H23.8359V28.8438Z" fill="#0084E4"/>
</svg>
