<svg width="54" height="54" viewBox="0 0 54 54" fill="none" xmlns="http://www.w3.org/2000/svg">
<path d="M44.7188 1.6875C40.9447 1.6875 37.125 2.84681 37.125 5.0625V17.7188C37.125 19.9344 40.9447 21.0938 44.7188 21.0938V24.4688H43.0312V26.1562H45.5625C46.0282 26.1562 46.4062 25.7782 46.4062 25.3125V21.0127C49.5518 20.7191 52.3125 19.602 52.3125 17.7188V5.0625C52.3125 2.84681 48.4928 1.6875 44.7188 1.6875ZM44.7188 19.4062C40.8822 19.4062 38.8125 18.209 38.8125 17.7188V15.6938C40.2773 16.4725 42.5031 16.875 44.7188 16.875C46.9344 16.875 49.1602 16.4725 50.625 15.6938V17.7188C50.625 18.209 48.5553 19.4062 44.7188 19.4062ZM44.7188 15.1875C40.8822 15.1875 38.8125 13.9902 38.8125 13.5V11.475C40.2773 12.2538 42.5031 12.6562 44.7188 12.6562C46.9344 12.6562 49.1602 12.2538 50.625 11.475V13.5C50.625 13.9902 48.5553 15.1875 44.7188 15.1875ZM44.7188 10.9688C40.8822 10.9688 38.8125 9.77147 38.8125 9.28125V7.25625C40.2773 8.03503 42.5031 8.4375 44.7188 8.4375C46.9344 8.4375 49.1602 8.03503 50.625 7.25625V9.28125C50.625 9.77147 48.5553 10.9688 44.7188 10.9688ZM44.7188 6.75C40.8822 6.75 38.8125 5.55272 38.8125 5.0625C38.8125 4.57228 40.8822 3.375 44.7188 3.375C48.5553 3.375 50.625 4.57228 50.625 5.0625C50.625 5.55272 48.5553 6.75 44.7188 6.75Z" fill="#00C9C9"/>
<path d="M7.59375 21.0127V25.3125C7.59375 25.7782 7.97175 26.1562 8.4375 26.1562H26.1562V30.3851C22.043 30.4779 16.0312 31.2618 16.0312 33.75V48.9375C16.0312 51.6021 22.9255 52.3125 27 52.3125C31.0745 52.3125 37.9688 51.6021 37.9688 48.9375V33.75C37.9688 31.2618 31.957 30.4779 27.8438 30.3851V26.1562H31.2188V24.4688H27.8438V21.0727C31.3225 20.9132 34.5938 19.7691 34.5938 17.7188V5.0625C34.5938 2.84681 30.7741 1.6875 27 1.6875C23.2259 1.6875 19.4062 2.84681 19.4062 5.0625V17.7188C19.4062 19.7691 22.6775 20.9123 26.1562 21.0727V24.4688H9.28125V21.0938C13.0553 21.0938 16.875 19.9344 16.875 17.7188V5.0625C16.875 2.84681 13.0553 1.6875 9.28125 1.6875C5.50716 1.6875 1.6875 2.84681 1.6875 5.0625V17.7188C1.6875 19.602 4.44825 20.7191 7.59375 21.0127ZM17.7188 35.694C20.0213 36.7841 24.1836 37.125 27 37.125C29.8181 37.125 33.9837 36.7841 36.2855 35.6923L36.2914 38.7526C35.9927 39.3795 32.632 40.5 27 40.5C21.368 40.5 18.0073 39.3795 17.7188 38.8125V35.694ZM17.7188 40.7565C20.0213 41.8466 24.1836 42.1875 27 42.1875C29.8181 42.1875 33.9837 41.8466 36.2855 40.7548L36.2914 43.8151C35.9927 44.442 32.632 45.5625 27 45.5625C21.368 45.5625 18.0073 44.442 17.7188 43.875V40.7565ZM27 50.625C21.368 50.625 18.0073 49.5045 17.7188 48.9375V45.819C20.0213 46.9091 24.1836 47.25 27 47.25C29.8181 47.25 33.9837 46.9091 36.2855 45.8173L36.2914 48.8776C35.9927 49.5045 32.632 50.625 27 50.625ZM36.2542 33.75C35.7792 34.3862 32.4548 35.4375 27 35.4375C21.5452 35.4375 18.2208 34.3862 17.7458 33.75C18.1955 33.1476 21.2051 32.1739 26.1562 32.0726V33.75H27.8438V32.0726C32.7949 32.1739 35.8045 33.1476 36.2542 33.75ZM27 3.375C30.8365 3.375 32.9062 4.57228 32.9062 5.0625C32.9062 5.55272 30.8365 6.75 27 6.75C23.1635 6.75 21.0938 5.55272 21.0938 5.0625C21.0938 4.57228 23.1635 3.375 27 3.375ZM21.0938 7.25625C22.5585 8.03503 24.7843 8.4375 27 8.4375C29.2157 8.4375 31.4415 8.03503 32.9062 7.25625V9.28125C32.9062 9.77147 30.8365 10.9688 27 10.9688C23.1635 10.9688 21.0938 9.77147 21.0938 9.28125V7.25625ZM21.0938 11.475C22.5585 12.2538 24.7843 12.6562 27 12.6562C29.2157 12.6562 31.4415 12.2538 32.9062 11.475V13.5C32.9062 13.9902 30.8365 15.1875 27 15.1875C23.1635 15.1875 21.0938 13.9902 21.0938 13.5V11.475ZM21.0938 17.7188V15.6938C22.5585 16.4725 24.7843 16.875 27 16.875C29.2157 16.875 31.4415 16.4725 32.9062 15.6938V17.7188C32.9062 18.209 30.8365 19.4062 27 19.4062C23.1635 19.4062 21.0938 18.209 21.0938 17.7188ZM9.28125 19.4062C5.44472 19.4062 3.375 18.209 3.375 17.7188V15.6938C4.83975 16.4725 7.06556 16.875 9.28125 16.875C11.4969 16.875 13.7227 16.4725 15.1875 15.6938V17.7188C15.1875 18.209 13.1178 19.4062 9.28125 19.4062ZM9.28125 3.375C13.1178 3.375 15.1875 4.57228 15.1875 5.0625C15.1875 5.55272 13.1178 6.75 9.28125 6.75C5.44472 6.75 3.375 5.55272 3.375 5.0625C3.375 4.57228 5.44472 3.375 9.28125 3.375ZM3.375 7.25625C4.83975 8.03503 7.06556 8.4375 9.28125 8.4375C11.4969 8.4375 13.7227 8.03503 15.1875 7.25625V9.28125C15.1875 9.77147 13.1178 10.9688 9.28125 10.9688C5.44472 10.9688 3.375 9.77147 3.375 9.28125V7.25625ZM3.375 11.475C4.83975 12.2538 7.06556 12.6562 9.28125 12.6562C11.4969 12.6562 13.7227 12.2538 15.1875 11.475V13.5C15.1875 13.9902 13.1178 15.1875 9.28125 15.1875C5.44472 15.1875 3.375 13.9902 3.375 13.5V11.475Z" fill="#0084E4"/>
<path d="M39.6562 24.4688H41.3438V26.1562H39.6562V24.4688Z" fill="#00C9C9"/>
<path d="M36.2812 24.4688H37.9688V26.1562H36.2812V24.4688Z" fill="#00C9C9"/>
<path d="M32.9062 24.4688H34.5938V26.1562H32.9062V24.4688Z" fill="#00C9C9"/>
</svg>
