<svg width="54" height="54" viewBox="0 0 54 54" fill="none" xmlns="http://www.w3.org/2000/svg">
<path fill-rule="evenodd" clip-rule="evenodd" d="M41.0345 28.6875H43.0312C43.255 28.6875 43.4696 28.7764 43.6279 28.9346C43.7861 29.0929 43.875 29.3075 43.875 29.5313V32.0625H45.5625C45.7343 32.0625 45.9019 32.1149 46.0431 32.2127C46.1843 32.3106 46.2923 32.4492 46.3526 32.61L48.8196 39.1888L52.0654 42.4346C52.1437 42.513 52.2059 42.606 52.2483 42.7084C52.2907 42.8107 52.3125 42.9204 52.3125 43.0312V48.0938C52.3125 48.3175 52.2236 48.5321 52.0654 48.6904C51.9071 48.8486 51.6925 48.9375 51.4688 48.9375H50.625C50.625 49.8326 50.2694 50.6911 49.6365 51.324C49.0036 51.9569 48.1451 52.3125 47.25 52.3125C46.3549 52.3125 45.4964 51.9569 44.8635 51.324C44.2306 50.6911 43.875 49.8326 43.875 48.9375H31.2188C31.2188 49.8326 30.8632 50.6911 30.2302 51.324C29.5973 51.9569 28.7389 52.3125 27.8438 52.3125C26.9486 52.3125 26.0902 51.9569 25.4573 51.324C24.8243 50.6911 24.4688 49.8326 24.4688 48.9375H21.0938C20.87 48.9375 20.6554 48.8486 20.4971 48.6904C20.3389 48.5321 20.25 48.3175 20.25 48.0938V42.1156V40.4223V38.7289V37.0315V29.5313C20.25 29.3075 20.3389 29.0929 20.4971 28.9346C20.6554 28.7764 20.87 28.6875 21.0938 28.6875H35.5458H37.4051H39.2337H41.0345ZM21.9375 42.1875V30.375H42.1875V42.1875H21.9375ZM43.875 33.75H44.9778L46.8762 38.8125H43.875V33.75ZM48.1875 50.3406C47.91 50.526 47.5838 50.625 47.25 50.625C46.8026 50.6245 46.3737 50.4465 46.0573 50.1302C45.741 49.8138 45.563 49.3849 45.5625 48.9375C45.5625 48.6037 45.6615 48.2775 45.8469 48C46.0323 47.7225 46.2959 47.5062 46.6042 47.3785C46.9126 47.2507 47.2519 47.2173 47.5792 47.2824C47.9066 47.3475 48.2072 47.5083 48.4432 47.7443C48.6792 47.9803 48.84 48.2809 48.9051 48.6083C48.9702 48.9356 48.9368 49.2749 48.809 49.5833C48.6813 49.8916 48.465 50.1552 48.1875 50.3406ZM45.5628 46.0147C45.05 46.3109 44.6243 46.737 44.3285 47.25H43.875V40.5H47.7443L50.625 43.3807V47.25H50.1704C49.8746 46.737 49.4489 46.3109 48.9362 46.0147C48.4234 45.7184 47.8417 45.5625 47.2495 45.5625C46.6573 45.5625 46.0755 45.7184 45.5628 46.0147ZM28.7813 50.3406C28.5038 50.526 28.1775 50.625 27.8438 50.625C27.3964 50.6245 26.9674 50.4465 26.6511 50.1302C26.3347 49.8138 26.1568 49.3849 26.1562 48.9375C26.1562 48.6037 26.2552 48.2775 26.4406 48C26.6261 47.7225 26.8896 47.5062 27.198 47.3785C27.5063 47.2507 27.8456 47.2173 28.173 47.2824C28.5003 47.3475 28.801 47.5083 29.037 47.7443C29.273 47.9803 29.4337 48.2809 29.4988 48.6083C29.5639 48.9356 29.5305 49.2749 29.4028 49.5833C29.2751 49.8916 29.0588 50.1552 28.7813 50.3406ZM26.1565 46.0147C25.6438 46.3109 25.2181 46.737 24.9223 47.25H21.9375V43.875H42.1875V47.25H30.7642C30.4684 46.737 30.0427 46.3109 29.5299 46.0147C29.0171 45.7184 28.4354 45.5625 27.8432 45.5625C27.251 45.5625 26.6693 45.7184 26.1565 46.0147Z" fill="#0084E4"/>
<path d="M8.68139 6.62982C12.0607 3.70841 16.311 1.98594 20.7707 1.73044C25.2305 1.47494 29.6496 2.70075 33.3405 5.21711C37.0314 7.73348 39.787 11.3993 41.1786 15.6441C42.5701 19.8888 42.5196 24.4746 41.0348 28.6877H39.234C40.4301 25.6236 40.7906 22.2968 40.2787 19.0477C39.7669 15.7986 38.4009 12.7438 36.3208 10.1959C34.2406 7.648 31.5208 5.69853 28.4398 4.54696C25.3587 3.39539 22.0271 3.08306 18.7857 3.64194C15.5443 4.20083 12.5096 5.61085 9.99212 7.72772C7.47464 9.8446 5.56476 12.5923 4.45794 15.6897C3.35111 18.7871 3.08707 22.1229 3.69284 25.3559C4.29861 28.5888 5.75244 31.6028 7.90556 34.0893C11.0387 37.7274 15.4676 39.9996 20.2503 40.4224V42.1157C16.2793 41.7839 12.4946 40.2878 9.37004 37.8148C6.24549 35.3419 3.92004 32.002 2.68493 28.2135C1.44983 24.425 1.35998 20.3563 2.42664 16.5169C3.4933 12.6776 5.66905 9.23829 8.68139 6.62982Z" fill="#00C9C9"/>
<path d="M34.594 21.0939H37.1014C36.6928 13.6732 30.9332 7.65603 23.6253 6.84445V9.28141C23.6253 9.50518 23.5364 9.71979 23.3781 9.87803C23.2199 10.0363 23.0053 10.1252 22.7815 10.1252C22.5577 10.1252 22.3431 10.0363 22.1849 9.87803C22.0266 9.71979 21.9378 9.50518 21.9378 9.28141V6.75016C13.8464 6.75016 7.21347 13.1104 6.77409 21.0939H9.2815C9.50528 21.0939 9.71989 21.1828 9.87812 21.341C10.0364 21.4993 10.1253 21.7139 10.1253 21.9377C10.1253 22.1614 10.0364 22.376 9.87812 22.5343C9.71989 22.6925 9.50528 22.7814 9.2815 22.7814H6.77409C6.97086 26.3672 8.43301 29.767 10.9005 32.3763C13.368 34.9855 16.681 36.6351 20.2503 37.0316V38.729C16.0866 38.3134 12.2262 36.3645 9.41938 33.2613C6.61253 30.158 5.05972 26.122 5.06275 21.9377C5.06275 12.6327 12.6328 5.06266 21.9378 5.06266C22.1679 5.06266 22.3966 5.06867 22.6247 5.07784C22.7578 5.05216 22.8952 5.0594 23.0248 5.09894C31.8249 5.66098 38.8128 12.998 38.8128 21.9377C38.8115 24.2604 38.3324 26.558 37.4054 28.6877H35.5461C36.458 26.8442 36.9868 24.835 37.1006 22.7814H34.594C34.3702 22.7814 34.1556 22.6925 33.9974 22.5343C33.8391 22.376 33.7503 22.1614 33.7503 21.9377C33.7503 21.7139 33.8391 21.4993 33.9974 21.341C34.1556 21.1828 34.3702 21.0939 34.594 21.0939Z" fill="#00C9C9"/>
<path d="M46.4062 43.875C45.9403 43.875 45.5625 43.4972 45.5625 43.0312C45.5625 42.5653 45.9403 42.1875 46.4062 42.1875C46.8722 42.1875 47.25 42.5653 47.25 43.0312C47.25 43.4972 46.8722 43.875 46.4062 43.875Z" fill="#0084E4"/>
<path d="M23.3779 22.5342C23.2995 22.6125 23.2065 22.6746 23.1041 22.717C23.0017 22.7594 22.892 22.7813 22.7812 22.7813H13.5C13.2762 22.7813 13.0616 22.6924 12.9033 22.5341C12.7451 22.3759 12.6562 22.1613 12.6562 21.9375C12.6562 21.7137 12.7451 21.4991 12.9033 21.3409C13.0616 21.1827 13.2762 21.0938 13.5 21.0938H22.4318L29.7783 13.7471C29.9366 13.5889 30.1512 13.5 30.375 13.5C30.5988 13.5 30.8134 13.5889 30.9716 13.7471C31.1299 13.9054 31.2187 14.12 31.2188 14.3438C31.2188 14.5676 31.1299 14.7822 30.9716 14.9404L23.3779 22.5342Z" fill="#00C9C9"/>
</svg>
