<svg width="54" height="54" viewBox="0 0 54 54" fill="none" xmlns="http://www.w3.org/2000/svg">
<path d="M26.1001 14.3999H27.9001V16.1999H26.1001V14.3999Z" fill="#00C9C9"/>
<path d="M19.9209 16.5384L21.4796 15.6384L22.3796 17.1972L20.8209 18.0972L19.9209 16.5384Z" fill="#00C9C9"/>
<path d="M15.6379 21.4792L16.5375 19.9214L18.0954 20.8214L17.1958 22.3792L15.6379 21.4792Z" fill="#00C9C9"/>
<path d="M14.3999 26.1001H16.1999V27.9001H14.3999V26.1001Z" fill="#00C9C9"/>
<path d="M37.8 26.1001H39.6001V27.9001H37.8V26.1001Z" fill="#00C9C9"/>
<path d="M35.9033 20.82L37.4612 19.9204L38.3607 21.4783L36.8029 22.3778L35.9033 20.82Z" fill="#00C9C9"/>
<path d="M31.6208 17.1972L32.5204 15.6384L34.0796 16.538L33.1796 18.0972L31.6208 17.1972Z" fill="#00C9C9"/>
<path d="M31.7637 20.9636L28.1567 24.5698C27.7963 24.394 27.4008 24.3017 27 24.3C25.509 24.3 24.3 25.5089 24.3 27C24.3 28.491 25.509 29.7 27 29.7C28.4911 29.7 29.7001 28.491 29.7001 27C29.6983 26.5992 29.606 26.2037 29.4302 25.8433L33.0373 22.2363L31.7637 20.9636ZM27 27.9C26.503 27.9 26.1 27.497 26.1 27C26.1 26.5029 26.503 26.1 27 26.1C27.4971 26.1 27.9 26.5029 27.9 27C27.9 27.497 27.4971 27.9 27 27.9Z" fill="#00C9C9"/>
<path d="M28.5425 21.8242L29.0576 20.0989C26.8783 19.449 24.5198 19.8669 22.6969 21.2261C20.8736 22.5854 19.7996 24.7259 19.8 27.0001H21.6C21.5996 25.2946 22.4051 23.6893 23.7723 22.6697C25.1398 21.6507 26.9082 21.3369 28.5425 21.8242Z" fill="#00C9C9"/>
<path fill-rule="evenodd" clip-rule="evenodd" d="M4.5 0H49.5C51.9842 0.00307618 53.9969 2.01577 54 4.5V38.7C53.9969 41.1842 51.9842 43.1969 49.5 43.2H34.3195L34.9945 48.6H36.9C38.3911 48.6 39.6 49.8089 39.6 51.3C39.6 52.7911 38.3911 54 36.9 54H17.1C15.6089 54 14.4 52.7911 14.4 51.3C14.4 49.8089 15.6089 48.6 17.1 48.6H19.0055L19.6805 43.2H4.5C2.01577 43.1969 0.00307618 41.1842 0 38.7V4.5C0.00307618 2.01577 2.01577 0.00307618 4.5 0ZM49.5 1.8H4.5C3.00894 1.8 1.8 3.00894 1.8 4.5V7.2H52.2V4.5C52.2 3.00894 50.9911 1.8 49.5 1.8ZM36.9 52.2C37.397 52.2 37.8 51.797 37.8 51.3C37.8 50.803 37.397 50.4 36.9 50.4H17.1C16.603 50.4 16.2 50.803 16.2 51.3C16.2 51.797 16.603 52.2 17.1 52.2H36.9ZM21.4945 43.2L20.8195 48.6H33.1805L32.5055 43.2H21.4945ZM4.5 41.4H49.5C50.9911 41.4 52.2 40.1911 52.2 38.7V36H1.8V38.7C1.8 40.1911 3.00894 41.4 4.5 41.4ZM14.5393 34.2H39.4607H41.5037H52.2V9H1.8V34.2H12.4963H14.5393Z" fill="#0084E4"/>
<path fill-rule="evenodd" clip-rule="evenodd" d="M17.7384 15.9557C23.0935 11.4579 30.9061 11.4579 36.2613 15.9557C40.9085 19.8589 42.5389 26.17 40.5981 31.7251H42.4911C43.8454 27.3034 43.2528 22.4614 40.7719 18.4588C37.8179 13.6925 32.6073 10.7948 26.9998 10.8001C21.3924 10.7948 16.1818 13.6925 13.2278 18.4588C10.7469 22.4614 10.1543 27.3034 11.5086 31.7251H13.4016C11.4608 26.17 13.0912 19.8589 17.7384 15.9557Z" fill="#00C9C9"/>
<path d="M46.8 37.8H48.6V39.6001H46.8V37.8Z" fill="#0084E4"/>
<path d="M5.3999 3.6001H7.1999V5.4001H5.3999V3.6001Z" fill="#0084E4"/>
<path d="M9 3.6001H10.8V5.4001H9V3.6001Z" fill="#0084E4"/>
<path d="M12.6001 3.6001H14.4001V5.4001H12.6001V3.6001Z" fill="#0084E4"/>
</svg>
