<svg width="54" height="54" viewBox="0 0 54 54" fill="none" xmlns="http://www.w3.org/2000/svg">
<path fill-rule="evenodd" clip-rule="evenodd" d="M31.2188 28.3584C29.6784 27.4724 27.9333 27.0041 26.1562 27H23.625V25.3125C25.2867 24.0785 26.4368 22.2767 26.8566 20.25H27C27.6454 20.2464 28.2763 20.0577 28.8178 19.7065C29.3593 19.3552 29.7887 18.856 30.0551 18.2681C30.3215 17.6802 30.4138 17.0283 30.3209 16.3895C30.2281 15.7508 29.954 15.1521 29.5312 14.6644V11.8125C29.5312 8.90341 28.3756 6.11346 26.3186 4.05642C24.2615 1.99938 21.4716 0.84375 18.5625 0.84375C15.6534 0.84375 12.8635 1.99938 10.8064 4.05642C8.74938 6.11346 7.59375 8.90341 7.59375 11.8125V14.6644C7.17097 15.1521 6.89691 15.7508 6.80406 16.3895C6.7112 17.0283 6.80346 17.6802 7.06988 18.2681C7.3363 18.856 7.76571 19.3552 8.3072 19.7065C8.8487 20.0577 9.47956 20.2464 10.125 20.25H10.2937C10.7071 22.273 11.8478 24.0741 13.5 25.3125V27H10.9688C8.28343 27 5.7081 28.0667 3.80929 29.9655C1.91049 31.8643 0.84375 34.4397 0.84375 37.125V52.3125C0.84375 52.5363 0.932645 52.7509 1.09088 52.9091C1.24911 53.0674 1.46372 53.1562 1.6875 53.1562H32V51.4688H22.6547L20.25 37.26L21.2709 35.2181L23.2116 36.1884C23.3392 36.254 23.4815 36.286 23.625 36.2812C23.8019 36.2817 23.9744 36.2266 24.1183 36.1236C24.2621 36.0206 24.37 35.8751 24.4266 35.7075L26.7553 28.6875C28.3745 28.8088 29.9243 29.3947 31.2188 30.375V28.3584ZM27 15.1875V18.5625C27.4476 18.5625 27.8768 18.3847 28.1932 18.0682C28.5097 17.7518 28.6875 17.3226 28.6875 16.875C28.6875 16.4274 28.5097 15.9982 28.1932 15.6818C27.8768 15.3653 27.4476 15.1875 27 15.1875ZM8.93176 15.6818C8.61529 15.9982 8.4375 16.4274 8.4375 16.875C8.4375 17.3226 8.61529 17.7518 8.93176 18.0682C9.24823 18.3847 9.67745 18.5625 10.125 18.5625V15.1875C9.67745 15.1875 9.24823 15.3653 8.93176 15.6818ZM9.28125 13.6181C9.55654 13.544 9.83995 13.5044 10.125 13.5C10.125 13.2762 10.2139 13.0616 10.3721 12.9034C10.5304 12.7451 10.745 12.6562 10.9688 12.6562H16.0312C16.6862 12.6562 17.3321 12.5038 17.9179 12.2109C18.5037 11.918 19.0133 11.4927 19.4062 10.9688L20.4188 9.61875C20.4973 9.51396 20.5993 9.42891 20.7164 9.37033C20.8336 9.31175 20.9628 9.28125 21.0938 9.28125C21.2247 9.28125 21.3539 9.31175 21.4711 9.37033C21.5882 9.42891 21.6902 9.51396 21.7687 9.61875L22.7812 10.9688C23.1742 11.4927 23.6838 11.918 24.2696 12.2109C24.8554 12.5038 25.5013 12.6562 26.1562 12.6562C26.38 12.6562 26.5946 12.7451 26.7529 12.9034C26.9111 13.0616 27 13.2762 27 13.5C27.285 13.5044 27.5685 13.544 27.8438 13.6181V11.8125C27.8438 9.35096 26.8659 6.99024 25.1253 5.24967C23.3848 3.50909 21.024 2.53125 18.5625 2.53125C16.101 2.53125 13.7402 3.50909 11.9997 5.24967C10.2591 6.99024 9.28125 9.35096 9.28125 11.8125V13.6181ZM11.8125 14.3438V18.5625C11.8125 20.3527 12.5237 22.0696 13.7895 23.3355C15.0554 24.6013 16.7723 25.3125 18.5625 25.3125C20.3527 25.3125 22.0696 24.6013 23.3355 23.3355C24.6013 22.0696 25.3125 20.3527 25.3125 18.5625V14.2847C23.7667 14.0557 22.3728 13.2284 21.4312 11.9812L21.0938 11.5341L20.7563 11.9812C20.2061 12.7148 19.4927 13.3102 18.6726 13.7202C17.8525 14.1303 16.9482 14.3438 16.0312 14.3438H11.8125ZM21.9375 26.2913C20.8739 26.7592 19.7245 27.0006 18.5625 27C17.4005 27.0006 16.2511 26.7592 15.1875 26.2913V27.54L18.5625 31.59L21.9375 27.54V26.2913ZM12.1416 28.6875L13.9894 34.2478L17.2294 32.6278L13.9472 28.6875H12.1416ZM4.7871 31.361C3.33211 32.9272 2.52586 34.9873 2.53125 37.125V51.4688H5.90625V39.6562H7.59375V51.4688H14.4703L16.875 37.26L15.8203 35.2181L13.8797 36.1884C13.7621 36.2487 13.6321 36.2805 13.5 36.2812C13.3189 36.2794 13.1432 36.2194 12.9988 36.11C12.8545 36.0006 12.7491 35.8476 12.6984 35.6737L10.3697 28.6875C8.23734 28.8393 6.24209 29.7948 4.7871 31.361ZM18.4359 37.9688L16.1831 51.4688H20.9419L18.6891 37.9688H18.4359ZM18.2419 36.2812H18.8831L19.7944 34.4672L18.5625 33.8512L17.3306 34.4672L18.2419 36.2812ZM19.8619 32.6278L23.1019 34.2478L24.9834 28.6875H23.1778L19.8619 32.6278Z" fill="#0084E4"/>
<path fill-rule="evenodd" clip-rule="evenodd" d="M52.3121 24.4689H32.0621C31.8383 24.4689 31.6237 24.5578 31.4654 24.716C31.3072 24.8742 31.2183 25.0888 31.2183 25.3126V28.3585V30.3751V52.3126C31.2183 52.5364 31.3072 52.751 31.4654 52.9092C31.6237 53.0675 31.8383 53.1564 32.0621 53.1564H52.3121C52.5358 53.1564 52.7505 53.0675 52.9087 52.9092C53.0669 52.751 53.1558 52.5364 53.1558 52.3126V25.3126C53.1558 25.0888 53.0669 24.8742 52.9087 24.716C52.7505 24.5578 52.5358 24.4689 52.3121 24.4689ZM46.4058 26.1564H37.9683V27.8439H46.4058V26.1564ZM32.9058 51.4689H51.4683V26.1564H48.0933V28.6876C48.0933 28.9114 48.0044 29.126 47.8462 29.2842C47.688 29.4425 47.4733 29.5314 47.2496 29.5314H37.1246C36.9008 29.5314 36.6862 29.4425 36.5279 29.2842C36.3697 29.126 36.2808 28.9114 36.2808 28.6876V26.1564H32.9058V51.4689Z" fill="#00C9C9"/>
<path d="M38.8125 31.2188H35.4375C35.2137 31.2188 34.9991 31.3076 34.8409 31.4659C34.6826 31.6241 34.5938 31.8387 34.5938 32.0625V35.4375C34.5938 35.6613 34.6826 35.8759 34.8409 36.0341C34.9991 36.1924 35.2137 36.2812 35.4375 36.2812H38.8125C39.0363 36.2812 39.2509 36.1924 39.4091 36.0341C39.5674 35.8759 39.6562 35.6613 39.6562 35.4375V32.0625C39.6562 31.8387 39.5674 31.6241 39.4091 31.4659C39.2509 31.3076 39.0363 31.2188 38.8125 31.2188ZM37.9688 34.5938H36.2812V32.9062H37.9688V34.5938Z" fill="#00C9C9"/>
<path d="M38.8125 37.9688H35.4375C35.2137 37.9688 34.9991 38.0576 34.8409 38.2159C34.6826 38.3741 34.5938 38.5887 34.5938 38.8125V42.1875C34.5938 42.4113 34.6826 42.6259 34.8409 42.7841C34.9991 42.9424 35.2137 43.0312 35.4375 43.0312H38.8125C39.0363 43.0312 39.2509 42.9424 39.4091 42.7841C39.5674 42.6259 39.6562 42.4113 39.6562 42.1875V38.8125C39.6562 38.5887 39.5674 38.3741 39.4091 38.2159C39.2509 38.0576 39.0363 37.9688 38.8125 37.9688ZM37.9688 41.3438H36.2812V39.6562H37.9688V41.3438Z" fill="#00C9C9"/>
<path d="M38.8125 44.7188H35.4375C35.2137 44.7188 34.9991 44.8076 34.8409 44.9659C34.6826 45.1241 34.5938 45.3387 34.5938 45.5625V48.9375C34.5938 49.1613 34.6826 49.3759 34.8409 49.5341C34.9991 49.6924 35.2137 49.7812 35.4375 49.7812H38.8125C39.0363 49.7812 39.2509 49.6924 39.4091 49.5341C39.5674 49.3759 39.6562 49.1613 39.6562 48.9375V45.5625C39.6562 45.3387 39.5674 45.1241 39.4091 44.9659C39.2509 44.8076 39.0363 44.7188 38.8125 44.7188ZM37.9688 48.0938H36.2812V46.4062H37.9688V48.0938Z" fill="#00C9C9"/>
<path d="M41.3438 31.2188H49.7812V32.9062H41.3438V31.2188Z" fill="#00C9C9"/>
<path d="M41.3438 34.5938H49.7812V36.2812H41.3438V34.5938Z" fill="#00C9C9"/>
<path d="M41.3438 37.9688H49.7812V39.6562H41.3438V37.9688Z" fill="#00C9C9"/>
<path d="M41.3438 41.3438H49.7812V43.0312H41.3438V41.3438Z" fill="#00C9C9"/>
<path d="M41.3438 44.7188H49.7812V46.4062H41.3438V44.7188Z" fill="#00C9C9"/>
<path d="M41.3438 48.0938H49.7812V49.7812H41.3438V48.0938Z" fill="#00C9C9"/>
</svg>
