<svg width="128" height="48" viewBox="0 0 128 48" fill="none" xmlns="http://www.w3.org/2000/svg">
<path fill-rule="evenodd" clip-rule="evenodd" d="M126.867 20.874C125.564 20.874 124.541 21.262 123.799 22.037C123.055 22.812 122.684 23.916 122.684 25.349V31.949H120.279V18.699H122.584V20.924C123.001 20.158 123.619 19.574 124.437 19.174C125.255 18.774 126.249 18.574 127.418 18.574V20.899C127.284 20.883 127.101 20.874 126.867 20.874ZM106.128 26.124C106.278 27.291 106.792 28.229 107.668 28.937C108.545 29.645 109.634 29.999 110.937 29.999C112.523 29.999 113.8 29.466 114.769 28.399L116.097 29.949C115.495 30.649 114.748 31.183 113.855 31.549C112.961 31.916 111.964 32.099 110.862 32.099C109.459 32.099 108.215 31.812 107.13 31.237C106.044 30.662 105.205 29.858 104.612 28.824C104.019 27.791 103.723 26.624 103.723 25.324C103.723 24.041 104.011 22.883 104.587 21.849C105.163 20.816 105.956 20.012 106.967 19.437C107.977 18.862 109.117 18.574 110.386 18.574C111.655 18.574 112.786 18.862 113.78 19.437C114.773 20.012 115.549 20.816 116.109 21.849C116.668 22.883 116.948 24.066 116.948 25.399C116.948 25.583 116.931 25.824 116.898 26.124H106.128ZM113.279 21.662C112.502 20.954 111.538 20.599 110.386 20.599C109.234 20.599 108.269 20.949 107.493 21.649C106.716 22.349 106.261 23.266 106.128 24.399H114.644C114.51 23.283 114.055 22.37 113.279 21.662ZM99.59 32.099C98.254 32.099 97.219 31.741 96.484 31.024C95.749 30.308 95.382 29.283 95.382 27.949V20.674H93.128V18.699H95.382V15.799H97.787V18.699H101.594V20.674H97.787V27.849C97.787 28.566 97.966 29.116 98.325 29.499C98.684 29.883 99.198 30.074 99.866 30.074C100.6 30.074 101.226 29.866 101.744 29.449L102.496 31.174C102.145 31.474 101.711 31.704 101.193 31.862C100.675 32.02 100.141 32.099 99.59 32.099ZM88.169 24.599C88.169 23.316 87.859 22.349 87.242 21.699C86.624 21.049 85.739 20.724 84.587 20.724C83.284 20.724 82.257 21.104 81.506 21.862C80.755 22.62 80.379 23.708 80.379 25.124V31.949H77.974V18.699H80.279V20.699C80.763 20.016 81.418 19.491 82.245 19.124C83.071 18.758 84.011 18.574 85.063 18.574C86.749 18.574 88.089 19.062 89.083 20.037C90.076 21.012 90.573 22.441 90.573 24.324V31.949H88.169V24.599ZM63.823 26.124C63.973 27.291 64.486 28.229 65.363 28.937C66.24 29.645 67.329 29.999 68.632 29.999C70.218 29.999 71.495 29.466 72.464 28.399L73.791 29.949C73.19 30.649 72.443 31.183 71.55 31.549C70.656 31.916 69.659 32.099 68.557 32.099C67.154 32.099 65.91 31.812 64.825 31.237C63.739 30.662 62.9 29.858 62.307 28.824C61.714 27.791 61.418 26.624 61.418 25.324C61.418 24.041 61.706 22.883 62.282 21.849C62.858 20.816 63.651 20.012 64.662 19.437C65.672 18.862 66.812 18.574 68.081 18.574C69.35 18.574 70.481 18.862 71.475 19.437C72.468 20.012 73.244 20.816 73.804 21.849C74.363 22.883 74.643 24.066 74.643 25.399C74.643 25.583 74.626 25.824 74.593 26.124H63.823ZM70.974 21.662C70.197 20.954 69.233 20.599 68.081 20.599C66.929 20.599 65.964 20.949 65.188 21.649C64.411 22.349 63.956 23.266 63.823 24.399H72.339C72.205 23.283 71.75 22.37 70.974 21.662ZM51.963 29.424C52.655 29.808 53.436 29.999 54.305 29.999C55.056 29.999 55.741 29.841 56.358 29.524C56.976 29.208 57.494 28.733 57.911 28.099L59.74 29.249C59.222 30.166 58.491 30.87 57.548 31.362C56.605 31.854 55.532 32.099 54.33 32.099C52.977 32.099 51.771 31.808 50.71 31.224C49.65 30.641 48.819 29.837 48.218 28.812C47.617 27.787 47.316 26.624 47.316 25.324C47.316 24.024 47.617 22.862 48.218 21.837C48.819 20.812 49.65 20.012 50.71 19.437C51.771 18.862 52.977 18.574 54.33 18.574C55.532 18.574 56.605 18.816 57.548 19.299C58.491 19.783 59.222 20.483 59.74 21.399L57.911 22.574C57.494 21.941 56.976 21.466 56.358 21.149C55.741 20.833 55.056 20.674 54.305 20.674C53.436 20.674 52.655 20.866 51.963 21.249C51.27 21.633 50.727 22.179 50.335 22.887C49.942 23.595 49.746 24.408 49.746 25.324C49.746 26.258 49.942 27.079 50.335 27.787C50.727 28.495 51.27 29.041 51.963 29.424ZM43.5 39H42.5C41.672 39 41 38.329 41 37.5V1.5C41 0.672 41.672 0 42.5 0H43.5C44.329 0 45 0.672 45 1.5V37.5C45 38.329 44.329 39 43.5 39ZM35.5 43H34.5C33.672 43 33 42.329 33 41.501V9.66L28.521 12.222C27.801 12.633 26.885 12.384 26.474 11.664L25.977 10.796C25.566 10.077 25.816 9.161 26.535 8.749L33.479 4.778C34.069 4.441 34.787 4.554 35.255 5H35.5C36.328 5 37 5.672 37 6.5V41.501C37 42.329 36.328 43 35.5 43ZM27.067 31.949H24.111V30.324C23.727 30.908 23.18 31.354 22.471 31.662C21.761 31.97 20.905 32.124 19.903 32.124C18.901 32.124 18.025 31.953 17.273 31.612C16.522 31.27 15.942 30.795 15.533 30.187C15.123 29.579 14.919 28.891 14.919 28.124C14.919 26.924 15.366 25.962 16.259 25.237C17.152 24.512 18.559 24.149 20.479 24.149H23.936V23.949C23.936 23.016 23.656 22.299 23.097 21.799C22.537 21.299 21.707 21.049 20.605 21.049C19.853 21.049 19.114 21.166 18.388 21.399C17.662 21.633 17.048 21.958 16.547 22.374L15.32 20.099C16.021 19.566 16.864 19.158 17.849 18.874C18.835 18.591 19.878 18.449 20.98 18.449C22.951 18.449 24.458 18.92 25.501 19.862C26.545 20.804 27.067 22.224 27.067 24.124V31.949ZM23.936 26.224H20.705C18.901 26.224 18 26.816 18 27.999C18 28.566 18.225 29.016 18.676 29.349C19.127 29.683 19.753 29.849 20.555 29.849C21.339 29.849 22.036 29.67 22.646 29.312C23.255 28.954 23.686 28.441 23.936 27.774V26.224ZM7.43 29.449C8.114 29.449 8.745 29.295 9.321 28.987C9.897 28.679 10.377 28.216 10.761 27.599L13.166 28.999C12.648 29.999 11.892 30.77 10.899 31.312C9.905 31.854 8.757 32.124 7.455 32.124C6.069 32.124 4.825 31.833 3.723 31.249C2.621 30.666 1.761 29.854 1.143 28.812C0.525003 27.77 0.216003 26.591 0.216003 25.274C0.216003 23.958 0.525003 22.783 1.143 21.749C1.761 20.716 2.616 19.908 3.71 19.324C4.804 18.741 6.052 18.449 7.455 18.449C8.774 18.449 9.93 18.716 10.924 19.249C11.917 19.783 12.665 20.549 13.166 21.549L10.761 22.949C10.377 22.333 9.897 21.87 9.321 21.562C8.745 21.254 8.114 21.099 7.43 21.099C6.261 21.099 5.292 21.479 4.524 22.237C3.756 22.995 3.372 24.008 3.372 25.274C3.372 26.541 3.752 27.554 4.512 28.312C5.271 29.07 6.244 29.449 7.43 29.449ZM27.5 38.999C29.985 38.999 32 41.014 32 43.5C32 45.985 29.985 48 27.5 48C25.015 48 23 45.985 23 43.5C23 41.014 25.015 38.999 27.5 38.999Z" fill="white"/>
</svg>
