<svg width="495" height="477" viewBox="0 0 495 477" fill="none" xmlns="http://www.w3.org/2000/svg">
<g clip-path="url(#clip0)">
<path d="M453.382 0H35.917V277.658H453.382V0Z" fill="#ECECEC"/>
<path d="M440.728 12.4059H23.2632V290.064H440.728V12.4059Z" fill="#F3F3F3"/>
<path d="M48.8053 374.625C52.8044 372.561 57.5237 372.292 61.9636 373.023C64.3502 373.421 66.8442 374.13 68.4675 375.926C70.0908 377.721 70.4026 380.871 68.532 382.419C67.4247 383.333 65.8767 383.472 64.4362 383.462C60.9531 383.419 57.0937 382.806 54.3202 384.902C52.7291 386.095 51.6756 388.084 49.7836 388.665C47.9238 389.234 45.8382 388.149 44.8492 386.472C43.8709 384.795 43.8279 382.709 44.2902 380.817C44.2902 380.817 44.7739 376.71 48.8053 374.625Z" fill="#EBEBEB"/>
<path d="M39.6353 356.919C42.0864 360.413 46.838 359.263 49.0526 357.123C51.2564 354.984 52.1916 351.899 53.0409 348.943C54.976 342.202 56.9325 335.128 55.492 328.27C55.062 326.216 54.2987 324.174 52.8474 322.647C51.4069 321.121 49.1923 320.218 47.1605 320.755C44.7632 321.39 43.2689 323.744 42.1939 325.969C39.0226 332.538 37.3455 339.826 37.324 347.115C37.3025 350.534 37.711 354.113 39.6353 356.919Z" fill="#EBEBEB"/>
<path d="M32.9058 361.94C35.5611 358.79 36.0663 354.189 34.8838 350.233C33.7013 346.276 31.0245 342.922 27.9499 340.17C24.3378 336.956 20.0914 334.451 15.5333 332.849C13.738 332.215 11.846 331.721 9.95394 331.903C8.06189 332.086 6.14835 333.054 5.26683 334.741C3.95529 337.235 5.21307 340.256 6.56761 342.718C8.95417 347.061 11.6847 351.222 14.7271 355.135C17.1674 358.284 19.9732 361.391 23.6928 362.821C27.4231 364.24 31.2932 364.079 33.2605 361.499" fill="#EBEBEB"/>
<path d="M39.4631 409.66C39.5061 409.66 39.5814 409.101 39.6889 408.069C39.7964 406.908 39.9469 405.457 40.1081 403.737C40.3124 401.909 40.5811 399.738 41.0864 397.373C41.5917 395.018 42.3872 392.46 43.3977 389.869C44.4512 387.289 45.7305 384.945 47.2355 383.075C48.7191 381.194 50.4499 379.828 52.0839 379.043C53.7072 378.237 55.1585 377.915 56.169 377.775C57.1795 377.667 57.7493 377.592 57.7493 377.549C57.7493 377.506 57.1795 377.495 56.1368 377.528C55.1047 377.592 53.589 377.861 51.8797 378.635C50.1704 379.398 48.3321 380.774 46.7733 382.699C45.2037 384.612 43.8707 387.009 42.7957 389.622C41.7637 392.256 40.9789 394.846 40.5059 397.254C40.0221 399.662 39.8071 401.856 39.6566 403.694C39.5169 405.532 39.4631 407.026 39.4416 408.058C39.4094 409.09 39.4201 409.66 39.4631 409.66Z" fill="#E0E0E0"/>
<path d="M39.7642 406.327C39.7857 406.327 39.7964 406.069 39.8072 405.586C39.8072 405.027 39.8072 404.339 39.7964 403.479C39.7964 401.651 39.7964 399.006 39.8932 395.728C40.0544 389.191 40.6135 382.15 41.71 372.228C42.742 362.896 44.118 352.039 45.5801 344.986C45.8918 343.385 46.2036 341.933 46.5046 340.676C46.7841 339.407 47.0314 338.31 47.2571 337.429C47.4614 336.601 47.6226 335.913 47.7516 335.376C47.8591 334.903 47.9021 334.655 47.8806 334.645C47.8591 334.634 47.7731 334.881 47.6226 335.333C47.4614 335.859 47.2571 336.537 47.0099 337.354C46.7411 338.235 46.4616 339.321 46.1391 340.579C45.8058 341.837 45.4618 343.277 45.1178 344.879C43.6773 351.275 42.1507 360.209 41.0542 370.153C39.9684 380.097 39.4739 389.148 39.4309 395.706C39.3879 398.985 39.4632 401.64 39.5492 403.468C39.6029 404.328 39.6459 405.016 39.6782 405.575C39.7104 406.08 39.7427 406.327 39.7642 406.327Z" fill="#E0E0E0"/>
<path d="M39.8072 388.869C39.8502 388.869 39.8502 388.085 39.7965 386.665C39.7105 385.246 39.517 383.204 39.1192 380.699C38.7 378.194 38.1087 375.227 37.1842 372.002C36.7864 370.529 35.8404 366.993 33.5506 361.714C30.5405 354.565 26.4447 348.717 22.8756 345.094C22.037 344.137 21.1125 343.439 20.36 342.761C19.973 342.439 19.629 342.106 19.285 341.858C18.941 341.622 18.6077 341.396 18.3067 341.192C17.1349 340.386 16.4792 339.966 16.4577 340.009C16.3502 340.149 19.0807 341.762 22.5316 345.427C25.9716 349.093 29.9492 354.898 32.9378 361.994C34.6041 365.842 35.7651 369.272 36.5929 372.185C37.5497 375.378 38.1839 378.313 38.657 380.796C39.1085 383.279 39.3772 385.3 39.5385 386.709C39.6675 388.095 39.7642 388.869 39.8072 388.869Z" fill="#E0E0E0"/>
<path d="M22.9292 419.668L24.6815 443.631H55.4702L57.2225 419.668H22.9292Z" fill="#E0E0E0"/>
<path d="M60.8994 410.219H19.9624V419.668H60.8994V410.219Z" fill="#E0E0E0"/>
<path d="M19.9624 442.717V445.329H21.8867H60.2221V442.717H19.9624Z" fill="#EBEBEB"/>
<path d="M23.768 449.941L21.8867 445.33H58.7494L56.5563 449.941H23.768Z" fill="#E0E0E0"/>
<path d="M56.6535 427.495C56.6643 427.506 56.6105 427.57 56.5138 427.71C56.3955 427.871 56.245 428.075 56.0515 428.323C55.6107 428.882 55.0087 429.656 54.2562 430.623L54.181 430.731L54.1057 430.623C52.9769 429.064 51.4719 426.979 49.6981 424.528H49.9561C48.6446 426.388 47.1825 428.452 45.613 430.666L45.4732 430.86L45.3227 430.677C43.7209 428.774 41.9794 426.699 40.1734 424.56H40.4744C40.3884 424.668 40.2916 424.797 40.1949 424.915C38.6038 426.914 37.0558 428.849 35.5937 430.688L35.4432 430.881L35.3035 430.677C33.7447 428.462 32.2827 426.398 30.9604 424.539L31.2076 424.549C29.0683 426.99 27.2515 429.054 25.8647 430.645L25.768 430.752L25.6927 430.634C24.9832 429.451 24.4242 428.505 24.0157 427.817C23.8437 427.516 23.7039 427.269 23.5857 427.065C23.4889 426.893 23.4459 426.807 23.4567 426.796C23.4674 426.796 23.5212 426.871 23.6394 427.033C23.7684 427.226 23.919 427.463 24.1125 427.753C24.5425 428.419 25.1337 429.355 25.8647 430.516L25.6927 430.505C27.058 428.903 28.8533 426.807 30.9496 424.345L31.0786 424.195L31.1969 424.367C32.5299 426.226 34.0027 428.28 35.5722 430.484L35.282 430.473C36.744 428.634 38.2813 426.699 39.8723 424.7C39.9691 424.582 40.0658 424.453 40.1519 424.345L40.3024 424.162L40.4529 424.345C42.2482 426.495 43.9897 428.57 45.5807 430.484L45.2905 430.494C46.8708 428.29 48.3436 426.226 49.6766 424.377L49.8056 424.195L49.9346 424.377C51.6654 426.861 53.1489 428.957 54.2454 430.537H54.0842C54.869 429.591 55.4925 428.849 55.9547 428.301C56.159 428.065 56.3202 427.882 56.4493 427.721C56.5783 427.559 56.6428 427.495 56.6535 427.495Z" fill="#F5F5F5"/>
<path d="M57.6524 419.507C57.6524 419.615 49.9337 419.701 40.4197 419.701C30.9057 419.701 23.187 419.615 23.187 419.507C23.187 419.4 30.895 419.314 40.4197 419.314C49.9337 419.314 57.6524 419.4 57.6524 419.507Z" fill="#F5F5F5"/>
<path d="M59.201 445.588C59.201 445.695 50.8158 445.781 40.474 445.781C30.1323 445.781 21.7471 445.695 21.7471 445.588C21.7471 445.48 30.1323 445.394 40.474 445.394C50.8158 445.405 59.201 445.491 59.201 445.588Z" fill="#F5F5F5"/>
<path d="M460.767 449.941C460.767 450.092 357.608 450.221 230.389 450.221C103.138 450.221 0 450.092 0 449.941C0 449.791 103.138 449.662 230.4 449.662C357.618 449.662 460.767 449.791 460.767 449.941Z" fill="#263238"/>
<path d="M426.463 26.8215H8.99805V302.491H426.463V26.8215Z" fill="white"/>
<path d="M426.474 302.48C426.474 300.663 426.388 194.935 426.248 26.8111L426.474 27.0369C311.758 27.0584 166.522 27.0799 9.03051 27.1014H8.99826L9.27776 26.8219C9.26701 124.918 9.26701 218.241 9.25626 302.491L8.99826 302.233C254.771 302.383 424.173 302.48 426.474 302.48C424.173 302.48 254.782 302.588 9.00901 302.738H8.751V302.48C8.74025 218.241 8.7295 124.907 8.71875 26.8219V26.5424H8.99826H9.03051C166.522 26.5639 311.758 26.5854 426.463 26.5961H426.689V26.8219C426.56 194.945 426.474 300.663 426.474 302.48Z" fill="#263238"/>
<path d="M48.684 54.0718C48.06 54.0718 47.46 53.9718 46.884 53.7718C46.316 53.5718 45.876 53.3078 45.564 52.9798L45.912 52.2958C46.216 52.5998 46.62 52.8478 47.124 53.0398C47.628 53.2238 48.148 53.3158 48.684 53.3158C49.436 53.3158 50 53.1798 50.376 52.9078C50.752 52.6278 50.94 52.2678 50.94 51.8278C50.94 51.4918 50.836 51.2238 50.628 51.0238C50.428 50.8238 50.18 50.6718 49.884 50.5678C49.588 50.4558 49.176 50.3358 48.648 50.2078C48.016 50.0478 47.512 49.8958 47.136 49.7518C46.76 49.5998 46.436 49.3718 46.164 49.0678C45.9 48.7638 45.768 48.3518 45.768 47.8318C45.768 47.4078 45.88 47.0238 46.104 46.6798C46.328 46.3278 46.672 46.0478 47.136 45.8398C47.6 45.6318 48.176 45.5278 48.864 45.5278C49.344 45.5278 49.812 45.5958 50.268 45.7318C50.732 45.8598 51.132 46.0398 51.468 46.2718L51.168 46.9798C50.816 46.7478 50.44 46.5758 50.04 46.4638C49.64 46.3438 49.248 46.2838 48.864 46.2838C48.128 46.2838 47.572 46.4278 47.196 46.7158C46.828 46.9958 46.644 47.3598 46.644 47.8078C46.644 48.1438 46.744 48.4158 46.944 48.6238C47.152 48.8238 47.408 48.9798 47.712 49.0918C48.024 49.1958 48.44 49.3118 48.96 49.4398C49.576 49.5918 50.072 49.7438 50.448 49.8958C50.832 50.0398 51.156 50.2638 51.42 50.5678C51.684 50.8638 51.816 51.2678 51.816 51.7798C51.816 52.2038 51.7 52.5918 51.468 52.9438C51.244 53.2878 50.896 53.5638 50.424 53.7718C49.952 53.9718 49.372 54.0718 48.684 54.0718Z" fill="black"/>
<path d="M59.2588 47.6878V53.9998H58.4428V52.8478C58.2188 53.2318 57.9108 53.5318 57.5188 53.7478C57.1268 53.9558 56.6788 54.0598 56.1748 54.0598C55.3508 54.0598 54.6988 53.8318 54.2188 53.3758C53.7468 52.9118 53.5108 52.2358 53.5108 51.3478V47.6878H54.3628V51.2638C54.3628 51.9278 54.5268 52.4318 54.8548 52.7758C55.1828 53.1198 55.6508 53.2918 56.2588 53.2918C56.9228 53.2918 57.4468 53.0918 57.8308 52.6918C58.2148 52.2838 58.4068 51.7198 58.4068 50.9998V47.6878H59.2588Z" fill="black"/>
<path d="M64.897 47.6398C65.489 47.6398 66.025 47.7758 66.505 48.0478C66.985 48.3118 67.361 48.6878 67.633 49.1758C67.905 49.6638 68.041 50.2198 68.041 50.8438C68.041 51.4758 67.905 52.0358 67.633 52.5238C67.361 53.0118 66.985 53.3918 66.505 53.6638C66.033 53.9278 65.497 54.0598 64.897 54.0598C64.385 54.0598 63.921 53.9558 63.505 53.7478C63.097 53.5318 62.761 53.2198 62.497 52.8118V56.3278H61.645V47.6878H62.461V48.9358C62.717 48.5198 63.053 48.1998 63.469 47.9758C63.893 47.7518 64.369 47.6398 64.897 47.6398ZM64.837 53.3038C65.277 53.3038 65.677 53.2038 66.037 53.0038C66.397 52.7958 66.677 52.5038 66.877 52.1278C67.085 51.7518 67.189 51.3238 67.189 50.8438C67.189 50.3638 67.085 49.9398 66.877 49.5718C66.677 49.1958 66.397 48.9038 66.037 48.6958C65.677 48.4878 65.277 48.3838 64.837 48.3838C64.389 48.3838 63.985 48.4878 63.625 48.6958C63.273 48.9038 62.993 49.1958 62.785 49.5718C62.585 49.9398 62.485 50.3638 62.485 50.8438C62.485 51.3238 62.585 51.7518 62.785 52.1278C62.993 52.5038 63.273 52.7958 63.625 53.0038C63.985 53.2038 64.389 53.3038 64.837 53.3038Z" fill="black"/>
<path d="M73.0298 47.6398C73.6218 47.6398 74.1578 47.7758 74.6378 48.0478C75.1178 48.3118 75.4938 48.6878 75.7658 49.1758C76.0378 49.6638 76.1738 50.2198 76.1738 50.8438C76.1738 51.4758 76.0378 52.0358 75.7658 52.5238C75.4938 53.0118 75.1178 53.3918 74.6378 53.6638C74.1658 53.9278 73.6298 54.0598 73.0298 54.0598C72.5178 54.0598 72.0538 53.9558 71.6378 53.7478C71.2298 53.5318 70.8938 53.2198 70.6298 52.8118V56.3278H69.7778V47.6878H70.5938V48.9358C70.8498 48.5198 71.1858 48.1998 71.6018 47.9758C72.0258 47.7518 72.5018 47.6398 73.0298 47.6398ZM72.9698 53.3038C73.4098 53.3038 73.8098 53.2038 74.1698 53.0038C74.5298 52.7958 74.8098 52.5038 75.0098 52.1278C75.2178 51.7518 75.3218 51.3238 75.3218 50.8438C75.3218 50.3638 75.2178 49.9398 75.0098 49.5718C74.8098 49.1958 74.5298 48.9038 74.1698 48.6958C73.8098 48.4878 73.4098 48.3838 72.9698 48.3838C72.5218 48.3838 72.1178 48.4878 71.7578 48.6958C71.4058 48.9038 71.1258 49.1958 70.9178 49.5718C70.7178 49.9398 70.6178 50.3638 70.6178 50.8438C70.6178 51.3238 70.7178 51.7518 70.9178 52.1278C71.1258 52.5038 71.4058 52.7958 71.7578 53.0038C72.1178 53.2038 72.5218 53.3038 72.9698 53.3038Z" fill="black"/>
<path d="M77.9106 45.0958H78.7626V53.9998H77.9106V45.0958Z" fill="black"/>
<path d="M86.4373 47.6878L83.2813 54.7558C83.0253 55.3478 82.7293 55.7678 82.3933 56.0158C82.0573 56.2638 81.6533 56.3878 81.1813 56.3878C80.8773 56.3878 80.5933 56.3398 80.3293 56.2438C80.0653 56.1478 79.8373 56.0038 79.6453 55.8118L80.0413 55.1758C80.3613 55.4958 80.7453 55.6558 81.1933 55.6558C81.4813 55.6558 81.7253 55.5758 81.9253 55.4158C82.1333 55.2558 82.3253 54.9838 82.5013 54.5998L82.7773 53.9878L79.9573 47.6878H80.8453L83.2213 53.0518L85.5973 47.6878H86.4373Z" fill="black"/>
<path d="M94.6058 54.0718C93.7738 54.0718 93.0218 53.8878 92.3498 53.5198C91.6858 53.1518 91.1618 52.6438 90.7778 51.9958C90.4018 51.3398 90.2138 50.6078 90.2138 49.7998C90.2138 48.9918 90.4018 48.2638 90.7778 47.6158C91.1618 46.9598 91.6898 46.4478 92.3618 46.0798C93.0338 45.7118 93.7858 45.5278 94.6178 45.5278C95.2418 45.5278 95.8178 45.6318 96.3458 45.8398C96.8738 46.0478 97.3218 46.3518 97.6898 46.7518L97.1258 47.3158C96.4698 46.6518 95.6418 46.3198 94.6418 46.3198C93.9778 46.3198 93.3738 46.4718 92.8298 46.7758C92.2858 47.0798 91.8578 47.4958 91.5458 48.0238C91.2418 48.5518 91.0898 49.1438 91.0898 49.7998C91.0898 50.4558 91.2418 51.0478 91.5458 51.5758C91.8578 52.1038 92.2858 52.5198 92.8298 52.8238C93.3738 53.1278 93.9778 53.2798 94.6418 53.2798C95.6498 53.2798 96.4778 52.9438 97.1258 52.2718L97.6898 52.8358C97.3218 53.2358 96.8698 53.5438 96.3338 53.7598C95.8058 53.9678 95.2298 54.0718 94.6058 54.0718Z" fill="black"/>
<path d="M102.619 47.6398C103.411 47.6398 104.039 47.8718 104.503 48.3358C104.975 48.7918 105.211 49.4598 105.211 50.3398V53.9998H104.359V50.4238C104.359 49.7678 104.195 49.2678 103.867 48.9238C103.539 48.5798 103.071 48.4078 102.463 48.4078C101.783 48.4078 101.243 48.6118 100.843 49.0198C100.451 49.4198 100.255 49.9758 100.255 50.6878V53.9998H99.4028V45.0958H100.255V48.7918C100.487 48.4238 100.807 48.1398 101.215 47.9398C101.623 47.7398 102.091 47.6398 102.619 47.6398Z" fill="black"/>
<path d="M109.732 47.6398C110.556 47.6398 111.188 47.8478 111.628 48.2638C112.068 48.6718 112.288 49.2798 112.288 50.0878V53.9998H111.472V53.0158C111.28 53.3438 110.996 53.5998 110.62 53.7838C110.252 53.9678 109.812 54.0598 109.3 54.0598C108.596 54.0598 108.036 53.8918 107.62 53.5558C107.204 53.2198 106.996 52.7758 106.996 52.2238C106.996 51.6878 107.188 51.2558 107.572 50.9278C107.964 50.5998 108.584 50.4358 109.432 50.4358H111.436V50.0518C111.436 49.5078 111.284 49.0958 110.98 48.8158C110.676 48.5278 110.232 48.3838 109.648 48.3838C109.248 48.3838 108.864 48.4518 108.496 48.5878C108.128 48.7158 107.812 48.8958 107.548 49.1278L107.164 48.4918C107.484 48.2198 107.868 48.0118 108.316 47.8678C108.764 47.7158 109.236 47.6398 109.732 47.6398ZM109.432 53.3878C109.912 53.3878 110.324 53.2798 110.668 53.0638C111.012 52.8398 111.268 52.5198 111.436 52.1038V51.0718H109.456C108.376 51.0718 107.836 51.4478 107.836 52.1998C107.836 52.5678 107.976 52.8598 108.256 53.0758C108.536 53.2838 108.928 53.3878 109.432 53.3878Z" fill="black"/>
<path d="M114.602 47.6878H115.454V53.9998H114.602V47.6878ZM115.034 46.3078C114.858 46.3078 114.71 46.2478 114.59 46.1278C114.47 46.0078 114.41 45.8638 114.41 45.6958C114.41 45.5358 114.47 45.3958 114.59 45.2758C114.71 45.1558 114.858 45.0958 115.034 45.0958C115.21 45.0958 115.358 45.1558 115.478 45.2758C115.598 45.3878 115.658 45.5238 115.658 45.6838C115.658 45.8598 115.598 46.0078 115.478 46.1278C115.358 46.2478 115.21 46.3078 115.034 46.3078Z" fill="black"/>
<path d="M121.041 47.6398C121.833 47.6398 122.461 47.8718 122.925 48.3358C123.397 48.7918 123.633 49.4598 123.633 50.3398V53.9998H122.781V50.4238C122.781 49.7678 122.617 49.2678 122.289 48.9238C121.961 48.5798 121.493 48.4078 120.885 48.4078C120.205 48.4078 119.665 48.6118 119.265 49.0198C118.873 49.4198 118.677 49.9758 118.677 50.6878V53.9998H117.825V47.6878H118.641V48.8518C118.873 48.4678 119.193 48.1718 119.601 47.9638C120.017 47.7478 120.497 47.6398 121.041 47.6398Z" fill="black"/>
<path d="M49.043 150.375L49.3977 149.687C49.9997 150.278 51.0748 150.708 52.182 150.708C53.7623 150.708 54.4504 150.041 54.4504 149.214C54.4504 146.891 49.2472 148.321 49.2472 145.193C49.2472 143.946 50.2147 142.871 52.3648 142.871C53.3216 142.871 54.3106 143.15 54.9879 143.623L54.6869 144.333C53.9666 143.86 53.1173 143.634 52.3648 143.634C50.8168 143.634 50.1287 144.322 50.1287 145.171C50.1287 147.493 55.3319 146.085 55.3319 149.171C55.3319 150.418 54.3429 151.471 52.182 151.471C50.9135 151.471 49.6772 151.03 49.043 150.375Z" fill="#D5AC50"/>
<path d="M60.4491 151.019C60.1158 151.32 59.5998 151.471 59.1053 151.471C57.912 151.471 57.2455 150.794 57.2455 149.622V145.784H56.106V145.064H57.2455V143.677H58.1055V145.064H60.0406V145.784H58.1055V149.579C58.1055 150.331 58.4925 150.74 59.202 150.74C59.5568 150.74 59.9008 150.632 60.1481 150.417L60.4491 151.019Z" fill="#D5AC50"/>
<path d="M67.2971 148.493H61.9865C62.0832 149.826 63.0938 150.708 64.4805 150.708C65.2546 150.708 65.9426 150.428 66.4263 149.88L66.9101 150.439C66.3403 151.116 65.4588 151.482 64.459 151.482C62.481 151.482 61.1265 150.127 61.1265 148.246C61.1265 146.365 62.438 145.021 64.2333 145.021C66.0178 145.021 67.3079 146.332 67.3079 148.246C67.3186 148.3 67.2971 148.396 67.2971 148.493ZM61.9865 147.848H66.4908C66.3833 146.601 65.4803 145.73 64.2333 145.73C63.0078 145.741 62.094 146.612 61.9865 147.848Z" fill="#D5AC50"/>
<path d="M75.4995 148.224C75.4995 150.159 74.1449 151.46 72.3389 151.46C71.3284 151.46 70.4576 151.03 69.9201 150.202V153.739H69.0601V145.042H69.8771V146.3C70.3931 145.451 71.2746 144.999 72.3281 144.999C74.1449 144.999 75.4995 146.311 75.4995 148.224ZM74.6394 148.224C74.6394 146.751 73.6182 145.752 72.2744 145.752C70.9199 145.752 69.9093 146.751 69.9093 148.224C69.9093 149.708 70.9199 150.697 72.2744 150.697C73.6182 150.697 74.6394 149.708 74.6394 148.224Z" fill="#D5AC50"/>
<path d="M85.4323 148.977C85.4323 150.385 84.411 151.471 82.3685 151.471C81.1537 151.471 79.9819 151.051 79.3262 150.385L79.7454 149.697C80.2937 150.267 81.272 150.675 82.3685 150.675C83.766 150.675 84.54 150.019 84.54 148.977C84.54 147.966 83.8305 147.3 82.261 147.3H81.659V146.655L84.0025 143.72H79.6809V142.946H85.1098V143.558L82.7233 146.569C84.5293 146.665 85.4323 147.622 85.4323 148.977Z" fill="#D5AC50"/>
<path d="M346.922 284.237H303.244C302.179 284.237 301.319 283.377 301.319 282.312V259.855C301.319 258.791 302.179 257.931 303.244 257.931H346.922C347.986 257.931 348.846 258.791 348.846 259.855V282.312C348.835 283.377 347.975 284.237 346.922 284.237Z" fill="#E0E0E0"/>
<path d="M322.465 272.175C322.465 273.39 321.562 274.089 319.778 274.089H316.478V266.918H319.574C321.175 266.918 322.089 267.595 322.089 268.757C322.089 269.574 321.648 270.122 320.993 270.38C321.917 270.606 322.465 271.208 322.465 272.175ZM317.241 267.552V270.154H319.52C320.67 270.154 321.337 269.713 321.337 268.853C321.337 267.993 320.67 267.552 319.52 267.552H317.241ZM321.713 272.121C321.713 271.186 321.025 270.778 319.767 270.778H317.241V273.465H319.767C321.025 273.465 321.713 273.057 321.713 272.121Z" fill="white"/>
<path d="M328.109 270.756V274.089H327.411V273.25C327.088 273.798 326.443 274.142 325.562 274.142C324.347 274.142 323.594 273.508 323.594 272.573C323.594 271.745 324.132 271.046 325.669 271.046H327.378V270.724C327.378 269.799 326.852 269.305 325.852 269.305C325.153 269.305 324.497 269.552 324.056 269.939L323.734 269.401C324.272 268.939 325.078 268.67 325.927 268.67C327.325 268.67 328.109 269.369 328.109 270.756ZM327.378 272.476V271.594H325.691C324.648 271.594 324.304 272.003 324.304 272.562C324.304 273.186 324.809 273.573 325.669 273.573C326.497 273.573 327.099 273.186 327.378 272.476Z" fill="white"/>
<path d="M329.561 271.401C329.561 269.788 330.732 268.67 332.334 268.67C333.248 268.67 334.011 269.025 334.441 269.735L333.904 270.1C333.538 269.563 332.958 269.305 332.334 269.305C331.162 269.305 330.292 270.143 330.292 271.401C330.292 272.67 331.152 273.497 332.334 273.497C332.958 273.497 333.527 273.25 333.904 272.713L334.441 273.078C334.011 273.777 333.248 274.142 332.334 274.142C330.722 274.142 329.561 273.003 329.561 271.401Z" fill="white"/>
<path d="M337.774 271.391L336.505 272.562V274.1H335.774V266.51H336.505V271.659L339.72 268.724H340.623L338.322 270.928L340.838 274.11H339.946L337.774 271.391Z" fill="white"/>
<path d="M310.694 268.875C310.758 268.939 309.887 269.842 308.759 270.885L308.748 270.896V270.648C309.877 271.68 310.747 272.562 310.683 272.637C310.618 272.702 309.651 271.928 308.522 270.896L308.382 270.777L308.522 270.648L308.533 270.638C309.662 269.595 310.629 268.799 310.694 268.875Z" fill="white"/>
<path d="M313.779 270.766C313.779 270.863 312.628 270.938 311.209 270.938C309.79 270.938 308.64 270.863 308.64 270.766C308.64 270.67 309.79 270.594 311.209 270.594C312.628 270.594 313.779 270.67 313.779 270.766Z" fill="white"/>
<path d="M402.684 284.237H359.005C357.941 284.237 357.081 283.377 357.081 282.312V259.855C357.081 258.791 357.941 257.931 359.005 257.931H402.684C403.748 257.931 404.608 258.791 404.608 259.855V282.312C404.608 283.377 403.737 284.237 402.684 284.237Z" fill="#D5AC50"/>
<path d="M372.013 266.929V274.099H371.39L366.789 268.283V274.099H366.036V266.929H366.66L371.272 272.745V266.929H372.013Z" fill="white"/>
<path d="M378.883 271.627H374.378C374.464 272.756 375.324 273.498 376.496 273.498C377.152 273.498 377.733 273.261 378.141 272.788L378.55 273.261C378.066 273.831 377.324 274.143 376.475 274.143C374.798 274.143 373.647 272.992 373.647 271.401C373.647 269.799 374.765 268.671 376.281 268.671C377.797 268.671 378.894 269.789 378.894 271.401C378.894 271.466 378.883 271.541 378.883 271.627ZM374.378 271.079H378.195C378.098 270.025 377.335 269.283 376.281 269.283C375.238 269.294 374.464 270.025 374.378 271.079Z" fill="white"/>
<path d="M383.645 274.089L381.935 271.842L380.215 274.089H379.398L381.527 271.326L379.506 268.703H380.323L381.935 270.81L383.548 268.703H384.344L382.323 271.326L384.473 274.089H383.645Z" fill="white"/>
<path d="M388.515 273.766C388.225 274.024 387.795 274.142 387.375 274.142C386.365 274.142 385.795 273.572 385.795 272.573V269.315H384.838V268.703H385.795V267.52H386.526V268.703H388.16V269.315H386.526V272.53C386.526 273.164 386.849 273.508 387.461 273.508C387.762 273.508 388.053 273.411 388.257 273.228L388.515 273.766Z" fill="white"/>
<path d="M393.47 272.627C393.406 272.562 394.276 271.659 395.405 270.616L395.416 270.606V270.853C394.276 269.821 393.416 268.939 393.481 268.864C393.545 268.8 394.513 269.574 395.642 270.606L395.781 270.724L395.642 270.853L395.631 270.864C394.502 271.906 393.535 272.691 393.47 272.627Z" fill="white"/>
<path d="M390.396 270.735C390.396 270.638 391.546 270.563 392.965 270.563C394.384 270.563 395.535 270.638 395.535 270.735C395.535 270.831 394.384 270.907 392.965 270.907C391.536 270.896 390.396 270.821 390.396 270.735Z" fill="white"/>
<path d="M59.0626 116.339C64.9048 116.339 69.6409 111.603 69.6409 105.761C69.6409 99.9188 64.9048 95.1827 59.0626 95.1827C53.2204 95.1827 48.4844 99.9188 48.4844 105.761C48.4844 111.603 53.2204 116.339 59.0626 116.339Z" fill="#D5AC50"/>
<path d="M274.724 106.374C274.648 106.374 274.702 105.428 274.283 103.815C273.864 102.235 272.799 99.9127 270.424 98.1174C269.241 97.2467 267.757 96.5049 266.048 96.2039C264.35 95.9244 262.436 95.9781 260.619 96.6769C259.705 96.9994 258.824 97.4832 258.007 98.0852C257.19 98.6765 256.448 99.4182 255.835 100.278C254.567 101.966 253.857 104.138 253.836 106.374C253.857 108.61 254.567 110.781 255.835 112.469C256.448 113.329 257.19 114.071 258.018 114.662C258.824 115.275 259.706 115.748 260.63 116.07C262.447 116.769 264.36 116.823 266.059 116.543C267.768 116.253 269.252 115.501 270.434 114.63C272.821 112.835 273.885 110.513 274.294 108.932C274.713 107.32 274.648 106.374 274.724 106.374C274.724 106.374 274.863 107.32 274.498 108.986C274.143 110.62 273.1 113.039 270.66 114.942C269.456 115.866 267.919 116.662 266.134 116.995C264.36 117.317 262.361 117.274 260.447 116.554C259.48 116.221 258.555 115.726 257.695 115.092C256.824 114.469 256.04 113.695 255.395 112.792C254.051 111.018 253.298 108.728 253.277 106.374C253.298 104.019 254.062 101.73 255.395 99.9558C256.04 99.0527 256.835 98.2787 257.695 97.6552C258.555 97.0209 259.48 96.5157 260.447 96.1932C262.361 95.4729 264.371 95.4299 266.134 95.7524C267.919 96.0857 269.456 96.8812 270.66 97.8057C273.1 99.7085 274.132 102.138 274.498 103.761C274.863 105.428 274.724 106.374 274.724 106.374Z" fill="#263238"/>
<path d="M377.206 105.159C377.131 105.159 377.185 104.213 376.765 102.6C376.346 101.02 375.282 98.6981 372.906 96.9029C371.723 96.0321 370.24 95.2903 368.531 94.9893C366.832 94.7098 364.919 94.7636 363.102 95.4623C362.188 95.7848 361.306 96.2686 360.489 96.8706C359.672 97.4619 358.931 98.2036 358.318 99.0637C357.049 100.751 356.34 102.923 356.318 105.159C356.34 107.395 357.049 109.567 358.318 111.254C358.931 112.114 359.672 112.856 360.5 113.448C361.306 114.06 362.188 114.533 363.112 114.856C364.929 115.555 366.843 115.608 368.541 115.329C370.251 115.039 371.734 114.286 372.917 113.415C375.303 111.62 376.368 109.298 376.776 107.718C377.195 106.094 377.131 105.148 377.206 105.159C377.206 105.159 377.346 106.105 376.98 107.771C376.626 109.405 375.583 111.824 373.142 113.727C371.938 114.652 370.401 115.447 368.617 115.78C366.843 116.103 364.843 116.06 362.93 115.34C361.962 115.006 361.038 114.512 360.178 113.878C359.318 113.254 358.522 112.48 357.877 111.577C356.533 109.803 355.781 107.513 355.759 105.159C355.781 102.805 356.544 100.515 357.877 98.7411C358.522 97.8381 359.318 97.0641 360.178 96.4406C361.038 95.8063 361.962 95.3011 362.93 94.9786C364.843 94.2583 366.854 94.2153 368.617 94.5378C370.401 94.8711 371.938 95.6666 373.142 96.5911C375.583 98.4939 376.615 100.923 376.98 102.547C377.346 104.213 377.206 105.159 377.206 105.159Z" fill="#263238"/>
<path d="M63.47 102.902C63.5775 103.009 61.7392 105.138 59.3526 107.653C58.9656 108.051 58.6001 108.438 58.2453 108.814L58.0518 109.008L57.8583 108.825C55.9233 106.944 54.5688 105.514 54.6548 105.417C54.7408 105.32 56.2565 106.6 58.2346 108.438L57.8476 108.449C58.2023 108.073 58.5679 107.686 58.9441 107.277C61.3307 104.751 63.3517 102.794 63.47 102.902Z" fill="white"/>
<path d="M148.226 103.611H71.6406V107.911H148.226V103.611Z" fill="#D5AC50"/>
<path d="M161.309 116.339C167.151 116.339 171.887 111.603 171.887 105.761C171.887 99.9188 167.151 95.1827 161.309 95.1827C155.467 95.1827 150.73 99.9188 150.73 105.761C150.73 111.603 155.467 116.339 161.309 116.339Z" fill="#D5AC50"/>
<path d="M165.716 102.902C165.824 103.009 163.985 105.138 161.599 107.653C161.212 108.051 160.846 108.438 160.491 108.814L160.298 109.008L160.104 108.825C158.169 106.944 156.815 105.514 156.901 105.417C156.987 105.32 158.503 106.6 160.481 108.438L160.094 108.449C160.448 108.073 160.814 107.686 161.19 107.277C163.577 104.751 165.609 102.794 165.716 102.902Z" fill="white"/>
<path d="M250.472 103.611H173.887V107.911H250.472V103.611Z" fill="#D5AC50"/>
<path d="M354.308 105.159C354.308 105.31 337.161 105.439 316.016 105.439C294.859 105.439 277.723 105.31 277.723 105.159C277.723 105.009 294.87 104.88 316.016 104.88C337.161 104.88 354.308 104.998 354.308 105.159Z" fill="#263238"/>
<path d="M426.474 71.6506C426.474 71.8011 333.011 71.9301 217.747 71.9301C102.439 71.9301 8.99805 71.8119 8.99805 71.6506C8.99805 71.5001 102.439 71.3711 217.747 71.3711C333.011 71.3711 426.474 71.5001 426.474 71.6506Z" fill="#E0E0E0"/>
<path d="M373.132 165.694C373.132 165.844 301.836 165.973 213.899 165.973C125.94 165.973 54.6553 165.844 54.6553 165.694C54.6553 165.543 125.94 165.414 213.899 165.414C301.836 165.414 373.132 165.533 373.132 165.694Z" fill="#263238"/>
<path d="M196.644 178.261C196.644 178.271 196.515 178.282 196.279 178.293C196.01 178.304 195.655 178.314 195.204 178.325C194.225 178.336 192.839 178.357 191.065 178.379C187.431 178.4 182.25 178.433 175.853 178.465C162.974 178.486 145.247 178.519 125.66 178.551C106.063 178.519 88.3354 178.486 75.4565 178.465C69.0601 178.433 63.8678 178.4 60.2449 178.379C58.4711 178.357 57.0951 178.336 56.1061 178.325C55.6546 178.314 55.2998 178.304 55.031 178.293C54.7838 178.282 54.6655 178.271 54.6655 178.261C54.6655 178.25 54.7945 178.239 55.031 178.228C55.2998 178.218 55.6546 178.218 56.1061 178.196C57.0843 178.185 58.4711 178.164 60.2449 178.142C63.8678 178.121 69.0601 178.089 75.4565 178.056C88.3354 178.035 106.063 178.003 125.66 177.97C145.247 178.003 162.974 178.035 175.853 178.056C182.25 178.089 187.442 178.121 191.065 178.142C192.839 178.164 194.225 178.185 195.204 178.196C195.655 178.207 196.01 178.218 196.279 178.228C196.515 178.239 196.644 178.25 196.644 178.261Z" fill="#263238"/>
<path d="M340.601 196.547C340.601 196.697 282.377 196.826 210.565 196.826C138.732 196.826 80.5195 196.697 80.5195 196.547C80.5195 196.396 138.732 196.267 210.565 196.267C282.377 196.267 340.601 196.386 340.601 196.547Z" fill="#263238"/>
<path d="M64.2118 200.696C61.0727 200.696 58.5249 198.149 58.5249 195.01C58.5249 191.87 61.0727 189.323 64.2118 189.323C67.3509 189.323 69.8987 191.87 69.8987 195.01C69.8879 198.149 67.3401 200.696 64.2118 200.696ZM64.2118 190.398C61.6747 190.398 59.5999 192.462 59.5999 195.01C59.5999 197.547 61.664 199.621 64.2118 199.621C66.7489 199.621 68.8237 197.557 68.8237 195.01C68.8129 192.472 66.7489 190.398 64.2118 190.398Z" fill="#E0E0E0"/>
<path d="M287.859 210.479C287.859 210.479 287.677 210.5 287.322 210.511C286.946 210.522 286.419 210.522 285.752 210.543C284.344 210.554 282.312 210.575 279.711 210.597C274.443 210.618 266.853 210.651 257.49 210.683C238.709 210.704 212.801 210.737 184.195 210.769C155.567 210.737 129.659 210.704 110.878 210.683C101.514 210.651 93.9354 210.618 88.657 210.597C86.0554 210.575 84.0236 210.554 82.6154 210.543C81.9488 210.532 81.4221 210.522 81.0458 210.511C80.6911 210.5 80.5083 210.479 80.5083 210.479C80.5083 210.479 80.6911 210.457 81.0458 210.446C81.4221 210.436 81.9488 210.436 82.6154 210.414C84.0236 210.403 86.0554 210.382 88.657 210.36C93.9246 210.339 101.514 210.307 110.878 210.274C129.659 210.253 155.567 210.221 184.195 210.188C212.812 210.221 238.709 210.253 257.49 210.274C266.853 210.307 274.432 210.339 279.711 210.36C282.312 210.382 284.344 210.403 285.752 210.414C286.43 210.425 286.946 210.436 287.322 210.446C287.677 210.457 287.859 210.479 287.859 210.479Z" fill="#263238"/>
<path d="M64.2113 216.155C61.0722 216.155 58.5244 213.607 58.5244 210.468C58.5244 207.329 61.0722 204.781 64.2113 204.781C67.3504 204.781 69.8982 207.329 69.8982 210.468C69.8874 213.607 67.3396 216.155 64.2113 216.155ZM64.2113 205.867C61.6742 205.867 59.5994 207.931 59.5994 210.479C59.5994 213.027 61.6635 215.091 64.2113 215.091C66.7484 215.091 68.8232 213.027 68.8232 210.479C68.8232 207.931 66.7484 205.867 64.2113 205.867Z" fill="#E0E0E0"/>
<path d="M64.2109 212.984C65.5942 212.984 66.7157 211.862 66.7157 210.479C66.7157 209.096 65.5942 207.974 64.2109 207.974C62.8275 207.974 61.7061 209.096 61.7061 210.479C61.7061 211.862 62.8275 212.984 64.2109 212.984Z" fill="#D5AC50"/>
<path d="M340.6 227.465C340.6 227.615 282.377 227.744 210.565 227.744C138.732 227.744 80.519 227.615 80.519 227.465C80.519 227.314 138.732 227.185 210.565 227.185C282.377 227.185 340.6 227.314 340.6 227.465Z" fill="#263238"/>
<path d="M64.2113 231.625C61.0722 231.625 58.5244 229.077 58.5244 225.938C58.5244 222.799 61.0722 220.251 64.2113 220.251C67.3504 220.251 69.8982 222.799 69.8982 225.938C69.8874 229.077 67.3396 231.625 64.2113 231.625ZM64.2113 221.326C61.6742 221.326 59.5994 223.39 59.5994 225.938C59.5994 228.486 61.6635 230.55 64.2113 230.55C66.7484 230.55 68.8232 228.486 68.8232 225.938C68.8232 223.39 66.7484 221.326 64.2113 221.326Z" fill="#E0E0E0"/>
<path d="M158.771 229.572C153.59 231.872 152.407 236.086 152.332 238.57C152.257 241.053 152.375 243.977 150.408 245.504C148.559 246.933 145.849 246.288 143.656 247.105C140.861 248.137 139.485 251.266 138.873 254.179C138.26 257.092 138.066 260.21 136.443 262.704C134.873 265.112 132.218 266.531 129.832 268.122C127.434 269.713 125.058 271.82 124.618 274.658C123.983 278.722 127.563 282.872 126.09 286.72C125.144 289.193 122.478 290.461 120.479 292.203C117.877 294.45 116.254 297.771 116.06 301.201C115.878 304.63 117.135 308.113 119.468 310.629C121.35 312.65 124.08 314.08 126.811 313.693C129.466 313.316 131.584 311.371 133.594 309.586C140.926 303.061 149.139 297.546 157.943 293.224C160.233 292.106 162.717 290.913 163.899 288.655C164.49 287.516 164.695 286.215 164.877 284.946C167.35 268.015 169.812 251.094 172.284 234.162" fill="#263238"/>
<path d="M183.894 213.479C182.895 209.748 185.077 205.695 188.313 203.578C191.538 201.46 195.58 200.965 199.439 201.073C203.406 201.191 207.814 202.169 210.007 205.48C211.383 207.566 211.619 210.21 212.834 212.382C216.285 218.51 225.874 218.628 229.615 224.573C233.174 230.227 229.54 237.634 230.389 244.267C230.959 248.707 233.528 252.588 235.539 256.598C237.549 260.597 239.033 265.349 237.334 269.498C235.517 273.927 230.368 276.798 229.852 281.56C229.218 287.473 236.216 292.869 234.066 298.406C232.475 302.512 226.508 304.071 225.863 308.425C225.519 310.758 226.906 312.951 227.53 315.219C229.121 320.981 225.39 327.313 220.048 329.979C214.694 332.656 208.233 332.215 202.578 330.28C193.559 327.184 185.894 320.304 181.841 311.671C177.788 303.039 177.401 292.751 180.788 283.828" fill="#263238"/>
<path d="M123.403 270.906C123.371 270.939 123.263 270.466 122.565 270.143C122.221 269.993 121.748 269.907 121.21 270.036C120.683 270.143 120.103 270.53 119.888 271.197C119.651 271.852 119.759 272.702 120.243 273.411C120.705 274.121 121.629 274.572 122.629 274.551C123.629 274.54 124.682 274.099 125.467 273.271C126.274 272.454 126.833 271.336 127.187 270.111C127.94 267.627 127.725 264.736 127.994 261.65C128.155 260.102 128.488 258.49 129.262 256.995C129.649 256.243 130.154 255.533 130.789 254.931C131.434 254.34 132.229 253.878 133.068 253.577C134.766 252.986 136.572 252.91 138.346 252.674C140.098 252.448 141.958 251.954 143.065 250.513C144.216 249.105 144.312 247.116 144.173 245.224C144.054 243.31 143.646 241.354 143.786 239.29C143.958 237.247 144.635 235.28 145.764 233.635C146.871 231.98 148.451 230.647 150.3 230.002C152.182 229.346 154.127 229.604 155.901 229.744C157.664 229.873 159.524 229.948 160.836 228.916C162.179 227.927 162.502 226.164 162.599 224.583C162.695 222.971 162.663 221.337 163.072 219.81C163.867 216.757 165.749 214.317 167.888 212.758C170.038 211.178 172.478 210.533 174.574 210.501C176.682 210.447 178.477 210.931 179.821 211.511C181.186 212.081 182.121 212.769 182.712 213.263C183.304 213.758 183.562 214.08 183.562 214.08C183.54 214.102 183.25 213.822 182.637 213.349C182.035 212.887 181.089 212.242 179.735 211.715C178.391 211.178 176.639 210.737 174.574 210.823C172.532 210.888 170.188 211.543 168.114 213.091C166.06 214.618 164.265 217.004 163.512 219.939C163.125 221.401 163.168 222.982 163.082 224.637C163.029 225.465 162.943 226.314 162.663 227.153C162.394 227.991 161.878 228.797 161.147 229.346C160.427 229.926 159.503 230.206 158.589 230.313C157.675 230.421 156.761 230.367 155.858 230.303C154.052 230.163 152.203 229.937 150.472 230.55C148.752 231.152 147.258 232.399 146.215 233.979C145.14 235.538 144.495 237.43 144.334 239.365C144.205 241.3 144.592 243.257 144.721 245.213C144.785 246.191 144.807 247.18 144.646 248.159C144.495 249.137 144.119 250.105 143.495 250.879C142.883 251.663 142.044 252.233 141.141 252.588C140.249 252.943 139.324 253.115 138.411 253.233C136.605 253.469 134.831 253.545 133.229 254.093C132.444 254.372 131.724 254.781 131.122 255.329C130.531 255.877 130.058 256.544 129.681 257.243C128.94 258.662 128.606 260.221 128.434 261.726C128.144 264.746 128.338 267.681 127.542 270.251C127.166 271.519 126.564 272.691 125.693 273.551C124.844 274.422 123.683 274.905 122.608 274.895C121.522 274.905 120.501 274.389 120.006 273.594C119.501 272.809 119.393 271.885 119.673 271.154C119.931 270.412 120.597 269.993 121.167 269.896C121.737 269.778 122.253 269.885 122.597 270.057C123.339 270.423 123.403 270.928 123.403 270.906Z" fill="#263238"/>
<path d="M240.871 284.226C240.881 284.226 240.924 284.312 241 284.495C241.075 284.678 241.161 284.979 241.15 285.366C241.15 286.14 240.666 287.365 239.355 288.161C238.721 288.559 237.861 288.827 236.925 288.666C236.022 288.494 235.098 287.957 234.42 287.107C233.743 286.28 233.259 285.194 233.12 283.979C232.98 282.764 233.227 281.463 233.732 280.227C234.743 277.712 236.839 275.605 238.785 273.261C239.753 272.078 240.656 270.767 241.236 269.262C241.827 267.768 242.096 266.091 242.075 264.392C242.032 262.693 241.666 260.952 240.924 259.329C240.204 257.695 239.043 256.265 237.678 254.996C236.313 253.717 234.786 252.534 233.41 251.105C232.045 249.696 230.884 247.858 230.679 245.762C230.464 243.676 231.045 241.687 231.593 239.828C232.174 237.957 232.722 236.14 232.862 234.28C233.206 230.593 232.26 226.852 230.002 224.283C228.895 222.993 227.53 221.993 226.046 221.38C224.563 220.735 222.982 220.649 221.445 220.681C219.918 220.692 218.349 220.735 216.951 220.122C215.554 219.52 214.619 218.306 214.07 217.102C212.952 214.629 212.995 212.167 212.511 210.168C212.286 209.157 211.985 208.243 211.544 207.48C211.125 206.717 210.533 206.147 209.953 205.728C208.76 204.9 207.566 204.771 206.825 204.911C206.083 205.061 205.75 205.341 205.728 205.309C205.728 205.309 206.029 204.997 206.792 204.803C207.545 204.621 208.803 204.717 210.06 205.556C210.684 205.975 211.307 206.556 211.759 207.351C212.232 208.136 212.554 209.071 212.802 210.092C213.318 212.124 213.318 214.575 214.414 216.93C214.952 218.08 215.833 219.187 217.102 219.725C218.381 220.273 219.875 220.241 221.413 220.208C222.95 220.165 224.638 220.241 226.197 220.918C227.755 221.552 229.196 222.606 230.357 223.939C232.733 226.626 233.722 230.518 233.367 234.324C233.216 236.248 232.647 238.129 232.077 239.989C231.529 241.838 230.98 243.762 231.185 245.697C231.378 247.632 232.432 249.342 233.765 250.718C235.087 252.104 236.614 253.287 238 254.588C239.398 255.878 240.623 257.394 241.365 259.092C242.128 260.78 242.505 262.597 242.548 264.36C242.569 266.123 242.279 267.864 241.655 269.423C241.043 270.993 240.097 272.347 239.108 273.54C237.108 275.906 235.055 277.959 234.055 280.367C233.55 281.549 233.313 282.786 233.431 283.925C233.55 285.065 234.001 286.108 234.625 286.892C235.248 287.688 236.098 288.204 236.936 288.387C237.775 288.548 238.592 288.322 239.194 287.957C240.451 287.226 240.957 286.075 240.989 285.344C241.075 284.613 240.828 284.237 240.871 284.226Z" fill="#263238"/>
<path d="M157.169 230.883C155.127 231.442 154.019 233.764 154.019 235.882C154.019 238 154.836 240.01 155.395 242.053C155.954 244.095 156.223 246.385 155.202 248.234C153.159 251.954 147.429 251.76 144.667 254.985C141.151 259.081 144.43 265.854 141.893 270.616C139.582 274.959 133.121 276.314 131.841 281.065C131.024 284.086 132.734 287.376 131.884 290.386C130.917 293.804 127.133 295.535 125.133 298.47C123.123 301.426 123.134 305.447 124.521 308.736C125.746 311.671 127.918 314.101 130.369 316.143C130.68 316.401 130.981 316.649 131.304 316.896L168.328 308.285L175.756 239.795L157.169 230.883Z" fill="#263238"/>
<path d="M177.476 218.198C174.692 217.907 172.144 219.789 171.617 222.541L159.405 294.46C157.728 302.899 169.005 310.284 178.057 312.015C187.194 313.768 188.452 309.371 190.291 301.383C193.365 288.053 194.429 283.033 194.419 283.108C194.419 283.108 206.33 283.656 211.909 269.154C214.683 261.941 216.919 249.632 218.424 239.494C219.778 230.367 216.166 218.058 206.996 217.09L177.476 218.198Z" fill="#FFBE9D"/>
<path d="M213.028 248.492C212.846 249.513 211.835 250.212 210.76 250.04C209.685 249.868 208.965 248.911 209.147 247.879C209.33 246.858 210.341 246.159 211.416 246.331C212.491 246.503 213.211 247.471 213.028 248.492Z" fill="#263238"/>
<path d="M214.414 246.557C214.124 246.761 212.898 245.363 210.824 244.933C208.759 244.471 207.018 245.213 206.846 244.912C206.76 244.772 207.104 244.374 207.867 244.03C208.62 243.686 209.834 243.461 211.125 243.74C212.415 244.02 213.393 244.729 213.92 245.353C214.436 245.966 214.554 246.471 214.414 246.557Z" fill="#263238"/>
<path d="M192.398 244.052C192.216 245.073 191.205 245.772 190.13 245.6C189.055 245.428 188.335 244.471 188.518 243.439C188.7 242.418 189.711 241.719 190.786 241.891C191.861 242.052 192.581 243.02 192.398 244.052Z" fill="#263238"/>
<path d="M193.978 241.923C193.688 242.128 192.452 240.73 190.388 240.3C188.324 239.838 186.582 240.58 186.41 240.279C186.324 240.139 186.657 239.741 187.431 239.397C188.184 239.053 189.399 238.827 190.689 239.107C191.979 239.386 192.957 240.096 193.484 240.719C194 241.343 194.118 241.837 193.978 241.923Z" fill="#263238"/>
<path d="M198.213 258.296C198.224 258.178 199.568 258.232 201.707 258.404C202.245 258.457 202.771 258.468 202.933 258.124C203.137 257.769 203.04 257.157 202.911 256.479C202.685 255.093 202.449 253.641 202.201 252.115C201.255 245.923 200.686 240.87 200.933 240.838C201.18 240.806 202.158 245.794 203.105 251.986C203.33 253.512 203.535 254.964 203.739 256.35C203.814 256.995 204.008 257.748 203.567 258.479C203.341 258.844 202.89 259.049 202.535 259.07C202.169 259.103 201.879 259.049 201.61 259.006C199.503 258.683 198.192 258.414 198.213 258.296Z" fill="#263238"/>
<path d="M194.419 283.108C194.419 283.108 184.185 281.603 175.466 273.465C175.466 273.465 178.272 285.14 193.591 286.935L194.419 283.108Z" fill="#DFA68A"/>
<path d="M196.278 263.102C195.741 261.962 194.558 261.134 193.225 261.005C192.301 260.909 191.301 261.145 190.602 261.769C189.904 262.381 189.56 263.403 189.914 264.198C190.301 265.101 191.43 265.531 192.484 265.467C193.537 265.391 194.526 264.929 195.472 264.456C195.73 264.327 195.999 264.187 196.192 263.972C196.386 263.757 196.483 263.446 196.354 263.198" fill="#FFBE9D"/>
<path d="M191.817 258.436C192.161 258.49 191.688 260.737 193.268 262.747C194.848 264.757 197.299 265.015 197.246 265.338C197.246 265.488 196.622 265.66 195.601 265.478C194.601 265.295 193.225 264.671 192.247 263.446C191.279 262.22 191.054 260.801 191.172 259.866C191.29 258.888 191.666 258.382 191.817 258.436Z" fill="#263238"/>
<path d="M195.677 237.914C195.354 238.43 193.344 237.72 190.85 237.505C188.366 237.226 186.249 237.527 186.034 236.946C185.937 236.678 186.399 236.215 187.302 235.839C188.205 235.463 189.57 235.216 191.065 235.366C192.559 235.517 193.838 236.033 194.655 236.581C195.472 237.129 195.827 237.667 195.677 237.914Z" fill="#263238"/>
<path d="M214.93 242.826C214.468 243.224 213.146 242.429 211.436 242.042C209.738 241.59 208.201 241.687 207.975 241.117C207.878 240.848 208.211 240.429 208.942 240.117C209.663 239.806 210.781 239.666 211.952 239.956C213.124 240.246 214.049 240.891 214.543 241.493C215.038 242.106 215.135 242.633 214.93 242.826Z" fill="#263238"/>
<path d="M188.377 215.445C185.443 212.392 181.218 210.371 176.971 210.662C172.725 210.952 168.629 213.844 167.619 217.886C166.963 220.52 167.5 223.583 165.802 225.712C164.189 227.744 161.233 228.077 158.922 229.303C155.288 231.227 153.364 235.763 154.514 239.677C155.503 243.031 158.47 245.976 158.029 249.438C157.61 252.684 154.342 254.802 153.009 257.801C151.536 261.113 152.687 265.101 154.933 267.993C157.191 270.885 160.384 272.895 163.512 274.851C165.952 276.378 168.575 277.958 171.467 277.926C174.897 277.894 178.003 275.378 179.154 272.218C180.304 269.057 179.68 265.434 177.982 262.489C176.509 259.952 174.198 257.565 174.338 254.662C174.553 250.147 180.53 247.685 181.153 243.203C181.476 240.891 180.282 238.666 179.347 236.516C178.412 234.355 177.756 231.754 179.035 229.797C180.702 227.249 184.497 227.314 187.141 225.755C189.345 224.454 190.689 221.863 190.452 219.337C190.216 216.811 188.431 214.467 186.012 213.532" fill="#263238"/>
<path d="M187.496 211.715C186.84 214.714 187.582 217.993 189.463 220.412C191.344 222.831 194.343 224.357 197.418 224.454C199.805 224.529 202.557 223.917 204.277 225.561C206.083 227.292 205.491 230.453 206.997 232.463C209.147 235.333 213.812 234.086 216.951 235.796C219.381 237.118 220.467 239.945 221.735 242.407C223.004 244.858 225.164 247.395 227.917 247.191C228.25 244.826 228.594 242.439 228.379 240.053C228.164 237.677 227.347 235.269 225.67 233.57C224.745 232.635 223.595 231.947 222.767 230.926C220.993 228.722 221.144 225.594 220.338 222.885C219.295 219.391 216.468 216.477 212.995 215.359C210.114 214.424 206.878 214.65 204.158 213.306C202.148 212.317 200.589 210.533 198.525 209.662C194.505 207.963 189.957 210.135 186.27 212.468" fill="#263238"/>
<path d="M132.606 298.277C132.606 298.277 132.186 298.234 131.455 297.9C130.735 297.567 129.703 296.911 128.8 295.664C127.908 294.449 127.155 292.59 127.359 290.407C127.542 288.247 128.628 285.839 130.628 283.968C131.627 283.033 132.821 282.259 133.96 281.356C135.089 280.463 136.218 279.388 136.648 277.916C137.088 276.454 136.744 274.819 136.648 273.121C136.54 271.401 136.906 269.595 137.744 267.972C138.572 266.348 139.819 264.886 141.41 263.822C142.969 262.725 144.947 262.145 146.903 262.091C148.86 261.994 150.838 262.199 152.773 261.93C153.741 261.801 154.687 261.532 155.504 261.016C156.331 260.511 156.976 259.758 157.449 258.898C158.374 257.135 158.632 255.093 159.126 253.147C159.363 252.169 159.675 251.19 160.159 250.298C160.642 249.406 161.309 248.589 162.137 248.019C163.814 246.858 165.781 246.514 167.587 246.138C169.393 245.783 171.167 245.31 172.564 244.31C173.252 243.816 173.822 243.16 174.145 242.418C174.489 241.676 174.585 240.838 174.553 240.032C174.456 238.398 173.897 236.85 173.392 235.355C172.898 233.85 172.532 232.302 172.672 230.776C172.747 230.023 172.962 229.281 173.349 228.647C173.747 228.024 174.274 227.508 174.886 227.153C176.112 226.443 177.423 226.25 178.617 226.078C179.821 225.906 180.95 225.788 181.971 225.508C184.013 224.971 185.454 223.702 186.368 222.552C187.281 221.38 187.701 220.262 187.905 219.509C188.109 218.746 188.131 218.327 188.163 218.338C188.163 218.338 188.184 218.757 188.012 219.542C187.84 220.316 187.453 221.455 186.54 222.681C185.637 223.885 184.175 225.218 182.057 225.809C181.014 226.11 179.864 226.239 178.67 226.422C177.488 226.605 176.209 226.82 175.091 227.486C173.962 228.131 173.199 229.389 173.102 230.808C172.984 232.227 173.338 233.721 173.833 235.194C174.338 236.678 174.929 238.247 175.037 239.989C175.08 240.859 174.972 241.773 174.596 242.601C174.231 243.439 173.607 244.17 172.855 244.708C171.35 245.805 169.5 246.288 167.673 246.643C165.867 247.019 163.964 247.385 162.438 248.449C160.89 249.513 160.094 251.362 159.653 253.276C159.169 255.19 158.922 257.254 157.933 259.156C157.439 260.092 156.708 260.941 155.794 261.489C154.891 262.048 153.859 262.338 152.848 262.478C150.817 262.747 148.838 262.532 146.936 262.629C143.098 262.65 139.765 265.101 138.206 268.187C137.411 269.735 137.056 271.433 137.142 273.078C137.228 274.723 137.583 276.411 137.099 278.023C136.615 279.646 135.39 280.775 134.24 281.667C133.068 282.57 131.875 283.323 130.907 284.226C128.961 286.021 127.886 288.333 127.682 290.407C127.445 292.514 128.144 294.31 128.983 295.514C129.832 296.739 130.81 297.417 131.509 297.771C132.208 298.158 132.616 298.244 132.606 298.277Z" fill="#455A64"/>
<path d="M221.758 321.056C221.726 321.024 222.145 320.755 222.704 320.035C223.242 319.315 223.854 318.057 223.94 316.315C224.048 314.595 223.65 312.456 222.511 310.263C221.457 308.038 219.759 305.737 218.641 302.77C217.566 299.803 217.404 296.148 218.608 292.611C219.2 290.848 220.146 289.128 221.446 287.612C222.747 286.107 224.328 284.838 225.585 283.247C226.8 281.689 227.725 279.592 227.112 277.593C226.499 275.582 224.682 274.185 223.08 272.615C222.274 271.831 221.479 270.949 220.92 269.906C220.35 268.864 220.049 267.692 219.931 266.509C219.705 264.123 220.253 261.736 221.102 259.489C221.973 257.232 223.123 255.168 224.08 253.071C225.037 250.986 225.833 248.825 226.005 246.632C226.359 242.224 224.403 237.935 221.371 235.28C219.855 233.925 217.985 233.162 216.329 232.044C215.512 231.485 214.738 230.818 214.211 229.969C213.663 229.12 213.48 228.142 213.308 227.249C213.136 226.346 212.954 225.486 212.481 224.787C212.04 224.067 211.373 223.53 210.653 223.132C209.191 222.336 207.579 222.003 206.063 221.638C204.547 221.283 203.074 220.864 201.816 220.186C200.548 219.531 199.484 218.692 198.591 217.811C196.796 216.058 195.71 214.123 195.108 212.478C194.506 210.823 194.313 209.458 194.281 208.533C194.248 207.609 194.313 207.125 194.313 207.125C194.431 207.103 194.076 209.124 195.323 212.392C195.947 213.994 197.043 215.876 198.828 217.574C199.709 218.423 200.763 219.219 201.999 219.853C203.235 220.498 204.644 220.896 206.17 221.229C207.686 221.584 209.32 221.896 210.879 222.734C211.642 223.153 212.384 223.734 212.878 224.529C213.405 225.314 213.609 226.26 213.781 227.153C213.953 228.056 214.136 228.948 214.631 229.711C215.115 230.474 215.824 231.098 216.62 231.635C218.211 232.7 220.135 233.474 221.726 234.893C224.887 237.645 226.929 242.074 226.564 246.675C226.381 248.976 225.564 251.19 224.596 253.308C223.629 255.426 222.478 257.49 221.64 259.694C220.812 261.887 220.285 264.209 220.5 266.466C220.608 267.584 220.887 268.692 221.414 269.659C221.93 270.627 222.672 271.465 223.467 272.239C224.263 273.013 225.102 273.755 225.865 274.583C226.628 275.4 227.295 276.357 227.628 277.453C227.961 278.55 227.875 279.732 227.531 280.764C227.187 281.807 226.639 282.742 225.983 283.581C224.672 285.236 223.07 286.494 221.812 287.956C220.554 289.407 219.63 291.074 219.049 292.783C217.856 296.212 217.985 299.771 219.017 302.662C220.081 305.565 221.758 307.898 222.801 310.155C223.919 312.391 224.317 314.606 224.166 316.358C224.048 318.132 223.381 319.411 222.801 320.132C222.199 320.82 221.758 321.056 221.758 321.056Z" fill="#455A64"/>
<path d="M209.663 308.286C209.663 308.286 219.198 317.23 218.919 331.936C218.639 346.643 221.015 373.325 221.015 373.325L261.705 398.19L250.223 415.778L205.395 395.89L195.999 376.636L209.663 308.286Z" fill="#D5AC50"/>
<path d="M222.09 409.058C222.09 409.058 223.606 406.145 219.338 403.92L212.425 403.909L198.934 380.624L209.706 308.285L191.301 294.299L150.568 290.676L136.335 363.886L154.535 397.147L190.624 411.982L222.09 409.058Z" fill="#D5AC50"/>
<path d="M157.75 291.214L158.557 284.312C158.707 282.979 160.008 282.098 161.309 282.453C171.393 290.354 181.788 294.375 192.743 291.214C194.226 291.633 195.118 293.149 194.753 294.654L190.496 311.951L179.348 315.284L164.631 312.403L157.761 299.696V291.214H157.75Z" fill="#D5AC50"/>
<path d="M193.032 295.976C193.043 296.009 192.592 296.31 191.732 296.772C190.861 297.234 189.56 297.825 187.883 298.363C184.551 299.449 179.541 300.147 174.241 298.954C168.941 297.761 164.716 294.977 162.168 292.558C160.878 291.354 159.954 290.257 159.373 289.472C158.782 288.688 158.513 288.215 158.535 288.193C158.632 288.118 159.825 289.956 162.437 292.268C165.017 294.568 169.178 297.234 174.37 298.406C179.552 299.578 184.465 298.954 187.776 297.976C191.108 297.008 192.979 295.869 193.032 295.976Z" fill="#263238"/>
<g opacity="0.2">
<g opacity="0.2">
<g opacity="0.2">
<path opacity="0.2" d="M159.717 289.537C159.094 290.816 159.438 292.396 160.223 293.59C161.007 294.783 162.168 295.665 163.308 296.514C167.253 299.449 171.36 302.373 176.09 303.716C180.82 305.06 186.367 304.566 190.001 301.233C191.054 300.266 191.871 298.47 190.775 297.557C189.958 296.869 188.732 297.288 187.733 297.675C182.906 299.524 177.455 299.696 172.521 298.169C167.587 296.643 163.19 293.418 160.255 289.171" fill="black"/>
</g>
</g>
</g>
<path d="M154.095 367.853L220.661 403.544L196.645 418.057L150.859 404.629C126.574 398.201 119.941 388.117 120.178 377.7C120.264 373.905 119.823 336.892 121.457 318.746C123.683 294.02 150.558 290.687 150.558 290.687L150.085 311.833L150.386 337.645L151.3 361.338C153.73 360.123 154.342 364.681 154.342 364.681L154.095 367.853Z" fill="#D5AC50"/>
<path d="M150.859 364.155C150.709 364.155 150.494 355.2 150.397 344.159C150.3 333.108 150.343 324.153 150.494 324.153C150.644 324.153 150.859 333.108 150.956 344.159C151.053 355.189 151.01 364.144 150.859 364.155Z" fill="#263238"/>
<path d="M153.859 369.067C153.783 369.024 153.988 368.627 154.095 367.949C154.203 367.283 154.16 366.294 153.644 365.412C153.128 364.531 152.289 364.004 151.655 363.778C151.01 363.531 150.558 363.52 150.558 363.434C150.548 363.37 151.021 363.23 151.762 363.402C152.493 363.563 153.504 364.101 154.117 365.133C154.719 366.176 154.697 367.326 154.471 368.035C154.256 368.766 153.912 369.11 153.859 369.067Z" fill="#263238"/>
<path d="M153.859 369.068C153.88 369.068 153.891 369.111 153.977 369.164C154.052 369.229 154.192 369.315 154.364 369.412C154.719 369.627 155.245 369.917 155.923 370.293C157.288 371.035 159.287 372.089 161.76 373.379C166.78 375.959 173.607 379.453 181.154 383.323C188.7 387.182 195.537 390.676 200.569 393.245C202.998 394.503 204.976 395.535 206.427 396.287C207.072 396.631 207.588 396.911 208.008 397.137C208.362 397.341 208.556 397.448 208.545 397.47C208.534 397.491 208.33 397.405 207.965 397.244C207.535 397.04 206.997 396.793 206.331 396.481C204.858 395.761 202.848 394.782 200.386 393.589C195.376 391.127 188.485 387.676 180.896 383.806C173.317 379.936 166.479 376.378 161.567 373.712C156.675 371.078 153.687 369.283 153.859 369.068Z" fill="#263238"/>
<path d="M197.419 381.345C197.397 381.42 196.204 381.13 194.301 380.592C192.398 380.044 189.786 379.237 186.926 378.27C184.067 377.292 181.508 376.346 179.67 375.615C177.832 374.884 176.714 374.378 176.746 374.314C176.778 374.239 177.939 374.615 179.81 375.249C181.841 375.948 184.346 376.808 187.109 377.754C189.872 378.689 192.377 379.538 194.419 380.237C196.29 380.85 197.44 381.269 197.419 381.345Z" fill="#263238"/>
<path d="M181.003 353.91C181.035 353.931 180.917 354.211 180.681 354.694C180.444 355.189 180.036 355.866 179.455 356.662C178.885 357.457 178.09 358.328 177.133 359.21C176.155 360.07 174.994 360.919 173.671 361.65C172.349 362.359 170.995 362.875 169.748 363.23C168.49 363.563 167.329 363.746 166.34 363.8C165.362 363.854 164.566 363.832 164.018 363.757C163.469 363.692 163.179 363.639 163.179 363.596C163.19 363.488 164.394 363.606 166.297 363.402C167.254 363.305 168.372 363.08 169.597 362.736C170.812 362.359 172.102 361.854 173.392 361.166C174.671 360.457 175.811 359.65 176.778 358.833C177.735 358.006 178.531 357.178 179.133 356.425C180.358 354.931 180.906 353.856 181.003 353.91Z" fill="#263238"/>
<path d="M150.58 318.057C150.494 318.068 150.354 316.563 149.999 314.155C149.633 311.758 149.031 308.425 147.494 305.082C145.957 301.738 143.635 299.212 141.668 297.847C139.7 296.449 138.206 296.062 138.249 295.955C138.26 295.922 138.636 295.998 139.281 296.213C139.937 296.428 140.851 296.847 141.893 297.513C143.979 298.836 146.43 301.405 147.999 304.845C149.569 308.285 150.117 311.682 150.386 314.112C150.515 315.327 150.579 316.316 150.601 317.004C150.622 317.67 150.612 318.057 150.58 318.057Z" fill="#263238"/>
<path d="M221.596 373.217C221.628 373.303 220.854 373.615 219.898 374.582C218.952 375.528 217.758 376.98 216.726 378.764C215.662 380.527 214.942 382.258 214.576 383.548C214.2 384.838 214.2 385.687 214.103 385.687C214.05 385.698 213.91 384.827 214.189 383.451C214.469 382.086 215.146 380.28 216.243 378.474C217.307 376.657 218.575 375.195 219.629 374.292C220.682 373.357 221.585 373.153 221.596 373.217Z" fill="#263238"/>
<g opacity="0.2">
<g opacity="0.2">
<g opacity="0.2">
<path opacity="0.2" d="M211.674 399.383C213.888 395.137 213.34 389.988 212.093 385.365C210.846 380.742 208.943 376.238 208.588 371.465C208.277 367.326 209.137 363.198 209.975 359.134C210.803 355.071 211.609 350.921 211.179 346.793C210.749 342.665 208.9 338.494 205.428 336.215C206.804 339.644 208.201 343.116 208.664 346.782C209.126 350.448 208.556 354.394 206.32 357.339C205.181 358.844 203.622 360.08 202.88 361.811C201.891 364.123 202.041 366.746 201.3 369.068C200.493 371.615 199.031 380.151 199.031 380.151C198.935 380.624 201.558 385.451 204.159 388.891C206.761 392.331 209.9 395.427 211.781 399.319" fill="black"/>
</g>
</g>
</g>
<path d="M211.835 399.093C211.824 399.103 211.727 398.996 211.566 398.77C211.372 398.512 211.136 398.19 210.835 397.792C210.179 396.878 209.265 395.62 208.137 394.051C205.814 390.772 202.568 386.182 198.73 380.753L198.666 380.667L198.687 380.559C199.73 375.431 200.923 369.594 202.17 363.413C202.299 362.757 202.439 362.112 202.568 361.478L202.589 361.402L202.643 361.338C206.75 357.145 208.9 351.566 208.782 346.696C208.534 341.794 206.696 337.644 204.524 335.107L204.481 335.064V335.01C204.309 332.269 204.17 330.076 204.073 328.506C204.041 327.797 204.008 327.216 203.987 326.776C203.976 326.378 203.976 326.174 203.987 326.174C204.008 326.174 204.03 326.378 204.084 326.765C204.127 327.206 204.191 327.775 204.256 328.485C204.395 330.055 204.589 332.237 204.825 334.978L204.782 334.871C207.072 337.451 208.975 341.633 209.276 346.664C209.416 349.201 208.803 351.867 207.782 354.458C206.728 357.048 205.148 359.564 203.03 361.714L203.105 361.574C202.976 362.209 202.847 362.854 202.708 363.509C201.428 369.68 200.224 375.517 199.16 380.635L199.117 380.441C202.89 385.913 206.072 390.536 208.352 393.857C209.437 395.459 210.297 396.749 210.932 397.674C211.2 398.093 211.426 398.426 211.598 398.695C211.781 398.964 211.845 399.082 211.835 399.093Z" fill="#263238"/>
<g opacity="0.2">
<g opacity="0.2">
<g opacity="0.2">
<path opacity="0.2" d="M163.512 363.961C162.846 363.445 161.814 364.251 161.857 365.101C161.9 365.95 162.599 366.595 163.319 367.036C165.286 368.24 167.705 368.551 170.005 368.369C172.865 368.143 175.735 367.143 177.821 365.176C179.906 363.209 181.089 360.188 180.455 357.382C180.401 357.156 180.336 356.92 180.175 356.758C179.638 356.199 178.735 356.823 178.197 357.382C174.521 361.274 169.307 363.682 163.964 363.94" fill="black"/>
</g>
</g>
</g>
<g opacity="0.2">
<g opacity="0.2">
<g opacity="0.2">
<path opacity="0.2" d="M150.526 363.499C148.054 362.402 144.882 363.219 143.248 365.359C142.721 366.047 142.356 367.014 142.807 367.745C143.184 368.347 144.012 368.541 144.7 368.38C145.398 368.218 145.99 367.778 146.549 367.348C147.785 366.391 148.989 365.413 150.171 364.391C150.343 364.252 150.515 364.09 150.591 363.886C150.666 363.682 150.601 363.402 150.397 363.316" fill="black"/>
</g>
</g>
</g>
<path d="M144.904 369.111C144.839 369.1 144.893 368.562 145.216 367.777C145.538 366.993 146.194 365.971 147.183 365.101C148.172 364.241 149.268 363.725 150.096 363.51C150.924 363.284 151.451 363.305 151.461 363.37C151.504 363.531 149.408 363.854 147.548 365.52C145.656 367.143 145.065 369.175 144.904 369.111Z" fill="#263238"/>
<path d="M125.113 332.463C124.962 332.463 124.973 328.163 125.134 322.863C125.306 317.563 125.564 313.274 125.715 313.284C125.865 313.284 125.855 317.585 125.693 322.884C125.521 328.184 125.263 332.474 125.113 332.463Z" fill="#FAFAFA"/>
<path d="M129.896 347.46C129.745 347.46 129.606 342.31 129.595 335.957C129.584 329.603 129.702 324.454 129.864 324.454C130.014 324.454 130.154 329.603 130.165 335.957C130.165 342.31 130.046 347.46 129.896 347.46Z" fill="#FAFAFA"/>
<path d="M138.486 309.447C138.561 309.447 138.594 310.447 138.583 312.059C138.572 313.672 138.518 315.897 138.422 318.348C138.325 320.799 138.206 323.024 138.088 324.626C137.97 326.239 137.862 327.228 137.787 327.228C137.712 327.228 137.68 326.228 137.69 324.615C137.701 323.003 137.755 320.778 137.852 318.316C137.948 315.854 138.067 313.639 138.185 312.027C138.303 310.436 138.411 309.447 138.486 309.447Z" fill="#FAFAFA"/>
<path d="M144.774 340.31C144.624 340.31 144.495 336.989 144.506 332.904C144.506 328.808 144.635 325.497 144.796 325.497C144.946 325.497 145.075 328.818 145.065 332.904C145.065 336.999 144.936 340.31 144.774 340.31Z" fill="#FAFAFA"/>
<path d="M137.722 357.221C137.571 357.21 137.604 354.082 137.797 350.233C137.991 346.384 138.27 343.267 138.431 343.278C138.593 343.288 138.55 346.417 138.356 350.265C138.152 354.114 137.872 357.231 137.722 357.221Z" fill="#FAFAFA"/>
<path d="M123.328 371.346C123.177 371.346 122.994 368.272 122.93 364.466C122.865 360.661 122.941 357.575 123.091 357.575C123.242 357.575 123.424 360.65 123.489 364.455C123.553 368.25 123.478 371.336 123.328 371.346Z" fill="#FAFAFA"/>
<path d="M129.853 372.389C129.703 372.379 129.692 370.153 129.843 367.401C129.993 364.66 130.24 362.435 130.391 362.445C130.541 362.456 130.552 364.682 130.402 367.434C130.251 370.186 130.004 372.4 129.853 372.389Z" fill="#FAFAFA"/>
<path d="M164.372 380.248C164.308 380.377 161.351 379.108 157.922 377.13C154.482 375.152 151.913 373.217 151.999 373.099C152.085 372.97 154.794 374.679 158.202 376.646C161.609 378.614 164.437 380.097 164.372 380.248Z" fill="#FAFAFA"/>
<path d="M186.336 391.74C186.303 391.804 185.443 391.482 184.121 390.826C182.799 390.17 181.003 389.181 179.111 387.945C177.219 386.698 175.607 385.451 174.478 384.483C173.349 383.527 172.715 382.871 172.758 382.806C172.865 382.677 175.66 385.01 179.412 387.472C183.164 389.944 186.411 391.589 186.336 391.74Z" fill="#FAFAFA"/>
<path d="M187.722 398.05C187.657 398.19 185.292 397.223 182.444 395.9C179.595 394.567 177.337 393.385 177.402 393.245C177.466 393.105 179.831 394.073 182.68 395.395C185.529 396.717 187.786 397.911 187.722 398.05Z" fill="#FAFAFA"/>
<path d="M202.59 403.2C202.493 403.339 200.042 401.791 196.86 400.19C193.678 398.577 190.979 397.524 191.033 397.362C191.076 397.222 193.893 398.05 197.107 399.684C200.332 401.308 202.676 403.081 202.59 403.2Z" fill="#FAFAFA"/>
<path d="M198.891 410.574C198.795 410.703 197.128 409.65 195.021 408.457C192.914 407.253 191.151 406.36 191.216 406.221C191.269 406.081 193.161 406.758 195.29 407.973C197.44 409.177 198.977 410.456 198.891 410.574Z" fill="#FAFAFA"/>
<path d="M147.053 366.122C146.903 366.133 146.699 364.144 146.602 361.693C146.505 359.242 146.548 357.242 146.709 357.231C146.86 357.221 147.064 359.21 147.161 361.671C147.247 364.112 147.204 366.111 147.053 366.122Z" fill="#FAFAFA"/>
<path d="M179.831 336.656C179.681 336.677 179.197 333.925 178.756 330.507C178.316 327.088 178.09 324.304 178.24 324.282C178.391 324.261 178.875 327.013 179.315 330.431C179.756 333.85 179.982 336.645 179.831 336.656Z" fill="#FAFAFA"/>
<path d="M183.432 354.963C183.282 354.963 183.11 352.039 183.056 348.427C183.002 344.815 183.088 341.891 183.239 341.88C183.389 341.88 183.561 344.804 183.615 348.416C183.669 352.029 183.583 354.953 183.432 354.963Z" fill="#FAFAFA"/>
<path d="M161.792 357.576C161.653 357.608 160.975 354.92 160.739 351.523C160.492 348.126 160.771 345.363 160.922 345.374C161.083 345.385 161.061 348.116 161.298 351.48C161.534 354.834 161.954 357.543 161.792 357.576Z" fill="#FAFAFA"/>
<path d="M169.2 375.539C169.06 375.571 168.415 373.034 168.157 369.831C167.877 366.627 168.082 364.015 168.232 364.025C168.393 364.025 168.447 366.616 168.716 369.788C168.974 372.948 169.361 375.507 169.2 375.539Z" fill="#FAFAFA"/>
<path d="M172.392 349.728C172.241 349.728 172.112 346.922 172.112 343.449C172.112 339.977 172.241 337.171 172.392 337.171C172.542 337.171 172.671 339.977 172.671 343.449C172.671 346.922 172.553 349.728 172.392 349.728Z" fill="#FAFAFA"/>
<path d="M163.502 328.109C163.652 328.109 163.781 330.216 163.781 332.818C163.781 335.419 163.652 337.526 163.502 337.526C163.351 337.526 163.222 335.419 163.222 332.818C163.222 330.216 163.351 328.109 163.502 328.109Z" fill="#FAFAFA"/>
<path d="M172.596 312.241C172.746 312.241 172.918 314.112 172.961 316.423C173.004 318.735 172.918 320.605 172.768 320.616C172.617 320.616 172.445 318.745 172.402 316.434C172.348 314.123 172.434 312.241 172.596 312.241Z" fill="#FAFAFA"/>
<path d="M189.27 329.679C189.119 329.689 188.743 325.712 188.431 320.81C188.119 315.897 187.99 311.908 188.152 311.898C188.302 311.887 188.678 315.854 188.99 320.767C189.291 325.679 189.42 329.668 189.27 329.679Z" fill="#FAFAFA"/>
<path d="M194.709 361.059C194.559 361.059 194.43 356.608 194.43 351.125C194.43 345.632 194.559 341.192 194.709 341.192C194.86 341.192 194.989 345.643 194.989 351.125C194.989 356.608 194.86 361.059 194.709 361.059Z" fill="#FAFAFA"/>
<path d="M184.949 377.098C184.798 377.098 184.669 373.98 184.669 370.121C184.669 366.272 184.798 363.144 184.949 363.144C185.099 363.144 185.228 366.262 185.228 370.121C185.228 373.98 185.099 377.098 184.949 377.098Z" fill="#FAFAFA"/>
<path d="M193.839 386.515C193.688 386.515 193.559 385.301 193.559 383.817C193.559 382.323 193.688 381.119 193.839 381.119C193.989 381.119 194.118 382.334 194.118 383.817C194.118 385.301 193.989 386.515 193.839 386.515Z" fill="#FAFAFA"/>
<path d="M199.762 320.616C199.912 320.616 200.041 323.465 200.041 326.98C200.041 330.495 199.912 333.344 199.762 333.344C199.611 333.344 199.482 330.495 199.482 326.98C199.482 323.465 199.611 320.616 199.762 320.616Z" fill="#FAFAFA"/>
<path d="M193.667 298.47C193.817 298.47 193.946 302.254 193.946 306.931C193.946 311.596 193.817 315.391 193.667 315.391C193.516 315.391 193.387 311.607 193.387 306.931C193.387 302.254 193.505 298.47 193.667 298.47Z" fill="#FAFAFA"/>
<path d="M182.153 300.739C182.304 300.739 182.433 303.319 182.433 306.49C182.433 309.672 182.304 312.242 182.153 312.242C182.003 312.242 181.874 309.662 181.874 306.49C181.874 303.308 182.003 300.739 182.153 300.739Z" fill="#FAFAFA"/>
<path d="M208.556 327.012C208.406 327.023 207.987 323.905 207.922 320.014C207.847 316.133 208.159 312.994 208.309 313.005C208.47 313.015 208.417 316.144 208.481 320.014C208.546 323.873 208.718 327.002 208.556 327.012Z" fill="#FAFAFA"/>
<path d="M213.608 338.784C213.458 338.784 213.329 335.602 213.329 331.678C213.329 327.754 213.458 324.572 213.608 324.572C213.759 324.572 213.888 327.754 213.888 331.678C213.888 335.591 213.759 338.784 213.608 338.784Z" fill="#FAFAFA"/>
<path d="M216.716 359.446C216.565 359.446 216.436 356.167 216.436 352.114C216.436 348.061 216.565 344.782 216.716 344.782C216.866 344.782 216.995 348.061 216.995 352.114C216.995 356.156 216.866 359.446 216.716 359.446Z" fill="#FAFAFA"/>
<path d="M209.609 370.777C209.459 370.777 209.33 367.294 209.33 363.005C209.33 358.704 209.459 355.232 209.609 355.232C209.76 355.232 209.889 358.715 209.889 363.005C209.889 367.294 209.76 370.777 209.609 370.777Z" fill="#FAFAFA"/>
<path d="M204.051 383.882C203.901 383.882 203.772 380.205 203.772 375.658C203.772 371.121 203.901 367.434 204.051 367.434C204.202 367.434 204.331 371.11 204.331 375.658C204.331 380.205 204.202 383.882 204.051 383.882Z" fill="#FAFAFA"/>
<path d="M216.275 377.001C216.124 377.001 215.995 374.862 215.995 372.228C215.995 369.595 216.124 367.455 216.275 367.455C216.425 367.455 216.554 369.595 216.554 372.228C216.554 374.862 216.425 377.001 216.275 377.001Z" fill="#FAFAFA"/>
<path d="M228.208 400.243C228.144 400.383 224.478 398.986 220.006 397.115C215.534 395.244 211.964 393.621 212.018 393.471C212.083 393.331 215.749 394.728 220.221 396.599C224.693 398.47 228.273 400.104 228.208 400.243Z" fill="#FAFAFA"/>
<path d="M242.462 395.954C242.408 396.104 238.484 394.836 233.7 393.127C228.906 391.417 225.068 389.912 225.122 389.772C225.175 389.622 229.099 390.891 233.894 392.6C238.678 394.309 242.516 395.803 242.462 395.954Z" fill="#FAFAFA"/>
<path d="M232.443 386.429C232.368 386.569 229.745 385.365 226.563 383.742C223.381 382.119 220.865 380.699 220.941 380.56C221.016 380.42 223.639 381.624 226.821 383.247C229.992 384.871 232.508 386.3 232.443 386.429Z" fill="#FAFAFA"/>
<path d="M137.787 298.406C137.894 298.535 136.196 300.083 134.508 302.34C132.809 304.587 131.777 306.641 131.627 306.576C131.498 306.522 132.315 304.308 134.057 302.007C135.798 299.685 137.701 298.288 137.787 298.406Z" fill="#FAFAFA"/>
<path d="M152.504 302.48C152.353 302.513 151.913 301.018 151.526 299.137C151.139 297.256 150.945 295.718 151.096 295.686C151.246 295.654 151.687 297.148 152.074 299.03C152.461 300.911 152.654 302.448 152.504 302.48Z" fill="#FAFAFA"/>
<path d="M214.037 413.552L285.15 379.012C292.406 375.486 300.953 375.905 307.833 380.108C320.25 387.709 322.926 404.597 313.477 415.67L282.667 451.726L204.007 462.606L196.643 418.057L205.383 404.522L214.037 413.552Z" fill="#263238"/>
<path d="M256.985 428.302C257.006 428.334 256.694 428.592 256.114 429.022C255.533 429.452 254.684 430.065 253.609 430.796C251.47 432.258 248.481 434.204 245.095 436.246C241.709 438.289 238.591 440.02 236.29 441.224C235.14 441.826 234.216 442.299 233.56 442.61C232.904 442.922 232.539 443.083 232.517 443.04C232.496 443.008 232.829 442.782 233.452 442.417C234.183 441.987 235.065 441.482 236.097 440.88C238.333 439.59 241.418 437.805 244.794 435.773C248.169 433.741 251.19 431.849 253.383 430.473C254.394 429.839 255.265 429.302 255.985 428.85C256.619 428.463 256.963 428.27 256.985 428.302Z" fill="#455A64"/>
<path d="M106.804 430.957C106.804 430.957 113.867 396.857 117.501 391.611C121.134 386.365 128.799 374.626 138.485 373.411C148.171 372.196 167.962 383.817 171.574 388.386C180.691 399.932 238.215 460.843 237.516 460.036L218.972 472.829L199.385 466.626H143.161C143.14 466.616 104.192 460.026 106.804 430.957Z" fill="#263238"/>
<path d="M199.363 466.605C199.363 466.626 199.062 466.605 198.503 466.562C197.934 466.54 197.117 466.39 196.063 466.175C193.967 465.702 191 464.734 187.506 463.154C180.507 460.004 171.348 454.532 162.167 447.297C152.89 440.192 144.838 433.29 139.506 427.764C136.861 425.001 134.819 422.647 133.626 420.852C132.97 420.003 132.604 419.239 132.314 418.766C132.034 418.272 131.895 418.014 131.916 418.003C131.938 417.992 132.11 418.24 132.411 418.702C132.733 419.164 133.12 419.895 133.808 420.723C135.045 422.464 137.119 424.765 139.796 427.485C145.171 432.914 153.245 439.751 162.511 446.846C171.681 454.07 180.744 459.564 187.667 462.789C191.118 464.412 194.053 465.433 196.117 465.96C197.149 466.207 197.966 466.39 198.525 466.444C199.073 466.53 199.374 466.594 199.363 466.605Z" fill="#455A64"/>
<path d="M174.176 458.994C174.187 459.015 173.939 459.166 173.445 459.434C172.907 459.725 172.198 460.122 171.305 460.617C170.37 461.122 169.155 461.595 167.779 462.219C167.091 462.541 166.307 462.756 165.511 463.046C164.694 463.304 163.856 463.67 162.931 463.874C159.287 464.971 154.772 465.712 149.74 465.841C144.709 465.96 139.141 465.358 133.551 463.745C127.95 462.143 122.929 459.617 118.801 456.747C117.791 455.983 116.78 455.306 115.856 454.532C114.931 453.758 114.136 452.898 113.405 452.049C111.964 450.318 110.835 448.544 109.943 446.857C108.148 443.481 107.341 440.449 107.03 438.353C106.868 437.3 106.804 436.472 106.815 435.913C106.815 435.354 106.815 435.063 106.836 435.063C106.901 435.063 106.868 436.246 107.245 438.321C107.621 440.396 108.481 443.363 110.298 446.674C111.201 448.329 112.33 450.06 113.759 451.748C114.49 452.576 115.264 453.414 116.178 454.156C117.081 454.908 118.102 455.575 119.102 456.327C123.209 459.144 128.175 461.627 133.723 463.208C139.259 464.799 144.763 465.401 149.751 465.325C154.739 465.229 159.222 464.53 162.856 463.498C163.78 463.304 164.619 462.96 165.436 462.713C166.242 462.434 167.027 462.24 167.704 461.928C169.08 461.337 170.306 460.896 171.252 460.423C172.165 459.972 172.886 459.606 173.434 459.338C173.896 459.101 174.165 458.983 174.176 458.994Z" fill="#455A64"/>
<path d="M235.839 458.026C235.732 458.133 221.767 443.438 204.663 425.205C187.56 406.973 173.789 392.105 173.896 391.998C174.004 391.89 187.968 406.586 205.072 424.818C222.176 443.051 235.947 457.918 235.839 458.026Z" fill="#455A64"/>
<path d="M177.798 457.768C177.798 457.768 165.081 462.939 166.414 468.873C167.736 474.796 174.305 477.549 180.927 476.914C187.56 476.28 199.761 470.819 199.761 470.819L206.05 467.486C206.05 467.486 198.407 467.368 194.558 465.981C190.086 464.379 177.798 457.768 177.798 457.768Z" fill="#D5AC50"/>
<path d="M193.526 468.153L238.634 475.248L333.935 465.755L281.689 451.436L193.558 464.111C192.548 464.25 191.806 465.121 191.806 466.142C191.795 467.142 192.537 468.002 193.526 468.153Z" fill="#455A64"/>
<path d="M250.781 403.458L239.859 468.024C239.246 471.657 242.256 474.883 245.933 474.517L333.945 465.745C336.429 465.498 338.45 463.638 338.89 461.187L350.791 395.825C351.457 392.149 348.404 388.859 344.696 389.267L255.705 398.835C253.211 399.093 251.2 400.985 250.781 403.458Z" fill="#455A64"/>
<path d="M191.795 466.132C191.795 466.121 191.881 466.132 192.031 466.142C192.214 466.164 192.44 466.196 192.73 466.228C193.375 466.314 194.278 466.443 195.407 466.605C197.783 466.96 201.148 467.465 205.351 468.088C213.833 469.4 225.626 471.227 239.032 473.302L238.72 473.528C239.279 470.163 239.849 466.658 240.44 463.068C243.095 447.179 245.492 432.806 247.245 422.357C248.137 417.186 248.857 412.982 249.373 410.026C249.631 408.607 249.836 407.489 249.975 406.683C250.051 406.328 250.104 406.038 250.147 405.812C250.19 405.618 250.212 405.522 250.223 405.522C250.233 405.522 250.223 405.629 250.201 405.823C250.169 406.048 250.137 406.339 250.083 406.704C249.965 407.511 249.793 408.639 249.578 410.069C249.115 413.025 248.449 417.24 247.632 422.421C245.923 432.881 243.579 447.265 240.988 463.165C240.397 466.744 239.816 470.249 239.257 473.614L239.214 473.883L238.946 473.84C225.54 471.69 213.768 469.798 205.297 468.443C201.115 467.744 197.751 467.185 195.386 466.798C194.257 466.605 193.364 466.443 192.719 466.336C192.44 466.282 192.214 466.239 192.031 466.207C191.87 466.164 191.795 466.142 191.795 466.132Z" fill="#263238"/>
<path d="M305.779 431.419C305.779 434.924 303.242 437.762 300.125 437.762C296.997 437.762 294.47 434.924 294.47 431.419C294.47 427.914 297.007 425.076 300.125 425.076C303.253 425.076 305.779 427.914 305.779 431.419Z" fill="#FAFAFA"/>
<path d="M173.166 255.599C175.434 258.963 177.735 262.382 179.014 266.241C180.282 270.101 180.422 274.519 178.444 278.067C176.799 281.023 173.768 283.323 173.263 286.667C172.403 292.354 179.229 296.557 179.713 302.287C179.992 305.555 178.122 308.608 176.015 311.113C173.897 313.618 171.424 315.897 170.048 318.875C168.672 321.852 168.747 325.841 171.295 327.905C168.156 327.023 164.899 330.356 161.803 329.324C159.169 328.453 158.47 325.11 158.212 322.347C156.911 323.981 156.46 326.249 157.04 328.26C152.267 323.422 151.128 315.391 154.353 309.404C156.234 305.921 159.491 302.835 159.438 298.879C159.384 294.547 155.363 291.311 154.224 287.129C153.45 284.269 154.095 281.216 154.955 278.378C155.815 275.54 156.911 272.724 157.03 269.757C157.148 266.79 156.879 265.607 154.331 264.08" fill="#263238"/>
<path d="M165.265 327.281C165.265 327.292 165.179 327.281 165.028 327.238C164.867 327.206 164.641 327.152 164.362 327.023C163.803 326.776 162.975 326.271 162.319 325.26C161.653 324.282 161.148 322.841 161.191 321.143C161.223 319.433 161.986 317.584 163.158 315.832C164.319 314.058 165.921 312.392 167.415 310.478C168.866 308.576 170.339 306.243 170.328 303.534C170.35 300.814 168.855 298.212 167.2 295.761C165.534 293.31 163.577 290.687 162.997 287.419C162.706 285.807 162.943 284.086 163.674 282.657C164.394 281.216 165.448 280.044 166.48 278.948C167.522 277.851 168.576 276.841 169.404 275.691C170.242 274.551 170.898 273.293 171.081 271.982C171.285 270.67 170.92 269.369 170.242 268.294C169.576 267.209 168.705 266.284 167.909 265.338C166.254 263.478 165.276 261.242 164.996 259.135C164.695 257.028 165.007 255.072 165.62 253.502C166.232 251.932 167.082 250.739 167.888 249.868C168.694 248.998 169.436 248.46 169.952 248.127C170.21 247.955 170.414 247.847 170.554 247.772C170.694 247.697 170.769 247.665 170.769 247.675C170.823 247.74 169.586 248.288 168.038 250.019C167.286 250.89 166.469 252.072 165.91 253.62C165.34 255.147 165.071 257.05 165.383 259.081C165.684 261.113 166.619 263.231 168.264 265.037C169.049 265.972 169.941 266.897 170.662 268.036C171.382 269.165 171.812 270.616 171.586 272.046C171.382 273.487 170.683 274.809 169.823 275.992C168.963 277.196 167.888 278.238 166.856 279.313C165.835 280.399 164.824 281.539 164.147 282.882C163.47 284.226 163.244 285.785 163.523 287.301C164.072 290.386 165.953 292.955 167.63 295.428C168.468 296.675 169.253 297.954 169.855 299.298C170.447 300.642 170.834 302.072 170.812 303.501C170.823 304.931 170.404 306.297 169.823 307.49C169.242 308.694 168.501 309.747 167.748 310.726C166.211 312.671 164.609 314.295 163.459 316.015C162.298 317.713 161.535 319.487 161.481 321.11C161.416 322.734 161.868 324.142 162.481 325.099C163.072 326.088 163.857 326.604 164.383 326.883C164.942 327.206 165.276 327.249 165.265 327.281Z" fill="#455A64"/>
<path d="M240.688 425.399C237.581 422.614 241.075 419.357 235.463 414.057C231.271 410.101 223.326 403.318 207.943 398.179L198.311 415.39L215.081 420.808L214.92 431.752C214.887 433.999 216.715 435.837 218.973 435.816L227.68 435.708C227.68 435.708 225.143 446.448 225.562 447.104C226.756 448.974 229.325 448.114 229.669 446.663C230.013 445.211 237.173 427.861 237.173 427.861C237.173 427.861 241.849 431.903 242.516 429.591C242.505 429.591 243.784 428.183 240.688 425.399Z" fill="#FFBE9D"/>
<path d="M217.264 436.074C217.232 436.009 217.672 435.751 218.242 435.181C218.823 434.622 219.489 433.709 219.898 432.547C220.295 431.386 220.338 430.258 220.242 429.451C220.145 428.645 219.962 428.172 220.027 428.14C220.07 428.118 220.349 428.57 220.532 429.398C220.715 430.225 220.725 431.44 220.295 432.677C219.865 433.913 219.102 434.859 218.446 435.396C217.791 435.945 217.285 436.117 217.264 436.074Z" fill="#FFBE9D"/>
<path d="M222.864 435.719C222.757 435.633 224.036 434.397 224.541 432.354C225.079 430.322 224.563 428.624 224.692 428.602C224.735 428.592 224.939 428.989 225.068 429.688C225.197 430.387 225.219 431.397 224.95 432.462C224.67 433.526 224.165 434.397 223.714 434.945C223.262 435.493 222.897 435.751 222.864 435.719Z" fill="#FFBE9D"/>
<path d="M229.616 429.419C229.67 429.408 229.778 429.763 229.788 430.365C229.799 430.956 229.681 431.795 229.326 432.634C228.96 433.472 228.444 434.139 228.004 434.536C227.563 434.945 227.23 435.106 227.197 435.063C227.111 434.966 228.262 434.063 228.928 432.461C229.627 430.87 229.487 429.419 229.616 429.419Z" fill="#FFBE9D"/>
<path d="M457.864 379.13C458.832 375.776 460.907 372.54 464.099 371.164C467.432 369.723 471.291 370.54 474.699 371.787C478.107 373.023 481.461 374.679 485.073 374.905C488.696 375.13 492.781 373.41 493.867 369.949C494.888 366.692 492.921 363.219 490.47 360.865C485.31 355.898 477.548 353.791 470.582 355.458C463.616 357.135 457.66 362.531 455.316 369.304" fill="#D5AC50"/>
<g opacity="0.5">
<g opacity="0.5">
<g opacity="0.5">
<g opacity="0.5">
<g opacity="0.5">
<path opacity="0.5" d="M457.864 379.13C458.832 375.776 460.907 372.54 464.099 371.164C467.432 369.723 471.291 370.54 474.699 371.787C478.107 373.023 481.461 374.679 485.073 374.905C488.696 375.13 492.781 373.41 493.867 369.949C494.888 366.692 492.921 363.219 490.47 360.865C485.31 355.898 477.548 353.791 470.582 355.458C463.616 357.135 457.66 362.531 455.316 369.304" fill="black"/>
</g>
</g>
</g>
</g>
</g>
<path d="M429.182 393.674C423.871 388.633 424.14 379.85 426.785 373.012C429.429 366.186 435.213 360.94 441.674 357.478C454.198 350.781 469.85 350.276 482.772 356.145C476.419 356.36 470.28 359.962 467.001 365.412C464.088 370.25 463.443 376.109 461.035 381.215C458.358 386.902 453.435 391.492 447.587 393.782C441.738 396.083 435.009 396.04 429.182 393.674Z" fill="#D5AC50"/>
<path d="M426.635 363.359C420.754 356.414 419.97 345.277 420.84 336.214C421.711 327.163 423.807 318.046 422.378 309.059C421.528 303.738 419.464 298.653 418.766 293.31C418.067 287.967 419.056 281.926 423.195 278.475C427.957 274.508 435.45 275.443 440.395 279.163C445.351 282.882 448.211 288.731 450.307 294.568C454.908 307.372 456.606 321.573 452.822 334.645C449.038 347.717 440.159 359.403 427.14 363.348" fill="#D5AC50"/>
<path d="M423.807 420.314C423.786 420.314 423.786 420.034 423.786 419.518C423.796 418.991 423.786 418.217 423.829 417.228C423.904 415.24 424.097 412.359 424.538 408.822C424.99 405.285 425.688 401.092 426.796 396.513C427.892 391.922 429.763 387.02 432.418 382.258C435.073 377.495 438.32 373.378 441.599 369.981C444.888 366.584 448.253 363.95 451.22 361.972C452.693 360.951 454.112 360.188 455.338 359.467C456.595 358.812 457.692 358.263 458.584 357.833C459.477 357.457 460.175 357.167 460.702 356.941C461.186 356.747 461.444 356.651 461.455 356.661C461.465 356.672 461.218 356.801 460.745 357.027C460.229 357.263 459.541 357.586 458.67 357.995C457.789 358.457 456.714 359.016 455.477 359.693C454.273 360.424 452.876 361.209 451.425 362.241C448.49 364.24 445.179 366.885 441.932 370.271C438.696 373.658 435.493 377.743 432.848 382.473C427.441 391.933 425.957 401.877 424.882 408.843C424.398 412.359 424.151 415.229 424.022 417.218C423.968 418.174 423.925 418.938 423.882 419.508C423.85 420.034 423.829 420.314 423.807 420.314Z" fill="#263238"/>
<path d="M373.087 335.978C362.208 342.547 362.24 348.524 364.057 354.157C365.874 359.801 372.55 363.714 378.086 361.607C381.215 360.413 383.483 357.694 385.418 354.963C387.353 352.233 389.17 349.308 391.89 347.341C394.599 345.374 398.533 344.632 401.264 346.578" fill="#D5AC50"/>
<g opacity="0.5">
<g opacity="0.5">
<g opacity="0.5">
<g opacity="0.5">
<g opacity="0.5">
<path opacity="0.5" d="M373.087 335.978C362.208 342.547 362.24 348.524 364.057 354.157C365.874 359.801 372.55 363.714 378.086 361.607C381.215 360.413 383.483 357.694 385.418 354.963C387.353 352.233 389.17 349.308 391.89 347.341C394.599 345.374 398.533 344.632 401.264 346.578" fill="black"/>
</g>
</g>
</g>
</g>
</g>
<path d="M364.938 343.17C367.787 339.235 374.807 338.096 379.247 340.063C383.687 342.02 386.934 345.911 389.847 349.792C392.76 353.673 395.587 357.779 399.619 360.478C403.65 363.176 409.283 364.154 413.293 361.435C415.927 359.65 417.464 356.543 417.937 353.393C418.421 350.244 417.959 347.029 417.303 343.912C416.346 339.353 414.777 334.58 411.122 331.689C407.047 328.453 401.403 328.302 396.211 328.474C390.255 328.668 384.203 329.119 378.613 331.183C373.023 333.247 367.314 337.709 364.938 343.17Z" fill="#D5AC50"/>
<path d="M414.766 411.595C414.755 411.595 414.745 411.509 414.734 411.359C414.723 411.176 414.712 410.94 414.702 410.66C414.68 410.004 414.648 409.101 414.605 407.962C414.54 405.575 414.444 402.189 414.315 398.029C414.186 393.836 414.014 388.848 413.713 383.311C413.401 377.775 412.992 371.69 412.154 365.359C411.724 362.198 411.229 359.102 410.348 356.242C409.466 353.372 408.295 350.706 407.015 348.266C405.725 345.825 404.306 343.611 402.812 341.665C401.307 339.73 399.748 338.042 398.222 336.623C395.136 333.807 392.18 332.076 390.073 331.076C389.546 330.829 389.084 330.592 388.665 330.42C388.256 330.259 387.901 330.119 387.6 330.012C387.332 329.904 387.127 329.818 386.945 329.754C386.794 329.689 386.729 329.657 386.729 329.646C386.729 329.635 386.815 329.657 386.966 329.7C387.149 329.754 387.364 329.829 387.633 329.915C387.934 330.022 388.299 330.141 388.718 330.28C389.148 330.442 389.611 330.667 390.159 330.893C392.298 331.85 395.308 333.549 398.458 336.365C400.017 337.784 401.597 339.472 403.134 341.418C404.661 343.363 406.101 345.6 407.413 348.061C408.714 350.523 409.907 353.211 410.81 356.103C411.702 359.016 412.208 362.123 412.638 365.294C413.476 371.647 413.874 377.743 414.164 383.29C414.444 388.837 414.573 393.825 414.669 398.018C414.755 402.21 414.788 405.608 414.798 407.951C414.798 409.091 414.798 409.994 414.798 410.649C414.798 410.94 414.788 411.165 414.788 411.348C414.777 411.52 414.777 411.595 414.766 411.595Z" fill="#263238"/>
<path d="M418.68 416.519C418.68 416.519 418.067 414.906 417.487 411.842C416.917 408.789 416.498 404.263 416.992 398.716C417.454 393.169 418.873 386.654 421.142 379.667C423.378 372.668 426.409 365.186 429 357.134C430.279 353.103 431.376 349.125 432.129 345.212C432.892 341.299 433.365 337.483 433.677 333.838C434.289 326.539 434.203 319.928 434.021 314.391C433.838 308.855 433.537 304.372 433.354 301.276C433.268 299.749 433.193 298.556 433.139 297.707C433.118 297.32 433.107 297.008 433.096 296.782C433.085 296.578 433.085 296.47 433.096 296.46C433.107 296.46 433.118 296.567 433.139 296.771C433.161 297.008 433.193 297.309 433.236 297.696C433.311 298.545 433.408 299.739 433.537 301.254C433.773 304.35 434.128 308.823 434.354 314.37C434.58 319.917 434.698 326.539 434.107 333.871C433.816 337.536 433.343 341.364 432.58 345.298C431.838 349.233 430.742 353.243 429.452 357.274C426.85 365.347 423.808 372.819 421.561 379.796C419.282 386.751 417.841 393.223 417.336 398.738C416.799 404.253 417.175 408.746 417.68 411.799C417.949 413.326 418.196 414.498 418.411 415.293C418.508 415.669 418.572 415.97 418.626 416.196C418.669 416.411 418.691 416.519 418.68 416.519Z" fill="#263238"/>
<path d="M445.652 421.432H394.567L393.406 411.595H445.652V421.432Z" fill="#455A64"/>
<path d="M400.049 420.314L406.435 449.813H434.203L440.169 420.314H400.049Z" fill="#455A64"/>
<path d="M445.652 421.432C445.652 421.571 434.418 421.647 420.572 421.604C406.715 421.561 395.481 421.421 395.492 421.292C395.492 421.163 406.726 421.077 420.583 421.12C434.429 421.163 445.652 421.303 445.652 421.432Z" fill="#455A64"/>
<path d="M436.891 435.998C436.826 436.095 435.386 434.611 432.397 433.418C430.914 432.827 429.033 432.365 426.926 432.322C424.808 432.257 422.518 432.762 420.196 433.558C417.863 434.343 415.691 435.256 413.574 435.762C411.445 436.224 409.467 436.192 407.855 435.934C406.231 435.676 404.984 435.203 404.178 434.773C403.78 434.547 403.479 434.364 403.296 434.214C403.103 434.074 403.006 433.988 403.017 433.977C403.049 433.934 403.458 434.235 404.264 434.611C405.081 434.977 406.317 435.396 407.908 435.6C409.489 435.805 411.424 435.805 413.477 435.332C415.519 434.816 417.691 433.891 420.045 433.096C422.389 432.289 424.765 431.773 426.936 431.87C429.108 431.945 431.021 432.451 432.526 433.096C434.042 433.719 435.139 434.482 435.859 435.041C436.214 435.321 436.482 435.557 436.654 435.729C436.816 435.891 436.902 435.977 436.891 435.998Z" fill="#263238"/>
<path d="M436.503 437.966C436.439 438.063 435.052 436.622 432.182 435.418C430.752 434.827 428.946 434.375 426.903 434.332C424.861 434.279 422.636 434.741 420.4 435.504C418.153 436.257 416.035 437.127 414.025 437.676C412.014 438.224 410.112 438.417 408.521 438.288C406.929 438.181 405.693 437.729 404.919 437.321C404.532 437.106 404.242 436.923 404.059 436.773C403.876 436.633 403.78 436.558 403.79 436.536C403.823 436.493 404.21 436.783 404.994 437.138C405.779 437.482 406.994 437.869 408.542 437.934C410.079 438.009 411.928 437.794 413.896 437.224C415.874 436.665 417.97 435.784 420.238 435.031C422.507 434.257 424.807 433.795 426.914 433.87C429.01 433.935 430.87 434.44 432.311 435.085C433.762 435.719 434.816 436.472 435.504 437.009C435.848 437.278 436.106 437.514 436.267 437.676C436.428 437.858 436.514 437.955 436.503 437.966Z" fill="white"/>
<path d="M437.396 434.042C437.332 434.139 435.837 432.634 432.774 431.322C431.258 430.677 429.344 430.107 427.162 429.978C424.99 429.828 422.615 430.387 420.217 431.204C417.809 432.01 415.573 432.989 413.359 433.44C411.144 433.838 409.112 433.72 407.446 433.451C405.78 433.161 404.49 432.687 403.651 432.247C403.243 432.021 402.92 431.827 402.727 431.677C402.533 431.526 402.426 431.44 402.436 431.43C402.469 431.387 402.888 431.688 403.726 432.075C404.576 432.451 405.855 432.87 407.489 433.107C409.123 433.333 411.123 433.408 413.262 432.999C415.38 432.548 417.626 431.559 420.045 430.742C422.453 429.914 424.915 429.344 427.173 429.527C429.419 429.688 431.365 430.312 432.892 431.01C434.429 431.698 435.558 432.483 436.3 433.064C436.665 433.354 436.945 433.591 437.117 433.773C437.321 433.935 437.407 434.021 437.396 434.042Z" fill="white"/>
<path d="M446.103 421.475C446.103 421.604 434.611 421.722 420.442 421.722C406.263 421.722 394.771 421.614 394.771 421.475C394.771 421.335 406.263 421.227 420.442 421.227C434.611 421.227 446.103 421.346 446.103 421.475Z" fill="#263238"/>
</g>
<defs>
<clipPath id="clip0">
<rect width="494.147" height="477" fill="white"/>
</clipPath>
</defs>
</svg>
