<svg width="54" height="54" viewBox="0 0 54 54" fill="none" xmlns="http://www.w3.org/2000/svg">
<g clip-path="url(#clip0)">
<path d="M25.1723 35.5528C24.6748 35.5528 24.2715 35.9562 24.2715 36.4537C24.2715 36.9511 24.6748 37.3545 25.1723 37.3545C26.6649 37.3545 27.8748 38.5644 27.8748 40.057C27.8748 40.5545 28.2782 40.9579 28.7757 40.9579C29.2732 40.9579 29.6765 40.5545 29.6765 40.057C29.6736 37.5706 27.6588 35.5557 25.1723 35.5528Z" fill="#028BFC"/>
<path fill-rule="evenodd" clip-rule="evenodd" d="M28.5672 13.7525L27.0169 12.2022C25.2202 10.396 22.7757 9.38359 20.2281 9.39068H17.8346L16.8248 8.38084L17.4617 7.74395C17.8133 7.39217 17.8133 6.82194 17.4617 6.47016L12.3656 1.37141C12.0138 1.01975 11.4436 1.01975 11.0918 1.37141L0.263749 12.1995C-0.0879163 12.5513 -0.0879163 13.1215 0.263749 13.4733L5.35889 18.5693C5.71067 18.921 6.2809 18.921 6.63268 18.5693L7.26957 17.9324L7.70558 18.3684C8.0872 20.4176 9.0824 22.3026 10.5594 23.7735L17.0653 30.2757V34.652C17.058 37.1996 18.0709 39.644 19.8777 41.4398L21.5695 43.1325V44.5612H20.6686C20.1712 44.5612 19.7678 44.9646 19.7678 45.4621V52.6688C19.7678 53.1663 20.1712 53.5696 20.6686 53.5696H35.9829C36.4804 53.5696 36.8837 53.1663 36.8837 52.6688V45.4621C36.8837 44.9646 36.4804 44.5612 35.9829 44.5612H35.0821V43.9451C36.2599 42.2266 36.8881 40.191 36.8837 38.1076V32.6576C35.9907 32.7498 35.3105 32.4275 35.0821 32.2549V38.1076C35.0861 39.913 34.5151 41.6727 33.4516 43.1316C33.3402 43.2854 33.2803 43.4705 33.2804 43.6604V44.5612H23.3712V42.7596C23.3712 42.5206 23.2761 42.2916 23.1072 42.1227L21.1515 40.166C19.6841 38.7069 18.8615 36.7214 18.867 34.652V32.0522C19.3516 32.4777 19.9732 32.7146 20.6182 32.7197H20.6326C22.1222 32.7123 23.3277 31.5067 23.3351 30.0172C23.3319 29.7325 23.2829 29.4503 23.1901 29.1812C22.5422 28.962 21.9827 27.872 21.7839 27.3543L19.0174 24.5878C18.6718 24.23 18.1015 24.2201 17.7436 24.5657C17.3858 24.9112 17.3759 25.4816 17.7214 25.8394C17.7286 25.847 17.7361 25.8543 17.7436 25.8616L21.2704 29.3884C21.4374 29.5555 21.53 29.7829 21.5271 30.019C21.5222 30.5166 21.1185 30.9179 20.6209 30.9198C20.3843 30.9348 20.1539 30.8406 19.9957 30.664L11.8332 22.4961C10.554 21.2224 9.71377 19.5743 9.43429 17.791C9.40434 17.6033 9.31571 17.4299 9.18115 17.2955L8.54426 16.6587L15.551 9.65193L16.8248 10.9257C16.9937 11.0946 17.2227 11.1897 17.4617 11.1897H20.2281C22.2977 11.1837 24.2836 12.006 25.7431 13.4733L27.2934 15.0245L28.5672 13.7525ZM2.17443 12.8364L5.99579 16.6587L15.551 7.10435L11.7287 3.28209L2.17443 12.8364ZM21.5695 51.7679H35.0821V46.3629H21.5695V51.7679Z" fill="#028BFC"/>
<path d="M26.0187 16.2983L24.4684 14.748C24.1166 14.3952 23.5456 14.3944 23.1928 14.7462C22.84 15.0979 22.8392 15.669 23.191 16.0218L24.7413 17.5721L26.0187 16.2983Z" fill="#028BFC"/>
<path fill-rule="evenodd" clip-rule="evenodd" d="M53.7367 11.5138L42.9069 0.684109C42.5495 0.346182 41.9906 0.346182 41.6332 0.684109L36.5371 5.78016C36.1854 6.13193 36.1854 6.70216 36.5371 7.05394L37.174 7.69083L36.7389 8.12684C34.6894 8.50744 32.8041 9.50287 31.3339 10.9807L28.5674 13.7526L27.2936 15.0246L26.0189 16.2984L24.7415 17.5721L21.2355 21.0782C20.7289 21.5829 20.4464 22.2701 20.4517 22.9853C20.4589 24.0638 21.1034 25.0359 22.094 25.4626C21.7557 26.0315 21.645 26.7072 21.7841 27.3543C21.9828 27.872 22.5424 28.9621 23.1903 29.1812C23.5316 29.3621 23.9081 29.4666 24.2938 29.4875C24.3682 30.8622 25.4642 31.9613 26.8387 32.0396C26.9172 33.4686 28.093 34.5905 29.5241 34.6016H29.534C30.2459 34.6045 30.9293 34.3219 31.4312 33.817L34.1048 31.1388C34.321 31.5941 34.6594 31.9806 35.0823 32.2549C35.3107 32.4276 35.9909 32.7498 36.8839 32.6576C37.4714 32.588 38.0185 32.3235 38.4379 31.9063L42.9069 27.4372C44.7016 25.6332 45.7123 23.194 45.7194 20.6494V18.2568L46.7292 17.246L47.3661 17.8838C47.7179 18.2355 48.2881 18.2355 48.6399 17.8838L53.7359 12.7878C54.0879 12.4361 54.0883 11.8658 53.7367 11.5138ZM43.9168 17.8829C43.9168 17.644 44.0118 17.4149 44.1807 17.246L45.4644 15.9713L38.4568 8.96372L37.8199 9.60061C37.6856 9.73518 37.5122 9.8238 37.3244 9.85375C35.5413 10.1338 33.8937 10.9744 32.6203 12.2536L22.5219 22.3511C22.3549 22.5181 22.2625 22.7455 22.266 22.9817C22.2709 23.4771 22.6714 23.8777 23.1669 23.8825C23.4002 23.8831 23.6242 23.7906 23.7893 23.6258L28.2566 19.1576C28.6084 18.8052 29.1793 18.8045 29.5317 19.1563C29.8842 19.508 29.8849 20.0789 29.5331 20.4314L23.7902 26.1751C23.6253 26.3414 23.5329 26.5662 23.5335 26.8003C23.5383 27.2958 23.9389 27.6963 24.4343 27.7012H24.4397C24.6728 27.7026 24.8968 27.6104 25.0613 27.4453L30.8267 21.7025C31.1785 21.3505 31.7489 21.3503 32.1009 21.702C32.4529 22.0538 32.4532 22.6243 32.1014 22.9763L26.3576 28.7191C26.1903 28.886 26.0977 29.1135 26.1009 29.3497C26.1067 29.8448 26.5066 30.2447 27.0017 30.2505C27.2352 30.2514 27.4592 30.159 27.6242 29.9938L33.3671 24.251C33.7162 23.9138 34.2697 23.9138 34.6188 24.251C34.9766 24.5967 34.9864 25.1669 34.6408 25.5247L28.898 31.2676C28.7308 31.4346 28.6379 31.6619 28.6404 31.8982C28.6458 32.3934 29.046 32.7936 29.5412 32.799C29.775 32.8 29.9994 32.7076 30.1646 32.5423L39.0919 23.615C39.4411 23.2778 39.9945 23.2778 40.3436 23.615C40.7015 23.9605 40.7114 24.5309 40.3657 24.8888L35.8957 29.3578C35.7291 29.525 35.6368 29.7524 35.6399 29.9884C35.6447 30.4839 36.0453 30.8844 36.5407 30.8892C36.7741 30.8901 36.9982 30.7977 37.1632 30.6325L41.6323 26.1634C43.0898 24.6978 43.9107 22.7165 43.9168 20.6494V17.8829ZM38.4478 6.41705L48.0021 15.9722L51.8252 12.15L42.2701 2.59479L38.4478 6.41705Z" fill="#13ACAC"/>
</g>
<defs>
<clipPath id="clip0">
<rect width="54" height="54" fill="white"/>
</clipPath>
</defs>
</svg>
