<svg width="54" height="54" viewBox="0 0 54 54" fill="none" xmlns="http://www.w3.org/2000/svg">
<path d="M48.9375 1.6875C48.0424 1.6875 47.184 2.04308 46.551 2.67601C45.9181 3.30895 45.5625 4.16739 45.5625 5.0625V5.21437C45.1813 5.0755 44.7722 5.03093 44.37 5.08447C43.9678 5.13801 43.5846 5.28807 43.253 5.52184C42.9214 5.75561 42.6513 6.06614 42.4658 6.42693C42.2803 6.78772 42.1848 7.18805 42.1875 7.59375V8.58938C41.8063 8.4505 41.3972 8.40593 40.995 8.45947C40.5928 8.51301 40.2096 8.66307 39.878 8.89684C39.5464 9.13061 39.2763 9.44114 39.0908 9.80193C38.9053 10.1627 38.8098 10.5631 38.8125 10.9688V27.4556L36.8466 30.8559C36.4766 31.4974 36.2816 32.2248 36.2812 32.9653V44.0269C35.7896 44.202 35.3638 44.5244 35.0618 44.9501C34.7599 45.3759 34.5964 45.8843 34.5938 46.4062V47.7812C34.5958 48.452 34.8631 49.0946 35.3373 49.5689C35.8116 50.0432 36.4543 50.3105 37.125 50.3125H47.25C47.9207 50.3105 48.5634 50.0432 49.0377 49.5689C49.5119 49.0946 49.7792 48.452 49.7812 47.7812V46.4062C49.7786 45.8843 49.6151 45.3759 49.3132 44.9501C49.0112 44.5244 48.5854 44.202 48.0938 44.0269V40.7616C48.0958 40.1586 48.311 39.5759 48.7013 39.1162L51.3 36.0872C51.9524 35.3223 52.3113 34.3503 52.3125 33.345V5.0625C52.3125 4.16739 51.9569 3.30895 51.324 2.67601C50.691 2.04308 49.8326 1.6875 48.9375 1.6875ZM43.875 7.59375C43.875 7.36997 43.9639 7.15536 44.1221 6.99713C44.2804 6.8389 44.495 6.75 44.7188 6.75C44.9425 6.75 45.1571 6.8389 45.3154 6.99713C45.4736 7.15536 45.5625 7.36997 45.5625 7.59375V20.5538C45.0238 20.4244 44.4615 20.4302 43.9256 20.5706C43.9088 20.5706 43.8919 20.5875 43.875 20.5875V7.59375ZM40.5 10.9688C40.5 10.745 40.5889 10.5304 40.7471 10.3721C40.9054 10.2139 41.12 10.125 41.3438 10.125C41.5675 10.125 41.7821 10.2139 41.9404 10.3721C42.0986 10.5304 42.1875 10.745 42.1875 10.9688V21.7097C42.074 21.846 41.9697 21.9898 41.8753 22.14L40.5 24.5278V10.9688ZM48.0938 47.7812C48.0938 48.005 48.0049 48.2196 47.8466 48.3779C47.6884 48.5361 47.4738 48.625 47.25 48.625H37.125C36.9012 48.625 36.6866 48.5361 36.5284 48.3779C36.3701 48.2196 36.2812 48.005 36.2812 47.7812V46.4062C36.2812 46.1825 36.3701 45.9679 36.5284 45.8096C36.6866 45.6514 36.9012 45.5625 37.125 45.5625H47.25C47.4738 45.5625 47.6884 45.6514 47.8466 45.8096C48.0049 45.9679 48.0938 46.1825 48.0938 46.4062V47.7812ZM50.625 33.345C50.6244 33.9482 50.409 34.5315 50.0175 34.9903L47.4188 38.0194C46.7676 38.785 46.4089 39.7565 46.4062 40.7616V43.875H37.9688V32.9653C37.9707 32.5215 38.0869 32.0856 38.3063 31.6997L43.3434 22.9837C43.5675 22.5969 43.9359 22.3148 44.3678 22.1993C44.7996 22.0838 45.2596 22.1444 45.6469 22.3678C46.0327 22.5928 46.3139 22.9612 46.4293 23.3927C46.5447 23.8241 46.4848 24.2837 46.2628 24.6712L40.7784 34.1719L42.2381 35.0156L47.7225 25.515C48.081 24.8882 48.2286 24.1628 48.1436 23.4458C48.0585 22.7287 47.7452 22.058 47.25 21.5325V5.0625C47.25 4.61495 47.4278 4.18572 47.7443 3.86926C48.0607 3.55279 48.4899 3.375 48.9375 3.375C49.3851 3.375 49.8143 3.55279 50.1307 3.86926C50.4472 4.18572 50.625 4.61495 50.625 5.0625V33.345Z" fill="#028BFC"/>
<path d="M17.7188 44.0271V32.9656C17.7184 32.225 17.5234 31.4976 17.1534 30.8562L15.1875 27.4559V10.969C15.1902 10.5633 15.0947 10.163 14.9092 9.80218C14.7237 9.44138 14.4536 9.13085 14.122 8.89708C13.7904 8.66331 13.4072 8.51325 13.005 8.45971C12.6028 8.40617 12.1937 8.45074 11.8125 8.58962V7.59399C11.8152 7.1883 11.7197 6.78797 11.5342 6.42718C11.3486 6.06638 11.0786 5.75585 10.747 5.52208C10.4154 5.28831 10.0322 5.13825 9.63 5.08471C9.22784 5.03117 8.8187 5.07574 8.4375 5.21462V5.06274C8.4375 4.16764 8.08192 3.30919 7.44899 2.67626C6.81605 2.04332 5.95761 1.68774 5.0625 1.68774C4.16739 1.68774 3.30895 2.04332 2.67601 2.67626C2.04308 3.30919 1.6875 4.16764 1.6875 5.06274V33.3452C1.68868 34.3505 2.04759 35.3226 2.7 36.0874L5.29875 39.1165C5.68899 39.5761 5.90417 40.1589 5.90625 40.7618V44.0271C5.41456 44.2023 4.98877 44.5246 4.68682 44.9504C4.38488 45.3761 4.22144 45.8846 4.21875 46.4065V47.7815C4.22075 48.4522 4.48808 49.0949 4.96235 49.5691C5.43662 50.0434 6.07929 50.3107 6.75 50.3127H16.875C17.5457 50.3107 18.1884 50.0434 18.6627 49.5691C19.1369 49.0949 19.4042 48.4522 19.4062 47.7815V46.4065C19.4036 45.8846 19.2401 45.3761 18.9382 44.9504C18.6362 44.5246 18.2104 44.2023 17.7188 44.0271ZM11.8125 10.969C11.8125 10.7452 11.9014 10.5306 12.0596 10.3724C12.2179 10.2141 12.4325 10.1252 12.6562 10.1252C12.88 10.1252 13.0946 10.2141 13.2529 10.3724C13.4111 10.5306 13.5 10.7452 13.5 10.969V24.5281L12.1247 22.1402C12.0303 21.99 11.926 21.8463 11.8125 21.7099V10.969ZM8.4375 7.59399C8.4375 7.37022 8.5264 7.15561 8.68463 6.99737C8.84286 6.83914 9.05747 6.75024 9.28125 6.75024C9.50503 6.75024 9.71964 6.83914 9.87787 6.99737C10.0361 7.15561 10.125 7.37022 10.125 7.59399V20.5877C10.1081 20.5877 10.0912 20.5709 10.0744 20.5709C9.53905 20.4262 8.97569 20.4204 8.4375 20.554V7.59399ZM3.9825 34.9906C3.59098 34.5317 3.37562 33.9484 3.375 33.3452V5.06274C3.375 4.61519 3.55279 4.18597 3.86926 3.8695C4.18572 3.55303 4.61495 3.37524 5.0625 3.37524C5.51005 3.37524 5.93927 3.55303 6.25574 3.8695C6.57221 4.18597 6.75 4.61519 6.75 5.06274V21.5327C6.25477 22.0582 5.94151 22.729 5.85644 23.446C5.77137 24.1631 5.91898 24.8885 6.2775 25.5152L11.7619 35.0159L13.2216 34.1721L7.73719 24.6715C7.51517 24.284 7.45533 23.8244 7.57071 23.3929C7.68608 22.9614 7.96732 22.5931 8.35312 22.3681C8.74035 22.1447 9.20039 22.0841 9.63225 22.1996C10.0641 22.315 10.4325 22.5972 10.6566 22.984L15.6938 31.6999C15.9131 32.0858 16.0293 32.5217 16.0312 32.9656V43.8752H7.59375V40.7618C7.5911 39.7568 7.23237 38.7852 6.58125 38.0196L3.9825 34.9906ZM17.7188 47.7815C17.7188 48.0053 17.6299 48.2199 17.4716 48.3781C17.3134 48.5364 17.0988 48.6252 16.875 48.6252H6.75C6.52622 48.6252 6.31161 48.5364 6.15338 48.3781C5.99515 48.2199 5.90625 48.0053 5.90625 47.7815V46.4065C5.90625 46.1827 5.99515 45.9681 6.15338 45.8099C6.31161 45.6516 6.52622 45.5627 6.75 45.5627H16.875C17.0988 45.5627 17.3134 45.6516 17.4716 45.8099C17.6299 45.9681 17.7188 46.1827 17.7188 46.4065V47.7815Z" fill="#028BFC"/>
<path d="M36.5681 5.11314L27.2869 1.73814C27.1016 1.67062 26.8984 1.67062 26.7131 1.73814L17.4319 5.11314C17.2683 5.17125 17.1268 5.27881 17.027 5.42092C16.9272 5.56302 16.8741 5.73264 16.875 5.90627V13.2385C16.876 14.7663 17.1954 16.2772 17.8128 17.6747C18.4302 19.0722 19.3321 20.3258 20.4609 21.3553L26.4347 26.7807C26.5891 26.9218 26.7908 27.0001 27 27.0001C27.2092 27.0001 27.4109 26.9218 27.5653 26.7807L33.5391 21.3553C34.6679 20.3258 35.5698 19.0722 36.1872 17.6747C36.8046 16.2772 37.124 14.7663 37.125 13.2385V5.90627C37.1259 5.73264 37.0728 5.56302 36.973 5.42092C36.8733 5.27881 36.7318 5.17125 36.5681 5.11314ZM35.4375 13.2385C35.4366 14.5315 35.166 15.8102 34.643 16.9928C34.12 18.1754 33.3561 19.2359 32.4 20.1066L27 25.0172L21.6 20.1066C20.644 19.2359 19.88 18.1754 19.357 16.9928C18.834 15.8102 18.5634 14.5315 18.5625 13.2385V6.4969L27 3.42564L35.4375 6.4969V13.2385Z" fill="#13ACAC"/>
<path d="M23.3781 12.9036L22.1851 14.0966L25.5601 17.4716C25.7183 17.6298 25.9329 17.7187 26.1566 17.7187C26.3803 17.7187 26.5949 17.6298 26.7531 17.4716L32.6594 11.5654L31.4663 10.3723L26.1566 15.682L23.3781 12.9036Z" fill="#13ACAC"/>
</svg>
