<svg width="54" height="54" viewBox="0 0 54 54" fill="none" xmlns="http://www.w3.org/2000/svg">
<path fill-rule="evenodd" clip-rule="evenodd" d="M51.3 54H40.5C39.0087 54 37.8 52.7913 37.8 51.3V45.9C37.8027 43.416 39.816 41.4027 42.3 41.4H42.5124L42.7023 41.49C44.7165 42.4926 47.0835 42.4926 49.0977 41.49L49.2876 41.4H49.5C51.984 41.4027 53.9973 43.416 54 45.9V51.3C54 52.7913 52.7913 54 51.3 54ZM52.2 45.9C52.2 44.4834 51.1047 43.308 49.6917 43.2072C47.2869 44.3232 44.5131 44.3232 42.1083 43.2072C40.6953 43.308 39.6 44.4834 39.6 45.9V51.3C39.6 51.7968 40.0032 52.2 40.5 52.2H51.3C51.7968 52.2 52.2 51.7968 52.2 51.3V45.9ZM45.9 40.5C42.9174 40.5 40.5 38.0826 40.5 35.1C40.5 32.1174 42.9174 29.7 45.9 29.7C48.8808 29.7027 51.2973 32.1192 51.3 35.1C51.3 38.0826 48.8826 40.5 45.9 40.5ZM45.9 31.5C43.9119 31.5 42.3 33.1119 42.3 35.1C42.3 37.0881 43.9119 38.7 45.9 38.7C47.8881 38.7 49.5 37.0881 49.5 35.1C49.5 33.1119 47.8881 31.5 45.9 31.5ZM32.4 24.3H21.6C20.1087 24.3 18.9 23.0913 18.9 21.6V16.2C18.9027 13.716 20.916 11.7027 23.4 11.7H23.6124L23.8023 11.7945C25.8165 12.7971 28.1835 12.7971 30.1977 11.7945L30.3876 11.7H30.6C33.084 11.7027 35.0973 13.716 35.1 16.2V21.6C35.1 23.0913 33.8913 24.3 32.4 24.3ZM33.3 16.2C33.3 14.7834 32.2047 13.608 30.7917 13.5072C28.3869 14.6232 25.6131 14.6232 23.2083 13.5072C21.7953 13.608 20.7 14.7834 20.7 16.2V21.6C20.7 22.0968 21.1032 22.5 21.6 22.5H32.4C32.8968 22.5 33.3 22.0968 33.3 21.6V16.2ZM27 10.8C24.0174 10.8 21.6 8.3826 21.6 5.4C21.6 2.4174 24.0174 0 27 0C29.9826 0 32.4 2.4174 32.4 5.4C32.3973 8.3808 29.9808 10.7973 27 10.8ZM27 1.8C25.0119 1.8 23.4 3.4119 23.4 5.4C23.4 7.3881 25.0119 9 27 9C28.9881 9 30.6 7.3881 30.6 5.4C30.6 3.4119 28.9881 1.8 27 1.8ZM13.5 54H2.7C1.2087 54 0 52.7913 0 51.3V45.9C0.0027 43.416 2.016 41.4027 4.5 41.4H4.7124L4.9023 41.49C6.9165 42.4926 9.2835 42.4926 11.2977 41.49L11.4876 41.4H11.7C14.184 41.4027 16.1973 43.416 16.2 45.9V51.3C16.2 52.7913 14.9913 54 13.5 54ZM14.4 45.9C14.4 44.4834 13.3047 43.308 11.8917 43.2072C9.4869 44.3232 6.7131 44.3232 4.3083 43.2072C2.8953 43.308 1.8 44.4834 1.8 45.9V51.3C1.8 51.7968 2.2032 52.2 2.7 52.2H13.5C13.9968 52.2 14.4 51.7968 14.4 51.3V45.9ZM8.1 40.5C5.1174 40.5 2.7 38.0826 2.7 35.1C2.7 32.1174 5.1174 29.7 8.1 29.7C11.0808 29.7027 13.4973 32.1192 13.5 35.1C13.5 38.0826 11.0826 40.5 8.1 40.5ZM8.1 31.5C6.1119 31.5 4.5 33.1119 4.5 35.1C4.5 37.0881 6.1119 38.7 8.1 38.7C10.0881 38.7 11.7 37.0881 11.7 35.1C11.7 33.1119 10.0881 31.5 8.1 31.5Z" fill="#00C9C9"/>
<path fill-rule="evenodd" clip-rule="evenodd" d="M51.038 24.9361L48.338 27.6361C48.3371 27.6361 48.3371 27.637 48.3362 27.6379C47.9843 27.9889 47.4146 27.988 47.0636 27.6361L44.3636 24.9361C44.027 24.5869 44.027 24.0343 44.3636 23.686C44.7092 23.3278 45.2789 23.3179 45.6362 23.6635L46.6514 24.6787C45.8288 17.6236 41.2847 11.5513 34.7471 8.77301C34.2899 8.57861 34.0775 8.04941 34.2719 7.59221C34.4672 7.13501 34.9955 6.92261 35.4527 7.11701C42.74 10.213 47.7449 17.0539 48.4901 24.937L49.7636 23.6635C50.1155 23.3125 50.6843 23.3125 51.0362 23.6635C51.3881 24.0145 51.389 24.5842 51.038 24.9361ZM34.7471 45.2275C35.2043 45.0331 35.7326 45.2455 35.9279 45.7027C35.9288 45.7036 35.9288 45.7045 35.9288 45.7054C36.1232 46.1635 35.909 46.6918 35.4509 46.8853C30.7988 48.8563 25.6031 49.1389 20.7638 47.6845L21.4964 49.0849C21.7268 49.5259 21.5558 50.0695 21.1148 50.2999C20.6738 50.5303 20.1302 50.3593 19.8998 49.9183L18.0998 46.474C18.0899 46.4614 18.0953 46.447 18.0899 46.4344C18.0521 46.3165 18.0215 46.1959 17.9999 46.0744C17.9963 45.9466 18.0197 45.8206 18.0683 45.7027C18.1187 45.5857 18.1943 45.4813 18.2888 45.3967C18.3176 45.376 18.3473 45.3571 18.3788 45.34C18.4499 45.286 18.5273 45.2419 18.611 45.2113C18.6236 45.2068 18.6335 45.1915 18.647 45.1915L22.247 44.1358C22.724 43.9963 23.2244 44.2699 23.3639 44.7469C23.5034 45.2239 23.2298 45.7243 22.7528 45.8638L21.9104 46.1113C26.1701 47.2417 30.6836 46.9303 34.7471 45.2275ZM19.7171 8.30591C19.7099 8.31491 19.7099 8.32481 19.7099 8.33381L17.9099 12.0895C17.7605 12.4009 17.4455 12.5989 17.0999 12.5998C16.9649 12.5998 16.8317 12.5692 16.7102 12.5098C16.2638 12.2938 16.0757 11.7574 16.2899 11.3101L16.9406 9.95021C10.9016 13.5052 7.19541 19.9915 7.19991 26.9998C7.19991 27.4966 6.79671 27.8998 6.29991 27.8998C5.80311 27.8998 5.39991 27.4966 5.39991 26.9998C5.39451 19.0411 9.77301 11.7268 16.7903 7.97111L14.9264 7.11881C14.507 6.90731 14.3207 6.40781 14.4989 5.97311C14.6879 5.51321 15.2135 5.29361 15.6734 5.48261L19.2734 7.12691C19.3085 7.14851 19.3427 7.17281 19.3742 7.19981C19.4372 7.23221 19.4966 7.27271 19.5497 7.31951C19.5884 7.36541 19.6235 7.41491 19.6523 7.46801C19.6838 7.50671 19.7126 7.54811 19.7369 7.59221C19.7369 7.59941 19.7333 7.60571 19.7369 7.61471C19.7405 7.62371 19.7504 7.62911 19.7504 7.63721C19.763 7.68851 19.7711 7.74071 19.7738 7.79291C19.7882 7.84961 19.7972 7.90811 19.7999 7.96661C19.7927 8.01701 19.781 8.06651 19.7657 8.11511C19.7567 8.17991 19.7405 8.24471 19.7171 8.30591Z" fill="#028BFC"/>
</svg>
