<svg width="54" height="54" viewBox="0 0 54 54" fill="none" xmlns="http://www.w3.org/2000/svg">
<path d="M50.7795 48.0516L48.0947 45.3668C47.9554 45.2323 47.769 45.1578 47.5754 45.1594C47.3818 45.1611 47.1966 45.2387 47.0597 45.3755C46.9228 45.5124 46.8451 45.6976 46.8434 45.8911C46.8417 46.0847 46.9161 46.2712 47.0505 46.4105L48.4752 47.8352H5.16508V4.52463L6.58933 5.94845C6.72779 6.08692 6.91559 6.1647 7.1114 6.1647C7.30722 6.1647 7.49501 6.08692 7.63347 5.94845C7.77193 5.80999 7.84972 5.6222 7.84972 5.42638C7.84972 5.23057 7.77193 5.04278 7.63347 4.90431L4.94824 2.22035C4.87971 2.15173 4.79833 2.0973 4.70875 2.06016C4.61917 2.02302 4.52314 2.00391 4.42617 2.00391C4.32919 2.00391 4.23317 2.02302 4.14359 2.06016C4.05401 2.0973 3.97263 2.15173 3.9041 2.22035L1.22013 4.90474C1.08774 5.04436 1.01509 5.23014 1.01764 5.42253C1.0202 5.61492 1.09776 5.79872 1.23382 5.93477C1.36987 6.07082 1.55366 6.14838 1.74605 6.15094C1.93844 6.1535 2.12423 6.08084 2.26385 5.94845L3.68852 4.5242V48.573C3.68846 48.67 3.70752 48.766 3.74461 48.8556C3.78169 48.9452 3.83607 49.0266 3.90463 49.0952C3.9732 49.1638 4.05461 49.2181 4.14421 49.2552C4.2338 49.2923 4.32983 49.3114 4.4268 49.3113H48.4752L47.0505 50.736C46.98 50.8041 46.9238 50.8856 46.8851 50.9756C46.8464 51.0657 46.8261 51.1626 46.8253 51.2606C46.8244 51.3587 46.8431 51.4559 46.8803 51.5466C46.9174 51.6373 46.9722 51.7197 47.0416 51.7891C47.1109 51.8584 47.1934 51.9132 47.2841 51.9503C47.3748 51.9874 47.4721 52.006 47.5701 52.0052C47.6681 52.0043 47.765 51.9839 47.855 51.9452C47.9451 51.9065 48.0266 51.8502 48.0947 51.7797L50.7795 49.0953C50.8481 49.0268 50.9025 48.9454 50.9397 48.8558C50.9768 48.7662 50.9959 48.6702 50.9959 48.5732C50.9959 48.4762 50.9768 48.3802 50.9397 48.2906C50.9025 48.2011 50.8481 48.1197 50.7795 48.0512V48.0516Z" fill="#028BFC"/>
<path d="M9.20534 33.2223C9.24932 33.2222 9.29321 33.2184 9.33655 33.2109C17.2032 31.7997 37.3377 19.6329 44.9846 6.78719L45.4279 8.64555C45.4664 8.80688 45.5581 8.95055 45.6882 9.05342C45.8183 9.15628 45.9793 9.21233 46.1451 9.21255C46.2565 9.21232 46.3665 9.1869 46.4667 9.13818C46.5669 9.08947 46.6547 9.01872 46.7237 8.93123C46.7927 8.84374 46.841 8.74178 46.865 8.63299C46.889 8.52419 46.8881 8.41137 46.8623 8.30298L45.9814 4.60989C45.9591 4.51548 45.9183 4.4264 45.8615 4.34774C45.8047 4.26908 45.733 4.20238 45.6504 4.15145C45.5678 4.10052 45.476 4.06636 45.3802 4.05092C45.2844 4.03548 45.1865 4.03906 45.0921 4.06145L41.3986 4.94233C41.2081 4.98775 41.0435 5.10699 40.9409 5.27381C40.8383 5.44063 40.8062 5.64136 40.8517 5.83185C40.8971 6.02234 41.0163 6.18698 41.1831 6.28956C41.35 6.39213 41.5507 6.42424 41.7412 6.37881L43.7957 5.88859C36.3049 18.6554 15.9397 30.5261 9.0754 31.7559C8.89368 31.7882 8.73065 31.8874 8.61843 32.0339C8.50622 32.1804 8.45296 32.3637 8.46916 32.5476C8.48536 32.7314 8.56984 32.9025 8.70595 33.0272C8.84206 33.1518 9.01993 33.221 9.2045 33.221L9.20534 33.2223Z" fill="#028BFC"/>
<path d="M13.4844 35.5432C13.2886 35.5432 13.1008 35.621 12.9623 35.7595C12.8239 35.8979 12.7461 36.0857 12.7461 36.2815V44.2216C12.7461 44.4174 12.8239 44.6052 12.9623 44.7436C13.1008 44.8821 13.2886 44.9599 13.4844 44.9599H17.2812C17.4771 44.9599 17.6648 44.8821 17.8033 44.7436C17.9417 44.6052 18.0195 44.4174 18.0195 44.2216V36.2815C18.0195 36.0857 17.9417 35.8979 17.8033 35.7595C17.6648 35.621 17.4771 35.5432 17.2812 35.5432H13.4844ZM16.543 43.4833H14.2227V37.0198H16.543V43.4833Z" fill="#00C9C9"/>
<path d="M22.2412 30.4807C22.0454 30.4807 21.8576 30.5585 21.7192 30.697C21.5807 30.8354 21.5029 31.0232 21.5029 31.219V44.2216C21.5029 44.4174 21.5807 44.6052 21.7192 44.7436C21.8576 44.8821 22.0454 44.9599 22.2412 44.9599H26.0381C26.2339 44.9599 26.4217 44.8821 26.5601 44.7436C26.6986 44.6052 26.7764 44.4174 26.7764 44.2216V31.219C26.7764 31.0232 26.6986 30.8354 26.5601 30.697C26.4217 30.5585 26.2339 30.4807 26.0381 30.4807H22.2412ZM25.2998 43.4833H22.9795V31.9573H25.2998V43.4833Z" fill="#00C9C9"/>
<path d="M30.9986 25.4182C30.8029 25.4183 30.6152 25.4962 30.4768 25.6346C30.3385 25.773 30.2607 25.9608 30.2607 26.1565V44.2216C30.2607 44.4174 30.3385 44.6052 30.477 44.7436C30.6154 44.8821 30.8032 44.9599 30.999 44.9599H34.7959C34.9917 44.9598 35.1794 44.882 35.3178 44.7435C35.4563 44.6051 35.5341 44.4174 35.5342 44.2216V26.1565C35.5341 25.9607 35.4563 25.773 35.3178 25.6346C35.1794 25.4961 34.9917 25.4183 34.7959 25.4182H30.9986ZM34.0572 43.4833H31.7373V26.8948H34.0576L34.0572 43.4833Z" fill="#00C9C9"/>
<path d="M39.7549 20.3557C39.5591 20.3558 39.3714 20.4336 39.233 20.5721C39.0945 20.7105 39.0167 20.8982 39.0166 21.094V44.2216C39.0167 44.4174 39.0945 44.6051 39.233 44.7435C39.3714 44.882 39.5591 44.9598 39.7549 44.9599H43.5518C43.7476 44.9599 43.9353 44.8821 44.0738 44.7436C44.2123 44.6052 44.29 44.4174 44.29 44.2216V21.094C44.29 20.8982 44.2123 20.7104 44.0738 20.5719C43.9353 20.4335 43.7476 20.3557 43.5518 20.3557H39.7549ZM42.8135 43.4833H40.4932V21.8323H42.8135V43.4833Z" fill="#00C9C9"/>
</svg>
