<svg width="54" height="54" viewBox="0 0 54 54" fill="none" xmlns="http://www.w3.org/2000/svg">
<path d="M45.3797 11.3134C45.3025 11.3098 45.2252 11.3098 45.1479 11.3134C44.4495 11.3454 43.8575 10.8051 43.8254 10.1068C43.7934 9.40845 44.3336 8.81633 45.0319 8.78424C45.0706 8.78247 45.1093 8.78247 45.1479 8.78424C45.7001 8.77738 46.1988 9.113 46.4005 9.627C46.534 9.96184 46.9078 10.1317 47.2477 10.0121C47.5776 9.91028 47.7624 9.56038 47.6606 9.23052C47.658 9.22211 47.6553 9.21381 47.6523 9.20562C47.2493 8.17752 46.2521 7.50606 45.1479 7.51923C43.7173 7.48702 42.5298 8.61782 42.4922 10.0484C42.5294 11.4792 43.717 12.6102 45.1479 12.5775C45.8464 12.5455 46.4385 13.0858 46.4705 13.7841C46.5024 14.4825 45.9622 15.0746 45.2639 15.1067C45.2253 15.1084 45.1865 15.1084 45.1479 15.1067C44.5957 15.1135 44.097 14.7779 43.8953 14.2639C43.7623 13.9287 43.3882 13.7588 43.0481 13.8788C42.7183 13.9806 42.5335 14.3305 42.6353 14.6604C42.6378 14.6688 42.6406 14.6771 42.6436 14.6853C43.0466 15.7134 44.0437 16.3849 45.1479 16.3717C46.5447 16.4358 47.729 15.3553 47.793 13.9585C47.857 12.5617 46.7765 11.3773 45.3797 11.3134Z" fill="#028BFC"/>
<path d="M44.582 16.4766V7.52344C44.582 7.23435 44.8164 7 45.1055 7C45.3946 7 45.6289 7.23435 45.6289 7.52344V16.4766C45.6289 16.7656 45.3946 17 45.1055 17C44.8164 17 44.582 16.7656 44.582 16.4766Z" fill="#028BFC"/>
<path fill-rule="evenodd" clip-rule="evenodd" d="M53.1148 27.8797H51.3443V25.224H52.2295C52.7184 25.224 53.1148 24.8276 53.1148 24.3388V19.9125C53.1148 19.4237 52.7184 19.0273 52.2295 19.0273H50.436C52.676 17.3621 53.9974 14.7364 54 11.9453C54.0096 7.05621 50.0538 3.08522 45.1648 3.0757C40.2757 3.06618 36.3046 7.02191 36.2951 11.9109C36.2897 14.7135 37.6116 17.3531 39.8591 19.0273H38.0656C37.5767 19.0273 37.1804 19.4237 37.1804 19.9125V23.4535H36.2951C35.8063 23.4535 35.4099 23.8499 35.4099 24.3388V28.765C35.4099 29.2539 35.8063 29.6502 36.2951 29.6502H38.0656V33.1912C38.0656 33.6801 38.462 34.0765 38.9509 34.0765H40.801C41.0312 35.4275 41.7747 36.6371 42.876 37.4528L12.5351 42.9696L9.24469 43.5681L7.91416 43.8142C6.84974 43.9257 6.93422 45.6693 7.96728 45.5847C9.00033 45.5 9.16225 45.4798 9.72714 45.2784L25.9271 42.334L21.3274 52.2957C21.1226 52.7397 21.3163 53.2656 21.7603 53.4704C21.8766 53.5241 22.0032 53.5519 22.1312 53.5519H32.7542C33.243 53.5519 33.6394 53.1555 33.6394 52.6666C33.6394 52.5386 33.6116 52.412 33.558 52.2957L28.7254 41.8241L47.0765 38.4876C47.2181 38.4592 47.3502 38.3956 47.4607 38.3026C49.438 37.746 50.9185 36.1012 51.2646 34.0765H53.1148C53.6037 34.0765 54 33.6801 54 33.1912V28.765C54 28.2761 53.6037 27.8797 53.1148 27.8797ZM23.514 51.7814H31.3705L27.4427 43.2715L23.514 51.7814ZM45.1476 4.86334C41.2364 4.86334 38.0656 8.03407 38.0656 11.9453C38.0656 15.8565 41.2364 19.0273 45.1476 19.0273C49.0571 19.0229 52.2251 15.8548 52.2295 11.9453C52.2295 8.03407 49.0588 4.86334 45.1476 4.86334ZM40.7214 20.7978H38.9509V23.4535H51.3443V20.7978H49.5738V21.683H47.8033V20.7978H46.0328V21.683H44.2623V20.7978H42.4919V21.683H40.7214V20.7978ZM37.1804 25.224V27.8797H49.5738V25.224H47.8033V26.1092H46.0328V25.224H44.2623V26.1092H42.4919V25.224H40.7214V26.1092H38.9509V25.224H37.1804ZM42.6043 34.0765C43.0093 35.6389 44.4187 36.7306 46.0328 36.7322C47.647 36.7306 49.0564 35.6389 49.4614 34.0765H42.6043ZM39.8361 32.306H52.2295V29.6502H50.4591V30.5355H48.6886V29.6502H46.9181V30.5355H45.1476V29.6502H43.3771V30.5355H41.6066V29.6502H39.8361V32.306Z" fill="#028BFC"/>
<g clip-path="url(#clip0)">
<path d="M29.9925 23.9762C29.9386 23.2738 29.6143 22.6347 29.0796 22.1765L26.4847 19.9522V13.6319C26.4847 13.1465 26.0912 12.753 25.6059 12.753H22.0903C21.605 12.753 21.2232 13.1466 21.2232 13.6319V15.4324L16.7753 11.6416C15.781 10.7897 14.3376 10.7899 13.3464 11.6391L0.92202 22.1763C-0.176791 23.1178 -0.31935 24.7793 0.636902 25.8955C1.36575 26.743 2.53323 27.0133 3.52851 26.6635V40.1157C3.52851 40.6011 3.91031 40.9945 4.39564 40.9945H25.6058C26.0912 40.9945 26.4846 40.601 26.4846 40.1157V26.6636C27.512 27.0269 28.6549 26.7225 29.3655 25.8943C29.8237 25.3595 30.0465 24.6782 29.9925 23.9762ZM22.9692 14.5107H24.7387V18.4456L22.9692 16.9389V14.5107ZM18.5865 39.2368H11.4267V32.1941H18.5865V39.2368ZM24.7387 39.2368H20.3326V31.3269C20.3326 30.8416 19.9391 30.4481 19.4537 30.4481H10.5478C10.0624 30.4481 9.68063 30.8416 9.68063 31.3269V39.2368H5.27455V25.3994L15.0564 17.1017L24.7387 25.3912V39.2368H24.7387ZM28.0311 24.7501C27.7195 25.1132 27.1656 25.1665 26.7914 24.8456L15.6312 15.2794C15.3034 14.9983 14.82 14.9971 14.4908 15.2764C14.2529 15.4781 3.2571 24.8057 3.21058 24.8452C2.84249 25.1601 2.28585 25.1172 1.97067 24.7505C1.65515 24.3823 1.6978 23.8263 2.06261 23.5136L14.4871 12.9763C14.8187 12.6923 15.3 12.6922 15.6314 12.9762L27.9358 23.5111C28.3036 23.8263 28.3462 24.3824 28.0311 24.7501Z" fill="#13ACAC"/>
<path d="M17.6955 21.5432H12.3051C11.8197 21.5432 11.438 21.9367 11.438 22.4221V27.6953C11.438 28.1806 11.8198 28.5741 12.3051 28.5741H17.6955C18.1809 28.5741 18.5744 28.1806 18.5744 27.6953V22.4221C18.5744 21.9367 18.1809 21.5432 17.6955 21.5432ZM16.8284 26.8165H13.184V23.301H16.8284V26.8165Z" fill="#13ACAC"/>
<path d="M15.9374 35.7225C16.4228 35.7225 16.8163 35.3291 16.8163 34.8437C16.8163 34.3583 16.4228 33.9648 15.9374 33.9648C15.4521 33.9648 15.0586 34.3583 15.0586 34.8437C15.0586 35.3291 15.4521 35.7225 15.9374 35.7225Z" fill="#13ACAC"/>
</g>
<defs>
<clipPath id="clip0">
<rect width="30" height="30" fill="white" transform="translate(0 11)"/>
</clipPath>
</defs>
</svg>
