<svg width="54" height="54" viewBox="0 0 54 54" fill="none" xmlns="http://www.w3.org/2000/svg">
<path d="M51.3871 17.4194H50.5161V6.96774H8.70968V0H4.35484C1.95372 0 0 1.95372 0 4.35484V37.4516C0 39.8527 1.95372 41.8064 4.35484 41.8064H27.871V51.3871C27.871 52.8275 29.0435 54 30.4839 54H51.3871C52.8275 54 54 52.8275 54 51.3871V20.0323C54 18.5918 52.8275 17.4194 51.3871 17.4194ZM1.74194 4.35484C1.74194 2.91442 2.91442 1.74194 4.35484 1.74194H6.96774V33.0968H4.35484C3.375 33.0968 2.47001 33.4225 1.74194 33.9694V4.35484ZM4.35484 40.0645C2.91442 40.0645 1.74194 38.892 1.74194 37.4516C1.74194 36.0112 2.91442 34.8387 4.35484 34.8387H8.70968V8.70968H48.7742V17.4194H30.7539C29.2914 13.2848 25.3401 10.4516 20.9032 10.4516C15.1399 10.4516 10.4516 15.1399 10.4516 20.9032C10.4516 26.6666 15.1399 31.3548 20.9032 31.3548C23.4987 31.3548 25.9721 30.3801 27.871 28.682V40.0645H4.35484ZM27.871 20.0323H21.7742V12.2425C25.0569 12.5742 27.9016 14.7541 29.0609 17.8463C28.3456 18.3129 27.871 19.1171 27.871 20.0323ZM20.0323 29.5687C15.6374 29.1302 12.1935 25.4112 12.1935 20.9032C12.1935 16.3953 15.6374 12.6762 20.0323 12.2378V29.5687ZM21.7742 21.7742H27.871V26.1099C26.4042 28.0687 24.1885 29.3161 21.7742 29.5597V21.7742ZM52.2581 51.3871C52.2581 51.8668 51.8668 52.2581 51.3871 52.2581H30.4839C30.0042 52.2581 29.6129 51.8668 29.6129 51.3871V20.0323C29.6129 19.5525 30.0042 19.1613 30.4839 19.1613H51.3871C51.8668 19.1613 52.2581 19.5525 52.2581 20.0323V51.3871Z" fill="#028BFC"/>
<path d="M31.355 29.6125H50.5163V20.9029H31.355V29.6125ZM33.0969 22.6448H48.7743V27.8706H33.0969V22.6448Z" fill="#00C9C9"/>
<path d="M45.2905 50.5158H50.5163V45.29H45.2905V50.5158ZM47.0325 47.0319H48.7744V48.7739H47.0325V47.0319Z" fill="#00C9C9"/>
<path d="M38.3228 50.5158H43.5486V45.29H38.3228V50.5158ZM40.0647 47.0319H41.8066V48.7739H40.0647V47.0319Z" fill="#00C9C9"/>
<path d="M31.355 50.5158H36.5808V45.29H31.355V50.5158ZM33.0969 47.0319H34.8389V48.7739H33.0969V47.0319Z" fill="#00C9C9"/>
<path d="M45.2905 43.5487H50.5163V38.3229H45.2905V43.5487ZM47.0325 40.0649H48.7744V41.8068H47.0325V40.0649Z" fill="#00C9C9"/>
<path d="M38.3228 43.5487H43.5486V38.3229H38.3228V43.5487ZM40.0647 40.0649H41.8066V41.8068H40.0647V40.0649Z" fill="#00C9C9"/>
<path d="M31.355 43.5487H36.5808V38.3229H31.355V43.5487ZM33.0969 40.0649H34.8389V41.8068H33.0969V40.0649Z" fill="#00C9C9"/>
<path d="M45.2905 36.5805H50.5163V31.3547H45.2905V36.5805ZM47.0325 33.0966H48.7744V34.8385H47.0325V33.0966Z" fill="#00C9C9"/>
<path d="M38.3228 36.5805H43.5486V31.3547H38.3228V36.5805ZM40.0647 33.0966H41.8066V34.8385H40.0647V33.0966Z" fill="#00C9C9"/>
<path d="M31.355 36.5805H36.5808V31.3547H31.355V36.5805ZM33.0969 33.0966H34.8389V34.8385H33.0969V33.0966Z" fill="#00C9C9"/>
<path d="M34.8386 10.4516H47.0322V12.1935H34.8386V10.4516Z" fill="#00C9C9"/>
<path d="M33.0969 13.9359H47.0324V15.6778H33.0969V13.9359Z" fill="#00C9C9"/>
</svg>
