<svg width="54" height="54" viewBox="0 0 54 54" fill="none" xmlns="http://www.w3.org/2000/svg">
<path d="M1.755 36.7941C1.78453 37.1654 2.05369 37.4733 2.41819 37.5518L5.35866 38.1863C5.46244 38.6875 5.59406 39.1819 5.75353 39.6645L3.52772 41.6811C3.25181 41.9309 3.1725 42.3325 3.33281 42.6691C3.7395 43.5247 4.19259 44.3153 4.67944 45.019C4.89037 45.3244 5.27681 45.456 5.63203 45.3421L8.48981 44.4216C8.83153 44.8047 9.19519 45.1683 9.57825 45.51L8.65772 48.3678C8.54381 48.7214 8.67459 49.1086 8.98088 49.3204C9.68456 49.8073 10.4752 50.2604 11.3307 50.667C11.6682 50.8274 12.069 50.7472 12.3188 50.4721L14.3353 48.2463C14.8188 48.405 15.3132 48.5374 15.8144 48.6412L16.4489 51.5817C16.5274 51.9453 16.8353 52.2145 17.2058 52.2449C17.6546 52.2803 18.1043 52.3124 18.5625 52.3124C19.0207 52.3124 19.4704 52.2803 19.9193 52.2449C20.2905 52.2153 20.5985 51.9462 20.6769 51.5817L21.3114 48.6412C21.8126 48.5374 22.3079 48.4058 22.7905 48.2463L24.8071 50.4721C25.0577 50.7481 25.4593 50.8282 25.7951 50.667C26.6507 50.2604 27.4413 49.8064 28.145 49.3204C28.4512 49.1086 28.582 48.7214 28.4681 48.3678L27.5476 45.51C27.9307 45.1683 28.2943 44.8047 28.636 44.4225L31.4938 45.343C31.8473 45.4577 32.2346 45.3261 32.4464 45.0198C32.9333 44.3161 33.3863 43.5255 33.793 42.67C33.9533 42.3333 33.874 41.9317 33.5981 41.682L31.3723 39.6654C31.5309 39.1819 31.6634 38.6875 31.7672 38.1863L34.7077 37.5518C35.0713 37.4733 35.3405 37.1654 35.3708 36.795C35.4054 36.3452 35.4375 35.8955 35.4375 35.4374C35.4375 34.9792 35.4054 34.5295 35.37 34.0806C35.3405 33.7094 35.0713 33.4014 34.7068 33.3229L31.7663 32.6884C31.6626 32.1872 31.5309 31.692 31.3715 31.2093L33.5973 29.1928C33.8732 28.943 33.9525 28.5414 33.7922 28.2047C33.3855 27.3492 32.9316 26.5586 32.4456 25.8549C32.2338 25.5486 31.8465 25.417 31.493 25.5317L28.6352 26.4523C28.2935 26.0692 27.9298 25.7055 27.5467 25.3638L28.4673 22.506C28.5812 22.1525 28.4504 21.7652 28.1441 21.5535C27.4404 21.0666 26.6498 20.6135 25.7943 20.2068C25.4568 20.0457 25.056 20.1258 24.8062 20.4017L22.7897 22.6275C22.3062 22.4689 21.8118 22.3365 21.3106 22.2327L20.6761 19.2922C20.5976 18.9285 20.2897 18.6594 19.9193 18.629C19.0207 18.5565 18.1035 18.5581 17.2049 18.629C16.8337 18.6585 16.5257 18.9277 16.4472 19.2922L15.8127 22.2327C15.3115 22.3365 14.8171 22.4681 14.3345 22.6275L12.3179 20.4017C12.0682 20.1258 11.6674 20.0465 11.3299 20.2068C10.4743 20.6135 9.68372 21.0666 8.98003 21.5535C8.67375 21.7652 8.54297 22.1525 8.65688 22.506L9.57741 25.3638C9.19434 25.7055 8.83069 26.0692 8.48897 26.4523L5.63203 25.5317C5.27766 25.417 4.89037 25.5486 4.67944 25.8549C4.19259 26.5586 3.7395 27.3492 3.33281 28.2047C3.1725 28.5414 3.25181 28.943 3.52772 29.1928L5.75353 31.2093C5.59491 31.6928 5.46244 32.1872 5.35866 32.6884L2.41819 33.3229C2.05453 33.4014 1.78537 33.7094 1.755 34.0798C1.71956 34.5295 1.6875 34.9792 1.6875 35.4374C1.6875 35.8955 1.71956 36.3452 1.755 36.7941ZM3.39272 34.8391L6.26316 34.219C6.60234 34.1456 6.86222 33.8722 6.91791 33.5296C7.04447 32.7517 7.24866 31.9881 7.52456 31.2591C7.64775 30.9351 7.55916 30.5681 7.30181 30.3352L5.13422 28.371C5.32322 28.009 5.52066 27.6622 5.72484 27.334L8.50584 28.23C8.83491 28.3355 9.19772 28.23 9.41794 27.9617C9.91575 27.3525 10.4777 26.7915 11.0869 26.2928C11.3552 26.0734 11.4623 25.7115 11.3552 25.3807L10.4591 22.5997C10.7873 22.3947 11.1333 22.1972 11.4961 22.0091L13.4603 24.1775C13.6941 24.4349 14.0619 24.5235 14.3851 24.4003C15.1124 24.1244 15.876 23.9202 16.6548 23.7936C16.9973 23.7379 17.2707 23.478 17.3441 23.1389L17.9634 20.2684C18.3608 20.2473 18.765 20.2465 19.1607 20.2684L19.7809 23.1389C19.8543 23.478 20.1277 23.7379 20.4702 23.7936C21.2482 23.9202 22.0117 24.1244 22.7407 24.4003C23.0631 24.5235 23.4309 24.4357 23.6647 24.1775L25.6289 22.0099C25.9909 22.1989 26.3377 22.3964 26.6659 22.6005L25.7698 25.3815C25.6635 25.7123 25.7698 26.0734 26.0381 26.2936C26.6473 26.7915 27.2084 27.3534 27.7071 27.9626C27.9273 28.2317 28.2892 28.3389 28.6192 28.2309L31.4002 27.3348C31.6052 27.663 31.8026 28.009 31.9908 28.371L29.8223 30.3352C29.565 30.5681 29.4764 30.9351 29.5996 31.26C29.8755 31.9873 30.0797 32.7509 30.2062 33.5296C30.2619 33.8722 30.5218 34.1456 30.861 34.219L33.7314 34.8383C33.7424 35.0366 33.75 35.2365 33.75 35.4374C33.75 35.6382 33.7433 35.8381 33.7323 36.0356L30.8618 36.6557C30.5227 36.7291 30.2628 37.0025 30.2071 37.3451C30.0805 38.123 29.8763 38.8866 29.6004 39.6156C29.4773 39.9396 29.5658 40.3066 29.8232 40.5395L31.9908 42.5038C31.8018 42.8657 31.6043 43.2125 31.4002 43.5407L28.6192 42.6447C28.2876 42.5367 27.9273 42.6438 27.7071 42.913C27.2101 43.5205 26.6482 44.0824 26.0381 44.5819C25.7698 44.8013 25.6635 45.1633 25.7698 45.4932L26.6659 48.2742C26.3377 48.4792 25.9917 48.6766 25.6297 48.8648L23.6655 46.6964C23.4326 46.439 23.0656 46.3521 22.7407 46.4736C22.0134 46.7495 21.2498 46.9537 20.4711 47.0803C20.1285 47.136 19.8551 47.3958 19.7817 47.735L19.1624 50.6055C18.765 50.6266 18.3608 50.6274 17.9651 50.6055L17.345 47.735C17.2716 47.3958 16.9982 47.136 16.6556 47.0803C15.8777 46.9537 15.1141 46.7495 14.3851 46.4736C14.0619 46.3504 13.6941 46.4382 13.4612 46.6964L11.4969 48.864C11.135 48.675 10.7882 48.4775 10.46 48.2733L11.356 45.4923C11.4623 45.1616 11.356 44.8005 11.0877 44.5802C10.4785 44.0824 9.91744 43.5205 9.41878 42.9113C9.19856 42.6421 8.83575 42.5358 8.50669 42.643L5.72569 43.5391C5.52066 43.2108 5.32322 42.8649 5.13506 42.5021L7.3035 40.5378C7.56084 40.305 7.64944 39.9379 7.52625 39.6131C7.25034 38.8858 7.04616 38.1222 6.91959 37.3434C6.86391 37.0008 6.60403 36.7275 6.26484 36.6541L3.39272 36.0364C3.38259 35.8381 3.375 35.6382 3.375 35.4374C3.375 35.2365 3.38175 35.0366 3.39272 34.8391Z" fill="#028BFC"/>
<path d="M45.7473 13.6985C46.0645 13.5989 46.294 13.3213 46.332 12.9906C46.3826 12.5645 46.4062 12.1789 46.4062 11.8127C46.4062 11.4465 46.3826 11.0609 46.3328 10.6348C46.2949 10.3041 46.0654 10.0265 45.7481 9.92691L43.4084 9.192C43.3384 9.00047 43.2608 8.81231 43.1755 8.62838L44.3095 6.45572C44.4631 6.16125 44.4293 5.8035 44.2235 5.54194C43.7349 4.92431 43.173 4.36238 42.5537 3.87216C42.2921 3.66544 41.9344 3.63253 41.6399 3.78525L39.4656 4.91925C39.2816 4.83488 39.0935 4.75725 38.9019 4.68722L38.167 2.3475C38.0675 2.03025 37.7899 1.80075 37.4591 1.76278C36.6053 1.66322 35.9564 1.66322 35.1025 1.76278C34.7718 1.80075 34.4942 2.03025 34.3946 2.3475L33.6597 4.68722C33.4682 4.75725 33.28 4.83488 33.0961 4.92009L30.9234 3.78609C30.629 3.63338 30.2721 3.66628 30.0097 3.87216C29.392 4.36069 28.8301 4.92263 28.3399 5.54194C28.1332 5.8035 28.0994 6.16041 28.253 6.45572L29.3861 8.62838C29.3017 8.81231 29.2241 9.00047 29.1541 9.192L26.8144 9.92691C26.4971 10.0265 26.2676 10.3041 26.2297 10.6348C26.1799 11.0609 26.1562 11.4465 26.1562 11.8127C26.1562 12.1789 26.1799 12.5645 26.2297 12.9906C26.2676 13.3213 26.4971 13.5989 26.8144 13.6985L29.1541 14.4334C29.2241 14.6249 29.3017 14.8131 29.387 14.997L28.253 17.1697C28.0994 17.4641 28.1332 17.8219 28.339 18.0834C28.8276 18.7011 29.3895 19.263 30.0088 19.7532C30.2695 19.9599 30.6281 19.9928 30.9226 19.8401L33.0952 18.707C33.2792 18.7913 33.4673 18.869 33.6589 18.939L34.3938 21.2787C34.4933 21.596 34.7709 21.8255 35.1017 21.8634C35.5295 21.9141 35.9151 21.9377 36.2812 21.9377C36.6474 21.9377 37.033 21.9141 37.4591 21.8643C37.7899 21.8263 38.0675 21.5968 38.167 21.2796L38.9019 18.9398C39.0935 18.8698 39.2816 18.7922 39.4656 18.707L41.6382 19.841C41.9327 19.9945 42.2904 19.9616 42.552 19.7549C43.1696 19.2664 43.7316 18.7044 44.2218 18.0851C44.4285 17.8236 44.4622 17.4667 44.3087 17.1713L43.1747 14.9987C43.2599 14.8148 43.3375 14.6266 43.4076 14.4351L45.7473 13.6985ZM42.4904 12.9526C42.2238 13.037 42.0162 13.2471 41.9352 13.5154C41.8205 13.8968 41.6686 14.2638 41.4847 14.6072C41.3522 14.8536 41.3497 15.1497 41.4796 15.3969L42.5503 17.4489C42.3503 17.6708 42.1386 17.8826 41.9175 18.0818L39.8655 17.011C39.6174 16.8811 39.3213 16.8845 39.0758 17.0161C38.7323 17.2 38.3653 17.3519 37.9839 17.4667C37.7165 17.5468 37.5055 17.7552 37.4212 18.0218L36.7259 20.2358C36.4179 20.2544 36.1454 20.2544 35.8366 20.2358L35.1413 18.0218C35.057 17.7552 34.8469 17.5477 34.5786 17.4667C34.1963 17.3519 33.8293 17.2 33.4876 17.0161C33.2412 16.8836 32.9451 16.8811 32.697 17.011L30.645 18.0818C30.4231 17.8818 30.2113 17.67 30.0122 17.4489L31.0829 15.3969C31.212 15.1497 31.2103 14.8527 31.0778 14.6072C30.8939 14.2638 30.742 13.8968 30.6273 13.5154C30.5471 13.2479 30.3387 13.037 30.0721 12.9526L27.8581 12.2573C27.848 12.1029 27.8438 11.9553 27.8438 11.8127C27.8438 11.6701 27.848 11.5224 27.8581 11.368L30.0721 10.6728C30.3387 10.5884 30.5463 10.3783 30.6273 10.11C30.742 9.72778 30.8939 9.36075 31.0778 9.01903C31.2103 8.77266 31.2128 8.4765 31.0829 8.22844L30.0122 6.17644C30.2122 5.95453 30.4239 5.74275 30.645 5.54363L32.697 6.61434C32.9442 6.74344 33.2412 6.74091 33.4867 6.60928C33.8302 6.42534 34.1972 6.27347 34.5786 6.15872C34.846 6.07856 35.057 5.87016 35.1413 5.60353L35.8366 3.38953C36.1446 3.37097 36.4171 3.37097 36.7259 3.38953L37.4212 5.60353C37.5055 5.87016 37.7156 6.07772 37.9839 6.15872C38.3662 6.27347 38.7332 6.42534 39.0749 6.60928C39.3213 6.74175 39.6174 6.74428 39.8655 6.61434L41.9175 5.54363C42.1394 5.74359 42.3512 5.95538 42.5503 6.17644L41.4796 8.22844C41.3505 8.47566 41.3522 8.77266 41.4847 9.01819C41.6686 9.36159 41.8205 9.72863 41.9352 10.11C42.0154 10.3775 42.2238 10.5884 42.4904 10.6728L44.7044 11.368C44.7145 11.5224 44.7188 11.6701 44.7188 11.8127C44.7188 11.9553 44.7145 12.1029 44.7044 12.2573L42.4904 12.9526Z" fill="#028BFC"/>
<path d="M51.6898 29.5011L50.2402 28.9864C50.1576 28.751 50.0631 28.5207 49.9559 28.2971L50.6149 26.9091C50.7524 26.6205 50.7144 26.2797 50.517 26.0282C50.0951 25.4891 49.6074 25.0005 49.0666 24.577C48.8143 24.3795 48.4718 24.3424 48.1849 24.4791L46.7961 25.1381C46.5733 25.0318 46.343 24.9364 46.1076 24.8546L45.592 23.405C45.4849 23.1038 45.2157 22.8886 44.8985 22.8498C44.1467 22.7595 43.6025 22.7595 42.8507 22.8498C42.5334 22.8878 42.2643 23.1029 42.1571 23.405L41.6424 24.8546C41.407 24.9373 41.1767 25.0318 40.9531 25.1389L39.5651 24.4799C39.2782 24.3433 38.9365 24.3812 38.6842 24.5778C38.1451 24.9997 37.6566 25.4874 37.233 26.0282C37.0364 26.2797 36.9984 26.6214 37.1351 26.9099L37.7941 28.2988C37.6878 28.5215 37.5924 28.7518 37.5106 28.9872L36.061 29.5028C35.7598 29.6099 35.5447 29.8791 35.5058 30.1963C35.4594 30.5701 35.4375 30.9051 35.4375 31.219C35.4375 31.5328 35.4594 31.867 35.505 32.2424C35.543 32.5597 35.7581 32.8288 36.0602 32.936L37.5098 33.4507C37.5924 33.6861 37.6869 33.9164 37.7941 34.14L37.1351 35.528C36.9976 35.8166 37.0356 36.1574 37.233 36.4089C37.6549 36.948 38.1426 37.4366 38.6834 37.8601C38.9348 38.0567 39.2774 38.0947 39.5651 37.958L40.9539 37.299C41.1767 37.4053 41.407 37.5007 41.6424 37.5825L42.158 39.0321C42.2651 39.3333 42.5343 39.5485 42.8515 39.5873C43.227 39.6345 43.5611 39.6565 43.875 39.6565C44.1889 39.6565 44.523 39.6345 44.8985 39.589C45.2157 39.551 45.4849 39.3358 45.592 39.0338L46.1067 37.5842C46.3421 37.5015 46.5725 37.407 46.7961 37.2999L48.184 37.9588C48.4717 38.0964 48.8143 38.0592 49.0649 37.861C49.6041 37.4391 50.0926 36.9514 50.5162 36.4106C50.7127 36.1591 50.7507 35.8174 50.614 35.5288L49.9551 34.14C50.0614 33.9173 50.1567 33.6869 50.2386 33.4515L51.6881 32.936C51.9893 32.8288 52.2045 32.5597 52.2433 32.2424C52.2906 31.867 52.3125 31.5328 52.3125 31.219C52.3125 30.9051 52.2906 30.571 52.245 30.1955C52.207 29.8774 51.9919 29.6091 51.6898 29.5011ZM50.6166 31.5269L49.2792 32.002C49.0202 32.0939 48.8219 32.3066 48.7485 32.5715C48.638 32.9723 48.4802 33.3545 48.2802 33.708C48.1452 33.9468 48.1351 34.2371 48.2524 34.4851L48.8582 35.7617C48.7181 35.9153 48.5713 36.0621 48.4186 36.2013L47.142 35.5955C46.8956 35.4782 46.6045 35.4883 46.3649 35.6233C46.0105 35.8242 45.6283 35.9811 45.2292 36.0916C44.9643 36.165 44.7517 36.3633 44.6588 36.6223L44.1838 37.9597C43.9796 37.9706 43.7721 37.9706 43.5679 37.9597L43.0928 36.6223C43.0009 36.3633 42.7882 36.165 42.5233 36.0916C42.1225 35.9811 41.7403 35.8233 41.3868 35.6233C41.148 35.4892 40.8586 35.4791 40.6097 35.5955L39.3331 36.2013C39.1795 36.0612 39.0327 35.9144 38.8935 35.7617L39.4993 34.4851C39.6174 34.2371 39.6065 33.9468 39.4715 33.708C39.2707 33.3537 39.1137 32.9714 39.0032 32.5723C38.9298 32.3074 38.7315 32.0948 38.4725 32.002L37.1351 31.5269C37.1284 31.4248 37.125 31.3227 37.125 31.219C37.125 31.1152 37.1284 31.0122 37.1334 30.911L38.4708 30.4351C38.7298 30.3432 38.9281 30.1305 39.0007 29.8656C39.112 29.464 39.2698 29.0826 39.4698 28.7291C39.6048 28.4903 39.6149 28.2 39.4976 27.952L38.8918 26.6754C39.0319 26.5218 39.1787 26.375 39.3314 26.2358L40.608 26.8416C40.8561 26.9597 41.1463 26.9496 41.3851 26.8137C41.7395 26.6129 42.1217 26.456 42.5208 26.3455C42.7857 26.2721 42.9983 26.0738 43.0912 25.8148L43.5662 24.4774C43.7704 24.4664 43.9779 24.4664 44.1821 24.4774L44.6572 25.8148C44.7491 26.0738 44.9618 26.2721 45.2267 26.3455C45.6275 26.456 46.0097 26.6138 46.3632 26.8137C46.6028 26.9496 46.8922 26.9597 47.1403 26.8416L48.4169 26.2358C48.5705 26.3758 48.7173 26.5227 48.8565 26.6754L48.2507 27.952C48.1326 28.2 48.1435 28.4903 48.2785 28.7291C48.4793 29.0834 48.6363 29.4657 48.7468 29.8647C48.8202 30.1297 49.0185 30.3423 49.2775 30.4351L50.6149 30.9102C50.6216 31.0131 50.625 31.1152 50.625 31.219C50.625 31.3227 50.6216 31.4248 50.6166 31.5269Z" fill="#00C9C9"/>
<path d="M18.5625 44.7188C23.6798 44.7188 27.8438 40.5548 27.8438 35.4375C27.8438 30.3202 23.6798 26.1562 18.5625 26.1562C13.4452 26.1562 9.28125 30.3202 9.28125 35.4375C9.28125 40.5548 13.4452 44.7188 18.5625 44.7188ZM18.5625 27.8438C22.7492 27.8438 26.1562 31.2508 26.1562 35.4375C26.1562 39.6242 22.7492 43.0312 18.5625 43.0312C14.3758 43.0312 10.9688 39.6242 10.9688 35.4375C10.9688 31.2508 14.3758 27.8438 18.5625 27.8438Z" fill="#028BFC"/>
<path d="M1.7063 21.3969L3.0023 22.4777C6.86583 17.8447 12.5367 15.1877 18.5627 15.1877C18.9922 15.1877 19.4208 15.2122 19.8495 15.2392L18.81 16.2787L20.003 17.4717L22.5343 14.9405C22.8642 14.6106 22.8642 14.0773 22.5343 13.7474L20.003 11.2162L18.81 12.4092L19.9566 13.5559C19.4925 13.5264 19.0276 13.5002 18.5627 13.5002C12.0355 13.5002 5.8913 16.3782 1.7063 21.3969Z" fill="#00C9C9"/>
<path d="M36.2812 7.59375C33.955 7.59375 32.0625 9.48628 32.0625 11.8125C32.0625 14.1387 33.955 16.0312 36.2812 16.0312C38.6075 16.0312 40.5 14.1387 40.5 11.8125C40.5 9.48628 38.6075 7.59375 36.2812 7.59375ZM36.2812 14.3438C34.8857 14.3438 33.75 13.2081 33.75 11.8125C33.75 10.4169 34.8857 9.28125 36.2812 9.28125C37.6768 9.28125 38.8125 10.4169 38.8125 11.8125C38.8125 13.2081 37.6768 14.3438 36.2812 14.3438Z" fill="#028BFC"/>
<path d="M43.875 27.8438C42.0137 27.8438 40.5 29.3574 40.5 31.2188C40.5 33.0801 42.0137 34.5938 43.875 34.5938C45.7363 34.5938 47.25 33.0801 47.25 31.2188C47.25 29.3574 45.7363 27.8438 43.875 27.8438ZM43.875 32.9062C42.9443 32.9062 42.1875 32.1494 42.1875 31.2188C42.1875 30.2881 42.9443 29.5312 43.875 29.5312C44.8057 29.5312 45.5625 30.2881 45.5625 31.2188C45.5625 32.1494 44.8057 32.9062 43.875 32.9062Z" fill="#00C9C9"/>
<path d="M51.6342 4.23582L47.4155 3.39207C46.9565 3.29926 46.5135 3.5971 46.4224 4.05357L45.5786 8.27232L47.2332 8.60391L47.688 6.33254C48.5056 8.03354 48.9376 9.90835 48.9376 11.8127C48.9376 14.7219 47.9774 17.4574 46.1616 19.7229L47.4787 20.7784C49.508 18.2463 50.6251 15.0628 50.6251 11.8127C50.6251 9.60291 50.1146 7.42435 49.1435 5.45841L51.3035 5.89041L51.6342 4.23582Z" fill="#00C9C9"/>
</svg>
