<svg width="54" height="54" viewBox="0 0 54 54" fill="none" xmlns="http://www.w3.org/2000/svg">
<g clip-path="url(#clip0)">
<path d="M45.45 33.7498H11.7C5.23827 33.7498 0 28.5116 0 22.0498C0 15.5881 5.23827 10.3498 11.7 10.3498C11.7765 10.3498 11.8525 10.3503 11.9276 10.352C14.0738 5.43112 18.9321 2.24982 24.3006 2.24982C29.6692 2.24982 34.5274 5.43112 36.6737 10.352C40.7479 10.4439 44.3903 12.9146 45.9822 16.6661C50.5936 16.9512 54.1444 20.8481 54.0005 25.466C53.8567 30.084 50.0702 33.7523 45.45 33.7498ZM11.7 12.1498C6.23238 12.1498 1.8 16.5822 1.8 22.0498C1.8 27.5175 6.23238 31.9498 11.7 31.9498H45.45C49.1779 31.9498 52.2 28.9278 52.2 25.1998C52.2 21.4719 49.1779 18.4498 45.45 18.4498H45.36C44.9785 18.4498 44.6384 18.2093 44.5114 17.8495C43.2997 14.4132 40.0413 12.1242 36.3977 12.1498C36.3098 12.1498 36.2224 12.1503 36.1349 12.1564C35.7401 12.1815 35.3744 11.9481 35.231 11.5794C33.5002 7.04086 29.1448 4.04405 24.2874 4.04953C19.4301 4.055 15.0815 7.06162 13.361 11.6041C13.2174 11.9858 12.8347 12.2229 12.4289 12.1815C12.1866 12.1587 11.9433 12.1481 11.7 12.1498Z" fill="#0485F4"/>
<path d="M6.09316 27.4505C5.8215 27.451 5.56425 27.3283 5.39359 27.1169C3.83439 25.1868 3.24888 22.6471 3.80566 20.2292C4.36245 17.8112 5.99973 15.7834 8.24605 14.7296C8.69554 14.5172 9.23208 14.7095 9.44445 15.1589C9.65682 15.6084 9.46459 16.145 9.0151 16.3573C6.81471 17.4011 5.40871 19.6151 5.39971 22.0505C5.39418 23.4833 5.88627 24.8737 6.79192 25.984C7.01022 26.2535 7.05422 26.6245 6.90503 26.9376C6.75584 27.2507 6.44 27.4502 6.09316 27.4505Z" fill="#0485F4"/>
<path d="M15.3002 28.3504C15.0109 28.35 14.7394 28.2107 14.5704 27.976C14.4013 27.7413 14.3552 27.4397 14.4464 27.1652L18.0464 16.3652C18.2036 15.8936 18.7134 15.6388 19.185 15.7961C19.6565 15.9534 19.9113 16.4631 19.754 16.9347L16.154 27.7347C16.0316 28.1023 15.6877 28.3504 15.3002 28.3504Z" fill="#00C9C9"/>
<path d="M22.5001 28.3504C22.1126 28.3504 21.7686 28.1023 21.6462 27.7347L18.0462 16.9347C17.889 16.4631 18.1437 15.9534 18.6153 15.7961C19.0869 15.6388 19.5966 15.8936 19.7539 16.3652L23.3539 27.1652C23.4451 27.4397 23.399 27.7413 23.2299 27.976C23.0608 28.2107 22.7893 28.35 22.5001 28.3504Z" fill="#00C9C9"/>
<path d="M20.997 23.8506H16.803C16.3059 23.8506 15.903 23.4476 15.903 22.9506C15.903 22.4535 16.3059 22.0506 16.803 22.0506H20.997C21.494 22.0506 21.897 22.4535 21.897 22.9506C21.897 23.4476 21.494 23.8506 20.997 23.8506Z" fill="#00C9C9"/>
<path d="M25.2 28.3501C24.703 28.3501 24.3 27.9472 24.3 27.4501V16.6501C24.3 16.1531 24.703 15.7501 25.2 15.7501C25.6971 15.7501 26.1 16.1531 26.1 16.6501V27.4501C26.1 27.9472 25.6971 28.3501 25.2 28.3501Z" fill="#00C9C9"/>
<path d="M28.8 22.9501H25.2C24.703 22.9501 24.3 22.5472 24.3 22.0501V16.6501C24.3 16.1531 24.703 15.7501 25.2 15.7501H28.8C30.7883 15.7501 32.4 17.3619 32.4 19.3501C32.4 21.3384 30.7883 22.9501 28.8 22.9501ZM26.1 21.1501H28.8C29.7941 21.1501 30.6 20.3442 30.6 19.3501C30.6 18.356 29.7941 17.5501 28.8 17.5501H26.1V21.1501Z" fill="#00C9C9"/>
<path d="M36 28.3501C35.503 28.3501 35.1 27.9472 35.1 27.4501V16.6501C35.1 16.1531 35.503 15.7501 36 15.7501C36.4971 15.7501 36.9 16.1531 36.9 16.6501V27.4501C36.9 27.9472 36.4971 28.3501 36 28.3501Z" fill="#00C9C9"/>
<path d="M38.7 17.5501H33.3C32.803 17.5501 32.4 17.1472 32.4 16.6501C32.4 16.1531 32.803 15.7501 33.3 15.7501H38.7C39.1971 15.7501 39.6 16.1531 39.6 16.6501C39.6 17.1472 39.1971 17.5501 38.7 17.5501Z" fill="#00C9C9"/>
<path d="M38.7 28.3501H33.3C32.803 28.3501 32.4 27.9472 32.4 27.4501C32.4 26.9531 32.803 26.5501 33.3 26.5501H38.7C39.1971 26.5501 39.6 26.9531 39.6 27.4501C39.6 27.9472 39.1971 28.3501 38.7 28.3501Z" fill="#00C9C9"/>
<path d="M21.6418 51.7507C21.4148 51.7505 21.1903 51.7037 20.9822 51.6132L15.3514 49.2788C14.9364 49.1074 14.6074 48.7767 14.4383 48.3608C14.2711 47.9503 14.2784 47.4895 14.4584 47.0846L15.7994 43.8428C14.4798 42.8391 13.3023 41.6612 12.2991 40.3412L9.02826 41.6921C8.62084 41.8623 8.16206 41.8615 7.75522 41.6899C7.3486 41.5221 7.025 41.2001 6.85522 40.7943L4.52331 35.1372C4.17005 34.2982 4.55989 33.3313 5.39632 32.972L8.58547 31.6576C8.88289 31.5351 9.22305 31.5807 9.47781 31.777C9.73258 31.9733 9.86324 32.2907 9.82058 32.6095C9.77792 32.9283 9.56842 33.2001 9.271 33.3226L6.237 34.5721L8.46586 39.9769L12.2649 38.408C12.6543 38.2477 13.1028 38.3785 13.3449 38.723C14.4544 40.3078 15.8328 41.686 17.4177 42.7953C17.7637 43.0371 17.8949 43.4869 17.7332 43.8768L16.1653 47.6675L21.5662 49.9065L23.1355 46.1136C23.297 45.7232 23.7082 45.4976 24.1242 45.5713C26.0258 45.9101 27.9725 45.9074 29.8732 45.5634C30.2893 45.4892 30.7012 45.7139 30.8642 46.1039L32.4418 49.9034L37.8352 47.6671L36.2663 43.8671C36.105 43.476 36.2378 43.0254 36.5854 42.7843C38.1708 41.6806 39.5486 40.3053 40.6552 38.722C40.8971 38.3771 41.3461 38.2467 41.7352 38.4082L45.5332 39.9797L47.7742 34.5758L45.6077 33.674C45.2012 33.5218 44.9613 33.1011 45.0375 32.6739C45.1136 32.2466 45.484 31.9346 45.918 31.9323C46.0396 31.9322 46.16 31.9556 46.2727 32.0012L48.5857 32.9642C48.9973 33.1323 49.3234 33.4598 49.4897 33.8721C49.6563 34.28 49.6552 34.7372 49.4866 35.1443L47.1452 40.7909C46.9762 41.2038 46.6483 41.5313 46.2352 41.6998C45.8221 41.8683 45.3587 41.8635 44.9492 41.6865L41.7002 40.3417C40.6988 41.6609 39.5215 42.8368 38.2012 43.8367L39.5503 47.1049C39.7238 47.5048 39.7279 47.9579 39.5618 48.3609C39.3922 48.7779 39.062 49.1093 38.6456 49.2802L33.0061 51.6185C32.5976 51.7896 32.1377 51.7902 31.7288 51.6201C31.32 51.4501 30.9961 51.1236 30.8294 50.7133L29.4746 47.4499C27.8338 47.6788 26.1694 47.6811 24.5281 47.4569L23.179 50.7172C22.9233 51.3412 22.3165 51.7492 21.6422 51.7508L21.6418 51.7507ZM21.5148 50.0313V50.0322V50.0313ZM21.6826 49.9553H21.6835H21.6826ZM37.8916 47.805L37.8942 47.8116L37.8916 47.805ZM16.1145 47.7896L16.1132 47.7923L16.1145 47.7896ZM37.9592 47.616L37.9584 47.6165L37.9592 47.616ZM16.0367 47.6148H16.0376H16.0367ZM45.4817 40.1043L45.4812 40.1051L45.4817 40.1043ZM8.33815 40.0296H8.33688H8.33815ZM45.6491 40.0282L45.65 40.0287L45.6491 40.0282ZM47.8977 34.6273H47.8991H47.8977ZM6.18535 34.4459V34.4472V34.4459Z" fill="#0485F4"/>
<path d="M27.0002 41.8494C21.4129 41.8272 16.4104 38.3824 14.3967 33.1706C14.2785 32.8695 14.3311 32.5281 14.5342 32.2765C14.7374 32.0248 15.0601 31.9015 15.3793 31.9536C15.6985 32.0056 15.9653 32.225 16.078 32.5281C17.8071 37.0573 22.1522 40.0494 27.0002 40.0494C31.8482 40.0494 36.1932 37.0573 37.9223 32.5281C38.035 32.225 38.3018 32.0056 38.621 31.9536C38.9403 31.9015 39.2629 32.0248 39.4661 32.2765C39.6693 32.5281 39.7218 32.8695 39.6037 33.1706C37.59 38.3824 32.5875 41.8272 27.0002 41.8494Z" fill="#0485F4"/>
<path d="M17.1 13.0506C16.8107 13.0502 16.5392 12.911 16.3702 12.6762C16.2011 12.4415 16.155 12.1399 16.2462 11.8654C18.2285 5.91876 23.1899 5.85018 23.4 5.85018C23.8971 5.84896 24.301 6.25092 24.3022 6.74797C24.3034 7.24503 23.9015 7.64896 23.4044 7.65018C23.2299 7.65279 19.5104 7.76484 17.9538 12.4349C17.8314 12.8026 17.4875 13.0506 17.1 13.0506Z" fill="#0485F4"/>
</g>
<defs>
<clipPath id="clip0">
<rect width="54" height="54" fill="white"/>
</clipPath>
</defs>
</svg>
