<svg width="54" height="54" viewBox="0 0 54 54" fill="none" xmlns="http://www.w3.org/2000/svg">
<g clip-path="url(#clip0)">
<path fill-rule="evenodd" clip-rule="evenodd" d="M16.172 27C16.4053 25.6048 16.9294 24.2743 17.7104 23.0948C18.4913 21.9153 19.5116 20.9133 20.7049 20.1537L19.7951 18.7325C17.6424 20.1085 15.9937 22.1452 15.0964 24.5373C14.199 26.9294 14.1014 29.5479 14.818 32.0002C15.5347 34.4525 17.027 36.6064 19.0712 38.1389C21.1154 39.6713 23.6014 40.4998 26.1562 40.5H36.9935C34.0358 43.2121 30.1691 44.7173 26.1562 44.7188C17.3165 44.7188 10.125 37.5272 10.125 28.6875H8.4375C8.43705 30.1091 8.60789 31.5255 8.94633 32.9062H2.53125V24.4688H9.28125C9.44812 24.4687 9.61124 24.4193 9.74999 24.3265C9.88873 24.2338 9.99687 24.1021 10.0607 23.9479L11.4236 20.6577C11.4875 20.5035 11.5042 20.3338 11.4716 20.1702C11.4391 20.0065 11.3588 19.8561 11.2408 19.7381L6.46769 14.9652L12.434 8.99894L17.2069 13.772C17.3249 13.89 17.4752 13.9704 17.6389 14.003C17.8026 14.0355 17.9722 14.0188 18.1264 13.9548L21.4166 12.592C21.5708 12.5281 21.7026 12.42 21.7953 12.2812C21.888 12.1425 21.9375 11.9794 21.9375 11.8125V5.0625H30.375V10.125H32.0625V4.21875C32.0625 3.99498 31.9736 3.78037 31.8154 3.62214C31.6571 3.46391 31.4425 3.37501 31.2188 3.375H21.0938C20.87 3.37501 20.6554 3.46391 20.4971 3.62214C20.3389 3.78037 20.25 3.99498 20.25 4.21875V11.2487L18.0015 12.1801L13.0306 7.20906C12.8724 7.05085 12.6578 6.96197 12.434 6.96197C12.2102 6.96197 11.9956 7.05085 11.8373 7.20906L4.67781 14.3686C4.5196 14.5268 4.43072 14.7415 4.43072 14.9652C4.43072 15.189 4.5196 15.4036 4.67781 15.5619L9.64885 20.5327L8.71745 22.7812H1.6875C1.46373 22.7813 1.24912 22.8702 1.09089 23.0284C0.932659 23.1866 0.843761 23.4012 0.84375 23.625V33.75C0.843761 33.9738 0.932659 34.1884 1.09089 34.3466C1.24912 34.5048 1.46373 34.5937 1.6875 34.5938H8.71745L9.64884 36.8423L4.67781 41.8131C4.5196 41.9714 4.43072 42.186 4.43072 42.4098C4.43072 42.6335 4.5196 42.8482 4.67781 43.0064L11.8373 50.1659C11.9956 50.3242 12.2102 50.413 12.434 50.413C12.6578 50.413 12.8724 50.3242 13.0306 50.1659L18.0015 45.1949L20.25 46.1263V53.1562C20.25 53.38 20.3389 53.5946 20.4971 53.7529C20.6554 53.9111 20.87 54 21.0938 54H31.2188C31.4425 54 31.6571 53.9111 31.8154 53.7529C31.9736 53.5946 32.0625 53.38 32.0625 53.1562V46.1263L34.311 45.1949L39.2819 50.1659C39.4401 50.3242 39.6547 50.413 39.8785 50.413C40.1023 50.413 40.3169 50.3242 40.4752 50.1659L47.6347 43.0064C47.7929 42.8482 47.8818 42.6335 47.8818 42.4097C47.8818 42.186 47.7928 41.9713 47.6346 41.8131L46.3215 40.5H50.625C50.8488 40.5 51.0634 40.4111 51.2216 40.2529C51.3798 40.0946 51.4687 39.88 51.4688 39.6562V10.9688C51.4687 10.745 51.3798 10.5304 51.2216 10.3721C51.0634 10.2139 50.8488 10.125 50.625 10.125H43.875C43.6512 10.125 43.4366 10.2139 43.2784 10.3721C43.1202 10.5304 43.0313 10.745 43.0312 10.9688V16.875H37.125C36.9012 16.875 36.6866 16.9639 36.5284 17.1221C36.3702 17.2804 36.2813 17.495 36.2812 17.7188V21.9375H30.375C30.1512 21.9375 29.9366 22.0264 29.7784 22.1846C29.6202 22.3429 29.5313 22.5575 29.5312 22.7812V27.8438H23.625C23.4012 27.8438 23.1866 27.9327 23.0284 28.0909C22.8702 28.2491 22.7813 28.4637 22.7812 28.6875V32.0625H16.6104C16.2262 30.9788 16.0304 29.8373 16.0312 28.6875L16.172 27ZM6.46769 42.4098L12.434 48.3761L16.9736 43.8363C14.5368 42.3527 12.491 40.3069 11.0075 37.8702L6.46769 42.4098ZM21.9375 45.8974V52.3125H30.375V45.8958C27.6037 46.5759 24.7091 46.5764 21.9375 45.8974ZM39.8785 48.3761L45.8448 42.4098L43.9349 40.5H39.3616C38.1933 41.8051 36.8381 42.9297 35.34 43.8374L39.8785 48.3761ZM49.7812 11.8125H44.7188V38.8125H49.7812V11.8125ZM43.0312 18.5625H37.9688V38.8125H43.0312V18.5625ZM36.2812 23.625H31.2188V38.8125H36.2812V23.625ZM29.5312 29.5312H24.4688V38.6711C25.0263 38.7652 25.5908 38.8125 26.1562 38.8125H29.5312V29.5312ZM22.7812 38.2334V33.75H17.3904C18.5998 35.8357 20.5101 37.4244 22.7812 38.2334Z" fill="#028BFC"/>
<path d="M21.0938 25.7344L49.7812 0.84375M49.7812 0.84375H43.0312M49.7812 0.84375V6.75" stroke="#C9BEA4" stroke-width="2"/>
</g>
<defs>
<clipPath id="clip0">
<rect width="54" height="54" fill="white"/>
</clipPath>
</defs>
</svg>
