<svg width="54" height="54" viewBox="0 0 54 54" fill="none" xmlns="http://www.w3.org/2000/svg">
<g clip-path="url(#clip0)">
<path fill-rule="evenodd" clip-rule="evenodd" d="M49.5 7.19995H44.2098L42.8904 8.99995H49.5C50.9912 8.99995 52.2 10.2088 52.2 11.7V39.6H1.8V11.7C1.8 10.2088 3.00881 8.99995 4.5 8.99995H18.3096L16.9902 7.19995H4.5C2.016 7.20288 0.002925 9.21595 0 11.7V42.3C0.002925 44.784 2.016 46.797 4.5 46.8H22.2471L20.727 52.8822C20.6067 53.3644 20.9001 53.8529 21.3824 53.9732C21.4536 53.991 21.5267 54 21.6 54H32.4C32.897 53.9998 33.2999 53.5968 33.2998 53.0997C33.2998 53.0264 33.2908 52.9534 33.273 52.8822L31.7529 46.8H49.5C51.984 46.797 53.9971 44.784 54 42.3V11.7C53.9971 9.21595 51.984 7.20288 49.5 7.19995ZM24.1029 46.8L22.7529 52.2H31.2471L29.8971 46.8H24.1029ZM49.5 45C50.9912 45 52.2 43.7911 52.2 42.3V41.4H1.8V42.3C1.8 43.7911 3.00881 45 4.5 45H49.5Z" fill="#028BFC"/>
<path fill-rule="evenodd" clip-rule="evenodd" d="M44.2102 7.2C44.1231 6.80625 44.1068 6.80265 43.9645 6.6546L40.1458 2.835C39.7887 2.49739 39.2302 2.49739 38.8732 2.835L37.2532 4.4604C36.2917 3.91376 35.2663 3.48806 34.2004 3.1932V0.9C34.2004 0.402975 33.7974 0 33.3004 0H27.9004C27.4033 0 27.0004 0.402975 27.0004 0.9V3.1932C25.936 3.4884 24.9121 3.9141 23.9521 4.4604L22.3321 2.835C21.975 2.49739 21.4165 2.49739 21.0595 2.835L17.2363 6.6546C17.0938 6.80265 17.0071 6.99525 16.9906 7.2C16.9906 7.4351 17.8702 8.49796 18.31 9L18.8608 9.5508C18.3141 10.511 17.8885 11.5352 17.5936 12.6H15.3004C14.8033 12.6 14.4004 13.003 14.4004 13.5V18H13.5004C13.0033 18 12.6004 18.403 12.6004 18.9V20.6478C12.2972 20.799 12.0038 20.9691 11.722 21.1572L10.2064 20.2824C9.77594 20.0339 9.22548 20.1814 8.97697 20.6118L6.27697 25.2918C6.02846 25.7222 6.17594 26.2727 6.60637 26.5212L8.11927 27.3951C8.10667 27.5751 8.10037 27.7389 8.10037 27.9036C8.10037 28.0683 8.10667 28.2357 8.11927 28.4121L6.60637 29.286C6.17909 29.5344 6.03206 30.0808 6.27697 30.51L8.97697 35.19C9.22548 35.6204 9.77594 35.7679 10.2064 35.5194L11.722 34.6446C12.0038 34.8327 12.2972 35.0028 12.6004 35.154V36.9C12.6004 37.397 13.0033 37.8 13.5004 37.8H18.9004C19.3974 37.8 19.8004 37.397 19.8004 36.9V35.1522C20.1036 35.001 20.397 34.8309 20.6788 34.6428L22.1944 35.5176C22.6248 35.7661 23.1753 35.6186 23.4238 35.1882L26.1238 30.5082C26.3723 30.0778 26.2248 29.5273 25.7944 29.2788L24.2815 28.4049C24.2887 28.3059 24.2887 28.2141 24.2923 28.1187C25.1524 28.5795 26.0605 28.9443 27.0004 29.2068V31.5C27.0004 31.997 27.4033 32.4 27.9004 32.4H33.3004C33.7974 32.4 34.2004 31.997 34.2004 31.5V29.2068C35.2647 28.9116 36.2886 28.4859 37.2487 27.9396L38.8687 29.565C39.2257 29.9026 39.7842 29.9026 40.1413 29.565L43.96 25.7454C44.3113 25.394 44.3113 24.8243 43.96 24.4728L42.34 22.8528C42.8868 21.8915 43.3125 20.8661 43.6072 19.8H45.9004C46.3974 19.8 46.8004 19.397 46.8004 18.9V13.5C46.8004 13.003 46.3974 12.6 45.9004 12.6H43.6072C43.3122 11.5352 42.8866 10.511 42.34 9.5508L42.8908 9C42.8908 9 44.2972 7.59375 44.2102 7.2ZM19.1452 7.29L20.632 8.7768C20.9317 9.07594 20.9823 9.5436 20.7535 9.9C20.0061 11.0601 19.4721 12.3445 19.1767 13.6926C19.0862 14.1057 18.7203 14.4001 18.2974 14.4H16.2004V18H18.9004C19.3974 18 19.8004 18.403 19.8004 18.9V20.6478C20.1036 20.7987 20.397 20.9685 20.6788 21.1563L22.1944 20.2815C22.6248 20.033 23.1753 20.1805 23.4238 20.6109L26.1238 25.2909C26.3723 25.7213 26.2248 26.2718 25.7944 26.5203L25.4776 26.7003C26.3091 27.1122 27.1872 27.4222 28.093 27.6237C28.5061 27.7142 28.8005 28.0801 28.8004 28.503V30.6H32.4004V28.503C32.4003 28.0801 32.6947 27.7142 33.1078 27.6237C34.4556 27.3277 35.7399 26.7937 36.9004 26.0469C37.2569 25.8176 37.7251 25.8683 38.0245 26.1684L39.5104 27.6561L42.0556 25.11L40.5688 23.6223C40.2695 23.3233 40.219 22.8562 40.4473 22.5C41.1946 21.3399 41.7286 20.0555 42.0241 18.7074C42.1145 18.2943 42.4805 17.9999 42.9034 18H45.0004V14.4H42.9034C42.4807 14.4001 42.115 14.1063 42.0241 13.6935C41.7288 12.3451 41.1947 11.0604 40.4473 9.9C40.2187 9.54349 40.2696 9.07571 40.5697 8.7768L42.0565 7.2909L39.5104 4.7439L38.0236 6.2316C37.7244 6.5313 37.2568 6.58193 36.9004 6.3531C35.7399 5.60633 34.4556 5.07229 33.1078 4.7763C32.6947 4.68585 32.4003 4.31989 32.4004 3.897V1.8H28.8004V3.897C28.8005 4.31989 28.5061 4.68585 28.093 4.7763C26.7451 5.07229 25.4608 5.60633 24.3004 6.3531C23.9439 6.58238 23.4756 6.53175 23.1763 6.2316L21.6904 4.7439L19.1452 7.29ZM22.432 28.7739C22.5232 28.1954 22.5232 27.6064 22.432 27.0279C22.383 26.666 22.5576 26.3105 22.8739 26.1279L24.115 25.4079L22.315 22.2921L21.0748 23.0067C20.7572 23.1898 20.3603 23.1621 20.0713 22.9365C19.6108 22.5771 19.103 22.283 18.562 22.0626C18.2223 21.9248 18.0003 21.5948 18.0004 21.2283V19.8H14.4004V21.2283C14.3998 21.5942 14.1777 21.9232 13.8388 22.0608C13.2978 22.2812 12.7899 22.5753 12.3295 22.9347C12.0405 23.1603 11.6436 23.1881 11.326 23.0049L10.0858 22.2903L8.28577 25.4061L9.52687 26.1261C9.84311 26.3087 10.0177 26.6642 9.96877 27.0261C9.87753 27.6046 9.87753 28.1936 9.96877 28.7721C10.0177 29.134 9.84311 29.4895 9.52687 29.6721L8.28577 30.3921L10.0858 33.5079L11.326 32.7933C11.6436 32.6101 12.0405 32.6379 12.3295 32.8635C12.7899 33.2229 13.2978 33.517 13.8388 33.7374C14.1784 33.8752 14.4005 34.2052 14.4004 34.5717V36H18.0004V34.5735C18.0003 34.207 18.2223 33.877 18.562 33.7392C19.103 33.5188 19.6108 33.2247 20.0713 32.8653C20.3603 32.6397 20.7572 32.6119 21.0748 32.7951L22.315 33.5097L24.115 30.3939L22.8739 29.6739C22.5576 29.4913 22.383 29.1358 22.432 28.7739Z" fill="#FFC977"/>
<path d="M30.6 9.00027C26.6236 9.00027 23.4 12.2238 23.4 16.2003C23.4045 20.1749 26.6254 23.3958 30.6 23.4003C34.5764 23.4003 37.8 20.1767 37.8 16.2003C37.8 12.2238 34.5764 9.00027 30.6 9.00027ZM30.6 21.6003C27.6176 21.6003 25.2 19.1826 25.2 16.2003C25.2029 13.2191 27.6188 10.8032 30.6 10.8003C33.5824 10.8003 36 13.2179 36 16.2003C36 19.1826 33.5824 21.6003 30.6 21.6003Z" fill="#FFC977"/>
<path d="M16.2 23.4003C13.7147 23.4003 11.7 25.415 11.7 27.9003C11.7 30.3855 13.7147 32.4003 16.2 32.4003C18.684 32.3974 20.6971 30.3843 20.7 27.9003C20.7 25.415 18.6852 23.4003 16.2 23.4003ZM16.2 30.6003C14.7088 30.6003 13.5 29.3915 13.5 27.9003C13.5 26.4091 14.7088 25.2003 16.2 25.2003C17.6912 25.2003 18.9 26.4091 18.9 27.9003C18.9 29.3915 17.6912 30.6003 16.2 30.6003Z" fill="#FFC977"/>
</g>
<defs>
<clipPath id="clip0">
<rect width="54" height="54" fill="white"/>
</clipPath>
</defs>
</svg>
