<svg width="54" height="54" viewBox="0 0 54 54" fill="none" xmlns="http://www.w3.org/2000/svg">
<g clip-path="url(#clip0)">
<path d="M26.0739 16.4079H26.1513C28.6342 16.2242 31.0988 15.8453 33.5223 15.2748C34.0014 15.1498 34.2896 14.6614 34.1673 14.1816C34.045 13.7018 33.5581 13.4109 33.0777 13.5306C30.7499 14.0759 28.3828 14.437 25.9983 14.6106C25.5012 14.6314 25.1152 15.0513 25.1361 15.5484C25.1569 16.0454 25.5768 16.4314 26.0739 16.4106V16.4079Z" fill="#028BFC"/>
<path d="M4.5001 10.8002C4.99716 10.8002 5.4001 10.3973 5.4001 9.90024C5.4001 9.40319 4.99716 9.00024 4.5001 9.00024C4.00304 9.00024 3.6001 9.40319 3.6001 9.90024C3.6001 10.3973 4.00304 10.8002 4.5001 10.8002Z" fill="#028BFC"/>
<path d="M4.5001 12.5999C4.00304 12.5999 3.6001 13.0028 3.6001 13.4999V15.2999C3.6001 15.7969 4.00304 16.1999 4.5001 16.1999C4.99716 16.1999 5.4001 15.7969 5.4001 15.2999V13.4999C5.4001 13.0028 4.99716 12.5999 4.5001 12.5999Z" fill="#028BFC"/>
<path d="M4.5001 22.5002C4.99716 22.5002 5.4001 22.0973 5.4001 21.6002C5.4001 21.1031 4.99716 20.7002 4.5001 20.7002C4.00304 20.7002 3.6001 21.1031 3.6001 21.6002C3.6001 22.0973 4.00304 22.5002 4.5001 22.5002Z" fill="#028BFC"/>
<path d="M4.5001 24.2998C4.00304 24.2998 3.6001 24.7027 3.6001 25.1998V26.9998C3.6001 27.4969 4.00304 27.8998 4.5001 27.8998C4.99716 27.8998 5.4001 27.4969 5.4001 26.9998V25.1998C5.4001 24.7027 4.99716 24.2998 4.5001 24.2998Z" fill="#028BFC"/>
<path d="M4.5001 34.1999C4.99716 34.1999 5.4001 33.797 5.4001 33.2999C5.4001 32.8028 4.99716 32.3999 4.5001 32.3999C4.00304 32.3999 3.6001 32.8028 3.6001 33.2999C3.6001 33.797 4.00304 34.1999 4.5001 34.1999Z" fill="#028BFC"/>
<path d="M4.5001 36.0002C4.00304 36.0002 3.6001 36.4032 3.6001 36.9002V38.7002C3.6001 39.1973 4.00304 39.6002 4.5001 39.6002C4.99716 39.6002 5.4001 39.1973 5.4001 38.7002V36.9002C5.4001 36.4032 4.99716 36.0002 4.5001 36.0002Z" fill="#028BFC"/>
<path fill-rule="evenodd" clip-rule="evenodd" d="M54 37.8001C54.0005 35.1782 53.3603 32.5959 52.1352 30.2779C52.1253 30.2536 52.1136 30.232 52.1019 30.2086C49.292 24.9163 43.7919 21.6057 37.8 21.6001L36 21.7063C30.686 22.3072 26.0094 25.488 23.498 30.2095C23.4863 30.232 23.4747 30.2536 23.4648 30.277C23.4306 30.3436 23.4018 30.4129 23.3676 30.4795L22.5764 32.3146C21.2967 35.7972 21.275 39.6177 22.5152 43.1146L23.2559 44.8885C23.3261 45.0334 23.3901 45.181 23.4648 45.3232C23.4747 45.3466 23.4863 45.3682 23.498 45.3907C26.3033 50.6875 31.8062 54.0001 37.8 54.0001C43.7937 54.0001 49.2966 50.6875 52.1019 45.3907C52.1136 45.3673 52.1253 45.3457 52.1352 45.3214C53.3602 43.0036 54.0003 40.4217 54 37.8001ZM27.0306 38.7001H23.4459C23.5606 40.5764 24.0451 42.4116 24.8715 44.1001H27.8505C27.3639 42.339 27.0887 40.5262 27.0306 38.7001ZM48.5694 36.9001H52.1541C52.0393 35.0238 51.5548 33.1886 50.7285 31.5001H47.7495C48.236 33.2612 48.5112 35.0739 48.5694 36.9001ZM43.1874 36.9001H46.7712C46.7073 35.0693 46.4078 33.2544 45.8802 31.5001H42.8031C43.0307 33.2916 43.159 35.0944 43.1874 36.9001ZM29.7198 31.5001C29.1921 33.2544 28.8926 35.0693 28.8288 36.9001H32.4126C32.4409 35.0944 32.5692 33.2916 32.7969 31.5001H29.7198ZM33.075 29.7001C33.366 27.8385 33.9073 26.0248 34.6842 24.3082C32.7158 25.6094 31.2052 27.4952 30.365 29.7001H33.075ZM34.5951 31.5001C34.3628 33.2911 34.2356 35.0942 34.2143 36.9001H41.3856C41.3643 35.0942 41.2371 33.2911 41.0049 31.5001H34.5951ZM41.0049 44.1001C41.2371 42.3091 41.3643 40.506 41.3856 38.7001H34.2143C34.2356 40.506 34.3628 42.3091 34.5951 44.1001H41.0049ZM40.9158 24.3082C41.6926 26.0248 42.2339 27.8385 42.525 29.7001H45.2349C44.3947 27.4952 42.8841 25.6094 40.9158 24.3082ZM34.8912 29.7001H40.7088C39.9177 25.5502 38.6253 23.4001 37.8 23.4001C36.9747 23.4001 35.6823 25.5502 34.8912 29.7001ZM25.9038 29.7001H28.4616C29.0989 27.9994 30.0191 26.4187 31.1831 25.0246C29.0652 26.1245 27.2517 27.7306 25.9038 29.7001ZM27.8505 31.5001H24.8715C24.0451 33.1886 23.5606 35.0238 23.4459 36.9001H27.0306C27.0887 35.0739 27.3639 33.2612 27.8505 31.5001ZM32.4152 38.7001H28.8315H28.8288C28.8926 40.5309 29.1921 42.3458 29.7198 44.1001H32.7996C32.5719 42.3086 32.4436 40.5058 32.4152 38.7001ZM34.6869 51.292C33.91 49.5754 33.3687 47.7617 33.0777 45.9001H30.365C31.2059 48.1054 32.7175 49.9912 34.6869 51.292ZM40.7115 45.9001H34.8939H34.8912C35.6823 50.05 36.9774 52.2001 37.8027 52.2001C38.628 52.2001 39.9204 50.05 40.7115 45.9001ZM40.9196 51.2895C40.9192 51.2903 40.9188 51.2912 40.9185 51.292H40.9158C40.917 51.2912 40.9183 51.2903 40.9196 51.2895C41.6949 49.5735 42.2349 47.7606 42.525 45.9001H45.2349C44.3952 48.1036 42.8861 49.9884 40.9196 51.2895ZM43.1874 38.7001C43.159 40.5058 43.0307 42.3086 42.8031 44.1001H45.8802C46.4078 42.3458 46.7073 40.5309 46.7712 38.7001H43.1874ZM52.1541 38.7001H48.5694C48.5112 40.5262 48.236 42.339 47.7495 44.1001H50.7285C51.5548 42.4116 52.0393 40.5764 52.1541 38.7001ZM47.1384 29.7001H49.6962C48.3485 27.7304 46.5349 26.1243 44.4168 25.0246C45.5811 26.4185 46.5013 27.9993 47.1384 29.7001ZM28.4616 45.9001H25.9038C27.2511 47.8712 29.0646 49.4789 31.1831 50.5801C30.0187 49.1846 29.0985 47.6023 28.4616 45.9001ZM47.1384 45.9001C46.5014 47.6023 45.5812 49.1846 44.4168 50.5801C46.5353 49.4789 48.3488 47.8712 49.6962 45.9001H47.1384Z" fill="#C9BEA4"/>
<path fill-rule="evenodd" clip-rule="evenodd" d="M40.9185 51.292L40.9196 51.2895L40.9158 51.292H40.9185Z" fill="#C9BEA4"/>
<path fill-rule="evenodd" clip-rule="evenodd" d="M37.8 21.6V4.5C37.8 0.0513001 19.6713 0 18.9 0C18.1287 0 0 0.0513001 0 4.5V40.5C0 44.9487 18.1287 45 18.9 45C20.4075 45 21.8619 44.9586 23.256 44.8884L22.5153 43.1145C21.3471 43.1676 20.1465 43.2 18.9 43.2C8.298 43.2 2.25 41.4594 1.8 40.4721V30.0258C6.3981 32.3649 18.2781 32.4 18.9 32.4C20.1015 32.4 21.3354 32.3658 22.5765 32.3145L23.3676 30.4794C21.8574 30.5559 20.3553 30.6 18.9 30.6C8.298 30.6 2.25 28.8594 1.8 27.8721V18.3258C6.3981 20.6649 18.2781 20.7 18.9 20.7C19.5219 20.7 31.4019 20.6649 36 18.3258V21.7062L37.8 21.6ZM18.9 18.9C29.5245 18.9 35.5734 17.1513 36 16.1658V6.6258C31.4019 8.9649 19.5219 9 18.9 9C18.2781 9 6.3981 8.9649 1.8 6.6258V16.2C2.1915 17.1414 8.2467 18.9 18.9 18.9ZM35.9856 4.5C35.433 3.51 29.3985 1.8 18.9 1.8C8.28 1.8 2.2266 3.5487 1.8 4.5342V4.5513C2.2266 5.4513 8.28 7.2 18.9 7.2C29.3985 7.2 35.433 5.49 35.9856 4.5Z" fill="#028BFC"/>
</g>
<defs>
<clipPath id="clip0">
<rect width="54" height="54" fill="white"/>
</clipPath>
</defs>
</svg>
