<svg width="54" height="54" viewBox="0 0 54 54" fill="none" xmlns="http://www.w3.org/2000/svg">
<path d="M52.0681 11.2134L42.7868 1.93219C42.6259 1.77677 42.4114 1.68917 42.1878 1.6875H21.094C20.4233 1.6895 19.7806 1.95683 19.3064 2.4311C18.8321 2.90537 18.5648 3.54804 18.5628 4.21875V9.32344C14.0179 9.53646 9.72976 11.4918 6.58877 14.7835C3.44777 18.0752 1.69531 22.4502 1.69531 27C1.69531 31.5498 3.44777 35.9248 6.58877 39.2165C9.72976 42.5082 14.0179 44.4635 18.5628 44.6766V49.7812C18.5648 50.452 18.8321 51.0946 19.3064 51.5689C19.7806 52.0432 20.4233 52.3105 21.094 52.3125H49.7815C50.4522 52.3105 51.0949 52.0432 51.5692 51.5689C52.0434 51.0946 52.3108 50.452 52.3128 49.7812V11.8125C52.3111 11.5888 52.2235 11.3743 52.0681 11.2134ZM43.0315 4.56469L49.4356 10.9688H43.8753C43.6515 10.9688 43.4369 10.8799 43.2786 10.7216C43.1204 10.5634 43.0315 10.3488 43.0315 10.125V4.56469ZM3.37526 27C3.38075 22.8962 4.95791 18.9505 7.7826 15.9736C10.6073 12.9966 14.4649 11.2147 18.5628 10.9941V26.6541L7.50963 37.7072C4.84888 34.7759 3.375 30.9588 3.37526 27ZM8.69932 38.8969L19.7524 27.8438H35.4124C35.2588 30.8671 34.2505 33.7848 32.5048 36.258C30.7592 38.7312 28.3477 40.6585 25.5504 41.8159C22.7532 42.9733 19.685 43.3134 16.7021 42.7967C13.7193 42.28 10.9443 40.9277 8.69932 38.8969ZM50.6253 49.7812C50.6253 50.005 50.5364 50.2196 50.3781 50.3779C50.2199 50.5361 50.0053 50.625 49.7815 50.625H21.094C20.8702 50.625 20.6556 50.5361 20.4974 50.3779C20.3392 50.2196 20.2503 50.005 20.2503 49.7812V44.6766C24.7935 44.4571 29.0787 42.5 32.2195 39.2099C35.3604 35.9199 37.1167 31.5486 37.1253 27C37.1253 26.7762 37.0364 26.5616 36.8781 26.4034C36.7199 26.2451 36.5053 26.1562 36.2815 26.1562H20.2503V4.21875C20.2503 3.99497 20.3392 3.78036 20.4974 3.62213C20.6556 3.46389 20.8702 3.375 21.094 3.375H41.344V10.125C41.346 10.7957 41.6133 11.4384 42.0876 11.9127C42.5619 12.3869 43.2045 12.6542 43.8753 12.6562H50.6253V49.7812Z" fill="#028BFC"/>
<path d="M22.7817 5.90625C22.558 5.90625 22.3434 5.99515 22.1851 6.15338C22.0269 6.31161 21.938 6.52622 21.938 6.75V23.625C21.938 23.8488 22.0269 24.0634 22.1851 24.2216C22.3434 24.3799 22.558 24.4688 22.7817 24.4688H39.6567C39.8805 24.4688 40.0951 24.3799 40.2534 24.2216C40.4116 24.0634 40.5005 23.8488 40.5005 23.625C40.4954 18.9273 38.6269 14.4234 35.3051 11.1016C31.9833 7.77983 27.4795 5.91139 22.7817 5.90625ZM23.6255 22.7812V7.61906C27.5779 7.83128 31.3123 9.49685 34.1111 12.2956C36.9099 15.0944 38.5755 18.8289 38.7877 22.7812H23.6255Z" fill="#00C9C9"/>
<path d="M41.344 33.75C39.8421 33.75 38.3739 34.1954 37.1251 35.0298C35.8763 35.8642 34.903 37.0502 34.3283 38.4377C33.7535 39.8253 33.6032 41.3522 33.8962 42.8252C34.1892 44.2983 34.9124 45.6513 35.9744 46.7133C37.0364 47.7753 38.3895 48.4986 39.8625 48.7916C41.3356 49.0846 42.8624 48.9342 44.25 48.3595C45.6376 47.7847 46.8236 46.8114 47.658 45.5626C48.4924 44.3138 48.9377 42.8457 48.9377 41.3438C48.9346 39.3307 48.1336 37.401 46.7101 35.9776C45.2867 34.5542 43.357 33.7531 41.344 33.75ZM41.344 47.25C40.1759 47.25 39.0339 46.9036 38.0627 46.2546C37.0914 45.6056 36.3344 44.6832 35.8873 43.604C35.4403 42.5247 35.3233 41.3372 35.5512 40.1915C35.7791 39.0458 36.3416 37.9934 37.1676 37.1674C37.9937 36.3414 39.046 35.7789 40.1917 35.551C41.3374 35.3231 42.525 35.4401 43.6042 35.8871C44.6834 36.3341 45.6059 37.0911 46.2549 38.0624C46.9039 39.0337 47.2502 40.1756 47.2502 41.3438C47.2485 42.9096 46.6256 44.4109 45.5184 45.5181C44.4111 46.6254 42.9099 47.2482 41.344 47.25Z" fill="#00C9C9"/>
<path d="M39.6563 42.6822L37.7216 40.7474L36.5286 41.9405L39.0598 44.4718C39.218 44.6299 39.4326 44.7188 39.6563 44.7188C39.8801 44.7188 40.0947 44.6299 40.2529 44.4718L45.3154 39.4093L44.1223 38.2162L39.6563 42.6822Z" fill="#00C9C9"/>
<path d="M42.188 16.0312H48.938V17.7188H42.188V16.0312Z" fill="#00C9C9"/>
<path d="M42.188 21.0938H48.938V22.7812H42.188V21.0938Z" fill="#00C9C9"/>
<path d="M42.188 26.1562H48.938V27.8438H42.188V26.1562Z" fill="#00C9C9"/>
</svg>
