<svg width="54" height="54" viewBox="0 0 54 54" fill="none" xmlns="http://www.w3.org/2000/svg">
<path fill-rule="evenodd" clip-rule="evenodd" d="M50.0289 16.8413H49.9947C49.9893 14.6734 48.7711 14.3278 46.9286 13.8054L46.8916 13.7946C46.3041 13.6266 45.7129 13.4852 45.1011 13.3649L44.8378 14.9383C45.3891 15.0479 45.9238 15.1756 46.4545 15.3277L46.4936 15.3388C47.3048 15.5687 47.8906 15.7351 48.1564 15.9448C48.2478 16.0169 48.4007 16.1376 48.4007 16.8557V45.5486C44.2553 43.9941 39.4181 43.8911 36.7678 43.983C33.2556 44.1046 29.9288 44.6772 27.7955 45.495V15.9827C28.2945 15.7479 29.0533 15.4718 30.1892 15.2119L29.8613 13.6521C28.699 13.9158 27.7399 14.2322 26.9984 14.5968C25.1197 13.6735 20.828 13.0642 16.5269 12.8302C16.3937 12.8233 16.2661 12.8495 16.1523 12.9018C16.4177 13.0192 16.6106 13.2789 16.6274 13.5887C16.6457 13.9249 16.453 14.2239 16.1646 14.3565C16.2495 14.3936 16.3424 14.4164 16.4404 14.4217C21.5527 14.7002 25.0674 15.4496 26.2016 15.9823V45.495C24.0687 44.6768 20.7427 44.1046 17.2301 43.983C14.5806 43.8907 9.74309 43.9941 5.59932 45.5486V16.8557C5.59932 16.1376 5.75217 16.0169 5.84363 15.9444C6.10793 15.7353 6.6923 15.5693 7.50094 15.3397L7.5027 15.3392L7.54266 15.3277C9.29773 14.8296 13.2849 14.5688 15.8751 14.4279C15.9784 14.4223 16.076 14.3972 16.1646 14.3565C15.8685 14.2272 15.6691 13.9241 15.6877 13.5825C15.7043 13.2766 15.8922 13.0213 16.1523 12.9018C16.0412 12.8526 15.9172 12.8284 15.7882 12.836C13.0719 12.9839 8.9838 13.2615 7.10719 13.7942L7.06723 13.8058C5.22729 14.3282 4.0107 14.6742 4.00534 16.8413H3.96826C1.7802 16.8413 0 18.6223 0 20.8112V48.5548C0 51.0877 1.82263 53.6536 5.3064 53.6569L26.9975 53.6841H26.9992L35.7304 53.675C35.7672 53.675 35.8033 53.6725 35.8388 53.6676C36.2275 53.6144 36.5268 53.2806 36.5264 52.877C36.526 52.437 36.1692 52.081 35.7296 52.081L34.2501 52.0825L27.7955 52.0889V49.6594H47.5536C48.8996 49.6594 49.9947 48.5458 49.9947 47.1772V18.4353H50.0284C51.3394 18.4353 52.406 19.5011 52.406 20.8112V48.5548C52.406 50.2423 51.2434 52.0604 48.6915 52.0629L34.3602 52.0749C34.3228 52.0749 34.2861 52.0775 34.2501 52.0825C33.8619 52.1365 33.5634 52.4702 33.5642 52.8729C33.5646 53.3129 33.9214 53.6688 34.3614 53.6688L35.8388 53.6676L48.6932 53.6569C52.1774 53.6536 54 51.0877 54 48.5548V20.8112C54 18.6223 52.2186 16.8413 50.0289 16.8413ZM26.2016 48.0654V47.2245C22.6605 45.5519 12.1998 44.5029 5.60344 47.2612C5.64381 47.7115 6.00471 48.0654 6.44307 48.0654H26.2016ZM1.59398 20.8112V48.5548C1.59398 50.2423 2.75661 52.0604 5.30804 52.0629L26.2016 52.0889V49.6594H6.44348C5.09917 49.6594 4.00534 48.5462 4.00534 47.1776V18.4353H3.96826C2.65938 18.4353 1.59398 19.5011 1.59398 20.8112ZM27.7955 48.0654H47.5536C47.9858 48.0654 48.3545 47.7049 48.3966 47.2612C41.8006 44.5042 31.3378 45.5527 27.7955 47.2249V48.0654Z" fill="#028BFC"/>
<path d="M35.8388 53.6676C36.2275 53.6144 36.5268 53.2806 36.5264 52.877C36.526 52.437 36.1692 52.081 35.7296 52.081L34.2501 52.0825C33.8619 52.1365 33.5634 52.4702 33.5642 52.8729C33.5646 53.3129 33.9214 53.6688 34.3614 53.6688L35.8388 53.6676Z" fill="#028BFC"/>
<path d="M16.6274 13.5887C16.6106 13.2789 16.4177 13.0192 16.1523 12.9018C15.8922 13.0213 15.7043 13.2766 15.6877 13.5825C15.6691 13.9241 15.8685 14.2272 16.1646 14.3565C16.453 14.2239 16.6457 13.9249 16.6274 13.5887Z" fill="#028BFC"/>
<path fill-rule="evenodd" clip-rule="evenodd" d="M45.1012 13.3649C45.1094 13.2153 45.1139 13.0621 45.1139 12.9047C45.1111 10.8143 44.4004 9.01183 43.0594 7.69224C41.6598 6.31496 39.6275 5.54537 37.4691 5.57174C35.3177 5.54002 33.2812 6.31455 31.8821 7.69141C30.5407 9.01142 29.83 10.8143 29.8271 12.9047C29.8271 13.1647 29.8391 13.4131 29.8613 13.652L30.1893 15.2118C30.6359 16.5302 31.4248 17.4823 32.1503 18.3561C33.0258 19.4108 33.7942 20.339 33.9598 21.804C32.9459 22.2107 32.2274 23.2031 32.2274 24.3604C32.2274 25.8774 33.4633 27.1113 34.9823 27.1113H39.9587C41.4777 27.1113 42.7137 25.8774 42.7137 24.3604C42.7137 23.2031 41.9952 22.2107 40.9813 21.804C41.1469 20.339 41.9153 19.4104 42.7907 18.3557C43.5653 17.423 44.4127 16.4008 44.8379 14.9383L45.1012 13.3649ZM37.4572 7.16572C35.7272 7.13688 34.0999 7.7458 32.9999 8.82809C31.9695 9.84199 31.4236 11.2522 31.4211 12.9068C31.4187 14.9786 32.3259 16.0721 33.3768 17.3381C34.2931 18.4418 35.3173 19.6761 35.5426 21.6067H36.6719V16.084H35.3408C34.9004 16.084 34.5436 15.7272 34.5436 15.2872C34.5436 14.8468 34.9004 14.49 35.3408 14.49H39.5167C39.9567 14.49 40.3135 14.8468 40.3135 15.2872C40.3135 15.7272 39.9567 16.084 39.5167 16.084H38.2659V21.6067H39.3984C39.6238 19.6761 40.648 18.4418 41.5643 17.3381C42.6148 16.0721 43.5224 14.9786 43.52 12.9068C43.5175 11.2526 42.9716 9.8424 41.9412 8.8285C40.8412 7.74621 39.2118 7.13605 37.481 7.16572H37.4572ZM39.9587 23.2007H34.9823C34.3421 23.2007 33.8214 23.721 33.8214 24.3604C33.8214 24.9982 34.3421 25.5173 34.9823 25.5173H39.9587C40.599 25.5173 41.1197 24.9982 41.1197 24.3604C41.1197 23.721 40.599 23.2007 39.9587 23.2007Z" fill="#C9BEA4"/>
<path d="M23.1214 32.3679C21.8698 31.6416 19.388 31.1311 16.6437 31.036C14.8141 30.9729 11.3299 31.057 8.5552 32.3333C8.15516 32.5171 7.98007 32.9904 8.16381 33.3905C8.29812 33.6826 8.58692 33.8544 8.8885 33.8544C9.00015 33.8544 9.11303 33.8309 9.22097 33.7814C13.3895 31.8645 20.4007 32.632 22.3209 33.7464C22.7016 33.9677 23.1894 33.8383 23.4106 33.4572C23.6315 33.0769 23.5021 32.5891 23.1214 32.3679Z" fill="#028BFC"/>
<path d="M23.1214 38.2184C21.8698 37.4921 19.388 36.9816 16.6437 36.8864C14.8141 36.823 11.3299 36.9074 8.5552 38.1838C8.15516 38.3675 7.98007 38.8409 8.16381 39.2409C8.29812 39.533 8.58692 39.7048 8.8885 39.7048C9.00015 39.7048 9.11303 39.6814 9.22097 39.6319C13.3895 37.7149 20.4007 38.4825 22.3209 39.5969C22.7016 39.8177 23.1894 39.6888 23.4106 39.3077C23.6315 38.9274 23.5021 38.4396 23.1214 38.2184Z" fill="#028BFC"/>
<path d="M23.1213 26.5182C21.8693 25.7915 19.3871 25.2806 16.6437 25.1854C14.8132 25.1216 11.3286 25.2056 8.5547 26.4836C8.15466 26.6678 7.97998 27.1411 8.16414 27.5412C8.29845 27.8329 8.58725 28.0047 8.88841 28.0047C9.00006 28.0047 9.11336 27.9812 9.22171 27.9317C13.3873 26.0127 20.3993 26.7811 22.3208 27.8967C22.7015 28.1175 23.1893 27.9882 23.4106 27.6075C23.6314 27.2268 23.502 26.739 23.1213 26.5182Z" fill="#028BFC"/>
<path d="M31.6792 33.7468C33.5978 32.6311 40.607 31.8632 44.7755 33.7818C44.8834 33.8316 44.9967 33.8547 45.1083 33.8547C45.4099 33.8547 45.6983 33.6829 45.833 33.3908C46.0168 32.9912 45.8417 32.5178 45.4421 32.3337C42.669 31.0573 39.1844 30.9729 37.3547 31.0367C34.6097 31.1315 32.1279 31.6419 30.8783 32.3687C30.4976 32.5899 30.3683 33.0777 30.5895 33.4584C30.8107 33.8391 31.2985 33.968 31.6792 33.7468Z" fill="#C9BEA4"/>
<path d="M45.4417 38.1838C42.6686 36.9074 39.1841 36.823 37.3544 36.8864C34.6094 36.9816 32.128 37.4921 30.878 38.2188C30.4973 38.44 30.3684 38.9278 30.5896 39.3085C30.8108 39.6892 31.2986 39.8181 31.6793 39.5969C33.5979 38.4812 40.6067 37.7133 44.7755 39.6319C44.8835 39.6818 44.9968 39.7052 45.108 39.7052C45.41 39.7052 45.6984 39.533 45.8327 39.2409C46.0169 38.8413 45.8418 38.3679 45.4417 38.1838Z" fill="#C9BEA4"/>
<path d="M37.4745 4.00163C37.9149 4.00163 38.2717 3.64485 38.2717 3.20485V1.1136C38.2717 0.673187 37.9149 0.316406 37.4745 0.316406C37.0345 0.316406 36.6777 0.673187 36.6777 1.1136V3.20485C36.6777 3.64485 37.0345 4.00163 37.4745 4.00163Z" fill="#C9BEA4"/>
<path d="M30.1294 5.6328C30.2852 5.78812 30.4891 5.86599 30.693 5.86599C30.897 5.86599 31.1009 5.78812 31.2566 5.63239C31.5681 5.32093 31.5677 4.81624 31.2562 4.50519L29.7739 3.02328C29.4624 2.71222 28.9577 2.71222 28.6467 3.02369C28.3352 3.33474 28.3352 3.83942 28.6467 4.15088L30.1294 5.6328Z" fill="#C9BEA4"/>
<path d="M44.257 5.86672C44.4613 5.86672 44.6653 5.78886 44.821 5.63271L46.3005 4.15079C46.6115 3.83933 46.6111 3.33465 46.2996 3.0236C45.9882 2.71296 45.4835 2.71296 45.1724 3.02483L43.693 4.50634C43.3819 4.8178 43.3824 5.32249 43.6938 5.63354C43.8495 5.78886 44.0535 5.86672 44.257 5.86672Z" fill="#C9BEA4"/>
<path d="M8.16381 21.6878C8.29812 21.9799 8.58692 22.1521 8.8885 22.1521C9.00015 22.1521 9.11303 22.1287 9.22097 22.0792C13.3853 20.1639 20.3986 20.931 22.3218 22.0446C22.7024 22.2654 23.1902 22.1352 23.411 21.7546C23.6315 21.3735 23.5017 20.8857 23.1206 20.6653C21.8686 19.9402 19.3868 19.4301 16.6437 19.335C14.8137 19.2715 11.3291 19.3552 8.5552 20.6307C8.15516 20.8148 7.98007 21.2882 8.16381 21.6878Z" fill="#028BFC"/>
</svg>
