<svg width="54" height="54" viewBox="0 0 54 54" fill="none" xmlns="http://www.w3.org/2000/svg">
<path d="M31.2188 45.5625H29.5312V34.1297C29.5312 33.9059 29.4424 33.6913 29.2841 33.5331C29.1259 33.3748 28.9113 33.2859 28.6875 33.2859C28.4637 33.2859 28.2491 33.3748 28.0909 33.5331C27.9326 33.6913 27.8438 33.9059 27.8438 34.1297V45.5625H5.90625V28.6875H17.4614C17.6852 28.6875 17.8998 28.5986 18.058 28.4404C18.2163 28.2821 18.3052 28.0675 18.3052 27.8438C18.3052 27.62 18.2163 27.4054 18.058 27.2471C17.8998 27.0889 17.6852 27 17.4614 27H5.0625C4.83872 27 4.62411 27.0889 4.46588 27.2471C4.30765 27.4054 4.21875 27.62 4.21875 27.8438V45.5625H2.53125C2.30747 45.5625 2.09286 45.6514 1.93463 45.8096C1.77639 45.9679 1.6875 46.1825 1.6875 46.4062V48.0938C1.6875 49.2126 2.13197 50.2857 2.92314 51.0769C3.71431 51.868 4.78737 52.3125 5.90625 52.3125H27.8438C28.9626 52.3125 30.0357 51.868 30.8269 51.0769C31.618 50.2857 32.0625 49.2126 32.0625 48.0938V46.4062C32.0625 46.1825 31.9736 45.9679 31.8154 45.8096C31.6571 45.6514 31.4425 45.5625 31.2188 45.5625ZM30.375 48.0938C30.375 48.7651 30.1083 49.4089 29.6336 49.8836C29.1589 50.3583 28.5151 50.625 27.8438 50.625C21.5745 50.625 13.6811 50.625 5.90625 50.625C5.23492 50.625 4.59109 50.3583 4.11639 49.8836C3.64168 49.4089 3.375 48.7651 3.375 48.0938V47.25H30.375V48.0938Z" fill="#028BFC"/>
<path d="M45.5625 6.75H47.25C47.4738 6.75 47.6884 6.66111 47.8466 6.50287C48.0049 6.34464 48.0938 6.13003 48.0938 5.90625C48.0938 5.68247 48.0049 5.46786 47.8466 5.30963C47.6884 5.1514 47.4738 5.0625 47.25 5.0625H45.5625C44.8912 5.0625 44.2473 5.32918 43.7726 5.80389C43.2979 6.27859 43.0312 6.92242 43.0312 7.59375V8.4375H42.1875C41.9637 8.4375 41.7491 8.5264 41.5909 8.68463C41.4326 8.84286 41.3438 9.05747 41.3438 9.28125C41.3438 9.50503 41.4326 9.71964 41.5909 9.87787C41.7491 10.0361 41.9637 10.125 42.1875 10.125H43.0312V12.6562C43.0312 12.88 43.1201 13.0946 43.2784 13.2529C43.4366 13.4111 43.6512 13.5 43.875 13.5C44.0988 13.5 44.3134 13.4111 44.4716 13.2529C44.6299 13.0946 44.7188 12.88 44.7188 12.6562V10.125H45.5625C45.7863 10.125 46.0009 10.0361 46.1591 9.87787C46.3174 9.71964 46.4062 9.50503 46.4062 9.28125C46.4062 9.05747 46.3174 8.84286 46.1591 8.68463C46.0009 8.5264 45.7863 8.4375 45.5625 8.4375H44.7188V7.59375C44.7188 7.36997 44.8076 7.15536 44.9659 6.99713C45.1241 6.83889 45.3387 6.75 45.5625 6.75Z" fill="#028BFC"/>
<path d="M49.7812 1.6875H39.6562C38.9849 1.6875 38.3411 1.95418 37.8664 2.42889C37.3917 2.90359 37.125 3.54742 37.125 4.21875V10.125C37.125 10.3488 37.2139 10.5634 37.3721 10.7216C37.5304 10.8799 37.745 10.9688 37.9688 10.9688C38.1925 10.9688 38.4071 10.8799 38.5654 10.7216C38.7236 10.5634 38.8125 10.3488 38.8125 10.125V4.21875C38.8125 3.99497 38.9014 3.78036 39.0596 3.62213C39.2179 3.46389 39.4325 3.375 39.6562 3.375H49.7812C50.005 3.375 50.2196 3.46389 50.3779 3.62213C50.5361 3.78036 50.625 3.99497 50.625 4.21875V14.3438C50.625 14.5675 50.5361 14.7821 50.3779 14.9404C50.2196 15.0986 50.005 15.1875 49.7812 15.1875H39.6562C39.4325 15.1875 39.2179 15.0986 39.0596 14.9404C38.9014 14.7821 38.8125 14.5675 38.8125 14.3438V9.28125C38.8125 9.05747 38.7236 8.84286 38.5654 8.68463C38.4071 8.52639 38.1925 8.4375 37.9688 8.4375C37.745 8.4375 37.5304 8.52639 37.3721 8.68463C37.2139 8.84286 37.125 9.05747 37.125 9.28125V14.3438C37.125 15.0151 37.3917 15.6589 37.8664 16.1336C38.3411 16.6083 38.9849 16.875 39.6562 16.875H49.7812C50.4526 16.875 51.0964 16.6083 51.5711 16.1336C52.0458 15.6589 52.3125 15.0151 52.3125 14.3438V4.21875C52.3125 3.54742 52.0458 2.90359 51.5711 2.42889C51.0964 1.95418 50.4526 1.6875 49.7812 1.6875Z" fill="#028BFC"/>
<path d="M41.3438 35.4375C41.3438 36.105 41.5417 36.7575 41.9125 37.3126C42.2834 37.8676 42.8105 38.3002 43.4272 38.5556C44.0439 38.811 44.7225 38.8779 45.3772 38.7477C46.0319 38.6174 46.6332 38.296 47.1052 37.824C47.5772 37.352 47.8987 36.7506 48.0289 36.0959C48.1591 35.4412 48.0923 34.7626 47.8369 34.1459C47.5814 33.5292 47.1488 33.0021 46.5938 32.6313C46.0388 32.2604 45.3863 32.0625 44.7188 32.0625C43.8236 32.0625 42.9652 32.4181 42.3323 33.051C41.6993 33.684 41.3438 34.5424 41.3438 35.4375ZM46.4063 35.4375C46.4063 35.7713 46.3073 36.0975 46.1219 36.375C45.9364 36.6525 45.6729 36.8688 45.3645 36.9966C45.0562 37.1243 44.7169 37.1577 44.3895 37.0926C44.0622 37.0275 43.7615 36.8668 43.5255 36.6308C43.2895 36.3947 43.1288 36.0941 43.0637 35.7667C42.9986 35.4394 43.032 35.1001 43.1597 34.7917C43.2874 34.4834 43.5037 34.2198 43.7812 34.0344C44.0587 33.849 44.385 33.75 44.7188 33.75C45.1663 33.75 45.5955 33.9278 45.912 34.2443C46.2285 34.5607 46.4063 34.99 46.4063 35.4375Z" fill="#FFC977"/>
<path d="M49.7812 27.8438H39.6562C38.9849 27.8438 38.3411 28.1104 37.8664 28.5851C37.3917 29.0598 37.125 29.7037 37.125 30.375V40.5C37.125 41.1713 37.3917 41.8152 37.8664 42.2899C38.3411 42.7646 38.9849 43.0312 39.6562 43.0312H49.7812C50.4526 43.0312 51.0964 42.7646 51.5711 42.2899C52.0458 41.8152 52.3125 41.1713 52.3125 40.5V38.8125C52.3125 38.5887 52.2236 38.3741 52.0654 38.2159C51.9071 38.0576 51.6925 37.9688 51.4688 37.9688C51.245 37.9688 51.0304 38.0576 50.8721 38.2159C50.7139 38.3741 50.625 38.5887 50.625 38.8125V40.5C50.625 40.7238 50.5361 40.9384 50.3779 41.0966C50.2196 41.2549 50.005 41.3438 49.7812 41.3438H39.6562C39.4325 41.3438 39.2179 41.2549 39.0596 41.0966C38.9014 40.9384 38.8125 40.7238 38.8125 40.5V30.375C38.8125 30.1512 38.9014 29.9366 39.0596 29.7784C39.2179 29.6201 39.4325 29.5312 39.6562 29.5312H49.7812C50.005 29.5312 50.2196 29.6201 50.3779 29.7784C50.5361 29.9366 50.625 30.1512 50.625 30.375V39.6562C50.625 39.88 50.7139 40.0946 50.8721 40.2529C51.0304 40.4111 51.245 40.5 51.4688 40.5C51.6925 40.5 51.9071 40.4111 52.0654 40.2529C52.2236 40.0946 52.3125 39.88 52.3125 39.6562V30.375C52.3125 29.7037 52.0458 29.0598 51.5711 28.5851C51.0964 28.1104 50.4526 27.8438 49.7812 27.8438Z" fill="#FFC977"/>
<path d="M20.6466 11.6858C20.7808 11.769 20.9358 11.8129 21.0938 11.8124C21.2258 11.8116 21.3559 11.7798 21.4734 11.7196L26.5359 9.18833C26.6741 9.11752 26.7901 9.00995 26.8711 8.87745C26.9521 8.74496 26.995 8.59268 26.995 8.43739C26.995 8.2821 26.9521 8.12982 26.8711 7.99733C26.7901 7.86483 26.6741 7.75726 26.5359 7.68645L21.4734 5.1552C21.345 5.09048 21.2021 5.05966 21.0584 5.06568C20.9147 5.0717 20.775 5.11436 20.6524 5.18959C20.5298 5.26483 20.4285 5.37016 20.3581 5.49557C20.2876 5.62098 20.2504 5.76231 20.25 5.90614V10.9686C20.2497 11.112 20.286 11.2531 20.3554 11.3786C20.4247 11.5041 20.525 11.6098 20.6466 11.6858ZM21.9375 7.27301L24.2663 8.43739L21.9375 9.60176V7.27301Z" fill="#FFC977"/>
<path d="M22.7813 16.0313C24.2832 16.0313 25.7513 15.5859 27.0001 14.7515C28.2489 13.9171 29.2222 12.7311 29.797 11.3435C30.3717 9.95593 30.5221 8.42908 30.2291 6.95604C29.9361 5.48299 29.2128 4.12992 28.1508 3.06791C27.0888 2.00591 25.7358 1.28267 24.2627 0.989665C22.7897 0.696659 21.2628 0.84704 19.8752 1.42179C18.4877 1.99655 17.3017 2.96986 16.4673 4.21864C15.6329 5.46743 15.1875 6.9356 15.1875 8.4375C15.1875 10.4515 15.9876 12.383 17.4117 13.8071C18.8358 15.2312 20.7673 16.0313 22.7813 16.0313ZM22.7813 2.53125C23.9494 2.53125 25.0913 2.87765 26.0626 3.52664C27.0339 4.17562 27.7909 5.09805 28.2379 6.17728C28.6849 7.25651 28.8019 8.44406 28.574 9.58976C28.3461 10.7355 27.7836 11.7878 26.9576 12.6139C26.1316 13.4399 25.0792 14.0024 23.9335 14.2303C22.7878 14.4582 21.6003 14.3412 20.521 13.8942C19.4418 13.4471 18.5194 12.6901 17.8704 11.7188C17.2214 10.7476 16.875 9.60565 16.875 8.4375C16.875 6.87107 17.4973 5.36879 18.6049 4.26115C19.7125 3.15352 21.2148 2.53125 22.7813 2.53125Z" fill="#FFC977"/>
<path d="M31.2188 19.4063C31.3497 19.4063 31.4789 19.3758 31.5961 19.3172C31.7132 19.2586 31.8152 19.1736 31.8937 19.0688L34.425 15.6938C34.5593 15.5147 34.6169 15.2897 34.5853 15.0682C34.5536 14.8467 34.4353 14.6468 34.2562 14.5125C34.0772 14.3782 33.8522 14.3206 33.6307 14.3522C33.4091 14.3839 33.2093 14.5022 33.075 14.6813L30.5438 18.0563C30.4095 18.2353 30.3518 18.4603 30.3835 18.6818C30.4151 18.9034 30.5335 19.1032 30.7125 19.2375C30.8586 19.347 31.0362 19.4063 31.2188 19.4063Z" fill="#028BFC"/>
<path d="M33.075 22.4438C33.1536 22.5485 33.2555 22.6336 33.3727 22.6922C33.4898 22.7508 33.619 22.7813 33.75 22.7813C33.9326 22.7813 34.1102 22.722 34.2562 22.6125L37.6312 20.0813C37.8103 19.947 37.9286 19.7471 37.9603 19.5256C37.9919 19.3041 37.9343 19.079 37.8 18.9C37.6657 18.721 37.4658 18.6026 37.2443 18.571C37.0228 18.5393 36.7978 18.597 36.6187 18.7313L33.2438 21.2625C33.0647 21.3968 32.9464 21.5967 32.9147 21.8182C32.8831 22.0397 32.9407 22.2647 33.075 22.4438Z" fill="#028BFC"/>
<path d="M41.3435 24.3001C41.3234 24.1882 41.281 24.0816 41.2187 23.9865C41.1564 23.8915 41.0755 23.81 40.981 23.7469C40.8864 23.6839 40.7801 23.6406 40.6684 23.6197C40.5567 23.5987 40.4419 23.6006 40.331 23.6251L36.1122 24.4688C36.0014 24.4799 35.8939 24.5127 35.7957 24.5654C35.6976 24.618 35.6108 24.6894 35.5403 24.7756C35.3979 24.9497 35.3305 25.1732 35.3528 25.397C35.3752 25.6207 35.4856 25.8265 35.6596 25.9689C35.8337 26.1113 36.0572 26.1787 36.281 26.1563H36.4497L40.6685 25.3126C40.7803 25.2925 40.887 25.2501 40.982 25.1878C41.0771 25.1255 41.1586 25.0447 41.2216 24.9501C41.2847 24.8555 41.3279 24.7492 41.3489 24.6375C41.3698 24.5258 41.368 24.4111 41.3435 24.3001Z" fill="#028BFC"/>
<path d="M2.53125 24.4688H12.6562C12.88 24.4688 13.0946 24.3799 13.2529 24.2216C13.4111 24.0634 13.5 23.8488 13.5 23.625V10.125C13.5 9.90122 13.4111 9.68661 13.2529 9.52838C13.0946 9.37015 12.88 9.28125 12.6562 9.28125H2.53125C2.30747 9.28125 2.09286 9.37015 1.93463 9.52838C1.77639 9.68661 1.6875 9.90122 1.6875 10.125V23.625C1.6875 23.8488 1.77639 24.0634 1.93463 24.2216C2.09286 24.3799 2.30747 24.4688 2.53125 24.4688ZM3.375 10.9688H11.8125V22.7812H3.375V10.9688Z" fill="#028BFC"/>
<path d="M9.28125 12.6562H7.59375C7.36997 12.6562 7.15536 12.7451 6.99713 12.9034C6.8389 13.0616 6.75 13.2762 6.75 13.5C6.75 13.7238 6.8389 13.9384 6.99713 14.0966C7.15536 14.2549 7.36997 14.3438 7.59375 14.3438H9.28125C9.50503 14.3438 9.71964 14.2549 9.87787 14.0966C10.0361 13.9384 10.125 13.7238 10.125 13.5C10.125 13.2762 10.0361 13.0616 9.87787 12.9034C9.71964 12.7451 9.50503 12.6562 9.28125 12.6562Z" fill="#028BFC"/>
<path d="M9.28125 16.0312H5.90625C5.68247 16.0312 5.46786 16.1201 5.30963 16.2784C5.1514 16.4366 5.0625 16.6512 5.0625 16.875C5.0625 17.0988 5.1514 17.3134 5.30963 17.4716C5.46786 17.6299 5.68247 17.7188 5.90625 17.7188H9.28125C9.50503 17.7188 9.71964 17.6299 9.87787 17.4716C10.0361 17.3134 10.125 17.0988 10.125 16.875C10.125 16.6512 10.0361 16.4366 9.87787 16.2784C9.71964 16.1201 9.50503 16.0312 9.28125 16.0312Z" fill="#028BFC"/>
<path d="M9.28125 19.4062H5.90625C5.68247 19.4062 5.46786 19.4951 5.30963 19.6534C5.1514 19.8116 5.0625 20.0262 5.0625 20.25C5.0625 20.4738 5.1514 20.6884 5.30963 20.8466C5.46786 21.0049 5.68247 21.0938 5.90625 21.0938H9.28125C9.50503 21.0938 9.71964 21.0049 9.87787 20.8466C10.0361 20.6884 10.125 20.4738 10.125 20.25C10.125 20.0262 10.0361 19.8116 9.87787 19.6534C9.71964 19.4951 9.50503 19.4062 9.28125 19.4062Z" fill="#028BFC"/>
<path d="M28.9994 21.5791C28.944 21.4827 28.8701 21.3981 28.782 21.3303C28.694 21.2624 28.5934 21.2126 28.486 21.1836C28.3787 21.1546 28.2667 21.147 28.1564 21.1613C28.0462 21.1756 27.9398 21.2115 27.8434 21.2669C27.747 21.3223 27.6625 21.3961 27.5946 21.4842C27.5268 21.5723 27.4769 21.6729 27.4479 21.7802C27.4189 21.8875 27.4114 21.9995 27.4257 22.1098C27.44 22.2201 27.4758 22.3264 27.5312 22.4228L32.7287 31.4974L19.2287 36.5599C19.2287 36.5599 19.2287 36.5599 19.1697 36.5599H19.1022L16.9084 37.8255L15.4487 38.6692C15.2566 38.7803 15.0444 38.8524 14.8243 38.8814C14.6042 38.9103 14.3806 38.8956 14.1662 38.838C13.7356 38.7216 13.3685 38.4395 13.1453 38.0533L11.4578 35.1339C11.2593 34.752 11.2142 34.3086 11.3318 33.8945C11.4495 33.4804 11.7209 33.1269 12.0906 32.9064L15.01 31.2189L18.7014 37.1927C18.7757 37.3214 18.8828 37.4283 19.0117 37.5023C19.1406 37.5764 19.2868 37.6151 19.4354 37.6145C19.5838 37.6151 19.7298 37.5766 19.8585 37.5028C19.9872 37.4289 20.0942 37.3225 20.1687 37.1941C20.2431 37.0658 20.2824 36.92 20.2826 36.7716C20.2827 36.6232 20.2437 36.4774 20.1695 36.3489L16.4106 30.2655L26.9997 21.5327L27.3456 22.1317C27.401 22.2281 27.4749 22.3127 27.5629 22.3805C27.651 22.4484 27.7516 22.4982 27.8589 22.5272C27.9663 22.5562 28.0783 22.5638 28.1885 22.5495C28.2988 22.5352 28.4051 22.4993 28.5015 22.4439C28.5979 22.3885 28.6825 22.3147 28.7503 22.2266C28.8182 22.1385 28.8681 22.0379 28.897 21.9306C28.926 21.8233 28.9336 21.7113 28.9193 21.601C28.905 21.4907 28.8691 21.3844 28.8137 21.288L27.97 19.8283C27.9081 19.7226 27.824 19.6316 27.7235 19.5617C27.623 19.4917 27.5084 19.4445 27.3878 19.4233C27.2665 19.4004 27.1417 19.4045 27.0222 19.4351C26.9026 19.4657 26.7913 19.5221 26.6959 19.6005L14.8834 29.3374L11.289 31.413C10.644 31.7887 10.1417 32.3676 9.86081 33.0593C9.5799 33.7509 9.53619 34.5161 9.73654 35.2352L8.89279 35.7161C8.45806 35.9658 8.10724 36.3389 7.88483 36.7882C7.66241 37.2374 7.57841 37.7426 7.64349 38.2397C7.70856 38.7368 7.91977 39.2034 8.25034 39.5803C8.58091 39.9572 9.01594 40.2274 9.50029 40.3567C9.71502 40.4136 9.93629 40.442 10.1584 40.4411C10.6023 40.4393 11.0382 40.323 11.424 40.1036L12.2678 39.6227C12.6731 40.0414 13.1828 40.3443 13.7444 40.5002C14.0327 40.5808 14.3309 40.6206 14.6303 40.6183C15.2234 40.6197 15.806 40.4623 16.3178 40.1627L17.0519 39.7408L18.7394 42.6686C19.0747 43.2484 19.6262 43.6717 20.2731 43.8456C20.9199 44.0196 21.6093 43.9301 22.1903 43.5967C22.4785 43.4307 22.7312 43.2094 22.9338 42.9456C23.1365 42.6818 23.2852 42.3807 23.3714 42.0594C23.4576 41.7381 23.4796 41.403 23.4362 41.0732C23.3928 40.7434 23.2848 40.4254 23.1184 40.1374L21.5828 37.4627L34.239 32.7124C34.3538 32.6692 34.4578 32.6016 34.5438 32.5141C34.6298 32.4267 34.6956 32.3216 34.7369 32.2061C34.7779 32.092 34.7939 31.9704 34.7837 31.8495C34.7735 31.7287 34.7374 31.6114 34.6778 31.5058L28.9994 21.5791ZM10.5465 38.6355C10.4505 38.691 10.3444 38.7271 10.2343 38.7416C10.1243 38.756 10.0125 38.7487 9.90529 38.7199C9.68912 38.6637 9.50404 38.5241 9.39061 38.3317C9.33506 38.2356 9.29901 38.1295 9.28454 38.0195C9.27006 37.9095 9.27743 37.7977 9.30623 37.6905C9.33504 37.5827 9.38491 37.4818 9.45298 37.3934C9.52105 37.3051 9.60596 37.2311 9.70279 37.1758L10.4369 36.7539L11.2806 38.2136L10.5465 38.6355ZM21.6503 40.998C21.7058 41.0941 21.7419 41.2002 21.7564 41.3102C21.7708 41.4202 21.7635 41.532 21.7347 41.6392C21.6745 41.8537 21.5319 42.0357 21.3381 42.1455C21.1454 42.2562 20.9168 42.2864 20.7019 42.2295C20.4871 42.1726 20.3033 42.0333 20.1906 41.8417L18.5031 38.9139L19.9037 38.1124H19.9712L21.6503 40.998Z" fill="#028BFC"/>
</svg>
