<svg width="54" height="54" viewBox="0 0 54 54" fill="none" xmlns="http://www.w3.org/2000/svg">
<path d="M30.375 22.7812H54M23.625 22.7812H0M43.875 34.5938H54M37.125 34.5938H0M27 46.4062H54M20.25 46.4062H0M13.5 10.9688H54M6.75 10.9688H0" stroke="#028BFC" stroke-width="2"/>
<path d="M30.375 22.7812C30.375 24.6452 28.864 26.1562 27 26.1562C25.136 26.1562 23.625 24.6452 23.625 22.7812C23.625 20.9173 25.136 19.4062 27 19.4062C28.864 19.4062 30.375 20.9173 30.375 22.7812Z" stroke="#FFC977" stroke-width="2"/>
<path d="M43.875 34.5938C43.875 36.4577 42.364 37.9688 40.5 37.9688C38.636 37.9688 37.125 36.4577 37.125 34.5938C37.125 32.7298 38.636 31.2188 40.5 31.2188C42.364 31.2188 43.875 32.7298 43.875 34.5938Z" stroke="#FFC977" stroke-width="2"/>
<path d="M27 46.4062C27 48.2702 25.489 49.7812 23.625 49.7812C21.761 49.7812 20.25 48.2702 20.25 46.4062C20.25 44.5423 21.761 43.0312 23.625 43.0312C25.489 43.0312 27 44.5423 27 46.4062Z" stroke="#FFC977" stroke-width="2"/>
<path d="M13.5 10.9688C13.5 12.8327 11.989 14.3438 10.125 14.3438C8.26104 14.3438 6.75 12.8327 6.75 10.9688C6.75 9.10479 8.26104 7.59375 10.125 7.59375C11.989 7.59375 13.5 9.10479 13.5 10.9688Z" stroke="#FFC977" stroke-width="2"/>
</svg>
