<svg width="54" height="54" viewBox="0 0 54 54" fill="none" xmlns="http://www.w3.org/2000/svg">
<path fill-rule="evenodd" clip-rule="evenodd" d="M53.6559 13.98L34.9442 0.393246C34.7653 0.263413 34.5423 0.209624 34.3236 0.244534C34.1053 0.279234 33.9095 0.399152 33.7795 0.578027L25.6192 11.8166L24.4957 4.73656C24.4611 4.51814 24.3411 4.32249 24.1621 4.19245C23.9831 4.06241 23.7597 4.00914 23.5415 4.04374L0.703244 7.66797C0.248462 7.74011 -0.0617226 8.16736 0.0104181 8.62204L4.47081 36.7309C4.50551 36.9493 4.62542 37.145 4.8043 37.275C4.94763 37.3791 5.11923 37.434 5.2942 37.434C5.33766 37.434 5.38132 37.4306 5.42488 37.4237L10.6727 36.5909L10.6728 34.9026L5.98703 35.6461L1.7881 9.18429L22.9796 5.82152L24.2337 13.7248L22.4052 16.243L24.4658 16.2432L25.7857 14.4256L34.639 2.23262L52.0014 14.8394L40.3462 30.8912C39.5697 28.3188 37.8379 26.1264 35.4646 24.7657L33.7968 23.99C32.6443 23.5709 31.4341 23.3585 30.1836 23.3585C30.0671 23.3802 29.808 23.4161 29.4863 23.4607C28.9894 23.5296 28.3433 23.6192 27.8438 23.709C27.2383 23.8177 26.197 24.275 25.3216 24.6595C25.007 24.7977 24.7139 24.9264 24.4701 25.0262C23.5692 25.6021 22.7501 26.3174 22.0453 27.158C21.2138 28.1494 20.5818 29.2626 20.1602 30.4736L19.726 32.1413C19.6203 32.746 19.5668 33.3597 19.5668 33.9757C19.5668 35.2271 19.7789 36.4374 20.1973 37.5889L20.9728 39.2566C22.866 42.5607 26.3487 44.5929 30.1839 44.5929C31.4352 44.5929 32.6455 44.3808 33.7971 43.9624L35.4646 43.1862C36.0366 42.8577 36.5769 42.4784 37.0786 42.0494L39.1563 44.1271L38.4881 44.7953C38.1626 45.1208 38.1626 45.6488 38.4881 45.9745L46.0349 53.5212C46.1977 53.6841 46.4111 53.7655 46.6245 53.7655C46.8379 53.7655 47.0514 53.6841 47.2142 53.5212L49.7299 51.0056C49.8862 50.8493 49.974 50.6372 49.974 50.416C49.974 50.1948 49.8862 49.9827 49.7299 49.8264L42.183 42.2797C42.0266 42.1233 41.8145 42.0354 41.5933 42.0354C41.3722 42.0354 41.1602 42.1233 41.0037 42.2797L40.3355 42.9479L38.2579 40.8702C39.9033 38.9494 40.8009 36.5316 40.8009 33.9753C40.8009 33.7018 40.7895 33.4249 40.7681 33.1484L53.8408 15.1444C54.1115 14.7718 54.0287 14.2504 53.6559 13.98ZM32.5534 16.2432H29.7644C29.532 15.9572 29.5098 15.5408 29.7366 15.2284C30.0072 14.8557 30.5287 14.7731 30.9013 15.0436L32.5534 16.2432ZM35.4646 20.4179V18.357L40.9769 22.3595C41.3495 22.6301 41.4324 23.1515 41.1618 23.5242C40.9985 23.7488 40.7441 23.8681 40.4863 23.8681C40.3164 23.8681 40.1452 23.8163 39.9972 23.709L35.4646 20.4179ZM41.5932 44.0486L47.9608 50.4162L46.6244 51.7526L40.257 45.385L41.5932 44.0486ZM36.5121 40.3036C35.8468 40.9689 35.0858 41.5228 34.2512 41.9494C32.9851 42.5966 31.6166 42.9249 30.1838 42.9249C26.8047 42.9249 23.7492 41.0542 22.2097 38.0428C21.5627 36.7769 21.2344 35.408 21.2344 33.9754C21.2344 33.1491 21.3482 32.3277 21.5728 31.5343C21.918 30.3148 22.5071 29.2027 23.3234 28.2292C25.0304 26.1935 27.531 25.0259 30.1839 25.0259C31.615 25.0259 32.9836 25.3546 34.2512 26.0029C36.9506 27.3834 38.7561 29.9997 39.0804 33.0016L39.0807 33.0034C39.1156 33.3276 39.1334 33.6546 39.1334 33.9754C39.1333 36.3661 38.2024 38.6133 36.5121 40.3036ZM10.6728 29.3869L9.58025 29.5602C9.53606 29.5672 9.49197 29.5706 9.44852 29.5706C9.04563 29.5706 8.69125 29.2779 8.62607 28.8673C8.55393 28.4126 8.86412 27.9853 9.3189 27.9132L10.6728 27.6984V29.3869ZM10.6728 22.1827L8.46523 22.533C8.42104 22.54 8.37696 22.5434 8.3335 22.5434C7.93061 22.5434 7.57623 22.2507 7.51105 21.8401C7.43891 21.3854 7.7491 20.9581 8.20388 20.886L10.6728 20.4942V22.1827Z" fill="#028BFC"/>
<path d="M29.4878 23.3819C29.4256 23.3672 29.3608 23.3584 29.2941 23.3584H16.8426C16.3821 23.3584 16.0088 23.7318 16.0088 24.1922C16.0088 24.6527 16.3821 25.0261 16.8426 25.0261H24.4699C25.3276 24.6486 27.2875 23.8567 28.2654 23.7089C29.2433 23.561 29.4878 23.4293 29.4878 23.3819Z" fill="#00C9C9"/>
<path d="M20.1599 30.4735H16.8427C16.3823 30.4735 16.0089 30.8469 16.0089 31.3074C16.0089 31.7679 16.3823 32.1412 16.8427 32.1412H19.7258L20.1599 30.4735Z" fill="#00C9C9"/>
<path d="M20.1971 37.5888H16.8428C16.3824 37.5888 16.009 37.9622 16.009 38.4226C16.009 38.8831 16.3824 39.2565 16.8428 39.2565H20.9726L20.1971 37.5888Z" fill="#00C9C9"/>
<path d="M10.6729 36.5908V45.5373C10.6729 45.9978 11.0462 46.3712 11.5067 46.3712H34.6309C35.0914 46.3712 35.4647 45.9978 35.4647 45.5373V43.1861L33.7972 43.9623L33.7971 44.7036H12.3405V35.6144V28.4102V21.2062V17.9108H22.8289H22.8304H25.6097H32.2812H32.2829H33.7969V18.782V23.9899L35.4647 24.7657V20.4178V18.3569V17.077C35.4647 16.6165 35.0914 16.2431 34.6309 16.2431H32.5535H29.7645H25.6096H24.466L22.4053 16.2429H11.5067C11.0462 16.243 10.673 16.6163 10.673 17.0768V20.4941V22.1826V27.6983V29.3868V34.9025L10.6729 36.5908Z" fill="#00C9C9"/>
</svg>
