<svg width="50" height="50" viewBox="0 0 50 50" fill="none" xmlns="http://www.w3.org/2000/svg">
<path fill-rule="evenodd" clip-rule="evenodd" d="M47.5 50H37.5C36.1192 50 35 48.8808 35 47.5V42.5C35.0025 40.2 36.8667 38.3358 39.1667 38.3333H39.3633L39.5392 38.4167C41.4042 39.345 43.5958 39.345 45.4608 38.4167L45.6367 38.3333H45.8333C48.1333 38.3358 49.9975 40.2 50 42.5V47.5C50 48.8808 48.8808 50 47.5 50ZM48.3333 42.5C48.3333 41.1883 47.3192 40.1 46.0108 40.0067C43.7842 41.04 41.2158 41.04 38.9892 40.0067C37.6808 40.1 36.6667 41.1883 36.6667 42.5V47.5C36.6667 47.96 37.04 48.3333 37.5 48.3333H47.5C47.96 48.3333 48.3333 47.96 48.3333 47.5V42.5ZM42.5 37.5C39.7383 37.5 37.5 35.2617 37.5 32.5C37.5 29.7383 39.7383 27.5 42.5 27.5C45.26 27.5025 47.4975 29.74 47.5 32.5C47.5 35.2617 45.2617 37.5 42.5 37.5ZM42.5 29.1667C40.6592 29.1667 39.1667 30.6592 39.1667 32.5C39.1667 34.3408 40.6592 35.8333 42.5 35.8333C44.3408 35.8333 45.8333 34.3408 45.8333 32.5C45.8333 30.6592 44.3408 29.1667 42.5 29.1667ZM30 22.5H20C18.6192 22.5 17.5 21.3808 17.5 20V15C17.5025 12.7 19.3667 10.8358 21.6667 10.8333H21.8633L22.0392 10.9208C23.9042 11.8492 26.0958 11.8492 27.9608 10.9208L28.1367 10.8333H28.3333C30.6333 10.8358 32.4975 12.7 32.5 15V20C32.5 21.3808 31.3808 22.5 30 22.5ZM30.8333 15C30.8333 13.6883 29.8192 12.6 28.5108 12.5067C26.2842 13.54 23.7158 13.54 21.4892 12.5067C20.1808 12.6 19.1667 13.6883 19.1667 15V20C19.1667 20.46 19.54 20.8333 20 20.8333H30C30.46 20.8333 30.8333 20.46 30.8333 20V15ZM25 10C22.2383 10 20 7.76167 20 5C20 2.23833 22.2383 0 25 0C27.7617 0 30 2.23833 30 5C29.9975 7.76 27.76 9.9975 25 10ZM25 1.66667C23.1592 1.66667 21.6667 3.15917 21.6667 5C21.6667 6.84083 23.1592 8.33333 25 8.33333C26.8408 8.33333 28.3333 6.84083 28.3333 5C28.3333 3.15917 26.8408 1.66667 25 1.66667ZM12.5 50H2.5C1.11917 50 0 48.8808 0 47.5V42.5C0.0025 40.2 1.86667 38.3358 4.16667 38.3333H4.36333L4.53917 38.4167C6.40417 39.345 8.59583 39.345 10.4608 38.4167L10.6367 38.3333H10.8333C13.1333 38.3358 14.9975 40.2 15 42.5V47.5C15 48.8808 13.8808 50 12.5 50ZM13.3333 42.5C13.3333 41.1883 12.3192 40.1 11.0108 40.0067C8.78417 41.04 6.21583 41.04 3.98917 40.0067C2.68083 40.1 1.66667 41.1883 1.66667 42.5V47.5C1.66667 47.96 2.04 48.3333 2.5 48.3333H12.5C12.96 48.3333 13.3333 47.96 13.3333 47.5V42.5ZM7.5 37.5C4.73833 37.5 2.5 35.2617 2.5 32.5C2.5 29.7383 4.73833 27.5 7.5 27.5C10.26 27.5025 12.4975 29.74 12.5 32.5C12.5 35.2617 10.2617 37.5 7.5 37.5ZM7.5 29.1667C5.65917 29.1667 4.16667 30.6592 4.16667 32.5C4.16667 34.3408 5.65917 35.8333 7.5 35.8333C9.34083 35.8333 10.8333 34.3408 10.8333 32.5C10.8333 30.6592 9.34083 29.1667 7.5 29.1667Z" fill="#00C9C9"/>
<path fill-rule="evenodd" clip-rule="evenodd" d="M47.2575 23.089L44.7575 25.589C44.7567 25.589 44.7567 25.5898 44.7558 25.5907C44.43 25.9157 43.9025 25.9148 43.5775 25.589L41.0775 23.089C40.7658 22.7657 40.7658 22.254 41.0775 21.9315C41.3975 21.5998 41.925 21.5907 42.2558 21.9107L43.1958 22.8507C42.4342 16.3182 38.2267 10.6957 32.1733 8.12318C31.75 7.94318 31.5533 7.45317 31.7333 7.02984C31.9142 6.60651 32.4033 6.40984 32.8267 6.58984C39.5742 9.45651 44.2083 15.7907 44.8983 23.0898L46.0775 21.9107C46.4033 21.5857 46.93 21.5857 47.2558 21.9107C47.5817 22.2357 47.5825 22.7632 47.2575 23.089ZM32.1733 41.8773C32.5967 41.6973 33.0858 41.894 33.2667 42.3173C33.2675 42.3182 33.2675 42.319 33.2675 42.3198C33.4475 42.744 33.2492 43.2332 32.825 43.4123C28.5175 45.2373 23.7067 45.499 19.2258 44.1523L19.9042 45.449C20.1175 45.8573 19.9592 46.3607 19.5508 46.574C19.1425 46.7873 18.6392 46.629 18.4258 46.2207L16.7592 43.0315C16.75 43.0198 16.755 43.0065 16.75 42.9948C16.715 42.8857 16.6867 42.774 16.6667 42.6615C16.6633 42.5432 16.685 42.4265 16.73 42.3173C16.7767 42.209 16.8467 42.1123 16.9342 42.034C16.9608 42.0148 16.9883 41.9973 17.0175 41.9815C17.0833 41.9315 17.155 41.8907 17.2325 41.8623C17.2442 41.8582 17.2533 41.844 17.2658 41.844L20.5992 40.8665C21.0408 40.7373 21.5042 40.9907 21.6333 41.4323C21.7625 41.874 21.5092 42.3373 21.0675 42.4665L20.2875 42.6957C24.2317 43.7423 28.4108 43.454 32.1733 41.8773ZM18.2567 7.69068C18.25 7.69901 18.25 7.70818 18.25 7.71651L16.5833 11.194C16.445 11.4823 16.1533 11.6657 15.8333 11.6665C15.7083 11.6665 15.585 11.6382 15.4725 11.5832C15.0592 11.3832 14.885 10.8865 15.0833 10.4723L15.6858 9.21317C10.0942 12.5048 6.6625 18.5107 6.66667 24.9998C6.66667 25.4598 6.29334 25.8332 5.83334 25.8332C5.37334 25.8332 5 25.4598 5 24.9998C4.995 17.6307 9.04917 10.8582 15.5467 7.38068L13.8208 6.59151C13.4325 6.39567 13.26 5.93318 13.425 5.53068C13.6 5.10484 14.0867 4.90151 14.5125 5.07651L17.8458 6.59901C17.8783 6.61901 17.91 6.64151 17.9392 6.66651C17.9975 6.69651 18.0525 6.73401 18.1017 6.77734C18.1375 6.81984 18.17 6.86568 18.1967 6.91484C18.2258 6.95068 18.2525 6.98901 18.275 7.02984C18.275 7.03651 18.2717 7.04234 18.275 7.05068C18.2783 7.05901 18.2875 7.06401 18.2875 7.07151C18.2992 7.11901 18.3067 7.16734 18.3092 7.21568C18.3225 7.26818 18.3308 7.32234 18.3333 7.37651C18.3267 7.42318 18.3158 7.46901 18.3017 7.51401C18.2933 7.57401 18.2783 7.63401 18.2567 7.69068Z" fill="#028BFC"/>
</svg>
