<svg width="54" height="54" viewBox="0 0 54 54" fill="none" xmlns="http://www.w3.org/2000/svg">
<path d="M15.1875 25.313H13.5C12.1027 25.3145 10.9702 26.4469 10.9688 27.8442V29.5318C10.9702 30.9291 12.1027 32.0615 13.5 32.063H15.1875C16.5849 32.0615 17.7173 30.9291 17.7188 29.5318V27.8442C17.7173 26.4469 16.5849 25.3146 15.1875 25.313ZM16.0314 29.5318C16.0309 29.9976 15.6534 30.3751 15.1876 30.3755H13.5001C13.0343 30.375 12.6568 29.9976 12.6564 29.5318V27.8442C12.6569 27.3784 13.0343 27.0009 13.5001 27.0005H15.1876C15.6534 27.001 16.031 27.3784 16.0314 27.8442V29.5318Z" fill="#028BFC"/>
<path d="M28.6875 25.313H27C25.6027 25.3145 24.4702 26.4469 24.4688 27.8442V29.5318C24.4702 30.9291 25.6027 32.0615 27 32.063H28.6875C30.0849 32.0615 31.2173 30.9291 31.2188 29.5318V27.8442C31.2172 26.4469 30.0849 25.3146 28.6875 25.313ZM29.5313 29.5318C29.5308 29.9976 29.1532 30.3751 28.6875 30.3755H27C26.5342 30.375 26.1567 29.9976 26.1563 29.5318V27.8442C26.1568 27.3784 26.5342 27.0009 27 27.0005H28.6875C29.1533 27.001 29.5309 27.3784 29.5313 27.8442V29.5318Z" fill="#028BFC"/>
<path d="M36.2813 27.0766V25.3129C36.2793 23.4498 34.7695 21.9399 32.9063 21.9379H25.0047L25.9687 21.2367C26.1684 21.0917 26.2946 20.8665 26.314 20.6205C26.3334 20.3745 26.2439 20.1323 26.0693 19.9579L21.0705 14.9588C20.9521 13.1604 19.4386 11.7742 17.6367 11.8138C15.8349 11.8535 14.3838 13.3049 14.3445 15.1068C14.3053 16.9087 15.6919 18.4219 17.4903 18.5399L19.4051 20.449L17.3302 21.9378H9.28125C7.41811 21.9398 5.90826 23.4497 5.90628 25.3128V27.0765C3.47104 27.4855 1.6875 29.5936 1.6875 32.0628C1.6875 34.5321 3.47104 36.6401 5.90628 37.0491V38.8128C5.90826 40.6759 7.41811 42.1858 9.28125 42.1877H15.343C15.0171 43.0585 15.2119 44.0388 15.8459 44.719C15.2118 45.3992 15.0171 46.3794 15.3431 47.2502H9.28125C7.41811 47.2522 5.90826 48.7621 5.90628 50.6252V51.4689C5.90618 51.6927 5.99507 51.9073 6.15338 52.0656C6.31158 52.2238 6.52624 52.3127 6.7501 52.3127H35.3672C35.3797 52.3127 35.39 52.3061 35.4024 52.3056C35.4147 52.3061 35.4251 52.3127 35.4376 52.3127C35.6613 52.3128 35.876 52.2239 36.0343 52.0656C36.1925 51.9074 36.2814 51.6928 36.2814 51.4689V50.6252C36.2794 48.7621 34.7696 47.2522 32.9064 47.2502H26.8447C27.1706 46.3794 26.9758 45.3992 26.3418 44.719C26.9758 44.0388 27.1706 43.0585 26.8447 42.1877H32.9064C34.7696 42.1858 36.2794 40.6759 36.2814 38.8128V37.0491C38.7165 36.6401 40.5002 34.5321 40.5002 32.0628C40.5002 29.5936 38.7164 27.4855 36.2813 27.0766ZM5.90628 35.318C4.41739 34.9396 3.37503 33.5991 3.37503 32.0628C3.37503 30.5266 4.41739 29.1862 5.90628 28.8077V35.318ZM20.6161 16.8906L24.1779 20.453L22.1357 21.9378H20.225L21.1975 21.24C21.3988 21.0954 21.5265 20.8696 21.5464 20.6226C21.5664 20.3756 21.4767 20.1321 21.3012 19.957L19.4231 18.0842C19.9155 17.7937 20.3259 17.383 20.6161 16.8906ZM17.7187 16.8753C16.7867 16.8753 16.0312 16.1198 16.0312 15.1878C16.0312 14.2558 16.7867 13.5003 17.7187 13.5003C18.6507 13.5003 19.4062 14.2558 19.4062 15.1878C19.4052 16.1194 18.6503 16.8742 17.7187 16.8753ZM32.9062 48.9379C33.8377 48.9389 34.5927 49.6938 34.5938 50.6254H7.59372C7.5948 49.6939 8.34963 48.9389 9.28125 48.9379H32.9062ZM17.7187 43.8754C17.2527 43.8754 16.875 43.4977 16.875 43.0316C16.875 42.5656 17.2527 42.1879 17.7187 42.1879H24.4688C24.9348 42.1879 25.3125 42.5656 25.3125 43.0316C25.3125 43.4977 24.9348 43.8754 24.4688 43.8754C24.0027 43.8754 23.625 44.2531 23.625 44.7191C23.625 45.1851 24.0027 45.5628 24.4688 45.5628C24.9348 45.5628 25.3125 45.9406 25.3125 46.4065C25.3125 46.8725 24.9348 47.2502 24.4688 47.2502H17.7187C17.2527 47.2502 16.875 46.8724 16.875 46.4065C16.875 45.9405 17.2527 45.5628 17.7187 45.5628C18.1847 45.5628 18.5624 45.1851 18.5624 44.7191C18.5624 44.2531 18.1847 43.8754 17.7187 43.8754ZM29.5312 40.5003H12.6562V38.8128H29.5312V40.5003ZM29.5312 37.1253H12.6562V36.2816C12.6567 35.8158 13.0341 35.4383 13.4999 35.4379H28.6874C29.1532 35.4384 29.5308 35.8158 29.5312 36.2816V37.1253H29.5312ZM34.5938 38.8129C34.5927 39.7444 33.8378 40.4993 32.9062 40.5004H31.2187V36.2816C31.2172 34.8843 30.0848 33.7518 28.6874 33.7504H13.4999C12.1026 33.7518 10.9702 34.8843 10.9687 36.2816V40.5004H9.28125C8.34973 40.4993 7.5948 39.7445 7.59372 38.8129V25.3128C7.5948 24.3813 8.34963 23.6264 9.28125 23.6253H32.9062C33.8377 23.6264 34.5927 24.3812 34.5938 25.3128V38.8129ZM36.2813 35.318V28.8077C37.7702 29.1861 38.8125 30.5266 38.8125 32.0628C38.8125 33.5991 37.7702 34.9395 36.2813 35.318Z" fill="#028BFC"/>
<path d="M50.6246 1.6875H32.9058C31.9743 1.68859 31.2193 2.44341 31.2183 3.37503V18.5609C31.2193 19.4924 31.9742 20.2473 32.9058 20.2484H42.1871V24.4672C42.1797 25.1961 42.6476 25.8449 43.3415 26.0682C44.053 26.3101 44.8385 26.0475 45.2614 25.4263L48.5565 20.2484H50.6247C51.5562 20.2473 52.3111 19.4924 52.3122 18.5609V3.37503C52.311 2.44341 51.5562 1.68859 50.6246 1.6875ZM50.6246 18.5609H48.0933C47.8049 18.561 47.5364 18.7082 47.3814 18.9514L43.8745 24.4671V19.4046C43.8746 19.1808 43.7857 18.9661 43.6274 18.8078C43.4692 18.6496 43.2546 18.5608 43.0307 18.5608H32.9057V3.37503L50.6245 3.37414V18.5609H50.6246Z" fill="#C9BEA4"/>
<path d="M36.2816 11.8125C36.5054 11.8128 36.7201 11.7238 36.8781 11.5653L39.7356 8.7078L42.5252 10.7999C42.8609 11.0527 43.3315 11.0192 43.6281 10.7216L46.4066 7.94318V8.43757C46.4066 8.90357 46.7844 9.28128 47.2503 9.28128C47.7162 9.28128 48.094 8.90357 48.094 8.43757V5.90632C48.0922 5.80526 48.072 5.7054 48.0345 5.61166C48.0232 5.58417 48.0105 5.55728 47.9963 5.53118C47.9121 5.35864 47.7707 5.2207 47.5963 5.14061C47.5887 5.13735 47.5831 5.13132 47.5754 5.12806L47.5732 5.12677C47.4796 5.08959 47.38 5.06982 47.2793 5.06833C47.2691 5.06804 47.2606 5.0625 47.2503 5.0625H44.719C44.253 5.0625 43.8753 5.44021 43.8753 5.90622C43.8753 6.37222 44.253 6.74993 44.719 6.74993H45.2134L42.9524 9.01095L40.1629 6.91891C39.8274 6.66579 39.3564 6.69921 39.06 6.99723L35.685 10.3722C35.4438 10.6135 35.3717 10.9763 35.5022 11.2916C35.6327 11.6069 35.9403 11.8124 36.2816 11.8125Z" fill="#C9BEA4"/>
<path d="M36.2816 16.8752C36.5054 16.8753 36.72 16.7864 36.8783 16.6281C37.0365 16.4699 37.1254 16.2553 37.1254 16.0314V14.344C37.1254 13.878 36.7477 13.5002 36.2817 13.5002C35.8157 13.5002 35.438 13.878 35.438 14.344V16.0315C35.4379 16.2553 35.5268 16.4699 35.6851 16.6282C35.8431 16.7864 36.0578 16.8753 36.2816 16.8752Z" fill="#C9BEA4"/>
<path d="M39.6563 10.9688C39.4326 10.9687 39.2179 11.0575 39.0596 11.2158C38.9014 11.374 38.8125 11.5887 38.8125 11.8126V16.0313C38.8125 16.4974 39.1902 16.8751 39.6562 16.8751C40.1222 16.8751 40.4999 16.4973 40.4999 16.0313V11.8125C40.5 11.5887 40.4111 11.374 40.2528 11.2157C40.0947 11.0575 39.8801 10.9687 39.6563 10.9688Z" fill="#C9BEA4"/>
<path d="M43.0313 12.6567C42.8076 12.6566 42.5929 12.7455 42.4346 12.9038C42.2764 13.062 42.1875 13.2767 42.1875 13.5006V16.0318C42.1875 16.4978 42.5652 16.8755 43.0312 16.8755C43.4972 16.8755 43.8749 16.4977 43.8749 16.0318V13.5006C43.875 13.2768 43.7861 13.0621 43.6278 12.9038C43.4698 12.7456 43.2552 12.6567 43.0313 12.6567Z" fill="#C9BEA4"/>
<path d="M46.4063 10.9688C46.1826 10.9687 45.9679 11.0575 45.8096 11.2158C45.6514 11.374 45.5625 11.5887 45.5625 11.8126V16.0313C45.5625 16.4974 45.9403 16.8751 46.4062 16.8751C46.8722 16.8751 47.2499 16.4973 47.2499 16.0313V11.8125C47.25 11.5887 47.1611 11.374 47.0028 11.2157C46.8447 11.0575 46.6301 10.9687 46.4063 10.9688Z" fill="#C9BEA4"/>
</svg>
