<svg width="54" height="54" viewBox="0 0 54 54" fill="none" xmlns="http://www.w3.org/2000/svg">
<path d="M51.2069 0.174561H2.7931C1.2505 0.174561 0 1.42506 0 2.96766C0 4.51027 1.2505 5.76077 2.7931 5.76077V43.9332C2.7931 44.4473 3.20997 44.8642 3.72414 44.8642H14.8211L8.58321 52.6616L10.0375 53.8254L17.2064 44.8642H26.069V46.8976C24.6146 47.4118 23.8524 49.0077 24.3667 50.4619C24.8808 51.9163 26.4768 52.6785 27.931 52.1642C29.3853 51.6499 30.1476 50.0541 29.6333 48.5999C29.3521 47.8044 28.7264 47.1788 27.931 46.8976V44.8642H36.7936L43.9625 53.8254L45.4168 52.6616L39.1789 44.8642H50.2759C50.79 44.8642 51.2069 44.4473 51.2069 43.9332V5.76077C52.7495 5.76077 54 4.51027 54 2.96766C54 1.42506 52.7495 0.174561 51.2069 0.174561ZM27 50.4504C26.4858 50.4504 26.069 50.0336 26.069 49.5194C26.069 49.0052 26.4858 48.5884 27 48.5884C27.5142 48.5884 27.931 49.0052 27.931 49.5194C27.931 50.0336 27.5142 50.4504 27 50.4504ZM49.3448 43.0021H4.65517V5.76077H49.3448V43.0021ZM51.2069 3.8987H2.7931C2.27894 3.8987 1.86207 3.48183 1.86207 2.96766C1.86207 2.4535 2.27894 2.03663 2.7931 2.03663H51.2069C51.7211 2.03663 52.1379 2.4535 52.1379 2.96766C52.1379 3.48183 51.7211 3.8987 51.2069 3.8987Z" fill="#028BFC"/>
<path d="M23.2755 29.9678H8.37891V31.8298H23.2755V29.9678Z" fill="#00C9C9"/>
<path d="M23.2755 33.6919H8.37891V35.554H23.2755V33.6919Z" fill="#00C9C9"/>
<path d="M19.5513 37.416H8.37891V39.2781H19.5513V37.416Z" fill="#00C9C9"/>
<path d="M23.2754 26.2437H15.8271V28.1057H23.2754V26.2437Z" fill="#00C9C9"/>
<path d="M45.6212 13.209H30.7246V15.0711H45.6212V13.209Z" fill="#028BFC"/>
<path d="M45.6212 16.9331H30.7246V18.7952H45.6212V16.9331Z" fill="#028BFC"/>
<path d="M41.897 20.6572H30.7246V22.5193H41.897V20.6572Z" fill="#028BFC"/>
<path d="M45.6211 9.48486H38.1729V11.3469H45.6211V9.48486Z" fill="#028BFC"/>
<path d="M15.8272 8.55396C11.7136 8.55396 8.37891 11.8887 8.37891 16.0022C8.38356 20.1139 11.7155 23.4459 15.8272 23.4505C19.9407 23.4505 23.2755 20.1158 23.2755 16.0022C23.2755 11.8887 19.9407 8.55396 15.8272 8.55396ZM16.7861 10.5054C18.2081 10.7542 19.4781 11.5446 20.3297 12.7101L16.7582 14.494L16.7861 10.5054ZM12.6078 11.4464C13.2998 10.9585 14.0938 10.6348 14.9297 10.4997L14.8961 15.6298L11.2651 19.2115C9.49161 16.6964 10.0927 13.22 12.6078 11.4464ZM17.4558 21.3453C16.9279 21.5064 16.3792 21.5883 15.8272 21.5884C14.6565 21.5886 13.5159 21.2184 12.5686 20.5308L16.3933 16.7601L21.1685 14.372C22.0688 17.3229 20.4066 20.4449 17.4558 21.3453Z" fill="#00C9C9"/>
<path d="M30.7244 34.6228H28.8623V39.278H30.7244V34.6228Z" fill="#00C9C9"/>
<path d="M45.6209 32.7607H43.7588V39.278H45.6209V32.7607Z" fill="#00C9C9"/>
<path d="M34.448 31.8298H32.5859V39.2781H34.448V31.8298Z" fill="#00C9C9"/>
<path d="M38.1726 28.1057H36.3105V39.2781H38.1726V28.1057Z" fill="#00C9C9"/>
<path d="M41.8962 30.8987H40.0342V39.278H41.8962V30.8987Z" fill="#00C9C9"/>
<path d="M13.9656 26.2437H12.1035V28.1057H13.9656V26.2437Z" fill="#00C9C9"/>
<path d="M36.3103 9.48486H34.4482V11.3469H36.3103V9.48486Z" fill="#028BFC"/>
</svg>
