<svg width="54" height="54" viewBox="0 0 54 54" fill="none" xmlns="http://www.w3.org/2000/svg">
<path fill-rule="evenodd" clip-rule="evenodd" d="M54 20.9032V13.0645C54 10.6634 52.0463 8.70968 49.6452 8.70968H24.9391C24.7894 8.3954 24.6299 8.08324 24.4526 7.7813L25.4643 5.75783L22.114 2.40664L20.0905 3.41838C19.1247 2.85063 18.0951 2.42195 17.0204 2.1417L16.3056 0H11.5663L10.8522 2.1417C9.77755 2.42195 8.74795 2.84978 7.78215 3.41838L5.75698 2.40664L2.40664 5.75698L3.41838 7.78045C2.85063 8.74625 2.42195 9.77585 2.1417 10.8505L0 11.5654V16.3047L2.1417 17.0187C2.42195 18.0934 2.84978 19.123 3.41838 20.0888L2.40664 22.114L5.75783 25.4652L7.7813 24.4534C8.79686 25.051 9.88217 25.4924 11.0177 25.7726L12.1935 27.3517V45.2903H1.74194V49.6452C1.74194 52.0463 3.69566 54 6.09677 54H42.6774C45.0785 54 47.0323 52.0463 47.0323 49.6452V43.5484H45.2903V49.6452C45.2903 51.0856 44.1178 52.2581 42.6774 52.2581C41.237 52.2581 40.0645 51.0856 40.0645 49.6452V45.2903H13.9355V13.0645C13.9355 11.6241 15.108 10.4516 16.5484 10.4516H46.1838C45.631 11.1814 45.2903 12.0804 45.2903 13.0645V22.6452H47.0323V20.9032H54ZM52.2581 19.1613V13.0645C52.2581 11.6241 51.0856 10.4516 49.6452 10.4516C48.2047 10.4516 47.0323 11.6241 47.0323 13.0645V19.1613H52.2581ZM11.7109 24.1443L12.029 24.2136L12.1935 24.436V22.4699C8.17128 21.6568 5.22581 18.1177 5.22581 13.9355C5.22581 9.13283 9.13283 5.22581 13.9355 5.22581C16.6823 5.22581 19.2404 6.52715 20.8849 8.71053H22.9684C22.9424 8.66572 22.9171 8.6207 22.8918 8.57571L22.862 8.52271C22.8188 8.44628 22.7749 8.37024 22.7272 8.29588L22.458 7.87869L23.3473 6.10103L21.7716 4.52537L19.994 5.41463L19.5768 5.14585C18.5221 4.46796 17.373 3.98995 16.1618 3.7267L15.6774 3.62166L15.0501 1.74194H12.8217L12.1952 3.62166L11.7109 3.7267C10.4997 3.98995 9.35057 4.46796 8.29588 5.14585L7.87869 5.41463L6.10103 4.52537L4.52537 6.10103L5.41463 7.87698L5.14585 8.29418C4.46796 9.34887 3.98995 10.498 3.7267 11.7092L3.62166 12.1935L1.74194 12.8208V15.0493L3.62166 15.6757L3.7267 16.1601C3.98995 17.3713 4.46796 18.5204 5.14585 19.5751L5.41463 19.9923L4.52537 21.7699L6.10103 23.3456L7.87869 22.4563L8.29588 22.7251C9.35057 23.403 10.4997 23.881 11.7109 24.1443ZM12.1935 16.9464V13.0645C12.1935 12.1536 12.4768 11.3085 12.9573 10.6085C11.5144 11.0342 10.4516 12.3564 10.4516 13.9355C10.4516 15.2011 11.144 16.3357 12.1935 16.9464ZM13.9355 8.70968C14.405 8.70968 14.8656 8.78708 15.3142 8.90998C15.708 8.79261 16.1163 8.70968 16.5484 8.70968H18.5404C17.2816 7.60098 15.6532 6.96774 13.9355 6.96774C10.0935 6.96774 6.96774 10.0935 6.96774 13.9355C6.96774 17.1582 9.15664 19.8991 12.1935 20.677V18.8496C10.1407 18.1206 8.70968 16.1644 8.70968 13.9355C8.70968 11.0534 11.0534 8.70968 13.9355 8.70968ZM3.48387 49.6452C3.48387 51.0856 4.65636 52.2581 6.09677 52.2581H39.1952C38.6475 51.53 38.3226 50.625 38.3226 49.6452V47.0323H3.48387V49.6452Z" fill="#028BFC"/>
<path fill-rule="evenodd" clip-rule="evenodd" d="M47.0321 43.5485H53.9999V22.6453H47.0321H45.2902H26.1289V43.5485H45.2902H47.0321ZM27.8708 27.8711V41.8066H52.2579V27.8711H27.8708ZM27.8708 26.1291H52.2579V24.3872H27.8708V26.1291Z" fill="#00C9C9"/>
<path d="M36.836 30.739L32.7363 34.8387L36.836 38.9384L38.0676 37.7068L35.1995 34.8387L38.0676 31.9706L36.836 30.739Z" fill="#00C9C9"/>
<path d="M42.0615 31.9706L44.9296 34.8387L42.0615 37.7068L43.2931 38.9384L47.3928 34.8387L43.2931 30.739L42.0615 31.9706Z" fill="#00C9C9"/>
<path d="M38.335 39.9242L40.0739 29.4722L41.792 29.758L40.0535 40.2104L38.335 39.9242Z" fill="#00C9C9"/>
<path d="M15.6777 12.1936H17.4197V13.9355H15.6777V12.1936Z" fill="#028BFC"/>
<path d="M19.1611 12.1936H43.5482V13.9355H19.1611V12.1936Z" fill="#028BFC"/>
<path d="M15.6777 15.6775H43.5487V17.4194H15.6777V15.6775Z" fill="#028BFC"/>
<path d="M15.6777 19.1614H26.1293V20.9033H15.6777V19.1614Z" fill="#028BFC"/>
<path d="M27.8711 19.1614H43.5485V20.9033H27.8711V19.1614Z" fill="#028BFC"/>
<path d="M15.6777 22.6453H24.3874V24.3872H15.6777V22.6453Z" fill="#028BFC"/>
<path d="M15.6777 26.1292H24.3874V27.8711H15.6777V26.1292Z" fill="#028BFC"/>
<path d="M15.6777 29.6128H24.3874V31.3547H15.6777V29.6128Z" fill="#028BFC"/>
</svg>
