<svg width="54" height="54" viewBox="0 0 54 54" fill="none" xmlns="http://www.w3.org/2000/svg">
<path d="M26.9996 47.7V32.4C26.9996 31.9032 26.5973 31.5 26.0996 31.5H22.4996C22.0019 31.5 21.5996 31.9032 21.5996 32.4V47.7H19.7996V42.3C19.7996 41.8032 19.3973 41.4 18.8996 41.4H15.2996C14.8019 41.4 14.3996 41.8032 14.3996 42.3V47.7H12.5996V36C12.5996 35.5032 12.1973 35.1 11.6996 35.1H8.09961C7.60191 35.1 7.19961 35.5032 7.19961 36V47.7H3.59961V49.5H8.09961H11.6996H15.2996H18.8996H22.4996H26.0996H30.5996V47.7H26.9996ZM10.7996 47.7H8.99961V36.9H10.7996V47.7ZM17.9996 47.7H16.1996V43.2H17.9996V47.7ZM25.1996 47.7H23.3996V33.3H25.1996V47.7Z" fill="#028BFC"/>
<path d="M23.3177 12.2914C23.306 12.1996 23.2898 12.1087 23.2754 12.0169C23.225 11.6812 23.1575 11.3518 23.0738 11.0278C23.0567 10.9621 23.0414 10.8964 23.0234 10.8307C22.7948 10.0171 22.4654 9.2467 22.0487 8.5321C22.0397 8.5168 22.0334 8.4997 22.0244 8.4844C22.0109 8.461 21.9929 8.4403 21.9785 8.4169C21.7796 8.0857 21.5627 7.7671 21.3269 7.4629C21.3071 7.4377 21.2891 7.4107 21.2693 7.3855C20.7527 6.7303 20.1542 6.1444 19.4909 5.6377C19.4711 5.6224 19.4504 5.6071 19.4297 5.5918C18.4505 4.8556 17.3336 4.2976 16.1213 3.9637C16.0628 3.9475 16.0034 3.9331 15.944 3.9178C15.6218 3.835 15.2942 3.7693 14.9594 3.7198C14.8712 3.7063 14.7848 3.6901 14.6966 3.6793C14.3051 3.6325 13.9064 3.6001 13.4996 3.6001C13.1207 3.6001 12.7472 3.6262 12.3791 3.6685C12.2927 3.6784 12.2081 3.6955 12.1217 3.7081C11.831 3.7486 11.5439 3.7999 11.2622 3.8656C11.1785 3.8854 11.0957 3.9079 11.0129 3.9295C10.7213 4.0051 10.436 4.0933 10.1552 4.1941C10.0904 4.2175 10.0247 4.2409 9.96081 4.2652C9.64491 4.3867 9.33711 4.5226 9.03741 4.6747C9.01131 4.6882 8.98431 4.6999 8.95821 4.7134C8.28231 5.0635 7.65321 5.4883 7.07901 5.9788C7.03941 6.013 7.00161 6.0508 6.96111 6.0859C6.72621 6.2929 6.50211 6.5107 6.28791 6.7384C6.22851 6.8023 6.17001 6.8671 6.11151 6.9328C5.91081 7.1587 5.72091 7.3927 5.54181 7.6357C5.51301 7.6753 5.47881 7.7095 5.45001 7.7491C5.44461 7.7563 5.44371 7.7653 5.43921 7.7734C4.28541 9.3916 3.59961 11.3653 3.59961 13.5001C3.59961 18.9586 8.04111 23.4001 13.4996 23.4001C14.6615 23.4001 15.7721 23.1886 16.808 22.8196C16.8143 22.8178 16.8206 22.8187 16.8269 22.816C16.862 22.8034 16.8944 22.7881 16.9295 22.7746C17.1347 22.6981 17.3381 22.6198 17.5361 22.5307C17.564 22.5181 17.591 22.5037 17.6198 22.4902C18.0239 22.3048 18.4127 22.0933 18.7844 21.8566C18.824 21.8314 18.8654 21.8089 18.905 21.7837C19.0526 21.6874 19.1939 21.583 19.3361 21.4786C19.4252 21.4129 19.5143 21.3481 19.6016 21.2806C19.733 21.1771 19.8608 21.0709 19.9868 20.9611C20.0741 20.8846 20.1596 20.8063 20.2442 20.7271C20.3666 20.6128 20.4881 20.4994 20.6042 20.3797C20.6744 20.3068 20.7401 20.2294 20.8085 20.1547C21.0353 19.9054 21.2495 19.6453 21.4511 19.3735C21.5024 19.3042 21.5564 19.2376 21.6059 19.1665C21.7076 19.0216 21.8012 18.8722 21.8948 18.7219C21.9497 18.6337 22.0046 18.5455 22.0568 18.4555C22.1441 18.3043 22.2287 18.1522 22.3088 17.9965C22.3574 17.9011 22.4024 17.8048 22.4483 17.7076C22.523 17.5501 22.5977 17.3935 22.6643 17.2315C22.7138 17.11 22.7552 16.9849 22.8002 16.8616C22.8875 16.6195 22.9667 16.3747 23.036 16.1245C23.0792 15.9697 23.1206 15.8149 23.1566 15.6574C23.1845 15.5314 23.2088 15.4054 23.2322 15.2776C23.2664 15.094 23.2934 14.9086 23.3168 14.7214C23.3303 14.6152 23.3447 14.5099 23.3546 14.4028C23.3816 14.1049 23.3996 13.8043 23.3996 13.5001C23.3996 13.0906 23.3672 12.6883 23.3177 12.2914ZM7.54881 8.0236C7.69911 7.8598 7.85571 7.7032 8.01861 7.5538C8.06001 7.516 8.10051 7.4782 8.14281 7.4413C8.31471 7.2892 8.49381 7.1443 8.67741 7.0084C8.71251 6.9823 8.74761 6.9544 8.78361 6.9283C8.98341 6.7852 9.18951 6.6511 9.40101 6.526C9.42531 6.5116 9.44871 6.4963 9.47211 6.4828C9.70161 6.3505 9.93651 6.2299 10.1777 6.121C10.1876 6.1165 10.1975 6.1111 10.2083 6.1066C10.463 5.9923 10.7231 5.8915 10.9877 5.8042C11.2532 5.7169 11.5232 5.6431 11.7977 5.5837C11.8004 5.5828 11.8031 5.5819 11.8058 5.5819C12.0659 5.5261 12.3296 5.4847 12.596 5.4541C12.614 5.4523 12.6311 5.4478 12.6491 5.446C12.929 5.4154 13.2134 5.4001 13.4996 5.4001C13.8047 5.4001 14.1071 5.4199 14.4068 5.4541C14.4671 5.4604 14.5247 5.473 14.585 5.4811C14.8316 5.5153 15.0773 5.5567 15.3185 5.6134C15.3671 5.6251 15.4148 5.6386 15.4634 5.6512C15.7208 5.716 15.9746 5.7916 16.223 5.8816C16.2509 5.8915 16.2797 5.9023 16.3076 5.9122C17.4578 6.3424 18.5063 7.0282 19.3604 7.9246C19.364 7.9282 19.3667 7.9318 19.3703 7.9354C19.5728 8.1478 19.7618 8.3746 19.9418 8.6095C19.9517 8.623 19.9616 8.6356 19.9715 8.6491L13.5473 12.4273L7.48311 8.0956C7.50471 8.0722 7.52631 8.0479 7.54881 8.0236ZM13.4996 21.6001C9.03291 21.6001 5.39961 17.9659 5.39961 13.5001C5.39961 12.0691 5.77671 10.7254 6.43101 9.5572L12.7481 14.0689L15.3581 21.3769C14.7596 21.5173 14.1395 21.6001 13.4996 21.6001ZM21.5249 14.5423C21.5141 14.6233 21.5006 14.7034 21.488 14.7844C21.4385 15.0895 21.3755 15.3901 21.2927 15.6844C21.2837 15.7177 21.2765 15.751 21.2666 15.7843C21.164 16.1299 21.0398 16.4665 20.8931 16.7932C20.885 16.8121 20.8751 16.8301 20.8661 16.849C20.7248 17.1577 20.5637 17.4565 20.3855 17.7445C20.3684 17.7724 20.3522 17.8003 20.3351 17.8273C19.9535 18.4276 19.4936 18.9766 18.9671 19.4599C18.9374 19.4869 18.9086 19.5139 18.8789 19.54C18.3416 20.0188 17.7377 20.431 17.078 20.7568C17.069 20.7613 17.06 20.7658 17.051 20.7694L14.5967 13.8988L15.6803 13.2616L20.8877 10.1989C21.3557 11.2366 21.5996 12.3634 21.5996 13.5001C21.5996 13.852 21.5699 14.1994 21.5249 14.5423Z" fill="#00C9C9"/>
<path d="M42.3 13.5H27V15.3H42.3V13.5Z" fill="#00C9C9"/>
<path d="M42.3 18H27V19.8H42.3V18Z" fill="#00C9C9"/>
<path d="M42.3 22.5H27V24.3H42.3V22.5Z" fill="#00C9C9"/>
<path d="M42.3 27H27V28.8H42.3V27Z" fill="#00C9C9"/>
<path d="M44.1 36.8999C42.1146 36.8999 40.5 38.5145 40.5 40.4999C40.5 42.4853 42.1146 44.0999 44.1 44.0999C46.0854 44.0999 47.7 42.4853 47.7 40.4999C47.7 38.5145 46.0854 36.8999 44.1 36.8999ZM44.1 42.2999C43.1073 42.2999 42.3 41.4926 42.3 40.4999C42.3 39.5072 43.1073 38.6999 44.1 38.6999C45.0927 38.6999 45.9 39.5072 45.9 40.4999C45.9 41.4926 45.0927 42.2999 44.1 42.2999Z" fill="#028BFC"/>
<path d="M53.1 37.8H51.7302C51.6357 37.5327 51.5259 37.2699 51.4053 37.0143L52.3737 36.045C52.5429 35.8758 52.6374 35.6472 52.6374 35.4087C52.6374 35.1702 52.5429 34.9407 52.3737 34.7724L50.4 32.7987V9.9C50.4 9.8811 50.3901 9.864 50.3892 9.8451C50.3838 9.7641 50.3685 9.6867 50.3424 9.6102C50.3325 9.5823 50.3253 9.5553 50.3136 9.5283C50.2695 9.432 50.2146 9.3411 50.1372 9.2637L41.1372 0.2637C41.0598 0.1863 40.9689 0.1314 40.8735 0.0873C40.8456 0.0747 40.8177 0.0675 40.7889 0.0576C40.7142 0.0315 40.6377 0.0171 40.5585 0.0117C40.5378 0.0099 40.5198 0 40.5 0H0.9C0.4023 0 0 0.4032 0 0.9V53.1C0 53.5968 0.4023 54 0.9 54H49.5C49.9977 54 50.4 53.5968 50.4 53.1V48.2013L52.3728 46.2276C52.542 46.0584 52.6365 45.8298 52.6365 45.5913C52.6365 45.3528 52.542 45.1233 52.3728 44.955L51.4044 43.9857C51.5259 43.7301 51.6348 43.4673 51.7293 43.2H53.1C53.5977 43.2 54 42.7968 54 42.3V38.7C54 38.2032 53.5977 37.8 53.1 37.8ZM41.4 3.0726L47.3274 9H41.4V3.0726ZM1.8 52.2V1.8H39.6V9.9C39.6 10.3968 40.0023 10.8 40.5 10.8H48.6V32.1849C48.5847 32.1984 48.5703 32.2128 48.555 32.2272L47.5857 33.1956C47.3301 33.0741 47.0682 32.9652 46.8 32.8707V31.5C46.8 31.0032 46.3977 30.6 45.9 30.6H42.3C41.8023 30.6 41.4 31.0032 41.4 31.5V32.8698C41.1318 32.9643 40.8699 33.0732 40.6143 33.1947L39.645 32.2263C39.2931 31.8744 38.7243 31.8744 38.3724 32.2263L35.8272 34.7724C35.658 34.9416 35.5635 35.1702 35.5635 35.4087C35.5635 35.6472 35.658 35.8767 35.8272 36.045L36.7956 37.0143C36.6741 37.2699 36.5652 37.5327 36.4707 37.8H35.1C34.6023 37.8 34.2 38.2032 34.2 38.7V42.3C34.2 42.7968 34.6023 43.2 35.1 43.2H36.4698C36.5643 43.4673 36.6741 43.7301 36.7947 43.9857L35.8263 44.955C35.6571 45.1242 35.5626 45.3528 35.5626 45.5913C35.5626 45.8298 35.6571 46.0593 35.8263 46.2276L38.3715 48.7737C38.7234 49.1256 39.2922 49.1256 39.6441 48.7737L40.6134 47.8053C40.869 47.9268 41.1309 48.0357 41.3991 48.1302V49.5C41.3991 49.9968 41.8014 50.4 42.2991 50.4H45.8991C46.3968 50.4 46.7991 49.9968 46.7991 49.5V48.1302C47.0673 48.0357 47.3292 47.9268 47.5848 47.8053L48.5541 48.7737C48.5694 48.7881 48.5838 48.8025 48.5991 48.816V52.2H1.8ZM52.2 41.4H51.0642C50.6538 41.4 50.2956 41.6772 50.193 42.075C50.0454 42.6456 49.8195 43.191 49.5216 43.695C49.3137 44.0487 49.3704 44.4987 49.6602 44.7885L50.4639 45.5913L49.1913 46.8648L48.3876 46.062C48.0978 45.7713 47.6478 45.7146 47.2932 45.9234C46.7901 46.2204 46.2456 46.4454 45.6741 46.593C45.2781 46.6947 45 47.0538 45 47.4642V48.6H43.2V47.4642C43.2 47.0538 42.9219 46.6956 42.525 46.593C41.9535 46.4454 41.409 46.2204 40.9059 45.9234C40.5531 45.7146 40.1013 45.7704 39.8115 46.062L39.0078 46.8648L37.7352 45.5913L38.5389 44.7885C38.8287 44.4987 38.8863 44.0487 38.6775 43.695C38.3796 43.191 38.1537 42.6456 38.0061 42.075C37.9035 41.6772 37.5462 41.4 37.1358 41.4H36V39.6H37.1358C37.5462 39.6 37.9044 39.3228 38.007 38.925C38.1546 38.3544 38.3805 37.809 38.6784 37.305C38.8863 36.9513 38.8296 36.5013 38.5398 36.2115L37.7361 35.4087L39.0087 34.1352L39.8124 34.938C40.1031 35.2296 40.554 35.2863 40.9068 35.0766C41.4099 34.7796 41.9544 34.5546 42.5259 34.407C42.9228 34.3044 43.2009 33.9462 43.2009 33.5358V32.4H45.0009V33.5358C45.0009 33.9462 45.279 34.3044 45.6759 34.407C46.2474 34.5546 46.7919 34.7796 47.295 35.0766C47.6478 35.2854 48.0987 35.2287 48.3894 34.938L49.1931 34.1352L50.4657 35.4087L49.662 36.2115C49.3722 36.5013 49.3146 36.9513 49.5234 37.305C49.8213 37.809 50.0472 38.3544 50.1948 38.925C50.2974 39.3219 50.6556 39.6 51.066 39.6H52.2V41.4Z" fill="#028BFC"/>
</svg>
