<svg width="54" height="54" viewBox="0 0 54 54" fill="none" xmlns="http://www.w3.org/2000/svg">
<path d="M50.7795 48.0516L48.0947 45.3668C47.9554 45.2323 47.769 45.1578 47.5754 45.1594C47.3818 45.1611 47.1966 45.2387 47.0597 45.3755C46.9228 45.5124 46.8451 45.6976 46.8434 45.8911C46.8417 46.0847 46.9161 46.2712 47.0505 46.4105L48.4752 47.8352H5.16508V4.52463L6.58933 5.94845C6.72779 6.08692 6.91559 6.1647 7.1114 6.1647C7.30722 6.1647 7.49501 6.08692 7.63347 5.94845C7.77193 5.80999 7.84972 5.6222 7.84972 5.42638C7.84972 5.23057 7.77193 5.04278 7.63347 4.90431L4.94824 2.22035C4.87971 2.15173 4.79833 2.0973 4.70875 2.06016C4.61917 2.02302 4.52314 2.00391 4.42617 2.00391C4.32919 2.00391 4.23317 2.02302 4.14359 2.06016C4.05401 2.0973 3.97263 2.15173 3.9041 2.22035L1.22013 4.90474C1.08774 5.04436 1.01509 5.23014 1.01764 5.42253C1.0202 5.61492 1.09776 5.79872 1.23382 5.93477C1.36987 6.07082 1.55366 6.14838 1.74605 6.15094C1.93844 6.1535 2.12423 6.08084 2.26385 5.94845L3.68852 4.5242V48.573C3.68846 48.67 3.70752 48.766 3.74461 48.8556C3.78169 48.9452 3.83607 49.0266 3.90463 49.0952C3.9732 49.1638 4.05461 49.2181 4.14421 49.2552C4.2338 49.2923 4.32983 49.3114 4.4268 49.3113H48.4752L47.0505 50.736C46.98 50.8041 46.9238 50.8856 46.8851 50.9756C46.8464 51.0657 46.8261 51.1626 46.8253 51.2606C46.8244 51.3587 46.8431 51.4559 46.8803 51.5466C46.9174 51.6373 46.9722 51.7197 47.0416 51.7891C47.1109 51.8584 47.1934 51.9132 47.2841 51.9503C47.3748 51.9874 47.4721 52.006 47.5701 52.0052C47.6681 52.0043 47.765 51.9839 47.855 51.9452C47.9451 51.9065 48.0266 51.8502 48.0947 51.7797L50.7795 49.0953C50.8481 49.0268 50.9025 48.9454 50.9397 48.8558C50.9768 48.7662 50.9959 48.6702 50.9959 48.5732C50.9959 48.4762 50.9768 48.3802 50.9397 48.2906C50.9025 48.2011 50.8481 48.1197 50.7795 48.0512V48.0516Z" fill="#028BFC"/>
<path d="M9.2051 33.2224C9.24908 33.2223 9.29297 33.2185 9.3363 33.211C17.203 31.7998 37.3374 19.6329 44.9843 6.78725L45.4277 8.64561C45.4662 8.80694 45.5579 8.95062 45.688 9.05348C45.8181 9.15634 45.979 9.21239 46.1449 9.21261C46.2563 9.21238 46.3662 9.18696 46.4664 9.13824C46.5666 9.08953 46.6545 9.01878 46.7235 8.93129C46.7925 8.8438 46.8408 8.74185 46.8648 8.63305C46.8888 8.52425 46.8878 8.41144 46.8621 8.30304L45.9812 4.60995C45.9588 4.51554 45.9181 4.42646 45.8613 4.3478C45.8045 4.26914 45.7327 4.20244 45.6502 4.15151C45.5676 4.10059 45.4758 4.06642 45.38 4.05098C45.2842 4.03554 45.1863 4.03912 45.0919 4.06151L41.3984 4.94239C41.2079 4.98781 41.0432 5.10705 40.9407 5.27387C40.8381 5.44069 40.806 5.64142 40.8514 5.83191C40.8968 6.0224 41.0161 6.18704 41.1829 6.28962C41.3497 6.39219 41.5504 6.4243 41.7409 6.37887L43.7955 5.88865C36.3047 18.6554 15.9395 30.5262 9.07516 31.7559C8.89344 31.7882 8.7304 31.8874 8.61819 32.034C8.50597 32.1805 8.45272 32.3638 8.46892 32.5476C8.48511 32.7315 8.56959 32.9026 8.7057 33.0273C8.84182 33.1519 9.01968 33.2211 9.20425 33.2211L9.2051 33.2224Z" fill="#028BFC"/>
<path d="M13.4841 35.5431C13.2883 35.5431 13.1005 35.6209 12.9621 35.7594C12.8236 35.8978 12.7458 36.0856 12.7458 36.2814V44.2215C12.7458 44.4173 12.8236 44.6051 12.9621 44.7436C13.1005 44.882 13.2883 44.9598 13.4841 44.9598H17.281C17.4768 44.9598 17.6646 44.882 17.8031 44.7436C17.9415 44.6051 18.0193 44.4173 18.0193 44.2215V36.2814C18.0193 36.0856 17.9415 35.8978 17.8031 35.7594C17.6646 35.6209 17.4768 35.5431 17.281 35.5431H13.4841ZM16.5427 43.4832H14.2224V37.0197H16.5427V43.4832Z" fill="#00C9C9"/>
<path d="M22.2412 30.4806C22.0454 30.4806 21.8576 30.5584 21.7192 30.6969C21.5807 30.8353 21.5029 31.0231 21.5029 31.2189V44.2215C21.5029 44.4173 21.5807 44.6051 21.7192 44.7436C21.8576 44.882 22.0454 44.9598 22.2412 44.9598H26.0381C26.2339 44.9598 26.4217 44.882 26.5601 44.7436C26.6986 44.6051 26.7764 44.4173 26.7764 44.2215V31.2189C26.7764 31.0231 26.6986 30.8353 26.5601 30.6969C26.4217 30.5584 26.2339 30.4806 26.0381 30.4806H22.2412ZM25.2998 43.4832H22.9795V31.9572H25.2998V43.4832Z" fill="#00C9C9"/>
<path d="M30.9986 25.4182C30.8029 25.4183 30.6152 25.4961 30.4768 25.6345C30.3385 25.773 30.2607 25.9607 30.2607 26.1564V44.2215C30.2607 44.4173 30.3385 44.6051 30.477 44.7436C30.6154 44.882 30.8032 44.9598 30.999 44.9598H34.7959C34.9917 44.9597 35.1794 44.8819 35.3178 44.7435C35.4563 44.605 35.5341 44.4173 35.5342 44.2215V26.1564C35.5341 25.9607 35.4563 25.7729 35.3178 25.6345C35.1794 25.4961 34.9917 25.4183 34.7959 25.4182H30.9986ZM34.0572 43.4833H31.7373V26.8947H34.0576L34.0572 43.4833Z" fill="#00C9C9"/>
<path d="M39.7551 20.3557C39.5594 20.3558 39.3716 20.4336 39.2332 20.572C39.0948 20.7104 39.017 20.8982 39.0168 21.0939V44.2215C39.017 44.4173 39.0948 44.605 39.2332 44.7435C39.3716 44.8819 39.5594 44.9597 39.7551 44.9598H43.552C43.7478 44.9598 43.9356 44.882 44.074 44.7436C44.2125 44.6051 44.2903 44.4173 44.2903 44.2215V21.0939C44.2903 20.8981 44.2125 20.7103 44.074 20.5719C43.9356 20.4334 43.7478 20.3557 43.552 20.3557H39.7551ZM42.8137 43.4833H40.4934V21.8322H42.8137V43.4833Z" fill="#00C9C9"/>
</svg>
