<svg width="52" height="52" viewBox="0 0 52 52" fill="none" xmlns="http://www.w3.org/2000/svg">
<path d="M32.5812 15.3687C32.5027 15.264 32.4007 15.1789 32.2836 15.1203C32.1664 15.0617 32.0372 15.0312 31.9062 15.0312H20.0937C19.9628 15.0312 19.8336 15.0617 19.7164 15.1203C19.5993 15.1789 19.4973 15.264 19.4188 15.3687L16.8875 18.7437C16.778 18.8898 16.7188 19.0674 16.7188 19.25V33.5938C16.7188 34.0413 16.8965 34.4705 17.213 34.787C17.5295 35.1035 17.9587 35.2812 18.4062 35.2812H33.5937C34.0413 35.2812 34.4705 35.1035 34.787 34.787C35.1035 34.4705 35.2812 34.0413 35.2812 33.5938V19.25C35.2812 19.0674 35.222 18.8898 35.1125 18.7437L32.5812 15.3687ZM20.5156 16.7188H31.4844L32.75 18.4062H19.25L20.5156 16.7188ZM22.625 21.7812H18.4062V20.0938H22.625V21.7812ZM24.3125 20.0938H27.6875V24.4239L26.4683 23.6105C26.3296 23.518 26.1667 23.4686 26 23.4686C25.8333 23.4686 25.6704 23.518 25.5317 23.6105L24.3125 24.4239V20.0938ZM29.375 20.0938H33.5937V21.7812H29.375V20.0938ZM18.4062 33.5938V23.4688H22.625V26C22.625 26.1528 22.6664 26.3026 22.7449 26.4337C22.8234 26.5647 22.936 26.672 23.0707 26.7441C23.2054 26.8161 23.3571 26.8503 23.5097 26.8429C23.6623 26.8355 23.81 26.7868 23.937 26.702L26 25.325L28.063 26.7003C28.1899 26.785 28.3375 26.8337 28.4899 26.8412C28.6423 26.8487 28.7939 26.8147 28.9286 26.7428C29.0632 26.6709 29.1758 26.5639 29.2544 26.4331C29.333 26.3023 29.3747 26.1526 29.375 26V23.4688H33.5937V33.5938H18.4062Z" fill="#00C9C9"/>
<path d="M48.781 23.4688C48.2593 23.4709 47.7511 23.6342 47.3258 23.9363C46.9005 24.2383 46.5789 24.6644 46.405 25.1563H41.988C41.8213 21.8989 40.6582 18.7713 38.656 16.1965V10.8125H43.8737C44.0728 11.3755 44.4644 11.8499 44.9795 12.1521C45.4945 12.4542 46.0998 12.5645 46.6883 12.4636C47.2768 12.3626 47.8107 12.0568 48.1955 11.6003C48.5804 11.1438 48.7915 10.5659 48.7915 9.96875C48.7915 9.37164 48.5804 8.79376 48.1955 8.33723C47.8107 7.8807 47.2768 7.57493 46.6883 7.47396C46.0998 7.37299 45.4945 7.48331 44.9795 7.78544C44.4644 8.08757 44.0728 8.56204 43.8737 9.125H37.8122C37.5885 9.125 37.3739 9.2139 37.2156 9.37213C37.0574 9.53037 36.9685 9.74498 36.9685 9.96875V14.3411C35.0627 12.5442 32.7448 11.2427 30.2185 10.5509V5.75H35.4362C35.6353 6.31297 36.0269 6.78744 36.542 7.08957C37.057 7.3917 37.6623 7.50202 38.2508 7.40105C38.8393 7.30008 39.3732 6.99431 39.758 6.53778C40.1429 6.08125 40.354 5.50337 40.354 4.90625C40.354 4.30914 40.1429 3.73126 39.758 3.27473C39.3732 2.8182 38.8393 2.51243 38.2508 2.41146C37.6623 2.31049 37.057 2.42081 36.542 2.72294C36.0269 3.02507 35.6353 3.49954 35.4362 4.06251H29.3747C29.151 4.06251 28.9364 4.1514 28.7781 4.30963C28.6199 4.46787 28.531 4.68248 28.531 4.90625V10.189C26.8563 9.89535 25.1432 9.89535 23.4685 10.189V3.21876C23.4685 2.99498 23.3796 2.78037 23.2214 2.62213C23.0631 2.4639 22.8485 2.37501 22.6247 2.37501H16.5632C16.3642 1.81204 15.9726 1.33757 15.4575 1.03544C14.9425 0.733314 14.3372 0.622986 13.7487 0.723959C13.1602 0.824932 12.6263 1.1307 12.2415 1.58723C11.8566 2.04376 11.6455 2.62164 11.6455 3.21876C11.6455 3.81587 11.8566 4.39375 12.2415 4.85028C12.6263 5.30681 13.1602 5.61258 13.7487 5.71355C14.3372 5.81452 14.9425 5.7042 15.4575 5.40207C15.9726 5.09994 16.3642 4.62547 16.5632 4.06251H21.781V10.5509C19.2547 11.2427 16.9368 12.5442 15.031 14.3411V9.96875C15.031 9.74498 14.9421 9.53037 14.7839 9.37213C14.6256 9.2139 14.411 9.125 14.1872 9.125H8.12574C7.92671 8.56204 7.53506 8.08757 7.02003 7.78544C6.50499 7.48331 5.89973 7.37299 5.31122 7.47396C4.72271 7.57493 4.18884 7.8807 3.80397 8.33723C3.4191 8.79376 3.20801 9.37164 3.20801 9.96875C3.20801 10.5659 3.4191 11.1438 3.80397 11.6003C4.18884 12.0568 4.72271 12.3626 5.31122 12.4636C5.89973 12.5645 6.50499 12.4542 7.02003 12.1521C7.53506 11.8499 7.92671 11.3755 8.12574 10.8125H13.3435V16.1965C11.3413 18.7713 10.1782 21.8989 10.0115 25.1563H5.59449C5.39546 24.5933 5.00381 24.1188 4.48878 23.8167C3.97374 23.5146 3.36848 23.4042 2.77997 23.5052C2.19146 23.6062 1.65759 23.912 1.27272 24.3685C0.887847 24.825 0.676758 25.4029 0.676758 26C0.676758 26.5971 0.887847 27.175 1.27272 27.6315C1.65759 28.0881 2.19146 28.3938 2.77997 28.4948C3.36848 28.5958 3.97374 28.4854 4.48878 28.1833C5.00381 27.8812 5.39546 27.4067 5.59449 26.8438H10.0115C10.1782 30.1011 11.3413 33.2287 13.3435 35.8035V41.1875H8.12574C7.92671 40.6245 7.53506 40.1501 7.02003 39.8479C6.50499 39.5458 5.89973 39.4355 5.31122 39.5365C4.72271 39.6374 4.18884 39.9432 3.80397 40.3997C3.4191 40.8563 3.20801 41.4341 3.20801 42.0313C3.20801 42.6284 3.4191 43.2062 3.80397 43.6628C4.18884 44.1193 4.72271 44.4251 5.31122 44.5261C5.89973 44.627 6.50499 44.5167 7.02003 44.2146C7.53506 43.9124 7.92671 43.438 8.12574 42.875H14.1872C14.411 42.875 14.6256 42.7861 14.7839 42.6279C14.9421 42.4696 15.031 42.255 15.031 42.0313V37.6589C16.9368 39.4558 19.2547 40.7573 21.781 41.4491V47.9375H16.5632C16.3642 47.3745 15.9726 46.9001 15.4575 46.5979C14.9425 46.2958 14.3372 46.1855 13.7487 46.2865C13.1602 46.3874 12.6263 46.6932 12.2415 47.1497C11.8566 47.6063 11.6455 48.1841 11.6455 48.7813C11.6455 49.3784 11.8566 49.9562 12.2415 50.4128C12.6263 50.8693 13.1602 51.1751 13.7487 51.276C14.3372 51.377 14.9425 51.2667 15.4575 50.9646C15.9726 50.6624 16.3642 50.188 16.5632 49.625H22.6247C22.8485 49.625 23.0631 49.5361 23.2214 49.3779C23.3796 49.2196 23.4685 49.005 23.4685 48.7813V41.811C25.1432 42.1047 26.8563 42.1047 28.531 41.811V47.0938C28.531 47.3175 28.6199 47.5321 28.7781 47.6904C28.9364 47.8486 29.151 47.9375 29.3747 47.9375H35.4362C35.6353 48.5005 36.0269 48.9749 36.542 49.2771C37.057 49.5792 37.6623 49.6895 38.2508 49.5885C38.8393 49.4876 39.3732 49.1818 39.758 48.7253C40.1429 48.2687 40.354 47.6909 40.354 47.0938C40.354 46.4966 40.1429 45.9188 39.758 45.4622C39.3732 45.0057 38.8393 44.6999 38.2508 44.599C37.6623 44.498 37.057 44.6083 36.542 44.9104C36.0269 45.2126 35.6353 45.687 35.4362 46.25H30.2185V41.4491C32.7448 40.7573 35.0627 39.4558 36.9685 37.6589V42.0313C36.9685 42.255 37.0574 42.4696 37.2156 42.6279C37.3739 42.7861 37.5885 42.875 37.8122 42.875H43.8737C44.0728 43.438 44.4644 43.9124 44.9795 44.2146C45.4945 44.5167 46.0998 44.627 46.6883 44.5261C47.2768 44.4251 47.8107 44.1193 48.1955 43.6628C48.5804 43.2062 48.7915 42.6284 48.7915 42.0313C48.7915 41.4341 48.5804 40.8563 48.1955 40.3997C47.8107 39.9432 47.2768 39.6374 46.6883 39.5365C46.0998 39.4355 45.4945 39.5458 44.9795 39.8479C44.4644 40.1501 44.0728 40.6245 43.8737 41.1875H38.656V35.8035C40.6582 33.2287 41.8213 30.1011 41.988 26.8438H46.405C46.5604 27.2801 46.8328 27.6654 47.1924 27.9574C47.552 28.2494 47.9849 28.437 48.4439 28.4996C48.9029 28.5622 49.3702 28.4975 49.7949 28.3125C50.2196 28.1274 50.5852 27.8293 50.8518 27.4505C51.1185 27.0717 51.2759 26.6269 51.3069 26.1647C51.3379 25.7025 51.2412 25.2407 51.0275 24.8298C50.8137 24.4188 50.4911 24.0745 50.0949 23.8345C49.6988 23.5944 49.2442 23.4679 48.781 23.4688ZM46.2498 9.125C46.4166 9.125 46.5798 9.17449 46.7185 9.2672C46.8573 9.35991 46.9654 9.49169 47.0293 9.64587C47.0931 9.80004 47.1098 9.96969 47.0773 10.1334C47.0447 10.297 46.9644 10.4474 46.8464 10.5654C46.7284 10.6834 46.578 10.7637 46.4144 10.7963C46.2507 10.8288 46.081 10.8121 45.9269 10.7483C45.7727 10.6844 45.6409 10.5763 45.5482 10.4375C45.4555 10.2988 45.406 10.1356 45.406 9.96875C45.406 9.74498 45.4949 9.53037 45.6531 9.37213C45.8114 9.2139 46.026 9.125 46.2498 9.125ZM37.8122 4.06251C37.9791 4.06251 38.1423 4.11199 38.281 4.2047C38.4198 4.29742 38.5279 4.42919 38.5918 4.58337C38.6556 4.73754 38.6723 4.90719 38.6398 5.07086C38.6072 5.23453 38.5269 5.38488 38.4089 5.50288C38.2909 5.62088 38.1405 5.70124 37.9769 5.73379C37.8132 5.76635 37.6435 5.74964 37.4894 5.68578C37.3352 5.62192 37.2034 5.51377 37.1107 5.37502C37.018 5.23626 36.9685 5.07313 36.9685 4.90625C36.9685 4.68248 37.0574 4.46787 37.2156 4.30963C37.3739 4.1514 37.5885 4.06251 37.8122 4.06251ZM14.1872 4.06251C14.0204 4.06251 13.8572 4.01302 13.7185 3.92031C13.5797 3.82759 13.4716 3.69582 13.4077 3.54164C13.3439 3.38747 13.3272 3.21782 13.3597 3.05415C13.3923 2.89048 13.4726 2.74013 13.5906 2.62213C13.7086 2.50413 13.859 2.42377 14.0226 2.39122C14.1863 2.35866 14.356 2.37537 14.5101 2.43923C14.6643 2.50309 14.7961 2.61124 14.8888 2.74999C14.9815 2.88875 15.031 3.05188 15.031 3.21876C15.031 3.44253 14.9421 3.65714 14.7839 3.81538C14.6256 3.97361 14.411 4.06251 14.1872 4.06251ZM5.74974 10.8125C5.58287 10.8125 5.41974 10.763 5.28098 10.6703C5.14223 10.5776 5.03408 10.4458 4.97022 10.2916C4.90636 10.1375 4.88965 9.96782 4.92221 9.80415C4.95476 9.64048 5.03512 9.49013 5.15312 9.37213C5.27112 9.25413 5.42146 9.17377 5.58514 9.14122C5.74881 9.10866 5.91846 9.12537 6.07263 9.18923C6.22681 9.25309 6.35858 9.36124 6.4513 9.49999C6.54401 9.63875 6.59349 9.80188 6.59349 9.96875C6.59349 10.1925 6.5046 10.4071 6.34637 10.5654C6.18813 10.7236 5.97352 10.8125 5.74974 10.8125ZM5.74974 42.875C5.58287 42.875 5.41974 42.8255 5.28098 42.7328C5.14223 42.6401 5.03408 42.5083 4.97022 42.3541C4.90636 42.2 4.88965 42.0303 4.92221 41.8666C4.95476 41.703 5.03512 41.5526 5.15312 41.4346C5.27112 41.3166 5.42146 41.2363 5.58514 41.2037C5.74881 41.1712 5.91846 41.1879 6.07263 41.2517C6.22681 41.3156 6.35858 41.4237 6.4513 41.5625C6.54401 41.7012 6.59349 41.8644 6.59349 42.0313C6.59349 42.255 6.5046 42.4696 6.34637 42.6279C6.18813 42.7861 5.97352 42.875 5.74974 42.875ZM14.1872 49.625C14.0204 49.625 13.8572 49.5755 13.7185 49.4828C13.5797 49.3901 13.4716 49.2583 13.4077 49.1041C13.3439 48.95 13.3272 48.7803 13.3597 48.6166C13.3923 48.453 13.4726 48.3026 13.5906 48.1846C13.7086 48.0666 13.859 47.9863 14.0226 47.9537C14.1863 47.9212 14.356 47.9379 14.5101 48.0017C14.6643 48.0656 14.7961 48.1737 14.8888 48.3125C14.9815 48.4512 15.031 48.6144 15.031 48.7813C15.031 49.005 14.9421 49.2196 14.7839 49.3779C14.6256 49.5361 14.411 49.625 14.1872 49.625ZM37.8122 46.25C37.9791 46.25 38.1423 46.2995 38.281 46.3922C38.4198 46.4849 38.5279 46.6167 38.5918 46.7709C38.6556 46.925 38.6723 47.0947 38.6398 47.2584C38.6072 47.422 38.5269 47.5724 38.4089 47.6904C38.2909 47.8084 38.1405 47.8887 37.9769 47.9213C37.8132 47.9538 37.6435 47.9371 37.4894 47.8733C37.3352 47.8094 37.2034 47.7013 37.1107 47.5625C37.018 47.4238 36.9685 47.2606 36.9685 47.0938C36.9685 46.87 37.0574 46.6554 37.2156 46.4971C37.3739 46.3389 37.5885 46.25 37.8122 46.25ZM46.2498 41.1875C46.4166 41.1875 46.5798 41.237 46.7185 41.3297C46.8573 41.4224 46.9654 41.5542 47.0293 41.7084C47.0931 41.8625 47.1098 42.0322 47.0773 42.1959C47.0447 42.3595 46.9644 42.5099 46.8464 42.6279C46.7284 42.7459 46.578 42.8262 46.4144 42.8588C46.2507 42.8913 46.081 42.8746 45.9269 42.8108C45.7727 42.7469 45.6409 42.6388 45.5482 42.5C45.4555 42.3613 45.406 42.1981 45.406 42.0313C45.406 41.8075 45.4949 41.5929 45.6531 41.4346C45.8114 41.2764 46.026 41.1875 46.2498 41.1875ZM3.21849 26.8438C3.05162 26.8438 2.88849 26.7943 2.74973 26.7016C2.61098 26.6088 2.50283 26.4771 2.43897 26.3229C2.37511 26.1687 2.3584 25.9991 2.39096 25.8354C2.42351 25.6717 2.50387 25.5214 2.62187 25.4034C2.73987 25.2854 2.89021 25.205 3.05389 25.1725C3.21756 25.1399 3.38721 25.1566 3.54138 25.2205C3.69556 25.2843 3.82733 25.3925 3.92005 25.5312C4.01276 25.67 4.06224 25.8331 4.06224 26C4.06224 26.2238 3.97335 26.4384 3.81511 26.5966C3.65688 26.7549 3.44227 26.8438 3.21849 26.8438ZM25.9997 40.3438C23.1628 40.3438 20.3896 39.5025 18.0308 37.9264C15.672 36.3503 13.8335 34.1101 12.7478 31.4891C11.6622 28.8681 11.3781 25.9841 11.9316 23.2017C12.4851 20.4193 13.8512 17.8635 15.8572 15.8574C17.8632 13.8514 20.419 12.4853 23.2014 11.9319C25.9838 11.3784 28.8679 11.6625 31.4889 12.7481C34.1098 13.8338 36.35 15.6722 37.9261 18.031C39.5023 20.3899 40.3435 23.1631 40.3435 26C40.3393 29.8029 38.8267 33.4488 36.1376 36.1379C33.4486 38.8269 29.8026 40.3395 25.9997 40.3438ZM48.781 26.8438C48.6141 26.8438 48.451 26.7943 48.3122 26.7016C48.1735 26.6088 48.0653 26.4771 48.0015 26.3229C47.9376 26.1687 47.9209 25.9991 47.9535 25.8354C47.986 25.6717 48.0664 25.5214 48.1844 25.4034C48.3024 25.2854 48.4527 25.205 48.6164 25.1725C48.7801 25.1399 48.9497 25.1566 49.1039 25.2205C49.2581 25.2843 49.3898 25.3925 49.4826 25.5312C49.5753 25.67 49.6248 25.8331 49.6248 26C49.6248 26.2238 49.5359 26.4384 49.3776 26.5966C49.2194 26.7549 49.0048 26.8438 48.781 26.8438Z" fill="#028BFC"/>
</svg>
