<svg width="54" height="54" viewBox="0 0 54 54" fill="none" xmlns="http://www.w3.org/2000/svg">
<path fill-rule="evenodd" clip-rule="evenodd" d="M51.4688 3.375H2.53125C2.0655 3.375 1.6875 3.75216 1.6875 4.21706V42.1107C1.6875 42.5765 2.0655 43.0312 2.53125 43.0312L17.4201 42.9528L14.3826 51.1228C14.2459 51.5675 14.4956 52.0391 14.9411 52.1758C15.3866 52.3125 15.8591 52.0627 15.9958 51.6181L17.6285 47.1623H36.3715L38.0059 51.6181C38.1426 52.0627 38.6151 52.3125 39.0606 52.1758C39.5061 52.0391 39.7558 51.5675 39.6191 51.1228L36.5799 42.9528L51.4688 43.0312C51.9345 43.0312 52.3125 42.5765 52.3125 42.1107V4.21706C52.3125 3.75216 51.9345 3.375 51.4688 3.375ZM18.1474 45.4781L19.186 42.9528H34.814L35.8526 45.4781H18.1474ZM50.625 41.3438H3.375V5.05912H50.625V41.3438Z" fill="#028BFC"/>
<path fill-rule="evenodd" clip-rule="evenodd" d="M45.8308 14.2813C45.3878 14.429 44.9103 14.1893 44.7626 13.7481L43.7138 10.6101C36.0214 25.4129 20.7428 30.3286 7.59375 30.3168V28.6327C21.4566 28.6327 34.6899 23.5777 41.9462 10.3334L39.1888 11.7087C38.772 11.9171 38.2649 11.7484 38.0565 11.3316C37.8481 10.9156 38.0177 10.4093 38.4345 10.2018L43.497 7.67559C43.5341 7.65702 43.5729 7.64099 43.6126 7.62749C44.0547 7.48152 44.5323 7.72115 44.6783 8.16327L46.3658 13.2156C46.5126 13.6578 46.2738 14.1345 45.8308 14.2813ZM8.4375 32.8446H11.8125C12.2783 32.8446 12.6563 33.2218 12.6563 33.6867V37.055C12.6563 37.5199 12.2783 37.897 11.8125 37.897H8.4375C7.97175 37.897 7.59375 37.5199 7.59375 37.055V33.6867C7.59375 33.2218 7.97175 32.8446 8.4375 32.8446ZM9.28125 36.2129H10.9688V34.5288H9.28125V36.2129ZM15.1875 31.1605H18.5625C19.0283 31.1605 19.4063 31.5377 19.4063 32.0026V37.055C19.4063 37.5199 19.0283 37.897 18.5625 37.897H15.1875C14.7218 37.897 14.3438 37.5199 14.3438 37.055V32.0026C14.3438 31.5377 14.7218 31.1605 15.1875 31.1605ZM16.0313 36.2129H17.7188V32.8446H16.0313V36.2129ZM21.9375 29.4798H25.3125C25.7783 29.4798 26.1563 29.8569 26.1563 30.3218V37.055C26.1563 37.5199 25.7783 37.897 25.3125 37.897H21.9375C21.4718 37.897 21.0938 37.5199 21.0938 37.055V30.3218C21.0938 29.8569 21.4718 29.4798 21.9375 29.4798ZM22.7813 36.2129H24.4688V31.1639H22.7813V36.2129ZM28.6875 27.8024H32.0625C32.5283 27.8024 32.9063 28.1796 32.9063 28.6445V37.055C32.9063 37.5199 32.5283 37.897 32.0625 37.897H28.6875C28.2218 37.897 27.8438 37.5199 27.8438 37.055V28.6445C27.8438 28.1796 28.2218 27.8024 28.6875 27.8024ZM29.5313 36.2129H31.2188V29.4865H29.5313V36.2129ZM35.4375 25.2889H38.8125C39.2783 25.2889 39.6563 25.666 39.6563 26.1309V37.055C39.6563 37.5199 39.2783 37.897 38.8125 37.897H35.4375C34.9718 37.897 34.5938 37.5199 34.5938 37.055V26.1309C34.5938 25.666 34.9718 25.2889 35.4375 25.2889ZM36.2813 36.2129H37.9688V26.973H36.2813V36.2129ZM42.1875 22.7399H45.5625C46.0283 22.7399 46.4063 23.1171 46.4063 23.582V37.055C46.4063 37.5199 46.0283 37.897 45.5625 37.897H42.1875C41.7218 37.897 41.3438 37.5199 41.3438 37.055V23.582C41.3438 23.1171 41.7218 22.7399 42.1875 22.7399ZM43.0313 36.2129H44.7188V24.424H43.0313V36.2129Z" fill="#FFC977"/>
</svg>
