<svg width="54" height="54" viewBox="0 0 54 54" fill="none" xmlns="http://www.w3.org/2000/svg">
<path d="M48.3055 2.62354H13.3873C10.3569 2.62354 7.89137 5.06597 7.89137 8.05838L7.66634 38.8057H0.851863C0.368927 38.8057 0 39.2327 0 39.7157V43.9472C0 47.9085 3.17004 51.1481 6.99595 51.3258V51.3766H36.4008V51.3194C36.6194 51.3283 36.7518 51.3766 36.9021 51.3766H36.923C41.0034 51.3527 44.2926 48.0268 44.2712 43.9464V17.0527H53.1481C53.6311 17.0527 54 16.6154 54 16.1329V8.36881C54.0055 5.21328 51.461 2.64617 48.3055 2.62354V2.62354ZM7.37854 49.6276H7.37256C4.26188 49.6276 1.74899 47.0566 1.74899 43.9464V40.5547H29.5142V43.9318C29.5073 45.9003 30.2849 47.7902 31.6748 49.1839C31.8225 49.3325 31.9771 49.409 32.1351 49.6276H7.37854ZM42.5223 43.9455C42.5223 47.0566 40.0337 49.6276 36.9217 49.6276H36.9038C33.7765 49.605 31.2559 47.0596 31.2631 43.9323V39.7157C31.2657 39.2259 30.8784 38.8228 30.3887 38.8057H9.41532L9.64035 8.06436C9.64035 6.03056 11.321 4.37252 13.3873 4.37252H44.1769C43.1803 5.46564 42.5223 6.84869 42.5223 8.39229V43.9455ZM52.251 8.38418V15.3037H44.2712V8.39058C44.2712 6.20179 46.092 4.37252 48.2799 4.37252H48.3042C50.4977 4.3943 52.2612 6.18385 52.251 8.37777V8.38418Z" fill="#028BFC"/>
<path d="M20.5348 24.1485L25.0434 27.231C25.3376 27.4338 25.7266 27.4338 26.0208 27.231L30.5159 24.1493C32.0774 23.084 33.2307 20.8567 33.2307 18.9681V12.7314C33.2401 12.4017 33.0582 12.096 32.7644 11.9461L25.8996 8.56941C25.6587 8.44985 25.3761 8.44985 25.1352 8.56941L18.2832 11.9367C17.9894 12.0866 17.8079 12.3923 17.8178 12.722V18.9681C17.8178 20.8567 18.9736 23.084 20.5348 24.1485ZM19.5667 13.2677L25.5242 10.3282L31.4817 13.2758V18.9681C31.4817 20.2854 30.6183 21.9609 29.5291 22.7035L25.514 25.4495L21.5147 22.7039C20.4254 21.9605 19.5667 20.2854 19.5667 18.9681V13.2677Z" fill="#FFC977"/>
<path d="M24.0447 20.288C24.2078 20.4546 24.4307 20.5489 24.6638 20.5502H24.6659C24.8982 20.5493 25.1207 20.4563 25.2842 20.2914L28.763 16.8114C29.105 16.4698 29.105 15.9156 28.7634 15.574C28.4223 15.2319 27.868 15.2319 27.5264 15.5735L24.6689 18.4306L23.5267 17.2773C23.1864 16.9339 22.6326 16.9314 22.2893 17.2717C21.9459 17.612 21.9438 18.1658 22.2837 18.5091L24.0447 20.288Z" fill="#FFC977"/>
<path d="M36.4004 29.7329H15.4126C14.9296 29.7329 14.5381 30.1245 14.5381 30.6074C14.5381 31.0903 14.9296 31.4819 15.4126 31.4819H36.4004C36.8834 31.4819 37.2749 31.0903 37.2749 30.6074C37.2749 30.1245 36.8834 29.7329 36.4004 29.7329Z" fill="#FFC977"/>
<path d="M36.4004 33.7773H15.4126C14.9296 33.7773 14.5381 34.1689 14.5381 34.6518C14.5381 35.1348 14.9296 35.5263 15.4126 35.5263H36.4004C36.8834 35.5263 37.2749 35.1348 37.2749 34.6518C37.2749 34.1689 36.8834 33.7773 36.4004 33.7773Z" fill="#FFC977"/>
</svg>
