<svg width="52" height="52" viewBox="0 0 52 52" fill="none" xmlns="http://www.w3.org/2000/svg">
<path d="M41.1876 49.6249H10.8126C10.2513 49.6252 9.70591 49.4389 9.26206 49.0954C8.81822 48.7519 8.42175 48.059 8.28125 47.5156L6.59375 47.9375C6.82776 48.843 7.48941 49.8568 8.22893 50.4294C8.96846 51.002 9.87728 51.3126 10.8126 51.3124H41.1876C42.1231 51.3125 43.0321 51.0016 43.7716 50.4287C44.5112 49.8558 45.1726 48.8433 45.4062 47.9375L43.7188 47.5156C43.5786 48.0593 43.1824 48.7509 42.7385 49.0947C42.2946 49.4386 41.749 49.6251 41.1876 49.6249Z" fill="#028BFC"/>
<path d="M6.59375 46.25H8.28125V47.9375H6.59375V46.25Z" fill="#028BFC"/>
<path d="M43.7188 46.25H45.4062V47.9375H43.7188V46.25Z" fill="#028BFC"/>
<path d="M45.1616 7.68219L38.4116 0.932187C38.2507 0.776772 38.0362 0.689166 37.8125 0.6875H10.8125C9.69362 0.6875 8.62056 1.13197 7.82939 1.92314C7.03822 2.71431 6.59375 3.78737 6.59375 4.90625V23.0469H8.28125V4.90625C8.28325 4.23554 8.55058 3.59287 9.02485 3.1186C9.49912 2.64433 10.1418 2.377 10.8125 2.375H36.9688V6.59375C36.9708 7.26446 37.2381 7.90713 37.7123 8.3814C38.1866 8.85567 38.8293 9.123 39.5 9.125H43.7188V30.6406H45.4062V8.28125C45.4046 8.05756 45.317 7.84308 45.1616 7.68219ZM39.5 7.4375C39.2762 7.4375 39.0616 7.34861 38.9034 7.19037C38.7451 7.03214 38.6562 6.81753 38.6562 6.59375V3.56469L42.5291 7.4375H39.5Z" fill="#028BFC"/>
<path d="M27.6875 31.9062V29.375H41.3984V27.6875H37.8125V26.8438C37.8125 25.2773 37.1902 23.775 36.0826 22.6674C34.975 21.5598 33.4727 20.9375 31.9062 20.9375C30.3398 20.9375 28.8375 21.5598 27.7299 22.6674C26.6223 23.775 26 25.2773 26 26.8438V27.6875H23.4688C23.245 27.6875 23.0304 27.7764 22.8721 27.9346C22.7139 28.0929 22.625 28.3075 22.625 28.5312V43.7188C22.627 44.3895 22.8943 45.0321 23.3686 45.5064C23.8429 45.9807 24.4855 46.248 25.1562 46.25H39.7109V44.5625H25.1562C24.9325 44.5625 24.7179 44.4736 24.5596 44.3154C24.4014 44.1571 24.3125 43.9425 24.3125 43.7188V42.875H39.7109V41.1875H24.3125V29.375H26V31.9062H27.6875ZM27.6875 26.8438C27.6875 25.7249 28.132 24.6518 28.9231 23.8606C29.7143 23.0695 30.7874 22.625 31.9062 22.625C33.0251 22.625 34.0982 23.0695 34.8894 23.8606C35.6805 24.6518 36.125 25.7249 36.125 26.8438V27.6875H27.6875V26.8438Z" fill="#00C9C9"/>
<path d="M50.4688 30.2188H36.9688C36.745 30.2188 36.5304 30.3076 36.3721 30.4659C36.2139 30.6241 36.125 30.8387 36.125 31.0625V43.7188C36.127 44.3895 36.3943 45.0321 36.8686 45.5064C37.3429 45.9807 37.9855 46.248 38.6562 46.25H48.7812C49.452 46.248 50.0946 45.9807 50.5689 45.5064C51.0432 45.0321 51.3105 44.3895 51.3125 43.7188V31.0625C51.3125 30.8387 51.2236 30.6241 51.0654 30.4659C50.9071 30.3076 50.6925 30.2188 50.4688 30.2188ZM49.625 43.7188C49.625 43.9425 49.5361 44.1571 49.3779 44.3154C49.2196 44.4736 49.005 44.5625 48.7812 44.5625H38.6562C38.4325 44.5625 38.2179 44.4736 38.0596 44.3154C37.9014 44.1571 37.8125 43.9425 37.8125 43.7188V42.875H49.625V43.7188ZM49.625 41.1875H37.8125V31.9062H49.625V41.1875Z" fill="#028BFC"/>
<path d="M43.7188 39.5C44.8372 39.4987 45.9095 39.0538 46.7004 38.2629C47.4913 37.472 47.9362 36.3997 47.9375 35.2812V33.5938H46.25V35.2812C46.25 35.9526 45.9833 36.5964 45.5086 37.0711C45.0339 37.5458 44.3901 37.8125 43.7188 37.8125C43.0474 37.8125 42.4036 37.5458 41.9289 37.0711C41.4542 36.5964 41.1875 35.9526 41.1875 35.2812V33.5938H39.5V35.2812C39.5013 36.3997 39.9462 37.472 40.7371 38.2629C41.528 39.0538 42.6003 39.4987 43.7188 39.5Z" fill="#028BFC"/>
<path d="M15.0312 22.625H3.21875C2.54804 22.627 1.90537 22.8943 1.4311 23.3686C0.956831 23.8429 0.689503 24.4855 0.6875 25.1562V43.7188C0.689503 44.3895 0.956831 45.0321 1.4311 45.5064C1.90537 45.9807 2.54804 46.248 3.21875 46.25H15.0312C15.702 46.248 16.3446 45.9807 16.8189 45.5064C17.2932 45.0321 17.5605 44.3895 17.5625 43.7188V25.1562C17.5605 24.4855 17.2932 23.8429 16.8189 23.3686C16.3446 22.8943 15.702 22.627 15.0312 22.625ZM15.875 43.7188C15.875 43.9425 15.7861 44.1571 15.6279 44.3154C15.4696 44.4736 15.255 44.5625 15.0312 44.5625H3.21875C2.99497 44.5625 2.78036 44.4736 2.62213 44.3154C2.46389 44.1571 2.375 43.9425 2.375 43.7188V25.1562C2.375 24.9325 2.46389 24.7179 2.62213 24.5596C2.78036 24.4014 2.99497 24.3125 3.21875 24.3125H15.0312C15.255 24.3125 15.4696 24.4014 15.6279 24.5596C15.7861 24.7179 15.875 24.9325 15.875 25.1562V43.7188Z" fill="#028BFC"/>
<path d="M13.3438 32.75H4.90625C4.68247 32.75 4.46786 32.8389 4.30963 32.9971C4.1514 33.1554 4.0625 33.37 4.0625 33.5938V42.0312C4.0625 42.255 4.1514 42.4696 4.30963 42.6279C4.46786 42.7861 4.68247 42.875 4.90625 42.875H13.3438C13.5675 42.875 13.7821 42.7861 13.9404 42.6279C14.0986 42.4696 14.1875 42.255 14.1875 42.0312V33.5938C14.1875 33.37 14.0986 33.1554 13.9404 32.9971C13.7821 32.8389 13.5675 32.75 13.3438 32.75ZM12.5 36.9688H9.96875V34.4375H12.5V36.9688ZM8.28125 34.4375V36.9688H5.75V34.4375H8.28125ZM5.75 38.6562H8.28125V41.1875H5.75V38.6562ZM9.96875 41.1875V38.6562H12.5V41.1875H9.96875Z" fill="#028BFC"/>
<path d="M13.3438 26H4.90625C4.68247 26 4.46786 26.0889 4.30963 26.2471C4.1514 26.4054 4.0625 26.62 4.0625 26.8438V30.2188C4.0625 30.4425 4.1514 30.6571 4.30963 30.8154C4.46786 30.9736 4.68247 31.0625 4.90625 31.0625H13.3438C13.5675 31.0625 13.7821 30.9736 13.9404 30.8154C14.0986 30.6571 14.1875 30.4425 14.1875 30.2188V26.8438C14.1875 26.62 14.0986 26.4054 13.9404 26.2471C13.7821 26.0889 13.5675 26 13.3438 26ZM12.5 29.375H5.75V27.6875H12.5V29.375Z" fill="#028BFC"/>
<path d="M17.5625 9.96875H19.25C19.4738 9.96875 19.6884 10.0576 19.8466 10.2159C20.0049 10.3741 20.0938 10.5887 20.0938 10.8125H21.7812C21.7812 10.1412 21.5146 9.49734 21.0399 9.02264C20.5652 8.54793 19.9213 8.28125 19.25 8.28125V7.4375H17.5625V8.28125C16.8912 8.28125 16.2473 8.54793 15.7726 9.02264C15.2979 9.49734 15.0313 10.1412 15.0312 10.8125C15.0313 11.4838 15.2979 12.1277 15.7726 12.6024C16.2473 13.0771 16.8912 13.3438 17.5625 13.3438H19.25C19.4738 13.3438 19.6884 13.4326 19.8466 13.5909C20.0049 13.7491 20.0938 13.9637 20.0938 14.1875C20.0938 14.4113 20.0049 14.6259 19.8466 14.7841C19.6884 14.9424 19.4738 15.0312 19.25 15.0312H17.5625C17.3387 15.0312 17.1241 14.9424 16.9659 14.7841C16.8076 14.6259 16.7188 14.4113 16.7188 14.1875H15.0312C15.0313 14.8588 15.2979 15.5027 15.7726 15.9774C16.2473 16.4521 16.8912 16.7188 17.5625 16.7188V17.5625H19.25V16.7188C19.9213 16.7188 20.5652 16.4521 21.0399 15.9774C21.5146 15.5027 21.7812 14.8588 21.7812 14.1875C21.7812 13.5162 21.5146 12.8723 21.0399 12.3976C20.5652 11.9229 19.9213 11.6562 19.25 11.6562H17.5625C17.3387 11.6562 17.1241 11.5674 16.9659 11.4091C16.8076 11.2509 16.7188 11.0363 16.7188 10.8125C16.7188 10.5887 16.8076 10.3741 16.9659 10.2159C17.1241 10.0576 17.3387 9.96875 17.5625 9.96875Z" fill="#00C9C9"/>
<path d="M26.8438 12.5C26.8438 10.8312 26.3489 9.19992 25.4218 7.81238C24.4947 6.42484 23.1769 5.34338 21.6351 4.70477C20.0934 4.06616 18.3969 3.89907 16.7602 4.22463C15.1235 4.55019 13.62 5.35378 12.44 6.53379C11.26 7.7138 10.4564 9.21722 10.1309 10.8539C9.80532 12.4906 9.97241 14.1871 10.611 15.7289C11.2496 17.2706 12.3311 18.5884 13.7186 19.5155C15.1062 20.4427 16.7375 20.9375 18.4063 20.9375C20.6433 20.935 22.7879 20.0453 24.3698 18.4635C25.9516 16.8817 26.8413 14.737 26.8438 12.5ZM18.4063 19.25C17.0712 19.25 15.7662 18.8541 14.6562 18.1124C13.5461 17.3707 12.681 16.3165 12.1701 15.0831C11.6592 13.8497 11.5255 12.4925 11.786 11.1831C12.0464 9.87377 12.6893 8.67104 13.6333 7.72703C14.5773 6.78303 15.78 6.14015 17.0894 5.8797C18.3988 5.61925 19.756 5.75293 20.9894 6.26382C22.2228 6.77471 23.277 7.63987 24.0187 8.7499C24.7604 9.85994 25.1563 11.165 25.1563 12.5C25.1542 14.2896 24.4424 16.0053 23.177 17.2708C21.9116 18.5362 20.1958 19.248 18.4063 19.25Z" fill="#00C9C9"/>
<path d="M28.5312 17.5625H36.9688V19.25H28.5312V17.5625Z" fill="#028BFC"/>
<path d="M28.5312 14.1875H36.9688V15.875H28.5312V14.1875Z" fill="#028BFC"/>
<path d="M28.5312 10.8125H36.9688V12.5H28.5312V10.8125Z" fill="#028BFC"/>
</svg>
