<svg width="54" height="54" viewBox="0 0 54 54" fill="none" xmlns="http://www.w3.org/2000/svg">
<path d="M49.0675 28.988L46.1146 23.1882C45.9739 22.9118 45.6901 22.7378 45.3799 22.7378H26.2662H7.15228C6.84214 22.7378 6.55831 22.9118 6.41758 23.1882L3.46472 28.988C3.33463 29.2437 3.34667 29.5485 3.49654 29.793C3.64641 30.0375 3.91261 30.1864 4.19933 30.1864H5.22833V52.332C5.22833 52.7872 5.5974 53.1564 6.05271 53.1564H46.4769C46.9322 53.1564 47.3013 52.7872 47.3013 52.332V30.1865H48.3327C48.6195 30.1865 48.8857 30.0375 49.0355 29.793C49.1855 29.5485 49.1976 29.2437 49.0675 28.988ZM44.8746 24.3866L46.988 28.5377H29.7244L27.6109 24.3866H44.8746ZM7.65771 24.3866H24.9214L22.8079 28.5377H5.54423L7.65771 24.3866ZM45.6527 51.5076H27.0906V46.9386C27.0906 46.4834 26.7215 46.1142 26.2662 46.1142C25.8109 46.1142 25.4418 46.4834 25.4418 46.9386V51.5076H6.87726V30.1865H23.3133C23.6234 30.1865 23.9073 30.0126 24.048 29.7362L25.4418 26.9985V47.7755C25.4418 48.2307 25.8109 48.5999 26.2662 48.5999C26.7215 48.5999 27.0906 48.2307 27.0906 47.7755V26.9985L28.4844 29.7362C28.6251 30.0126 28.9089 30.1865 29.219 30.1865H45.6527V51.5076Z" fill="#028BFC"/>
<path d="M16.5972 41.3438H11.903C11.4477 41.3438 11.0786 41.7129 11.0786 42.1681C11.0786 42.6234 11.4477 42.9925 11.903 42.9925H16.5972C17.0525 42.9925 17.4216 42.6234 17.4216 42.1681C17.4216 41.7129 17.0525 41.3438 16.5972 41.3438Z" fill="#C9BEA4"/>
<path d="M26.2659 17.7822C30.9306 17.7822 34.7257 13.9824 34.7257 9.31184C34.7256 4.64252 30.9306 0.84375 26.2659 0.84375C21.5998 0.84375 17.8037 4.64252 17.8037 9.31184C17.8037 13.9824 21.5998 17.7822 26.2659 17.7822ZM26.2659 2.49252C30.0215 2.49252 33.0769 5.55165 33.0769 9.31184C33.0769 13.0733 30.0215 16.1335 26.2659 16.1335C22.509 16.1335 19.4525 13.0733 19.4525 9.31184C19.4525 5.55165 22.5089 2.49252 26.2659 2.49252Z" fill="#C9BEA4"/>
<path d="M22.5701 10.5485L24.7644 12.4085C24.9138 12.5352 25.103 12.604 25.2974 12.604C25.3208 12.604 25.3443 12.603 25.3678 12.6011C25.5866 12.5823 25.7889 12.4771 25.9297 12.3087L30.0591 7.37339C30.3513 7.02426 30.305 6.50432 29.9559 6.21208C29.6067 5.92008 29.0868 5.96617 28.7946 6.31538L25.1977 10.6143L23.6364 9.29075C23.2891 8.99636 22.7688 9.03906 22.4745 9.38654C22.1799 9.73394 22.2228 10.254 22.5701 10.5485Z" fill="#C9BEA4"/>
<path d="M26.2663 34.8186C25.811 34.8186 25.4419 35.1878 25.4419 35.643V35.6477C25.4419 36.1029 25.811 36.4698 26.2663 36.4698C26.7216 36.4698 27.0907 36.0983 27.0907 35.6431C27.0907 35.1878 26.7216 34.8186 26.2663 34.8186Z" fill="#028BFC"/>
</svg>
