<svg width="54" height="54" viewBox="0 0 54 54" fill="none" xmlns="http://www.w3.org/2000/svg">
<path d="M8.4375 5.0625V15.1826H10.125V5.0625C10.125 4.13037 10.8804 3.375 11.8125 3.375H45.5625C46.4766 3.375 47.2207 4.10142 47.2492 5.00861C47.2497 5.0265 47.2492 6.73886 47.2492 6.7569H48.9367C48.9367 6.7569 48.9374 5.02654 48.9371 5.00861C48.9083 3.16961 47.4084 1.6875 45.5625 1.6875H11.8125C9.94866 1.6875 8.4375 3.19866 8.4375 5.0625Z" fill="#028BFC"/>
<path d="M6.75 52.3124H45.5625C47.4263 52.3124 48.9375 50.8013 48.9375 48.9374V43.8691H47.25V48.9374C47.25 49.8695 46.4946 50.6249 45.5625 50.6249C44.6304 50.6249 43.875 49.8695 43.875 48.9374V46.4062C43.875 45.94 43.4974 45.5624 43.0313 45.5624H10.125V26.9998H8.4375V45.5624H4.21875C3.75258 45.5624 3.375 45.94 3.375 46.4062V48.9374C3.375 50.8013 4.88616 52.3124 6.75 52.3124ZM5.0625 47.2499H42.1875V48.9374C42.1871 49.5304 42.3428 50.1123 42.6408 50.6249H6.75C5.81787 50.6249 5.0625 49.8695 5.0625 48.9374V47.2499Z" fill="#028BFC"/>
<path d="M0.84375 27H17.7188C18.1849 27 18.5625 26.6224 18.5625 26.1562V16.0312C18.5625 15.5651 18.1849 15.1875 17.7188 15.1875H0.84375C0.377578 15.1875 0 15.5651 0 16.0312V26.1562C0 26.6224 0.377578 27 0.84375 27ZM1.6875 16.875H16.875V25.3125H1.6875V16.875Z" fill="#028BFC"/>
<path d="M5.30946 18.8096L3.62196 20.4971C3.29268 20.8268 3.29268 21.3604 3.62196 21.6901L5.30946 23.3776L6.50252 22.1846L5.41155 21.0936L6.50252 20.0026L5.30946 18.8096Z" fill="#028BFC"/>
<path d="M13.2526 18.8096L12.0596 20.0026L13.1505 21.0936L12.0596 22.1846L13.2526 23.3776L14.9401 21.6901C15.2694 21.3604 15.2694 20.8268 14.9401 20.4971L13.2526 18.8096Z" fill="#028BFC"/>
<path d="M7.63672 23.3583L9.32506 18.2952L10.9265 18.8293L9.23731 23.892L7.63672 23.3583Z" fill="#028BFC"/>
<path d="M53.1562 6.75H24.4687C24.0026 6.75 23.625 7.12758 23.625 7.59375V24.4687C23.625 24.9349 24.0026 25.3125 24.4687 25.3125H53.1562C53.6224 25.3125 54 24.9349 54 24.4687V7.59375C54 7.12758 53.6224 6.75 53.1562 6.75ZM52.3125 23.625H25.3125V21.5713L32.8894 17.0252L40.2762 21.8025C40.5299 21.966 40.8521 21.9818 41.1199 21.843L47.2285 18.6789L52.3125 21.5831V23.625ZM52.3125 19.64L47.6719 16.9864C47.4234 16.8438 47.1194 16.8381 46.865 16.9695L40.7843 20.1194L33.3678 15.3225C33.0974 15.1478 32.751 15.1421 32.4749 15.3082L25.3125 19.6037V8.4375H52.3125V19.64Z" fill="#FFC977"/>
<path d="M43.4531 16.0312C45.0841 16.0312 46.4062 14.7091 46.4062 13.0781C46.4062 11.4472 45.0841 10.125 43.4531 10.125C41.8222 10.125 40.5 11.4472 40.5 13.0781C40.5 14.7091 41.8222 16.0312 43.4531 16.0312ZM43.4531 11.8125C44.1522 11.8125 44.7187 12.3791 44.7187 13.0781C44.7187 13.7772 44.1522 14.3437 43.4531 14.3437C42.7541 14.3437 42.1875 13.7772 42.1875 13.0781C42.1875 12.3791 42.7541 11.8125 43.4531 11.8125Z" fill="#FFC977"/>
<path d="M20.25 30.375V40.5C20.25 40.9662 20.6276 41.3437 21.0938 41.3437H40.5C40.9662 41.3437 41.3438 40.9662 41.3438 40.5V30.375C41.3438 29.9088 40.9662 29.5312 40.5 29.5312H21.0938C20.6276 29.5312 20.25 29.9088 20.25 30.375ZM21.9375 31.2187H39.6562V39.6562H21.9375V31.2187Z" fill="#FFC977"/>
<path d="M23.625 32.9062H34.5937V34.5937H23.625V32.9062Z" fill="#FFC977"/>
<path d="M36.2812 32.9062H37.9687V34.5937H36.2812V32.9062Z" fill="#FFC977"/>
<path d="M23.625 36.2812H32.0625V37.9687H23.625V36.2812Z" fill="#FFC977"/>
<path d="M33.75 36.2812H37.9688V37.9687H33.75V36.2812Z" fill="#FFC977"/>
<path d="M47.25 25.3125H48.9375V43.875H47.25V25.3125Z" fill="#028BFC"/>
</svg>
