<svg width="111" height="112" viewBox="0 0 111 112" fill="none" xmlns="http://www.w3.org/2000/svg">
<path d="M0 1H1M10 1H11M20 1H21M30 1H31M40 1H41M50 1H51M60 1H61M70 1H71M0 11H1M10 11H11M20 11H21M30 11H31M40 11H41M50 11H51M60 11H61M70 11H71M0 21H1M10 21H11M20 21H21M30 21H31M40 21H41M50 21H51M60 21H61M70 21H71M0 31H1M10 31H11M20 31H21M30 31H31M40 31H41M50 31H51M60 31H61M70 31H71M0 41H1M10 41H11M20 41H21M30 41H31M40 41H41M50 41H51M60 41H61M70 41H71M0 51H1M10 51H11M20 51H21M30 51H31M40 51H41M50 51H51M60 51H61M70 51H71M0 61H1M10 61H11M20 61H21M30 61H31M40 61H41M50 61H51M60 61H61M70 61H71M0 71H1M10 71H11M20 71H21M30 71H31M40 71H41M50 71H51M60 71H61M70 71H71M80 1H81M90 1H91M100 1H101M110 1H111M80 11H81M90 11H91M100 11H101M110 11H111M80 21H81M90 21H91M100 21H101M110 21H111M80 31H81M90 31H91M100 31H101M110 31H111M80 41H81M90 41H91M100 41H101M110 41H111M80 51H81M90 51H91M100 51H101M110 51H111M80 61H81M90 61H91M100 61H101M110 61H111M80 71H81M90 71H91M100 71H101M110 71H111M0 81H1M10 81H11M20 81H21M30 81H31M40 81H41M50 81H51M60 81H61M70 81H71M0 91H1M10 91H11M20 91H21M30 91H31M40 91H41M50 91H51M60 91H61M70 91H71M0 101H1M10 101H11M20 101H21M30 101H31M40 101H41M50 101H51M60 101H61M70 101H71M0 111H1M10 111H11M20 111H21M30 111H31M40 111H41M50 111H51M60 111H61M70 111H71M80 81H81M90 81H91M100 81H101M110 81H111M80 91H81M90 91H91M100 91H101M110 91H111M80 101H81M90 101H91M100 101H101M110 101H111M80 111H81M90 111H91M100 111H101M110 111H111" stroke="white"/>
</svg>
