<svg width="714" height="445" viewBox="0 0 714 445" fill="none" xmlns="http://www.w3.org/2000/svg">
<g clip-path="url(#clip0)">
<path d="M127.48 56.9902H2.8999V93.7902H127.48V56.9902Z" fill="white"/>
<path d="M127.98 94.2902H2.3999V56.4902H127.98V94.2902ZM3.3999 93.2902H126.98V57.4902H3.3999V93.2902Z" fill="#E0E0E0"/>
<path d="M33.4835 78.0158C34.4894 71.8173 30.2801 65.977 24.0816 64.971C17.8831 63.965 12.0428 68.1744 11.0368 74.3729C10.0308 80.5713 14.2402 86.4117 20.4387 87.4177C26.6371 88.4236 32.4775 84.2143 33.4835 78.0158Z" fill="#EBEBEB"/>
<path d="M23.1703 76.3604C24.0703 75.9804 24.7203 75.0504 24.7203 73.9504C24.7303 72.5104 23.6403 71.3404 22.2903 71.3404C20.9403 71.3304 19.8403 72.4904 19.8403 73.9304C19.8403 75.0404 20.4803 75.9804 21.4003 76.3604C17.6403 76.9304 17.8103 81.0104 17.8103 81.0104L26.6903 81.0504C26.7003 81.0504 26.9003 76.9304 23.1703 76.3604Z" fill="white"/>
<path d="M113.16 75.7302C113.16 75.8702 97.1197 75.9902 77.3297 75.9902C57.5397 75.9902 41.4897 75.8702 41.4897 75.7302C41.4897 75.5902 57.5297 75.4702 77.3297 75.4702C97.1097 75.4702 113.16 75.5902 113.16 75.7302Z" fill="#E0E0E0"/>
<path d="M216.32 0.5H91.7402V37.3H216.32V0.5Z" fill="white"/>
<path d="M216.82 37.8H91.2402V0H216.82V37.8ZM92.2402 36.8H215.82V1H92.2402V36.8Z" fill="#E0E0E0"/>
<path d="M111.1 31.0798C117.38 31.0798 122.47 25.9893 122.47 19.7098C122.47 13.4304 117.38 8.33984 111.1 8.33984C104.821 8.33984 99.7305 13.4304 99.7305 19.7098C99.7305 25.9893 104.821 31.0798 111.1 31.0798Z" fill="#EBEBEB"/>
<path d="M112.02 19.8799C112.92 19.4999 113.57 18.5699 113.57 17.4699C113.58 16.0299 112.49 14.8599 111.14 14.8599C109.79 14.8499 108.69 16.0099 108.69 17.4499C108.69 18.5599 109.33 19.4999 110.25 19.8799C106.49 20.4499 106.66 24.5299 106.66 24.5299L115.54 24.5699C115.54 24.5599 115.74 20.4399 112.02 19.8799Z" fill="white"/>
<path d="M202 19.24C202 19.38 185.96 19.5 166.17 19.5C146.38 19.5 130.33 19.38 130.33 19.24C130.33 19.1 146.37 18.98 166.17 18.98C185.95 18.98 202 19.1 202 19.24Z" fill="#E0E0E0"/>
<path d="M597.54 204.72C575.03 186.46 571.87 155.35 574.79 127.8C575.28 123.2 575.12 118.3 577.6 114.42C580.08 110.53 585.4 108.14 589.39 110.38C592.7 112.24 593.9 116.33 595.58 119.76C597.81 124.33 601.35 128.22 605.65 130.86C608.48 132.59 612.04 133.79 615.05 132.4C619.18 130.49 620.05 125.03 620.35 120.44C620.91 111.89 621.47 103.34 622.03 94.7901C622.33 90.2001 622.65 85.5201 624.39 81.2701C626.13 77.0201 629.57 73.2001 634.02 72.3001C638.47 71.3901 643.68 74.2901 644.28 78.8501C644.53 80.7501 644.01 82.6601 644 84.5701C643.99 86.4801 644.73 88.6501 646.5 89.3101C648.29 89.9801 650.22 88.8101 651.69 87.5701C656.76 83.2801 660.4 77.5501 663.82 71.8301C667.25 66.1101 670.6 60.2501 675.25 55.5101C679.91 50.7701 686.13 47.1901 692.73 47.2901C699.32 47.3901 706.03 51.9501 707.23 58.5101C708.43 65.0901 704.19 71.3801 699.71 76.3201C693.06 83.6501 685.37 90.0001 676.94 95.1001C675.42 96.0201 673.77 97.0201 673.1 98.6801C671.88 101.67 674.56 104.91 677.51 106.13C680.85 107.51 684.58 107.43 688.13 108.1C691.68 108.78 695.44 110.63 696.55 114.11C698.09 118.93 693.82 123.56 689.73 126.5C681.54 132.39 672.36 136.85 662.7 139.62C659.24 140.61 655.61 141.44 652.72 143.61C649.83 145.79 647.89 149.79 649.3 153.14C650.71 156.49 654.86 157.83 658.44 157.43C662.02 157.03 665.32 155.34 668.78 154.31C675.25 152.38 683.36 153.4 687 159.14C689.4 162.91 689.27 167.91 687.62 172.08C685.97 176.25 682.99 179.73 679.85 182.91C668.9 194.03 655.29 202.65 640.3 206.66C625.33 210.68 611.69 211.08 597.54 204.72Z" fill="#F5F5F5"/>
<path d="M605.92 187.92C610.99 174.27 617.78 159.77 625.41 144.85C627.33 141.13 629.23 137.45 631.1 133.82C632.98 130.21 634.83 126.62 636.87 123.23C640.91 116.42 645.32 110.19 649.68 104.4C654.04 98.6104 658.4 93.2704 662.5 88.3104C666.62 83.3604 670.55 78.8104 674.3 74.8204C681.79 66.8104 688.58 61.0704 693.4 57.3304C695.81 55.4504 697.72 54.0504 699.04 53.1204C699.67 52.6804 700.17 52.3304 700.54 52.0704C700.88 51.8404 701.06 51.7304 701.07 51.7404C701.08 51.7504 700.92 51.8904 700.59 52.1404C700.23 52.4204 699.75 52.7904 699.14 53.2604C697.86 54.2304 695.98 55.6704 693.6 57.5904C688.85 61.4104 682.14 67.2004 674.73 75.2404C671.01 79.2404 667.12 83.8004 663.03 88.7704C658.95 93.7504 654.62 99.0904 650.28 104.88C645.94 110.67 641.57 116.89 637.56 123.67C635.54 127.05 633.7 130.6 631.82 134.23C629.95 137.85 628.06 141.53 626.14 145.25C618.52 160.16 611.72 174.61 606.63 188.2" fill="#E0E0E0"/>
<path d="M637.1 123.22C637.04 123.22 636.94 122.52 636.79 121.23C636.64 119.95 636.48 118.08 636.33 115.77C636.01 111.16 635.78 104.77 635.56 97.7299C635.34 90.6899 635.02 84.3199 634.63 79.7299C634.44 77.4299 634.27 75.5699 634.14 74.2899C634.01 73.0099 633.97 72.2899 634.03 72.2799C634.09 72.2699 634.24 72.9699 634.47 74.2399C634.71 75.5099 634.97 77.3699 635.23 79.6599C635.77 84.2599 636.19 90.6399 636.41 97.6899C636.61 104.64 636.79 110.92 636.93 115.72C637.01 117.89 637.07 119.72 637.12 121.18C637.17 122.5 637.16 123.21 637.1 123.22Z" fill="#E0E0E0"/>
<path d="M696.85 116.43C696.85 116.49 696 116.53 694.48 116.54C692.96 116.57 690.75 116.59 688.03 116.71C682.59 116.9 675.08 117.44 666.82 118.39C658.56 119.36 651.13 120.55 645.77 121.56C643.09 122.05 640.93 122.5 639.44 122.81C637.95 123.12 637.11 123.27 637.1 123.21C637.09 123.15 637.89 122.9 639.37 122.49C640.84 122.09 642.99 121.54 645.66 120.97C651 119.8 658.45 118.51 666.73 117.54C675.01 116.59 682.55 116.15 688.02 116.11C690.75 116.07 692.96 116.13 694.49 116.21C696.01 116.3 696.85 116.37 696.85 116.43Z" fill="#E0E0E0"/>
<path d="M606.72 186.89C606.69 186.9 606.57 186.64 606.37 186.14C606.14 185.54 605.86 184.82 605.52 183.93C604.79 182.01 603.8 179.21 602.62 175.73C600.26 168.77 597.3 159.06 594.19 148.3C591.07 137.53 588.21 127.8 586 120.81C584.91 117.41 584.02 114.61 583.36 112.53C583.08 111.63 582.84 110.88 582.65 110.27C582.5 109.75 582.43 109.47 582.46 109.46C582.49 109.45 582.61 109.71 582.81 110.21C583.04 110.81 583.32 111.53 583.66 112.41C584.39 114.33 585.38 117.13 586.56 120.61C588.92 127.57 591.88 137.28 594.99 148.05C598.11 158.81 600.97 168.54 603.18 175.54C604.27 178.94 605.16 181.74 605.82 183.82C606.1 184.72 606.34 185.47 606.53 186.08C606.68 186.6 606.75 186.88 606.72 186.89Z" fill="#E0E0E0"/>
<path d="M686.87 167.26C686.88 167.29 686.6 167.38 686.07 167.52C685.44 167.68 684.67 167.88 683.74 168.12C681.59 168.65 678.69 169.37 675.16 170.24C667.91 172.03 657.93 174.61 646.9 177.49C635.87 180.36 625.85 182.86 618.57 184.5C614.93 185.32 611.97 185.95 609.92 186.35C608.97 186.53 608.19 186.67 607.56 186.79C607.02 186.88 606.73 186.92 606.72 186.89C606.71 186.86 606.99 186.77 607.52 186.62C608.15 186.46 608.92 186.26 609.85 186.02C612 185.49 614.9 184.77 618.43 183.9C625.68 182.11 635.66 179.53 646.69 176.65C657.72 173.78 667.73 171.28 675.02 169.64C678.66 168.82 681.62 168.18 683.67 167.79C684.62 167.61 685.4 167.47 686.03 167.35C686.58 167.27 686.87 167.23 686.87 167.26Z" fill="#E0E0E0"/>
<path d="M24.2398 353.65C19.6198 351.27 14.1798 350.96 9.05981 351.8C6.30981 352.26 3.42981 353.08 1.55981 355.15C-0.310193 357.22 -0.670193 360.86 1.47981 362.64C2.75981 363.7 4.54981 363.86 6.20981 363.84C10.2198 363.79 14.6798 363.09 17.8798 365.5C19.7098 366.88 20.9298 369.17 23.1098 369.85C25.2498 370.51 27.6598 369.25 28.7998 367.32C29.9298 365.39 29.9698 362.97 29.4398 360.8C29.4498 360.8 28.8898 356.05 24.2398 353.65Z" fill="#EBEBEB"/>
<path d="M34.8198 333.23C31.9998 337.26 26.5098 335.93 23.9598 333.47C21.4198 331.01 20.3398 327.44 19.3598 324.04C17.1198 316.27 14.8698 308.11 16.5298 300.19C17.0298 297.82 17.9098 295.46 19.5798 293.71C21.2398 291.95 23.7998 290.91 26.1398 291.53C28.9098 292.26 30.6298 294.97 31.8698 297.55C35.5198 305.13 37.4598 313.53 37.4898 321.95C37.4998 325.86 37.0398 329.98 34.8198 333.23Z" fill="#EBEBEB"/>
<path d="M42.5699 339.02C39.4999 335.38 38.9199 330.07 40.2899 325.51C41.6499 320.95 44.7399 317.07 48.2899 313.91C52.4599 310.2 57.3499 307.31 62.6099 305.46C64.6799 304.73 66.8699 304.16 69.0499 304.37C71.2399 304.58 73.4399 305.7 74.4599 307.64C75.9699 310.52 74.5199 314 72.9599 316.85C70.2099 321.86 67.0599 326.66 63.5499 331.18C60.7299 334.82 57.4999 338.4 53.1999 340.04C48.8999 341.68 44.4399 341.49 42.1599 338.51" fill="#EBEBEB"/>
<path d="M35.0099 394.07C34.9599 394.07 34.8699 393.42 34.7499 392.24C34.6199 390.91 34.4599 389.23 34.2599 387.24C34.0299 385.14 33.7199 382.63 33.1299 379.9C32.5499 377.18 31.6399 374.23 30.4599 371.24C29.2499 368.27 27.7699 365.57 26.0399 363.4C24.3199 361.23 22.3299 359.66 20.4499 358.75C18.5799 357.83 16.8999 357.45 15.7399 357.28C14.5699 357.16 13.9199 357.07 13.9199 357.02C13.9199 356.97 14.5799 356.96 15.7799 356.99C16.9699 357.07 18.7199 357.37 20.6899 358.27C22.6699 359.15 24.7899 360.74 26.5899 362.96C28.4099 365.17 29.9399 367.93 31.1699 370.95C32.3599 373.99 33.2599 376.97 33.8199 379.75C34.3799 382.52 34.6299 385.06 34.7999 387.18C34.9599 389.3 35.0199 391.02 35.0499 392.21C35.0699 393.41 35.0599 394.07 35.0099 394.07Z" fill="#E0E0E0"/>
<path d="M34.6699 390.22C34.6399 390.22 34.6299 389.93 34.6199 389.37C34.6199 388.73 34.62 387.93 34.63 386.94C34.64 384.83 34.63 381.78 34.52 378C34.33 370.46 33.68 362.34 32.43 350.89C31.24 340.13 29.6499 327.6 27.9699 319.46C27.6099 317.61 27.2499 315.94 26.8999 314.48C26.5699 313.02 26.3 311.76 26.03 310.74C25.8 309.78 25.6099 309 25.4599 308.38C25.3399 307.84 25.2899 307.55 25.3099 307.54C25.3299 307.53 25.44 307.81 25.61 308.34C25.8 308.95 26.03 309.72 26.3199 310.67C26.63 311.68 26.95 312.93 27.32 314.39C27.7 315.84 28.1 317.51 28.5 319.35C30.16 326.73 31.9299 337.04 33.1899 348.51C34.4499 359.98 35.01 370.42 35.06 377.98C35.1 381.76 35.02 384.82 34.93 386.93C34.87 387.92 34.8199 388.72 34.7799 389.36C34.7299 389.93 34.6899 390.22 34.6699 390.22Z" fill="#E0E0E0"/>
<path d="M34.6097 370.08C34.5597 370.08 34.5697 369.18 34.6297 367.54C34.7197 365.91 34.9496 363.55 35.4096 360.66C35.8996 357.78 36.5797 354.35 37.6497 350.63C38.1097 348.93 39.1996 344.85 41.8397 338.76C45.3197 330.51 50.0396 323.76 54.1497 319.58C55.1096 318.47 56.1896 317.67 57.0496 316.89C57.4896 316.51 57.8897 316.14 58.2896 315.84C58.6896 315.56 59.0696 315.3 59.4096 315.07C60.7596 314.14 61.5196 313.66 61.5496 313.7C61.6696 313.87 58.5196 315.72 54.5396 319.95C50.5797 324.18 45.9796 330.87 42.5296 339.06C40.6096 343.5 39.2597 347.46 38.3097 350.82C37.2097 354.5 36.4797 357.89 35.9297 360.75C35.4097 363.61 35.0996 365.95 34.9196 367.57C34.7796 369.19 34.6697 370.08 34.6097 370.08Z" fill="#E0E0E0"/>
<path d="M54.0798 405.61L52.0598 433.26H16.5398L14.5298 405.61H54.0798Z" fill="#E0E0E0"/>
<path d="M57.52 394.71H10.29V405.61H57.52V394.71Z" fill="#E0E0E0"/>
<path d="M57.5098 432.2V435.22H55.2898H11.0698V432.2H57.5098Z" fill="#EBEBEB"/>
<path d="M53.1198 440.54L55.2898 435.22H12.7598L15.2998 440.54H53.1198Z" fill="#E0E0E0"/>
<path d="M15.1798 414.65C15.1698 414.66 15.2298 414.74 15.3498 414.9C15.4898 415.09 15.6698 415.32 15.8798 415.6C16.3798 416.25 17.0798 417.13 17.9498 418.25L18.0398 418.37L18.1298 418.25C19.4298 416.45 21.1698 414.05 23.2098 411.22H22.9198C24.4298 413.36 26.1198 415.75 27.9198 418.31L28.0798 418.53L28.2598 418.32C30.1098 416.12 32.1098 413.74 34.1998 411.26H33.8598C33.9598 411.39 34.0698 411.53 34.1898 411.67C36.0298 413.98 37.8098 416.21 39.4998 418.32L39.6798 418.54L39.8398 418.31C41.6398 415.76 43.3298 413.38 44.8498 411.22L44.5598 411.23C47.0298 414.04 49.1198 416.43 50.7298 418.26L50.8398 418.38L50.9198 418.24C51.7298 416.87 52.3798 415.79 52.8498 415C53.0498 414.65 53.2198 414.36 53.3498 414.14C53.4598 413.94 53.5098 413.84 53.4998 413.83C53.4898 413.82 53.4198 413.92 53.2898 414.1C53.1498 414.32 52.9698 414.59 52.7398 414.93C52.2498 415.7 51.5698 416.77 50.7098 418.11L50.8998 418.09C49.3198 416.24 47.2598 413.82 44.8298 410.98L44.6798 410.8L44.5398 410.99C42.9998 413.13 41.3098 415.51 39.4898 418.04L39.8298 418.03C38.1498 415.91 36.3698 413.68 34.5298 411.37C34.4198 411.23 34.3098 411.09 34.1998 410.96L34.0298 410.75L33.8598 410.96C31.7798 413.44 29.7798 415.83 27.9398 418.04L28.2698 418.05C26.4398 415.5 24.7398 413.13 23.2098 411L23.0598 410.79L22.9198 411C20.9198 413.86 19.2198 416.29 17.9398 418.11L18.1198 418.1C17.2098 417.01 16.4898 416.15 15.9698 415.52C15.7398 415.25 15.5498 415.03 15.3898 414.85C15.2698 414.71 15.1898 414.64 15.1798 414.65Z" fill="#F5F5F5"/>
<path d="M14.0298 405.43C14.0298 405.55 22.9298 405.65 33.9098 405.65C44.8898 405.65 53.7898 405.55 53.7898 405.43C53.7898 405.31 44.8898 405.21 33.9098 405.21C22.9298 405.21 14.0298 405.31 14.0298 405.43Z" fill="#F5F5F5"/>
<path d="M12.2397 435.52C12.2397 435.64 21.9097 435.74 33.8397 435.74C45.7697 435.74 55.4397 435.64 55.4397 435.52C55.4397 435.4 45.7697 435.3 33.8397 435.3C21.9097 435.3 12.2397 435.4 12.2397 435.52Z" fill="#F5F5F5"/>
<path d="M320.39 350.77H195.81V387.57H320.39V350.77Z" fill="white"/>
<path d="M320.89 388.07H195.31V350.27H320.89V388.07ZM196.31 387.07H319.89V351.27H196.31V387.07Z" fill="#E0E0E0"/>
<path d="M215.17 381.35C221.45 381.35 226.54 376.259 226.54 369.98C226.54 363.7 221.45 358.61 215.17 358.61C208.891 358.61 203.8 363.7 203.8 369.98C203.8 376.259 208.891 381.35 215.17 381.35Z" fill="#EBEBEB"/>
<path d="M211 368.385L213.824 373L219 367" stroke="white"/>
<path d="M306.07 369.51C306.07 369.65 290.03 369.77 270.24 369.77C250.45 369.77 234.4 369.65 234.4 369.51C234.4 369.37 250.44 369.25 270.24 369.25C290.02 369.25 306.07 369.37 306.07 369.51Z" fill="#E0E0E0"/>
<path d="M416.71 313.58H292.13V350.38H416.71V313.58Z" fill="white"/>
<path d="M417.2 350.88H291.63V313.08H417.2V350.88ZM292.63 349.88H416.2V314.08H292.63V349.88Z" fill="#E0E0E0"/>
<path d="M311.48 344.16C317.759 344.16 322.85 339.069 322.85 332.79C322.85 326.51 317.759 321.42 311.48 321.42C305.2 321.42 300.11 326.51 300.11 332.79C300.11 339.069 305.2 344.16 311.48 344.16Z" fill="#EBEBEB"/>
<path d="M307 331.385L309.824 336L315 330" stroke="white"/>
<path d="M402.38 332.32C402.38 332.46 386.34 332.58 366.55 332.58C346.76 332.58 330.71 332.46 330.71 332.32C330.71 332.18 346.75 332.06 366.55 332.06C386.33 332.06 402.38 332.18 402.38 332.32Z" fill="#E0E0E0"/>
<path d="M457.08 377.42L455.38 408.6C455.32 409.71 454.41 410.58 453.29 410.59L397.18 411C396.02 411.01 395.07 410.07 395.06 408.91L394.88 384.64C394.87 383.47 395.82 382.52 396.98 382.52L431.49 382.49C432.05 382.49 432.58 382.27 432.98 381.87L438.93 375.92C439.32 375.53 439.85 375.31 440.4 375.3L454.95 375.19C456.18 375.19 457.15 376.21 457.08 377.42Z" fill="#D5AC50"/>
<g opacity="0.3">
<g opacity="0.3">
<g opacity="0.3">
<g opacity="0.3">
<g opacity="0.3">
<path opacity="0.3" d="M457.08 377.42L455.38 408.6C455.32 409.71 454.41 410.58 453.29 410.59L397.18 411C396.02 411.01 395.07 410.07 395.06 408.91L394.88 384.64C394.87 383.47 395.82 382.52 396.98 382.52L431.49 382.49C432.05 382.49 432.58 382.27 432.98 381.87L438.93 375.92C439.32 375.53 439.85 375.31 440.4 375.3L454.95 375.19C456.18 375.19 457.15 376.21 457.08 377.42Z" fill="black"/>
</g>
</g>
</g>
</g>
</g>
<path d="M395.104 415.482L456.414 415.033L456.145 378.393L394.835 378.842L395.104 415.482Z" fill="#F5F5F5"/>
<path d="M461.06 381.66L456.66 419.9C456.58 420.58 456.01 421.09 455.33 421.1L395.58 421.54C394.87 421.55 394.28 421.01 394.22 420.3L390.93 382.12C390.86 381.33 391.48 380.66 392.27 380.65L459.71 380.16C460.51 380.14 461.15 380.85 461.06 381.66Z" fill="#FAFAFA"/>
<path d="M473.59 371.54L471.89 402.72C471.83 403.83 470.92 404.7 469.8 404.71L413.69 405.12C412.53 405.13 411.58 404.19 411.57 403.03L411.39 378.76C411.38 377.59 412.33 376.64 413.49 376.64L448 376.61C448.56 376.61 449.09 376.39 449.49 375.99L455.44 370.04C455.83 369.65 456.36 369.43 456.91 369.42L471.46 369.31C472.69 369.31 473.66 370.33 473.59 371.54Z" fill="#E0E0E0"/>
<path d="M411.61 409.597L472.92 409.148L472.651 372.508L411.341 372.957L411.61 409.597Z" fill="#F5F5F5"/>
<path d="M477.57 375.78L473.17 414.02C473.09 414.7 472.52 415.21 471.83 415.22L412.08 415.66C411.37 415.66 410.78 415.13 410.72 414.42L407.43 376.24C407.36 375.45 407.98 374.78 408.77 374.77L476.21 374.28C477.02 374.26 477.66 374.97 477.57 375.78Z" fill="#E0E0E0"/>
<path d="M492.19 378.84L490.49 410.02C490.43 411.13 489.52 412 488.4 412.01L432.29 412.42C431.13 412.43 430.18 411.49 430.17 410.33L430 386.06C429.99 384.89 430.94 383.94 432.1 383.94L466.61 383.91C467.17 383.91 467.7 383.69 468.1 383.29L474.05 377.34C474.44 376.95 474.97 376.73 475.52 376.72L490.07 376.61C491.29 376.61 492.26 377.63 492.19 378.84Z" fill="#F5F5F5"/>
<path d="M430.219 416.9L491.529 416.451L491.26 379.811L429.95 380.26L430.219 416.9Z" fill="#F5F5F5"/>
<path d="M496.17 383.08L491.77 421.32C491.69 422 491.12 422.51 490.43 422.52L430.68 422.96C429.97 422.97 429.38 422.43 429.32 421.72L426.03 383.54C425.96 382.75 426.58 382.08 427.37 382.07L494.81 381.58C495.63 381.56 496.26 382.27 496.17 383.08Z" fill="#F5F5F5"/>
<path d="M426.03 388.28V441.32H502.55V388.28H426.03ZM451.01 397.82C451.01 395.66 452.76 393.9 454.93 393.9H473.66C475.82 393.9 477.58 395.65 477.58 397.82C477.58 399.98 475.83 401.74 473.66 401.74H454.93C452.76 401.74 451.01 399.98 451.01 397.82Z" fill="#EBEBEB"/>
<path d="M384.78 388.28V441.32H426.03V388.28H384.78Z" fill="#E0E0E0"/>
<path d="M622.66 283.439H143.35L144.31 11.7891H623.63L622.66 283.439Z" fill="white"/>
<path d="M152.63 21.1993C153.867 21.1993 154.87 20.2098 154.87 18.9893C154.87 17.7687 153.867 16.7793 152.63 16.7793C151.393 16.7793 150.39 17.7687 150.39 18.9893C150.39 20.2098 151.393 21.1993 152.63 21.1993Z" fill="#263238"/>
<path d="M161.84 21.1993C163.077 21.1993 164.08 20.2098 164.08 18.9893C164.08 17.7687 163.077 16.7793 161.84 16.7793C160.603 16.7793 159.6 17.7687 159.6 18.9893C159.6 20.2098 160.603 21.1993 161.84 21.1993Z" fill="#263238"/>
<path d="M246 30.0693H211.94V53.8993H246V30.0693Z" fill="#D5AC50"/>
<path d="M171.05 21.1993C172.287 21.1993 173.29 20.2098 173.29 18.9893C173.29 17.7687 172.287 16.7793 171.05 16.7793C169.813 16.7793 168.81 17.7687 168.81 18.9893C168.81 20.2098 169.813 21.1993 171.05 21.1993Z" fill="#263238"/>
<path d="M622.66 30.0686C622.66 30.2086 515.56 30.3286 383.47 30.3286C251.33 30.3286 144.25 30.2086 144.25 30.0686C144.25 29.9286 251.33 29.8086 383.47 29.8086C515.56 29.8086 622.66 29.9286 622.66 30.0686Z" fill="#263238"/>
<path d="M177.58 50.9492H143.35V283.769H177.58V50.9492Z" fill="#F5F5F5"/>
<path d="M211.94 50.6094H176.89V283.429H211.94V50.6094Z" fill="#EBEBEB"/>
<path d="M246.17 50.6094H211.94V283.429H246.17V50.6094Z" fill="#F5F5F5"/>
<path d="M280.53 50.6094H245.48V283.429H280.53V50.6094Z" fill="#EBEBEB"/>
<path d="M314.76 50.6094H280.53V283.429H314.76V50.6094Z" fill="#F5F5F5"/>
<path d="M349.12 50.6094H314.07V283.429H349.12V50.6094Z" fill="#EBEBEB"/>
<path d="M383.35 50.6094H349.12V283.429H383.35V50.6094Z" fill="#F5F5F5"/>
<path d="M417.71 50.6094H382.66V283.429H417.71V50.6094Z" fill="#EBEBEB"/>
<path d="M451.94 50.6094H417.71V283.429H451.94V50.6094Z" fill="#F5F5F5"/>
<path d="M486.3 50.6094H451.25V283.429H486.3V50.6094Z" fill="#EBEBEB"/>
<path d="M520.53 50.6094H486.3V283.429H520.53V50.6094Z" fill="#F5F5F5"/>
<path d="M554.9 50.6094H519.85V283.429H554.9V50.6094Z" fill="#EBEBEB"/>
<path d="M589.12 50.6094H554.89V283.429H589.12V50.6094Z" fill="#F5F5F5"/>
<path d="M622.67 50.6094H588.44V283.429H622.67V50.6094Z" fill="#EBEBEB"/>
<path d="M217.32 282.719C217.18 282.719 217.06 230.749 217.06 166.659C217.06 102.549 217.18 50.5889 217.32 50.5889C217.46 50.5889 217.58 102.549 217.58 166.659C217.58 230.749 217.46 282.719 217.32 282.719Z" fill="#D5AC50"/>
<path d="M261.6 84.1787H162.28V113.289H261.6V84.1787Z" fill="#D5AC50"/>
<path d="M177.85 108.359C182.904 108.359 187 104.334 187 99.3689C187 94.4039 182.904 90.3789 177.85 90.3789C172.797 90.3789 168.7 94.4039 168.7 99.3689C168.7 104.334 172.797 108.359 177.85 108.359Z" fill="white"/>
<path d="M174.001 97.3846L176.825 102L182.001 96" stroke="#D5AC50"/>
<path d="M249.94 98.9983C249.94 99.1383 237.27 99.2583 221.64 99.2583C206.01 99.2583 193.34 99.1383 193.34 98.9983C193.34 98.8583 206.01 98.7383 221.64 98.7383C237.26 98.7383 249.94 98.8583 249.94 98.9983Z" fill="white"/>
<path d="M463.47 204.189H443.6C423.33 204.189 406.84 187.979 406.84 168.049V131.499C406.84 112.129 390.8 96.3591 371.09 96.3591L261.6 96.9091V95.9091L371.1 95.3691C391.37 95.3691 407.86 111.579 407.86 131.509V168.049C407.86 187.419 423.9 203.189 443.62 203.189H463.49V204.189H463.47Z" fill="#D5AC50"/>
<path d="M527.16 190.929H450.68V220.039H527.16V190.929Z" fill="white"/>
<path d="M527.66 220.539H450.18V190.429H527.66V220.539ZM451.18 219.539H526.66V191.429H451.18V219.539Z" fill="#D5AC50"/>
<path d="M466.26 215.109C471.314 215.109 475.41 211.084 475.41 206.119C475.41 201.154 471.314 197.129 466.26 197.129C461.207 197.129 457.11 201.154 457.11 206.119C457.11 211.084 461.207 215.109 466.26 215.109Z" fill="#D5AC50"/>
<path d="M462.001 204.385L464.825 209L470.001 203" stroke="white"/>
<path d="M507.96 205.759C507.96 205.799 507.59 205.829 506.93 205.859C506.27 205.889 505.31 205.919 504.12 205.939C501.75 205.989 498.47 206.019 494.85 206.019C491.23 206.019 487.95 205.989 485.58 205.939C484.39 205.919 483.43 205.889 482.77 205.859C482.11 205.829 481.74 205.789 481.74 205.759C481.74 205.719 482.11 205.689 482.77 205.659C483.43 205.629 484.39 205.599 485.58 205.579C487.95 205.529 491.23 205.499 494.85 205.499C498.47 205.499 501.75 205.529 504.12 205.579C505.31 205.599 506.27 205.629 506.93 205.659C507.59 205.689 507.96 205.719 507.96 205.759Z" fill="#D5AC50"/>
<path d="M592.551 161.317L527.611 161.102L527.515 190.212L592.455 190.427L592.551 161.317Z" fill="white"/>
<path d="M592.95 190.929L527.01 190.709L527.11 160.599L593.05 160.819L592.95 190.929ZM528.01 189.709L591.95 189.919L592.05 161.809L528.11 161.599L528.01 189.709Z" fill="#263238"/>
<path d="M551.72 176.378C551.7 181.348 547.69 185.358 542.75 185.338C537.81 185.318 533.82 181.278 533.84 176.318C533.86 171.348 537.87 167.338 542.81 167.358C547.75 167.368 551.74 171.408 551.72 176.378Z" fill="#263238"/>
<path d="M539 174.385L541.824 179L547 173" stroke="white"/>
<path d="M585.29 176.139C585.29 176.179 584.91 176.209 584.21 176.239C583.52 176.269 582.51 176.289 581.28 176.309C578.8 176.349 575.38 176.359 571.6 176.349C567.82 176.329 564.4 176.289 561.92 176.229C560.68 176.199 559.68 176.169 558.99 176.139C558.3 176.109 557.91 176.069 557.91 176.029C557.91 175.989 558.29 175.959 558.99 175.929C559.68 175.899 560.69 175.879 561.92 175.859C564.4 175.819 567.82 175.809 571.6 175.819C575.38 175.839 578.8 175.879 581.28 175.939C582.52 175.969 583.52 175.999 584.21 176.029C584.91 176.069 585.29 176.109 585.29 176.139Z" fill="#263238"/>
<path d="M373.99 133.439H261.7V162.549H373.99V133.439Z" fill="white"/>
<path d="M374.49 163.049H261.2V132.939H374.49V163.049ZM262.2 162.049H373.49V133.939H262.2V162.049Z" fill="#455A64"/>
<path d="M361.43 148.269C361.43 148.409 347.67 148.529 330.71 148.529C313.74 148.529 299.98 148.409 299.98 148.269C299.98 148.129 313.73 148.009 330.71 148.009C347.67 148.009 361.43 148.119 361.43 148.269Z" fill="#455A64"/>
<path d="M278.94 157.259C283.993 157.259 288.09 153.234 288.09 148.269C288.09 143.304 283.993 139.279 278.94 139.279C273.887 139.279 269.79 143.304 269.79 148.269C269.79 153.234 273.887 157.259 278.94 157.259Z" fill="#455A64"/>
<path d="M275.001 146.385L277.825 151L283.001 145" stroke="white"/>
<path d="M449.85 163.169H350.53V192.279H449.85V163.169Z" fill="white"/>
<path d="M450.35 192.779H350.03V162.669H450.35V192.779ZM351.03 191.779H449.35V163.669H351.03V191.779Z" fill="#263238"/>
<path d="M366.1 187.359C371.154 187.359 375.25 183.334 375.25 178.369C375.25 173.404 371.154 169.379 366.1 169.379C361.047 169.379 356.95 173.404 356.95 178.369C356.95 183.334 361.047 187.359 366.1 187.359Z" fill="#263238"/>
<path d="M362.001 176.385L364.825 181L370.001 175" stroke="white"/>
<path d="M438.19 177.999C438.19 178.139 425.52 178.259 409.89 178.259C394.26 178.259 381.59 178.139 381.59 177.999C381.59 177.859 394.26 177.739 409.89 177.739C425.51 177.739 438.19 177.859 438.19 177.999Z" fill="#263238"/>
<path d="M622.66 283.77C622.66 282.16 622.96 178.85 623.43 11.7795L623.63 11.9795C495.48 11.9995 327.57 12.0195 144.35 12.0495H144.31L144.57 11.7895C144.22 108.01 143.89 199.99 143.58 283.78L143.34 283.54C424.19 283.67 620.45 283.77 622.66 283.77C620.45 283.77 424.18 283.87 143.34 284.01H143.1V283.77C143.39 199.99 143.72 108 144.05 11.7795V11.5195H144.31H144.35C327.57 11.5395 495.48 11.5595 623.63 11.5795H623.83V11.7795C623.12 178.85 622.67 282.17 622.66 283.77Z" fill="#263238"/>
<path d="M570.74 350.57C557.36 344.14 541.94 332.39 535.17 318.97C549.6 325.6 562.25 336.84 570.74 350.57Z" fill="#D5AC50"/>
<path d="M576.9 351.94C565.25 361.13 547.91 369.82 532.88 370C545.18 359.95 560.84 353.52 576.9 351.94Z" fill="#D5AC50"/>
<path d="M592.16 358.68C582.48 369.93 567.13 381.77 552.41 384.83C562.55 372.6 576.69 363.3 592.16 358.68Z" fill="#D5AC50"/>
<path d="M608 372.69C598.81 379.94 585.14 386.79 573.29 386.94C582.98 379.01 595.33 373.95 608 372.69Z" fill="#D5AC50"/>
<path d="M585.48 355.62C575.03 345.08 564.43 328.84 562.55 313.93C573.92 325.01 582.08 339.83 585.48 355.62Z" fill="#D5AC50"/>
<path d="M621.08 372.57C605.55 364.17 588.09 348.9 581.3 331.54C598.09 340.2 612.24 354.8 621.08 372.57Z" fill="#D5AC50"/>
<path d="M620.07 346.54C604.54 338.14 587.08 322.87 580.29 305.51C597.08 314.17 611.23 328.76 620.07 346.54Z" fill="#D5AC50"/>
<path d="M617.75 321.09C602.22 312.69 584.76 297.42 577.97 280.06C594.76 288.72 608.91 303.32 617.75 321.09Z" fill="#D5AC50"/>
<path d="M614.35 294.36C599.94 283.86 584.44 266.27 579.76 248.11C595.38 259.04 607.69 275.5 614.35 294.36Z" fill="#D5AC50"/>
<path d="M609.97 273.74C600.22 258.14 591.9 235.52 593.8 216.77C604.53 233.27 610.28 253.53 609.97 273.74Z" fill="#D5AC50"/>
<path d="M612.18 283.55C616.28 264.09 626.27 240.08 640.65 226.56C636.6 247.44 626.48 267.72 612.18 283.55Z" fill="#D5AC50"/>
<path d="M615.38 305.57C621.25 285.66 633.63 261.52 649.73 248.69C643.79 270.08 631.57 290.31 615.38 305.57Z" fill="#D5AC50"/>
<path d="M618.91 332.37C624.78 312.46 637.16 288.32 653.26 275.49C647.32 296.89 635.1 317.12 618.91 332.37Z" fill="#D5AC50"/>
<path d="M620.69 365.04C626.56 345.13 638.94 320.99 655.04 308.16C649.1 329.56 636.88 349.79 620.69 365.04Z" fill="#D5AC50"/>
<path d="M609.58 269.81C609.59 269.81 609.62 269.91 609.68 270.12C609.74 270.37 609.81 270.67 609.9 271.06C610.09 271.93 610.36 273.14 610.69 274.67C611.37 277.81 612.27 282.37 613.29 288.03C614.32 293.68 615.4 300.44 616.47 307.96C617.5 315.49 618.49 323.78 619.31 332.52C620.1 341.26 620.64 349.6 620.99 357.19C621.32 364.78 621.48 371.62 621.5 377.37C621.53 383.12 621.48 387.77 621.38 390.98C621.33 392.55 621.29 393.78 621.26 394.68C621.24 395.07 621.23 395.39 621.21 395.64C621.2 395.86 621.18 395.97 621.17 395.97C621.16 395.97 621.15 395.86 621.14 395.64C621.14 395.39 621.13 395.07 621.12 394.68C621.12 393.79 621.12 392.55 621.12 390.98C621.14 387.77 621.12 383.12 621.04 377.38C620.96 371.64 620.75 364.8 620.39 357.22C620 349.64 619.45 341.31 618.66 332.58C617.85 323.86 616.87 315.57 615.88 308.05C614.85 300.53 613.82 293.77 612.84 288.11C611.88 282.45 611.05 277.88 610.44 274.72C610.15 273.18 609.93 271.96 609.77 271.08C609.7 270.69 609.65 270.38 609.61 270.13C609.58 269.93 609.57 269.81 609.58 269.81Z" fill="#263238"/>
<g opacity="0.5">
<g opacity="0.5">
<g opacity="0.5">
<g opacity="0.5">
<path opacity="0.5" d="M621.08 372.57C605.55 364.17 588.09 348.9 581.3 331.54C598.09 340.2 612.24 354.8 621.08 372.57Z" fill="black"/>
</g>
</g>
</g>
<g opacity="0.5">
<g opacity="0.5">
<g opacity="0.5">
<path opacity="0.5" d="M620.07 346.54C604.54 338.14 587.08 322.87 580.29 305.51C597.08 314.17 611.23 328.76 620.07 346.54Z" fill="black"/>
</g>
</g>
</g>
<g opacity="0.5">
<g opacity="0.5">
<g opacity="0.5">
<path opacity="0.5" d="M617.75 321.09C602.22 312.69 584.76 297.42 577.97 280.06C594.76 288.72 608.91 303.32 617.75 321.09Z" fill="black"/>
</g>
</g>
</g>
<g opacity="0.5">
<g opacity="0.5">
<g opacity="0.5">
<path opacity="0.5" d="M614.35 294.36C599.94 283.86 584.44 266.27 579.76 248.11C595.38 259.04 607.69 275.5 614.35 294.36Z" fill="black"/>
</g>
</g>
</g>
<g opacity="0.5">
<g opacity="0.5">
<g opacity="0.5">
<path opacity="0.5" d="M609.97 273.74C600.22 258.14 591.9 235.52 593.8 216.77C604.53 233.27 610.28 253.53 609.97 273.74Z" fill="black"/>
</g>
</g>
</g>
<g opacity="0.5">
<g opacity="0.5">
<g opacity="0.5">
<path opacity="0.5" d="M612.18 283.55C616.28 264.09 626.27 240.08 640.65 226.56C636.6 247.44 626.48 267.72 612.18 283.55Z" fill="black"/>
</g>
</g>
</g>
<g opacity="0.5">
<g opacity="0.5">
<g opacity="0.5">
<path opacity="0.5" d="M615.38 305.57C621.25 285.66 633.63 261.52 649.73 248.69C643.79 270.08 631.57 290.31 615.38 305.57Z" fill="black"/>
</g>
</g>
</g>
<g opacity="0.5">
<g opacity="0.5">
<g opacity="0.5">
<path opacity="0.5" d="M618.91 332.37C624.78 312.46 637.16 288.32 653.26 275.49C647.32 296.89 635.1 317.12 618.91 332.37Z" fill="black"/>
</g>
</g>
</g>
<g opacity="0.5">
<g opacity="0.5">
<g opacity="0.5">
<path opacity="0.5" d="M620.69 365.04C626.56 345.13 638.94 320.99 655.04 308.16C649.1 329.56 636.88 349.79 620.69 365.04Z" fill="black"/>
</g>
</g>
</g>
</g>
<path d="M627.9 379.29C620.67 364.15 615.41 342.87 618.96 326.25C626.98 342.32 630.16 361.18 627.9 379.29Z" fill="#D5AC50"/>
<path d="M639.93 359.69C632.7 344.55 627.44 323.27 630.99 306.65C639.01 322.71 642.19 341.58 639.93 359.69Z" fill="#D5AC50"/>
<path d="M650.71 339.76C643.48 324.62 638.22 303.34 641.77 286.72C649.79 302.78 652.97 321.65 650.71 339.76Z" fill="#D5AC50"/>
<path d="M661.34 318.26C655.96 302.24 653.27 280.39 658.75 264.41C664.8 281.47 665.72 300.62 661.34 318.26Z" fill="#D5AC50"/>
<path d="M668.25 300.66C668.78 283.61 673.79 262.26 684.38 249.67C684.12 267.94 678.39 286.08 668.25 300.66Z" fill="#D5AC50"/>
<path d="M665.05 309.11C677.59 297.28 696.66 285.53 713.8 283.99C700.6 296.9 683.26 305.83 665.05 309.11Z" fill="#D5AC50"/>
<path d="M656.59 327.04C670.64 315.91 691.52 305.45 709.57 305.41C694.74 317.6 675.9 325.29 656.59 327.04Z" fill="#D5AC50"/>
<path d="M646.03 348.67C660.08 337.54 680.96 327.08 699.01 327.04C684.18 339.23 665.33 346.92 646.03 348.67Z" fill="#D5AC50"/>
<path d="M631.31 373.57C645.36 362.44 666.24 351.98 684.29 351.94C669.46 364.12 650.61 371.81 631.31 373.57Z" fill="#D5AC50"/>
<path d="M669.89 297.57C669.9 297.57 669.87 297.67 669.81 297.85C669.73 298.07 669.64 298.33 669.52 298.65C669.23 299.4 668.84 300.42 668.34 301.71C667.32 304.37 665.75 308.19 663.74 312.87C659.73 322.24 653.79 335.03 646.4 348.73C642.7 355.58 638.99 362 635.52 367.78C632.02 373.54 628.77 378.67 625.94 382.91C623.12 387.16 620.78 390.56 619.12 392.87C618.31 393.99 617.67 394.88 617.2 395.53C616.99 395.8 616.83 396.03 616.69 396.21C616.57 396.36 616.51 396.44 616.5 396.43C616.49 396.42 616.54 396.34 616.64 396.17C616.76 395.98 616.92 395.74 617.1 395.45C617.55 394.78 618.15 393.87 618.92 392.72C620.52 390.37 622.8 386.93 625.57 382.66C628.35 378.39 631.55 373.24 635.02 367.47C638.46 361.68 642.14 355.26 645.84 348.42C653.21 334.74 659.21 322 663.32 312.68C665.38 308.02 667 304.23 668.1 301.6C668.64 300.33 669.07 299.32 669.39 298.58C669.53 298.27 669.65 298.01 669.74 297.8C669.83 297.65 669.88 297.56 669.89 297.57Z" fill="#263238"/>
<path d="M540.44 348.75C540.44 348.74 540.52 348.72 540.68 348.69C540.87 348.66 541.11 348.62 541.4 348.57C542.04 348.48 542.97 348.29 544.19 348.18C546.62 347.88 550.16 347.63 554.54 347.74C558.92 347.85 564.13 348.41 569.77 349.74C575.41 351.06 581.45 353.22 587.38 356.32C593.29 359.46 598.48 363.24 602.76 367.14C607.05 371.04 610.46 375.02 613.02 378.57C615.59 382.12 617.38 385.18 618.5 387.35C619.09 388.42 619.46 389.3 619.75 389.87C619.87 390.14 619.97 390.36 620.06 390.54C620.13 390.69 620.16 390.77 620.15 390.77C620.14 390.77 620.1 390.7 620.01 390.56C619.92 390.39 619.8 390.18 619.66 389.92C619.34 389.36 618.94 388.5 618.33 387.45C617.16 385.31 615.32 382.29 612.73 378.79C610.15 375.28 606.73 371.35 602.45 367.49C598.18 363.63 593.02 359.9 587.15 356.77C581.26 353.69 575.27 351.54 569.67 350.2C564.07 348.85 558.89 348.25 554.54 348.1C550.19 347.94 546.65 348.13 544.23 348.37C543.01 348.46 542.08 348.61 541.44 348.67C541.15 348.7 540.91 348.72 540.71 348.74C540.53 348.76 540.44 348.76 540.44 348.75Z" fill="#263238"/>
<path d="M648.72 441.51H603.89L596.04 383.42L657.01 382.85L648.72 441.51Z" fill="#263238"/>
<path d="M556.73 348.17C541.16 354.42 519.59 358.32 503.23 353.72C519.77 346.74 538.8 344.76 556.73 348.17Z" fill="#D5AC50"/>
<path d="M660.19 382.85H592.85V391.66H660.19V382.85Z" fill="#263238"/>
<path d="M660.24 391.77C660.24 391.91 645.1 392.03 626.43 392.03C607.75 392.03 592.61 391.91 592.61 391.77C592.61 391.63 607.75 391.51 626.43 391.51C645.1 391.51 660.24 391.63 660.24 391.77Z" fill="#455A64"/>
<path d="M652.56 405.9C652.52 405.94 652.02 405.31 650.88 404.46C649.76 403.61 647.91 402.61 645.41 402.14C642.93 401.65 639.84 401.78 636.65 402.84C633.45 403.85 630.2 405.67 626.92 407.76C623.64 409.85 620.53 411.94 617.46 413.42C614.41 414.93 611.39 415.76 608.81 415.93C606.23 416.13 604.13 415.72 602.78 415.25C602.1 415.02 601.59 414.79 601.25 414.61C600.92 414.43 600.75 414.33 600.75 414.32C600.77 414.27 601.47 414.66 602.83 415.06C604.18 415.47 606.25 415.81 608.77 415.57C611.3 415.35 614.24 414.51 617.24 412.99C620.26 411.51 623.34 409.43 626.63 407.32C629.92 405.22 633.22 403.39 636.5 402.38C639.76 401.33 642.94 401.23 645.47 401.78C648.01 402.3 649.88 403.38 650.99 404.3C651.28 404.52 651.51 404.74 651.71 404.94C651.91 405.13 652.07 405.3 652.19 405.45C652.45 405.73 652.58 405.89 652.56 405.9Z" fill="white"/>
<path d="M651.04 412.03C651.01 412.08 650.37 411.68 649.08 411.29C648.44 411.09 647.63 410.94 646.68 410.86C645.73 410.8 644.64 410.83 643.46 411.02C641.09 411.4 638.36 412.39 635.66 414.06C632.92 415.68 630.15 417.87 626.98 419.82C623.83 421.8 620.41 423.05 617.22 423.55C614.02 424.06 611.08 423.93 608.68 423.51C606.27 423.11 604.4 422.43 603.15 421.89C602.52 421.64 602.06 421.38 601.74 421.22C601.42 421.05 601.26 420.96 601.27 420.94C601.29 420.89 601.96 421.23 603.23 421.71C604.49 422.19 606.36 422.8 608.74 423.15C611.12 423.52 614.01 423.61 617.15 423.08C620.29 422.56 623.61 421.34 626.72 419.38C629.85 417.46 632.64 415.27 635.43 413.65C638.19 411.98 641 410.99 643.43 410.66C644.64 410.49 645.76 410.48 646.73 410.57C647.7 410.68 648.52 410.87 649.16 411.1C649.8 411.33 650.29 411.55 650.59 411.74C650.89 411.92 651.05 412.02 651.04 412.03Z" fill="white"/>
<path d="M695.85 441.51C695.85 441.65 541.12 441.77 350.29 441.77C159.4 441.77 4.7002 441.65 4.7002 441.51C4.7002 441.37 159.4 441.25 350.29 441.25C541.12 441.25 695.85 441.36 695.85 441.51Z" fill="#263238"/>
<path d="M66.7999 408.73L65.3799 430.19C65.3799 430.19 86.7399 437.28 86.8599 441.27L45.1299 441.57L45.9699 408.05L66.7999 408.73Z" fill="#D5AC50"/>
<g opacity="0.6">
<g opacity="0.6">
<g opacity="0.6">
<g opacity="0.6">
<g opacity="0.6">
<g opacity="0.6">
<path opacity="0.6" d="M52.5397 427.99C51.7297 428.19 51.1397 429.08 51.2997 429.9C51.4597 430.72 52.3597 431.32 53.1797 431.14C53.9997 430.96 54.7297 429.91 54.4797 429.11C54.2297 428.31 53.1297 427.66 52.3797 428.03" fill="white"/>
</g>
</g>
</g>
</g>
</g>
</g>
<g opacity="0.6">
<g opacity="0.6">
<g opacity="0.6">
<g opacity="0.6">
<g opacity="0.6">
<path opacity="0.6" d="M45.1299 441.56L45.2099 438.18L85.5099 439.29C85.5099 439.29 86.8499 439.87 87.0599 441.56H45.1299Z" fill="white"/>
</g>
</g>
</g>
</g>
</g>
<path d="M66.0597 429.99C66.0497 430.19 65.0297 430.26 63.9997 430.88C62.9597 431.48 62.4197 432.34 62.2297 432.26C62.0397 432.21 62.3797 431.01 63.6297 430.27C64.8897 429.53 66.1097 429.81 66.0597 429.99Z" fill="#263238"/>
<path d="M70.3797 431.93C70.4197 432.13 69.5297 432.45 68.8097 433.29C68.0697 434.11 67.8597 435.04 67.6597 435.02C67.4697 435.05 67.3597 433.85 68.2697 432.82C69.1797 431.79 70.3797 431.74 70.3797 431.93Z" fill="#263238"/>
<path d="M72.6999 437.24C72.5099 437.28 72.2599 436.25 72.8199 435.15C73.3699 434.05 74.3399 433.64 74.4199 433.81C74.5299 433.98 73.8899 434.56 73.4499 435.47C72.9899 436.37 72.9099 437.23 72.6999 437.24Z" fill="#263238"/>
<path d="M65.8397 425.07C65.7497 425.25 64.8197 424.94 63.6697 424.99C62.5197 425.01 61.6097 425.37 61.5097 425.19C61.3997 425.04 62.2897 424.31 63.6497 424.28C65.0097 424.23 65.9497 424.91 65.8397 425.07Z" fill="#263238"/>
<g opacity="0.3">
<g opacity="0.3">
<g opacity="0.3">
<g opacity="0.3">
<g opacity="0.3">
<path opacity="0.3" d="M65.78 424.13L65.52 428.09L45.48 427.3L45.56 423.85L65.78 424.13Z" fill="black"/>
</g>
</g>
</g>
</g>
</g>
<path d="M66.0499 420.73C66.0499 420.81 65.2399 420.92 63.9599 420.66C63.3199 420.53 62.5799 420.3 61.7999 419.92C61.4099 419.73 61.0099 419.51 60.6199 419.25C60.4299 419.12 60.2099 418.99 59.9999 418.74C59.7799 418.52 59.6699 417.98 59.9399 417.65C60.1599 417.34 60.5499 417.21 60.8499 417.21C61.1599 417.21 61.3999 417.28 61.6299 417.34C62.0899 417.47 62.5199 417.63 62.9099 417.82C63.6999 418.21 64.3299 418.68 64.7999 419.14C65.7399 420.07 66.0499 420.84 65.9799 420.87C65.8899 420.93 65.4299 420.28 64.4699 419.51C63.9899 419.13 63.3699 418.73 62.6399 418.4C62.2699 418.24 61.8699 418.1 61.4499 417.99C61.0099 417.86 60.6399 417.85 60.5199 418.04C60.4799 418.11 60.4699 418.14 60.5599 418.28C60.6499 418.4 60.8299 418.52 61.0099 418.65C61.3699 418.9 61.7399 419.12 62.0899 419.31C62.8099 419.69 63.4899 419.96 64.0899 420.15C65.2699 420.54 66.0499 420.62 66.0499 420.73Z" fill="#263238"/>
<path d="M65.7698 421.02C65.6998 421.05 65.3098 420.31 65.2798 418.99C65.2598 418.33 65.3598 417.54 65.6298 416.71C65.7698 416.3 65.9598 415.87 66.1998 415.46C66.4598 415.06 66.7698 414.51 67.5598 414.45C67.9698 414.45 68.3098 414.78 68.4098 415.06C68.5398 415.35 68.5598 415.59 68.5998 415.83C68.6598 416.32 68.6398 416.8 68.5598 417.24C68.3998 418.12 68.0198 418.85 67.5998 419.37C66.7498 420.43 65.8998 420.64 65.8798 420.57C65.8198 420.47 66.5398 420.09 67.1898 419.07C67.5098 418.57 67.8098 417.9 67.9098 417.13C67.9598 416.75 67.9698 416.34 67.9098 415.92C67.8598 415.47 67.6998 415.11 67.5398 415.15C67.3298 415.14 66.9698 415.46 66.7898 415.81C66.5598 416.18 66.3798 416.55 66.2398 416.93C65.9598 417.68 65.8198 418.39 65.7698 419C65.6898 420.22 65.8898 420.99 65.7698 421.02Z" fill="#263238"/>
<path d="M111.02 409.94L107.28 431.12C107.28 431.12 127.74 440.48 127.43 444.46L85.9199 440.23L90.3999 407L111.02 409.94Z" fill="#D5AC50"/>
<g opacity="0.6">
<g opacity="0.6">
<g opacity="0.6">
<g opacity="0.6">
<g opacity="0.6">
<g opacity="0.6">
<path opacity="0.6" d="M94.7501 427.53C93.9201 427.64 93.2401 428.46 93.3101 429.29C93.3801 430.12 94.2101 430.82 95.0401 430.73C95.8701 430.64 96.7201 429.68 96.5501 428.86C96.3801 428.04 95.3701 427.27 94.5801 427.56" fill="white"/>
</g>
</g>
</g>
</g>
</g>
</g>
<g opacity="0.6">
<g opacity="0.6">
<g opacity="0.6">
<g opacity="0.6">
<g opacity="0.6">
<path opacity="0.6" d="M85.9199 440.23L86.3699 436.88L126.31 442.36C126.31 442.36 127.58 443.08 127.61 444.78L85.9199 440.23Z" fill="white"/>
</g>
</g>
</g>
</g>
</g>
<path d="M107.98 430.99C107.95 431.19 106.92 431.14 105.84 431.65C104.74 432.13 104.11 432.93 103.93 432.83C103.75 432.76 104.22 431.6 105.54 431.01C106.86 430.4 108.05 430.82 107.98 430.99Z" fill="#263238"/>
<path d="M112.06 433.39C112.08 433.59 111.16 433.81 110.35 434.57C109.52 435.3 109.22 436.2 109.02 436.17C108.83 436.18 108.85 434.97 109.87 434.05C110.89 433.12 112.08 433.2 112.06 433.39Z" fill="#263238"/>
<path d="M113.8 438.92C113.61 438.94 113.47 437.89 114.14 436.86C114.81 435.82 115.82 435.52 115.88 435.7C115.97 435.88 115.28 436.39 114.74 437.25C114.18 438.09 114 438.93 113.8 438.92Z" fill="#263238"/>
<path d="M108.3 426.07C108.19 426.24 107.3 425.83 106.15 425.75C105 425.64 104.06 425.9 103.98 425.72C103.88 425.56 104.85 424.93 106.21 425.05C107.56 425.15 108.42 425.93 108.3 426.07Z" fill="#263238"/>
<g opacity="0.3">
<g opacity="0.3">
<g opacity="0.3">
<g opacity="0.3">
<g opacity="0.3">
<path opacity="0.3" d="M108.88 421.93L107.88 427.79L87.96 424.75L88.41 421.33L108.88 421.93Z" fill="black"/>
</g>
</g>
</g>
</g>
</g>
<path d="M108.97 421.79C108.96 421.87 108.15 421.89 106.9 421.49C106.28 421.29 105.56 420.98 104.83 420.52C104.46 420.29 104.09 420.03 103.73 419.72C103.56 419.57 103.35 419.42 103.17 419.15C102.98 418.91 102.92 418.36 103.23 418.06C103.49 417.77 103.88 417.69 104.18 417.72C104.49 417.75 104.72 417.85 104.94 417.94C105.38 418.12 105.79 418.33 106.16 418.56C106.9 419.03 107.48 419.57 107.89 420.08C108.72 421.1 108.95 421.9 108.87 421.93C108.77 421.98 108.39 421.29 107.52 420.42C107.08 419.99 106.52 419.52 105.82 419.12C105.47 418.92 105.09 418.74 104.68 418.59C104.26 418.41 103.89 418.36 103.75 418.54C103.7 418.61 103.69 418.64 103.76 418.78C103.84 418.91 104 419.05 104.17 419.2C104.5 419.49 104.84 419.75 105.18 419.98C105.85 420.44 106.51 420.78 107.07 421.03C108.22 421.51 108.99 421.68 108.97 421.79Z" fill="#263238"/>
<path d="M108.67 422.04C108.59 422.06 108.29 421.28 108.4 419.96C108.46 419.31 108.63 418.53 109 417.73C109.19 417.33 109.42 416.93 109.7 416.55C110 416.18 110.37 415.67 111.17 415.69C111.58 415.73 111.88 416.1 111.95 416.39C112.05 416.69 112.04 416.93 112.06 417.18C112.07 417.67 111.99 418.15 111.87 418.57C111.62 419.43 111.15 420.11 110.69 420.58C109.73 421.54 108.86 421.66 108.85 421.59C108.8 421.48 109.55 421.19 110.32 420.25C110.7 419.79 111.06 419.15 111.25 418.4C111.34 418.02 111.39 417.62 111.38 417.2C111.38 416.75 111.26 416.37 111.09 416.4C110.88 416.37 110.49 416.65 110.27 416.98C110.01 417.32 109.78 417.68 109.6 418.03C109.24 418.74 109.02 419.44 108.91 420.04C108.67 421.24 108.78 422.02 108.67 422.04Z" fill="#263238"/>
<path d="M112.04 422.69L127.3 327.72L93.0498 325.63L87.0498 422.66L112.04 422.69Z" fill="#263238"/>
<path d="M79.7399 227.12L38.3799 232.44L38.7699 242.63L42.5499 423.77L68.7899 424.13L81.4499 269.87L79.7399 227.12Z" fill="#263238"/>
<path d="M100.71 222.97L127.3 327.72L94.3999 333.73L80.1099 284.08L68.1899 228.84L100.71 222.97Z" fill="#263238"/>
<path d="M69.81 234.14C69.81 234.14 69.82 234.31 69.81 234.63C69.8 234.97 69.78 235.45 69.76 236.07C69.71 237.35 69.63 239.21 69.53 241.6C69.31 246.4 68.96 253.35 68.46 261.94C67.49 279.11 65.83 302.82 64.1 329C63.24 342.1 62.49 354.58 61.9 365.93C61.74 368.77 61.65 371.54 61.44 374.23C61.22 376.91 61.01 379.52 60.8 382.04C60.4 387.08 60.02 391.78 59.68 396.06C59.01 404.63 58.49 411.57 58.17 416.37C58.01 418.77 57.9 420.63 57.84 421.9C57.81 422.53 57.8 423.01 57.8 423.34C57.8 423.5 57.81 423.62 57.82 423.7C57.84 423.8 57.88 423.69 57.88 423.71C57.88 423.71 57.88 423.72 57.87 423.74C57.86 423.78 57.8 423.75 57.8 423.71C57.77 423.63 57.76 423.51 57.75 423.34C57.73 423.02 57.73 422.53 57.74 421.9C57.76 420.63 57.85 418.77 57.98 416.37C58.24 411.57 58.71 404.62 59.34 396.04C59.66 391.75 60.02 387.05 60.4 382.01C60.6 379.49 60.8 376.88 61.01 374.2C61.21 371.52 61.29 368.75 61.44 365.91C62.01 354.55 62.75 342.07 63.6 328.97C65.33 302.78 67.04 279.08 68.1 261.92C68.61 253.35 69.03 246.41 69.31 241.59C69.45 239.2 69.55 237.34 69.63 236.06C69.67 235.44 69.7 234.96 69.72 234.62C69.78 234.31 69.81 234.14 69.81 234.14Z" fill="#455A64"/>
<path d="M84.28 239.75C84.42 239.76 83.24 254.19 81.64 271.96C80.04 289.74 78.62 304.14 78.48 304.13C78.34 304.12 79.52 289.7 81.12 271.91C82.72 254.14 84.14 239.73 84.28 239.75Z" fill="#455A64"/>
<path d="M97.6097 346.87C97.4697 346.91 93.4397 332.88 88.6097 315.55C83.7797 298.21 79.9697 284.12 80.1097 284.08C80.2497 284.04 84.2797 298.06 89.1097 315.41C93.9397 332.74 97.7497 346.83 97.6097 346.87Z" fill="#455A64"/>
<path d="M57.72 233.46C57.75 233.45 57.86 233.79 57.96 234.42C58.06 235.05 58.1 235.98 57.94 237.11C57.78 238.24 57.37 239.57 56.62 240.89C55.87 242.21 54.73 243.5 53.24 244.45C51.73 245.38 50.08 245.85 48.56 245.95C47.04 246.06 45.67 245.85 44.58 245.5C43.49 245.15 42.66 244.71 42.14 244.35C41.62 243.99 41.36 243.74 41.38 243.72C41.44 243.62 42.53 244.56 44.68 245.15C46.77 245.74 50.08 245.8 52.96 244.01C55.82 242.19 57.21 239.19 57.58 237.05C57.98 234.86 57.6 233.46 57.72 233.46Z" fill="#455A64"/>
<path d="M103.31 236.36C103.31 236.41 102.59 236.48 101.46 236.24C100.33 236 98.8099 235.38 97.4399 234.24C96.0699 233.1 95.1699 231.72 94.7299 230.66C94.2799 229.59 94.2099 228.87 94.2699 228.86C94.3599 228.84 94.5499 229.51 95.0699 230.5C95.5799 231.49 96.4799 232.75 97.7799 233.84C99.0899 234.92 100.5 235.56 101.56 235.88C102.62 236.2 103.32 236.27 103.31 236.36Z" fill="#455A64"/>
<path d="M104.19 423.78C104.19 423.78 104.2 423.61 104.25 423.3C104.31 422.96 104.38 422.49 104.48 421.89C104.7 420.63 105.01 418.81 105.42 416.49C106.26 411.78 107.47 405 108.96 396.64C112 379.86 116.19 356.73 120.82 331.17C120.86 330.95 120.9 330.73 120.94 330.52V330.61C116.38 305.18 110.5 282.54 105.66 266.36C103.25 258.26 101.15 251.76 99.6601 247.28C98.9201 245.06 98.3401 243.32 97.9401 242.12C97.7501 241.55 97.6101 241.1 97.5001 240.78C97.4001 240.48 97.3701 240.32 97.3701 240.32C97.3701 240.32 97.4401 240.47 97.5501 240.77C97.6701 241.09 97.8301 241.53 98.0401 242.1C98.4601 243.27 99.0901 244.99 99.8501 247.23C101.4 251.69 103.55 258.18 106.01 266.27C110.94 282.44 116.89 305.08 121.45 330.54L121.46 330.59L121.45 330.64C121.41 330.84 121.37 331.07 121.33 331.29C116.64 356.83 112.4 379.96 109.32 396.73C107.76 405.08 106.5 411.85 105.62 416.55C105.18 418.87 104.83 420.68 104.59 421.94C104.47 422.54 104.38 423 104.31 423.34C104.24 423.62 104.19 423.78 104.19 423.78Z" fill="#455A64"/>
<path d="M93.0798 128.44C93.0798 128.44 100.11 132.21 100.49 140.57C100.69 145.06 101.74 161.03 101.74 161.03L113.27 150.25L124.96 169.22C124.96 169.22 107.97 192.67 106.22 193.83C104.47 195 97.3798 198.02 94.2698 196.51C91.1598 195 93.0798 128.44 93.0798 128.44Z" fill="#D5AC50"/>
<path d="M55.6399 112.68L52.1699 121.65L31.3599 134.75L41.8599 200.76C41.8599 200.76 33.3599 215.14 33.5799 225.7C33.6299 228.19 38.3799 232.44 38.3799 232.44C38.3799 232.44 61.2399 234.08 78.4599 232.33C95.0799 230.65 101.09 224.65 101.09 224.65L104.19 218.14L101.37 209.69L97.1899 142.84C97.1899 142.84 95.6499 131.52 93.0699 128.43L85.6699 122.83L81.6599 115.77L55.6399 112.68Z" fill="#D5AC50"/>
<path d="M85.6898 122.83C85.7098 122.83 85.7298 123.13 85.7298 123.69C85.7298 124.31 85.7298 125.12 85.7398 126.13C85.7198 128.31 85.6798 131.32 85.6398 134.95L85.6298 135.46L85.2698 135.09C83.6098 133.35 81.7598 131.41 79.7798 129.33L80.1998 129.19C79.8698 131.71 79.5198 134.44 79.1498 137.27L79.0998 137.66L78.7598 137.46C78.3898 137.24 77.9898 137 77.5898 136.76C70.6298 132.54 64.3198 128.72 59.6898 125.91C57.4598 124.53 55.6298 123.4 54.2998 122.57C53.7098 122.19 53.2298 121.88 52.8498 121.64C52.5198 121.42 52.3498 121.3 52.3598 121.29C52.3698 121.27 52.5598 121.37 52.8998 121.55C53.2898 121.77 53.7898 122.05 54.3998 122.4C55.7498 123.19 57.6098 124.27 59.8798 125.6C64.5298 128.37 70.8598 132.15 77.8598 136.32C78.2598 136.56 78.6598 136.8 79.0298 137.02L78.6398 137.21C79.0198 134.37 79.3798 131.65 79.7198 129.13L79.7898 128.61L80.1398 128.99C82.1098 131.09 83.9398 133.04 85.5798 134.8L85.2198 134.94C85.3298 131.31 85.4298 128.3 85.4998 126.12C85.5398 125.11 85.5798 124.3 85.6098 123.68C85.6398 123.13 85.6598 122.83 85.6898 122.83Z" fill="#263238"/>
<g opacity="0.3">
<g opacity="0.3">
<g opacity="0.3">
<path opacity="0.3" d="M35.6201 214.6C39.3101 215.43 43.5001 216.32 47.2901 216.47C51.0701 216.61 54.9701 216.03 58.2701 214.17C60.6501 212.83 62.6301 210.89 64.7001 209.09C70.2001 204.3 76.4501 200.46 82.6601 196.64C86.0001 194.58 89.3401 192.53 92.6801 190.47C93.5301 189.95 94.4001 189.41 94.9701 188.59C95.5401 187.77 95.7301 186.61 95.1501 185.8C94.6301 185.07 93.6201 184.83 92.7301 184.97C91.8401 185.12 91.0501 185.58 90.2801 186.04C86.6401 188.19 82.9901 190.34 79.3501 192.5C65.9401 200.42 52.1301 208.48 36.7501 210.93L35.6201 214.6Z" fill="black"/>
</g>
</g>
</g>
<path d="M49.8699 182.19C49.9499 181.95 50.0999 181.75 50.2999 181.6L52.3599 180.11C52.6899 179.87 52.8799 179.48 52.8499 179.07L52.2499 169.46C52.2499 169.43 52.2499 169.4 52.2499 169.37C52.2699 168.29 52.6199 147.19 50.1999 140.3C47.8499 133.62 42.3299 130.61 31.8499 134.45C31.5899 134.54 29.1899 136.35 29.0499 136.59C27.0399 139.91 25.9199 143.7 25.8099 147.58L25.1799 170.22C25.1799 170.22 23.1999 191.14 22.9199 193.98C22.2099 201.04 24.8199 212.45 30.8199 213.25C33.5299 213.61 51.0499 209.88 54.5199 208.9C55.0299 208.76 56.9399 206.58 56.9399 206.05L59.0299 184.46C59.1299 183.38 58.2999 182.43 57.2199 182.4L49.8699 182.19Z" fill="#D5AC50"/>
<path d="M51.7001 149.34C51.6201 149.38 50.9901 148.26 49.7601 146.58C48.5401 144.91 46.6601 142.73 44.2201 140.72C41.7801 138.71 39.2801 137.28 37.4001 136.4C35.5201 135.52 34.3001 135.11 34.3301 135.02C34.3401 134.99 34.6601 135.06 35.2201 135.22C35.7901 135.37 36.5901 135.66 37.5601 136.06C39.5001 136.86 42.0701 138.27 44.5601 140.31C47.0401 142.36 48.9101 144.62 50.0701 146.36C50.6501 147.23 51.0801 147.96 51.3401 148.49C51.6001 149.03 51.7301 149.33 51.7001 149.34Z" fill="#263238"/>
<path d="M52.79 151.63C52.83 151.63 52.87 152.09 52.92 152.92C52.96 153.86 53.01 155.03 53.07 156.44C53.18 159.41 53.28 163.52 53.37 168.05C53.41 170.31 53.44 172.47 53.47 174.45C53.52 176.4 53.35 178.31 52.49 179.62C51.67 180.92 50.65 181.67 49.95 182.11C49.23 182.54 48.77 182.67 48.76 182.65C48.74 182.61 49.16 182.42 49.83 181.94C50.49 181.46 51.44 180.69 52.17 179.43C52.93 178.18 53.06 176.41 52.99 174.46C52.94 172.48 52.9 170.33 52.84 168.07C52.75 163.53 52.7 159.43 52.69 156.45C52.7 155.04 52.7 153.86 52.7 152.93C52.72 152.09 52.75 151.63 52.79 151.63Z" fill="#263238"/>
<path d="M30.6299 213.37C30.6299 213.35 30.8399 213.31 31.2499 213.26C31.7099 213.2 32.2999 213.12 33.0299 213.03C34.5799 212.83 36.8099 212.54 39.5599 212.08C42.3099 211.62 45.5599 211 49.1499 210.15C50.0399 209.93 50.9599 209.7 51.8899 209.47C52.8199 209.22 53.7999 209.02 54.6699 208.62C55.5599 208.24 56.2499 207.54 56.5299 206.59C56.8399 205.65 56.8699 204.6 56.9899 203.54C57.3999 199.31 57.7999 195.28 58.1599 191.6C58.3399 189.77 58.5199 188.03 58.6799 186.39C58.7599 185.57 58.8899 184.79 58.7599 184.08C58.6599 183.37 58.1899 182.83 57.5399 182.71C56.9099 182.57 56.2299 182.67 55.6099 182.69C54.9899 182.73 54.3899 182.76 53.8399 182.79C52.7499 182.85 51.7999 182.9 50.9999 182.94C50.2699 182.97 49.6699 182.99 49.2099 183.01C48.7999 183.02 48.5799 183.02 48.5799 183C48.5799 182.98 48.7899 182.95 49.1999 182.91C49.6599 182.87 50.2599 182.81 50.9899 182.74C51.7899 182.67 52.7399 182.59 53.8199 182.5C54.3799 182.46 54.9699 182.41 55.5899 182.36C56.2099 182.33 56.8799 182.21 57.6199 182.35C57.9799 182.42 58.3699 182.6 58.6499 182.91C58.9299 183.21 59.0899 183.61 59.1599 184.01C59.3099 184.81 59.1699 185.62 59.1099 186.43C58.9599 188.07 58.7999 189.81 58.6299 191.64C58.2799 195.32 57.8999 199.35 57.4999 203.58C57.3799 204.63 57.3599 205.7 57.0199 206.74C56.8499 207.26 56.5899 207.76 56.2099 208.16C55.8299 208.57 55.3599 208.86 54.8899 209.07C53.9299 209.5 52.9499 209.68 52.0199 209.93C51.0799 210.16 50.1599 210.38 49.2599 210.59C45.6599 211.41 42.3799 212 39.6199 212.41C36.8599 212.82 34.6099 213.06 33.0599 213.2C32.2799 213.27 31.6799 213.31 31.2699 213.33C30.8499 213.38 30.6299 213.39 30.6299 213.37Z" fill="#263238"/>
<path d="M41.1997 192.5C41.1397 192.49 41.1797 191.78 41.4997 190.67C41.8097 189.57 42.4397 188.08 43.5097 186.67C44.5797 185.26 45.8497 184.25 46.8597 183.69C47.8697 183.13 48.5597 182.95 48.5797 183C48.6697 183.14 45.9597 184.2 43.9197 186.98C41.8497 189.71 41.3697 192.56 41.1997 192.5Z" fill="#263238"/>
<path d="M37.0898 187.48C37.0398 187.45 37.4198 186.78 38.2798 185.9C39.1298 185.02 40.5198 183.97 42.2698 183.26C44.0198 182.55 45.7498 182.33 46.9698 182.37C48.1998 182.4 48.9398 182.61 48.9298 182.67C48.9198 182.76 48.1698 182.67 46.9798 182.74C45.7898 182.8 44.1498 183.07 42.4698 183.75C40.7898 184.44 39.4298 185.39 38.5398 186.18C37.6398 186.96 37.1598 187.54 37.0898 187.48Z" fill="#263238"/>
<path d="M85.4497 215.51C85.4497 215.49 85.7197 215.48 86.2397 215.46C86.7597 215.44 87.5297 215.43 88.5097 215.36C89.4897 215.3 90.6997 215.19 92.0597 214.91C93.4097 214.62 94.9597 214.15 96.3997 213.18C97.8297 212.21 99.0397 210.62 99.4997 208.63C99.9797 206.64 99.8697 204.41 99.8297 202.08C99.7497 197.4 99.6497 192.26 99.5597 186.87C99.4097 176.1 99.2697 166.35 99.1697 159.23C99.1497 155.73 99.1297 152.89 99.1097 150.85C99.1097 149.9 99.1197 149.14 99.1197 148.57C99.1297 148.05 99.1397 147.78 99.1597 147.78C99.1797 147.78 99.1997 148.05 99.2297 148.57C99.2497 149.14 99.2797 149.9 99.3197 150.85C99.3697 152.88 99.4497 155.73 99.5397 159.22C99.6797 166.34 99.8697 176.09 100.08 186.86C100.16 192.25 100.24 197.39 100.31 202.07C100.34 204.4 100.44 206.66 99.9197 208.74C99.4297 210.82 98.1197 212.51 96.6097 213.49C95.0997 214.49 93.4997 214.93 92.1197 215.2C90.7297 215.46 89.5097 215.54 88.5197 215.57C87.5297 215.6 86.7597 215.59 86.2397 215.57C85.7197 215.55 85.4497 215.53 85.4497 215.51Z" fill="#263238"/>
<path d="M96.7498 218.42C96.7598 218.45 96.1798 218.65 95.1198 218.98C94.0598 219.32 92.5098 219.74 90.5798 220.2C86.7198 221.12 81.2998 222.07 75.2498 222.42C69.1898 222.76 63.6998 222.44 59.7598 221.97C57.7898 221.73 56.1998 221.49 55.1098 221.28C54.0198 221.07 53.4198 220.94 53.4298 220.91C53.4398 220.87 54.0498 220.94 55.1398 221.08C56.2398 221.23 57.8298 221.42 59.7898 221.61C63.7198 221.99 69.1898 222.25 75.2098 221.91C81.2298 221.56 86.6298 220.68 90.4898 219.85C92.4198 219.44 93.9798 219.07 95.0498 218.79C96.1398 218.52 96.7398 218.39 96.7498 218.42Z" fill="#263238"/>
<path d="M83.4101 213.66C83.3901 213.66 83.3901 213.36 83.4101 212.8C83.4401 212.19 83.4701 211.38 83.5101 210.35C83.6101 208.17 83.7501 205.11 83.9201 201.34C84.2401 193.74 84.5701 183.22 84.2501 171.62C83.9501 160.01 82.9401 149.54 81.9701 141.99C81.4701 138.22 81.0401 135.17 80.7001 133.07C80.5501 132.05 80.4301 131.25 80.3401 130.65C80.2601 130.09 80.2301 129.8 80.2501 129.8C80.2701 129.8 80.3301 130.08 80.4401 130.63C80.5501 131.23 80.7101 132.03 80.9001 133.04C81.3001 135.13 81.7901 138.18 82.3301 141.95C83.3901 149.49 84.4601 159.98 84.7601 171.61C85.0801 183.23 84.6901 193.76 84.2801 201.36C84.0701 205.16 83.8701 208.24 83.7001 210.36C83.6201 211.38 83.5501 212.2 83.5001 212.8C83.4701 213.37 83.4301 213.66 83.4101 213.66Z" fill="#263238"/>
<path d="M52.3099 162.13C52.2799 162.17 51.9399 161.91 51.2499 161.61C50.5499 161.32 49.4699 161.05 48.1199 161.1C46.7699 161.12 45.1899 161.5 43.4499 162.03C42.5799 162.28 41.6599 162.56 40.6799 162.77C39.6999 162.99 38.6499 163.08 37.5799 163.08C33.2499 163 29.6999 160.89 27.7499 158.95C26.7499 157.97 26.1099 157.04 25.7099 156.38C25.3299 155.7 25.1599 155.31 25.1899 155.3C25.2799 155.24 26.0099 156.83 28.0099 158.68C29.9799 160.5 33.4399 162.48 37.5999 162.55C39.6599 162.59 41.5799 162.06 43.3299 161.56C45.0799 161.06 46.7199 160.7 48.1299 160.73C49.5299 160.73 50.6499 161.07 51.3499 161.43C52.0199 161.8 52.3199 162.12 52.3099 162.13Z" fill="white"/>
<path d="M44.0701 183.2C44.0901 183.25 43.6401 183.35 43.0501 183.87C42.4601 184.38 41.8401 185.37 41.5601 186.75C41.4001 187.44 41.3101 188.21 41.1501 189.05C40.9901 189.89 40.7501 190.77 40.4401 191.67C39.8001 193.48 38.8101 195.37 37.4201 197.09C34.6501 200.59 30.8901 202.49 28.1301 203.23C26.7401 203.61 25.5701 203.76 24.7701 203.82C23.9701 203.88 23.5201 203.84 23.5201 203.81C23.5101 203.71 25.3101 203.71 28.0201 202.88C30.7101 202.06 34.3201 200.17 37.0101 196.76C38.3601 195.08 39.3401 193.25 39.9901 191.5C40.3101 190.62 40.5601 189.77 40.7301 188.96C40.9001 188.15 41.0201 187.37 41.2101 186.66C41.5501 185.24 42.2601 184.19 42.9301 183.71C43.2601 183.46 43.5501 183.32 43.7601 183.26C43.9501 183.19 44.0701 183.19 44.0701 183.2Z" fill="white"/>
<path d="M56.1098 204.26C56.0898 204.28 55.8098 204.14 55.3398 203.8C54.8698 203.46 54.2398 202.89 53.6198 202.05C52.3498 200.4 51.2598 197.58 51.3098 194.39C51.3698 191.2 52.2898 188.45 53.0198 186.54C53.3898 185.58 53.7298 184.82 53.9698 184.3C54.2198 183.78 54.3698 183.5 54.3998 183.52C54.4698 183.55 54.0198 184.73 53.3598 186.66C52.7198 188.59 51.8698 191.31 51.8198 194.39C51.7698 197.47 52.7598 200.19 53.9098 201.83C55.0498 203.51 56.1798 204.18 56.1098 204.26Z" fill="white"/>
<path d="M58.9597 126.43C58.9897 126.43 59.0297 126.73 59.0297 127.29C59.0297 127.84 58.9697 128.65 58.7797 129.62C58.4197 131.56 57.3797 134.22 55.3197 136.49C53.2497 138.76 50.6997 140.03 48.7997 140.58C47.8497 140.86 47.0497 140.99 46.4997 141.04C45.9497 141.09 45.6397 141.08 45.6397 141.05C45.6297 140.96 46.8497 140.86 48.6797 140.23C50.4997 139.61 52.9397 138.33 54.9297 136.14C56.9197 133.96 57.9697 131.41 58.4197 129.54C58.8897 127.65 58.8697 126.42 58.9597 126.43Z" fill="white"/>
<path d="M60.9699 117.63C61.0099 117.78 59.2899 118.19 57.6899 119.57C56.0599 120.92 55.3699 122.55 55.2299 122.48C55.0999 122.46 55.6199 120.62 57.3599 119.17C59.0699 117.7 60.9699 117.5 60.9699 117.63Z" fill="white"/>
<path d="M74.86 126.04C74.98 125.99 75.49 127.74 74.84 129.8C74.22 131.87 72.82 133.04 72.75 132.93C72.63 132.83 73.77 131.58 74.34 129.65C74.95 127.73 74.7 126.06 74.86 126.04Z" fill="white"/>
<path d="M85.0299 128.21C84.8899 128.26 84.3399 126.88 83.4499 125.32C82.5599 123.75 81.6599 122.59 81.7699 122.49C81.8699 122.4 82.9799 123.44 83.8999 125.07C84.8299 126.68 85.1699 128.17 85.0299 128.21Z" fill="white"/>
<path d="M82.71 153.37C82.71 153.42 82.22 153.45 81.39 153.71C80.57 153.99 79.43 154.56 78.28 155.61C77.11 156.64 76.02 158.16 74.87 159.89C73.73 161.61 72.38 163.57 70.42 165.06C68.49 166.58 66.33 167.55 64.28 168.07C62.23 168.61 60.31 168.71 58.72 168.58C57.13 168.45 55.88 168.1 55.04 167.83C54.21 167.51 53.77 167.3 53.78 167.27C53.81 167.16 55.62 168.03 58.75 168.21C60.31 168.29 62.18 168.15 64.16 167.6C66.14 167.07 68.24 166.11 70.1 164.65C72 163.21 73.3 161.34 74.48 159.62C75.65 157.9 76.8 156.36 78.04 155.33C79.25 154.28 80.47 153.73 81.33 153.51C81.77 153.4 82.1099 153.36 82.3399 153.35C82.5799 153.34 82.71 153.35 82.71 153.37Z" fill="white"/>
<path d="M99.07 159.24C99.11 159.27 98.58 159.98 97.46 160.83C96.35 161.68 94.58 162.61 92.46 163.05C90.34 163.48 88.35 163.31 86.99 162.96C85.62 162.61 84.86 162.17 84.89 162.12C84.92 162.04 85.72 162.35 87.07 162.6C88.41 162.85 90.32 162.95 92.36 162.54C94.4 162.12 96.11 161.28 97.25 160.53C98.39 159.78 99 159.17 99.07 159.24Z" fill="white"/>
<path d="M100.24 138.03C100.11 138.15 98.1502 135.02 94.3102 132.89C90.5002 130.7 86.8002 130.64 86.8402 130.46C86.8402 130.4 87.7502 130.33 89.1902 130.55C90.6302 130.76 92.6102 131.33 94.5602 132.43C96.5102 133.54 98.0202 134.93 98.9402 136.06C99.8802 137.19 100.28 138 100.24 138.03Z" fill="white"/>
<path d="M82.4899 204.71C82.4899 204.73 82.3199 204.81 81.9899 204.95C81.6599 205.1 81.1599 205.24 80.5799 205.6C79.3799 206.21 77.7899 207.39 76.1599 209.18C74.4899 210.94 72.7899 213.28 70.5799 215.66C69.4599 216.83 68.1899 218 66.6499 218.92C66.2499 219.12 65.8699 219.37 65.4499 219.55C65.0199 219.71 64.5999 219.88 64.1599 220.04C63.2699 220.3 62.3399 220.46 61.3899 220.51C57.5599 220.66 54.1499 219.28 51.1499 218.17C48.1599 216.98 45.4099 216.08 43.0099 215.79C40.6199 215.46 38.6499 215.77 37.3799 216.21C36.1099 216.65 35.4899 217.11 35.4599 217.05C35.4499 217.04 35.5999 216.92 35.8999 216.73C36.1999 216.52 36.6699 216.27 37.3099 216.02C38.5799 215.51 40.5999 215.13 43.0499 215.42C45.4999 215.67 48.3199 216.55 51.3099 217.71C54.3099 218.8 57.6799 220.12 61.3499 219.97C62.2599 219.92 63.1499 219.77 63.9899 219.52C64.3999 219.36 64.8099 219.21 65.2199 219.05C65.6199 218.89 65.9899 218.65 66.3699 218.45C67.8499 217.58 69.0999 216.45 70.2099 215.3C72.3999 212.97 74.1499 210.64 75.8699 208.89C77.5599 207.11 79.2099 205.95 80.4699 205.38C81.0699 205.05 81.5999 204.93 81.9399 204.81C82.2999 204.74 82.4899 204.7 82.4899 204.71Z" fill="white"/>
<path d="M99.4698 209.37C99.3998 209.41 98.7998 208.47 97.7798 206.98C96.7598 205.5 95.3198 203.45 93.2598 201.66C91.2098 199.87 88.8798 198.87 87.1398 198.55C85.3898 198.21 84.2598 198.4 84.2598 198.31C84.2598 198.28 84.5298 198.2 85.0398 198.14C85.5498 198.08 86.2998 198.06 87.2098 198.19C89.0298 198.43 91.4798 199.42 93.6098 201.27C95.7298 203.12 97.1498 205.24 98.0998 206.78C99.0298 208.33 99.5298 209.33 99.4698 209.37Z" fill="white"/>
<path d="M81.1897 220.97C81.2297 220.98 81.2097 221.23 81.1597 221.7C81.1097 222.17 80.9697 222.83 80.7097 223.63C80.4597 224.43 80.0497 225.35 79.4997 226.31C78.9297 227.26 78.1997 228.25 77.3097 229.17C76.3997 230.08 75.4297 230.83 74.4897 231.42C73.5397 231.99 72.6297 232.42 71.8297 232.68C71.0397 232.95 70.3797 233.11 69.9097 233.16C69.4497 233.23 69.1897 233.24 69.1897 233.21C69.1697 233.12 70.1897 232.95 71.6997 232.33C72.4597 232.03 73.3197 231.58 74.2297 231.01C75.1297 230.42 76.0597 229.68 76.9397 228.8C77.7997 227.91 78.5197 226.96 79.0997 226.05C79.6597 225.13 80.0897 224.26 80.3697 223.49C80.9497 221.97 81.0997 220.96 81.1897 220.97Z" fill="white"/>
<path d="M117.04 180.62C116.96 180.66 116.51 179.61 115.44 178.15C114.38 176.7 112.61 174.86 110.19 173.57C107.77 172.27 105.26 171.81 103.47 171.73C101.66 171.65 100.54 171.85 100.53 171.76C100.52 171.73 100.8 171.64 101.3 171.55C101.81 171.45 102.55 171.37 103.48 171.37C105.32 171.35 107.93 171.77 110.44 173.12C112.95 174.47 114.74 176.41 115.74 177.95C116.25 178.72 116.59 179.39 116.79 179.86C116.99 180.33 117.07 180.61 117.04 180.62Z" fill="white"/>
<path d="M160.31 126.96C160.06 126.19 158.66 125.95 158.66 125.95L158.97 125.54C159.41 124.95 159.51 124.18 159.22 123.51C159.18 123.41 159.13 123.3 159.07 123.2C158.65 122.39 157.5 121.93 157.5 121.93C157.5 121.93 158.61 120.57 158.4 119.86C158.11 118.92 156.63 117.66 155.3 117.81C153.86 117.98 150.72 118.76 148.52 119.44C147.65 119.71 146.75 119.14 146.62 118.25C146.36 116.54 145.83 113.9 144.81 111.96C143.7 109.85 142.27 109.69 141.39 109.84C140.97 109.91 140.71 110.34 140.85 110.74C141.25 111.89 142.04 114.2 142.18 115.13C142.35 116.25 141.12 124.16 141.12 124.16L139.23 128.2L133.24 134.95L114.14 151.65L124.14 167.88L141.65 145.84L142.83 144.34L146.96 139.87L149.59 137.36L158.45 134.01C158.45 134.01 160.2 132.04 160.06 131.32C159.92 130.6 159.27 130.13 159.27 130.13L160.42 128.68C160.43 128.69 160.56 127.73 160.31 126.96Z" fill="#FFBE9D"/>
<path d="M158.27 122.141C158.27 122.151 158.21 122.181 158.08 122.251C157.93 122.321 157.75 122.421 157.53 122.531C157.02 122.781 156.34 123.111 155.5 123.521C154.63 123.931 153.61 124.421 152.47 124.961C151.89 125.221 151.32 125.541 150.65 125.771C150 126.001 149.17 126.071 148.52 125.601C148.2 125.371 148 125.011 147.92 124.651C147.84 124.281 147.87 123.911 147.96 123.571C148.15 122.871 148.66 122.351 149.16 121.971C149.68 121.591 150.22 121.321 150.71 121.051C151.2 120.791 151.67 120.551 152.09 120.321C152.92 119.891 153.6 119.541 154.1 119.281C154.32 119.171 154.5 119.081 154.65 119.011C154.78 118.951 154.85 118.921 154.85 118.931C154.85 118.941 154.79 118.981 154.67 119.051C154.53 119.131 154.35 119.231 154.14 119.361C153.65 119.631 152.98 120.001 152.16 120.461C151.74 120.691 151.28 120.941 150.79 121.211C150.3 121.481 149.77 121.751 149.27 122.131C148.78 122.501 148.31 122.991 148.15 123.641C147.97 124.261 148.08 125.051 148.64 125.461C148.92 125.661 149.26 125.751 149.6 125.761C149.94 125.771 150.27 125.701 150.59 125.601C151.22 125.381 151.82 125.061 152.39 124.811C153.53 124.291 154.56 123.811 155.43 123.411C156.28 123.031 156.98 122.711 157.49 122.481C157.72 122.381 157.9 122.301 158.05 122.241C158.19 122.161 158.26 122.141 158.27 122.141Z" fill="#EB996E"/>
<path d="M158.77 126.33C158.44 126.46 158.04 126.61 157.55 126.8C156.52 127.2 155.1 127.73 153.5 128.27C153.1 128.4 152.71 128.54 152.34 128.62C151.96 128.7 151.59 128.71 151.26 128.61C150.59 128.4 150.19 127.8 150.13 127.28C150.06 126.75 150.26 126.32 150.42 126.08C150.59 125.83 150.74 125.73 150.72 125.72C150.72 125.71 150.68 125.74 150.61 125.78C150.55 125.83 150.45 125.91 150.35 126.03C150.16 126.27 149.92 126.71 149.98 127.29C150.03 127.86 150.46 128.53 151.2 128.78C151.57 128.9 151.98 128.89 152.38 128.81C152.78 128.73 153.17 128.59 153.57 128.45C155.17 127.91 156.59 127.36 157.6 126.93C158.11 126.71 158.52 126.53 158.8 126.4C159.08 126.27 159.23 126.19 159.22 126.18C159.22 126.17 159.05 126.23 158.77 126.33Z" fill="#EB996E"/>
<path d="M159.03 130.04C158.71 130.11 158.31 130.19 157.85 130.29C156.85 130.51 155.48 130.82 153.96 131.17C153.58 131.26 153.21 131.36 152.86 131.4C152.51 131.44 152.16 131.42 151.87 131.29C151.58 131.16 151.36 130.94 151.28 130.67C151.2 130.41 151.23 130.13 151.31 129.9C151.48 129.44 151.83 129.18 152.06 129.03C152.3 128.88 152.44 128.81 152.43 128.8C152.43 128.79 152.27 128.83 152.02 128.97C151.78 129.11 151.39 129.36 151.18 129.86C151.08 130.11 151.03 130.41 151.12 130.73C151.21 131.05 151.47 131.32 151.79 131.47C152.12 131.62 152.5 131.65 152.88 131.61C153.26 131.57 153.63 131.47 154 131.38C155.52 131.02 156.89 130.69 157.87 130.44C158.33 130.32 158.72 130.22 159.04 130.13C159.31 130.05 159.47 130 159.46 129.99C159.47 129.97 159.31 129.99 159.03 130.04Z" fill="#EB996E"/>
<path d="M158.02 133.35C157.21 133.32 156.09 133.3 154.86 133.29C154.55 133.29 154.25 133.29 153.96 133.28C153.67 133.28 153.39 133.28 153.15 133.22C152.91 133.16 152.69 133.04 152.55 132.88C152.41 132.71 152.37 132.51 152.41 132.33C152.5 131.96 152.77 131.75 152.96 131.64C153.15 131.53 153.28 131.51 153.27 131.5C153.27 131.49 153.14 131.48 152.92 131.57C152.72 131.66 152.39 131.87 152.27 132.3C152.22 132.51 152.25 132.78 152.42 132.99C152.58 133.2 152.83 133.34 153.1 133.41C153.37 133.48 153.67 133.48 153.96 133.49C154.25 133.49 154.55 133.5 154.86 133.5C156.09 133.51 157.21 133.51 158.02 133.5C158.83 133.49 159.33 133.47 159.33 133.44C159.33 133.4 158.83 133.37 158.02 133.35Z" fill="#EB996E"/>
<path d="M149.03 129.36C150.28 129.56 151.17 130.11 151.2 130.05C151.24 130.02 150.36 129.36 149.06 129.16C147.76 128.94 146.72 129.28 146.75 129.33C146.76 129.39 147.78 129.15 149.03 129.36Z" fill="#EB996E"/>
<path d="M54.91 77.8703L56.3 113.66L79.85 128.94L81.77 116.18L81.76 111.93C81.76 111.93 91.93 110.84 92.53 100.75C92.82 95.8503 92.6 85.6803 92.3 76.5203C91.96 66.3503 83.57 58.3203 73.4 58.4403C62.86 58.5603 54.5 67.3403 54.91 77.8703Z" fill="#FFBE9D"/>
<path d="M81.7703 111.96C81.7703 111.96 75.3603 112.18 68.7803 107.6C68.7803 107.6 71.5503 115.01 81.6703 114.58L81.7703 111.96Z" fill="#EB996E"/>
<path d="M88.9895 83.7603C88.9795 84.5203 88.3295 85.1403 87.5295 85.1503C86.7395 85.1503 86.0995 84.5403 86.1095 83.7803C86.1195 83.0203 86.7695 82.4003 87.5695 82.3903C88.3595 82.3803 88.9995 82.9903 88.9895 83.7603Z" fill="#263238"/>
<path d="M89.8897 81.6805C89.6997 81.8605 88.6497 81.0005 87.0997 80.9305C85.5497 80.8405 84.3697 81.5805 84.2197 81.3805C84.1397 81.2905 84.3397 80.9605 84.8497 80.6205C85.3497 80.2805 86.1997 79.9705 87.1697 80.0205C88.1397 80.0705 88.9297 80.4705 89.3797 80.8505C89.8397 81.2505 89.9797 81.6005 89.8897 81.6805Z" fill="#263238"/>
<path d="M74.2898 83.7105C74.2798 84.4705 73.6298 85.0905 72.8298 85.1005C72.0298 85.1105 71.3998 84.4905 71.4098 83.7305C71.4198 82.9705 72.0698 82.3505 72.8698 82.3405C73.6598 82.3305 74.2998 82.9405 74.2898 83.7105Z" fill="#263238"/>
<path d="M74.6299 81.2503C74.4399 81.4303 73.3899 80.5703 71.8399 80.5003C70.2899 80.4103 69.1099 81.1503 68.9599 80.9503C68.8799 80.8603 69.0799 80.5303 69.5899 80.1903C70.0899 79.8503 70.9399 79.5403 71.9099 79.5903C72.8799 79.6403 73.6699 80.0403 74.1199 80.4203C74.5699 80.8203 74.7199 81.1703 74.6299 81.2503Z" fill="#263238"/>
<path d="M79.71 93.0201C79.71 92.9301 80.68 92.8101 82.25 92.6801C82.65 92.6601 83.03 92.6001 83.11 92.3301C83.22 92.0501 83.07 91.6101 82.9 91.1401C82.57 90.1601 82.23 89.1401 81.87 88.0701C80.45 83.7001 79.44 80.1101 79.61 80.0501C79.79 79.9901 81.08 83.4901 82.51 87.8701C82.85 88.9501 83.18 89.9801 83.49 90.9601C83.62 91.4201 83.85 91.9401 83.62 92.5201C83.5 92.8101 83.2 93.0101 82.94 93.0701C82.68 93.1401 82.46 93.1301 82.26 93.1301C80.69 93.1501 79.71 93.1101 79.71 93.0201Z" fill="#263238"/>
<path d="M75.1002 93.8801C75.3502 93.8801 75.2802 95.5601 76.6602 96.8201C78.0402 98.0901 79.8502 97.9801 79.8502 98.2201C79.8702 98.3301 79.4302 98.5301 78.6802 98.5101C77.9402 98.5001 76.8602 98.2101 76.0102 97.4401C75.1702 96.6701 74.8302 95.6701 74.8102 94.9801C74.7702 94.2701 74.9802 93.8601 75.1002 93.8801Z" fill="#263238"/>
<path d="M75.31 75.1803C75.14 75.5903 73.6 75.3203 71.77 75.4503C69.94 75.5503 68.44 76.0103 68.22 75.6203C68.12 75.4303 68.4 75.0503 69.01 74.6703C69.62 74.2903 70.57 73.9503 71.67 73.8803C72.77 73.8103 73.76 74.0303 74.41 74.3303C75.07 74.6403 75.39 74.9903 75.31 75.1803Z" fill="#263238"/>
<path d="M89.5302 77.1605C89.2402 77.5005 88.1902 77.0805 86.9002 77.0105C85.6202 76.8905 84.5202 77.1305 84.2802 76.7505C84.1802 76.5705 84.3702 76.2205 84.8602 75.9105C85.3402 75.6005 86.1402 75.3705 87.0202 75.4305C87.9002 75.5005 88.6502 75.8605 89.0802 76.2405C89.5302 76.6205 89.6602 76.9905 89.5302 77.1605Z" fill="#263238"/>
<path d="M93.4398 65.4102C95.5598 63.8702 96.4998 60.9502 95.8298 58.4202C95.1598 55.8902 92.9998 53.8602 90.4698 53.1802C87.9398 52.5002 85.1398 53.1202 83.0198 54.6702C83.0498 53.4702 82.0398 52.4102 80.8798 52.0802C79.7198 51.7502 78.4698 52.0402 77.3698 52.5402C75.4298 53.4302 73.8298 55.0202 72.9198 56.9402C71.8298 55.2002 69.7398 54.1502 67.6898 54.3002C65.6398 54.4502 63.7298 55.7902 62.8998 57.6702C62.5698 58.4102 62.3998 59.2202 61.9798 59.9102C61.5598 60.6002 60.5798 61.0502 59.6498 61.0502V61.0602C58.3698 61.0702 57.0298 61.8202 55.8798 62.5702C54.2198 63.6502 51.9698 66.6802 52.0098 69.9602C52.0798 77.2402 54.3498 80.9702 54.5598 87.9502C54.5698 88.4102 54.5998 88.9002 54.8598 89.2902C55.5298 90.2802 57.1098 89.7902 58.0198 89.0202C60.2398 87.1402 61.3798 84.2602 61.9298 81.4002C62.4898 78.5402 62.5598 75.6102 63.0898 72.7502C63.0998 72.6902 63.1098 72.6202 63.1298 72.5502C63.3498 71.3502 63.8598 70.2402 64.5698 69.2802C65.4298 69.8402 66.2698 70.4302 67.1998 70.8602C70.5198 72.3802 74.7998 71.3902 77.1198 68.5702C79.3998 70.3702 82.3198 71.3302 85.2098 71.2402C88.1098 71.1502 90.9598 70.5202 93.1298 68.6002C93.5398 68.2402 94.0998 67.6002 94.3398 66.7502C94.4998 66.1902 93.9698 65.5502 93.4398 65.4102Z" fill="#263238"/>
<path d="M58.09 82.7702C57.92 82.6902 51.25 80.3902 51.14 87.3002C51.03 94.2102 58 92.8902 58.01 92.7002C58.03 92.5002 58.09 82.7702 58.09 82.7702Z" fill="#FFBE9D"/>
<path d="M55.94 90.04C55.91 90.02 55.82 90.12 55.61 90.21C55.41 90.3 55.07 90.36 54.71 90.21C53.98 89.93 53.39 88.76 53.37 87.52C53.36 86.89 53.5 86.29 53.73 85.8C53.95 85.3 54.28 84.95 54.65 84.89C55.02 84.81 55.27 85.04 55.36 85.23C55.45 85.42 55.4 85.56 55.44 85.57C55.46 85.59 55.59 85.46 55.54 85.17C55.51 85.03 55.44 84.87 55.27 84.73C55.11 84.59 54.86 84.52 54.61 84.54C54.08 84.57 53.59 85.05 53.34 85.59C53.06 86.13 52.88 86.8 52.89 87.51C52.91 88.9 53.61 90.22 54.6 90.52C55.08 90.65 55.49 90.51 55.7 90.35C55.93 90.21 55.96 90.06 55.94 90.04Z" fill="#EB996E"/>
<path d="M52.5897 76.3102C52.5697 76.2302 53.3297 75.9902 54.4497 75.4102C55.5697 74.8302 57.0297 73.8402 58.3197 72.4202C59.6097 70.9902 60.4497 69.4402 60.9097 68.2702C61.3797 67.1002 61.5397 66.3202 61.6197 66.3302C61.6697 66.3402 61.6397 67.1502 61.2497 68.3902C60.8597 69.6302 60.0397 71.2802 58.6997 72.7602C57.3597 74.2402 55.7997 75.2202 54.5997 75.7302C53.3997 76.2602 52.5997 76.3702 52.5897 76.3102Z" fill="#455A64"/>
<path d="M63.84 68.7103C63.89 68.7203 63.83 69.6103 63.32 70.9503C62.83 72.2803 61.8 74.0303 60.21 75.5403C58.61 77.0403 56.8 77.9403 55.43 78.3503C54.06 78.7603 53.17 78.7703 53.17 78.7203C53.16 78.6303 54.02 78.4903 55.31 78.0003C56.6 77.5203 58.31 76.6003 59.85 75.1603C61.39 73.7103 62.41 72.0703 62.98 70.8103C63.56 69.5403 63.75 68.6903 63.84 68.7103Z" fill="#455A64"/>
<path d="M87.8199 65.0503C87.7499 65.1103 87.3499 64.6103 86.5199 64.0703C85.6999 63.5303 84.3799 62.9903 82.8799 63.0703C81.3799 63.1603 80.1299 63.8403 79.3799 64.4703C78.6099 65.1003 78.2699 65.6403 78.1899 65.5903C78.1399 65.5703 78.3799 64.9403 79.1299 64.1903C79.8699 63.4503 81.1999 62.6403 82.8499 62.5503C84.4999 62.4603 85.9199 63.1203 86.7299 63.7703C87.5599 64.4203 87.8599 65.0203 87.8199 65.0503Z" fill="#455A64"/>
<path d="M92.2802 54.25C92.2702 54.34 91.2802 53.91 89.5702 54.18C88.7302 54.32 87.7202 54.68 86.8102 55.43C85.9002 56.17 85.1002 57.31 84.7702 58.71L84.6702 59.16L84.3702 58.81C83.5902 57.89 82.4302 57.16 81.0802 56.9C79.7402 56.61 78.2302 56.84 76.9902 57.65C75.5402 58.58 74.5902 60.13 74.3702 61.65L74.2902 62.19L73.9302 61.78C72.7002 60.38 70.9402 59.7 69.3902 59.64C67.8202 59.57 66.4702 60.14 65.5302 60.8C64.5802 61.47 64.0102 62.23 63.6702 62.77C63.3302 63.31 63.2002 63.64 63.1702 63.63C63.1502 63.62 63.2202 63.27 63.5202 62.69C63.8202 62.11 64.3702 61.29 65.3402 60.55C66.2902 59.82 67.7102 59.17 69.4002 59.22C71.0602 59.25 72.9402 59.95 74.3002 61.46L73.8602 61.59C74.0802 59.92 75.1102 58.24 76.6902 57.22C78.0502 56.33 79.7202 56.09 81.1702 56.42C82.6302 56.71 83.8802 57.52 84.7102 58.53L84.3102 58.62C84.6802 57.11 85.5702 55.91 86.5602 55.15C87.5502 54.38 88.6402 54.04 89.5202 53.93C90.4102 53.82 91.1202 53.92 91.5802 54.03C92.0502 54.11 92.2802 54.23 92.2802 54.25Z" fill="#455A64"/>
<path d="M120.88 155.38L113.99 158.57L110.75 161.86C110.75 161.86 118.28 160.97 118.48 162.23C118.68 163.49 118.71 164.93 118.21 165.33C117.71 165.73 116.98 166.91 116.98 166.91C116.98 166.91 118.79 168.93 118.09 169.96C117.4 170.99 116.99 172.05 116.99 172.05L115.91 171.96C115.91 171.96 116.03 175.88 115.21 176.41C114.39 176.94 114.54 176.95 113.44 177.17C112.33 177.38 110 177.49 110 177.49L108.77 177.38C108.77 177.38 102.31 185.51 100 185.3C97.69 185.1 93.43 185.03 93.43 185.03L57.23 206.07L58.88 187.25L59.1 183.81L94.66 171L107.3 156.9L113.22 154L121.84 152.11C121.84 152.11 122.57 154.03 120.88 155.38Z" fill="#FFBE9D"/>
<path d="M93.4302 185.02C93.4302 185.01 93.5402 185 93.7602 185C94.0102 185 94.3302 185.01 94.7302 185.01C95.6202 185.03 96.8702 185.07 98.4502 185.11C98.8502 185.12 99.2802 185.14 99.7302 185.15C100.19 185.2 100.57 185.11 101.01 184.87C101.85 184.42 102.65 183.72 103.48 182.95C105.12 181.39 106.84 179.45 108.62 177.24L108.69 177.16L108.8 177.17C109.18 177.2 109.6 177.24 110.03 177.27H110C110.75 177.23 111.52 177.18 112.31 177.09C112.7 177.05 113.1 177 113.49 176.92C113.9 176.83 114.27 176.78 114.58 176.56L115.11 176.21C115.2 176.14 115.3 175.98 115.36 175.79C115.49 175.42 115.56 175 115.6 174.58C115.69 173.73 115.71 172.84 115.69 171.96L115.68 171.69L115.94 171.71C116.27 171.74 116.64 171.77 117.02 171.8L116.77 171.95C116.95 171.5 117.15 171.08 117.38 170.66C117.57 170.24 117.98 169.8 118 169.49C118.03 169.1 117.85 168.65 117.62 168.25C117.39 167.84 117.1 167.44 116.79 167.08L116.67 166.94L116.77 166.79C117.05 166.34 117.35 165.91 117.71 165.49C117.8 165.39 117.9 165.28 118.01 165.18C118.1 165.09 118.13 165.06 118.18 164.95C118.27 164.76 118.31 164.51 118.34 164.26C118.38 163.76 118.35 163.23 118.29 162.7L118.23 162.3C118.21 162.23 118.21 162.22 118.12 162.15C117.95 162.04 117.69 161.98 117.44 161.93C115.33 161.65 113.04 161.89 110.79 162.11L110.07 162.18L110.57 161.67C110.61 161.63 110.65 161.59 110.69 161.55C111.74 160.48 112.78 159.43 113.81 158.39L113.84 158.36L113.88 158.34C116.24 157.25 118.54 156.19 120.78 155.16L120.73 155.19C121.66 154.5 121.97 153.23 121.62 152.2L121.9 152.35C118.88 153.01 115.99 153.63 113.28 154.22L113.33 154.2C111.23 155.22 109.25 156.18 107.4 157.07L107.46 157.02C103.58 161.29 100.4 164.79 98.1702 167.25C97.0802 168.43 96.2202 169.37 95.6002 170.04C95.3202 170.33 95.0902 170.57 94.9202 170.76C94.7602 170.92 94.6802 171 94.6702 170.99C94.6602 170.98 94.7302 170.89 94.8702 170.72C95.0402 170.52 95.2502 170.27 95.5102 169.96C96.1102 169.27 96.9402 168.31 98.0002 167.1C100.21 164.61 103.34 161.07 107.16 156.75L107.19 156.72L107.23 156.7C109.08 155.79 111.05 154.81 113.14 153.78L113.16 153.77L113.19 153.76C115.9 153.16 118.78 152.52 121.8 151.85L122.02 151.8L122.09 152C122.3 152.64 122.33 153.29 122.15 153.93C121.99 154.57 121.57 155.14 121.06 155.56L121.04 155.58L121.01 155.59C118.78 156.63 116.47 157.69 114.12 158.78L114.2 158.73C113.17 159.77 112.13 160.83 111.08 161.9C111.04 161.94 111 161.98 110.96 162.02L110.74 161.58C111.89 161.45 113.02 161.36 114.16 161.31C115.29 161.27 116.41 161.23 117.55 161.41C117.83 161.47 118.12 161.52 118.42 161.7C118.57 161.78 118.74 162 118.76 162.2L118.82 162.61C118.88 163.16 118.92 163.71 118.87 164.28C118.84 164.56 118.8 164.85 118.66 165.14C118.61 165.28 118.46 165.45 118.35 165.53C118.27 165.6 118.18 165.69 118.1 165.78C117.77 166.16 117.48 166.59 117.21 167.01L117.18 166.71C117.52 167.11 117.82 167.52 118.07 167.97C118.31 168.42 118.54 168.91 118.5 169.5C118.48 169.8 118.29 170.1 118.17 170.26C118.04 170.46 117.93 170.66 117.81 170.86C117.59 171.26 117.39 171.68 117.22 172.09L117.15 172.26L116.97 172.24C116.6 172.21 116.22 172.17 115.89 172.14L116.15 171.9C116.16 172.82 116.14 173.71 116.04 174.59C115.98 175.03 115.92 175.47 115.76 175.91C115.68 176.12 115.58 176.36 115.33 176.55L114.8 176.9C114.41 177.18 113.94 177.24 113.55 177.32C113.14 177.4 112.73 177.45 112.33 177.49C111.53 177.57 110.75 177.61 109.99 177.65H109.98H109.97C109.54 177.61 109.11 177.57 108.74 177.54L108.92 177.46C107.11 179.68 105.36 181.6 103.68 183.16C102.83 183.93 102.01 184.62 101.12 185.09C100.89 185.2 100.66 185.3 100.42 185.35C100.17 185.42 99.9102 185.38 99.7002 185.37C99.2602 185.35 98.8302 185.33 98.4302 185.31C96.8602 185.22 95.6202 185.15 94.7302 185.11C94.3302 185.08 94.0102 185.06 93.7602 185.04C93.5402 185.04 93.4302 185.03 93.4302 185.02Z" fill="#EB996E"/>
<path d="M117.03 166.75C116.98 166.81 116.59 166.53 115.9 166.3C115.21 166.06 114.18 165.9 113.06 166.03C111.94 166.16 110.94 166.47 110.21 166.68C109.48 166.9 109.02 167.02 108.99 166.95C108.96 166.88 109.38 166.65 110.08 166.34C110.79 166.04 111.8 165.65 113 165.51C114.2 165.37 115.32 165.6 116.03 165.96C116.76 166.3 117.07 166.7 117.03 166.75Z" fill="#EB996E"/>
<path d="M115.95 172.14C115.89 172.14 115.99 171.62 115.43 171.26C114.89 170.94 113.83 170.93 112.78 171C110.61 171.18 109.06 172.2 108.99 172.06C108.88 171.97 110.39 170.68 112.73 170.48C113.3 170.43 113.85 170.45 114.35 170.51C114.84 170.57 115.32 170.69 115.65 170.96C115.98 171.23 116.09 171.58 116.09 171.81C116.07 172.05 115.98 172.15 115.95 172.14Z" fill="#EB996E"/>
<path d="M112.48 174.95C112.5 175.02 112.17 175.16 111.63 175.22C111.09 175.29 110.34 175.25 109.65 175.48C108.95 175.72 108.54 176.29 108.58 176.75C108.58 177.22 108.85 177.45 108.8 177.51C108.79 177.58 108.34 177.43 108.21 176.79C108.15 176.49 108.21 176.08 108.44 175.75C108.67 175.41 109.04 175.14 109.47 174.99C110.33 174.71 111.1 174.83 111.62 174.85C112.14 174.89 112.47 174.88 112.48 174.95Z" fill="#EB996E"/>
<g opacity="0.3">
<g opacity="0.3">
<g opacity="0.3">
<path opacity="0.3" d="M90.23 215.16C77.37 217.23 63.97 216.61 51.14 214.37C49.97 214.17 48.47 214.09 47.91 215.14C47.54 215.85 47.85 216.76 48.43 217.31C49.01 217.86 49.8 218.11 50.57 218.32C56.14 219.84 62.01 219.74 67.79 219.48C78.44 219.01 89.2 216.99 99.17 213.34L90.23 215.16Z" fill="black"/>
</g>
</g>
</g>
<g opacity="0.3">
<g opacity="0.3">
<g opacity="0.3">
<path opacity="0.3" d="M48.5598 182.38C43.5398 180.71 37.6598 181.98 33.7798 185.56C33.2898 186.01 32.7898 186.64 32.9798 187.29C33.1198 187.76 33.6098 188.06 34.0998 188.11C34.5898 188.16 35.0698 188.01 35.5298 187.84C37.8098 186.98 39.8098 185.53 41.9398 184.35C44.0698 183.17 46.4798 182.23 48.8898 182.56" fill="black"/>
</g>
</g>
</g>
<path d="M191.641 45.0659C191.047 45.0659 190.515 44.9082 190.046 44.5929C189.584 44.2776 189.221 43.8266 188.957 43.2399C188.7 42.6459 188.572 41.9492 188.572 41.1499C188.572 40.3506 188.7 39.6576 188.957 39.0709C189.221 38.4769 189.584 38.0222 190.046 37.7069C190.515 37.3916 191.047 37.2339 191.641 37.2339C192.235 37.2339 192.763 37.3916 193.225 37.7069C193.694 38.0222 194.061 38.4769 194.325 39.0709C194.589 39.6576 194.721 40.3506 194.721 41.1499C194.721 41.9492 194.589 42.6459 194.325 43.2399C194.061 43.8266 193.694 44.2776 193.225 44.5929C192.763 44.9082 192.235 45.0659 191.641 45.0659ZM191.641 44.3399C192.088 44.3399 192.48 44.2152 192.818 43.9659C193.162 43.7166 193.43 43.3536 193.621 42.8769C193.811 42.4002 193.907 41.8246 193.907 41.1499C193.907 40.4752 193.811 39.8996 193.621 39.4229C193.43 38.9462 193.162 38.5832 192.818 38.3339C192.48 38.0846 192.088 37.9599 191.641 37.9599C191.193 37.9599 190.797 38.0846 190.453 38.3339C190.115 38.5832 189.851 38.9462 189.661 39.4229C189.47 39.8996 189.375 40.4752 189.375 41.1499C189.375 41.8246 189.47 42.4002 189.661 42.8769C189.851 43.3536 190.115 43.7166 190.453 43.9659C190.797 44.2152 191.193 44.3399 191.641 44.3399Z" fill="black"/>
<path d="M197.967 37.2999V44.9999H197.175V38.0039H195.36V37.2999H197.967Z" fill="black"/>
<path d="M262.453 45.0659C261.859 45.0659 261.328 44.9082 260.858 44.5929C260.396 44.2776 260.033 43.8266 259.769 43.2399C259.513 42.6459 259.384 41.9492 259.384 41.1499C259.384 40.3506 259.513 39.6576 259.769 39.0709C260.033 38.4769 260.396 38.0222 260.858 37.7069C261.328 37.3916 261.859 37.2339 262.453 37.2339C263.047 37.2339 263.575 37.3916 264.037 37.7069C264.507 38.0222 264.873 38.4769 265.137 39.0709C265.401 39.6576 265.533 40.3506 265.533 41.1499C265.533 41.9492 265.401 42.6459 265.137 43.2399C264.873 43.8266 264.507 44.2776 264.037 44.5929C263.575 44.9082 263.047 45.0659 262.453 45.0659ZM262.453 44.3399C262.901 44.3399 263.293 44.2152 263.63 43.9659C263.975 43.7166 264.243 43.3536 264.433 42.8769C264.624 42.4002 264.719 41.8246 264.719 41.1499C264.719 40.4752 264.624 39.8996 264.433 39.4229C264.243 38.9462 263.975 38.5832 263.63 38.3339C263.293 38.0846 262.901 37.9599 262.453 37.9599C262.006 37.9599 261.61 38.0846 261.265 38.3339C260.928 38.5832 260.664 38.9462 260.473 39.4229C260.283 39.8996 260.187 40.4752 260.187 41.1499C260.187 41.8246 260.283 42.4002 260.473 42.8769C260.664 43.3536 260.928 43.7166 261.265 43.9659C261.61 44.2152 262.006 44.3399 262.453 44.3399Z" fill="black"/>
<path d="M269.178 40.5999C269.985 40.6439 270.597 40.8639 271.015 41.2599C271.44 41.6486 271.653 42.1582 271.653 42.7889C271.653 43.2289 271.547 43.6212 271.334 43.9659C271.121 44.3032 270.806 44.5709 270.388 44.7689C269.97 44.9669 269.46 45.0659 268.859 45.0659C268.302 45.0659 267.774 44.9779 267.275 44.8019C266.784 44.6186 266.388 44.3766 266.087 44.0759L266.472 43.4489C266.729 43.7129 267.07 43.9292 267.495 44.0979C267.92 44.2592 268.375 44.3399 268.859 44.3399C269.49 44.3399 269.977 44.2042 270.322 43.9329C270.667 43.6542 270.839 43.2729 270.839 42.7889C270.839 42.3122 270.667 41.9382 270.322 41.6669C269.977 41.3956 269.457 41.2599 268.76 41.2599H268.21V40.6769L270.344 38.0039H266.406V37.2999H271.356V37.8609L269.178 40.5999Z" fill="black"/>
<path d="M293.111 45.0659C292.517 45.0659 291.986 44.9082 291.516 44.5929C291.054 44.2776 290.691 43.8266 290.427 43.2399C290.171 42.6459 290.042 41.9492 290.042 41.1499C290.042 40.3506 290.171 39.6576 290.427 39.0709C290.691 38.4769 291.054 38.0222 291.516 37.7069C291.986 37.3916 292.517 37.2339 293.111 37.2339C293.705 37.2339 294.233 37.3916 294.695 37.7069C295.165 38.0222 295.531 38.4769 295.795 39.0709C296.059 39.6576 296.191 40.3506 296.191 41.1499C296.191 41.9492 296.059 42.6459 295.795 43.2399C295.531 43.8266 295.165 44.2776 294.695 44.5929C294.233 44.9082 293.705 45.0659 293.111 45.0659ZM293.111 44.3399C293.559 44.3399 293.951 44.2152 294.288 43.9659C294.633 43.7166 294.901 43.3536 295.091 42.8769C295.282 42.4002 295.377 41.8246 295.377 41.1499C295.377 40.4752 295.282 39.8996 295.091 39.4229C294.901 38.9462 294.633 38.5832 294.288 38.3339C293.951 38.0846 293.559 37.9599 293.111 37.9599C292.664 37.9599 292.268 38.0846 291.923 38.3339C291.586 38.5832 291.322 38.9462 291.131 39.4229C290.941 39.8996 290.845 40.4752 290.845 41.1499C290.845 41.8246 290.941 42.4002 291.131 42.8769C291.322 43.3536 291.586 43.7166 291.923 43.9659C292.268 44.2152 292.664 44.3399 293.111 44.3399Z" fill="black"/>
<path d="M303.871 42.9759H302.331V44.9999H301.539V42.9759H297.194V42.4039L301.275 37.2999H302.155L298.217 42.2719H301.561V40.4899H302.331V42.2719H303.871V42.9759Z" fill="black"/>
<path d="M327.819 45.0659C327.225 45.0659 326.694 44.9082 326.224 44.5929C325.762 44.2776 325.399 43.8266 325.135 43.2399C324.879 42.6459 324.75 41.9492 324.75 41.1499C324.75 40.3506 324.879 39.6576 325.135 39.0709C325.399 38.4769 325.762 38.0222 326.224 37.7069C326.694 37.3916 327.225 37.2339 327.819 37.2339C328.413 37.2339 328.941 37.3916 329.403 37.7069C329.873 38.0222 330.239 38.4769 330.503 39.0709C330.767 39.6576 330.899 40.3506 330.899 41.1499C330.899 41.9492 330.767 42.6459 330.503 43.2399C330.239 43.8266 329.873 44.2776 329.403 44.5929C328.941 44.9082 328.413 45.0659 327.819 45.0659ZM327.819 44.3399C328.267 44.3399 328.659 44.2152 328.996 43.9659C329.341 43.7166 329.609 43.3536 329.799 42.8769C329.99 42.4002 330.085 41.8246 330.085 41.1499C330.085 40.4752 329.99 39.8996 329.799 39.4229C329.609 38.9462 329.341 38.5832 328.996 38.3339C328.659 38.0846 328.267 37.9599 327.819 37.9599C327.372 37.9599 326.976 38.0846 326.631 38.3339C326.294 38.5832 326.03 38.9462 325.839 39.4229C325.649 39.8996 325.553 40.4752 325.553 41.1499C325.553 41.8246 325.649 42.4002 325.839 42.8769C326.03 43.3536 326.294 43.7166 326.631 43.9659C326.976 44.2152 327.372 44.3399 327.819 44.3399Z" fill="black"/>
<path d="M334.058 40.4569C335.172 40.4569 335.983 40.6586 336.489 41.0619C337.002 41.4579 337.259 42.0152 337.259 42.7339C337.259 43.1812 337.152 43.5809 336.94 43.9329C336.734 44.2849 336.423 44.5636 336.005 44.7689C335.587 44.9669 335.073 45.0659 334.465 45.0659C333.915 45.0659 333.39 44.9779 332.892 44.8019C332.4 44.6186 332.004 44.3766 331.704 44.0759L332.089 43.4489C332.345 43.7129 332.683 43.9292 333.101 44.0979C333.519 44.2592 333.97 44.3399 334.454 44.3399C335.092 44.3399 335.583 44.1969 335.928 43.9109C336.28 43.6249 336.456 43.2436 336.456 42.7669C336.456 42.2389 336.258 41.8392 335.862 41.5679C335.473 41.2966 334.813 41.1609 333.882 41.1609H332.243L332.639 37.2999H336.852V38.0039H333.332L333.068 40.4569H334.058Z" fill="black"/>
<path d="M361.486 45.0659C360.892 45.0659 360.36 44.9082 359.891 44.5929C359.428 44.2776 359.066 43.8266 358.801 43.2399C358.545 42.6459 358.417 41.9492 358.417 41.1499C358.417 40.3506 358.545 39.6576 358.801 39.0709C359.066 38.4769 359.428 38.0222 359.891 37.7069C360.36 37.3916 360.892 37.2339 361.486 37.2339C362.079 37.2339 362.607 37.3916 363.07 37.7069C363.539 38.0222 363.905 38.4769 364.169 39.0709C364.433 39.6576 364.565 40.3506 364.565 41.1499C364.565 41.9492 364.433 42.6459 364.169 43.2399C363.905 43.8266 363.539 44.2776 363.07 44.5929C362.607 44.9082 362.079 45.0659 361.486 45.0659ZM361.486 44.3399C361.933 44.3399 362.325 44.2152 362.662 43.9659C363.007 43.7166 363.275 43.3536 363.465 42.8769C363.656 42.4002 363.751 41.8246 363.751 41.1499C363.751 40.4752 363.656 39.8996 363.465 39.4229C363.275 38.9462 363.007 38.5832 362.662 38.3339C362.325 38.0846 361.933 37.9599 361.486 37.9599C361.038 37.9599 360.642 38.0846 360.298 38.3339C359.96 38.5832 359.696 38.9462 359.505 39.4229C359.315 39.8996 359.219 40.4752 359.219 41.1499C359.219 41.8246 359.315 42.4002 359.505 42.8769C359.696 43.3536 359.96 43.7166 360.298 43.9659C360.642 44.2152 361.038 44.3399 361.486 44.3399Z" fill="black"/>
<path d="M368.89 40.3909C369.396 40.3909 369.843 40.4862 370.232 40.6769C370.628 40.8676 370.936 41.1389 371.156 41.4909C371.376 41.8356 371.486 42.2389 371.486 42.7009C371.486 43.1702 371.372 43.5846 371.145 43.9439C370.917 44.3032 370.602 44.5819 370.199 44.7799C369.803 44.9706 369.355 45.0659 368.857 45.0659C367.837 45.0659 367.056 44.7322 366.514 44.0649C365.971 43.3902 365.7 42.4406 365.7 41.2159C365.7 40.3579 365.846 39.6319 366.14 39.0379C366.433 38.4439 366.844 37.9966 367.372 37.6959C367.9 37.3879 368.516 37.2339 369.22 37.2339C369.982 37.2339 370.591 37.3732 371.046 37.6519L370.727 38.2899C370.36 38.0479 369.861 37.9269 369.231 37.9269C368.38 37.9269 367.713 38.1982 367.229 38.7409C366.745 39.2762 366.503 40.0572 366.503 41.0839C366.503 41.2672 366.514 41.4762 366.536 41.7109C366.726 41.2929 367.031 40.9702 367.449 40.7429C367.867 40.5082 368.347 40.3909 368.89 40.3909ZM368.824 44.3949C369.381 44.3949 369.832 44.2446 370.177 43.9439C370.529 43.6359 370.705 43.2289 370.705 42.7229C370.705 42.2169 370.529 41.8136 370.177 41.5129C369.832 41.2122 369.363 41.0619 368.769 41.0619C368.38 41.0619 368.035 41.1352 367.735 41.2819C367.441 41.4286 367.21 41.6302 367.042 41.8869C366.873 42.1436 366.789 42.4296 366.789 42.7449C366.789 43.0382 366.866 43.3096 367.02 43.5589C367.181 43.8082 367.416 44.0099 367.724 44.1639C368.032 44.3179 368.398 44.3949 368.824 44.3949Z" fill="black"/>
<path d="M395.624 45.0659C395.03 45.0659 394.499 44.9082 394.029 44.5929C393.567 44.2776 393.204 43.8266 392.94 43.2399C392.684 42.6459 392.555 41.9492 392.555 41.1499C392.555 40.3506 392.684 39.6576 392.94 39.0709C393.204 38.4769 393.567 38.0222 394.029 37.7069C394.499 37.3916 395.03 37.2339 395.624 37.2339C396.218 37.2339 396.746 37.3916 397.208 37.7069C397.678 38.0222 398.044 38.4769 398.308 39.0709C398.572 39.6576 398.704 40.3506 398.704 41.1499C398.704 41.9492 398.572 42.6459 398.308 43.2399C398.044 43.8266 397.678 44.2776 397.208 44.5929C396.746 44.9082 396.218 45.0659 395.624 45.0659ZM395.624 44.3399C396.072 44.3399 396.464 44.2152 396.801 43.9659C397.146 43.7166 397.413 43.3536 397.604 42.8769C397.795 42.4002 397.89 41.8246 397.89 41.1499C397.89 40.4752 397.795 39.8996 397.604 39.4229C397.413 38.9462 397.146 38.5832 396.801 38.3339C396.464 38.0846 396.072 37.9599 395.624 37.9599C395.177 37.9599 394.781 38.0846 394.436 38.3339C394.099 38.5832 393.835 38.9462 393.644 39.4229C393.453 39.8996 393.358 40.4752 393.358 41.1499C393.358 41.8246 393.453 42.4002 393.644 42.8769C393.835 43.3536 394.099 43.7166 394.436 43.9659C394.781 44.2152 395.177 44.3399 395.624 44.3399Z" fill="black"/>
<path d="M405.186 37.2999V37.8609L401.963 44.9999H401.105L404.273 38.0039H400.313V39.4449H399.532V37.2999H405.186Z" fill="black"/>
<path d="M432.33 45.0659C431.736 45.0659 431.205 44.9082 430.735 44.5929C430.273 44.2776 429.91 43.8266 429.646 43.2399C429.39 42.6459 429.261 41.9492 429.261 41.1499C429.261 40.3506 429.39 39.6576 429.646 39.0709C429.91 38.4769 430.273 38.0222 430.735 37.7069C431.205 37.3916 431.736 37.2339 432.33 37.2339C432.924 37.2339 433.452 37.3916 433.914 37.7069C434.384 38.0222 434.75 38.4769 435.014 39.0709C435.278 39.6576 435.41 40.3506 435.41 41.1499C435.41 41.9492 435.278 42.6459 435.014 43.2399C434.75 43.8266 434.384 44.2776 433.914 44.5929C433.452 44.9082 432.924 45.0659 432.33 45.0659ZM432.33 44.3399C432.778 44.3399 433.17 44.2152 433.507 43.9659C433.852 43.7166 434.12 43.3536 434.31 42.8769C434.501 42.4002 434.596 41.8246 434.596 41.1499C434.596 40.4752 434.501 39.8996 434.31 39.4229C434.12 38.9462 433.852 38.5832 433.507 38.3339C433.17 38.0846 432.778 37.9599 432.33 37.9599C431.883 37.9599 431.487 38.0846 431.142 38.3339C430.805 38.5832 430.541 38.9462 430.35 39.4229C430.16 39.8996 430.064 40.4752 430.064 41.1499C430.064 41.8246 430.16 42.4002 430.35 42.8769C430.541 43.3536 430.805 43.7166 431.142 43.9659C431.487 44.2152 431.883 44.3399 432.33 44.3399Z" fill="black"/>
<path d="M440.955 40.9629C441.439 41.1242 441.81 41.3662 442.066 41.6889C442.33 42.0116 442.462 42.4002 442.462 42.8549C442.462 43.3022 442.341 43.6946 442.099 44.0319C441.857 44.3619 441.509 44.6186 441.054 44.8019C440.607 44.9779 440.079 45.0659 439.47 45.0659C438.546 45.0659 437.82 44.8679 437.292 44.4719C436.764 44.0759 436.5 43.5369 436.5 42.8549C436.5 42.3929 436.625 42.0042 436.874 41.6889C437.131 41.3662 437.501 41.1242 437.985 40.9629C437.589 40.8089 437.289 40.5889 437.083 40.3029C436.878 40.0096 436.775 39.6649 436.775 39.2689C436.775 38.6456 437.017 38.1506 437.501 37.7839C437.993 37.4172 438.649 37.2339 439.47 37.2339C440.013 37.2339 440.486 37.3182 440.889 37.4869C441.3 37.6482 441.619 37.8829 441.846 38.1909C442.074 38.4989 442.187 38.8582 442.187 39.2689C442.187 39.6649 442.081 40.0096 441.868 40.3029C441.656 40.5889 441.351 40.8089 440.955 40.9629ZM437.567 39.2909C437.567 39.7162 437.736 40.0536 438.073 40.3029C438.411 40.5522 438.876 40.6769 439.47 40.6769C440.064 40.6769 440.53 40.5522 440.867 40.3029C441.212 40.0536 441.384 39.7199 441.384 39.3019C441.384 38.8692 441.208 38.5282 440.856 38.2789C440.512 38.0296 440.05 37.9049 439.47 37.9049C438.884 37.9049 438.418 38.0296 438.073 38.2789C437.736 38.5282 437.567 38.8656 437.567 39.2909ZM439.47 44.3949C440.152 44.3949 440.684 44.2556 441.065 43.9769C441.454 43.6982 441.648 43.3206 441.648 42.8439C441.648 42.3672 441.454 41.9932 441.065 41.7219C440.684 41.4432 440.152 41.3039 439.47 41.3039C438.796 41.3039 438.264 41.4432 437.875 41.7219C437.494 41.9932 437.303 42.3672 437.303 42.8439C437.303 43.3279 437.494 43.7092 437.875 43.9879C438.257 44.2592 438.788 44.3949 439.47 44.3949Z" fill="black"/>
<path d="M466.78 45.0659C466.186 45.0659 465.655 44.9082 465.185 44.5929C464.723 44.2776 464.36 43.8266 464.096 43.2399C463.84 42.6459 463.711 41.9492 463.711 41.1499C463.711 40.3506 463.84 39.6576 464.096 39.0709C464.36 38.4769 464.723 38.0222 465.185 37.7069C465.655 37.3916 466.186 37.2339 466.78 37.2339C467.374 37.2339 467.902 37.3916 468.364 37.7069C468.834 38.0222 469.2 38.4769 469.464 39.0709C469.728 39.6576 469.86 40.3506 469.86 41.1499C469.86 41.9492 469.728 42.6459 469.464 43.2399C469.2 43.8266 468.834 44.2776 468.364 44.5929C467.902 44.9082 467.374 45.0659 466.78 45.0659ZM466.78 44.3399C467.228 44.3399 467.62 44.2152 467.957 43.9659C468.302 43.7166 468.57 43.3536 468.76 42.8769C468.951 42.4002 469.046 41.8246 469.046 41.1499C469.046 40.4752 468.951 39.8996 468.76 39.4229C468.57 38.9462 468.302 38.5832 467.957 38.3339C467.62 38.0846 467.228 37.9599 466.78 37.9599C466.333 37.9599 465.937 38.0846 465.592 38.3339C465.255 38.5832 464.991 38.9462 464.8 39.4229C464.61 39.8996 464.514 40.4752 464.514 41.1499C464.514 41.8246 464.61 42.4002 464.8 42.8769C464.991 43.3536 465.255 43.7166 465.592 43.9659C465.937 44.2152 466.333 44.3399 466.78 44.3399Z" fill="black"/>
<path d="M473.393 37.2339C474.412 37.2339 475.193 37.5712 475.736 38.2459C476.278 38.9132 476.55 39.8592 476.55 41.0839C476.55 41.9419 476.403 42.6679 476.11 43.2619C475.816 43.8559 475.406 44.3069 474.878 44.6149C474.35 44.9156 473.734 45.0659 473.03 45.0659C472.267 45.0659 471.658 44.9266 471.204 44.6479L471.523 44.0099C471.889 44.2519 472.388 44.3729 473.019 44.3729C473.869 44.3729 474.537 44.1052 475.021 43.5699C475.505 43.0272 475.747 42.2426 475.747 41.2159C475.747 41.0252 475.736 40.8162 475.714 40.5889C475.523 41.0069 475.219 41.3332 474.801 41.5679C474.383 41.7952 473.902 41.9089 473.36 41.9089C472.854 41.9089 472.403 41.8136 472.007 41.6229C471.618 41.4322 471.314 41.1646 471.094 40.8199C470.874 40.4679 470.764 40.0609 470.764 39.5989C470.764 39.1296 470.877 38.7152 471.105 38.3559C471.332 37.9966 471.644 37.7216 472.04 37.5309C472.443 37.3329 472.894 37.2339 473.393 37.2339ZM473.481 41.2379C473.869 41.2379 474.21 41.1646 474.504 41.0179C474.804 40.8712 475.039 40.6696 475.208 40.4129C475.376 40.1562 475.461 39.8702 475.461 39.5549C475.461 39.2616 475.38 38.9902 475.219 38.7409C475.065 38.4916 474.834 38.2899 474.526 38.1359C474.218 37.9819 473.851 37.9049 473.426 37.9049C472.868 37.9049 472.414 38.0589 472.062 38.3669C471.717 38.6676 471.545 39.0709 471.545 39.5769C471.545 40.0829 471.717 40.4862 472.062 40.7869C472.414 41.0876 472.887 41.2379 473.481 41.2379Z" fill="black"/>
<path d="M499.984 37.2999V44.9999H499.192V38.0039H497.377V37.2999H499.984Z" fill="black"/>
<path d="M504.894 45.0659C504.3 45.0659 503.768 44.9082 503.299 44.5929C502.837 44.2776 502.474 43.8266 502.21 43.2399C501.953 42.6459 501.825 41.9492 501.825 41.1499C501.825 40.3506 501.953 39.6576 502.21 39.0709C502.474 38.4769 502.837 38.0222 503.299 37.7069C503.768 37.3916 504.3 37.2339 504.894 37.2339C505.488 37.2339 506.016 37.3916 506.478 37.7069C506.947 38.0222 507.314 38.4769 507.578 39.0709C507.842 39.6576 507.974 40.3506 507.974 41.1499C507.974 41.9492 507.842 42.6459 507.578 43.2399C507.314 43.8266 506.947 44.2776 506.478 44.5929C506.016 44.9082 505.488 45.0659 504.894 45.0659ZM504.894 44.3399C505.341 44.3399 505.733 44.2152 506.071 43.9659C506.415 43.7166 506.683 43.3536 506.874 42.8769C507.064 42.4002 507.16 41.8246 507.16 41.1499C507.16 40.4752 507.064 39.8996 506.874 39.4229C506.683 38.9462 506.415 38.5832 506.071 38.3339C505.733 38.0846 505.341 37.9599 504.894 37.9599C504.446 37.9599 504.05 38.0846 503.706 38.3339C503.368 38.5832 503.104 38.9462 502.914 39.4229C502.723 39.8996 502.628 40.4752 502.628 41.1499C502.628 41.8246 502.723 42.4002 502.914 42.8769C503.104 43.3536 503.368 43.7166 503.706 43.9659C504.05 44.2152 504.446 44.3399 504.894 44.3399Z" fill="black"/>
<path d="M537.152 37.2999V44.9999H536.36V38.0039H534.545V37.2999H537.152Z" fill="black"/>
<path d="M541.127 37.2999V44.9999H540.335V38.0039H538.52V37.2999H541.127Z" fill="black"/>
<path d="M571.011 37.2999V44.9999H570.219V38.0039H568.404V37.2999H571.011Z" fill="black"/>
<path d="M578.11 44.2959V44.9999H572.709V44.4389L575.91 41.3039C576.313 40.9079 576.585 40.5669 576.724 40.2809C576.871 39.9876 576.944 39.6942 576.944 39.4009C576.944 38.9462 576.786 38.5942 576.471 38.3449C576.163 38.0882 575.719 37.9599 575.14 37.9599C574.238 37.9599 573.538 38.2459 573.039 38.8179L572.478 38.3339C572.779 37.9819 573.16 37.7106 573.622 37.5199C574.091 37.3292 574.619 37.2339 575.206 37.2339C575.991 37.2339 576.61 37.4209 577.065 37.7949C577.527 38.1616 577.758 38.6676 577.758 39.3129C577.758 39.7089 577.67 40.0902 577.494 40.4569C577.318 40.8236 576.984 41.2452 576.493 41.7219L573.875 44.2959H578.11Z" fill="black"/>
<path d="M225.909 45.0664C225.315 45.0664 224.783 44.9087 224.314 44.5934C223.852 44.278 223.489 43.827 223.225 43.2404C222.968 42.6464 222.84 41.9497 222.84 41.1504C222.84 40.351 222.968 39.658 223.225 39.0714C223.489 38.4774 223.852 38.0227 224.314 37.7074C224.783 37.392 225.315 37.2344 225.909 37.2344C226.503 37.2344 227.031 37.392 227.493 37.7074C227.962 38.0227 228.329 38.4774 228.593 39.0714C228.857 39.658 228.989 40.351 228.989 41.1504C228.989 41.9497 228.857 42.6464 228.593 43.2404C228.329 43.827 227.962 44.278 227.493 44.5934C227.031 44.9087 226.503 45.0664 225.909 45.0664ZM225.909 44.3404C226.356 44.3404 226.749 44.2157 227.086 43.9664C227.431 43.717 227.698 43.354 227.889 42.8774C228.08 42.4007 228.175 41.825 228.175 41.1504C228.175 40.4757 228.08 39.9 227.889 39.4234C227.698 38.9467 227.431 38.5837 227.086 38.3344C226.749 38.085 226.356 37.9604 225.909 37.9604C225.462 37.9604 225.066 38.085 224.721 38.3344C224.384 38.5837 224.12 38.9467 223.929 39.4234C223.738 39.9 223.643 40.4757 223.643 41.1504C223.643 41.825 223.738 42.4007 223.929 42.8774C224.12 43.354 224.384 43.717 224.721 43.9664C225.066 44.2157 225.462 44.3404 225.909 44.3404Z" fill="white"/>
<path d="M235.36 44.2964V45.0004H229.959V44.4394L233.16 41.3044C233.563 40.9084 233.834 40.5674 233.974 40.2814C234.12 39.988 234.194 39.6947 234.194 39.4014C234.194 38.9467 234.036 38.5947 233.721 38.3454C233.413 38.0887 232.969 37.9604 232.39 37.9604C231.488 37.9604 230.787 38.2464 230.289 38.8184L229.728 38.3344C230.028 37.9824 230.41 37.711 230.872 37.5204C231.341 37.3297 231.869 37.2344 232.456 37.2344C233.24 37.2344 233.86 37.4214 234.315 37.7954C234.777 38.162 235.008 38.668 235.008 39.3134C235.008 39.7094 234.92 40.0907 234.744 40.4574C234.568 40.824 234.234 41.2457 233.743 41.7224L231.125 44.2964H235.36Z" fill="white"/>
</g>
<defs>
<clipPath id="clip0">
<rect width="713.8" height="444.78" fill="white"/>
</clipPath>
</defs>
</svg>
