<svg width="547" height="505" viewBox="0 0 547 505" fill="none" xmlns="http://www.w3.org/2000/svg">
<g clip-path="url(#clip0)">
<path d="M26.7902 402.549C22.2584 399.707 17.0757 397.917 11.7552 397.379C9.30155 397.129 6.61002 397.204 4.64458 398.681C4.23146 398.994 3.81834 399.47 3.91849 399.983C3.98109 400.358 4.30657 400.634 4.61954 400.872C10.7287 405.529 19.98 406.117 26.7902 402.549Z" fill="#E0E0E0"/>
<path d="M26.402 402.124C22.9969 399.47 19.5793 396.791 16.6874 393.586C13.8081 390.369 11.4671 386.563 10.6033 382.332C10.3404 381.055 10.2653 379.578 11.079 378.564C18.8281 384.598 24.8997 392.41 26.402 402.124Z" fill="#E0E0E0"/>
<path d="M26.7016 402.486C26.1132 398.255 25.9129 393.899 26.8768 389.742C27.8533 385.586 30.1192 381.593 33.662 379.227C35.0015 382.356 34.4256 385.949 33.4867 389.217C32.0345 394.262 29.7436 399.069 26.7516 403.388" fill="#E0E0E0"/>
<path d="M34.2893 416.082C29.6824 416.645 25.6764 419.074 22.2338 422.178C18.7911 425.295 16.35 429.489 15.3359 434.021C19.8552 433.745 23.6859 430.553 26.4651 426.985C29.2442 423.418 31.1721 419.499 34.2267 416.157" fill="#E0E0E0"/>
<path d="M35.9415 418.259C32.236 409.121 33.5755 398.117 39.3716 390.13C42.0006 399.456 41.0366 410.01 35.9415 418.259Z" fill="#E0E0E0"/>
<path d="M45.9691 430.191C41.7878 429.928 37.544 430.929 33.9136 433.02C30.2831 435.11 27.2912 438.278 25.4133 442.033C25.163 442.547 24.9376 443.185 25.2756 443.648C25.5761 444.049 26.1394 444.086 26.6402 444.049C30.6962 443.786 34.2766 441.345 37.2435 438.578C40.2105 435.799 42.7893 432.594 46.0567 430.191" fill="#E0E0E0"/>
<path d="M45.6433 429.539C43.4901 422.641 43.3524 415.117 45.2553 408.145C46.0064 405.39 47.2708 402.499 49.8246 401.197C50.0374 401.084 50.3003 400.984 50.5256 401.071C50.7385 401.159 50.8636 401.372 50.9638 401.585C51.8651 403.475 52.128 405.628 52.0404 407.719C51.9528 409.81 51.5146 411.875 51.0765 413.928C50.2753 417.721 49.8496 421.802 47.7715 425.082C47.2833 425.859 46.8451 426.697 46.4445 427.536C46.0564 428.362 46.0439 428.663 45.6809 429.326" fill="#E0E0E0"/>
<path d="M72.1835 433.495C70.218 426.021 72.3087 416.945 77.0157 410.824C77.3662 410.373 77.8169 409.885 78.3928 409.935C79.2566 410.01 79.4819 411.174 79.4443 412.038C79.1063 419.687 76.5525 427.223 72.1835 433.495Z" fill="#E0E0E0"/>
<path d="M74.5742 435.136C83.6628 437.502 94.0784 435.198 101.64 429.627C97.158 427.362 91.8876 426.711 86.9928 427.825C82.098 428.951 77.6163 431.142 74.5742 435.136Z" fill="#E0E0E0"/>
<path d="M76.5889 430.152C81.6715 421.852 91.4361 416.444 101.151 415.943C100.036 419.899 96.7816 422.966 93.1136 424.832C89.4456 426.684 85.352 427.498 81.3209 428.274C79.7561 428.587 77.6029 428.913 76.5889 430.152Z" fill="#E0E0E0"/>
<path d="M72.6835 405.991C74.0606 401.272 75.4501 396.515 75.8257 391.607C76.2013 386.7 75.5002 381.58 72.9589 377.374C68.2018 386.575 67.7261 397.316 72.5458 406.48" fill="#E0E0E0"/>
<path d="M88.6943 397.904C94.2527 387.801 105.595 379.726 117.074 378.6C112.643 389.616 100.562 398.141 88.6943 397.904Z" fill="#E0E0E0"/>
<path d="M85.1904 399.883C93.4778 401.147 100.538 406.442 108.287 409.647C109.94 410.336 111.73 410.887 113.508 410.649C115.285 410.411 117.038 409.222 117.439 407.469C117.764 406.017 117.113 404.477 116.062 403.413C115.023 402.349 113.646 401.685 112.268 401.109C103.831 397.592 94.7798 397.504 85.8915 399.645" fill="#E0E0E0"/>
<path d="M80.3945 405.692C82.2723 406.23 82.9108 407.207 84.4005 408.471C89.4456 412.765 95.4921 415.869 101.914 417.472C102.578 417.635 103.467 417.71 103.792 417.096C104.08 416.57 103.717 415.932 103.341 415.456C100.65 412.089 96.8066 409.785 92.763 408.271C88.7195 406.768 85.2142 404.953 80.3945 405.341" fill="#E0E0E0"/>
<path d="M74.9873 370.575C81.7224 376.872 91.2241 380.102 100.4 379.225C100.813 379.188 101.277 379.125 101.552 378.812C102.191 378.111 101.427 377.047 100.676 376.459C93.2146 370.637 84.1635 368.221 74.9873 370.575Z" fill="#E0E0E0"/>
<path d="M81.3965 368.235C90.3098 361.55 102.528 359.535 113.106 363.003C109.113 366.933 103.567 369.062 97.9963 369.637C92.4255 370.213 86.8421 369.6 81.3965 368.235Z" fill="#E0E0E0"/>
<path d="M78.8552 352.098C78.1166 344.637 78.5923 338.753 78.079 331.255C78.0415 330.654 77.9038 329.94 77.353 329.715C76.5768 329.414 75.9258 330.378 75.6629 331.167C73.4471 338.077 74.6614 346.002 78.8427 351.923" fill="#E0E0E0"/>
<path d="M78.3164 352.924C83.374 349.794 87.1671 345.713 90.6724 340.918C93.1135 337.576 95.1666 333.582 94.6158 329.476C91.1857 329.414 87.9308 331.304 85.7025 333.908C83.4741 336.512 82.1471 339.767 81.1582 343.046C80.1692 346.326 79.4681 349.694 78.3164 352.924Z" fill="#E0E0E0"/>
<path d="M90.4481 349.544C101.54 345.437 111.893 339.341 120.856 331.617C117.226 330.152 113.069 331.028 109.439 332.493C101.139 335.836 94.3664 341.494 90.2979 349.456" fill="#E0E0E0"/>
<path d="M81.7227 356.994C87.331 357.607 93.0396 358.008 98.6104 357.082C104.081 356.168 109.251 354.002 114.372 351.849C114.797 351.673 115.26 351.461 115.448 351.035C115.648 350.584 115.436 350.021 115.06 349.683C114.684 349.345 114.196 349.182 113.721 349.057C108.162 347.505 102.153 348.231 96.6825 350.071C91.2119 351.911 86.7301 354.102 81.7227 356.994Z" fill="#E0E0E0"/>
<path d="M49.6739 370.839C45.8432 363.115 46.0936 354.089 49.3985 346.127C51.727 349.67 52.0149 354.19 51.5893 358.421C51.1637 362.64 49.8742 366.984 49.7991 371.228" fill="#E0E0E0"/>
<path d="M34.376 363.114C24.8117 362.926 15.2474 367.007 8.7627 374.03C13.5323 374.781 18.4522 373.554 22.7837 371.426C27.1277 369.31 30.9834 366.331 34.8017 363.377" fill="#E0E0E0"/>
<path d="M24.0986 359.684C19.4165 359.309 14.9223 358.72 10.4281 360.11C5.93388 361.487 1.84025 364.617 0 368.948C4.36904 369.436 8.81319 368.347 12.8192 366.532C16.8252 364.704 20.4806 362.188 24.0986 359.684Z" fill="#E0E0E0"/>
<path d="M39.3221 359.835C35.1158 357.081 30.7968 354.277 25.8895 353.125C20.9947 351.986 15.3112 352.824 11.8936 356.517C15.862 358.846 20.6692 359.121 25.2636 359.121C29.8579 359.121 35.5039 359.071 39.8354 360.598" fill="#E0E0E0"/>
<path d="M39.346 360.059C32.1477 352.999 29.4312 340.305 32.323 330.653C37.9815 339.241 40.5102 349.844 39.346 360.059Z" fill="#E0E0E0"/>
<path d="M59.126 340.043C60.478 336.888 61.4419 333.583 62.6563 330.366C63.8706 327.161 65.3853 323.994 67.6888 321.452C69.9922 318.899 73.172 317.008 76.6021 316.833C74.4614 326.548 68.0018 335.236 59.3138 340.093" fill="#E0E0E0"/>
<path d="M55.545 344.212C53.3042 341.12 50.7003 336.927 47.6582 334.623C44.6162 332.32 40.6478 330.918 36.9297 331.806C40.7229 338.567 47.8585 343.324 55.545 344.212Z" fill="#E0E0E0"/>
<path d="M56.2593 340.305C54.7821 336.562 53.3049 332.782 52.7165 328.813C52.1156 324.845 52.4786 320.588 54.5192 317.133C58.4626 324.594 59.7395 332.606 56.4721 340.393" fill="#E0E0E0"/>
<path d="M59.1631 317.121C61.4039 309.723 68.1766 304.277 75.4875 301.773C76.4139 301.46 77.3904 301.197 78.3543 301.348C79.3182 301.498 80.2571 302.161 80.47 303.113C80.7329 304.377 79.6938 305.504 78.7173 306.33C73.0213 311.2 66.3238 314.905 59.1631 317.121Z" fill="#E0E0E0"/>
<path d="M59.2512 311.074C59.5391 306.305 59.827 301.46 61.3793 296.941C62.9317 292.422 65.9236 288.178 70.2676 286.2C71.0063 291.019 68.8781 295.814 66.3242 299.958C63.7579 304.101 60.6658 308.02 59.126 312.639" fill="#E0E0E0"/>
<path d="M59.1268 314.353C57.274 308.958 57.0862 302.11 53.8564 297.416C51.603 294.136 47.9851 291.895 46.0447 288.415C44.7553 291.657 45.1434 295.4 46.4954 298.63C47.8474 301.86 50.0757 304.626 52.4668 307.18C54.8579 309.734 56.911 311.662 59.1268 314.353Z" fill="#E0E0E0"/>
<path d="M59.1631 473.154C59.0254 473.154 58.9002 437.188 58.8877 392.821C58.8752 348.442 58.9878 312.476 59.1255 312.476C59.2632 312.476 59.3884 348.442 59.4009 392.821C59.4135 437.188 59.3133 473.154 59.1631 473.154Z" fill="#E0E0E0"/>
<path d="M90.5977 365.406C90.6102 365.444 90.122 365.619 89.2457 365.919C88.2692 366.245 87.0173 366.67 85.5276 367.171C82.3854 368.235 78.0789 369.788 73.3969 371.703C68.765 373.693 64.396 375.308 61.9047 377.462C60.6654 378.526 59.9518 379.677 59.6013 380.516C59.2383 381.355 59.1757 381.881 59.1381 381.868C59.1256 381.868 59.1256 381.73 59.1506 381.493C59.1882 381.255 59.2508 380.892 59.4135 380.441C59.714 379.552 60.415 378.325 61.6669 377.186C62.9188 376.047 64.6589 375.02 66.6493 374.094C68.6398 373.168 70.8556 372.191 73.1966 371.227C77.8912 369.299 82.2352 367.81 85.4149 366.821C87.0048 366.32 88.2942 365.957 89.1956 365.719C90.0844 365.481 90.5852 365.368 90.5977 365.406Z" fill="#E0E0E0"/>
<path d="M100.902 340.093C100.914 340.105 100.776 340.243 100.526 340.493C100.226 340.781 99.8376 341.144 99.3744 341.582C98.2978 342.559 96.8456 343.886 95.0679 345.501C91.3499 348.818 86.3048 353.313 80.7215 358.27C75.1256 363.252 70.2808 368.01 66.9258 371.602C65.2483 373.393 63.9213 374.882 63.02 375.909C62.5943 376.385 62.2563 376.785 61.9809 377.098C61.7431 377.374 61.6054 377.499 61.5928 377.499C61.5803 377.486 61.6805 377.323 61.9058 377.036C62.1186 376.748 62.4441 376.309 62.8697 375.784C63.721 374.707 65.0105 373.18 66.6629 371.352C69.9554 367.697 74.7625 362.877 80.3835 357.882C86.0044 352.912 91.112 348.443 94.8301 345.225C96.6578 343.661 98.1475 342.384 99.2492 341.432C99.7374 341.019 100.151 340.694 100.464 340.418C100.739 340.193 100.889 340.08 100.902 340.093Z" fill="#E0E0E0"/>
<path d="M74.6741 363.34C74.5239 363.277 75.7007 360.573 76.8649 357.155C78.0417 353.738 78.5925 350.858 78.7427 350.883C78.8804 350.896 78.5424 353.863 77.3531 357.318C76.7648 359.046 76.1263 360.56 75.613 361.637C75.0998 362.726 74.7367 363.365 74.6741 363.34Z" fill="#E0E0E0"/>
<path d="M59.2017 385.111C59.1767 385.136 58.8637 384.772 58.3379 384.109C57.7495 383.358 57.0109 382.406 56.1221 381.28C54.2693 378.876 51.703 375.571 48.8237 371.941C45.9444 368.31 43.3029 365.068 41.3875 362.714C40.4862 361.6 39.7226 360.661 39.1342 359.923C38.6084 359.259 38.333 358.884 38.358 358.859C38.3831 358.834 38.7211 359.172 39.2969 359.798C39.8728 360.424 40.6865 361.337 41.688 362.489C43.6785 364.78 46.37 367.997 49.2493 371.628C52.1286 375.258 54.6574 378.613 56.4351 381.067C57.3239 382.294 58.0375 383.295 58.5132 383.996C58.9764 384.697 59.2267 385.085 59.2017 385.111Z" fill="#E0E0E0"/>
<path d="M52.304 376.26C52.2164 376.348 50.3762 374.169 49.4122 370.852C48.6987 368.511 48.6736 366.383 48.7613 365.406L48.9866 365.419C48.8864 365.832 48.8113 366.057 48.7738 366.045C48.7362 366.032 48.7362 365.807 48.7613 365.381L48.9866 365.394C49.0742 366.358 49.2119 368.423 49.913 370.702C50.8519 373.919 52.4418 376.172 52.304 376.26Z" fill="#E0E0E0"/>
<path d="M43.4031 365.068C43.3405 365.144 42.7396 364.392 41.3876 363.892C40.0356 363.366 38.0201 363.253 35.7917 363.441C33.5634 363.604 31.5729 364.004 30.1583 364.355C28.7312 364.705 27.8674 364.981 27.8424 364.906C27.8173 364.843 28.6435 364.443 30.0582 363.992C31.4728 363.541 33.4883 363.09 35.7542 362.915C38.0076 362.715 40.1357 362.89 41.5253 363.541C42.9399 364.18 43.4532 365.056 43.4031 365.068Z" fill="#E0E0E0"/>
<path d="M41.3001 362.352C41.2626 362.427 40.1234 361.876 38.208 361.225C36.2926 360.562 33.5761 359.873 30.4965 359.636C27.4169 359.41 24.6252 359.673 22.6347 360.036C20.6442 360.387 19.4424 360.762 19.4174 360.675C19.4049 360.637 19.6928 360.524 20.2311 360.324C20.7694 360.124 21.5706 359.898 22.5596 359.673C24.5501 359.21 27.4043 358.884 30.534 359.11C33.6637 359.348 36.4303 360.111 38.3207 360.875C39.2721 361.25 40.0232 361.601 40.524 361.876C41.0497 362.164 41.3126 362.327 41.3001 362.352Z" fill="#E0E0E0"/>
<path d="M59.1261 350.884C58.9884 350.922 57.9744 347.417 56.8727 343.06C55.7711 338.704 54.9824 335.148 55.1201 335.111C55.2578 335.073 56.2718 338.578 57.3735 342.935C58.4876 347.291 59.2638 350.847 59.1261 350.884Z" fill="#E0E0E0"/>
<path d="M59.2753 350.884C59.125 350.934 58.4741 348.593 56.784 346.202C55.1316 343.76 53.0284 342.534 53.1035 342.408C53.1286 342.358 53.7169 342.571 54.5181 343.135C55.3319 343.698 56.3334 344.662 57.1971 345.901C58.9623 348.392 59.4004 350.871 59.2753 350.884Z" fill="#E0E0E0"/>
<path d="M59.1633 453.988C59.1132 454.001 59.0005 453.124 58.5999 451.597C58.1993 450.07 57.4482 447.904 56.1963 445.375C53.7051 440.293 49.1858 433.858 43.4397 427.411C40.598 424.156 37.8314 421.089 35.4903 418.147C33.1368 415.218 31.2089 412.414 29.8068 409.947C28.3922 407.481 27.4784 405.353 26.9401 403.863C26.6772 403.112 26.4769 402.524 26.3767 402.123C26.264 401.723 26.214 401.51 26.2265 401.497C26.2766 401.485 26.5395 402.323 27.1278 403.788C27.7162 405.253 28.6802 407.331 30.1323 409.76C31.572 412.188 33.5249 414.942 35.8784 417.847C38.2319 420.751 40.9986 423.806 43.8529 427.06C49.6115 433.533 54.1307 440.055 56.5469 445.213C57.7612 447.791 58.4747 449.995 58.8127 451.547C58.9755 452.323 59.0882 452.937 59.1257 453.35C59.1633 453.763 59.1883 453.988 59.1633 453.988Z" fill="#E0E0E0"/>
<path d="M87.5692 421.902C87.5817 421.939 87.0434 422.215 86.0795 422.741C85.128 423.279 83.776 424.105 82.2237 425.294C80.6714 426.484 78.9313 428.048 77.1536 429.914C75.3759 431.792 73.5357 433.982 71.6704 436.323C67.9273 441.018 64.4346 445.174 62.3314 448.492C61.2673 450.132 60.4912 451.521 59.9904 452.498C59.4771 453.474 59.2143 454.012 59.1767 454C59.1642 453.987 59.2143 453.85 59.3144 453.574C59.4271 453.311 59.5773 452.898 59.8151 452.41C60.2658 451.408 60.9919 449.981 62.031 448.304C64.0715 444.911 67.5392 440.692 71.2698 436.01C73.1476 433.669 75.0004 431.479 76.8156 429.601C78.6308 427.723 80.4085 426.171 82.0109 425.006C83.6133 423.842 85.0028 423.053 86.0043 422.565C86.4926 422.315 86.9057 422.165 87.1686 422.052C87.4189 421.927 87.5692 421.877 87.5692 421.902Z" fill="#E0E0E0"/>
<path d="M88.1311 432.306C88.1436 432.381 86.9293 432.531 84.9889 432.769C83.0485 433.02 80.3569 433.345 77.5277 434.234C74.711 435.148 72.37 436.55 70.8427 437.739C69.3029 438.929 68.5768 439.917 68.5017 439.855C68.4767 439.842 68.6269 439.567 68.9649 439.129C69.3029 438.691 69.8537 438.102 70.6048 437.451C72.1071 436.162 74.4731 434.672 77.365 433.733C80.2568 432.819 82.9984 432.556 84.9513 432.394C86.9042 432.256 88.1186 432.244 88.1311 432.306Z" fill="#E0E0E0"/>
<path d="M69.4152 438.715C69.2525 438.628 70.6671 436.462 71.7687 433.545C72.7953 430.603 73.0456 428.024 73.2334 428.062C73.296 428.074 73.296 428.713 73.1833 429.752C73.0582 430.779 72.8078 432.218 72.2695 433.733C71.7187 435.248 70.9926 436.5 70.4417 437.376C69.8659 438.24 69.4778 438.753 69.4152 438.715Z" fill="#E0E0E0"/>
<path d="M96.7696 393.961C96.7822 393.974 96.6069 394.074 96.2689 394.224C95.8808 394.399 95.3926 394.624 94.7917 394.9C94.1407 395.175 93.352 395.526 92.4757 396.002C91.5869 396.465 90.5478 396.928 89.4712 397.579C88.9204 397.892 88.3445 398.217 87.7561 398.555C87.1552 398.893 86.5669 399.307 85.9409 399.695C84.6765 400.458 83.4122 401.41 82.0601 402.374C79.4062 404.389 76.627 406.768 73.948 409.509C71.294 412.288 69.0156 415.143 67.0877 417.859C66.1739 419.249 65.2725 420.538 64.5464 421.84C64.1709 422.479 63.7953 423.08 63.4698 423.693C63.1568 424.294 62.8439 424.882 62.5559 425.446C61.9425 426.547 61.5044 427.599 61.0787 428.5C60.6406 429.402 60.3151 430.203 60.0647 430.854C59.8143 431.467 59.6015 431.955 59.4388 432.356C59.2886 432.694 59.2009 432.869 59.1884 432.869C59.1759 432.869 59.226 432.681 59.3386 432.318C59.4763 431.918 59.6516 431.405 59.8644 430.779C60.0898 430.103 60.3902 429.301 60.8033 428.375C61.2039 427.461 61.6296 426.385 62.2179 425.27C62.5059 424.707 62.8063 424.106 63.1068 423.493C63.4197 422.879 63.7953 422.266 64.1709 421.615C64.8844 420.3 65.7733 418.986 66.6871 417.584C68.6025 414.83 70.8934 411.938 73.5599 409.146C76.264 406.38 79.0807 403.989 81.7597 401.986C83.1367 401.022 84.4136 400.083 85.7031 399.332C86.3415 398.943 86.9424 398.543 87.5433 398.205C88.1442 397.879 88.7326 397.554 89.2834 397.253C90.3851 396.628 91.4367 396.164 92.338 395.739C93.2394 395.301 94.0406 394.963 94.704 394.712C95.3175 394.474 95.8182 394.286 96.2188 394.124C96.5819 393.999 96.7696 393.936 96.7696 393.961Z" fill="#E0E0E0"/>
<path d="M74.2853 409.021C74.2352 409.008 74.4856 408.145 75.5247 407.181C76.5262 406.217 78.3664 405.328 80.5071 405.265C82.6353 405.203 84.4881 405.804 85.7525 406.292C87.0168 406.793 87.7555 407.193 87.7304 407.256C87.7054 407.331 86.9167 407.043 85.6273 406.642C84.3504 406.254 82.5477 405.741 80.5196 405.791C78.5041 405.854 76.764 406.63 75.7625 407.456C74.736 408.282 74.3729 409.071 74.2853 409.021Z" fill="#E0E0E0"/>
<path d="M70.9313 412.488C70.7936 412.413 72.058 410.548 72.346 407.881C72.684 405.227 71.8702 403.124 72.033 403.074C72.0956 403.049 72.371 403.537 72.6214 404.414C72.8717 405.29 73.0345 406.554 72.8717 407.931C72.709 409.321 72.2583 410.51 71.8202 411.299C71.3695 412.113 70.9814 412.526 70.9313 412.488Z" fill="#E0E0E0"/>
<path d="M34.3262 459.132C35.1023 472.878 39.246 486.861 45.6181 500.995H73.322C79.3936 486.999 83.2494 473.041 83.9379 459.132H34.3262Z" fill="#E0E0E0"/>
<path d="M79.4446 481.38C79.4446 481.518 70.3184 481.643 59.0641 481.643C47.8097 481.643 38.6836 481.53 38.6836 481.38C38.6836 481.242 47.8097 481.117 59.0641 481.117C70.3184 481.13 79.4446 481.242 79.4446 481.38Z" fill="#FAFAFA"/>
<path d="M78.8312 486.362C78.8312 486.5 70.2809 486.625 59.7276 486.625C49.1743 486.625 40.624 486.512 40.624 486.362C40.624 486.224 49.1743 486.099 59.7276 486.099C70.2809 486.099 78.8312 486.224 78.8312 486.362Z" fill="#FAFAFA"/>
<path d="M46.0568 468.159C46.1945 468.159 46.3197 471.013 46.3197 474.543C46.3197 478.074 46.2071 480.928 46.0568 480.928C45.9191 480.928 45.7939 478.074 45.7939 474.543C45.7939 471.025 45.9191 468.159 46.0568 468.159Z" fill="#FAFAFA"/>
<path d="M60.9035 468.159C61.0412 468.159 61.1664 471.113 61.1664 474.769C61.1664 478.424 61.0537 481.378 60.9035 481.378C60.7658 481.378 60.6406 478.424 60.6406 474.769C60.6406 471.126 60.7533 468.159 60.9035 468.159Z" fill="#FAFAFA"/>
<path d="M74.8371 468.047C74.9748 468.047 75.1 471.064 75.1 474.782C75.1 478.5 74.9873 481.53 74.8371 481.53C74.6994 481.53 74.5742 478.513 74.5742 474.782C74.5742 471.076 74.6994 468.047 74.8371 468.047Z" fill="#FAFAFA"/>
<path d="M83.0612 468.159C83.0612 468.297 72.3576 468.422 59.1629 468.422C45.9556 468.422 35.2646 468.309 35.2646 468.159C35.2646 468.021 45.9682 467.896 59.1629 467.896C72.3576 467.909 83.0612 468.021 83.0612 468.159Z" fill="#FAFAFA"/>
<ellipse cx="346.955" cy="223.686" rx="4.16762" ry="6.25143" fill="#13ACAC"/>
<path d="M208.53 78.4037H137.702C135.807 78.4037 134.273 76.8702 134.273 74.9752V4.14685C134.273 2.25177 135.807 0.718262 137.702 0.718262H208.543C210.438 0.718262 211.971 2.25177 211.971 4.14685V74.9876C211.959 76.8702 210.425 78.4037 208.53 78.4037Z" fill="#F0F0F0"/>
<path d="M195.812 19.894H195.713C193.082 19.894 190.95 20.0561 190.95 20.2681C190.95 20.4676 192.82 20.6172 195.214 20.6421C194.977 20.8914 194.628 21.2655 194.192 21.7517C193.232 22.8364 191.96 24.2577 190.414 25.9907C187.222 29.6686 182.896 34.6432 177.984 40.3035C176.288 39.1689 174.53 37.997 172.735 36.8001C171.8 36.1767 170.89 35.5658 170.017 34.9923L169.743 34.8053L169.531 35.0546C163.983 41.5502 159.07 47.3476 155.567 51.5368C153.884 53.569 152.5 55.2396 151.465 56.4989C150.518 57.6708 150.007 58.3441 150.044 58.369C150.081 58.4064 150.655 57.7955 151.677 56.6734C152.762 55.4516 154.208 53.8308 155.954 51.8609C159.507 47.809 164.407 42.1611 169.88 35.7902C170.665 36.3138 171.488 36.8624 172.323 37.4235C174.219 38.6827 176.064 39.917 177.847 41.1014L178.121 41.2884L178.333 41.0391C183.258 35.2167 187.596 30.0925 190.788 26.3148C192.272 24.5195 193.481 23.0483 194.391 21.9387C194.852 21.3652 195.177 20.9413 195.388 20.667C195.401 20.667 195.426 20.667 195.438 20.667C195.463 23.0733 195.613 24.9683 195.812 24.9683C196.012 24.9683 196.186 22.8863 196.186 20.293V19.919H195.812V19.894Z" fill="#E0E0E0"/>
<path d="M392.638 52.5712H430.639C430.639 73.417 413.484 90.5724 392.638 90.5724C371.792 90.5724 354.637 73.417 354.637 52.5712C354.637 32.0496 371.256 15.0563 391.765 14.5825L392.638 52.5712Z" fill="#F0F0F0"/>
<path d="M402.874 43.3073L402.014 5.30615C411.913 5.30615 422.286 9.1711 429.38 16.0781C436.474 22.9852 440.601 32.8346 440.863 42.7214L402.874 43.3073Z" fill="#EBEBEB"/>
<path d="M408.112 209.002C407.887 215.972 408.299 237.279 408.299 237.279L414.583 230.995H449.629C450.863 230.995 451.861 229.998 451.861 228.763V209.065C451.861 207.83 450.863 206.833 449.629 206.833H410.344C409.134 206.833 408.149 207.793 408.112 209.002Z" fill="#EBEBEB"/>
<path d="M426.04 218.952C426.04 219.862 425.305 220.598 424.395 220.598C423.485 220.598 422.749 219.862 422.749 218.952C422.749 218.042 423.485 217.306 424.395 217.306C425.305 217.306 426.04 218.042 426.04 218.952Z" fill="#E0E0E0"/>
<path d="M431.601 218.952C431.601 219.862 430.865 220.598 429.955 220.598C429.045 220.598 428.31 219.862 428.31 218.952C428.31 218.042 429.045 217.307 429.955 217.307C430.853 217.307 431.601 218.042 431.601 218.952Z" fill="#E0E0E0"/>
<path d="M437.149 218.952C437.149 219.862 436.413 220.598 435.503 220.598C434.593 220.598 433.857 219.862 433.857 218.952C433.857 218.042 434.593 217.307 435.503 217.307C436.413 217.307 437.149 218.042 437.149 218.952Z" fill="#E0E0E0"/>
<path d="M516.556 319.813C515.621 307.67 506.694 288.894 495.735 283.595C484.776 278.296 471.024 279.281 460.938 286.101C454.056 290.739 448.857 297.808 441.326 301.299C426.452 308.206 408.811 298.419 398.425 285.74C388.04 273.048 381.532 257.301 369.775 245.868C358.479 234.872 342.645 228.663 326.886 229.062C311.115 229.461 295.618 236.443 284.883 248C276.891 256.603 271.655 267.325 265.234 277.162C258.826 286.999 250.572 296.437 239.414 300.115C224.091 305.164 206.786 297.746 195.939 285.789C185.093 273.833 179.47 258.136 174.769 242.701C170.069 227.254 165.93 211.358 157.302 197.718C148.675 184.079 134.462 172.796 118.329 172.359V319.352L516.556 319.813Z" fill="#F0F0F0"/>
<path d="M547 504.396C547 504.571 430.603 504.721 287.051 504.721C143.462 504.721 27.0898 504.571 27.0898 504.396C27.0898 504.222 143.462 504.072 287.064 504.072C430.615 504.072 547 504.209 547 504.396Z" fill="#263238"/>
<path d="M448.318 190.849C448.318 190.824 448.58 190.849 449.066 190.699C449.527 190.549 450.251 190.125 450.587 189.203C450.774 188.754 450.724 188.193 450.724 187.582C450.724 186.971 450.712 186.298 450.712 185.575C450.699 184.116 450.687 182.445 450.687 180.563C450.662 172.995 450.625 162.086 450.587 148.608C450.575 141.863 450.562 134.47 450.55 126.541C450.55 122.576 450.537 118.474 450.537 114.248C450.537 112.141 450.537 109.996 450.525 107.815C450.512 106.755 450.562 105.583 450.488 104.585C450.338 103.625 449.453 102.815 448.468 102.778C430.627 102.778 411.028 102.79 390.456 102.79C389.309 102.765 388.287 103.763 388.287 104.897C388.287 106.169 388.287 107.441 388.287 108.712C388.287 111.256 388.287 113.774 388.287 116.292C388.287 121.304 388.287 126.242 388.287 131.104C388.274 140.816 388.274 150.179 388.262 159.094C388.249 168.008 388.237 176.486 388.237 184.428C388.237 185.425 388.237 186.398 388.237 187.383C388.249 187.856 388.212 188.38 388.274 188.791C388.349 189.215 388.561 189.614 388.848 189.926C389.147 190.238 389.521 190.462 389.945 190.562C390.344 190.662 390.818 190.612 391.291 190.624C392.227 190.624 393.162 190.624 394.084 190.624C397.762 190.637 401.303 190.637 404.669 190.649C418.147 190.687 429.056 190.724 436.624 190.749C440.376 190.774 443.306 190.799 445.313 190.811C446.286 190.824 447.034 190.836 447.57 190.849C448.056 190.824 448.318 190.849 448.318 190.849C448.318 190.849 448.056 190.874 447.545 190.886C447.009 190.898 446.261 190.898 445.289 190.923C443.281 190.936 440.351 190.961 436.599 190.986C429.031 191.011 418.122 191.048 404.644 191.085C401.265 191.098 397.737 191.098 394.059 191.11C393.137 191.11 392.214 191.11 391.267 191.11C390.805 191.098 390.331 191.16 389.795 191.036C389.284 190.911 388.81 190.649 388.449 190.263C388.087 189.876 387.825 189.39 387.726 188.866C387.638 188.318 387.688 187.856 387.676 187.37C387.676 186.398 387.676 185.413 387.676 184.415C387.663 176.486 387.651 168.008 387.651 159.081C387.651 150.154 387.638 140.791 387.626 131.091C387.626 126.242 387.626 121.292 387.626 116.28C387.626 113.774 387.626 111.243 387.626 108.7C387.626 107.428 387.626 106.144 387.626 104.86C387.626 103.389 388.972 102.079 390.444 102.129C411.04 102.142 430.652 102.154 448.505 102.167C449.764 102.229 450.886 103.251 451.073 104.473C451.161 105.67 451.098 106.692 451.111 107.802C451.111 109.971 451.111 112.116 451.098 114.235C451.098 118.462 451.086 122.564 451.086 126.528C451.073 134.458 451.061 141.851 451.049 148.596C451.011 162.073 450.974 172.983 450.949 180.55C450.936 182.433 450.924 184.104 450.924 185.562C450.924 186.285 450.911 186.959 450.911 187.57C450.899 188.168 450.949 188.754 450.737 189.24C450.35 190.213 449.59 190.624 449.104 190.761C448.58 190.898 448.318 190.849 448.318 190.849Z" fill="#263238"/>
<path d="M423.484 119.895C415.006 118.013 405.692 122.626 403.311 131.353C401.017 139.744 406.565 149.543 414.981 151.825C423.222 154.056 432.622 148.994 435.34 140.915C438.37 131.951 432.61 122.289 423.945 119.434C422.935 119.097 422.536 120.643 423.509 121.005C430.902 123.71 436.213 131.689 434.006 139.681C431.912 147.286 422.997 152.373 415.38 150.353C408.061 148.408 403.336 140.554 404.271 133.235C405.406 124.271 414.893 118.91 423.346 120.369C423.658 120.431 423.795 119.97 423.484 119.895Z" fill="#263238"/>
<path d="M415.043 151.577C423.708 154.245 433.682 149.258 436.276 140.318C438.919 131.205 433.034 121.368 424.157 118.65C422.113 118.026 421.377 121.043 423.284 121.791C430.802 124.734 435.777 132.875 432.81 140.867C430.167 147.973 422.374 151.402 415.168 150.592C414.607 150.529 414.532 151.414 415.043 151.577Z" fill="#13ACAC"/>
<path d="M436.712 166.487C436.712 166.662 428.995 166.811 419.482 166.811C409.957 166.811 402.252 166.662 402.252 166.487C402.252 166.313 409.969 166.163 419.482 166.163C428.995 166.163 436.712 166.3 436.712 166.487Z" fill="#13ACAC"/>
<path d="M436.712 171.711C436.712 171.886 428.995 172.036 419.482 172.036C409.957 172.036 402.252 171.886 402.252 171.711C402.252 171.537 409.969 171.387 419.482 171.387C428.995 171.387 436.712 171.537 436.712 171.711Z" fill="#13ACAC"/>
<path d="M201.773 48.2061V163.481C201.773 166.037 203.856 168.119 206.411 168.119H359.962C362.518 168.119 364.6 166.037 364.6 163.481V44.1915C364.6 41.5858 362.456 39.4913 359.837 39.5536L206.287 43.5557C203.768 43.6305 201.773 45.6877 201.773 48.2061Z" fill="#E0E0E0"/>
<path d="M350.886 68.3793C350.823 68.504 348.928 67.3944 345.201 66.2224C341.51 65.0754 335.8 63.9658 328.905 65.0131C325.489 65.5617 321.774 66.5965 318.158 68.4666C314.518 70.2869 311.039 73.0048 307.598 76.0594C304.132 79.1139 300.691 82.5924 296.727 85.7965C292.762 88.9508 288.211 91.9431 282.85 93.302C280.195 93.9877 277.414 94.1623 274.746 93.7883C272.078 93.4267 269.56 92.554 267.241 91.4693C262.59 89.275 258.613 86.395 254.673 83.9887C250.759 81.5326 246.831 79.6001 242.842 78.69C238.89 77.73 235.05 77.5305 231.596 77.8297C224.639 78.4407 219.378 80.8968 216.061 82.8916C212.733 84.9238 211.162 86.4573 211.074 86.3576C211.049 86.3326 211.436 85.9461 212.196 85.248C212.957 84.5373 214.154 83.5773 215.812 82.4926C219.091 80.3607 224.402 77.7175 231.509 76.982C235.037 76.6204 238.989 76.77 243.066 77.7175C247.18 78.6027 251.282 80.5976 255.235 83.0412C259.224 85.4474 263.214 88.29 267.727 90.3971C272.203 92.554 277.452 93.514 282.539 92.1301C287.625 90.8334 292.064 87.9534 295.966 84.8739C299.868 81.7321 303.322 78.291 306.838 75.224C310.341 72.157 313.907 69.4141 317.685 67.5689C321.437 65.6863 325.252 64.664 328.756 64.1653C335.837 63.2053 341.622 64.477 345.313 65.7736C347.183 66.4219 348.567 67.0827 349.489 67.5689C350.437 68.0676 350.911 68.3419 350.886 68.3793Z" fill="#455A64"/>
<path d="M253.053 95.4595H238.029V136.079H253.053V95.4595Z" fill="#455A64"/>
<path d="M316.787 95.4595H301.764V136.079H316.787V95.4595Z" fill="#455A64"/>
<path d="M338.032 71.5962H323.009V136.066H338.032V71.5962Z" fill="#455A64"/>
<path d="M233.628 123.288H218.604V136.952H233.628V123.288Z" fill="#455A64"/>
<path d="M274.298 113.798H259.274V136.078H274.298V113.798Z" fill="#455A64"/>
<path d="M295.542 108.687H280.519V136.078H295.542V108.687Z" fill="#455A64"/>
<path d="M253.664 140.865C253.664 141.202 250.036 141.463 245.548 141.463C241.06 141.463 237.432 141.189 237.432 140.865C237.432 140.528 241.06 140.267 245.548 140.267C250.024 140.254 253.664 140.528 253.664 140.865Z" fill="#263238"/>
<path d="M234.975 140.865C234.975 141.202 231.347 141.464 226.859 141.464C222.37 141.464 218.742 141.19 218.742 140.865C218.742 140.529 222.37 140.267 226.859 140.267C231.334 140.255 234.975 140.529 234.975 140.865Z" fill="#263238"/>
<path d="M340.987 140.865C340.987 141.202 336.885 141.463 331.811 141.463C326.749 141.463 322.635 141.189 322.635 140.865C322.635 140.528 326.737 140.267 331.811 140.267C336.885 140.254 340.987 140.528 340.987 140.865Z" fill="#263238"/>
<path d="M309.506 141.463C314.574 141.463 318.682 141.195 318.682 140.865C318.682 140.534 314.574 140.266 309.506 140.266C304.438 140.266 300.33 140.534 300.33 140.865C300.33 141.195 304.438 141.463 309.506 141.463Z" fill="#263238"/>
<path d="M295.542 140.865C295.542 141.202 291.914 141.463 287.426 141.463C282.95 141.463 279.31 141.189 279.31 140.865C279.31 140.528 282.938 140.267 287.426 140.267C291.914 140.254 295.542 140.528 295.542 140.865Z" fill="#263238"/>
<path d="M273.586 140.865C273.586 141.202 269.958 141.463 265.47 141.463C260.994 141.463 257.354 141.189 257.354 140.865C257.354 140.528 260.982 140.267 265.47 140.267C269.958 140.254 273.586 140.528 273.586 140.865Z" fill="#263238"/>
<path d="M322.547 191.496C322.547 191.496 322.634 191.484 322.809 191.496C322.983 191.509 323.232 191.559 323.544 191.708C323.843 191.858 324.192 192.145 324.442 192.594C324.716 193.042 324.704 193.666 324.704 194.314C324.716 196.957 324.741 200.835 324.766 205.809C324.778 210.809 324.803 216.918 324.816 224.012C324.828 227.565 324.828 231.355 324.841 235.382C324.841 236.392 324.841 237.414 324.841 238.449C324.841 238.973 324.841 239.484 324.841 240.008C324.853 240.506 324.853 241.155 324.542 241.653C324.255 242.165 323.756 242.564 323.183 242.726C322.584 242.888 322.048 242.788 321.499 242.825C320.415 242.825 319.305 242.825 318.183 242.825L318.42 242.589C318.42 246.179 318.432 250.069 318.432 254.084V254.744L317.996 254.246C314.792 250.63 311.363 246.765 307.81 242.763L308.01 242.85C277.988 242.863 241.857 242.888 203.008 242.9C201.374 242.9 199.741 242.9 198.108 242.9H195.677C195.253 242.9 194.891 242.913 194.43 242.888C193.969 242.838 193.507 242.663 193.146 242.364C192.784 242.065 192.51 241.666 192.36 241.23C192.298 241.005 192.248 240.781 192.248 240.544V239.933V237.514C192.248 235.906 192.248 234.31 192.248 232.714C192.248 226.331 192.248 220.047 192.248 213.876C192.248 207.704 192.248 201.633 192.261 195.698V193.466C192.285 192.618 192.809 191.808 193.57 191.434C193.944 191.235 194.392 191.16 194.779 191.172H195.876H198.058C200.963 191.172 203.83 191.172 206.673 191.172C229.364 191.197 249.798 191.222 266.966 191.247C284.122 191.297 297.998 191.322 307.623 191.347C312.411 191.372 316.126 191.397 318.669 191.409C319.916 191.422 320.876 191.434 321.549 191.447C322.223 191.471 322.547 191.496 322.547 191.496C322.547 191.496 322.21 191.521 321.562 191.534C320.901 191.546 319.941 191.546 318.682 191.571C316.138 191.584 312.411 191.609 307.635 191.634C298.023 191.658 284.134 191.696 266.979 191.733C249.811 191.758 229.376 191.783 206.686 191.808C203.843 191.808 200.975 191.808 198.07 191.808H195.889H194.791C194.442 191.796 194.156 191.858 193.869 192.008C193.308 192.294 192.909 192.88 192.896 193.516V195.723C192.896 201.657 192.896 207.729 192.909 213.901C192.909 220.072 192.909 226.356 192.909 232.739C192.909 234.335 192.909 235.931 192.909 237.539V239.958C192.909 240.382 192.884 240.743 192.996 241.055C193.096 241.379 193.295 241.666 193.57 241.89C193.831 242.102 194.168 242.239 194.505 242.277C194.841 242.289 195.303 242.277 195.689 242.289H198.12C199.754 242.289 201.374 242.289 203.02 242.289C241.869 242.314 278 242.327 308.022 242.339H308.147L308.221 242.426C311.762 246.441 315.178 250.318 318.383 253.934L317.946 254.096C317.946 250.069 317.959 246.192 317.959 242.601V242.364H318.196C319.318 242.364 320.415 242.364 321.512 242.364C322.048 242.339 322.621 242.426 323.07 242.289C323.532 242.152 323.931 241.84 324.167 241.429C324.429 241.005 324.429 240.544 324.417 240.008C324.417 239.484 324.417 238.96 324.417 238.449C324.417 237.414 324.417 236.392 324.417 235.382C324.429 231.355 324.429 227.565 324.442 224.012C324.467 216.918 324.479 210.809 324.492 205.809C324.517 200.835 324.542 196.957 324.554 194.314C324.566 193.653 324.591 193.08 324.342 192.643C324.118 192.207 323.793 191.933 323.507 191.771C322.921 191.459 322.547 191.521 322.547 191.496Z" fill="#263238"/>
<path d="M199.267 233.55C200.314 229.897 201.536 226.169 203.967 223.264C206.398 220.347 210.35 218.389 214.028 219.337C219.838 220.833 222.656 228.575 228.603 229.373C231.894 229.809 235.098 227.84 237.218 225.296C239.337 222.74 240.646 219.636 242.267 216.743C244.698 212.405 248.04 208.378 252.516 206.196C256.991 204.014 262.739 204.002 266.654 207.081C273.361 212.367 272.426 224.025 279.583 228.7C283.011 230.932 287.824 230.794 291.103 228.363C294.27 226.019 295.903 221.942 299.232 219.835C303.097 217.392 308.47 218.352 311.961 221.294C315.452 224.236 317.285 228.762 317.958 233.288" fill="#13ACAC"/>
<path d="M315.551 212.592C315.551 212.604 315.451 212.567 315.264 212.48C315.04 212.38 314.766 212.255 314.442 212.093C313.706 211.794 312.609 211.333 311.125 210.971C308.195 210.248 303.682 209.974 298.408 211.345C295.778 212.018 292.985 213.091 290.092 214.437C287.187 215.784 284.183 217.429 280.979 219.087C277.774 220.746 274.346 222.441 270.593 223.688C266.853 224.947 262.726 225.72 258.5 225.371C254.285 225.047 250.308 223.85 246.655 222.379C242.99 220.908 239.599 219.162 236.382 217.554C229.974 214.262 223.977 211.632 218.578 210.834C213.205 209.961 208.741 210.709 205.911 211.757C203.044 212.791 201.735 213.926 201.685 213.839C201.672 213.826 201.76 213.764 201.922 213.639C202.121 213.502 202.37 213.327 202.67 213.103C203.355 212.679 204.378 212.056 205.824 211.52C208.667 210.385 213.192 209.55 218.653 210.373C224.139 211.133 230.223 213.751 236.656 217.018C239.885 218.626 243.264 220.347 246.892 221.793C250.52 223.239 254.435 224.411 258.549 224.723C262.664 225.059 266.691 224.311 270.394 223.077C274.096 221.843 277.5 220.185 280.704 218.539C283.908 216.893 286.938 215.26 289.868 213.926C292.798 212.579 295.628 211.532 298.296 210.871C303.645 209.55 308.233 209.886 311.188 210.697C314.155 211.557 315.551 212.592 315.551 212.592Z" fill="#263238"/>
<path d="M259.921 204.638C259.921 205.361 259.335 205.947 258.612 205.947C257.889 205.947 257.303 205.361 257.303 204.638C257.303 203.915 257.889 203.329 258.612 203.329C259.335 203.329 259.921 203.915 259.921 204.638Z" fill="#455A64"/>
<path d="M212.943 210.186C212.943 210.909 212.357 211.495 211.634 211.495C210.911 211.495 210.325 210.909 210.325 210.186C210.325 209.463 210.911 208.877 211.634 208.877C212.357 208.877 212.943 209.463 212.943 210.186Z" fill="#455A64"/>
<path d="M306.413 210.186C306.413 210.909 305.827 211.495 305.104 211.495C304.381 211.495 303.795 210.909 303.795 210.186C303.795 209.463 304.381 208.877 305.104 208.877C305.827 208.877 306.413 209.463 306.413 210.186Z" fill="#455A64"/>
<path d="M394.971 395.069C401.167 395.069 405.531 395.069 406.665 395.069C412.113 395.069 423.796 380.731 360.398 382.377C318.731 383.449 316.001 389.595 318.108 393.199C319.093 394.882 321.038 395.779 322.983 395.63C323.993 395.555 325.352 395.542 326.935 395.542L325.938 399.943L302.735 502.452L306.775 502.103L323.905 445.662L356.583 444.415L358.453 504.409H363.577L364.811 444.104H364.974L368.427 443.967L397.402 442.857L414.57 504.409H419.494L394.971 395.069ZM326.336 437.633L337.769 399.943L339.066 395.68C343.866 395.68 349.464 395.567 355.062 395.567L356.346 436.698L326.336 437.633ZM369.437 436.286L368.165 436.324L364.974 436.424L365.821 395.069C372.155 395.069 378.414 395.069 384.086 395.069L395.345 435.464L369.437 436.286Z" fill="#455A64"/>
<path d="M290.554 497.353V484.1L314.292 483.938L314.492 503.749L313.021 503.861C306.475 504.285 279.695 505.108 275.306 503.749C270.406 502.24 290.554 497.353 290.554 497.353Z" fill="#13ACAC"/>
<path d="M274.746 502.54C274.746 502.764 283.623 502.939 294.582 502.939C305.541 502.939 314.418 502.752 314.418 502.54C314.418 502.315 305.541 502.141 294.582 502.141C283.623 502.128 274.746 502.315 274.746 502.54Z" fill="#263238"/>
<path d="M290.143 500.058C290.342 499.959 290.168 499.26 289.656 498.562C289.145 497.864 288.522 497.502 288.372 497.652C288.21 497.814 288.534 498.4 289.008 499.036C289.482 499.672 289.943 500.158 290.143 500.058Z" fill="#263238"/>
<path d="M288.623 500.931C288.835 500.856 288.722 500.07 288.261 499.247C287.8 498.412 287.176 497.926 287.002 498.063C286.827 498.2 287.127 498.873 287.55 499.646C287.987 500.407 288.411 501.005 288.623 500.931Z" fill="#263238"/>
<path d="M307.262 502.452C307.35 502.515 307.711 502.166 308.222 501.58C308.733 501.006 309.419 500.183 310.304 499.498C311.19 498.812 312.15 498.463 312.873 498.375C313.596 498.276 314.07 498.388 314.107 498.276C314.144 498.188 313.708 497.864 312.848 497.802C312 497.74 310.816 498.064 309.806 498.849C308.808 499.635 308.16 500.57 307.761 501.243C307.362 501.929 307.175 502.39 307.262 502.452Z" fill="#263238"/>
<path d="M290.07 497.565C289.957 497.752 290.356 498.213 291.042 498.462C291.715 498.712 292.326 498.624 292.364 498.412C292.401 498.188 291.915 497.926 291.329 497.714C290.718 497.49 290.182 497.378 290.07 497.565Z" fill="#263238"/>
<path d="M290.443 496.28C290.418 496.504 291.054 496.691 291.852 496.703C292.65 496.716 293.286 496.541 293.273 496.317C293.261 496.093 292.625 495.906 291.864 495.893C291.104 495.893 290.456 496.068 290.443 496.28Z" fill="#263238"/>
<path d="M340.674 497.353V484.1L364.412 483.938L364.612 503.749L363.141 503.861C356.595 504.285 329.815 505.108 325.426 503.749C320.526 502.24 340.674 497.353 340.674 497.353Z" fill="#13ACAC"/>
<path d="M324.865 502.539C324.865 502.763 333.742 502.938 344.701 502.938C355.66 502.938 364.537 502.751 364.537 502.539C364.537 502.314 355.66 502.14 344.701 502.14C333.742 502.127 324.865 502.314 324.865 502.539Z" fill="#263238"/>
<path d="M340.265 500.058C340.464 499.959 340.29 499.26 339.779 498.562C339.267 497.864 338.644 497.502 338.494 497.652C338.332 497.814 338.656 498.4 339.13 499.036C339.604 499.672 340.065 500.158 340.265 500.058Z" fill="#263238"/>
<path d="M338.742 500.931C338.954 500.856 338.842 500.07 338.38 499.247C337.919 498.412 337.296 497.926 337.121 498.063C336.946 498.2 337.246 498.873 337.67 499.646C338.106 500.407 338.53 501.005 338.742 500.931Z" fill="#263238"/>
<path d="M357.381 502.451C357.469 502.514 357.83 502.165 358.341 501.579C358.853 501.005 359.538 500.182 360.424 499.497C361.309 498.811 362.269 498.462 362.992 498.374C363.715 498.275 364.189 498.387 364.226 498.275C364.264 498.187 363.827 497.863 362.967 497.801C362.119 497.739 360.935 498.063 359.925 498.848C358.927 499.634 358.279 500.569 357.868 501.242C357.481 501.928 357.294 502.389 357.381 502.451Z" fill="#263238"/>
<path d="M340.189 497.565C340.076 497.752 340.475 498.213 341.161 498.462C341.834 498.712 342.445 498.624 342.483 498.412C342.52 498.188 342.034 497.926 341.448 497.714C340.837 497.49 340.301 497.378 340.189 497.565Z" fill="#263238"/>
<path d="M340.563 496.281C340.538 496.505 341.174 496.692 341.972 496.704C342.77 496.717 343.406 496.542 343.393 496.318C343.381 496.094 342.745 495.907 341.985 495.894C341.224 495.894 340.576 496.069 340.563 496.281Z" fill="#263238"/>
<path d="M408.709 259.622C407.736 259.41 406.515 259.535 405.941 258.712C405.405 257.977 405.779 256.954 406.091 256.094C407.076 253.339 407.225 250.234 406.178 247.516C405.48 245.696 404.208 244.1 402.6 243.015C402.824 242.779 403.036 242.529 403.198 242.242C403.697 241.382 403.872 240.422 403.872 239.525C403.847 237.742 403.273 236.009 402.051 234.974C400.854 233.964 399.034 233.914 398.149 234.924C397.251 235.834 397.314 237.28 398.099 237.829C398.822 238.378 399.608 238.278 399.994 238.066C400.406 237.854 400.468 237.592 400.468 237.592C400.443 237.567 400.318 237.792 399.932 237.954C399.57 238.103 398.847 238.141 398.249 237.642C397.625 237.168 397.6 235.959 398.398 235.186C399.146 234.375 400.705 234.425 401.752 235.335C402.812 236.246 403.335 237.866 403.335 239.525C403.335 240.36 403.148 241.22 402.712 241.956C402.55 242.23 402.338 242.479 402.101 242.704C401.428 242.317 400.717 242.018 399.957 241.831C398.348 241.445 396.59 241.532 395.119 240.771C393.885 240.123 393.012 238.939 392.501 237.629C392.489 237.48 392.476 237.343 392.476 237.193C392.464 235.011 393.162 232.879 393.374 230.722C393.623 228.59 393.598 226.483 393.199 224.526C392.451 220.599 390.008 217.469 387.265 216.173C384.484 214.839 381.816 215.337 380.345 216.048C379.585 216.41 379.061 216.809 378.749 217.108C378.637 217.22 378.562 217.307 378.488 217.382C377.764 217.756 377.104 218.255 376.58 218.903L372.728 253.538L400.904 270.756C403.086 270.544 405.318 270.332 407.325 269.459C409.332 268.586 411.14 266.928 411.614 264.796C412.088 262.652 410.853 260.096 408.709 259.622ZM390.207 223.354C389.135 220.661 387.177 218.205 384.484 217.133C382.677 216.41 380.545 216.447 378.787 217.233C379.123 216.971 379.66 216.609 380.432 216.273C381.891 215.662 384.447 215.263 387.053 216.572C389.634 217.856 391.928 220.848 392.613 224.626C392.975 226.508 392.987 228.553 392.738 230.635C392.588 232.194 392.152 233.765 391.94 235.435C391.766 234.263 391.728 233.054 391.678 231.869C391.554 228.989 391.279 226.047 390.207 223.354Z" fill="#263238"/>
<path d="M381.881 223.318C381.681 222.669 381.345 222.033 380.784 221.647C379.886 221.036 378.502 221.248 377.417 221.497L377.355 213.543L361.808 200.951L353.48 205.277C349.116 207.546 346.398 212.059 346.448 216.972C346.51 223.38 346.672 232.07 347.096 237.007C347.819 245.485 356.397 246.183 356.397 246.183C356.397 246.183 356.771 249.238 357.02 252.28C357.02 252.292 355.138 277.377 363.965 277.153C370.473 276.99 374.849 263.314 376.694 256.12L377.667 252.167V251.968C377.692 251.868 377.704 251.806 377.704 251.806C377.692 251.806 377.679 251.806 377.667 251.806L377.467 228.005L377.742 228.28C378.24 228.828 379.113 228.816 379.799 228.529C380.746 228.142 381.482 227.307 381.843 226.36C382.18 225.362 382.168 224.29 381.881 223.318Z" fill="#FFBE9D"/>
<path d="M348.444 223.167C348.456 223.765 348.955 224.239 349.553 224.227C350.152 224.214 350.625 223.716 350.613 223.117C350.6 222.519 350.102 222.045 349.503 222.057C348.905 222.07 348.431 222.569 348.444 223.167Z" fill="#263238"/>
<path d="M347.371 222.007C347.52 222.145 348.306 221.446 349.465 221.347C350.637 221.234 351.522 221.796 351.647 221.633C351.709 221.559 351.56 221.309 351.161 221.047C350.774 220.798 350.139 220.574 349.403 220.636C348.667 220.698 348.081 221.023 347.745 221.347C347.408 221.671 347.296 221.945 347.371 222.007Z" fill="#263238"/>
<path d="M361.048 222.793C361.061 223.391 361.559 223.865 362.158 223.853C362.756 223.84 363.23 223.342 363.217 222.743C363.205 222.145 362.706 221.671 362.108 221.683C361.509 221.696 361.036 222.195 361.048 222.793Z" fill="#263238"/>
<path d="M360.339 221.633C360.488 221.77 361.274 221.072 362.433 220.972C363.605 220.86 364.49 221.421 364.615 221.259C364.677 221.184 364.528 220.935 364.129 220.673C363.742 220.424 363.107 220.199 362.371 220.262C361.635 220.324 361.049 220.648 360.713 220.972C360.376 221.296 360.276 221.571 360.339 221.633Z" fill="#263238"/>
<path d="M356.348 231.683C356.348 231.757 355.612 231.807 354.428 231.832C354.278 231.832 354.116 231.845 353.917 231.795C353.717 231.757 353.493 231.608 353.405 231.383C353.231 230.934 353.393 230.511 353.493 230.149C353.717 229.364 353.954 228.553 354.203 227.693C355.238 224.214 356.173 221.434 356.31 221.472C356.447 221.509 355.724 224.364 354.69 227.83C354.428 228.678 354.178 229.501 353.941 230.274C353.817 230.648 353.717 230.997 353.792 231.209C353.854 231.421 354.141 231.458 354.44 231.471C355.612 231.533 356.348 231.608 356.348 231.683Z" fill="#263238"/>
<path d="M360.387 232.629C360.474 232.53 357.008 234.711 354.627 234.774C354.627 234.774 356.148 236.856 358.529 235.784C361.01 234.662 360.387 232.629 360.387 232.629Z" fill="#FAFAFA"/>
<path d="M356.386 246.17C356.386 246.17 362.108 246.095 367.532 242.105C367.532 242.105 365.138 248.402 356.61 248.252L356.386 246.17Z" fill="#EB996E"/>
<path d="M345.238 217.992C348.928 218.503 351.658 217.494 355.274 216.583C358.89 215.673 362.331 213.292 363.59 209.776C364.014 212.083 365.099 214.264 366.682 215.997C367.031 216.371 367.679 216.733 367.991 216.322C368.153 216.11 368.091 215.81 368.028 215.549C367.779 214.564 367.53 213.579 367.28 212.594C368.689 214.825 370.148 217.107 372.205 218.765C374.275 220.423 380.558 222.992 379.611 220.523C379.374 219.9 381.481 200.675 363.203 200.388C344.926 200.089 345.238 217.992 345.238 217.992Z" fill="#263238"/>
<path d="M377.631 223.466C377.581 223.416 377.943 223.029 378.728 223.054C379.102 223.079 379.576 223.204 379.975 223.566C380.387 223.915 380.636 224.501 380.636 225.099C380.636 225.71 380.374 226.283 379.963 226.633C379.564 226.982 379.09 227.119 378.716 227.131C377.93 227.156 377.569 226.77 377.619 226.707C377.669 226.62 378.055 226.795 378.666 226.67C379.265 226.57 380.013 226.009 379.988 225.087C380.013 224.164 379.265 223.603 378.666 223.503C378.08 223.379 377.681 223.566 377.631 223.466Z" fill="#EB996E"/>
<path d="M408.035 283.184L411.177 282.548C411.177 282.548 404.332 251.778 380.544 251.778C379.547 251.778 378.599 251.778 377.689 251.778C377.689 251.791 377.677 251.841 377.652 251.94V252.14L376.679 256.092C374.822 263.286 370.458 276.963 363.95 277.125C355.709 277.337 356.794 255.531 356.981 252.589C356.469 252.688 356.382 252.751 356.382 252.751C356.382 252.751 330.512 254.197 319.029 276.876L338.977 291.45L343.865 288.508C343.865 288.508 345.461 320.599 342.718 329.339C339.613 339.226 334.826 350.16 334.826 350.16C356.769 348.452 381.704 349.424 408.297 351.881L390.518 286.725C396.677 286.363 402.363 285.266 408.035 283.184Z" fill="#13ACAC"/>
<path d="M386.629 298.583C386.654 298.608 386.467 298.87 386.081 299.282C385.682 299.693 385.059 300.242 384.198 300.803C382.503 301.925 379.735 303.034 376.556 302.922C373.376 302.81 370.696 301.501 369.088 300.254C368.277 299.631 367.679 299.045 367.317 298.608C366.956 298.172 366.781 297.898 366.818 297.873C366.906 297.798 367.704 298.77 369.362 299.88C370.983 300.99 373.576 302.162 376.593 302.274C379.61 302.386 382.278 301.401 383.974 300.416C385.682 299.406 386.555 298.496 386.629 298.583Z" fill="#263238"/>
<path d="M398.161 315.689C398.124 315.701 397.924 315.153 397.612 314.155C397.276 313.033 396.852 311.612 396.341 309.916C395.281 306.338 393.797 301.388 392.077 295.953C390.356 290.517 388.723 285.617 387.526 282.089C386.965 280.418 386.491 279.009 386.13 277.887C385.806 276.89 385.644 276.329 385.693 276.316C385.731 276.304 385.98 276.827 386.367 277.8C386.766 278.772 387.314 280.181 387.963 281.927C389.272 285.43 390.98 290.305 392.7 295.753C394.421 301.189 395.842 306.164 396.79 309.779C397.263 311.587 397.625 313.058 397.862 314.08C398.099 315.115 398.198 315.676 398.161 315.689Z" fill="#263238"/>
<path d="M390.432 266.491C390.382 266.654 388.923 266.354 387.24 265.631C385.557 264.908 384.335 264.073 384.422 263.923C384.51 263.761 385.856 264.335 387.502 265.033C389.148 265.743 390.494 266.317 390.432 266.491Z" fill="#263238"/>
<path d="M396.566 277.163C396.392 277.114 396.791 275.468 397.439 273.523C398.087 271.566 398.761 270.02 398.923 270.082C399.097 270.144 398.698 271.777 398.05 273.735C397.402 275.68 396.741 277.226 396.566 277.163Z" fill="#263238"/>
<path d="M375.222 284.83C375.06 284.743 375.721 283.322 376.556 281.589C377.391 279.856 378.102 278.459 378.264 278.534C378.426 278.596 377.99 280.117 377.129 281.875C376.294 283.633 375.371 284.93 375.222 284.83Z" fill="#263238"/>
<path d="M371.344 291.601C371.232 291.738 369.886 290.74 368.502 289.207C367.118 287.686 366.27 286.24 366.407 286.14C366.557 286.028 367.629 287.287 368.988 288.783C370.334 290.267 371.469 291.463 371.344 291.601Z" fill="#263238"/>
<path d="M386.841 290.579C386.978 290.679 385.881 292.362 384.173 294.145C382.914 295.467 381.679 296.451 381.093 296.813L380.171 297.374L380.906 296.638C381.081 296.464 381.193 296.377 381.231 296.402C381.268 296.427 381.231 296.564 381.118 296.788L380.931 296.614C381.368 296.077 382.477 294.993 383.712 293.696C385.382 291.951 386.691 290.467 386.841 290.579Z" fill="#263238"/>
<path d="M390.133 312.833C390.07 312.995 388.475 312.459 386.704 311.412C384.934 310.364 383.7 309.23 383.812 309.093C383.924 308.943 385.308 309.828 387.041 310.863C388.774 311.873 390.208 312.658 390.133 312.833Z" fill="#263238"/>
<path d="M374.523 307.747C374.661 307.859 373.838 309.318 372.653 311.026C371.481 312.734 370.409 314.031 370.26 313.931C370.11 313.831 370.945 312.372 372.13 310.652C373.314 308.944 374.386 307.635 374.523 307.747Z" fill="#263238"/>
<path d="M364.274 308.757C364.162 308.894 363.003 308.171 361.669 307.136C360.335 306.102 359.35 305.142 359.462 305.004C359.574 304.867 360.734 305.59 362.068 306.625C363.389 307.648 364.387 308.608 364.274 308.757Z" fill="#263238"/>
<path d="M358.728 293.621C358.828 293.77 357.855 294.643 356.546 295.566C355.237 296.501 354.102 297.137 353.99 296.987C353.878 296.837 354.863 295.965 356.172 295.042C357.481 294.119 358.616 293.484 358.728 293.621Z" fill="#263238"/>
<path d="M356.607 285.878C356.47 285.99 355.56 285.043 354.6 283.759C353.628 282.475 352.967 281.352 353.104 281.253C353.241 281.14 354.151 282.088 355.111 283.372C356.084 284.644 356.757 285.778 356.607 285.878Z" fill="#263238"/>
<path d="M378.836 265.431C378.674 265.344 379.235 263.985 380.096 262.402C380.944 260.806 381.766 259.596 381.928 259.671C382.09 259.759 381.529 261.118 380.669 262.701C379.809 264.297 378.986 265.519 378.836 265.431Z" fill="#263238"/>
<path d="M351.06 266.728C350.96 266.878 349.539 266.167 347.868 265.145C346.197 264.123 344.926 263.163 345.013 263.013C345.113 262.863 346.534 263.574 348.205 264.596C349.875 265.619 351.147 266.566 351.06 266.728Z" fill="#263238"/>
<path d="M336.51 263.001C336.659 263.088 336.198 264.16 335.475 265.369C334.752 266.591 334.041 267.501 333.891 267.414C333.742 267.327 334.203 266.255 334.926 265.045C335.649 263.823 336.36 262.901 336.51 263.001Z" fill="#263238"/>
<path d="M351.633 347.207C351.533 347.356 350.174 346.621 348.616 345.573C347.045 344.526 345.86 343.554 345.96 343.404C346.06 343.254 347.406 343.99 348.977 345.037C350.548 346.085 351.732 347.057 351.633 347.207Z" fill="#263238"/>
<path d="M393.312 342.717C393.449 342.842 392.539 344.039 391.279 345.41C390.02 346.769 388.898 347.779 388.773 347.655C388.636 347.53 389.546 346.333 390.806 344.962C392.052 343.603 393.174 342.593 393.312 342.717Z" fill="#263238"/>
<path d="M364.999 347.379C364.824 347.329 364.961 346.232 364.961 344.886C364.961 343.539 364.824 342.442 364.999 342.392C365.161 342.342 365.61 343.44 365.61 344.886C365.61 346.332 365.161 347.429 364.999 347.379Z" fill="#263238"/>
<path d="M379.723 347.63C379.635 347.779 378.264 347.131 376.681 346.158C375.097 345.198 373.888 344.288 373.975 344.139C374.062 343.989 375.434 344.637 377.017 345.61C378.613 346.57 379.822 347.467 379.723 347.63Z" fill="#263238"/>
<path d="M408.299 351.893C408.299 351.918 408.037 351.906 407.551 351.881C406.989 351.831 406.279 351.781 405.406 351.719C403.461 351.544 400.806 351.307 397.552 351.008C390.919 350.434 381.755 349.612 371.606 349.449C361.445 349.25 352.257 349.512 345.599 349.761C342.333 349.898 339.665 350.011 337.72 350.098C336.847 350.135 336.136 350.16 335.575 350.185C335.089 350.197 334.827 350.198 334.827 350.173C334.827 350.148 335.076 350.11 335.563 350.06C336.124 350.011 336.834 349.936 337.695 349.861C339.552 349.699 342.245 349.512 345.562 349.312C352.219 348.938 361.42 348.614 371.606 348.801C381.78 348.963 390.969 349.861 397.589 350.559C400.905 350.908 403.573 351.232 405.431 351.469C406.291 351.581 407.002 351.681 407.563 351.756C408.049 351.818 408.299 351.868 408.299 351.893Z" fill="#263238"/>
<g opacity="0.2">
<path opacity="0.2" d="M385.682 276.328L391.915 317.783C391.915 317.783 397.688 317.733 398.748 316.062L385.682 276.328Z" fill="black"/>
<path opacity="0.2" d="M385.682 276.328L391.915 317.783C391.915 317.783 397.688 317.733 398.748 316.062L385.682 276.328Z" fill="black"/>
</g>
<path d="M349.49 349.376C334.815 350.511 326.799 349.501 310.666 351.01C299.407 352.493 290.904 361.969 290.643 373.326L287.812 495.272H317.473L322.161 385.944L330.913 387.053C329.791 427.997 334.067 495.272 334.067 495.272L366.994 493.664L365.111 388.662C365.111 388.662 409.409 391.666 408.299 351.895C408.299 351.895 373.415 347.668 349.49 349.376Z" fill="#263238"/>
<path d="M358.366 349.052C358.366 349.101 357.568 349.226 356.122 349.438C354.675 349.65 352.581 349.962 350.013 350.435C347.457 350.959 344.327 351.346 341.223 352.767C339.664 353.465 338.131 354.413 336.747 355.622C335.376 356.856 334.191 358.39 333.356 360.16C331.648 363.713 331.274 367.566 331.236 370.982C331.274 374.423 331.361 377.552 331.336 380.171C331.324 382.789 331.224 384.908 331.124 386.379C331.074 387.115 331.024 387.676 330.987 388.063C330.95 388.449 330.912 388.649 330.887 388.649C330.837 388.649 330.85 387.838 330.875 386.367C330.9 384.908 330.925 382.789 330.887 380.171C330.812 377.515 330.738 374.411 330.65 370.982C330.65 367.516 331.012 363.576 332.782 359.873C333.655 358.028 334.902 356.42 336.336 355.148C337.782 353.876 339.378 352.916 340.986 352.218C344.215 350.772 347.382 350.435 349.95 349.974C352.543 349.563 354.65 349.313 356.109 349.176C356.845 349.101 357.406 349.064 357.792 349.039C358.154 349.039 358.366 349.039 358.366 349.052Z" fill="#455A64"/>
<path d="M319.542 378.3C319.704 378.275 320.29 379.946 321.15 382.003C322.023 384.073 322.347 385.905 322.16 385.943C321.998 385.968 321.412 384.297 320.552 382.24C319.679 380.17 319.343 378.337 319.542 378.3Z" fill="#455A64"/>
<path d="M321.935 375.87C322.085 375.845 322.646 378.065 322.796 380.882C322.945 383.737 322.309 385.982 322.147 385.944C321.96 385.907 322.297 383.675 322.147 380.92C321.998 378.152 321.736 375.895 321.935 375.87Z" fill="#455A64"/>
<path d="M362.855 378.165C363.042 378.115 363.778 380.434 364.301 383.351C364.825 386.269 365.261 388.613 365.099 388.663C364.912 388.712 364.177 386.393 363.653 383.476C363.142 380.559 362.693 378.202 362.855 378.165Z" fill="#455A64"/>
<path d="M365.835 378.139C366.009 378.114 366.408 380.483 366.246 383.438C366.097 386.393 365.436 388.699 365.261 388.662C365.074 388.625 365.448 386.293 365.598 383.401C365.747 380.521 365.648 378.164 365.835 378.139Z" fill="#455A64"/>
<path d="M316.699 488.141C316.699 488.316 310.204 488.465 302.187 488.465C294.17 488.465 287.675 488.316 287.675 488.141C287.675 487.967 294.17 487.817 302.187 487.817C310.204 487.817 316.699 487.967 316.699 488.141Z" fill="#455A64"/>
<path d="M366.582 487.604C366.582 487.779 359.188 487.929 350.074 487.929C340.961 487.929 333.567 487.779 333.567 487.604C333.567 487.43 340.961 487.28 350.074 487.28C359.188 487.28 366.582 487.43 366.582 487.604Z" fill="#455A64"/>
<path d="M404.36 370.147C404.36 370.159 404.223 370.172 403.936 370.184C403.624 370.197 403.213 370.197 402.701 370.222C401.579 370.234 399.984 370.259 397.964 370.272C393.8 370.297 387.865 370.321 380.534 370.359C376.856 370.371 372.829 370.384 368.503 370.396C366.359 370.446 364.114 370.583 361.92 371.157C359.738 371.718 357.581 372.84 356.148 374.735C354.689 376.605 354.14 379.086 354.028 381.58C353.903 384.098 354.165 386.679 354.265 389.335C354.415 394.633 354.564 400.107 354.714 405.717C355.337 428.171 355.861 448.506 356.048 463.217C356.148 470.573 356.185 476.533 356.173 480.647C356.16 482.667 356.148 484.263 356.135 485.385C356.123 485.896 356.11 486.307 356.11 486.619C356.098 486.893 356.085 487.043 356.085 487.043C356.073 487.043 356.06 486.906 356.048 486.619C356.035 486.307 356.023 485.896 356.01 485.385C355.985 484.263 355.961 482.667 355.923 480.647C355.848 476.495 355.736 470.548 355.587 463.217C355.275 448.506 354.676 428.171 354.053 405.717C353.903 400.107 353.754 394.621 353.617 389.335C353.529 386.704 353.255 384.098 353.392 381.517C353.517 378.961 354.09 376.343 355.661 374.336C357.207 372.316 359.514 371.144 361.758 370.571C364.04 369.985 366.309 369.86 368.478 369.823C372.804 369.835 376.831 369.848 380.522 369.86C387.853 369.91 393.8 369.947 397.951 369.985C399.971 370.01 401.567 370.035 402.689 370.047C403.2 370.06 403.612 370.072 403.923 370.085C404.223 370.122 404.36 370.134 404.36 370.147Z" fill="#455A64"/>
<path opacity="0.2" d="M327.384 386.603C327.384 386.603 326.237 371.829 331.772 363.326L330.887 387.039L327.384 386.603Z" fill="black"/>
<path d="M329.777 372.552C329.777 372.565 329.665 372.552 329.44 372.515C329.178 372.465 328.867 372.415 328.468 372.34C327.62 372.191 326.361 371.929 324.728 371.754C323.107 371.592 321.075 371.493 318.83 372.104C317.721 372.415 316.574 372.889 315.526 373.662C314.479 374.423 313.594 375.507 312.971 376.804C311.699 379.422 311.574 382.701 311.499 386.142C311.412 389.608 311.325 393.298 311.225 397.188C311.013 404.968 310.789 413.521 310.552 422.498C310.016 440.438 309.542 456.671 309.193 468.478C308.993 474.325 308.819 479.063 308.707 482.404C308.632 484.013 308.582 485.272 308.545 486.194C308.52 486.593 308.507 486.917 308.482 487.179C308.47 487.404 308.445 487.516 308.445 487.516C308.432 487.516 308.42 487.404 308.42 487.179C308.42 486.917 308.42 486.593 308.42 486.194C308.432 485.272 308.445 484.013 308.47 482.404C308.532 479.063 308.632 474.313 308.744 468.465C309.043 456.659 309.455 440.413 309.916 422.485C310.178 413.508 310.415 404.968 310.639 397.176C310.751 393.286 310.864 389.596 310.976 386.13C311.076 382.701 311.213 379.335 312.572 376.604C313.232 375.258 314.192 374.111 315.302 373.338C316.412 372.552 317.609 372.066 318.756 371.767C321.062 371.181 323.144 371.318 324.765 371.518C326.411 371.742 327.657 372.029 328.493 372.228C328.879 372.328 329.203 372.403 329.453 372.465C329.677 372.503 329.777 372.54 329.777 372.552Z" fill="#455A64"/>
<path d="M327.483 278.51C327.483 278.51 296.164 309.903 290.192 316.935C285.093 322.932 288.422 334.24 292.686 334.726C296.95 335.212 365.97 334.277 365.97 334.277L365.06 320.164C365.06 320.164 320.364 320.363 319.042 319.541C317.733 318.718 344.9 291.252 344.9 291.252L327.483 278.51Z" fill="#FFBE9D"/>
<path d="M410.255 282.612C410.255 282.612 419.768 311.437 420.915 314.853C422.062 318.257 427.972 332.67 416.751 333.879C405.53 335.088 345.299 333.879 345.299 333.879L340.823 319.304C340.823 319.304 399.034 319.155 398.735 316.05C398.436 312.946 389.896 286.901 389.896 286.901L410.255 282.612Z" fill="#FFBE9D"/>
<path d="M283.188 273.621L304.819 333.541L404.397 333.503L403.712 330.573L366.346 329.202L347.944 272.699L283.188 273.621Z" fill="#263238"/>
<path d="M327.571 300.899C327.97 303.118 326.749 305.188 324.853 305.525C322.958 305.861 321.113 304.34 320.714 302.121C320.315 299.902 321.537 297.832 323.432 297.495C325.315 297.159 327.172 298.68 327.571 300.899Z" fill="#FAFAFA"/>
<path d="M455.9 332.231H220.649H218.106H215.55V504.272H220.649V342.368H455.9V504.396H516.031V342.368V332.231H455.9Z" fill="#455A64"/>
<path d="M166.464 497.552V484.673L143.386 484.523L143.199 503.773L144.633 503.873C151.004 504.285 177.024 505.083 181.288 503.761C186.038 502.302 166.464 497.552 166.464 497.552Z" fill="#13ACAC"/>
<path d="M181.836 502.587C181.836 502.799 173.208 502.986 162.561 502.986C151.914 502.986 143.286 502.812 143.286 502.587C143.286 502.375 151.914 502.201 162.561 502.201C173.196 502.201 181.836 502.375 181.836 502.587Z" fill="#263238"/>
<path d="M166.875 500.181C166.688 500.082 166.85 499.396 167.349 498.735C167.848 498.062 168.446 497.7 168.596 497.85C168.745 498 168.434 498.573 167.985 499.196C167.511 499.807 167.062 500.281 166.875 500.181Z" fill="#263238"/>
<path d="M168.348 501.029C168.148 500.954 168.248 500.194 168.709 499.383C169.158 498.573 169.756 498.099 169.931 498.224C170.105 498.361 169.819 499.009 169.395 499.77C168.958 500.518 168.547 501.104 168.348 501.029Z" fill="#263238"/>
<path d="M150.231 502.501C150.144 502.563 149.795 502.227 149.296 501.653C148.798 501.092 148.137 500.294 147.277 499.634C146.416 498.96 145.481 498.624 144.783 498.536C144.085 498.437 143.624 498.549 143.586 498.437C143.549 498.349 143.973 498.025 144.808 497.975C145.631 497.925 146.79 498.237 147.763 498.998C148.735 499.758 149.359 500.668 149.758 501.317C150.132 502.002 150.319 502.451 150.231 502.501Z" fill="#263238"/>
<path d="M166.937 497.763C167.049 497.95 166.65 498.386 165.989 498.636C165.329 498.885 164.743 498.798 164.705 498.586C164.668 498.374 165.142 498.112 165.715 497.9C166.301 497.688 166.825 497.576 166.937 497.763Z" fill="#263238"/>
<path d="M166.576 496.516C166.601 496.728 165.977 496.915 165.204 496.928C164.431 496.94 163.808 496.766 163.82 496.554C163.833 496.342 164.444 496.155 165.192 496.142C165.94 496.13 166.563 496.304 166.576 496.516Z" fill="#263238"/>
<path d="M233.38 113.437L233.592 109.548C233.592 109.548 234.103 107.216 234.078 103.002C234.078 101.905 233.878 100.833 233.504 99.798C233.056 98.5512 232.395 96.9179 231.759 96.145C230.961 95.185 231.759 93.7512 232.856 94.0379C233.953 94.3247 236.197 96.9304 237.22 100.82C238.242 104.71 240.86 98.9502 241.845 96.8681C242.843 94.786 246.209 88.4899 247.094 88.2904C248.391 87.9912 248.939 89.3252 247.904 91.3823C246.857 93.4644 244.177 99.8229 245.299 100.297C245.299 100.297 246.907 99.9102 247.755 100.197C248.042 100.297 248.241 100.459 248.266 100.745C248.378 101.88 248.628 102.541 248.628 102.541C248.628 102.541 250.174 102.042 250.56 102.703C250.947 103.364 251.059 104.872 251.059 104.872C251.059 104.872 252.231 104.349 252.854 104.748C254.201 105.62 252.754 107.453 252.754 107.453C249.475 112.627 242.369 120.532 242.369 120.532L233.305 113.238" fill="#FFBE9D"/>
<path d="M122.543 113.188L122.394 162.921L143.726 163.944L144.336 151.85C144.336 151.85 151.917 153.359 153.874 146.315C155.121 141.814 154.809 107.079 154.809 107.079L122.543 113.188Z" fill="#FFBE9D"/>
<path d="M153.588 99.3498C147.093 101.457 145.534 102.155 142.617 102.392C139.824 102.616 119.938 102.629 118.143 113.775C117.931 113.314 117.719 112.765 117.582 112.142C117.158 110.384 117.52 108.9 117.333 108.85C117.183 108.763 116.485 110.321 116.946 112.291C117.008 112.541 117.071 112.79 117.158 113.014C117.033 112.877 116.909 112.752 116.759 112.615C115.899 111.88 114.951 111.443 114.241 111.269C113.53 111.094 113.069 111.132 113.056 111.207C113.019 111.394 114.764 111.705 116.335 113.102C117.121 113.762 117.657 114.51 118.018 115.096C118.018 115.146 118.006 115.196 118.006 115.246C118.006 115.246 113.754 113.376 114.877 121.081C115.999 128.786 121.036 135.331 121.646 147.948C121.646 147.948 139.276 150.055 142.405 143.273L145.036 135.506C145.036 135.506 140.797 134.82 141.295 131.404C141.981 126.691 145.584 126.567 148.265 128.674L151.357 120.383C151.357 120.383 159.186 115.246 159.635 111.979C160.071 108.701 160.071 97.2553 153.588 99.3498Z" fill="#263238"/>
<path d="M63.52 487.927L60.3906 501.841L81.9346 504.496L82.7076 490.719L63.52 487.927Z" fill="#13ACAC"/>
<path d="M73.2452 488.611C73.4197 488.636 73.108 491.503 72.5345 494.994C71.961 498.498 71.3626 501.303 71.188 501.278C71.0135 501.253 71.3252 498.385 71.8987 494.894C72.4597 491.391 73.0706 488.573 73.2452 488.611Z" fill="#263238"/>
<path d="M82.0228 502.987C81.9978 503.075 80.8134 502.9 78.9059 502.601C76.7614 502.252 74.2305 501.84 71.4378 501.392C68.5204 500.905 65.8772 500.419 63.9822 499.995C62.0871 499.571 60.9276 499.235 60.9525 499.147C60.9775 499.06 62.1619 499.235 64.0694 499.534C66.2139 499.883 68.7448 500.295 71.5375 500.743C74.4549 501.23 77.0981 501.716 78.9931 502.14C80.8882 502.564 82.0352 502.9 82.0228 502.987Z" fill="#263238"/>
<path d="M95.4497 269.232L55.5908 493.249L89.727 495.181C89.727 495.181 125.983 302.084 131.306 301.597C133.538 301.398 134.436 493.648 136.219 493.237C138.014 492.825 173.098 493.86 173.098 493.86C173.098 493.86 168.348 266.376 168.435 266.376C168.535 266.376 95.4497 269.232 95.4497 269.232Z" fill="#263238"/>
<path d="M145.882 296.898C145.919 297.072 139.997 298.481 132.666 300.04C125.335 301.598 119.351 302.72 119.314 302.546C119.276 302.371 125.186 300.962 132.529 299.404C139.873 297.845 145.845 296.723 145.882 296.898Z" fill="#455A64"/>
<path d="M92.2331 482.03C92.2331 482.205 84.5156 482.117 75.0029 481.818C65.4901 481.519 57.7852 481.145 57.7852 480.958C57.7852 480.783 65.5026 480.871 75.0153 481.17C84.5281 481.469 92.2331 481.856 92.2331 482.03Z" fill="#455A64"/>
<path d="M172.862 482.043C172.862 482.217 164.521 482.117 154.26 481.818C143.987 481.507 135.671 481.12 135.671 480.933C135.671 480.759 143.999 480.858 154.273 481.157C164.546 481.482 172.862 481.868 172.862 482.043Z" fill="#455A64"/>
<path d="M112.492 303.107C112.667 303.144 104.226 343.103 93.6289 392.35C83.0315 441.609 74.3042 481.506 74.1296 481.468C73.9551 481.431 82.3956 441.472 92.9931 392.213C103.578 342.966 112.318 303.07 112.492 303.107Z" fill="#455A64"/>
<path d="M154.41 481.493C154.397 481.493 154.385 481.331 154.36 481.032C154.347 480.695 154.322 480.246 154.285 479.673C154.235 478.438 154.16 476.693 154.061 474.449C153.874 469.91 153.649 463.353 153.412 455.236C152.939 439.016 152.477 416.587 152.353 391.826C152.24 367.053 152.49 344.624 152.801 328.391C152.963 320.275 153.126 313.717 153.263 309.178C153.337 306.947 153.4 305.189 153.437 303.955C153.462 303.381 153.487 302.932 153.5 302.596C153.512 302.284 153.537 302.134 153.537 302.134C153.549 302.134 153.562 302.296 153.562 302.596C153.562 302.932 153.562 303.381 153.562 303.955C153.549 305.189 153.537 306.934 153.512 309.178C153.45 313.754 153.362 320.312 153.263 328.391C153.063 344.624 152.889 367.04 153.001 391.814C153.126 416.574 153.512 438.991 153.874 455.211C154.061 463.29 154.21 469.848 154.31 474.424C154.36 476.668 154.385 478.413 154.41 479.648C154.41 480.221 154.422 480.67 154.422 481.007C154.422 481.331 154.422 481.493 154.41 481.493Z" fill="#455A64"/>
<path d="M229.863 112.317C229.863 112.317 203.432 152.189 201.188 154.433C198.943 156.677 157.551 161.028 157.551 161.028C144.847 158.161 103.753 159.108 95.9861 164.818C89.2661 168.534 81.1123 177.224 76.9107 197.895C69.7418 233.153 62.573 246.144 76.9107 251.069C83.531 253.351 89.7648 254.572 94.5648 255.221L94.1658 271.179L168.473 266.566L164.67 226.932C164.221 215.811 164.022 204.203 163.735 193.943C168.385 192.185 211.598 175.827 214.565 175.403C217.707 174.954 245.996 122.628 245.996 122.628C246.881 116.357 229.863 112.317 229.863 112.317Z" fill="#13ACAC"/>
<path d="M96.5955 184.479C96.77 184.479 96.371 203.903 95.7103 227.841C95.037 251.791 94.3513 271.191 94.1768 271.191C94.0022 271.191 94.4012 251.779 95.062 227.829C95.7227 203.879 96.4085 184.479 96.5955 184.479Z" fill="#263238"/>
<path d="M204.915 163.409C204.741 163.509 203.656 161.564 202.746 159.033C201.848 156.502 201.05 154.507 201.187 154.432C201.362 154.333 202.447 156.278 203.357 158.809C204.254 161.339 205.052 163.322 204.915 163.409Z" fill="#263238"/>
<path d="M207.87 160.018C207.745 160.13 206.237 158.946 204.329 157.487C202.421 156.028 201.05 154.582 201.187 154.445C201.299 154.333 202.82 155.517 204.728 156.976C206.648 158.434 208.019 159.881 207.87 160.018Z" fill="#263238"/>
<path d="M244.55 125.758C244.488 125.833 243.565 125.222 242.044 124.249C240.523 123.277 238.416 121.98 235.997 120.696C233.578 119.4 231.334 118.365 229.688 117.642C228.043 116.918 227.02 116.482 227.045 116.395C227.07 116.32 228.155 116.594 229.863 117.218C231.559 117.841 233.865 118.826 236.309 120.135C238.752 121.444 240.847 122.816 242.306 123.888C243.764 124.948 244.612 125.696 244.55 125.758Z" fill="#263238"/>
<path d="M95.6991 228.029C95.6741 228.191 93.617 228.067 91.0985 227.555C88.5925 227.044 86.6601 226.246 86.7099 226.084C86.7723 225.91 88.7546 226.421 91.2232 226.92C93.7042 227.418 95.7365 227.83 95.6991 228.029Z" fill="#263238"/>
<path d="M164.345 160.455C164.358 160.58 162.749 160.58 160.356 161.39C157.987 162.176 154.832 163.971 152.601 167.088C150.382 170.217 149.708 173.783 149.733 176.277C149.746 178.795 150.269 180.316 150.145 180.354C150.107 180.366 149.945 180.004 149.746 179.306C149.546 178.621 149.347 177.586 149.272 176.289C149.122 173.733 149.746 169.993 152.077 166.714C154.421 163.447 157.75 161.64 160.218 160.954C161.465 160.592 162.5 160.455 163.223 160.418C163.946 160.38 164.345 160.418 164.345 160.455Z" fill="#263238"/>
<path d="M168.473 266.565C168.485 266.739 151.854 267.924 131.344 269.196C110.823 270.467 94.1785 271.365 94.166 271.178C94.1536 271.003 110.773 269.819 131.294 268.547C151.816 267.276 168.46 266.39 168.473 266.565Z" fill="#263238"/>
<path d="M138.874 159.683C138.899 159.683 138.974 159.994 139.099 160.605C139.149 160.917 139.248 161.291 139.298 161.74C139.336 162.201 139.386 162.725 139.448 163.311C139.597 165.667 139.336 169.183 137.84 173.185C136.306 177.112 133.451 181.65 128.589 184.655C128.003 185.054 127.342 185.353 126.694 185.678C126.045 186.014 125.36 186.263 124.674 186.513C123.29 187.012 121.856 187.435 120.435 187.934C119.014 188.433 117.605 189.019 116.321 189.854C115.049 190.714 113.914 191.787 112.942 193.033C110.984 195.539 109.65 198.407 108.03 201C106.459 203.606 104.476 205.987 101.92 207.359C99.3771 208.705 96.5719 209.029 94.0784 208.805C91.5599 208.58 89.2908 207.845 87.3957 206.897C83.5557 205.015 81.0123 202.596 79.3417 200.963C78.5064 200.127 77.883 199.454 77.4591 198.993C77.0477 198.532 76.8357 198.282 76.8482 198.27C76.8606 198.257 77.11 198.469 77.5464 198.906C78.0451 199.379 78.6934 200.003 79.5038 200.788C81.2243 202.372 83.7802 204.703 87.5828 206.498C89.4654 207.409 91.6721 208.094 94.1158 208.281C96.5345 208.468 99.2275 208.132 101.634 206.835C104.04 205.526 105.935 203.244 107.481 200.676C109.064 198.12 110.398 195.228 112.418 192.647C113.428 191.35 114.612 190.216 115.946 189.318C117.293 188.445 118.764 187.834 120.198 187.336C121.632 186.862 123.053 186.388 124.437 185.927C125.11 185.678 125.796 185.441 126.419 185.116C127.055 184.805 127.691 184.53 128.264 184.144C133.002 181.264 135.845 176.85 137.403 173.023C138.924 169.108 139.261 165.667 139.186 163.336C139.161 162.762 139.124 162.238 139.099 161.777C139.061 161.328 138.987 160.954 138.962 160.643C138.887 160.007 138.849 159.683 138.874 159.683Z" fill="#263238"/>
<path d="M167.012 251.343C166.987 251.367 166.725 251.156 166.177 250.806C165.641 250.47 164.793 249.996 163.609 249.759C162.424 249.497 160.916 249.497 159.17 249.36C157.437 249.223 155.455 249.211 153.248 249.123C151.054 249.036 148.61 248.849 146.092 248.126C143.586 247.415 140.992 246.256 138.611 244.523C136.23 242.802 134.035 240.508 132.489 237.691C130.943 234.885 129.996 231.594 129.983 228.178C129.946 224.762 130.906 221.42 132.664 218.715C134.397 215.997 136.803 213.865 139.459 212.556C140.78 211.895 142.177 211.459 143.548 211.197C144.932 210.948 146.279 210.885 147.575 210.86C150.168 210.835 152.575 210.948 154.732 210.648C159.108 210.2 162.063 207.619 163.072 205.449C163.621 204.365 163.758 203.417 163.845 202.781C163.92 202.145 163.908 201.796 163.945 201.796C163.958 201.796 163.97 201.884 163.97 202.046C163.983 202.208 163.995 202.457 163.97 202.781C163.933 203.43 163.82 204.415 163.297 205.549C162.786 206.684 161.813 207.943 160.379 208.978C158.958 210.05 157.001 210.786 154.794 211.085C152.587 211.421 150.156 211.334 147.588 211.384C146.304 211.409 144.982 211.496 143.648 211.733C142.326 211.995 140.992 212.431 139.721 213.067C137.177 214.351 134.858 216.408 133.2 219.039C131.517 221.645 130.607 224.861 130.632 228.153C130.644 231.457 131.554 234.648 133.05 237.366C134.547 240.097 136.654 242.341 138.96 244.024C141.279 245.72 143.798 246.867 146.241 247.59C148.697 248.325 151.091 248.537 153.273 248.65C155.455 248.762 157.45 248.799 159.195 248.986C160.928 249.148 162.449 249.186 163.658 249.497C164.88 249.784 165.716 250.308 166.252 250.682C166.513 250.869 166.713 251.031 166.825 251.143C166.95 251.28 167.012 251.343 167.012 251.343Z" fill="#263238"/>
<path d="M125.708 269.607C125.621 269.607 125.895 268.635 125.558 266.939C125.247 265.294 124.249 262.788 121.718 261.03C121.082 260.606 120.372 260.244 119.599 259.995C118.813 259.746 117.953 259.608 117.055 259.521C115.26 259.322 113.253 259.384 111.221 258.736C110.211 258.399 109.226 257.826 108.428 257.04C107.63 256.255 106.994 255.282 106.533 254.222C105.623 252.103 105.373 249.647 105.722 247.253C106.421 242.453 108.528 238.326 108.889 234.262C109.114 232.255 108.976 230.297 108.378 228.614C107.792 226.918 106.707 225.597 105.486 224.699C102.992 222.891 100.311 222.717 98.6533 222.954C96.9452 223.203 96.1099 223.752 96.085 223.677C96.085 223.677 96.8704 223.041 98.6159 222.704C100.311 222.38 103.104 222.48 105.76 224.325C107.069 225.235 108.253 226.644 108.889 228.427C109.55 230.197 109.7 232.242 109.488 234.324C109.126 238.526 107.031 242.702 106.371 247.34C106.034 249.647 106.271 251.966 107.119 253.973C107.555 254.97 108.141 255.868 108.864 256.604C109.6 257.327 110.485 257.85 111.42 258.175C113.315 258.811 115.298 258.773 117.13 258.998C118.053 259.097 118.938 259.259 119.773 259.521C120.609 259.808 121.357 260.207 122.005 260.656C124.636 262.551 125.583 265.194 125.833 266.902C125.97 267.775 125.92 268.46 125.87 268.922C125.783 269.371 125.733 269.607 125.708 269.607Z" fill="#263238"/>
<path d="M123.227 200.613C123.215 200.588 123.489 200.351 124.1 200.164C124.711 199.977 125.696 199.902 126.793 200.339C127.329 200.563 127.903 200.912 128.364 201.436C128.825 201.959 129.174 202.67 129.274 203.468C129.486 205.014 128.788 206.922 127.117 207.832C125.422 208.692 123.452 208.156 122.317 207.084C121.731 206.548 121.357 205.837 121.22 205.151C121.083 204.453 121.145 203.792 121.307 203.231C121.644 202.097 122.33 201.373 122.866 201.024C123.402 200.663 123.776 200.625 123.776 200.65C123.801 200.7 123.477 200.837 123.015 201.224C122.566 201.61 121.993 202.321 121.756 203.343C121.494 204.353 121.681 205.737 122.729 206.635C123.713 207.532 125.434 207.956 126.83 207.246C128.202 206.51 128.85 204.864 128.688 203.53C128.563 202.146 127.578 201.174 126.618 200.75C125.658 200.301 124.748 200.301 124.162 200.401C123.564 200.513 123.252 200.663 123.227 200.613Z" fill="#263238"/>
<path d="M85.8501 253.774C85.713 253.749 86.299 251.58 86.4361 248.014C86.461 247.129 86.486 246.144 86.3987 245.097C86.3862 244.05 86.2117 242.94 86.0621 241.768C85.6756 239.449 85.0522 236.931 84.0797 234.387C83.0699 231.869 81.8231 229.587 80.5265 227.617C79.8408 226.657 79.2174 225.735 78.5192 224.949C77.8709 224.127 77.1976 223.416 76.5743 222.792C74.0558 220.262 72.1607 219.077 72.248 218.952C72.2729 218.915 72.7467 219.202 73.582 219.763C74.0059 220.037 74.5171 220.386 75.0657 220.86C75.6143 221.321 76.275 221.808 76.8984 222.468C77.5592 223.092 78.2574 223.79 78.9431 224.613C79.6662 225.398 80.327 226.333 81.0377 227.293C82.3842 229.276 83.6683 231.582 84.6907 234.163C85.6756 236.744 86.299 239.324 86.6605 241.693C86.7852 242.89 86.9473 244.012 86.9348 245.085C86.9972 246.144 86.9473 247.142 86.8849 248.039C86.86 248.949 86.7104 249.747 86.6231 250.458C86.5359 251.169 86.4112 251.78 86.274 252.266C86.0496 253.251 85.8875 253.787 85.8501 253.774Z" fill="#263238"/>
<path d="M215.214 174.857C215.189 174.907 214.541 174.582 213.357 174.034C212.172 173.485 210.452 172.7 208.27 171.902C206.088 171.116 203.42 170.318 200.39 169.907C197.361 169.496 193.945 169.533 190.541 170.393C187.125 171.241 184.108 172.887 181.889 174.956C179.657 177.026 178.186 179.432 177.438 181.602C176.677 183.783 176.59 185.679 176.69 186.963C176.789 188.259 176.989 188.958 176.914 188.97C176.889 188.97 176.827 188.808 176.739 188.471C176.627 188.135 176.527 187.636 176.44 186.988C176.266 185.691 176.278 183.721 177.014 181.452C177.724 179.195 179.208 176.677 181.49 174.52C183.759 172.351 186.888 170.63 190.391 169.757C193.907 168.872 197.411 168.847 200.49 169.309C203.582 169.757 206.263 170.618 208.457 171.466C210.639 172.326 212.334 173.174 213.494 173.797C214.067 174.109 214.516 174.358 214.803 174.545C215.077 174.732 215.227 174.832 215.214 174.857Z" fill="#263238"/>
<path d="M225.423 119.001C225.436 118.988 225.56 119.088 225.76 119.287C225.959 119.499 226.283 119.786 226.62 120.235C227.331 121.095 228.216 122.467 228.926 124.349C229.65 126.219 230.073 128.626 229.911 131.281C229.737 133.924 228.889 136.829 227.206 139.41C225.498 141.978 223.117 143.861 220.735 145.02C218.354 146.205 215.973 146.716 213.965 146.816C211.958 146.915 210.35 146.679 209.265 146.379C208.717 146.267 208.318 146.08 208.043 145.993C207.769 145.893 207.632 145.831 207.632 145.806C207.657 145.644 210.001 146.679 213.916 146.354C215.86 146.205 218.154 145.656 220.449 144.484C222.743 143.337 224.999 141.505 226.645 139.048C228.266 136.567 229.101 133.787 229.3 131.231C229.488 128.663 229.126 126.331 228.478 124.499C227.206 120.796 225.273 119.1 225.423 119.001Z" fill="#263238"/>
<path d="M144.024 159.507C144.024 159.682 139.174 159.869 133.19 159.919C127.205 159.968 122.355 159.856 122.355 159.682C122.355 159.507 127.205 159.32 133.19 159.27C139.162 159.22 144.012 159.333 144.024 159.507Z" fill="#263238"/>
<ellipse cx="379.254" cy="223.686" rx="4.16762" ry="6.25143" fill="#13ACAC"/>
<path fill-rule="evenodd" clip-rule="evenodd" d="M378.326 205.325C380.501 209.71 380.733 215.005 380.291 218.541L379.257 218.412C379.683 215.001 379.447 209.93 377.393 205.788C376.37 203.725 374.902 201.905 372.851 200.623C370.801 199.342 368.136 198.578 364.682 198.68C357.704 198.885 353.32 201.061 350.664 203.638C347.33 206.872 345.392 212.225 345.392 212.225C345.392 212.225 347.074 205.669 349.938 202.89C352.813 200.102 357.459 197.85 364.651 197.638C368.282 197.532 371.156 198.335 373.403 199.739C375.648 201.142 377.235 203.125 378.326 205.325ZM374.09 233.754C375.639 231.938 376.705 229.956 377.207 228.702L378.174 229.089C377.634 230.439 376.511 232.521 374.883 234.43C373.256 236.336 371.086 238.116 368.439 238.778C363.398 240.038 359.987 240.018 358.85 239.828L359.022 238.8C359.968 238.958 363.225 239.007 368.187 237.767C370.542 237.178 372.538 235.572 374.09 233.754Z" fill="#13ACAC"/>
<circle cx="360.499" cy="239.314" r="2.08381" fill="#13ACAC"/>
</g>
<defs>
<clipPath id="clip0">
<rect width="547" height="504.282" fill="white" transform="translate(0 0.717773)"/>
</clipPath>
</defs>
</svg>
