<svg width="22" height="16" viewBox="0 0 22 16" fill="none" xmlns="http://www.w3.org/2000/svg">
<path d="M21.6206 15.207H0.379327C0.169855 15.207 0 15.0372 0 14.8277V1.17254C0 0.963068 0.169855 0.793213 0.379327 0.793213H21.6207C21.8301 0.793213 22 0.963068 22 1.17254V14.8277C22 15.0372 21.8301 15.207 21.6206 15.207Z" fill="#F5F5F5"/>
<path d="M22 1.90202H0V1.17254C0 0.963068 0.169855 0.793213 0.379327 0.793213H21.6207C21.8301 0.793213 22 0.963068 22 1.17254L22 1.90202Z" fill="#FF4B55"/>
<path d="M22 5.22827H0V6.33704H22V5.22827Z" fill="#FF4B55"/>
<path d="M22 3.0105H0V4.11926H22V3.0105Z" fill="#FF4B55"/>
<path d="M22 8.55461H0.379327C0.169855 8.55461 0 8.38475 0 8.17528V7.4458H22V8.55461Z" fill="#FF4B55"/>
<path d="M22 11.8811H0V12.9899H22V11.8811Z" fill="#FF4B55"/>
<path d="M21.6206 15.2069H0.379327C0.169855 15.2069 0 15.0371 0 14.8276V14.0981H22V14.8276C22 15.0371 21.8301 15.2069 21.6206 15.2069Z" fill="#FF4B55"/>
<path d="M22 9.66333H0V10.7721H22V9.66333Z" fill="#FF4B55"/>
<path d="M9.86204 0.793213H0.379327C0.169855 0.793213 0 0.963025 0 1.1725V8.17511C0 8.38458 0.169855 8.55443 0.379327 8.55443H9.86208C10.0716 8.55443 10.2414 8.38458 10.2414 8.17511V1.1725C10.2414 0.963025 10.0715 0.793213 9.86204 0.793213Z" fill="#41479B"/>
<path d="M1.06516 1.66386L1.14912 1.91566L1.41454 1.91768C1.44891 1.91798 1.46314 1.96181 1.43551 1.98222L1.222 2.13991L1.30209 2.39295C1.31249 2.4257 1.27515 2.45285 1.24718 2.43283L1.03126 2.27853L0.81534 2.43287C0.787368 2.45285 0.750114 2.42574 0.760426 2.393L0.84052 2.13995L0.627009 1.98226C0.59938 1.96181 0.613602 1.91802 0.647977 1.91772L0.913395 1.9157L0.997356 1.6639C1.00818 1.63125 1.05425 1.63125 1.06516 1.66386Z" fill="#F5F5F5"/>
<path d="M1.06516 2.98072L1.14912 3.23252L1.41454 3.23454C1.44891 3.23484 1.46314 3.27867 1.43551 3.29908L1.222 3.45677L1.30209 3.70981C1.31249 3.74255 1.27515 3.76971 1.24718 3.74969L1.03126 3.59539L0.81534 3.74973C0.787368 3.76971 0.750114 3.7426 0.760426 3.70986L0.84052 3.45681L0.627009 3.29912C0.59938 3.27867 0.613602 3.23488 0.647977 3.23458L0.913395 3.23256L0.997356 2.98076C1.00818 2.94815 1.05425 2.94815 1.06516 2.98072Z" fill="#F5F5F5"/>
<path d="M1.06516 4.29786L1.14912 4.54966L1.41454 4.55168C1.44891 4.55198 1.46314 4.5958 1.43551 4.61621L1.222 4.77391L1.30209 5.02695C1.31249 5.05969 1.27515 5.08685 1.24718 5.06683L1.03126 4.91253L0.81534 5.06687C0.787368 5.08685 0.750114 5.05974 0.760426 5.027L0.84052 4.77395L0.627009 4.61626C0.59938 4.5958 0.613602 4.55202 0.647977 4.55172L0.913395 4.5497L0.997356 4.2979C1.00818 4.26529 1.05425 4.26529 1.06516 4.29786Z" fill="#F5F5F5"/>
<path d="M1.06516 5.61503L1.14912 5.86683L1.41454 5.86885C1.44891 5.86915 1.46314 5.91298 1.43551 5.93339L1.222 6.09108L1.30209 6.34413C1.31249 6.37687 1.27515 6.40403 1.24718 6.384L1.03126 6.2297L0.81534 6.38405C0.787368 6.40403 0.750114 6.37691 0.760426 6.34417L0.84052 6.09113L0.627009 5.93343C0.59938 5.91298 0.613602 5.86919 0.647977 5.86889L0.913395 5.86687L0.997356 5.61507C1.00818 5.58242 1.05425 5.58242 1.06516 5.61503Z" fill="#F5F5F5"/>
<path d="M1.06516 6.9322L1.14912 7.184L1.41454 7.18602C1.44891 7.18632 1.46314 7.23015 1.43551 7.25056L1.222 7.40825L1.30209 7.6613C1.31249 7.69404 1.27515 7.7212 1.24718 7.70117L1.03126 7.54687L0.81534 7.70122C0.787368 7.7212 0.750114 7.69408 0.760426 7.66134L0.84052 7.4083L0.627009 7.2506C0.59938 7.23015 0.613602 7.18636 0.647977 7.18606L0.913395 7.18404L0.997356 6.93224C1.00818 6.89955 1.05425 6.89955 1.06516 6.9322Z" fill="#F5F5F5"/>
<path d="M2.0875 2.30934L2.17146 2.56114L2.43688 2.56316C2.47125 2.56346 2.48547 2.60728 2.45785 2.62769L2.24433 2.78539L2.32443 3.03843C2.33483 3.07118 2.29749 3.09833 2.26951 3.07831L2.0536 2.92396L1.83768 3.07831C1.80971 3.09829 1.77245 3.07118 1.78277 3.03843L1.86286 2.78539L1.64935 2.62769C1.62172 2.60724 1.63594 2.56346 1.67032 2.56316L1.93573 2.56114L2.01969 2.30934C2.03048 2.27677 2.07663 2.27677 2.0875 2.30934Z" fill="#F5F5F5"/>
<path d="M2.0875 3.62651L2.17146 3.87831L2.43688 3.88033C2.47125 3.88063 2.48547 3.92445 2.45785 3.94486L2.24433 4.10256L2.32443 4.3556C2.33483 4.38834 2.29749 4.4155 2.26951 4.39548L2.0536 4.24113L1.83768 4.39548C1.80971 4.41546 1.77245 4.38839 1.78277 4.3556L1.86286 4.10256L1.64935 3.94486C1.62172 3.92441 1.63594 3.88063 1.67032 3.88033L1.93573 3.87831L2.01969 3.62651C2.03048 3.5939 2.07663 3.5939 2.0875 3.62651Z" fill="#F5F5F5"/>
<path d="M2.0875 4.94365L2.17146 5.19544L2.43688 5.19746C2.47125 5.19776 2.48547 5.24159 2.45785 5.262L2.24433 5.4197L2.32443 5.67274C2.33483 5.70548 2.29749 5.73264 2.26951 5.71261L2.0536 5.55827L1.83768 5.71261C1.80971 5.73259 1.77245 5.70548 1.78277 5.67274L1.86286 5.4197L1.64935 5.262C1.62172 5.24155 1.63594 5.19776 1.67032 5.19746L1.93573 5.19544L2.01969 4.94365C2.03048 4.91104 2.07663 4.91104 2.0875 4.94365Z" fill="#F5F5F5"/>
<path d="M2.0875 6.261L2.17146 6.5128L2.43688 6.51482C2.47125 6.51512 2.48547 6.55895 2.45785 6.57936L2.24433 6.73705L2.32443 6.9901C2.33483 7.02284 2.29749 7.05 2.26951 7.02997L2.0536 6.87563L1.83768 7.02997C1.80971 7.04995 1.77245 7.02284 1.78277 6.9901L1.86286 6.73705L1.64935 6.57936C1.62172 6.5589 1.63594 6.51512 1.67032 6.51482L1.93573 6.5128L2.01969 6.261C2.03048 6.22843 2.07663 6.22843 2.0875 6.261Z" fill="#F5F5F5"/>
<path d="M3.10984 1.66362L3.1938 1.91542L3.45921 1.91743C3.49359 1.91774 3.50781 1.96156 3.48018 1.98197L3.26667 2.13967L3.34677 2.39271C3.35716 2.42545 3.31982 2.45261 3.29185 2.43258L3.07593 2.27824L2.86002 2.43258C2.83204 2.45256 2.79479 2.42545 2.8051 2.39271L2.8852 2.13967L2.67169 1.98197C2.64406 1.96152 2.65828 1.91774 2.69265 1.91743L2.95807 1.91542L3.04203 1.66362C3.05286 1.63101 3.09897 1.63101 3.10984 1.66362Z" fill="#F5F5F5"/>
<path d="M3.10984 2.98073L3.1938 3.23252L3.45921 3.23454C3.49359 3.23484 3.50781 3.27867 3.48018 3.29908L3.26667 3.45678L3.34677 3.70982C3.35716 3.74256 3.31982 3.76972 3.29185 3.74969L3.07593 3.59535L2.86002 3.74969C2.83204 3.76967 2.79479 3.74256 2.8051 3.70982L2.8852 3.45678L2.67169 3.29908C2.64406 3.27863 2.65828 3.23484 2.69265 3.23454L2.95807 3.23252L3.04203 2.98073C3.05286 2.94816 3.09897 2.94816 3.10984 2.98073Z" fill="#F5F5F5"/>
<path d="M3.10984 4.29787L3.1938 4.54966L3.45921 4.55168C3.49359 4.55198 3.50781 4.59581 3.48018 4.61622L3.26667 4.77392L3.34677 5.02696C3.35716 5.0597 3.31982 5.08686 3.29185 5.06683L3.07593 4.91249L2.86002 5.06683C2.83204 5.08682 2.79479 5.0597 2.8051 5.02696L2.8852 4.77392L2.67169 4.61622C2.64406 4.59577 2.65828 4.55198 2.69265 4.55168L2.95807 4.54966L3.04203 4.29787C3.05286 4.26529 3.09897 4.26529 3.10984 4.29787Z" fill="#F5F5F5"/>
<path d="M3.10984 5.61504L3.1938 5.86683L3.45921 5.86885C3.49359 5.86915 3.50781 5.91298 3.48018 5.93339L3.26667 6.09109L3.34677 6.34413C3.35716 6.37687 3.31982 6.40403 3.29185 6.384L3.07593 6.22966L2.86002 6.384C2.83204 6.40398 2.79479 6.37687 2.8051 6.34413L2.8852 6.09109L2.67169 5.93339C2.64406 5.91294 2.65828 5.86915 2.69265 5.86885L2.95807 5.86683L3.04203 5.61504C3.05286 5.58242 3.09897 5.58242 3.10984 5.61504Z" fill="#F5F5F5"/>
<path d="M3.10984 6.93221L3.1938 7.184L3.45921 7.18602C3.49359 7.18632 3.50781 7.23015 3.48018 7.25056L3.26667 7.40825L3.34677 7.66129C3.35716 7.69404 3.31982 7.72119 3.29185 7.70117L3.07593 7.54683L2.86002 7.70117C2.83204 7.72115 2.79479 7.69404 2.8051 7.66129L2.8852 7.40825L2.67169 7.25056C2.64406 7.23011 2.65828 7.18632 2.69265 7.18602L2.95807 7.184L3.04203 6.93221C3.05286 6.89955 3.09897 6.89955 3.10984 6.93221Z" fill="#F5F5F5"/>
<path d="M4.1323 2.30934L4.21626 2.56114L4.48167 2.56316C4.51605 2.56346 4.53027 2.60728 4.50264 2.62769L4.28913 2.78539L4.36923 3.03843C4.37962 3.07118 4.34228 3.09833 4.31431 3.07831L4.0984 2.92396L3.88248 3.07831C3.85451 3.09829 3.81725 3.07118 3.82756 3.03843L3.90766 2.78539L3.69415 2.62769C3.66652 2.60724 3.68074 2.56346 3.71512 2.56316L3.98053 2.56114L4.06449 2.30934C4.07528 2.27677 4.12143 2.27677 4.1323 2.30934Z" fill="#F5F5F5"/>
<path d="M4.1323 3.62651L4.21626 3.87831L4.48167 3.88033C4.51605 3.88063 4.53027 3.92445 4.50264 3.94486L4.28913 4.10256L4.36923 4.3556C4.37962 4.38834 4.34228 4.4155 4.31431 4.39548L4.0984 4.24113L3.88248 4.39548C3.85451 4.41546 3.81725 4.38839 3.82756 4.3556L3.90766 4.10256L3.69415 3.94486C3.66652 3.92441 3.68074 3.88063 3.71512 3.88033L3.98053 3.87831L4.06449 3.62651C4.07528 3.5939 4.12143 3.5939 4.1323 3.62651Z" fill="#F5F5F5"/>
<path d="M4.1323 4.94365L4.21626 5.19544L4.48167 5.19746C4.51605 5.19776 4.53027 5.24159 4.50264 5.262L4.28913 5.4197L4.36923 5.67274C4.37962 5.70548 4.34228 5.73264 4.31431 5.71261L4.0984 5.55827L3.88248 5.71261C3.85451 5.73259 3.81725 5.70548 3.82756 5.67274L3.90766 5.4197L3.69415 5.262C3.66652 5.24155 3.68074 5.19776 3.71512 5.19746L3.98053 5.19544L4.06449 4.94365C4.07528 4.91104 4.12143 4.91104 4.1323 4.94365Z" fill="#F5F5F5"/>
<path d="M4.1323 6.261L4.21626 6.5128L4.48167 6.51482C4.51605 6.51512 4.53027 6.55895 4.50264 6.57936L4.28913 6.73705L4.36923 6.9901C4.37962 7.02284 4.34228 7.05 4.31431 7.02997L4.0984 6.87563L3.88248 7.02997C3.85451 7.04995 3.81725 7.02284 3.82756 6.9901L3.90766 6.73705L3.69415 6.57936C3.66652 6.5589 3.68074 6.51512 3.71512 6.51482L3.98053 6.5128L4.06449 6.261C4.07528 6.22843 4.12143 6.22843 4.1323 6.261Z" fill="#F5F5F5"/>
<path d="M5.15456 1.66362L5.23852 1.91542L5.50394 1.91743C5.53831 1.91774 5.55253 1.96156 5.52491 1.98197L5.31139 2.13967L5.39149 2.39271C5.40189 2.42545 5.36455 2.45261 5.33657 2.43258L5.12061 2.27824L4.9047 2.43258C4.87672 2.45256 4.83947 2.42545 4.84978 2.39271L4.92988 2.13967L4.71636 1.98197C4.68874 1.96152 4.70296 1.91774 4.73733 1.91743L5.00275 1.91542L5.08671 1.66362C5.09758 1.63101 5.14369 1.63101 5.15456 1.66362Z" fill="#F5F5F5"/>
<path d="M5.15456 2.98073L5.23852 3.23252L5.50394 3.23454C5.53831 3.23484 5.55253 3.27867 5.52491 3.29908L5.31139 3.45678L5.39149 3.70982C5.40189 3.74256 5.36455 3.76972 5.33657 3.74969L5.12061 3.59535L4.9047 3.74969C4.87672 3.76967 4.83947 3.74256 4.84978 3.70982L4.92988 3.45678L4.71636 3.29908C4.68874 3.27863 4.70296 3.23484 4.73733 3.23454L5.00275 3.23252L5.08671 2.98073C5.09758 2.94816 5.14369 2.94816 5.15456 2.98073Z" fill="#F5F5F5"/>
<path d="M5.15456 4.29787L5.23852 4.54966L5.50394 4.55168C5.53831 4.55198 5.55253 4.59581 5.52491 4.61622L5.31139 4.77392L5.39149 5.02696C5.40189 5.0597 5.36455 5.08686 5.33657 5.06683L5.12061 4.91249L4.9047 5.06683C4.87672 5.08682 4.83947 5.0597 4.84978 5.02696L4.92988 4.77392L4.71636 4.61622C4.68874 4.59577 4.70296 4.55198 4.73733 4.55168L5.00275 4.54966L5.08671 4.29787C5.09758 4.26529 5.14369 4.26529 5.15456 4.29787Z" fill="#F5F5F5"/>
<path d="M5.15456 5.61504L5.23852 5.86683L5.50394 5.86885C5.53831 5.86915 5.55253 5.91298 5.52491 5.93339L5.31139 6.09109L5.39149 6.34413C5.40189 6.37687 5.36455 6.40403 5.33657 6.384L5.12061 6.22966L4.9047 6.384C4.87672 6.40398 4.83947 6.37687 4.84978 6.34413L4.92988 6.09109L4.71636 5.93339C4.68874 5.91294 4.70296 5.86915 4.73733 5.86885L5.00275 5.86683L5.08671 5.61504C5.09758 5.58242 5.14369 5.58242 5.15456 5.61504Z" fill="#F5F5F5"/>
<path d="M5.15456 6.93221L5.23852 7.184L5.50394 7.18602C5.53831 7.18632 5.55253 7.23015 5.52491 7.25056L5.31139 7.40825L5.39149 7.66129C5.40189 7.69404 5.36455 7.72119 5.33657 7.70117L5.12061 7.54683L4.9047 7.70117C4.87672 7.72115 4.83947 7.69404 4.84978 7.66129L4.92988 7.40825L4.71636 7.25056C4.68874 7.23011 4.70296 7.18632 4.73733 7.18602L5.00275 7.184L5.08671 6.93221C5.09758 6.89955 5.14369 6.89955 5.15456 6.93221Z" fill="#F5F5F5"/>
<path d="M6.17698 2.30934L6.26094 2.56114L6.52636 2.56316C6.56073 2.56346 6.57495 2.60728 6.54732 2.62769L6.33381 2.78539L6.41391 3.03843C6.4243 3.07118 6.38696 3.09833 6.35899 3.07831L6.14307 2.92396L5.92716 3.07831C5.89918 3.09829 5.86193 3.07118 5.87224 3.03843L5.95234 2.78539L5.73882 2.62769C5.7112 2.60724 5.72542 2.56346 5.75979 2.56316L6.02521 2.56114L6.10917 2.30934C6.12004 2.27677 6.16611 2.27677 6.17698 2.30934Z" fill="#F5F5F5"/>
<path d="M6.17698 3.62651L6.26094 3.87831L6.52636 3.88033C6.56073 3.88063 6.57495 3.92445 6.54732 3.94486L6.33381 4.10256L6.41391 4.3556C6.4243 4.38834 6.38696 4.4155 6.35899 4.39548L6.14307 4.24113L5.92716 4.39548C5.89918 4.41546 5.86193 4.38839 5.87224 4.3556L5.95234 4.10256L5.73882 3.94486C5.7112 3.92441 5.72542 3.88063 5.75979 3.88033L6.02521 3.87831L6.10917 3.62651C6.12004 3.5939 6.16611 3.5939 6.17698 3.62651Z" fill="#F5F5F5"/>
<path d="M6.17698 4.94365L6.26094 5.19544L6.52636 5.19746C6.56073 5.19776 6.57495 5.24159 6.54732 5.262L6.33381 5.4197L6.41391 5.67274C6.4243 5.70548 6.38696 5.73264 6.35899 5.71261L6.14307 5.55827L5.92716 5.71261C5.89918 5.73259 5.86193 5.70548 5.87224 5.67274L5.95234 5.4197L5.73882 5.262C5.7112 5.24155 5.72542 5.19776 5.75979 5.19746L6.02521 5.19544L6.10917 4.94365C6.12004 4.91104 6.16611 4.91104 6.17698 4.94365Z" fill="#F5F5F5"/>
<path d="M6.17698 6.261L6.26094 6.5128L6.52636 6.51482C6.56073 6.51512 6.57495 6.55895 6.54732 6.57936L6.33381 6.73705L6.41391 6.9901C6.4243 7.02284 6.38696 7.05 6.35899 7.02997L6.14307 6.87563L5.92716 7.02997C5.89918 7.04995 5.86193 7.02284 5.87224 6.9901L5.95234 6.73705L5.73882 6.57936C5.7112 6.5589 5.72542 6.51512 5.75979 6.51482L6.02521 6.5128L6.10917 6.261C6.12004 6.22843 6.16611 6.22843 6.17698 6.261Z" fill="#F5F5F5"/>
<path d="M7.19932 1.66362L7.28328 1.91542L7.54869 1.91743C7.58307 1.91774 7.59729 1.96156 7.56966 1.98197L7.35615 2.13967L7.43624 2.39271C7.44664 2.42545 7.4093 2.45261 7.38133 2.43258L7.16541 2.27824L6.9495 2.43258C6.92152 2.45256 6.88427 2.42545 6.89458 2.39271L6.97467 2.13967L6.76116 1.98197C6.73354 1.96152 6.74776 1.91774 6.78213 1.91743L7.04755 1.91542L7.13151 1.66362C7.1423 1.63101 7.18844 1.63101 7.19932 1.66362Z" fill="#F5F5F5"/>
<path d="M7.19932 2.98073L7.28328 3.23252L7.54869 3.23454C7.58307 3.23484 7.59729 3.27867 7.56966 3.29908L7.35615 3.45678L7.43624 3.70982C7.44664 3.74256 7.4093 3.76972 7.38133 3.74969L7.16541 3.59535L6.9495 3.74969C6.92152 3.76967 6.88427 3.74256 6.89458 3.70982L6.97467 3.45678L6.76116 3.29908C6.73354 3.27863 6.74776 3.23484 6.78213 3.23454L7.04755 3.23252L7.13151 2.98073C7.1423 2.94816 7.18844 2.94816 7.19932 2.98073Z" fill="#F5F5F5"/>
<path d="M7.19932 4.29787L7.28328 4.54966L7.54869 4.55168C7.58307 4.55198 7.59729 4.59581 7.56966 4.61622L7.35615 4.77392L7.43624 5.02696C7.44664 5.0597 7.4093 5.08686 7.38133 5.06683L7.16541 4.91249L6.9495 5.06683C6.92152 5.08682 6.88427 5.0597 6.89458 5.02696L6.97467 4.77392L6.76116 4.61622C6.73354 4.59577 6.74776 4.55198 6.78213 4.55168L7.04755 4.54966L7.13151 4.29787C7.1423 4.26529 7.18844 4.26529 7.19932 4.29787Z" fill="#F5F5F5"/>
<path d="M7.19932 5.61504L7.28328 5.86683L7.54869 5.86885C7.58307 5.86915 7.59729 5.91298 7.56966 5.93339L7.35615 6.09109L7.43624 6.34413C7.44664 6.37687 7.4093 6.40403 7.38133 6.384L7.16541 6.22966L6.9495 6.384C6.92152 6.40398 6.88427 6.37687 6.89458 6.34413L6.97467 6.09109L6.76116 5.93339C6.73354 5.91294 6.74776 5.86915 6.78213 5.86885L7.04755 5.86683L7.13151 5.61504C7.1423 5.58242 7.18844 5.58242 7.19932 5.61504Z" fill="#F5F5F5"/>
<path d="M7.19932 6.93221L7.28328 7.184L7.54869 7.18602C7.58307 7.18632 7.59729 7.23015 7.56966 7.25056L7.35615 7.40825L7.43624 7.66129C7.44664 7.69404 7.4093 7.72119 7.38133 7.70117L7.16541 7.54683L6.9495 7.70117C6.92152 7.72115 6.88427 7.69404 6.89458 7.66129L6.97467 7.40825L6.76116 7.25056C6.73354 7.23011 6.74776 7.18632 6.78213 7.18602L7.04755 7.184L7.13151 6.93221C7.1423 6.89955 7.18844 6.89955 7.19932 6.93221Z" fill="#F5F5F5"/>
<path d="M8.22178 2.30934L8.30574 2.56114L8.57115 2.56316C8.60553 2.56346 8.61975 2.60728 8.59212 2.62769L8.37861 2.78539L8.45871 3.03843C8.4691 3.07118 8.43176 3.09833 8.40379 3.07831L8.18787 2.92396L7.97196 3.07831C7.94398 3.09829 7.90673 3.07118 7.91704 3.03843L7.99714 2.78539L7.78362 2.62769C7.756 2.60724 7.77022 2.56346 7.80459 2.56316L8.07001 2.56114L8.15397 2.30934C8.1648 2.27677 8.21095 2.27677 8.22178 2.30934Z" fill="#F5F5F5"/>
<path d="M8.22178 3.62651L8.30574 3.87831L8.57115 3.88033C8.60553 3.88063 8.61975 3.92445 8.59212 3.94486L8.37861 4.10256L8.45871 4.3556C8.4691 4.38834 8.43176 4.4155 8.40379 4.39548L8.18787 4.24113L7.97196 4.39548C7.94398 4.41546 7.90673 4.38839 7.91704 4.3556L7.99714 4.10256L7.78362 3.94486C7.756 3.92441 7.77022 3.88063 7.80459 3.88033L8.07001 3.87831L8.15397 3.62651C8.1648 3.5939 8.21095 3.5939 8.22178 3.62651Z" fill="#F5F5F5"/>
<path d="M8.22178 4.94365L8.30574 5.19544L8.57115 5.19746C8.60553 5.19776 8.61975 5.24159 8.59212 5.262L8.37861 5.4197L8.45871 5.67274C8.4691 5.70548 8.43176 5.73264 8.40379 5.71261L8.18787 5.55827L7.97196 5.71261C7.94398 5.73259 7.90673 5.70548 7.91704 5.67274L7.99714 5.4197L7.78362 5.262C7.756 5.24155 7.77022 5.19776 7.80459 5.19746L8.07001 5.19544L8.15397 4.94365C8.1648 4.91104 8.21095 4.91104 8.22178 4.94365Z" fill="#F5F5F5"/>
<path d="M8.22178 6.261L8.30574 6.5128L8.57115 6.51482C8.60553 6.51512 8.61975 6.55895 8.59212 6.57936L8.37861 6.73705L8.45871 6.9901C8.4691 7.02284 8.43176 7.05 8.40379 7.02997L8.18787 6.87563L7.97196 7.02997C7.94398 7.04995 7.90673 7.02284 7.91704 6.9901L7.99714 6.73705L7.78362 6.57936C7.756 6.5589 7.77022 6.51512 7.80459 6.51482L8.07001 6.5128L8.15397 6.261C8.1648 6.22843 8.21095 6.22843 8.22178 6.261Z" fill="#F5F5F5"/>
<path d="M9.24412 1.66362L9.32808 1.91542L9.59349 1.91743C9.62787 1.91774 9.64209 1.96156 9.61446 1.98197L9.40095 2.13967L9.48104 2.39271C9.49144 2.42545 9.4541 2.45261 9.42613 2.43258L9.21021 2.27824L8.9943 2.43258C8.96632 2.45256 8.92907 2.42545 8.93938 2.39271L9.01948 2.13967L8.80596 1.98197C8.77833 1.96152 8.79256 1.91774 8.82693 1.91743L9.09235 1.91542L9.17631 1.66362C9.18714 1.63101 9.2332 1.63101 9.24412 1.66362Z" fill="#F5F5F5"/>
<path d="M9.24412 2.98073L9.32808 3.23252L9.59349 3.23454C9.62787 3.23484 9.64209 3.27867 9.61446 3.29908L9.40095 3.45678L9.48104 3.70982C9.49144 3.74256 9.4541 3.76972 9.42613 3.74969L9.21021 3.59535L8.9943 3.74969C8.96632 3.76967 8.92907 3.74256 8.93938 3.70982L9.01948 3.45678L8.80596 3.29908C8.77833 3.27863 8.79256 3.23484 8.82693 3.23454L9.09235 3.23252L9.17631 2.98073C9.18714 2.94816 9.2332 2.94816 9.24412 2.98073Z" fill="#F5F5F5"/>
<path d="M9.24412 4.29787L9.32808 4.54966L9.59349 4.55168C9.62787 4.55198 9.64209 4.59581 9.61446 4.61622L9.40095 4.77392L9.48104 5.02696C9.49144 5.0597 9.4541 5.08686 9.42613 5.06683L9.21021 4.91249L8.9943 5.06683C8.96632 5.08682 8.92907 5.0597 8.93938 5.02696L9.01948 4.77392L8.80596 4.61622C8.77833 4.59577 8.79256 4.55198 8.82693 4.55168L9.09235 4.54966L9.17631 4.29787C9.18714 4.26529 9.2332 4.26529 9.24412 4.29787Z" fill="#F5F5F5"/>
<path d="M9.24412 5.61504L9.32808 5.86683L9.59349 5.86885C9.62787 5.86915 9.64209 5.91298 9.61446 5.93339L9.40095 6.09109L9.48104 6.34413C9.49144 6.37687 9.4541 6.40403 9.42613 6.384L9.21021 6.22966L8.9943 6.384C8.96632 6.40398 8.92907 6.37687 8.93938 6.34413L9.01948 6.09109L8.80596 5.93339C8.77833 5.91294 8.79256 5.86915 8.82693 5.86885L9.09235 5.86683L9.17631 5.61504C9.18714 5.58242 9.2332 5.58242 9.24412 5.61504Z" fill="#F5F5F5"/>
<path d="M9.24412 6.93221L9.32808 7.184L9.59349 7.18602C9.62787 7.18632 9.64209 7.23015 9.61446 7.25056L9.40095 7.40825L9.48104 7.66129C9.49144 7.69404 9.4541 7.72119 9.42613 7.70117L9.21021 7.54683L8.9943 7.70117C8.96632 7.72115 8.92907 7.69404 8.93938 7.66129L9.01948 7.40825L8.80596 7.25056C8.77833 7.23011 8.79256 7.18632 8.82693 7.18602L9.09235 7.184L9.17631 6.93221C9.18714 6.89955 9.2332 6.89955 9.24412 6.93221Z" fill="#F5F5F5"/>
</svg>
