<svg width="198" height="30" viewBox="0 0 198 30" fill="none" xmlns="http://www.w3.org/2000/svg">
<path d="M44.28 29.9792C42.0666 29.9792 40.08 29.5126 38.32 28.5792C36.56 27.6459 35.1866 26.3526 34.2 24.6992C33.2133 23.0192 32.72 21.1259 32.72 19.0192C32.72 16.9126 33.2133 15.0326 34.2 13.3792C35.1866 11.7259 36.5466 10.4326 38.28 9.49922C40.04 8.56588 42.04 8.09922 44.28 8.09922C46.3866 8.09922 48.2266 8.52589 49.8 9.37922C51.4 10.2326 52.6 11.4592 53.4 13.0592L49.56 15.2992C48.9466 14.3126 48.1733 13.5792 47.24 13.0992C46.3333 12.5926 45.3333 12.3392 44.24 12.3392C42.3733 12.3392 40.8266 12.9526 39.6 14.1792C38.3733 15.3792 37.76 16.9926 37.76 19.0192C37.76 21.0459 38.36 22.6726 39.56 23.8992C40.7866 25.0992 42.3466 25.6992 44.24 25.6992C45.3333 25.6992 46.3333 25.4592 47.24 24.9792C48.1733 24.4726 48.9466 23.7259 49.56 22.7392L53.4 24.9792C52.5733 26.5792 51.36 27.8192 49.76 28.6992C48.1866 29.5526 46.36 29.9792 44.28 29.9792Z" fill="white"/>
<path d="M78.4021 8.33922V29.6992H73.6421V26.9792C72.8421 27.9392 71.8421 28.6859 70.6421 29.2192C69.4421 29.7259 68.1488 29.9792 66.7621 29.9792C63.9088 29.9792 61.6555 29.1926 60.0021 27.6192C58.3755 26.0192 57.5621 23.6592 57.5621 20.5392V8.33922H62.5621V19.8592C62.5621 21.7792 62.9888 23.2192 63.8421 24.1792C64.7221 25.1126 65.9621 25.5792 67.5621 25.5792C69.3488 25.5792 70.7621 25.0326 71.8021 23.9392C72.8688 22.8192 73.4021 21.2192 73.4021 19.1392V8.33922H78.4021Z" fill="white"/>
<path d="M89.7087 11.4592C91.1487 9.21922 93.682 8.09922 97.3087 8.09922V12.8592C96.882 12.7792 96.4954 12.7392 96.1487 12.7392C94.202 12.7392 92.682 13.3126 91.5887 14.4592C90.4954 15.5792 89.9487 17.2059 89.9487 19.3392V29.6992H84.9487V8.33922H89.7087V11.4592Z" fill="white"/>
<path d="M121.435 19.1392C121.435 19.4859 121.408 19.9792 121.355 20.6192H104.595C104.888 22.1926 105.648 23.4459 106.875 24.3792C108.128 25.2859 109.675 25.7392 111.515 25.7392C113.862 25.7392 115.795 24.9659 117.315 23.4192L119.995 26.4992C119.035 27.6459 117.822 28.5126 116.355 29.0992C114.888 29.6859 113.235 29.9792 111.395 29.9792C109.048 29.9792 106.982 29.5126 105.195 28.5792C103.408 27.6459 102.022 26.3526 101.035 24.6992C100.075 23.0192 99.595 21.1259 99.595 19.0192C99.595 16.9392 100.062 15.0726 100.995 13.4192C101.955 11.7392 103.275 10.4326 104.955 9.49922C106.635 8.56588 108.528 8.09922 110.635 8.09922C112.715 8.09922 114.568 8.56588 116.195 9.49922C117.848 10.4059 119.128 11.6992 120.035 13.3792C120.968 15.0326 121.435 16.9526 121.435 19.1392ZM110.635 12.0992C109.035 12.0992 107.675 12.5792 106.555 13.5392C105.462 14.4726 104.795 15.7259 104.555 17.2992H116.675C116.462 15.7526 115.808 14.4992 114.715 13.5392C113.622 12.5792 112.262 12.0992 110.635 12.0992Z" fill="white"/>
<path d="M126.238 0.0192165H131.238V29.6992H126.238V0.0192165Z" fill="white"/>
<path d="M137.8 0.0192165H142.8V29.6992H137.8V0.0192165Z" fill="white"/>
<path d="M170.243 8.33922V29.6992H165.483V26.9392C164.656 27.9526 163.629 28.7126 162.403 29.2192C161.203 29.7259 159.869 29.9792 158.403 29.9792C156.323 29.9792 154.456 29.5259 152.803 28.6192C151.176 27.7126 149.896 26.4326 148.963 24.7792C148.056 23.1259 147.603 21.2059 147.603 19.0192C147.603 16.8326 148.056 14.9259 148.963 13.2992C149.896 11.6459 151.176 10.3659 152.803 9.45922C154.456 8.55255 156.323 8.09922 158.403 8.09922C159.789 8.09922 161.056 8.33922 162.203 8.81922C163.376 9.29922 164.389 10.0059 165.243 10.9392V8.33922H170.243ZM158.963 25.6992C160.803 25.6992 162.323 25.0859 163.523 23.8592C164.723 22.6326 165.323 21.0192 165.323 19.0192C165.323 17.0192 164.723 15.4059 163.523 14.1792C162.323 12.9526 160.803 12.3392 158.963 12.3392C157.123 12.3392 155.603 12.9526 154.403 14.1792C153.229 15.4059 152.643 17.0192 152.643 19.0192C152.643 21.0192 153.229 22.6326 154.403 23.8592C155.603 25.0859 157.123 25.6992 158.963 25.6992Z" fill="white"/>
<path fill-rule="evenodd" clip-rule="evenodd" d="M5.36 29.6992H0L12.6 1.69922H17.72L30.36 29.6992H24.92L22.12 23.2192L6.63778 26.6992L5.36 29.6992ZM15.12 6.89922L20.4 19.1392L8.77569 21.6992L15.12 6.89922Z" fill="white"/>
<path d="M175 0H176.782V6.248H180.643V7.7H175V0Z" fill="white"/>
<path d="M183.784 1.452H181.32V0H188.03V1.452H185.566V7.7H183.784V1.452Z" fill="white"/>
<path d="M189.428 0H192.926C193.762 0 194.499 0.161334 195.137 0.484C195.783 0.799334 196.281 1.24667 196.633 1.826C196.993 2.40533 197.172 3.08 197.172 3.85C197.172 4.62 196.993 5.29467 196.633 5.874C196.281 6.45333 195.783 6.90433 195.137 7.227C194.499 7.54233 193.762 7.7 192.926 7.7H189.428V0ZM192.838 6.237C193.608 6.237 194.221 6.02433 194.675 5.599C195.137 5.16633 195.368 4.58333 195.368 3.85C195.368 3.11667 195.137 2.53733 194.675 2.112C194.221 1.67933 193.608 1.463 192.838 1.463H191.21V6.237H192.838Z" fill="white"/>
</svg>
