<svg width="139" height="35" viewBox="0 0 139 35" fill="none" xmlns="http://www.w3.org/2000/svg">
<path d="M36.0381 24.3836C34.2368 24.3836 32.6199 24.0038 31.1875 23.2441C29.7551 22.4845 28.6373 21.4319 27.8343 20.0863C27.0313 18.719 26.6298 17.1781 26.6298 15.4635C26.6298 13.749 27.0313 12.2189 27.8343 10.8733C28.6373 9.52771 29.7442 8.4751 31.1549 7.71549C32.5873 6.95588 34.2151 6.57607 36.0381 6.57607C37.7527 6.57607 39.2502 6.92333 40.5307 7.61783C41.8329 8.31233 42.8095 9.31068 43.4606 10.6129L40.3354 12.4359C39.8362 11.6329 39.2068 11.0361 38.4472 10.6454C37.7093 10.2331 36.8954 10.0269 36.0056 10.0269C34.4864 10.0269 33.2276 10.5261 32.2292 11.5244C31.2309 12.501 30.7317 13.8141 30.7317 15.4635C30.7317 17.113 31.22 18.4369 32.1967 19.4352C33.195 20.4119 34.4647 20.9002 36.0056 20.9002C36.8954 20.9002 37.7093 20.7049 38.4472 20.3142C39.2068 19.9018 39.8362 19.2942 40.3354 18.4911L43.4606 20.3142C42.7878 21.6164 41.8003 22.6256 40.4982 23.3418C39.2177 24.0363 37.731 24.3836 36.0381 24.3836Z" fill="#343159"/>
<path d="M63.8092 6.7714V24.1557H59.9352V21.9419C59.2841 22.7233 58.4702 23.331 57.4935 23.765C56.5169 24.1774 55.4643 24.3836 54.3357 24.3836C52.0135 24.3836 50.1796 23.7433 48.834 22.4628C47.5101 21.1606 46.8481 19.2399 46.8481 16.7006V6.7714H50.9175V16.1472C50.9175 17.7098 51.2647 18.8818 51.9592 19.6631C52.6754 20.4227 53.6846 20.8025 54.9868 20.8025C56.4409 20.8025 57.5912 20.3576 58.4376 19.4678C59.3058 18.5562 59.7398 17.2541 59.7398 15.5612V6.7714H63.8092Z" fill="#343159"/>
<path d="M73.0113 9.31068C74.1832 7.48761 76.245 6.57607 79.1967 6.57607V10.4501C78.8494 10.385 78.5347 10.3524 78.2526 10.3524C76.6682 10.3524 75.4312 10.8191 74.5413 11.7523C73.6515 12.6638 73.2066 13.9877 73.2066 15.724V24.1557H69.1372V6.7714H73.0113V9.31068Z" fill="#343159"/>
<path d="M98.8323 15.5612C98.8323 15.8433 98.8106 16.2449 98.7672 16.7657H85.1267C85.3655 18.0462 85.984 19.0663 86.9824 19.8259C88.0024 20.5638 89.2612 20.9327 90.7587 20.9327C92.6686 20.9327 94.2421 20.3034 95.4792 19.0446L97.6603 21.5513C96.879 22.4845 95.8915 23.1899 94.6978 23.6674C93.5042 24.1448 92.1586 24.3836 90.6611 24.3836C88.7512 24.3836 87.0692 24.0038 85.6151 23.2441C84.1609 22.4845 83.0324 21.4319 82.2294 20.0863C81.448 18.719 81.0574 17.1781 81.0574 15.4635C81.0574 13.7707 81.4372 12.2515 82.1968 10.9059C82.9781 9.53856 84.0524 8.4751 85.4197 7.71549C86.787 6.95588 88.328 6.57607 90.0425 6.57607C91.7354 6.57607 93.2437 6.95588 94.5676 7.71549C95.9132 8.4534 96.955 9.50601 97.6929 10.8733C98.4525 12.2189 98.8323 13.7815 98.8323 15.5612ZM90.0425 9.83155C88.7403 9.83155 87.6335 10.2222 86.7219 11.0035C85.8321 11.7631 85.2895 12.7832 85.0942 14.0637H94.9583C94.7847 12.8049 94.2529 11.7848 93.3631 11.0035C92.4733 10.2222 91.3664 9.83155 90.0425 9.83155Z" fill="#343159"/>
<path d="M102.741 0H106.811V24.1557H102.741V0Z" fill="#343159"/>
<path d="M112.152 0H116.221V24.1557H112.152V0Z" fill="#343159"/>
<path d="M138.556 6.7714V24.1557H134.682V21.9094C134.009 22.7341 133.173 23.3527 132.175 23.765C131.198 24.1774 130.113 24.3836 128.919 24.3836C127.226 24.3836 125.707 24.0146 124.362 23.2767C123.038 22.5388 121.996 21.497 121.236 20.1514C120.498 18.8058 120.13 17.2432 120.13 15.4635C120.13 13.6839 120.498 12.1321 121.236 10.8082C121.996 9.4626 123.038 8.42085 124.362 7.68294C125.707 6.94503 127.226 6.57607 128.919 6.57607C130.048 6.57607 131.079 6.7714 132.012 7.16206C132.967 7.55272 133.792 8.12785 134.486 8.88747V6.7714H138.556ZM129.375 20.9002C130.873 20.9002 132.11 20.401 133.086 19.4027C134.063 18.4043 134.551 17.0913 134.551 15.4635C134.551 13.8358 134.063 12.5228 133.086 11.5244C132.11 10.5261 130.873 10.0269 129.375 10.0269C127.878 10.0269 126.64 10.5261 125.664 11.5244C124.709 12.5228 124.231 13.8358 124.231 15.4635C124.231 17.0913 124.709 18.4043 125.664 19.4027C126.64 20.401 127.878 20.9002 129.375 20.9002Z" fill="#343159"/>
<path fill-rule="evenodd" clip-rule="evenodd" d="M4.36235 24.1557H0L10.2548 1.3673H14.4218L24.7091 24.1557H20.2817L18.0028 18.8818L5.40229 21.7141L4.36235 24.1557ZM12.3057 5.59943L16.603 15.5612L7.14227 17.6447L12.3057 5.59943Z" fill="#343159"/>
<path d="M102.548 34.9808H106.222V33.9877H103.761V29.2837H102.548V34.9808Z" fill="#343159"/>
<path d="M109.029 29.2837H107.815V34.9808H109.029V29.2837Z" fill="#343159"/>
<path d="M110.817 29.2837V34.9808H111.994V31.2588H112.042L113.527 34.953H114.329L115.815 31.2727H115.862V34.9808H117.04V29.2837H115.543L113.962 33.1114H113.895L112.314 29.2837H110.817Z" fill="#343159"/>
<path d="M120.043 29.2837H118.829V34.9808H120.043V29.2837Z" fill="#343159"/>
<path d="M121.612 30.2768H123.369V34.9808H124.569V30.2768H126.326V29.2837H121.612V30.2768Z" fill="#343159"/>
<path d="M127.892 34.9808H131.771V33.9877H129.106V32.6274H131.561V31.6343H129.106V30.2768H131.76V29.2837H127.892V34.9808Z" fill="#343159"/>
<path d="M135.549 34.9808C137.298 34.9808 138.358 33.907 138.358 32.1267C138.358 30.3519 137.298 29.2837 135.566 29.2837H133.514V34.9808H135.549ZM134.728 33.9487V30.3157H135.502C136.578 30.3157 137.147 30.861 137.147 32.1267C137.147 33.3979 136.578 33.9487 135.499 33.9487H134.728Z" fill="#343159"/>
</svg>
