<svg width="156" height="22" viewBox="0 0 156 22" fill="none" xmlns="http://www.w3.org/2000/svg">
<path d="M35.6556 22C33.8734 22 32.2736 21.637 30.8565 20.9109C29.4393 20.1848 28.3334 19.1787 27.5389 17.8925C26.7444 16.5856 26.3472 15.1127 26.3472 13.4738C26.3472 11.835 26.7444 10.3725 27.5389 9.08628C28.3334 7.80009 29.4285 6.79397 30.8242 6.06789C32.2414 5.34182 33.8519 4.97878 35.6556 4.97878C37.3519 4.97878 38.8335 5.3107 40.1004 5.97454C41.3888 6.63838 42.3551 7.59265 42.9992 8.83734L39.9072 10.5799C39.4133 9.81235 38.7906 9.24187 38.0391 8.86846C37.309 8.47431 36.5038 8.27723 35.6234 8.27723C34.1203 8.27723 32.8749 8.75436 31.8871 9.70863C30.8994 10.6422 30.4055 11.8972 30.4055 13.4738C30.4055 15.0504 30.8887 16.3159 31.8549 17.2702C32.8427 18.2037 34.0988 18.6704 35.6234 18.6704C36.5038 18.6704 37.309 18.4837 38.0391 18.1103C38.7906 17.7162 39.4133 17.1353 39.9072 16.3678L42.9992 18.1103C42.3336 19.355 41.3566 20.3197 40.0682 21.0042C38.8013 21.6681 37.3305 22 35.6556 22Z" fill="#343159"/>
<path d="M63.1316 5.16549V21.7822H59.2988V19.6662C58.6546 20.413 57.8494 20.9939 56.8831 21.4088C55.9168 21.8029 54.8754 22 53.7588 22C51.4612 22 49.6468 21.388 48.3155 20.1641C47.0057 18.9194 46.3507 17.0835 46.3507 14.6563V5.16549H50.3769V14.1273C50.3769 15.6209 50.7204 16.7412 51.4076 17.488C52.1162 18.2141 53.1146 18.5771 54.403 18.5771C55.8417 18.5771 56.9797 18.1518 57.8172 17.3013C58.6761 16.43 59.1055 15.1853 59.1055 13.5672V5.16549H63.1316Z" fill="#343159"/>
<path d="M72.236 7.59265C73.3955 5.85007 75.4354 4.97878 78.3557 4.97878V8.68175C78.0121 8.61952 77.7008 8.5884 77.4216 8.5884C75.8541 8.5884 74.6302 9.03442 73.7498 9.92645C72.8694 10.7977 72.4292 12.0632 72.4292 13.7228V21.7822H68.4031V5.16549H72.236V7.59265Z" fill="#343159"/>
<path d="M97.7828 13.5672C97.7828 13.8369 97.7613 14.2207 97.7183 14.7185H84.2228C84.459 15.9425 85.0709 16.9175 86.0587 17.6436C87.0679 18.3489 88.3133 18.7016 89.7949 18.7016C91.6845 18.7016 93.2413 18.1 94.4652 16.8967L96.6232 19.2928C95.8502 20.1848 94.8732 20.859 93.6922 21.3154C92.5112 21.7718 91.1799 22 89.6983 22C87.8087 22 86.1446 21.637 84.7059 20.9109C83.2672 20.1848 82.1507 19.1787 81.3562 17.8925C80.5831 16.5856 80.1966 15.1127 80.1966 13.4738C80.1966 11.8557 80.5724 10.4036 81.3239 9.1174C82.097 7.81047 83.1599 6.79397 84.5126 6.06789C85.8654 5.34182 87.39 4.97878 89.0863 4.97878C90.7612 4.97878 92.2535 5.34182 93.5634 6.06789C94.8947 6.77322 95.9254 7.77935 96.6554 9.08628C97.407 10.3725 97.7828 11.8661 97.7828 13.5672ZM89.0863 8.09052C87.798 8.09052 86.7029 8.46393 85.801 9.21075C84.9206 9.93682 84.3838 10.9118 84.1906 12.1358H93.9499C93.7781 10.9326 93.252 9.95757 92.3716 9.21075C91.4913 8.46393 90.3961 8.09052 89.0863 8.09052Z" fill="#343159"/>
<path d="M101.65 0H105.676V21.7822H101.65V0Z" fill="#343159"/>
<path d="M110.961 0H114.987V21.7822H110.961V0Z" fill="#343159"/>
<path d="M137.084 5.16549V21.7822H133.251V19.6351C132.586 20.4234 131.759 21.0146 130.771 21.4088C129.805 21.8029 128.731 22 127.55 22C125.875 22 124.372 21.6473 123.041 20.942C121.731 20.2367 120.7 19.2409 119.949 17.9547C119.219 16.6686 118.854 15.1749 118.854 13.4738C118.854 11.7727 119.219 10.2895 119.949 9.02405C120.7 7.73786 121.731 6.7421 123.041 6.03678C124.372 5.33145 125.875 4.97878 127.55 4.97878C128.667 4.97878 129.687 5.16549 130.61 5.5389C131.555 5.91231 132.371 6.46205 133.058 7.18812V5.16549H137.084ZM128.001 18.6704C129.483 18.6704 130.707 18.1933 131.673 17.239C132.639 16.2848 133.122 15.0297 133.122 13.4738C133.122 11.918 132.639 10.6629 131.673 9.70863C130.707 8.75436 129.483 8.27723 128.001 8.27723C126.519 8.27723 125.296 8.75436 124.329 9.70863C123.384 10.6629 122.912 11.918 122.912 13.4738C122.912 15.0297 123.384 16.2848 124.329 17.239C125.296 18.1933 126.519 18.6704 128.001 18.6704Z" fill="#343159"/>
<path d="M142.807 0H143.897V3.69322H146.26V4.5515H142.807V0Z" fill="#343159"/>
<path d="M147.741 0.858283H146.233V0H150.339V0.858283H148.831V4.5515H147.741V0.858283Z" fill="#343159"/>
<path d="M151.262 0H153.402C153.914 0 154.365 0.0953649 154.755 0.286095C155.15 0.472489 155.455 0.73691 155.67 1.07936C155.89 1.4218 156 1.8206 156 2.27575C156 2.7309 155.89 3.1297 155.67 3.47214C155.455 3.81459 155.15 4.08118 154.755 4.27191C154.365 4.4583 153.914 4.5515 153.402 4.5515H151.262V0ZM153.348 3.68672C153.819 3.68672 154.194 3.56101 154.472 3.30959C154.755 3.05384 154.896 2.70923 154.896 2.27575C154.896 1.84227 154.755 1.49983 154.472 1.24841C154.194 0.992661 153.819 0.864785 153.348 0.864785H152.352V3.68672H153.348Z" fill="#343159"/>
<path fill-rule="evenodd" clip-rule="evenodd" d="M4.31601 21.7822H0L10.1458 0H14.2686L24.4466 21.7822H20.0662L18.0587 17.2699L4.79386 20.7037L4.31601 21.7822ZM12.175 4.04526L16.4871 13.7375L6.61288 16.5984L12.175 4.04526Z" fill="#343159"/>
</svg>
