<svg width="145" height="49" viewBox="0 0 145 49" fill="none" xmlns="http://www.w3.org/2000/svg">
<g clip-path="url(#clip0)">
<path fill-rule="evenodd" clip-rule="evenodd" d="M22.145 0.353844C19.4169 0.849851 16.4446 1.9708 14.0691 3.39991C11.6579 4.85026 8.22797 8.00074 6.66235 10.2034C5.27881 12.1498 3.67618 15.4833 3.02697 17.7649C2.64243 19.1169 2.33545 19.6746 1.67516 20.2209C0.659285 21.0615 0 22.35 0 23.4947C0 24.5793 0.868805 26.3578 1.64922 26.871C1.98868 27.0942 2.26645 27.4802 2.26645 27.7288C2.26645 28.8684 3.42586 32.6683 4.42763 34.8121C5.85424 37.8648 7.26573 39.8271 9.74372 42.2029C13.2889 45.6019 17.5952 47.7991 22.3384 48.6295C35.5153 50.9364 48.0074 42.2404 50.6262 28.9379C50.8609 27.7452 51.1084 27.2694 51.8752 26.5363C53.9463 24.5565 53.6421 21.42 51.2343 19.9261C50.7564 19.6296 50.3655 19.1887 50.3655 18.9465C50.3655 18.7041 50.0983 17.7179 49.772 16.7549C46.8745 8.20981 39.5478 1.87144 30.7973 0.339434C28.1818 -0.118398 24.7108 -0.112584 22.145 0.353844ZM32.2707 1.19847C40.3735 3.30005 46.9437 9.47966 49.3293 17.2428C49.9933 19.4033 49.9923 19.4284 49.2575 19.4284C48.7264 19.4284 48.5763 19.1912 48.0172 17.4691C45.6115 10.0571 39.4138 4.30117 31.8562 2.45998C29.044 1.77512 24.7061 1.72026 21.946 2.33484C15.0336 3.87392 9.31108 8.47854 6.30879 14.9173C5.76786 16.0774 5.19017 17.5672 5.02522 18.2275C4.754 19.3126 4.65503 19.4284 3.99928 19.4284C3.10906 19.4284 3.10252 19.264 3.90006 16.9099C6.29267 9.8485 11.8661 4.21749 18.8211 1.83554C20.1732 1.3724 22.016 0.881452 22.9163 0.744178C25.3019 0.380642 29.997 0.608673 32.2707 1.19847ZM32.3599 3.115C34.7706 3.7819 38.3312 5.64053 40.4025 7.31336C43.5951 9.89173 46.4257 14.0772 47.6093 17.9694L48.0497 19.4177L47.0291 19.9919C45.7342 20.7204 45.0772 21.9423 45.0772 23.6217C45.0772 25.5458 45.9366 26.6273 48.3003 27.6779C48.4992 27.7664 47.5128 31.2802 46.8503 32.8433C44.3907 38.6452 39.4644 43.2425 33.619 45.1904C29.448 46.58 25.907 46.7287 21.4555 45.7008C15.0817 44.2289 9.71073 39.7699 6.81446 33.5461C5.91543 31.6136 5.02724 28.8264 5.0431 27.9874C5.04663 27.7988 5.50092 27.4357 6.05243 27.1804C6.70995 26.876 7.27152 26.3459 7.68276 25.6413C8.98723 23.407 8.22419 21.0761 5.6903 19.5548C5.30248 19.3219 5.31709 19.1619 5.87237 17.5323C7.45309 12.8948 9.75983 9.70693 13.6541 6.77741C16.0472 4.97717 18.3179 3.87873 21.2794 3.08921C23.3001 2.55023 23.9418 2.49638 27.1974 2.59093C29.5054 2.65792 31.4049 2.85081 32.3599 3.115ZM61.446 6.25207C61.446 6.4078 61.7139 6.53522 62.0415 6.53522C62.3692 6.53522 62.9358 6.77109 63.3007 7.05929L63.9642 7.5831V12.5732C63.9642 17.2456 63.9315 17.5985 63.4508 18.1165C63.1458 18.4452 62.6343 18.6699 62.1916 18.6699C61.7814 18.6699 61.446 18.7837 61.446 18.9227C61.446 19.0807 62.9569 19.1755 65.4752 19.1755C67.9935 19.1755 69.5044 19.0807 69.5044 18.9227C69.5044 18.7837 69.1771 18.6699 68.7769 18.6699C68.3767 18.6699 67.7817 18.4525 67.4548 18.1868C66.9184 17.751 66.8517 17.4673 66.7729 15.2795L66.6857 12.8554H68.2078H69.7298L71.9416 16.0155L74.1537 19.1755H76.6286C78.2144 19.1755 79.0477 19.0848 78.948 18.9227C78.8624 18.7837 78.4743 18.6699 78.0857 18.6699C77.1313 18.6699 76.3058 17.9664 75.1408 16.1603C74.2882 14.8384 73.9897 14.5833 72.7752 14.1386C72.0109 13.8588 71.1635 13.4669 70.8923 13.268C70.4385 12.9348 70.5193 12.8923 71.9034 12.7348C72.7309 12.6407 73.993 12.4016 74.708 12.2034C77.8651 11.3279 78.2479 8.16279 75.3662 6.75946C74.2265 6.20429 73.8296 6.16814 67.8046 6.07132C63.2186 5.9975 61.446 6.04781 61.446 6.25207ZM80.5849 6.28241C80.5849 6.42145 80.8556 6.53522 81.1865 6.53522C81.5174 6.53522 82.0434 6.74277 82.3555 6.99634C82.8508 7.39906 82.954 7.81998 83.1668 10.3053C83.4834 13.9996 83.2338 17.1708 82.5592 18.0321C82.2323 18.4492 81.8092 18.6699 81.3368 18.6699C80.9397 18.6699 80.5446 18.7837 80.4589 18.9227C80.3577 19.0873 81.7156 19.1755 84.3474 19.1755C86.8755 19.1755 88.3915 19.0807 88.3915 18.9227C88.3915 18.7837 88.0599 18.6699 87.6544 18.6699C87.1578 18.6699 86.7466 18.4525 86.3953 18.0038C85.909 17.3834 85.8732 17.0108 85.8732 12.5571C85.8732 7.81821 85.8788 7.77094 86.4915 7.15586C86.8314 6.81457 87.398 6.53522 87.7506 6.53522C88.1032 6.53522 88.3915 6.42145 88.3915 6.28241C88.3915 6.12466 86.9226 6.0296 84.4882 6.0296C82.0538 6.0296 80.5849 6.12466 80.5849 6.28241ZM89.9025 6.28241C89.9025 6.42145 90.1379 6.53522 90.4255 6.53522C91.4301 6.53522 92.323 7.95473 94.9174 13.677C96.3518 16.8404 97.6021 19.4284 97.6958 19.4284C97.7897 19.4284 98.8532 17.1814 100.059 14.4354C102.908 7.94841 103.146 7.53734 104.436 6.88283C105.018 6.5873 105.424 6.27457 105.337 6.18761C105.112 5.96135 100.479 5.99143 100.481 6.21921C100.482 6.32362 100.818 6.60019 101.227 6.83429C102.497 7.55959 102.442 8.14635 100.724 12.1367C99.865 14.1308 99.0786 15.8542 98.9761 15.9659C98.7109 16.2554 95.1909 8.44745 95.1909 7.56996C95.1909 6.80193 95.553 6.53522 96.5966 6.53522C96.9315 6.53522 97.2055 6.42145 97.2055 6.28241C97.2055 6.12542 95.8204 6.0296 93.554 6.0296C91.2875 6.0296 89.9025 6.12542 89.9025 6.28241ZM106.652 6.27837C106.56 6.42727 106.771 6.53522 107.154 6.53522C108.958 6.53522 109.29 7.50802 109.292 12.8003C109.293 17.5149 109.093 18.1792 107.493 18.7468C106.458 19.1141 106.79 19.1366 113.511 19.1556L120.625 19.1755V16.5211C120.625 15.0611 120.539 13.8666 120.433 13.8666C120.327 13.8666 120.047 14.4132 119.81 15.0813C119.298 16.5297 117.881 18.0331 116.641 18.4439C116.149 18.607 114.889 18.7531 113.842 18.7685L111.937 18.7963L111.866 15.9475C111.785 12.7158 111.895 12.53 113.517 13.1496C114.611 13.5678 115.533 14.8189 115.75 16.1805C115.835 16.7104 116.003 17.0823 116.124 17.0072C116.436 16.8136 116.406 8.87848 116.093 8.68407C115.954 8.59812 115.841 8.76573 115.841 9.05646C115.841 10.7882 114.276 12.6026 112.782 12.6026H111.811V9.5689V6.53522L113.763 6.53674C114.836 6.53749 116.129 6.65328 116.634 6.79434C117.844 7.13159 119.033 8.38525 119.562 9.88035C119.796 10.5432 120.079 11.0857 120.19 11.0857C120.301 11.0857 120.36 9.97642 120.32 8.62087L120.248 6.15601L113.529 6.08876C109.177 6.04503 106.754 6.11202 106.652 6.27837ZM122.282 6.25081C122.207 6.37241 122.591 6.54356 123.135 6.63078C124.801 6.8985 124.907 7.2499 124.907 12.5518V17.192L124.17 17.931C123.747 18.3565 123.165 18.6699 122.8 18.6699C122.451 18.6699 122.096 18.7837 122.011 18.9227C121.91 19.0866 123.062 19.1755 125.284 19.1755C127.506 19.1755 128.659 19.0866 128.558 18.9227C128.472 18.7837 128.131 18.6699 127.8 18.6699C126.953 18.6699 126.076 18.2247 125.648 17.5776C125.221 16.9306 124.945 8.05206 125.353 8.05206C125.482 8.05206 127.996 10.5548 130.939 13.6138C133.882 16.6728 136.392 19.1755 136.516 19.1755C136.643 19.1755 136.742 16.8505 136.742 13.904C136.742 8.84309 136.765 8.59812 137.314 7.77346C137.65 7.26962 138.223 6.81432 138.699 6.67249C140.203 6.22528 139.531 6.0296 136.491 6.0296C134.644 6.0296 133.469 6.12795 133.469 6.28241C133.469 6.42145 133.707 6.53522 133.997 6.53522C134.288 6.53522 134.912 6.92201 135.383 7.39476L136.239 8.2543V11.8262V15.3981L133.028 12.0555C131.262 10.2168 129.237 8.10894 128.528 7.37125L127.238 6.0296H124.828C123.503 6.0296 122.357 6.12921 122.282 6.25081ZM72.6437 6.89446C74.3776 7.62178 74.8031 10.1782 73.4216 11.5668C72.8024 12.189 72.61 12.2279 69.7512 12.3078L66.7343 12.392V9.46373V6.53522H69.2607C70.8744 6.53522 72.0965 6.66491 72.6437 6.89446ZM7.44604 17.8837C7.33624 18.0622 7.51403 18.1643 7.93433 18.1643C9.73465 18.1643 10.0698 19.1396 10.0716 24.3836C10.0736 29.3609 9.73692 30.299 7.94919 30.299C7.59386 30.299 7.303 30.4128 7.303 30.5518C7.303 30.7098 8.81397 30.8046 11.3322 30.8046C13.8505 30.8046 15.3615 30.7098 15.3615 30.5518C15.3615 30.4128 15.0706 30.299 14.7153 30.299C13.1562 30.299 12.5952 29.2135 12.5929 26.1909L12.5914 24.4845L14.1653 24.4941L15.7392 24.5034L17.8921 27.591L20.045 30.6782L22.5086 30.7508C24.1626 30.7996 24.9191 30.7374 24.8108 30.5612C24.7219 30.4171 24.3653 30.299 24.0181 30.299C23.0065 30.299 22.5721 29.9337 21.1787 27.91C20.4557 26.8604 19.7043 26.0013 19.5088 26.0013C19.3132 26.0013 18.4985 25.6992 17.6982 25.3301C16.2492 24.662 16.2462 24.6582 16.9984 24.4754C17.4139 24.3743 18.1585 24.2779 18.6534 24.2615C19.9757 24.2175 21.7851 23.5289 22.5225 22.7887C23.3442 21.9637 23.4147 20.3167 22.6693 19.3654C21.6227 18.0296 20.5731 17.8339 13.8195 17.7136C9.43926 17.6354 7.56818 17.6855 7.44604 17.8837ZM31.9806 17.8802C29.8761 18.5716 28.1858 20.1698 27.4283 22.1845C25.3774 27.6398 31.0159 32.4765 37.2206 30.5845C39.1443 29.9977 40.1761 29.9057 40.4183 30.299C40.504 30.4381 40.7256 30.5518 40.9109 30.5518C41.159 30.5518 41.2715 29.9863 41.3368 28.4118C41.436 26.0251 41.6845 25.5776 43.0975 25.2427C43.6128 25.1203 42.1698 25.0457 39.411 25.0515C36.756 25.0573 35.4384 25.1291 36.2304 25.2252C37.9278 25.431 38.5296 26.0759 38.5296 27.6893C38.5296 28.3087 38.413 29.0342 38.2703 29.3017C37.8432 30.1031 36.5105 30.6358 34.8781 30.6575C32.8691 30.6841 31.8109 30.0718 30.9748 28.3987C30.4155 27.2798 30.346 26.828 30.352 24.3561C30.3581 21.9091 30.4341 21.4225 30.9816 20.3243C31.7522 18.7786 32.5903 18.1474 34.097 17.977C36.5112 17.7037 39.0794 19.3973 40.3226 22.0828L41.0247 23.5997L41.0363 20.7556C41.0426 19.1915 40.9598 17.9115 40.852 17.9115C40.7442 17.9115 40.4622 18.139 40.2249 18.4171C39.6704 19.0671 39.0184 19.056 37.7011 18.3734C36.5528 17.7785 33.176 17.4876 31.9806 17.8802ZM18.7511 18.5557C20.1059 19.2011 20.5794 21.1409 19.767 22.7176C19.253 23.7154 18.0535 24.0279 15.1097 23.9311L12.7173 23.8525L12.6448 21.3424C12.6047 19.9618 12.6294 18.6821 12.6997 18.4983C12.8926 17.9942 17.6675 18.0394 18.7511 18.5557ZM4.42285 27.8638C4.43166 27.8822 4.63313 28.7506 4.87085 29.7934C5.32616 31.7916 7.28915 36.1348 8.41281 37.6304C9.56467 39.1637 12.1542 41.6872 13.7649 42.8461C19.9067 47.2656 28.7096 48.1515 35.6905 45.0523C41.8596 42.3134 46.7118 36.5684 48.402 30.0017C48.8818 28.1383 49.053 27.792 49.5403 27.6984C50.0246 27.6054 50.1137 27.6964 50.1137 28.2834C50.1137 29.3652 48.9342 33.1884 48.0646 34.9246C44.7352 41.5724 38.7387 46.3237 31.6406 47.9374C29.1898 48.4943 23.6388 48.4837 21.3457 47.9176C14.2779 46.1725 8.74648 41.8743 5.42084 35.543C4.3332 33.4725 3.2239 30.2965 2.94286 28.449L2.79629 27.4838L3.60164 27.657C4.0446 27.752 4.41404 27.8453 4.42285 27.8638ZM60.6905 29.1882C57.9065 30.202 56.1812 32.3106 55.9697 34.958C55.7413 37.8119 56.9858 40.0452 59.5346 41.3555C61.3686 42.2985 64.3175 42.4477 66.4535 41.7054C68.272 41.0737 68.4163 41.0645 69.2977 41.5262C69.6689 41.7206 70.037 41.8146 70.1161 41.7352C70.1952 41.6559 70.2599 40.7 70.2599 39.6107C70.2599 37.9674 70.3455 37.5445 70.7636 37.1248C71.0406 36.8467 71.4657 36.6174 71.7079 36.6154C71.9502 36.6131 72.3186 36.5011 72.5264 36.3664C72.7772 36.2036 71.3813 36.1293 68.3712 36.1452C65.2269 36.1616 64.1627 36.2332 64.8968 36.3788C65.479 36.4943 66.1783 36.7084 66.4505 36.8548C67.0975 37.2024 67.5807 38.7076 67.384 39.7611C66.8466 42.6365 61.286 42.6499 59.8285 39.7793C59.1256 38.3957 58.9551 34.2373 59.5207 32.2841C60.2135 29.8918 62.0554 28.7921 64.4911 29.3164C66.5722 29.7644 68.9748 31.9933 69.3818 33.853C69.7175 35.3875 70.0081 34.508 70.0081 31.9572C70.0081 29.3374 69.7729 28.5645 69.2654 29.5163C68.8379 30.3185 68.1677 30.3491 66.586 29.639C64.6938 28.7895 62.2898 28.6057 60.6905 29.1882ZM98.2206 29.2825C92.1526 31.5398 91.8262 38.8871 97.6784 41.492C99.3022 42.2148 102.069 42.3625 103.791 41.8182C107.677 40.5895 109.731 36.9888 108.55 33.4733C108.08 32.0742 106.258 30.2126 104.688 29.5275C102.816 28.7104 100.041 28.6052 98.2206 29.2825ZM74.8349 29.3242C76.6261 29.8222 76.6815 30.0068 76.6815 35.4816C76.6815 40.9581 76.6236 41.151 74.8349 41.6291C74.1303 41.8174 74.8958 41.8766 78.0666 41.8791C81.1618 41.8816 81.9969 41.8207 81.3403 41.6397C79.8402 41.2263 79.5775 40.6795 79.5775 37.9689V35.5827L81.0205 35.6585L82.4637 35.7344L84.6091 38.8168L86.7546 41.8991L89.2729 41.889C91.6147 41.8793 91.7184 41.8581 90.7534 41.5874C89.4381 41.2183 89.2271 41.0319 87.8977 39.0638C86.94 37.6458 86.6461 37.3948 85.5207 37.0308C84.8143 36.8025 83.9531 36.3914 83.6068 36.1174L82.9772 35.6191L84.2364 35.6105C85.7292 35.6004 87.9176 35.0538 88.806 34.4693C89.1553 34.2398 89.6068 33.653 89.8098 33.1654C90.1495 32.349 90.1372 32.1926 89.6517 31.1861C88.7249 29.264 88.3084 29.1687 80.5849 29.1144C75.7012 29.0803 74.159 29.1364 74.8349 29.3242ZM102.256 29.2876C103.388 29.6031 104.324 30.5789 105.046 32.1951C105.495 33.1992 105.61 33.9134 105.604 35.6689C105.599 37.6079 105.507 38.0567 104.859 39.3298C104.326 40.3754 103.84 40.9399 103.118 41.3502C99.8436 43.2119 96.7018 40.3382 96.7018 35.4816C96.7018 32.5247 97.7497 30.3481 99.5729 29.5166C100.768 28.9721 101.041 28.9485 102.256 29.2876ZM111.937 29.3159C113.71 29.7209 113.825 30.0493 113.832 34.688C113.838 39.7093 114.094 40.5071 116.001 41.4493C117.078 41.9815 117.576 42.0545 120.122 42.0545C123.672 42.0545 124.711 41.6458 125.599 39.9006C126.109 38.8983 126.166 38.4207 126.169 35.112C126.172 32.7042 126.281 31.2187 126.485 30.8046C126.657 30.457 127.307 29.9213 127.929 29.6142L129.062 29.0557L125.788 29.0719C122.848 29.0863 122.614 29.1192 123.493 29.3922C125.57 30.0381 126.098 31.6361 125.85 36.5262C125.695 39.5684 125.302 40.4697 123.787 41.259C122.597 41.8786 120.258 42.0957 119.057 41.6978C118.58 41.5401 117.86 41.0651 117.456 40.6424L116.722 39.8738L116.642 35.5511C116.598 33.1737 116.628 30.9657 116.708 30.6446C116.882 29.9476 117.619 29.5037 118.989 29.2701C119.543 29.1756 117.956 29.0954 115.463 29.0921C112.18 29.0876 111.208 29.1493 111.937 29.3159ZM130.489 29.3199C132.234 29.8131 132.326 30.0799 132.418 34.9385C132.528 40.7539 132.356 41.2531 130.069 41.7583C129.792 41.8194 131.492 41.8713 133.846 41.8735C136.982 41.8763 137.858 41.8159 137.12 41.6473C135.548 41.288 135.231 40.7157 135.231 38.2344V36.1136L137.939 36.1121C141.291 36.1106 142.384 35.8181 143.599 34.5988C144.821 33.3719 144.915 32.0389 143.868 30.7897C142.633 29.3161 142.03 29.196 135.483 29.124C131.079 29.0757 129.802 29.1258 130.489 29.3199ZM84.74 29.5335C86.1772 29.8667 86.8805 30.7827 86.8805 32.3215C86.8805 34.6165 85.636 35.3375 81.6551 35.3491L79.5775 35.3552V32.3215V29.2878L81.6551 29.2939C82.7979 29.2972 84.186 29.4049 84.74 29.5335ZM139.279 29.5416C140.778 29.9598 141.401 30.8481 141.401 32.5682C141.401 34.9375 140.168 35.8608 137.002 35.8608H135.231V32.5743V29.2878L136.805 29.2893C137.671 29.2901 138.784 29.4036 139.279 29.5416Z" fill="white"/>
</g>
<defs>
<clipPath id="clip0">
<rect width="144.59" height="49" fill="white"/>
</clipPath>
</defs>
</svg>
