<svg width="201" height="49" viewBox="0 0 201 49" fill="none" xmlns="http://www.w3.org/2000/svg">
<path d="M149.228 16.7881H150.702C150.457 15.2202 149.099 14.1281 147.333 14.1281C145.242 14.1281 143.674 15.6648 143.674 18.239C143.674 20.7664 145.172 22.3344 147.375 22.3344C149.353 22.3344 150.769 21.0629 150.769 19.0035V18.044H147.528V19.1751H149.368C149.345 20.314 148.585 21.0356 147.383 21.0356C146.045 21.0356 145.129 20.0332 145.129 18.2234C145.129 16.4254 146.061 15.4269 147.352 15.4269C148.315 15.4269 148.971 15.9417 149.228 16.7881Z" fill="#343159"/>
<path d="M152.168 22.2252H157.133V21.0122H153.615V14.2373H152.168V22.2252Z" fill="#343159"/>
<path d="M165.216 18.2312C165.216 15.6492 163.64 14.1281 161.545 14.1281C159.447 14.1281 157.875 15.6492 157.875 18.2312C157.875 20.8094 159.447 22.3344 161.545 22.3344C163.64 22.3344 165.216 20.8133 165.216 18.2312ZM163.761 18.2312C163.761 20.0488 162.848 21.0356 161.545 21.0356C160.247 21.0356 159.33 20.0488 159.33 18.2312C159.33 16.4137 160.247 15.4269 161.545 15.4269C162.848 15.4269 163.761 16.4137 163.761 18.2312Z" fill="#343159"/>
<path d="M166.584 22.2252H169.817C171.646 22.2252 172.543 21.293 172.543 20.0488C172.543 18.8397 171.685 18.1298 170.835 18.0869V18.0089C171.615 17.8256 172.231 17.2796 172.231 16.3084C172.231 15.1188 171.373 14.2373 169.641 14.2373H166.584V22.2252ZM168.031 21.0161V18.6759H169.626C170.519 18.6759 171.073 19.2219 171.073 19.9357C171.073 20.5714 170.636 21.0161 169.587 21.0161H168.031ZM168.031 17.6345V15.4308H169.493C170.343 15.4308 170.784 15.8793 170.784 16.4956C170.784 17.1977 170.215 17.6345 169.462 17.6345H168.031Z" fill="#343159"/>
<path d="M174.828 22.2252L175.487 20.2555H178.49L179.153 22.2252H180.698L177.882 14.2373H176.095L173.283 22.2252H174.828ZM175.877 19.0932L176.957 15.8754H177.02L178.1 19.0932H175.877Z" fill="#343159"/>
<path d="M181.75 22.2252H186.715V21.0122H183.197V14.2373H181.75V22.2252Z" fill="#343159"/>
<path d="M143.877 34.4288H148.842V33.2158H145.324V26.441H143.877V34.4288Z" fill="#343159"/>
<path d="M156.924 30.4349C156.924 27.8529 155.349 26.3318 153.254 26.3318C151.156 26.3318 149.584 27.8529 149.584 30.4349C149.584 33.013 151.156 34.5381 153.254 34.5381C155.349 34.5381 156.924 33.0169 156.924 30.4349ZM155.47 30.4349C155.47 32.2525 154.557 33.2392 153.254 33.2392C151.955 33.2392 151.039 32.2525 151.039 30.4349C151.039 28.6174 151.955 27.6306 153.254 27.6306C154.557 27.6306 155.47 28.6174 155.47 30.4349Z" fill="#343159"/>
<path d="M163.644 28.9918H165.118C164.872 27.4239 163.515 26.3318 161.748 26.3318C159.658 26.3318 158.09 27.8685 158.09 30.4427C158.09 32.9701 159.587 34.5381 161.791 34.5381C163.768 34.5381 165.184 33.2665 165.184 31.2072V30.2477H161.943V31.3788H163.784C163.761 32.5177 163 33.2392 161.799 33.2392C160.461 33.2392 159.544 32.2369 159.544 30.4271C159.544 28.6291 160.477 27.6306 161.768 27.6306C162.731 27.6306 163.386 28.1454 163.644 28.9918Z" fill="#343159"/>
<path d="M168.031 26.441H166.584V34.4288H168.031V26.441Z" fill="#343159"/>
<path d="M173.939 28.6369H175.331C175.304 27.2874 174.153 26.3318 172.453 26.3318C170.775 26.3318 169.516 27.2757 169.52 28.6876C169.52 29.8343 170.335 30.4934 171.649 30.8327L172.558 31.0668C173.42 31.2852 173.989 31.5543 173.993 32.1745C173.989 32.857 173.342 33.3134 172.398 33.3134C171.493 33.3134 170.791 32.9077 170.733 32.0691H169.309C169.367 33.6566 170.549 34.5498 172.41 34.5498C174.325 34.5498 175.436 33.5942 175.44 32.1862C175.436 30.8015 174.294 30.1697 173.092 29.885L172.343 29.6978C171.688 29.5417 170.978 29.2648 170.986 28.5979C170.99 27.9972 171.528 27.5565 172.433 27.5565C173.295 27.5565 173.864 27.9582 173.939 28.6369Z" fill="#343159"/>
<path d="M176.379 27.654H178.848V34.4288H180.283V27.654H182.752V26.441H176.379V27.654Z" fill="#343159"/>
<path d="M185.428 26.441H183.981V34.4288H185.428V26.441Z" fill="#343159"/>
<path d="M193.832 29.1361C193.586 27.3615 192.221 26.3318 190.451 26.3318C188.364 26.3318 186.792 27.8529 186.792 30.4349C186.792 33.013 188.344 34.5381 190.451 34.5381C192.35 34.5381 193.61 33.3095 193.832 31.7844L192.373 31.7766C192.19 32.7127 191.426 33.2392 190.47 33.2392C189.175 33.2392 188.247 32.2681 188.247 30.4349C188.247 28.633 189.167 27.6306 190.474 27.6306C191.445 27.6306 192.206 28.1805 192.373 29.1361H193.832Z" fill="#343159"/>
<path d="M199.498 28.6369H200.891C200.863 27.2874 199.713 26.3318 198.012 26.3318C196.335 26.3318 195.075 27.2757 195.079 28.6876C195.079 29.8343 195.894 30.4934 197.209 30.8327L198.118 31.0668C198.98 31.2852 199.549 31.5543 199.553 32.1745C199.549 32.857 198.902 33.3134 197.958 33.3134C197.053 33.3134 196.351 32.9077 196.292 32.0691H194.869C194.927 33.6566 196.109 34.5498 197.969 34.5498C199.885 34.5498 200.996 33.5942 201 32.1862C200.996 30.8015 199.853 30.1697 198.652 29.885L197.903 29.6978C197.248 29.5417 196.538 29.2648 196.546 28.5979C196.55 27.9972 197.088 27.5565 197.993 27.5565C198.855 27.5565 199.424 27.9582 199.498 28.6369Z" fill="#343159"/>
<path fill-rule="evenodd" clip-rule="evenodd" d="M129.055 47.2426V0.258485H130.275V47.2426H129.055Z" fill="#343159"/>
<path d="M30.1172 28.449H17.4059L14.7747 34.4288H11.2552L22.0872 10.5096H25.47L36.3362 34.4288H32.7483L30.1172 28.449ZM28.9212 25.7154L23.7615 13.995L18.6018 25.7154H28.9212Z" fill="#343159"/>
<path d="M56.5834 16.3186V31.9685C56.5834 35.135 55.7975 37.47 54.2257 38.9735C52.6538 40.4997 50.3075 41.2629 47.1866 41.2629C45.4781 41.2629 43.8493 41.0237 42.3002 40.5453C40.7512 40.0897 39.4983 39.4291 38.5415 38.5634L40.1133 36.0348C40.9562 36.7638 41.9927 37.3333 43.2228 37.7433C44.4758 38.1762 45.7628 38.3926 47.0841 38.3926C49.2026 38.3926 50.7631 37.8914 51.7654 36.8891C52.7905 35.8867 53.3031 34.3605 53.3031 32.3102V30.8751C52.5286 31.8091 51.5718 32.5153 50.4328 32.9937C49.3165 33.4493 48.0978 33.6771 46.7766 33.6771C45.0453 33.6771 43.4734 33.3126 42.0611 32.5836C40.6715 31.8319 39.578 30.7954 38.7807 29.4741C37.9834 28.1301 37.5847 26.6038 37.5847 24.8953C37.5847 23.1868 37.9834 21.6719 38.7807 20.3506C39.578 19.0066 40.6715 17.9701 42.0611 17.2411C43.4734 16.5122 45.0453 16.1477 46.7766 16.1477C48.1434 16.1477 49.4077 16.3983 50.5695 16.8994C51.754 17.4006 52.7222 18.141 53.4739 19.1205V16.3186H56.5834ZM47.1524 30.8068C48.337 30.8068 49.3963 30.5562 50.3303 30.055C51.287 29.5538 52.0274 28.859 52.5513 27.9706C53.0981 27.0594 53.3714 26.0343 53.3714 24.8953C53.3714 23.1412 52.7905 21.7288 51.6287 20.6582C50.4669 19.5647 48.9748 19.018 47.1524 19.018C45.3072 19.018 43.8037 19.5647 42.6419 20.6582C41.4802 21.7288 40.8993 23.1412 40.8993 24.8953C40.8993 26.0343 41.1612 27.0594 41.6852 27.9706C42.2319 28.859 42.9723 29.5538 43.9063 30.055C44.863 30.5562 45.9451 30.8068 47.1524 30.8068Z" fill="#343159"/>
<path d="M70.6079 34.6338C68.8083 34.6338 67.1909 34.2352 65.7558 33.4379C64.3206 32.6406 63.193 31.5471 62.3729 30.1575C61.5756 28.7451 61.1769 27.1505 61.1769 25.3737C61.1769 23.5968 61.5756 22.0136 62.3729 20.624C63.193 19.2116 64.3206 18.1182 65.7558 17.3437C67.1909 16.5464 68.8083 16.1477 70.6079 16.1477C72.4076 16.1477 74.0136 16.5464 75.4259 17.3437C76.8611 18.1182 77.9773 19.2116 78.7746 20.624C79.5947 22.0136 80.0048 23.5968 80.0048 25.3737C80.0048 27.1505 79.5947 28.7451 78.7746 30.1575C77.9773 31.5471 76.8611 32.6406 75.4259 33.4379C74.0136 34.2352 72.4076 34.6338 70.6079 34.6338ZM70.6079 31.7635C71.7697 31.7635 72.8062 31.5016 73.7174 30.9776C74.6514 30.4309 75.3804 29.6791 75.9043 28.7224C76.4283 27.7428 76.6902 26.6266 76.6902 25.3737C76.6902 24.1208 76.4283 23.0159 75.9043 22.0592C75.3804 21.0796 74.6514 20.3279 73.7174 19.8039C72.8062 19.28 71.7697 19.018 70.6079 19.018C69.4461 19.018 68.3983 19.28 67.4643 19.8039C66.5531 20.3279 65.8241 21.0796 65.2774 22.0592C64.7534 23.0159 64.4915 24.1208 64.4915 25.3737C64.4915 26.6266 64.7534 27.7428 65.2774 28.7224C65.8241 29.6791 66.5531 30.4309 67.4643 30.9776C68.3983 31.5016 69.4461 31.7635 70.6079 31.7635Z" fill="#343159"/>
<path d="M87.6851 19.3597C88.2546 18.3118 89.0974 17.5145 90.2137 16.9678C91.3299 16.4211 92.6853 16.1477 94.2799 16.1477V19.3255C94.0977 19.3028 93.8471 19.2914 93.5282 19.2914C91.7513 19.2914 90.3504 19.8267 89.3252 20.8974C88.3229 21.9453 87.8218 23.4488 87.8218 25.4079V34.4288H84.5414V16.3186H87.6851V19.3597Z" fill="#343159"/>
<path d="M104.884 16.1477C107.39 16.1477 109.304 16.7628 110.625 17.9929C111.969 19.223 112.641 21.0568 112.641 23.4943V34.4288H109.532V32.0369C108.985 32.8798 108.199 33.529 107.174 33.9846C106.172 34.4174 104.976 34.6338 103.586 34.6338C101.559 34.6338 99.9298 34.1441 98.6997 33.1645C97.4923 32.185 96.8886 30.8979 96.8886 29.3033C96.8886 27.7086 97.4695 26.433 98.6313 25.4762C99.7931 24.4966 101.638 24.0069 104.167 24.0069H109.361V23.3576C109.361 21.9453 108.951 20.8632 108.131 20.1115C107.311 19.3597 106.103 18.9838 104.509 18.9838C103.438 18.9838 102.39 19.1661 101.365 19.5306C100.34 19.8723 99.4742 20.3393 98.768 20.9315L97.4012 18.4713C98.3352 17.7195 99.4514 17.15 100.75 16.7628C102.048 16.3527 103.427 16.1477 104.884 16.1477ZM104.133 32.1052C105.386 32.1052 106.468 31.8319 107.379 31.2851C108.29 30.7156 108.951 29.9183 109.361 28.8932V26.3646H104.304C101.524 26.3646 100.135 27.2986 100.135 29.1666C100.135 30.0778 100.488 30.7954 101.194 31.3193C101.9 31.8433 102.88 32.1052 104.133 32.1052Z" fill="#343159"/>
<path fill-rule="evenodd" clip-rule="evenodd" d="M24.5045 3.05485C12.8803 2.83273 3.27697 12.076 3.05485 23.7002C2.83273 35.3244 12.076 44.9277 23.7002 45.1498C27.8938 45.23 31.8201 44.0797 35.1398 42.0313L36.7419 44.6278C32.9387 46.9744 28.4384 48.2919 23.6419 48.2002C10.333 47.9459 -0.24982 36.9508 0.004489 23.6419C0.258798 10.333 11.2539 -0.24982 24.5628 0.00448899C32.211 0.150633 38.9595 3.84563 43.2654 9.48256L40.8409 11.3346C37.0755 6.40517 31.1832 3.18247 24.5045 3.05485Z" fill="#343159"/>
</svg>
