<svg width="186" height="23" viewBox="0 0 186 23" fill="none" xmlns="http://www.w3.org/2000/svg">
<path d="M0 15.9425H2.92218V17.5808C2.92218 18.379 3.35627 19.0196 4.22445 19.5027C5.11381 19.9648 6.17257 20.1959 7.40073 20.1959C8.73477 20.1959 9.80412 19.9018 10.6088 19.3137C11.4346 18.7046 11.8475 17.8644 11.8475 16.7932C11.8475 16.037 11.5722 15.3648 11.0217 14.7767C10.4923 14.1886 9.96293 13.7685 9.43355 13.5164C8.92535 13.2644 8.08893 12.9178 6.92429 12.4767C6.86077 12.4557 6.80783 12.4347 6.76548 12.4137C6.72313 12.3927 6.67019 12.3717 6.60666 12.3507C6.54314 12.3297 6.4902 12.3087 6.44785 12.2877C5.51614 11.9306 4.77501 11.626 4.22445 11.374C3.6739 11.1009 3.0704 10.7228 2.41397 10.2397C1.75754 9.75662 1.27051 9.16849 0.952884 8.47534C0.635256 7.76119 0.476442 6.93151 0.476442 5.9863C0.476442 4.01187 1.15405 2.52055 2.50926 1.51233C3.88565 0.50411 5.60084 0 7.65483 0C9.4759 0 11.064 0.325571 12.4193 0.976713C13.7745 1.62785 14.4521 2.53105 14.4521 3.6863V6.30137H11.4981V4.75753C11.4981 4.1484 11.1064 3.6653 10.3229 3.30822C9.53943 2.95114 8.65007 2.7726 7.65483 2.7726C6.51137 2.7726 5.56908 3.03516 4.82795 3.56028C4.08681 4.08539 3.71625 4.84155 3.71625 5.82877C3.71625 6.29087 3.81154 6.71096 4.00211 7.08904C4.19269 7.46712 4.39385 7.77169 4.60561 8.00274C4.83853 8.23379 5.21969 8.48585 5.74907 8.7589C6.27845 9.03196 6.68078 9.23151 6.95605 9.35753C7.25251 9.46256 7.76071 9.6516 8.48067 9.92466C9.34885 10.2397 10.0159 10.5023 10.4817 10.7123C10.9476 10.9014 11.5193 11.1954 12.1969 11.5945C12.8745 11.9936 13.3827 12.3927 13.7215 12.7918C14.0815 13.1909 14.3885 13.716 14.6427 14.3671C14.9179 15.0183 15.0556 15.7429 15.0556 16.5411C15.0556 18.5785 14.325 20.1644 12.8639 21.2986C11.4028 22.4329 9.58178 23 7.40073 23C5.47379 23 3.7586 22.5904 2.25516 21.7712C0.75172 20.9311 0 19.7653 0 18.274V15.9425Z" fill="black"/>
<path d="M18.08 22.6219V20.2589H20.5892V9.70411C20.5892 9.26301 20.3563 9.04247 19.8905 9.04247H17.9212V6.67945H21.5421C22.8973 6.67945 23.5749 7.26758 23.5749 8.44384V9.26301L23.4797 10.1767H23.5432C23.9667 9.16849 24.7184 8.2758 25.7983 7.49863C26.8783 6.70046 28.0323 6.30137 29.2605 6.30137C31.865 6.30137 33.432 7.55114 33.9614 10.0507H34.0249C34.4908 9.00046 35.2425 8.11827 36.2801 7.40411C37.3388 6.66895 38.5035 6.30137 39.774 6.30137C43.2679 6.30137 45.0148 8.33882 45.0148 12.4137V20.2589H47.5559V22.6219H41.9338V13.0753C41.9338 11.7941 41.7327 10.8069 41.3304 10.1137C40.9492 9.42055 40.2081 9.07397 39.107 9.07397C37.667 9.07397 36.513 9.69361 35.6448 10.9329C34.7978 12.1511 34.3743 13.6005 34.3743 15.2808V20.2589H36.8836V22.6219H31.2933V13.0753C31.2933 11.8151 31.1027 10.8384 30.7216 10.1452C30.3616 9.43105 29.6205 9.07397 28.4982 9.07397C27.0583 9.07397 25.8936 9.71461 25.0043 10.9959C24.1149 12.2772 23.6702 13.7475 23.6702 15.4069V20.2589H26.2113V22.6219H18.08Z" fill="black"/>
<path d="M49.3663 18.1795C49.3663 17.3813 49.5252 16.6776 49.8428 16.0685C50.1816 15.4384 50.6369 14.9342 51.2086 14.5562C51.8015 14.1781 52.405 13.8735 53.0191 13.6425C53.6543 13.3904 54.3637 13.2119 55.1472 13.1069C55.9307 12.9808 56.5765 12.9073 57.0847 12.8863C57.6141 12.8443 58.1646 12.8233 58.7364 12.8233H59.7528V12.2247C59.7528 9.95617 58.6093 8.82192 56.3224 8.82192C55.5601 8.82192 54.7978 8.94795 54.0355 9.2C53.2732 9.45205 52.7014 9.70411 52.3203 9.95617L51.7168 10.3658L50.478 8.19178C50.5416 8.14977 50.6263 8.08676 50.7321 8.00274C50.8592 7.89772 51.1239 7.74018 51.5262 7.53014C51.9497 7.32009 52.3732 7.13105 52.7967 6.96302C53.2414 6.79498 53.8025 6.64795 54.4802 6.52192C55.1789 6.37489 55.8777 6.30137 56.5765 6.30137C58.6305 6.30137 60.1869 6.82648 61.2456 7.87671C62.3044 8.90594 62.8338 10.4288 62.8338 12.4452V19.5658C62.8338 20.0279 63.0667 20.2589 63.5326 20.2589H65.1525V22.6219H61.9444C60.6104 22.6219 59.9434 22.0443 59.9434 20.889V20.6685L60.0704 19.6288H60.0069C59.9645 19.7128 59.901 19.8388 59.8163 20.0069C59.7528 20.1539 59.5622 20.4269 59.2446 20.826C58.9481 21.2041 58.6199 21.5402 58.2599 21.8342C57.8999 22.1283 57.3917 22.3909 56.7353 22.6219C56.1001 22.874 55.4224 23 54.7025 23C53.2414 23 51.9815 22.5799 50.9227 21.7397C49.8851 20.8995 49.3663 19.7128 49.3663 18.1795ZM52.4791 17.9274C52.4791 18.6836 52.7332 19.3242 53.2414 19.8493C53.7708 20.3744 54.4802 20.637 55.3695 20.637C56.6612 20.637 57.72 20.1014 58.5458 19.0301C59.3716 17.9589 59.7845 16.7721 59.7845 15.4699V14.8082H58.9905C54.6496 14.8082 52.4791 15.8479 52.4791 17.9274Z" fill="black"/>
<path d="M67.5247 22.6219V20.2589H69.9387V9.73562C69.9387 9.27352 69.7058 9.04247 69.2399 9.04247H67.2389V6.67945H70.8598C72.2362 6.67945 72.9244 7.29909 72.9244 8.53836V9.54658L72.8609 10.6493H72.9244C73.3056 9.43105 73.9408 8.43333 74.8302 7.65616C75.7407 6.879 76.7995 6.49041 78.0065 6.49041L78.8005 6.55342V9.57808C78.5464 9.51507 78.25 9.48356 77.9112 9.48356C76.323 9.48356 75.1055 10.1452 74.2585 11.4685C73.4326 12.7708 73.0197 14.2936 73.0197 16.037V20.2589H75.4019V22.6219H67.5247Z" fill="black"/>
<path d="M82.6391 16.7932V9.04247H79.9393V6.67945H82.7026V2.3H85.7201V6.67945H89.5634V9.04247H85.7201V16.5096C85.7201 17.2658 85.8366 17.9064 86.0695 18.4315C86.3024 18.9566 86.6095 19.3347 86.9906 19.5658C87.3929 19.7968 87.7529 19.9543 88.0706 20.0384C88.4094 20.1224 88.7693 20.1644 89.1505 20.1644L89.881 20.1329V22.6849C89.5846 22.7269 89.214 22.7479 88.7693 22.7479C88.2823 22.7479 87.8059 22.7164 87.34 22.6534C86.8742 22.5904 86.3448 22.4329 85.7519 22.1808C85.159 21.9288 84.6402 21.6032 84.1955 21.2041C83.772 20.784 83.4014 20.1959 83.0838 19.4397C82.7873 18.6836 82.6391 17.8014 82.6391 16.7932Z" fill="black"/>
<path d="M92.0203 22.6219V20.1644H94.8154L96.2448 2.80411H93.3861V0.378083H99.7387L105.488 13.926L105.996 15.5329H106.059C106.165 15.0708 106.335 14.5352 106.568 13.926L112.317 0.378083H118.669V2.80411H115.811L117.24 20.1644H120.035V22.6219H111.396V20.1644H114.095L113.079 6.86849L113.174 5.0411H113.079C112.91 5.75525 112.74 6.32237 112.571 6.74247L107.425 18.4315H104.63L99.4846 6.74247L98.9764 5.0411H98.8811L98.9764 6.86849L97.9599 20.1644H100.66V22.6219H92.0203Z" fill="black"/>
<path d="M122.203 14.6507C122.203 12.1511 122.955 10.1347 124.459 8.60137C125.983 7.06804 127.91 6.30137 130.239 6.30137C132.442 6.30137 134.146 7.00502 135.353 8.41233C136.581 9.81964 137.195 11.605 137.195 13.7685L137.1 14.9342H125.348C125.433 16.6356 126.004 17.9694 127.063 18.9356C128.122 19.8808 129.403 20.3534 130.906 20.3534C131.732 20.3534 132.547 20.2064 133.352 19.9123C134.157 19.6183 134.75 19.3242 135.131 19.0301L135.703 18.5575L136.973 20.7945C136.783 20.9626 136.518 21.1726 136.179 21.4247C135.861 21.6557 135.152 21.9813 134.051 22.4014C132.971 22.8005 131.859 23 130.716 23C128.217 23 126.174 22.2123 124.586 20.637C122.997 19.0406 122.203 17.0452 122.203 14.6507ZM125.475 12.9808H134.019C133.977 11.6365 133.585 10.5968 132.844 9.86164C132.124 9.10548 131.235 8.7274 130.176 8.7274C128.99 8.7274 127.963 9.10548 127.095 9.86164C126.227 10.6178 125.687 11.6575 125.475 12.9808Z" fill="black"/>
<path d="M139.854 14.6507C139.854 12.1301 140.521 10.1137 141.855 8.60137C143.21 7.06804 144.978 6.30137 147.159 6.30137C147.837 6.30137 148.472 6.39589 149.065 6.58493C149.658 6.77397 150.134 6.99452 150.494 7.24658C150.854 7.49863 151.161 7.76119 151.415 8.03425C151.669 8.2863 151.849 8.50685 151.955 8.69589L152.114 8.97945H152.178C152.114 8.64338 152.082 8.24429 152.082 7.78219V2.7411H149.414V0.378083H155.163V19.5658C155.163 20.0279 155.396 20.2589 155.862 20.2589H157.482V22.6219H154.274C152.94 22.6219 152.273 22.0443 152.273 20.889V20.6685L152.368 19.8178H152.305C152.262 19.9018 152.199 20.0174 152.114 20.1644C152.051 20.3114 151.871 20.574 151.574 20.9521C151.278 21.3091 150.939 21.6242 150.558 21.8973C150.198 22.1703 149.679 22.4224 149.001 22.6534C148.345 22.8845 147.635 23 146.873 23C144.734 23 143.03 22.2333 141.759 20.7C140.489 19.1667 139.854 17.1502 139.854 14.6507ZM142.998 14.6507C142.998 16.3731 143.411 17.7594 144.237 18.8096C145.084 19.8388 146.185 20.3534 147.54 20.3534C148.832 20.3534 149.922 19.8808 150.812 18.9356C151.722 17.9694 152.178 16.5516 152.178 14.6822C152.178 13.1069 151.775 11.7626 150.971 10.6493C150.187 9.53607 149.075 8.97945 147.635 8.97945C146.301 8.97945 145.19 9.48356 144.3 10.4918C143.432 11.5 142.998 12.8863 142.998 14.6507Z" fill="black"/>
<path d="M162.466 3.49726V0.378083H165.706V3.49726H162.466ZM160.02 22.6219V20.2589H162.529V9.04247H159.861V6.67945H165.61V20.2589H168.151V22.6219H160.02Z" fill="black"/>
<path d="M170.214 18.1795C170.214 17.3813 170.373 16.6776 170.69 16.0685C171.029 15.4384 171.484 14.9342 172.056 14.5562C172.649 14.1781 173.253 13.8735 173.867 13.6425C174.502 13.3904 175.211 13.2119 175.995 13.1069C176.778 12.9808 177.424 12.9073 177.932 12.8863C178.462 12.8443 179.012 12.8233 179.584 12.8233H180.6V12.2247C180.6 9.95617 179.457 8.82192 177.17 8.82192C176.408 8.82192 175.645 8.94795 174.883 9.2C174.121 9.45205 173.549 9.70411 173.168 9.95617L172.564 10.3658L171.326 8.19178C171.389 8.14977 171.474 8.08676 171.58 8.00274C171.707 7.89772 171.971 7.74018 172.374 7.53014C172.797 7.32009 173.221 7.13105 173.644 6.96302C174.089 6.79498 174.65 6.64795 175.328 6.52192C176.026 6.37489 176.725 6.30137 177.424 6.30137C179.478 6.30137 181.034 6.82648 182.093 7.87671C183.152 8.90594 183.681 10.4288 183.681 12.4452V19.5658C183.681 20.0279 183.914 20.2589 184.38 20.2589H186V22.6219H182.792C181.458 22.6219 180.791 22.0443 180.791 20.889V20.6685L180.918 19.6288H180.854C180.812 19.7128 180.749 19.8388 180.664 20.0069C180.6 20.1539 180.41 20.4269 180.092 20.826C179.796 21.2041 179.467 21.5402 179.107 21.8342C178.747 22.1283 178.239 22.3909 177.583 22.6219C176.948 22.874 176.27 23 175.55 23C174.089 23 172.829 22.5799 171.77 21.7397C170.733 20.8995 170.214 19.7128 170.214 18.1795ZM173.327 17.9274C173.327 18.6836 173.581 19.3242 174.089 19.8493C174.618 20.3744 175.328 20.637 176.217 20.637C177.509 20.637 178.567 20.1014 179.393 19.0301C180.219 17.9589 180.632 16.7721 180.632 15.4699V14.8082H179.838C175.497 14.8082 173.327 15.8479 173.327 17.9274Z" fill="black"/>
</svg>
