<svg width="152" height="111" viewBox="0 0 152 111" fill="none" xmlns="http://www.w3.org/2000/svg">
<path d="M1 111V110M1 101V100M1 91V90M1 81L1 80M11 111V110M11 101V100M11 91V90M11 81V80M21 111V110M21 101V100M21 91V90M21 81V80M31 111V110M31 101V100M31 91V90M31 81V80M41 111V110M41 101V100M41 91V90M41 81V80M51 111V110M51 101V100M51 91V90M51 81V80M61 111V110M61 101V100M61 91V90M61 81V80M71 111V110M71 101V100M71 91V90M71 81V80M1 71V70M1 61V60M1 51V50M1 41L1 40M1 31V30M1 21V20M1 11V10M1 1L1 0M11 71V70M11 61V60M11 51V50M11 41V40M11 31V30M11 21V20M11 11V10M11 1V0M21 71V70M21 61V60M21 51V50M21 41V40M21 31V30M21 21V20M21 11V10M21 1V0M31 71V70M31 61V60M31 51V50M31 41V40M31 31V30M31 21V20M31 11V10M31 1V0M41 71V70M41 61V60M41 51V50M41 41V40M41 31V30M41 21V20M41 11V10M41 1V0M51 71V70M51 61V60M51 51V50M51 41V40M51 31V30M51 21V20M51 11V10M51 1V0M61 71V70M61 61V60M61 51V50M61 41V40M61 31V30M61 21V20M61 11V10M61 1V0M71 71V70M71 61V60M71 51V50M71 41V40M71 31V30M71 21V20M71 11V10M71 1V0M81 111V110M81 101V100M81 91V90M81 81V80M91 111V110M91 101V100M91 91V90M91 81V80M101 111V110M101 101V100M101 91V90M101 81V80M111 111V110M111 101V100M111 91V90M111 81V80M121 111V110M121 101V100M121 91V90M121 81V80M131 111V110M131 101V100M131 91V90M131 81V80M141 111V110M141 101V100M141 91V90M141 81V80M151 111V110M151 101V100M151 91V90M151 81V80M81 71V70M81 61V60M81 51V50M81 41V40M81 31V30M81 21V20M81 11V10M81 1V0M91 71V70M91 61V60M91 51V50M91 41V40M91 31V30M91 21V20M91 11V10M91 1V0M101 71V70M101 61V60M101 51V50M101 41V40M101 31V30M101 21V20M101 11V10M101 1V0M111 71V70M111 61V60M111 51V50M111 41V40M111 31V30M111 21V20M111 11V10M111 1V0M121 71V70M121 61V60M121 51V50M121 41V40M121 31V30M121 21V20M121 11V10M121 1V0M131 71V70M131 61V60M131 51V50M131 41V40M131 31V30M131 21V20M131 11V10M131 1V0M141 71V70M141 61V60M141 51V50M141 41V40M141 31V30M141 21V20M141 11V10M141 1V0M151 71V70M151 61V60M151 51V50M151 41V40M151 31V30M151 21V20M151 11V10M151 1V0" stroke="#343159"/>
</svg>
