<svg width="530" height="429" viewBox="0 0 530 429" fill="none" xmlns="http://www.w3.org/2000/svg">
<g clip-path="url(#clip0)">
<path d="M223.085 59.8506H42.8691V221.079H223.085V59.8506Z" fill="#FAFAFA"/>
<path d="M223.086 221.09C223.086 221.09 223.055 220.052 223.044 218.1C223.034 216.117 223.013 213.231 222.992 209.462C222.971 201.894 222.93 190.827 222.888 176.729C222.836 148.553 222.764 108.303 222.681 59.8515L223.086 60.2563C171.187 60.2771 109.25 60.2979 42.8902 60.329H42.8695L43.347 59.8515C43.3263 118.508 43.3055 173.708 43.2847 221.079L42.8591 220.654C96.626 220.747 141.62 220.82 173.202 220.872C189.002 220.924 201.45 220.955 209.963 220.986C214.209 221.007 217.469 221.028 219.691 221.038C220.781 221.048 221.611 221.059 222.203 221.059C222.785 221.069 223.086 221.09 223.086 221.09C223.086 221.09 222.816 221.111 222.266 221.111C221.695 221.121 220.874 221.121 219.805 221.131C217.594 221.142 214.365 221.163 210.16 221.183C201.668 221.214 189.252 221.246 173.492 221.298C141.838 221.349 96.7506 221.422 42.8695 221.516H42.4438V221.09C42.4231 173.718 42.4023 118.519 42.3815 59.8618V59.3843H42.8591H42.8799C109.24 59.4154 171.177 59.4362 223.075 59.4569H223.48V59.8618C223.397 108.417 223.324 148.76 223.273 176.988C223.231 191.045 223.189 202.081 223.169 209.628C223.148 213.366 223.138 216.231 223.117 218.193C223.117 220.114 223.086 221.09 223.086 221.09Z" fill="#E0E0E0"/>
<path d="M111.97 88.5045C111.97 88.7744 102.481 88.9821 90.7808 88.9821C79.0806 88.9821 69.5917 88.7641 69.5917 88.5045C69.5917 88.2346 79.0702 88.027 90.7808 88.027C102.481 88.0166 111.97 88.2346 111.97 88.5045Z" fill="#E0E0E0"/>
<path d="M188.329 100.61C188.329 100.88 162.271 101.088 130.129 101.088C97.9766 101.088 71.9288 100.87 71.9288 100.61C71.9288 100.34 97.9869 100.133 130.129 100.133C162.271 100.133 188.329 100.34 188.329 100.61Z" fill="#E0E0E0"/>
<path d="M77.5029 121.112H69.9138V128.701H77.5029V121.112Z" fill="#E0E0E0"/>
<path d="M96.1894 121.112H88.6004V128.701H96.1894V121.112Z" fill="#E0E0E0"/>
<path d="M115.219 120.771H107.63V128.36H115.219V120.771Z" fill="#E0E0E0"/>
<path d="M133.563 121.112H125.974V128.701H133.563V121.112Z" fill="#E0E0E0"/>
<path d="M152.262 121.112H144.673V128.701H152.262V121.112Z" fill="#E0E0E0"/>
<path d="M170.95 121.112H163.36V128.701H170.95V121.112Z" fill="#E0E0E0"/>
<path d="M189.636 121.112H182.047V128.701H189.636V121.112Z" fill="#EBEBEB"/>
<path d="M77.5029 137.258H69.9138V144.847H77.5029V137.258Z" fill="#EBEBEB"/>
<path d="M96.1894 137.258H88.6004V144.847H96.1894V137.258Z" fill="#E0E0E0"/>
<path d="M114.876 137.258H107.287V144.847H114.876V137.258Z" fill="#EBEBEB"/>
<path d="M133.563 137.258H125.974V144.847H133.563V137.258Z" fill="#E0E0E0"/>
<path d="M152.262 137.258H144.673V144.847H152.262V137.258Z" fill="#E0E0E0"/>
<path d="M171.292 136.915H163.703V144.504H171.292V136.915Z" fill="#E0E0E0"/>
<path d="M189.636 137.258H182.047V144.847H189.636V137.258Z" fill="#E0E0E0"/>
<path d="M77.5029 153.4H69.9138V160.989H77.5029V153.4Z" fill="#E0E0E0"/>
<path d="M96.5316 153.047H88.9425V160.636H96.5316V153.047Z" fill="#E0E0E0"/>
<path d="M114.876 153.4H107.287V160.989H114.876V153.4Z" fill="#E0E0E0"/>
<path d="M133.563 153.4H125.974V160.989H133.563V153.4Z" fill="#EBEBEB"/>
<path d="M152.262 153.4H144.673V160.989H152.262V153.4Z" fill="#E0E0E0"/>
<path d="M170.95 153.4H163.36V160.989H170.95V153.4Z" fill="#E0E0E0"/>
<path d="M189.636 153.4H182.047V160.989H189.636V153.4Z" fill="#E0E0E0"/>
<path d="M77.5029 169.534H69.9138V177.123H77.5029V169.534Z" fill="#E0E0E0"/>
<path d="M96.1894 169.534H88.6004V177.123H96.1894V169.534Z" fill="#E0E0E0"/>
<path d="M114.876 169.534H107.287V177.123H114.876V169.534Z" fill="#E0E0E0"/>
<path d="M133.919 169.191H126.33V176.78H133.919V169.191Z" fill="#E0E0E0"/>
<path d="M152.262 169.534H144.673V177.123H152.262V169.534Z" fill="#E0E0E0"/>
<path d="M170.95 169.534H163.36V177.123H170.95V169.534Z" fill="#EBEBEB"/>
<path d="M189.636 169.534H182.047V177.123H189.636V169.534Z" fill="#E0E0E0"/>
<path d="M77.5029 185.676H69.9138V193.265H77.5029V185.676Z" fill="#E0E0E0"/>
<path d="M96.1894 185.676H88.6004V193.265H96.1894V185.676Z" fill="#EBEBEB"/>
<path d="M114.876 185.676H107.287V193.265H114.876V185.676Z" fill="#E0E0E0"/>
<path d="M133.563 185.676H125.974V193.265H133.563V185.676Z" fill="#E0E0E0"/>
<path d="M152.262 185.676H144.673V193.265H152.262V185.676Z" fill="#E0E0E0"/>
<path d="M171.292 185.335H163.703V192.924H171.292V185.335Z" fill="#E0E0E0"/>
<path d="M189.636 185.676H182.047V193.265H189.636V185.676Z" fill="#E0E0E0"/>
<path d="M426.595 21.4904L415.009 21.5525L415.318 79.1814L426.904 79.1193L426.595 21.4904Z" fill="#E0E0E0"/>
<path d="M344.667 21.6379L314.674 21.7983L314.845 53.6079L344.837 53.4475L344.667 21.6379Z" fill="#EBEBEB"/>
<path d="M374.527 21.4823L344.534 21.6428L344.704 53.4524L374.697 53.2919L374.527 21.4823Z" fill="#F5F5F5"/>
<path d="M314.725 30.586C334.657 30.7521 354.632 30.6379 374.565 30.3057C374.97 30.2953 374.97 29.6724 374.565 29.6724C354.632 29.5582 334.657 29.662 314.725 30.0358C314.372 30.0461 314.372 30.586 314.725 30.586Z" fill="#E0E0E0"/>
<path d="M350.48 52.9309L295.986 53.2229L296.125 79.146L350.619 78.8541L350.48 52.9309Z" fill="#EBEBEB"/>
<path d="M404.704 52.6392L350.211 52.9312L350.35 78.8543L404.843 78.5623L404.704 52.6392Z" fill="#F5F5F5"/>
<path d="M296.019 60.4237C332.22 60.8286 368.545 60.4652 404.736 59.8839C405.141 59.8735 405.141 59.2506 404.736 59.2506C368.535 59.0637 332.209 59.0845 296.019 59.8735C295.666 59.8942 295.666 60.4237 296.019 60.4237Z" fill="#E0E0E0"/>
<path d="M486.751 79.1414H275.638V88.433H486.751V79.1414Z" fill="#E0E0E0"/>
<path d="M318.763 83.6069H310.198V115.302H318.763V83.6069Z" fill="#E0E0E0"/>
<path d="M446.707 83.6069H438.132V115.302H446.707V83.6069Z" fill="#E0E0E0"/>
<path d="M437.907 0.00185857L426.321 0.0639648L426.745 79.318L438.331 79.2559L437.907 0.00185857Z" fill="#EBEBEB"/>
<path d="M455.987 14.7559L437.995 14.8525L438.34 79.0842L456.332 78.9876L455.987 14.7559Z" fill="#F5F5F5"/>
<path d="M455.863 27.1281C455.863 27.3046 451.834 27.4396 446.862 27.4396C441.889 27.4396 437.861 27.3046 437.861 27.1281C437.861 26.9516 441.889 26.8167 446.862 26.8167C451.834 26.8167 455.863 26.9516 455.863 27.1281Z" fill="#E0E0E0"/>
<path d="M455.863 24.4289C455.863 24.6054 451.834 24.7403 446.862 24.7403C441.889 24.7403 437.861 24.6054 437.861 24.4289C437.861 24.2524 441.889 24.1174 446.862 24.1174C451.834 24.1174 455.863 24.2628 455.863 24.4289Z" fill="#E0E0E0"/>
<path d="M455.863 69.3193C455.863 69.4957 451.834 69.6307 446.862 69.6307C441.889 69.6307 437.861 69.4957 437.861 69.3193C437.861 69.1428 441.889 69.0078 446.862 69.0078C451.834 69.0078 455.863 69.1532 455.863 69.3193Z" fill="#E0E0E0"/>
<path d="M455.863 66.62C455.863 66.7965 451.834 66.9315 446.862 66.9315C441.889 66.9315 437.861 66.7965 437.861 66.62C437.861 66.4436 441.889 66.3086 446.862 66.3086C451.834 66.3086 455.863 66.4539 455.863 66.62Z" fill="#E0E0E0"/>
<path d="M447.154 60.7325C446.977 60.7325 446.842 54.2544 446.842 46.2604C446.842 38.2665 446.977 31.7883 447.154 31.7883C447.33 31.7883 447.465 38.2665 447.465 46.2604C447.465 54.2544 447.33 60.7325 447.154 60.7325Z" fill="#E0E0E0"/>
<path d="M475.652 30.5242H456.062V79.0068H475.652V30.5242Z" fill="#EBEBEB"/>
<path d="M435.257 13.5293C435.257 15.3669 433.762 16.8618 431.925 16.8618C430.087 16.8618 428.592 15.3669 428.592 13.5293C428.592 11.6917 430.087 10.1968 431.925 10.1968C433.772 10.2072 435.257 11.6917 435.257 13.5293Z" fill="#E0E0E0"/>
<path d="M432.953 22.6858H430.897V69.8395H432.953V22.6858Z" fill="#E0E0E0"/>
<path d="M77.2425 323.548C82.6721 320.745 89.0777 320.382 95.1094 321.378C98.3485 321.918 101.733 322.884 103.934 325.313C106.135 327.742 106.56 332.03 104.027 334.127C102.522 335.373 100.414 335.56 98.4627 335.539C93.739 335.487 88.5067 334.657 84.7277 337.491C82.5787 339.11 81.146 341.81 78.5714 342.599C76.059 343.377 73.2144 341.893 71.8752 339.619C70.5359 337.346 70.4944 334.511 71.1173 331.947C71.1173 331.947 71.7713 326.372 77.2425 323.548Z" fill="#0084E4"/>
<path d="M64.7922 299.513C68.1143 304.258 74.5717 302.69 77.5617 299.794C80.5516 296.897 81.8182 292.703 82.9705 288.695C85.6075 279.549 88.2548 269.957 86.3031 260.644C85.7217 257.862 84.6731 255.08 82.7214 253.014C80.7696 250.948 77.7589 249.723 75.0078 250.449C71.7479 251.311 69.7339 254.498 68.27 257.53C63.972 266.447 61.6984 276.331 61.6569 286.225C61.6465 290.855 62.1864 295.693 64.7922 299.513Z" fill="#0084E4"/>
<path d="M55.6679 306.324C59.2704 302.046 59.9556 295.796 58.3568 290.439C56.7476 285.072 53.1244 280.515 48.951 276.788C44.0508 272.417 38.2889 269.022 32.1014 266.842C29.6617 265.991 27.0975 265.305 24.5228 265.555C21.9481 265.804 19.3631 267.112 18.1588 269.406C16.3835 272.791 18.0861 276.891 19.9237 280.234C23.1628 286.131 26.8691 291.768 30.9906 297.084C34.3128 301.361 38.1125 305.576 43.1684 307.517C48.2242 309.448 53.4774 309.22 56.1559 305.721" fill="#0084E4"/>
<path d="M64.5767 371.096C64.639 371.096 64.7428 370.328 64.8778 368.936C65.0335 367.369 65.2204 365.396 65.4488 363.05C65.7187 360.579 66.0821 357.631 66.7673 354.423C67.4525 351.225 68.5218 347.758 69.9025 344.238C71.3248 340.74 73.069 337.563 75.1038 335.019C77.1282 332.465 79.4745 330.617 81.6754 329.548C83.8763 328.458 85.8489 328.022 87.2089 327.825C88.5896 327.679 89.3579 327.576 89.3579 327.513C89.3579 327.451 88.5896 327.441 87.1777 327.482C85.7762 327.576 83.7206 327.929 81.4055 328.988C79.08 330.015 76.5884 331.894 74.4705 334.5C72.3319 337.096 70.5358 340.345 69.0824 343.906C67.6808 347.488 66.6219 350.986 65.9679 354.257C65.3138 357.517 65.0127 360.496 64.8155 362.998C64.6286 365.5 64.556 367.524 64.5248 368.916C64.4937 370.317 64.5144 371.085 64.5767 371.096Z" fill="#263238"/>
<path d="M64.9803 366.559C65.0115 366.559 65.0323 366.217 65.0426 365.563C65.0426 364.815 65.0426 363.86 65.0323 362.697C65.0219 360.216 65.0219 356.624 65.1568 352.181C65.3748 343.304 66.1431 333.753 67.6173 320.298C69.0188 307.643 70.8875 292.901 72.8704 283.329C73.2961 281.149 73.7217 279.187 74.1266 277.474C74.5108 275.751 74.843 274.266 75.1544 273.072C75.4243 271.94 75.6424 271.027 75.8189 270.29C75.9642 269.646 76.0265 269.314 75.9953 269.303C75.9642 269.293 75.85 269.615 75.6527 270.238C75.4347 270.954 75.1648 271.868 74.8222 272.979C74.4485 274.172 74.0747 275.647 73.6491 277.36C73.2027 279.073 72.7251 281.024 72.2683 283.205C70.3062 291.884 68.2402 304.02 66.7452 317.516C65.271 331.012 64.5962 343.294 64.5443 352.191C64.4924 356.634 64.5858 360.237 64.7 362.729C64.7727 363.891 64.8246 364.836 64.8765 365.584C64.9077 366.227 64.9492 366.57 64.9803 366.559Z" fill="#263238"/>
<path d="M65.0319 342.867C65.0942 342.867 65.0838 341.808 65.0111 339.877C64.8969 337.957 64.6374 335.185 64.0975 331.78C63.5265 328.385 62.7272 324.357 61.4606 319.986C60.9104 317.982 59.6334 313.186 56.5293 306.022C52.4389 296.316 46.8743 288.384 42.0468 283.463C40.9152 282.155 39.6486 281.221 38.6416 280.297C38.1225 279.85 37.6553 279.414 37.1881 279.061C36.7106 278.739 36.2745 278.428 35.8697 278.148C34.2813 277.058 33.3884 276.486 33.3573 276.538C33.2119 276.736 36.9182 278.916 41.6004 283.899C46.2618 288.872 51.6706 296.752 55.7299 306.375C57.9931 311.597 59.5711 316.248 60.6923 320.204C61.99 324.543 62.8414 328.53 63.4954 331.883C64.1079 335.247 64.4713 337.998 64.6893 339.898C64.845 341.819 64.9696 342.867 65.0319 342.867Z" fill="#263238"/>
<path d="M42.1303 384.666L44.5077 417.192H86.2941L88.6715 384.666H42.1303Z" fill="#263238"/>
<path d="M93.6549 371.842H38.1024V384.663H93.6549V371.842Z" fill="#263238"/>
<path d="M38.1024 415.944V419.505H40.7082H92.7413V415.944H38.1024Z" fill="#455A64"/>
<path d="M43.2719 425.752L40.7076 419.502H90.7475L87.7576 425.752H43.2719Z" fill="#455A64"/>
<path d="M87.8929 395.295C87.9033 395.305 87.841 395.409 87.6956 395.596C87.5295 395.814 87.3219 396.084 87.0727 396.427C86.481 397.184 85.6608 398.233 84.6434 399.541L84.5396 399.676L84.4358 399.531C82.9097 397.413 80.8645 394.589 78.4559 391.257H78.7985C77.0232 393.779 75.0403 396.582 72.9121 399.593L72.7252 399.853L72.5176 399.603C70.3478 397.018 67.9808 394.215 65.5307 391.298H65.9356C65.811 391.454 65.6864 391.62 65.5514 391.786C63.3817 394.506 61.2949 397.133 59.312 399.614L59.1044 399.873L58.9071 399.603C56.7893 396.603 54.8064 393.8 53.0207 391.267L53.3633 391.288C50.4564 394.599 47.996 397.402 46.1065 399.552L45.9715 399.697L45.8781 399.531C44.923 397.922 44.1547 396.645 43.6045 395.71C43.3657 395.295 43.1789 394.963 43.0231 394.693C42.8985 394.464 42.8363 394.34 42.8466 394.33C42.857 394.319 42.9401 394.433 43.0854 394.651C43.2515 394.911 43.4695 395.233 43.7291 395.627C44.3105 396.541 45.1098 397.797 46.1169 399.375L45.8885 399.354C47.7468 397.174 50.1657 394.34 53.0311 390.987L53.2076 390.779L53.3737 391.007C55.1801 393.53 57.1734 396.323 59.312 399.302L58.9071 399.292C60.8797 396.8 62.9768 394.174 65.1362 391.454C65.2711 391.288 65.3957 391.122 65.5203 390.976L65.7176 390.727L65.9252 390.976C68.3649 393.893 70.7215 396.707 72.8913 399.302L72.4968 399.313C74.6458 396.312 76.6495 393.52 78.4455 391.018L78.622 390.779L78.7881 391.018C81.1448 394.381 83.1485 397.236 84.6434 399.375L84.4358 399.365C85.5051 398.088 86.346 397.07 86.9689 396.333C87.2388 396.011 87.4672 395.752 87.6437 395.544C87.7995 395.378 87.8825 395.285 87.8929 395.295Z" fill="#E0E0E0"/>
<path d="M89.252 384.449C89.252 384.594 78.7769 384.709 65.8724 384.709C52.9576 384.709 42.4824 384.594 42.4824 384.449C42.4824 384.304 52.9472 384.189 65.8724 384.189C78.7769 384.189 89.252 384.314 89.252 384.449Z" fill="#455A64"/>
<path d="M91.3612 419.845C91.3612 419.991 79.9828 420.105 65.9467 420.105C51.9106 420.105 40.5323 419.991 40.5323 419.845C40.5323 419.7 51.9106 419.586 65.9467 419.586C79.9828 419.586 91.3612 419.7 91.3612 419.845Z" fill="#263238"/>
<path d="M489.906 426.346H361.401L388.898 304.236C388.898 295.567 395.926 288.529 404.605 288.529H501.706C510.374 288.529 517.413 295.557 517.413 304.236L489.916 426.346H489.906Z" fill="#455A64"/>
<path d="M507.509 291.029C507.651 291.062 500.796 320.964 492.191 357.814C483.584 394.674 476.489 424.51 476.347 424.477C476.206 424.444 483.06 394.542 491.665 357.692C500.27 320.842 507.368 290.996 507.509 291.029Z" fill="#263238"/>
<path d="M415.791 138.932C427.564 155.72 434.426 175.902 435.319 196.385C435.921 210.192 434.063 224.903 440.614 237.081C450.02 254.543 470.357 253.941 476.586 272.773C479.296 280.965 474.302 298.977 472.953 307.5C471.427 317.186 477.344 325.315 475.818 334.991C474.417 343.867 467.772 350.2 459.799 354.332C452.698 358.007 446.137 358.101 438.755 355.049C424.688 349.224 412.978 343.078 402.949 331.617C388.871 315.525 384.625 293.246 382.217 271.995C376.911 225.163 377.991 177.604 385.404 131.063" fill="#263238"/>
<path d="M445.888 357.01C445.888 357.01 446.044 356.958 446.345 356.896C446.646 356.823 447.103 356.751 447.674 356.585C448.837 356.273 450.529 355.723 452.532 354.643C454.526 353.564 456.882 351.975 458.948 349.494C459.966 348.258 460.9 346.774 461.461 345.04C461.99 343.306 462.229 341.355 462.343 339.33C462.54 335.261 461.928 330.807 460.994 326.104C460.09 321.391 458.865 316.366 458.564 310.926C458.419 308.216 458.543 305.392 459.156 302.6C459.737 299.797 460.744 297.066 461.793 294.315C462.852 291.564 463.963 288.792 464.762 285.885C465.52 282.978 465.987 279.895 465.478 276.853C465.032 273.801 463.786 270.956 462.115 268.465C460.443 265.963 458.357 263.793 456.228 261.8C451.941 257.792 447.3 254.491 443.334 250.774C435.33 243.403 429.942 235.015 426.537 227.581C424.834 223.854 423.536 220.366 422.675 217.231C422.176 215.684 421.896 214.189 421.533 212.839C421.263 211.469 421.024 210.223 420.806 209.102C420.474 206.839 420.235 205.074 420.173 203.87C420.131 203.288 420.09 202.831 420.069 202.499C420.048 202.188 420.048 202.032 420.048 202.032C420.048 202.032 420.079 202.188 420.121 202.499C420.162 202.831 420.214 203.278 420.276 203.859C420.38 205.063 420.65 206.808 421.014 209.071C421.242 210.192 421.501 211.438 421.792 212.787C422.166 214.127 422.457 215.611 422.965 217.148C423.858 220.262 425.177 223.73 426.89 227.426C430.326 234.797 435.714 243.112 443.677 250.411C447.622 254.086 452.273 257.387 456.602 261.415C458.751 263.429 460.869 265.62 462.572 268.174C464.285 270.717 465.572 273.645 466.029 276.791C466.558 279.926 466.07 283.092 465.292 286.041C464.471 288.989 463.35 291.782 462.291 294.523C461.243 297.263 460.236 299.973 459.665 302.724C459.063 305.465 458.938 308.237 459.073 310.915C459.353 316.293 460.558 321.308 461.44 326.042C462.343 330.765 462.956 335.261 462.727 339.372C462.603 341.427 462.354 343.369 461.793 345.165C461.212 346.95 460.236 348.456 459.187 349.702C457.059 352.214 454.661 353.782 452.636 354.84C450.601 355.91 448.878 356.429 447.705 356.699C446.521 356.969 445.888 357.01 445.888 357.01Z" fill="#455A64"/>
<path d="M252.589 394.106L302.411 370.446C302.411 370.446 321.814 276.242 325.479 269.162C329.144 262.092 344.488 255.977 344.488 255.977L341.924 383.548L337.377 412.969L267.113 419.624L252.589 394.106Z" fill="#0084E4"/>
<path d="M210.063 416.427C209.793 416.416 208.402 417.289 209.565 419.469C210.728 421.659 219.158 428.895 221.639 426.373C224.12 423.85 220.331 420.777 220.331 420.777L210.063 416.427Z" fill="#FFBE9D"/>
<path d="M220.696 420.881C220.696 420.881 230.88 422.168 234.804 423.653C239.061 425.272 244.252 424.172 247.74 421.805C251.228 419.438 253.263 417.299 253.263 417.299L266.261 417.092C266.261 417.092 272.5 410.624 268.794 400.989C268.15 399.308 267.455 397.979 265.815 395.913C264.268 394.241 261.828 392.892 257.623 392.165L242.186 395.498C242.186 395.498 218.266 393.785 214.01 395.799C214.01 395.799 208.663 398.965 207.013 400.294C206.39 400.792 204.5 406.886 208.383 410.042C208.383 410.042 204.998 412.742 206.826 415.15L207.708 416.219C207.708 416.219 205.434 419.168 206.597 420.455C207.77 421.743 218.007 427.733 221.661 426.311C225.336 424.888 222.315 421.504 220.696 420.881Z" fill="#FFBE9D"/>
<path d="M210.957 404.799C210.967 404.768 211.413 404.945 212.223 405.256C213.033 405.567 214.196 406.003 215.67 406.471C216.407 406.709 217.217 406.938 218.089 407.177C218.961 407.415 219.916 407.602 220.902 407.924C221.878 408.246 222.937 408.713 223.705 409.616C224.442 410.488 224.941 411.796 224.453 413.032C224.214 413.644 223.726 414.101 223.186 414.392C222.636 414.672 222.055 414.807 221.484 414.869C220.331 414.973 219.262 414.838 218.234 414.693C216.189 414.382 214.414 413.831 212.96 413.323C211.496 412.803 210.344 412.316 209.545 411.973C208.745 411.63 208.32 411.423 208.33 411.402C208.34 411.371 208.797 411.527 209.607 411.828C210.417 412.118 211.59 412.565 213.054 413.042C214.518 413.52 216.282 414.029 218.296 414.319C219.293 414.444 220.373 414.568 221.442 414.465C221.972 414.402 222.511 414.278 222.989 414.029C223.456 413.779 223.861 413.385 224.058 412.887C224.463 411.869 224.048 410.696 223.384 409.897C222.709 409.087 221.712 408.63 220.778 408.308C219.823 407.986 218.867 407.789 217.995 407.53C217.113 407.28 216.303 407.021 215.576 406.772C214.113 406.263 212.95 405.785 212.161 405.432C211.361 405.048 210.946 404.82 210.957 404.799Z" fill="#EB996E"/>
<path d="M211.871 397.426C211.882 397.395 212.328 397.571 213.128 397.882C213.927 398.194 215.09 398.64 216.554 399.118C218.007 399.606 219.762 400.135 221.734 400.602C222.71 400.852 223.831 401.049 224.755 401.827C225.212 402.212 225.555 402.772 225.638 403.395C225.731 404.008 225.627 404.641 225.378 405.212C224.869 406.375 223.79 407.122 222.71 407.486C221.62 407.859 220.488 407.88 219.461 407.745C217.395 407.434 215.702 406.697 214.239 406.229C212.837 405.741 211.674 405.337 210.792 405.025C209.982 404.734 209.536 404.558 209.546 404.527C209.556 404.496 210.013 404.62 210.844 404.869C211.737 405.15 212.91 405.513 214.332 405.949C215.806 406.375 217.53 407.081 219.512 407.361C220.499 407.486 221.558 407.454 222.575 407.101C223.572 406.759 224.537 406.074 224.984 405.056C225.451 404.049 225.295 402.814 224.475 402.16C223.686 401.485 222.606 401.257 221.63 401.007C219.647 400.509 217.893 399.948 216.439 399.429C214.986 398.9 213.834 398.412 213.055 398.059C212.287 397.675 211.861 397.457 211.871 397.426Z" fill="#EB996E"/>
<path d="M216.782 399.535C216.657 399.535 216.595 398.601 216.315 397.49C216.055 396.379 215.692 395.518 215.795 395.455C215.889 395.403 216.45 396.213 216.73 397.386C217.021 398.559 216.896 399.546 216.782 399.535Z" fill="#EB996E"/>
<path d="M252.731 399.831L243.647 396.332C243.647 396.332 218.43 384.56 218.004 385.203C217.579 385.836 216.208 385.774 216.509 388.847C216.81 391.92 231.5 398.118 231.968 399.187C232.435 400.257 231.656 405.634 237.086 409.496C242.515 413.358 246.429 413.441 246.429 413.441" fill="#FFBE9D"/>
<path d="M246.431 413.437C246.431 413.447 246.359 413.447 246.213 413.447C246.068 413.437 245.86 413.426 245.58 413.385C245.03 413.312 244.22 413.146 243.224 412.814C242.217 412.492 241.023 411.994 239.704 411.277C238.396 410.55 236.922 409.678 235.52 408.381C234.119 407.093 232.977 405.245 232.427 403.076C232.136 401.996 232.032 400.823 231.887 399.681C231.866 399.536 231.835 399.411 231.793 399.286C231.762 399.203 231.669 399.131 231.554 399.048C231.326 398.881 231.077 398.726 230.817 398.57C230.298 398.269 229.758 397.978 229.219 397.677C227.028 396.514 224.703 395.331 222.356 393.981C221.183 393.306 220 392.59 218.858 391.77C218.287 391.355 217.726 390.919 217.217 390.4C216.958 390.14 216.719 389.849 216.522 389.528C216.439 389.351 216.345 389.175 216.314 388.957C216.273 388.749 216.283 388.583 216.262 388.396C216.231 387.669 216.262 386.891 216.646 386.205C216.844 385.863 217.165 385.603 217.446 385.406C217.591 385.302 217.716 385.209 217.799 385.105C217.83 385.084 217.778 385.115 217.882 385.022C217.996 384.949 218.017 384.97 218.058 384.97C218.152 384.96 218.172 384.98 218.235 384.98C218.328 385.001 218.422 385.022 218.505 385.043C219.875 385.468 221.121 386.008 222.377 386.527C224.869 387.576 227.246 388.635 229.52 389.652C234.046 391.687 238.105 393.576 241.5 395.165C242.351 395.559 243.161 395.964 243.929 396.286C244.719 396.597 245.456 396.888 246.151 397.158C247.532 397.708 248.715 398.175 249.702 398.57C250.646 398.954 251.404 399.255 251.944 399.473C252.183 399.577 252.37 399.65 252.526 399.722C252.65 399.785 252.723 399.816 252.712 399.816C252.712 399.826 252.64 399.805 252.505 399.764C252.349 399.712 252.152 399.639 251.913 399.556C251.363 399.359 250.605 399.079 249.639 398.726C248.643 398.352 247.439 397.906 246.058 397.386C245.362 397.127 244.615 396.836 243.826 396.546C243.037 396.224 242.237 395.829 241.376 395.445C237.95 393.898 233.88 392.05 229.354 390.015C227.09 389.008 224.703 387.96 222.211 386.911C220.965 386.403 219.688 385.852 218.39 385.447C218.307 385.427 218.235 385.406 218.152 385.396C218.131 385.396 218.069 385.385 218.069 385.385C218.069 385.375 218.069 385.416 218.058 385.354C218.027 385.271 218.058 385.292 218.037 385.25C218.027 385.24 218.017 385.229 218.006 385.219C218.297 385.416 218.079 385.281 218.141 385.333L218.121 385.364C217.986 385.541 217.819 385.655 217.685 385.759C217.394 385.967 217.155 386.153 216.999 386.434C216.677 386.984 216.636 387.7 216.667 388.386C216.688 388.759 216.709 389.04 216.875 389.32C217.041 389.6 217.259 389.87 217.498 390.109C217.975 390.597 218.525 391.022 219.086 391.438C220.207 392.237 221.38 392.953 222.543 393.628C224.879 394.978 227.194 396.161 229.385 397.335C229.935 397.636 230.475 397.926 230.994 398.238C231.253 398.394 231.513 398.549 231.762 398.746C231.876 398.84 232.032 398.954 232.115 399.151C232.177 399.317 232.209 399.473 232.229 399.619C232.375 400.812 232.458 401.923 232.738 402.982C233.267 405.09 234.347 406.896 235.697 408.163C237.036 409.44 238.51 410.332 239.787 411.07C241.085 411.796 242.258 412.305 243.244 412.658C244.231 413.001 245.02 413.187 245.559 413.291C245.829 413.343 246.037 413.374 246.182 413.395C246.359 413.426 246.431 413.426 246.431 413.437Z" fill="#EB996E"/>
<path d="M218.619 414.619C218.629 414.598 218.982 414.661 219.584 414.899C220.187 415.138 221.038 415.553 221.962 416.27C222.419 416.633 222.896 417.059 223.332 417.599C223.747 418.138 224.173 418.865 224.069 419.716C223.955 420.578 223.218 421.263 222.387 421.533C221.526 421.824 220.602 421.689 219.74 421.45C216.356 420.422 213.418 419.177 211.383 418.097C210.365 417.557 209.566 417.069 209.037 416.706C208.497 416.342 208.216 416.124 208.237 416.104C208.258 416.072 208.569 416.249 209.12 416.571C209.68 416.882 210.49 417.329 211.518 417.837C213.573 418.844 216.522 420.038 219.854 421.056C220.674 421.284 221.526 421.398 222.252 421.149C222.979 420.921 223.581 420.35 223.675 419.675C223.779 418.99 223.436 418.336 223.052 417.827C222.657 417.308 222.19 416.882 221.765 416.508C220.01 415.055 218.577 414.702 218.619 414.619Z" fill="#EB996E"/>
<g opacity="0.3">
<path opacity="0.3" d="M337.013 413.001C328.853 385.479 321.658 350.036 313.498 322.514C310.519 347.918 314.246 381.461 318.928 406.616C319.478 409.564 319.727 412.45 322.011 414.392L337.013 413.001Z" fill="black"/>
</g>
<path d="M323.653 394.105C323.538 394.126 323.196 392.309 322.095 389.558C321.555 388.177 320.756 386.599 319.759 384.928C318.721 383.277 317.444 381.533 315.929 379.872C314.382 378.232 312.741 376.83 311.174 375.667C309.575 374.536 308.059 373.633 306.73 372.989C304.073 371.681 302.277 371.203 302.318 371.099C302.328 371.068 302.775 371.172 303.585 371.4C303.99 371.504 304.477 371.66 305.028 371.878C305.578 372.096 306.232 372.314 306.896 372.646C308.267 373.248 309.824 374.141 311.464 375.262C313.074 376.415 314.755 377.827 316.333 379.498C317.88 381.19 319.168 382.966 320.195 384.658C321.192 386.371 321.96 387.99 322.469 389.402C322.76 390.098 322.926 390.752 323.102 391.323C323.289 391.894 323.393 392.392 323.476 392.797C323.611 393.648 323.684 394.105 323.653 394.105Z" fill="#263238"/>
<path d="M339.205 254.689C339.205 254.689 313.105 312.982 313.105 323.685C313.105 334.389 332.664 408.753 332.664 408.753C332.478 411.702 331.72 426.527 331.72 426.527L441.34 426.9L443.012 403.334L434.457 380.878L443.001 317.404C443.001 317.404 448.753 280.549 449.262 270.24C449.905 257.346 406.209 242.397 407.402 240.611L399.855 230.51L356.636 265.6L348.092 240.933L337.855 250.609L339.205 254.689Z" fill="#0084E4"/>
<path d="M410.995 270.199C399.128 290.277 377.42 326.862 377.42 326.862L338.51 371.223C338.51 371.223 335.966 393.772 341.053 400.676C346.14 407.58 354.871 412.314 354.871 412.314C354.871 412.314 365.149 412.314 378.189 401.403C391.238 390.492 427.232 345.404 427.232 345.404L439.596 330.496C439.596 330.496 454.338 294.284 451.587 275.846C450.528 268.735 447.497 265.786 443.469 262.527C433.315 254.346 417.629 258.976 410.995 270.199Z" fill="#0084E4"/>
<path d="M444.173 317.903C444.183 317.903 444.121 318.048 443.997 318.318C443.851 318.609 443.664 319.004 443.426 319.502C442.907 320.54 442.118 322.045 441.038 323.956C438.889 327.786 435.556 333.206 431.186 339.725C428.995 342.985 426.555 346.525 423.877 350.284C421.219 354.063 418.136 357.914 415.613 362.441C413.038 366.926 410.817 371.909 408.066 376.861C405.314 381.803 402.065 386.713 398.182 391.302C394.289 395.88 389.887 399.867 385.07 402.888C380.274 405.93 375.041 407.902 369.892 408.764C364.743 409.657 359.666 409.366 355.191 408.141C352.939 407.549 350.862 406.646 348.973 405.618C347.073 404.601 345.35 403.438 343.855 402.151C342.339 400.884 341.041 399.503 339.993 398.06C338.903 396.648 338.103 395.164 337.439 393.742C336.162 390.866 335.622 388.198 335.352 386.018C335.134 383.827 335.124 382.114 335.175 380.962C335.207 380.401 335.238 379.965 335.248 379.643C335.269 379.352 335.279 379.197 335.29 379.197C335.3 379.197 335.3 379.352 335.3 379.643C335.29 379.965 335.29 380.401 335.279 380.951C335.259 382.104 335.3 383.806 335.56 385.976C335.871 388.135 336.432 390.783 337.719 393.607C338.394 394.998 339.193 396.462 340.273 397.842C341.311 399.254 342.609 400.604 344.104 401.839C345.588 403.106 347.301 404.237 349.18 405.234C351.06 406.241 353.094 407.113 355.316 407.695C359.739 408.878 364.743 409.148 369.819 408.255C374.906 407.383 380.056 405.442 384.79 402.421C389.545 399.431 393.905 395.475 397.767 390.928C401.618 386.37 404.858 381.491 407.609 376.581C410.36 371.67 412.582 366.676 415.187 362.171C417.731 357.613 420.856 353.751 423.514 350.003C426.213 346.256 428.673 342.736 430.874 339.497C435.276 333.008 438.66 327.631 440.861 323.841C441.972 321.952 442.792 320.457 443.332 319.44C443.592 318.952 443.799 318.568 443.955 318.287C444.08 318.038 444.163 317.903 444.173 317.903Z" fill="#263238"/>
<path d="M336.558 369.219C336.599 369.302 336.008 369.634 335.291 370.433C334.575 371.212 333.786 372.53 333.63 374.14C333.485 375.749 334.025 377.192 334.585 378.085C335.146 378.998 335.665 379.445 335.613 379.507C335.582 379.559 334.949 379.206 334.274 378.292C333.599 377.399 332.945 375.853 333.101 374.088C333.267 372.323 334.191 370.921 335.021 370.163C335.852 369.385 336.537 369.167 336.558 369.219Z" fill="#263238"/>
<path d="M343.711 381.004C343.722 380.984 343.929 381.036 344.324 381.15C344.521 381.202 344.76 381.285 345.05 381.347C345.351 381.399 345.684 381.461 346.057 381.534C347.573 381.783 349.847 381.752 352.473 380.942C355.09 380.101 358.007 378.492 360.737 376.084C363.468 373.675 365.918 370.457 368.482 367.103C371.036 363.729 373.611 360.563 376.455 358.185C377.867 357.002 379.248 355.953 380.411 354.822C381.563 353.701 382.487 352.486 383.006 351.24C383.982 348.686 383.328 346.278 382.404 345.115C381.449 343.911 380.483 343.786 380.525 343.713C380.525 343.693 380.743 343.745 381.127 343.89C381.501 344.066 382.051 344.367 382.56 344.99C383.577 346.184 384.335 348.665 383.349 351.385C382.819 352.714 381.874 353.981 380.712 355.144C379.549 356.317 378.158 357.386 376.767 358.57C373.984 360.926 371.451 364.062 368.897 367.436C366.333 370.799 363.852 374.028 361.059 376.468C358.266 378.897 355.266 380.506 352.577 381.316C349.878 382.105 347.542 382.074 346.016 381.752C345.642 381.669 345.31 381.586 345.009 381.513C344.718 381.43 344.479 381.326 344.293 381.264C343.908 381.098 343.711 381.015 343.711 381.004Z" fill="#263238"/>
<path d="M416.278 264.031C416.289 264.042 416.143 264.26 415.842 264.654C415.51 265.09 415.064 265.661 414.513 266.388C413.33 267.862 411.7 270.063 409.717 272.804C405.782 278.306 400.737 286.196 395.868 295.301C390.978 304.396 386.919 312.836 383.815 318.857C382.268 321.878 381.001 324.308 380.088 325.969C379.652 326.758 379.299 327.391 379.029 327.879C378.78 328.315 378.645 328.533 378.624 328.523C378.603 328.512 378.717 328.273 378.925 327.827C379.174 327.329 379.485 326.685 379.89 325.875C380.762 324.121 381.977 321.681 383.462 318.691C386.472 312.628 390.469 304.157 395.38 295.042C400.259 285.916 405.367 278.036 409.395 272.576C411.42 269.856 413.101 267.686 414.337 266.253C414.918 265.558 415.385 265.007 415.749 264.582C416.081 264.208 416.258 264.021 416.278 264.031Z" fill="#263238"/>
<g opacity="0.3">
<path opacity="0.3" d="M335.27 379.195C340.336 381.936 345.891 381.645 351.538 380.534C357.186 379.424 362.418 376.299 366.073 371.845C365.086 376.776 362.979 381.604 359.376 385.113C355.774 388.622 350.573 390.667 345.621 389.764C340.669 388.861 335.675 384.21 335.27 379.195Z" fill="black"/>
</g>
<g opacity="0.3">
<path opacity="0.3" d="M383.13 349.246C386.317 354.125 387.449 360.292 386.213 365.981C390.501 359.42 391.508 351.104 390.355 343.349C389.203 335.594 386.047 328.285 382.538 321.267C382.538 321.267 378.666 327.797 378.634 328.524C378.448 332.292 379.839 339.404 380.565 343.11C382.517 344.948 383.441 347.813 382.922 350.439" fill="black"/>
</g>
<g opacity="0.3">
<path opacity="0.3" d="M352.421 406.366C362.74 414.411 378.043 414.785 389.338 408.182C400.208 401.818 406.904 390.357 413.112 379.404C422.725 362.441 434.467 341.459 441.34 323.208C441.34 323.208 422.082 349.484 416.278 360.811C411.897 369.355 408.534 374.992 403.146 382.934C392.307 398.901 372.686 408.452 353.428 407.155" fill="black"/>
</g>
<path d="M331.716 426.528C331.706 426.528 331.695 426.413 331.695 426.206C331.695 425.957 331.706 425.645 331.716 425.261C331.747 424.379 331.789 423.174 331.851 421.659C331.996 418.503 332.204 414.07 332.443 408.744L332.453 408.816C330.584 402.587 328.404 395.04 326.151 386.88C323.161 376.062 320.639 366.22 318.936 359.067C318.085 355.486 317.431 352.589 317.015 350.575C316.818 349.609 316.662 348.831 316.538 348.26C316.434 347.73 316.393 347.45 316.413 347.44C316.434 347.44 316.517 347.71 316.652 348.229C316.797 348.8 316.984 349.568 317.223 350.523C317.732 352.568 318.438 355.444 319.31 358.974C321.106 366.106 323.68 375.917 326.67 386.734C328.923 394.895 331.072 402.452 332.879 408.692L332.889 408.733V408.764C332.567 414.09 332.297 418.513 332.11 421.669C332.007 423.174 331.924 424.379 331.861 425.261C331.83 425.645 331.799 425.946 331.778 426.206C331.747 426.413 331.726 426.528 331.716 426.528Z" fill="#263238"/>
<path d="M441.379 261.906C441.348 261.989 440.258 261.605 438.452 261.158C436.656 260.712 434.122 260.255 431.299 260.172C428.475 260.089 425.921 260.39 424.094 260.733C422.267 261.075 421.156 261.387 421.135 261.304C421.125 261.273 421.394 261.148 421.882 260.972C422.37 260.785 423.107 260.577 424.021 260.349C425.848 259.902 428.444 259.539 431.319 259.622C434.195 259.715 436.759 260.235 438.555 260.785C439.459 261.055 440.165 261.314 440.653 261.532C441.14 261.74 441.4 261.875 441.379 261.906Z" fill="#263238"/>
<path d="M406.665 242.76C406.686 242.771 406.582 242.958 406.385 243.3C406.156 243.695 405.855 244.183 405.502 244.785C404.724 246.072 403.571 247.91 402.108 250.163C399.17 254.668 394.965 260.793 390.003 267.324C386.006 272.587 382.133 277.3 378.956 281.007L378.738 281.266L378.593 280.955C377.088 277.653 375.842 274.913 374.928 272.93C374.523 272.016 374.202 271.269 373.952 270.698C373.734 270.179 373.631 269.909 373.651 269.898C373.672 269.888 373.817 270.147 374.077 270.646C374.357 271.206 374.721 271.933 375.167 272.826C376.112 274.788 377.42 277.498 378.998 280.778L378.635 280.726C381.749 276.989 385.59 272.255 389.577 267.002C394.539 260.482 398.785 254.398 401.796 249.955C403.26 247.775 404.464 245.979 405.336 244.671C405.731 244.089 406.053 243.612 406.302 243.238C406.52 242.916 406.644 242.75 406.665 242.76Z" fill="#263238"/>
<path d="M431.89 410.166C431.745 410.145 432.222 404.757 432.949 398.134C433.686 391.5 434.402 386.143 434.548 386.153C434.693 386.174 434.216 391.562 433.489 398.186C432.762 404.82 432.046 410.177 431.89 410.166Z" fill="#263238"/>
<path d="M356.76 408.753C356.905 408.732 357.465 412.792 357.995 417.796C358.535 422.81 358.846 426.88 358.691 426.901C358.545 426.921 357.985 422.862 357.455 417.858C356.926 412.844 356.614 408.764 356.76 408.753Z" fill="#263238"/>
<path d="M412.207 290.173C412.072 289.311 410.878 288.844 410.193 289.374L410.12 289.436C409.477 290.017 409.715 291.273 410.536 291.564C411.356 291.855 412.342 291.035 412.207 290.173Z" fill="white"/>
<path d="M401.381 263.794C401.246 262.933 400.052 262.466 399.367 262.995L399.294 263.057C398.651 263.639 398.889 264.895 399.709 265.186C400.54 265.466 401.516 264.646 401.381 263.794Z" fill="white"/>
<path d="M376.537 285.032C376.402 284.17 375.208 283.703 374.523 284.232L374.45 284.295C373.806 284.876 374.045 286.132 374.865 286.423C375.696 286.714 376.672 285.893 376.537 285.032Z" fill="white"/>
<path d="M349.679 274.372C349.544 273.51 348.351 273.043 347.665 273.573L347.593 273.635C346.949 274.216 347.188 275.473 348.008 275.763C348.839 276.044 349.825 275.223 349.679 274.372Z" fill="white"/>
<path d="M344.934 263.857C344.799 262.995 343.605 262.528 342.92 263.057L342.848 263.119C342.204 263.701 342.443 264.957 343.263 265.248C344.083 265.528 345.069 264.708 344.934 263.857Z" fill="white"/>
<path d="M346.991 251.701C346.856 250.839 345.662 250.372 344.977 250.901L344.904 250.963C344.261 251.545 344.5 252.801 345.32 253.092C346.15 253.372 347.136 252.562 346.991 251.701Z" fill="white"/>
<path d="M332.123 268.415C331.988 267.553 330.794 267.086 330.109 267.616L330.036 267.678C329.393 268.259 329.632 269.516 330.452 269.806C331.272 270.087 332.258 269.277 332.123 268.415Z" fill="white"/>
<path d="M366.569 273.229C366.435 272.367 365.241 271.9 364.555 272.43L364.483 272.492C363.839 273.073 364.078 274.33 364.898 274.62C365.729 274.911 366.715 274.091 366.569 273.229Z" fill="white"/>
<path d="M337.408 294.895C337.273 294.034 336.079 293.566 335.394 294.096L335.321 294.158C334.678 294.74 334.916 295.996 335.737 296.287C336.557 296.567 337.543 295.757 337.408 294.895Z" fill="white"/>
<path d="M310.705 357.207C310.57 356.345 309.377 355.878 308.691 356.408L308.619 356.47C307.975 357.051 308.214 358.308 309.034 358.598C309.854 358.879 310.84 358.069 310.705 357.207Z" fill="white"/>
<path d="M320.237 321.268C320.102 320.406 318.908 319.939 318.223 320.468L318.15 320.531C317.506 321.112 317.745 322.368 318.565 322.659C319.385 322.949 320.372 322.129 320.237 321.268Z" fill="white"/>
<path d="M390.449 258.167C390.314 257.305 389.12 256.838 388.435 257.367L388.362 257.429C387.719 258.011 387.957 259.267 388.778 259.558C389.608 259.838 390.594 259.028 390.449 258.167Z" fill="white"/>
<path d="M423.971 329.73C423.836 328.868 422.642 328.401 421.957 328.93L421.884 328.992C421.24 329.574 421.479 330.83 422.299 331.121C423.119 331.401 424.106 330.581 423.971 329.73Z" fill="white"/>
<path d="M437.021 268.144C436.886 267.282 435.692 266.815 435.007 267.344L434.935 267.407C434.291 267.988 434.53 269.244 435.35 269.535C436.18 269.815 437.156 269.005 437.021 268.144Z" fill="white"/>
<path d="M431.893 308.475C431.758 307.614 430.564 307.147 429.879 307.676L429.806 307.738C429.163 308.32 429.401 309.576 430.222 309.867C431.052 310.147 432.038 309.327 431.893 308.475Z" fill="white"/>
<path d="M402.616 337.597C402.481 336.735 401.287 336.268 400.602 336.798L400.529 336.86C399.885 337.441 400.124 338.697 400.944 338.988C401.765 339.268 402.751 338.448 402.616 337.597Z" fill="white"/>
<path d="M403.851 313.355C403.716 312.494 402.522 312.026 401.837 312.556L401.764 312.618C401.12 313.2 401.359 314.456 402.179 314.746C402.999 315.027 403.986 314.207 403.851 313.355Z" fill="white"/>
<path d="M421.509 268.351C421.374 267.489 420.18 267.022 419.495 267.552L419.422 267.614C418.778 268.195 419.017 269.452 419.837 269.742C420.668 270.033 421.644 269.213 421.509 268.351Z" fill="white"/>
<path d="M397.726 244.868C397.591 244.006 396.397 243.539 395.712 244.068L395.639 244.13C394.996 244.712 395.234 245.968 396.055 246.259C396.885 246.539 397.871 245.729 397.726 244.868Z" fill="white"/>
<path d="M396.863 282.73C396.728 281.868 395.534 281.401 394.849 281.93L394.776 281.992C394.133 282.574 394.372 283.83 395.192 284.121C396.022 284.401 396.998 283.591 396.863 282.73Z" fill="white"/>
<path d="M366.509 398.226C366.374 397.364 365.18 396.897 364.495 397.427L364.422 397.489C363.778 398.07 364.017 399.327 364.837 399.617C365.657 399.898 366.644 399.088 366.509 398.226Z" fill="white"/>
<path d="M331.677 379.227C331.542 378.366 330.348 377.899 329.663 378.428L329.591 378.49C328.947 379.072 329.186 380.328 330.006 380.619C330.826 380.909 331.812 380.089 331.677 379.227Z" fill="white"/>
<path d="M303.512 388.54C303.377 387.679 302.183 387.211 301.498 387.741L301.426 387.803C300.782 388.385 301.021 389.641 301.841 389.931C302.671 390.212 303.647 389.402 303.512 388.54Z" fill="white"/>
<path d="M300.501 404.58C300.366 403.719 299.172 403.252 298.487 403.781L298.414 403.843C297.77 404.425 298.009 405.681 298.829 405.972C299.649 406.252 300.636 405.442 300.501 404.58Z" fill="white"/>
<path d="M326.9 409.959C326.765 409.097 325.571 408.63 324.886 409.16L324.813 409.222C324.17 409.803 324.409 411.06 325.229 411.35C326.059 411.631 327.035 410.81 326.9 409.959Z" fill="white"/>
<path d="M318.077 374.036C317.942 373.175 316.748 372.708 316.063 373.237L315.99 373.299C315.347 373.881 315.585 375.137 316.406 375.428C317.226 375.708 318.212 374.888 318.077 374.036Z" fill="white"/>
<path d="M350.469 383.164C350.334 382.302 349.14 381.835 348.454 382.364L348.382 382.427C347.738 383.008 347.977 384.264 348.797 384.555C349.617 384.835 350.603 384.025 350.469 383.164Z" fill="white"/>
<path d="M427.469 373.974C427.334 373.113 426.14 372.646 425.455 373.175L425.382 373.237C424.739 373.819 424.977 375.075 425.798 375.366C426.628 375.646 427.614 374.836 427.469 373.974Z" fill="white"/>
<path d="M379.829 419.633C379.694 418.771 378.5 418.304 377.814 418.834L377.742 418.896C377.098 419.477 377.337 420.734 378.157 421.024C378.977 421.305 379.963 420.484 379.829 419.633Z" fill="white"/>
<path d="M400.144 394.22C400.009 393.359 398.815 392.891 398.13 393.421L398.057 393.483C397.414 394.065 397.652 395.321 398.473 395.611C399.303 395.892 400.289 395.072 400.144 394.22Z" fill="white"/>
<path d="M412.217 414.889C412.082 414.027 410.888 413.56 410.203 414.089L410.13 414.152C409.487 414.733 409.725 415.989 410.545 416.28C411.366 416.56 412.352 415.74 412.217 414.889Z" fill="white"/>
<path d="M378.633 306.64C378.499 305.778 377.305 305.311 376.619 305.841L376.547 305.903C375.903 306.484 376.142 307.74 376.962 308.031C377.782 308.322 378.768 307.502 378.633 306.64Z" fill="white"/>
<path d="M405.958 359.41C405.824 358.548 404.63 358.081 403.944 358.61L403.872 358.673C403.228 359.254 403.467 360.51 404.287 360.801C405.118 361.081 406.104 360.271 405.958 359.41Z" fill="white"/>
<path d="M397.104 379.393C396.969 378.531 395.775 378.064 395.09 378.594L395.017 378.656C394.373 379.237 394.612 380.494 395.432 380.784C396.252 381.075 397.239 380.255 397.104 379.393Z" fill="white"/>
<path d="M426.245 395.445C426.11 394.583 424.916 394.116 424.231 394.646L424.158 394.708C423.515 395.289 423.753 396.546 424.574 396.836C425.394 397.127 426.38 396.307 426.245 395.445Z" fill="white"/>
<path d="M346.502 418.626C346.367 417.764 345.173 417.297 344.488 417.826L344.416 417.888C343.772 418.47 344.011 419.726 344.831 420.017C345.651 420.297 346.637 419.487 346.502 418.626Z" fill="white"/>
<path d="M280.059 412.563C279.924 411.701 278.73 411.234 278.045 411.763L277.972 411.825C277.328 412.407 277.567 413.663 278.387 413.954C279.207 414.234 280.194 413.414 280.059 412.563Z" fill="white"/>
<path d="M338.571 401.652C338.436 400.79 337.242 400.323 336.557 400.852L336.484 400.915C335.841 401.496 336.079 402.752 336.9 403.043C337.72 403.323 338.706 402.503 338.571 401.652Z" fill="white"/>
<path d="M282.519 389.775C282.385 388.914 281.191 388.446 280.505 388.976L280.433 389.038C279.789 389.619 280.028 390.876 280.848 391.166C281.668 391.447 282.654 390.637 282.519 389.775Z" fill="white"/>
<path d="M376.174 352.089C376.039 351.227 374.845 350.76 374.16 351.29L374.087 351.352C373.443 351.933 373.682 353.189 374.502 353.48C375.322 353.771 376.309 352.951 376.174 352.089Z" fill="white"/>
<path d="M356.573 294.895C356.438 294.034 355.244 293.566 354.559 294.096L354.487 294.158C353.843 294.74 354.082 295.996 354.902 296.287C355.722 296.567 356.708 295.757 356.573 294.895Z" fill="white"/>
<path d="M351.673 344.503C351.539 343.641 350.345 343.174 349.659 343.703L349.587 343.766C348.943 344.347 349.182 345.603 350.002 345.894C350.833 346.174 351.808 345.354 351.673 344.503Z" fill="white"/>
<path d="M343.7 328.316C343.565 327.454 342.371 326.987 341.686 327.517L341.614 327.579C340.97 328.16 341.209 329.416 342.029 329.707C342.849 329.998 343.835 329.178 343.7 328.316Z" fill="white"/>
<path d="M378.967 379.176C378.832 378.314 377.638 377.847 376.953 378.376L376.88 378.439C376.236 379.02 376.475 380.276 377.295 380.567C378.115 380.857 379.102 380.027 378.967 379.176Z" fill="white"/>
<path d="M354.102 369.189C353.968 368.327 352.774 367.86 352.088 368.389L352.016 368.451C351.372 369.033 351.611 370.289 352.431 370.58C353.262 370.87 354.248 370.05 354.102 369.189Z" fill="white"/>
<path d="M364.742 314.426C364.607 313.564 363.413 313.097 362.728 313.626L362.655 313.689C362.012 314.27 362.25 315.526 363.071 315.817C363.901 316.097 364.877 315.287 364.742 314.426Z" fill="white"/>
<path d="M326.9 353.2C326.765 352.339 325.571 351.871 324.886 352.401L324.813 352.463C324.17 353.045 324.409 354.301 325.229 354.591C326.059 354.882 327.035 354.062 326.9 353.2Z" fill="white"/>
<path d="M385.32 335.407C385.185 334.545 383.991 334.078 383.306 334.607L383.233 334.669C382.589 335.251 382.828 336.507 383.648 336.798C384.469 337.078 385.455 336.268 385.32 335.407Z" fill="white"/>
<path d="M439.491 288.938C439.356 288.076 438.162 287.609 437.477 288.139L437.404 288.201C436.761 288.782 437 290.039 437.82 290.329C438.64 290.62 439.626 289.8 439.491 288.938Z" fill="white"/>
<path d="M417.494 253.765C417.359 252.904 416.165 252.437 415.48 252.966L415.407 253.028C414.763 253.61 415.002 254.866 415.822 255.157C416.643 255.437 417.629 254.617 417.494 253.765Z" fill="white"/>
<path d="M374.866 258.167C374.731 257.305 373.537 256.838 372.852 257.367L372.779 257.429C372.135 258.011 372.374 259.267 373.194 259.558C374.015 259.838 375.001 259.028 374.866 258.167Z" fill="white"/>
<path d="M331.375 131.87C323.194 137.071 319.934 147.972 321.491 154.419C322.28 157.668 323.755 160.939 323.111 164.209C322.55 167.043 320.515 169.306 318.989 171.756C313.902 179.937 314.806 191.378 321.107 198.666C327.409 205.943 338.6 208.487 347.425 204.625" fill="#263238"/>
<path d="M326.538 174.426C306.647 130.678 353.956 108.7 379.775 115.988C404.037 122.84 414.388 134.914 418.375 151.14C422.371 167.377 422.174 184.954 415.81 200.422C412.675 208.042 407.027 215.787 398.836 216.742" fill="#263238"/>
<path d="M349.845 281.261C349.502 260.363 349.264 231.647 349.253 231.761C349.253 231.761 331.282 228.782 327.566 205.34C325.718 193.681 326.299 174.568 327.286 158.944C328.168 144.877 337.491 127.622 351.506 129.107L395.265 140.163C399.521 140.61 402.729 144.244 402.646 148.531L399.791 239.039" fill="#FFBE9D"/>
<path d="M335.102 173.261C335.029 174.839 336.306 176.199 337.947 176.313C339.587 176.417 340.989 175.233 341.061 173.655C341.134 172.077 339.857 170.717 338.217 170.603C336.566 170.489 335.175 171.683 335.102 173.261Z" fill="#263238"/>
<path d="M366.165 173.261C366.092 174.839 367.369 176.199 369.009 176.313C370.65 176.417 372.051 175.233 372.124 173.655C372.197 172.077 370.92 170.717 369.279 170.603C367.629 170.489 366.238 171.683 366.165 173.261Z" fill="#263238"/>
<path d="M331.864 167.799C332.227 168.204 334.553 166.595 337.792 166.709C341.021 166.782 343.336 168.526 343.71 168.142C343.886 167.976 343.533 167.249 342.526 166.471C341.529 165.692 339.827 164.903 337.813 164.841C335.799 164.789 334.075 165.474 333.079 166.201C332.051 166.917 331.688 167.613 331.864 167.799Z" fill="#263238"/>
<path d="M362.573 168.568C362.946 168.962 365.22 167.26 368.449 167.26C371.677 167.208 374.065 168.858 374.408 168.464C374.574 168.287 374.2 167.581 373.162 166.834C372.145 166.086 370.4 165.37 368.386 165.38C366.372 165.401 364.68 166.149 363.704 166.917C362.718 167.685 362.386 168.402 362.573 168.568Z" fill="#263238"/>
<path d="M351.485 193.485C351.495 193.298 349.491 192.955 346.231 192.54C345.401 192.457 344.622 192.291 344.487 191.73C344.29 191.128 344.643 190.245 345.037 189.28C345.816 187.276 346.626 185.19 347.477 182.989C350.872 174.029 353.322 166.669 352.959 166.534C352.595 166.399 349.553 173.552 346.159 182.511C345.339 184.722 344.56 186.819 343.823 188.844C343.511 189.778 342.971 190.848 343.397 192.083C343.615 192.696 344.228 193.152 344.757 193.287C345.287 193.453 345.754 193.453 346.159 193.485C349.439 193.651 351.474 193.671 351.485 193.485Z" fill="#263238"/>
<path d="M349.253 231.772C349.253 231.772 365.023 232.79 380.647 223.394C380.647 223.394 372.716 239.704 349.253 237.513V231.772Z" fill="#EB996E"/>
<path d="M361.772 163.968C362.093 164.85 365.322 164.435 369.111 164.892C372.922 165.276 375.974 166.387 376.482 165.598C376.711 165.224 376.171 164.393 374.936 163.542C373.711 162.691 371.748 161.881 369.475 161.632C367.201 161.383 365.115 161.746 363.723 162.307C362.332 162.857 361.626 163.553 361.772 163.968Z" fill="#263238"/>
<path d="M332.61 159.671C333.181 160.408 335.413 159.64 338.091 159.609C340.77 159.484 343.043 160.107 343.563 159.339C343.791 158.965 343.438 158.228 342.441 157.533C341.465 156.837 339.825 156.276 337.988 156.328C336.15 156.391 334.551 157.055 333.617 157.802C332.672 158.55 332.361 159.308 332.61 159.671Z" fill="#263238"/>
<path d="M398.607 179.399C398.949 179.233 411.158 173.834 411.293 187.87C411.438 201.906 397.319 199.155 397.288 198.75C397.267 198.345 398.607 179.399 398.607 179.399Z" fill="#FFBE9D"/>
<path d="M401.525 193.384C401.587 193.342 401.774 193.55 402.189 193.737C402.594 193.913 403.289 194.038 404.016 193.757C405.49 193.197 406.715 190.83 406.757 188.297C406.778 187.02 406.497 185.805 406.041 184.798C405.605 183.781 404.93 183.064 404.182 182.94C403.435 182.774 402.916 183.23 402.75 183.625C402.563 184.019 402.656 184.3 402.583 184.32C402.542 184.352 402.282 184.092 402.386 183.511C402.438 183.23 402.604 182.898 402.926 182.628C403.258 182.348 403.757 182.203 404.276 182.255C405.355 182.317 406.342 183.303 406.85 184.404C407.421 185.504 407.764 186.874 407.733 188.307C407.67 191.141 406.248 193.799 404.224 194.401C403.237 194.671 402.417 194.38 401.981 194.048C401.556 193.726 401.483 193.415 401.525 193.384Z" fill="#EB996E"/>
<path d="M346.822 122.185C339.015 126.224 335.797 142.191 339.036 150.371C342.264 158.542 350.975 162.539 359.56 164.418C368.146 166.297 376.566 166.525 385.027 164.169C385.618 169.858 389.034 175.713 394.557 177.208C401.876 179.201 409.247 172.495 410.867 165.093C412.497 157.691 410.057 150.07 407.648 142.876" fill="#263238"/>
<path d="M408.751 173.119C408.782 173.16 408.398 173.524 407.672 174.147C406.934 174.759 405.865 175.631 404.432 176.586C403 177.531 401.204 178.58 398.972 179.223C396.781 179.857 394.082 180.085 391.528 179.12C388.974 178.144 387.085 176.213 385.891 174.25C384.686 172.257 384.136 170.222 383.866 168.52C383.607 166.807 383.607 165.416 383.648 164.45C383.69 163.495 383.783 162.966 383.835 162.966C383.991 162.966 383.825 165.094 384.437 168.406C384.769 170.046 385.351 171.987 386.524 173.846C387.687 175.683 389.472 177.469 391.819 178.351C394.155 179.244 396.667 179.068 398.774 178.497C400.903 177.926 402.678 176.96 404.121 176.088C406.986 174.302 408.668 173.005 408.751 173.119Z" fill="#263238"/>
<path d="M352.438 202.498C352.905 203.692 353.393 204.907 354.182 205.914C354.971 206.921 356.124 207.731 357.411 207.783C358.781 207.845 360.09 207.035 360.858 205.904C361.616 204.772 361.875 203.35 361.813 201.99C361.761 200.754 361.19 199.28 359.965 199.135C359.456 199.072 358.947 199.27 358.47 199.467C356.321 200.339 354.172 201.211 352.013 202.083" fill="#EB996E"/>
<path d="M355.015 207.813C355.046 207.606 356.468 208.187 358.462 207.388C359.427 207.003 360.486 206.235 361.068 205.02C361.649 203.827 361.763 202.207 361.151 200.795C361.005 200.442 360.798 200.12 360.59 199.83C360.33 199.56 360.382 199.57 360.102 199.612C359.842 199.684 359.417 199.882 359.064 200.017C358.7 200.162 358.348 200.307 358.005 200.453C356.624 201.013 355.368 201.501 354.319 201.896C352.202 202.685 350.873 203.1 350.8 202.955C350.738 202.809 351.963 202.124 353.998 201.148C355.015 200.66 356.23 200.089 357.59 199.477C357.932 199.321 358.275 199.165 358.638 199.009C359.012 198.854 359.303 198.688 359.822 198.522C360.071 198.449 360.434 198.407 360.777 198.553C361.119 198.688 361.327 198.926 361.493 199.113C361.784 199.497 362.033 199.892 362.22 200.338C362.978 202.103 362.791 204.055 362.023 205.498C361.234 206.972 359.884 207.803 358.742 208.145C357.579 208.498 356.583 208.415 355.949 208.249C355.295 208.093 354.994 207.875 355.015 207.813Z" fill="#263238"/>
<path d="M414.348 169.785C412.905 169.681 401.319 171.187 402.232 192.729C403.084 212.859 417.203 208.426 421.708 200.847C425.975 193.673 428.446 170.782 414.348 169.785Z" fill="#455A64"/>
<path d="M421.51 172.33C421.5 172.33 421.479 172.133 421.459 171.759C421.438 171.344 421.417 170.794 421.386 170.119C421.344 168.634 421.282 166.558 421.209 163.983C421.106 158.689 420.96 151.338 420.784 142.846L421.043 143.106C419.133 143.106 417.119 143.116 415.063 143.116L415.333 142.836C415.375 144.445 415.427 146.137 415.468 147.85C415.666 155.937 415.852 163.464 416.008 169.766V169.953L415.832 169.994C413.143 170.628 411.015 172.185 409.675 173.96C408.305 175.735 407.63 177.614 407.215 179.161C406.8 180.719 406.665 181.985 406.582 182.836C406.54 183.262 406.519 183.594 406.509 183.823C406.498 184.041 406.488 184.165 406.478 184.165C406.467 184.165 406.447 184.051 406.436 183.823C406.426 183.594 406.426 183.262 406.436 182.836C406.467 181.975 406.571 180.687 406.955 179.099C407.339 177.521 407.993 175.59 409.374 173.742C410.724 171.894 412.935 170.233 415.717 169.558L415.541 169.787C415.364 163.485 415.146 155.958 414.908 147.871C414.866 146.158 414.814 144.466 414.773 142.856L414.762 142.576H415.043C417.098 142.576 419.102 142.587 421.022 142.587H421.282V142.846C421.375 151.338 421.459 158.689 421.51 163.983C421.521 166.558 421.521 168.634 421.531 170.119C421.521 170.794 421.521 171.344 421.51 171.759C421.542 172.143 421.531 172.33 421.51 172.33Z" fill="#455A64"/>
<path d="M414.348 142.857C414.348 142.857 408.285 128.665 393.844 121.668C386.847 118.273 381.614 116.529 376.538 115.252C376.538 115.252 384.968 113.248 398.599 119.321C404.797 122.083 411.036 125.665 415.168 131.053C417.795 134.468 421.065 141.154 421.054 142.867H414.348V142.857Z" fill="#455A64"/>
<path d="M426.928 159.683C426.835 159.704 426.97 158.209 425.984 155.842C425.028 153.516 422.661 150.36 418.53 148.377C416.474 147.412 414.014 146.799 411.345 146.623C408.667 146.446 405.791 146.706 402.822 147.277C396.873 148.367 390.623 150.942 383.626 151.99C380.117 152.447 376.65 152.426 373.348 151.98C370.047 151.513 366.953 150.578 364.109 149.478C358.451 147.142 353.883 143.882 350.654 140.591C347.404 137.31 345.307 134.165 344.134 131.87C343.802 131.32 343.563 130.801 343.366 130.344C343.169 129.898 343.003 129.524 342.857 129.192C342.733 128.901 342.639 128.673 342.556 128.486C342.494 128.32 342.463 128.237 342.473 128.237C342.483 128.237 342.525 128.309 342.608 128.465C342.701 128.652 342.816 128.87 342.961 129.15C343.117 129.462 343.293 129.836 343.511 130.272C343.719 130.718 343.968 131.227 344.321 131.767C345.536 134.019 347.674 137.103 350.924 140.311C354.163 143.539 358.7 146.727 364.295 149.011C367.109 150.09 370.161 151.004 373.421 151.45C376.681 151.886 380.096 151.897 383.554 151.45C390.457 150.412 396.718 147.858 402.739 146.779C405.739 146.218 408.657 145.969 411.387 146.166C414.107 146.363 416.609 147.007 418.706 148.024C422.911 150.101 425.267 153.361 426.191 155.748C426.69 156.953 426.814 157.96 426.918 158.634C426.928 158.946 426.939 159.205 426.949 159.403C426.939 159.59 426.939 159.683 426.928 159.683Z" fill="#455A64"/>
<path d="M411.263 137.31C411.263 137.331 411.004 137.372 410.516 137.445C410.028 137.507 409.301 137.621 408.377 137.777C406.529 138.089 403.871 138.67 400.612 139.49C397.352 140.3 393.448 141.276 389.005 141.743C384.572 142.21 379.62 142.169 374.522 141.431C369.425 140.694 364.67 139.334 360.538 137.673C356.396 136.002 352.856 134.081 350.042 132.223C348.651 131.278 347.395 130.406 346.346 129.576C345.319 128.724 344.395 128.029 343.709 127.385C343.055 126.773 342.526 126.274 342.131 125.9C341.778 125.558 341.592 125.371 341.602 125.361C341.612 125.35 341.82 125.506 342.204 125.828C342.619 126.181 343.17 126.648 343.844 127.229C344.55 127.852 345.485 128.517 346.533 129.347C347.592 130.147 348.859 130.998 350.25 131.911C355.866 135.504 364.452 139.469 374.605 140.912C379.661 141.649 384.551 141.701 388.953 141.265C393.355 140.84 397.248 139.905 400.529 139.137C403.799 138.369 406.477 137.839 408.346 137.59C409.28 137.466 410.007 137.383 410.505 137.351C410.993 137.3 411.263 137.289 411.263 137.31Z" fill="#455A64"/>
<path d="M412.799 206.869C412.789 206.889 412.654 206.848 412.395 206.754C412.135 206.65 411.761 206.484 411.315 206.194C410.422 205.633 409.239 204.595 408.273 202.955C407.297 201.325 406.653 199.113 406.404 196.632C406.166 194.161 406.166 191.431 406.394 188.576C406.633 185.731 407.11 183.032 407.723 180.634C408.325 178.236 409.052 176.087 410.038 174.467C411.014 172.837 412.197 171.789 413.09 171.249C413.537 170.969 413.91 170.802 414.17 170.699C414.429 170.605 414.575 170.574 414.575 170.584C414.595 170.626 414.045 170.823 413.204 171.415C412.363 172.007 411.263 173.055 410.36 174.654C409.436 176.253 408.771 178.36 408.2 180.748C407.619 183.126 407.162 185.794 406.923 188.607C406.695 191.421 406.685 194.13 406.892 196.57C407.11 198.999 407.692 201.148 408.595 202.747C409.477 204.356 410.588 205.405 411.419 206.007C412.27 206.63 412.831 206.817 412.799 206.869Z" fill="#263238"/>
<path d="M367.336 209.849L356.685 211.936C355.075 212.247 353.529 211.209 353.207 209.6L353.134 209.205C352.823 207.596 353.861 206.049 355.47 205.727L366.122 203.641C367.731 203.329 369.278 204.367 369.599 205.977L369.672 206.371C369.984 207.98 368.935 209.537 367.336 209.849Z" fill="#455A64"/>
<path d="M368.144 205.248L417.406 189.8C418.62 189.416 419.918 190.09 420.313 191.305C420.717 192.572 419.991 193.911 418.703 194.253L368.331 207.864L368.144 205.248Z" fill="#455A64"/>
<path d="M404.553 198.459C404.543 198.427 405.124 198.22 406.183 197.888C407.336 197.535 408.851 197.078 410.689 196.517C412.578 195.936 414.904 195.323 417.354 194.514C417.946 194.285 418.527 193.974 418.963 193.517C419.389 193.07 419.669 192.437 419.659 191.804C419.659 191.171 419.254 190.6 418.641 190.392C418.029 190.184 417.292 190.278 416.586 190.454C410.855 192.292 405.685 193.963 401.813 195.209C399.985 195.78 398.47 196.247 397.317 196.6C396.248 196.922 395.656 197.078 395.646 197.036C395.635 197.005 396.206 196.777 397.255 196.393C398.397 195.998 399.892 195.469 401.698 194.835C405.467 193.558 410.637 191.783 416.451 189.925C417.198 189.738 418.018 189.613 418.818 189.883C419.628 190.143 420.199 190.973 420.188 191.794C420.199 192.593 419.856 193.34 419.337 193.88C418.807 194.41 418.164 194.742 417.531 194.981C414.987 195.79 412.713 196.341 410.793 196.891C408.945 197.379 407.408 197.784 406.246 198.095C405.166 198.355 404.564 198.49 404.553 198.459Z" fill="#263238"/>
<path d="M324.016 160.723C325.698 166.641 319.687 171.717 317.569 177.5C315.523 183.085 317.268 189.346 319.79 194.744C322.313 200.132 325.635 205.25 326.923 211.064C330.11 225.391 317.153 240.828 319.624 255.29C320.527 260.564 322.645 266.056 324.483 271.081C326.32 276.095 326.196 280.694 324.483 285.75C321.68 294.035 316.925 297.938 313.582 306.026C311.869 310.158 312.004 314.788 312.087 319.252C312.17 323.726 312.139 328.388 310.156 332.395C308.163 336.403 303.616 339.496 299.297 338.334C303.813 343.649 312.16 345.237 318.316 341.957C323.995 338.925 327.172 332.779 329.892 326.945C343.056 298.696 350.022 296.308 349.659 265.142C349.638 263.139 349.264 231.921 349.264 231.921C349.264 231.921 344.333 230.602 341.488 228.64C326.777 218.487 326.248 200.402 326.362 186.387" fill="#263238"/>
<path d="M353.439 255.29V267.052C353.439 267.052 344.396 313.199 341.676 338.831C338.967 364.464 338.499 371.233 338.499 371.233C338.499 371.233 344.988 381.355 358.557 364.163C372.126 346.971 374.545 344.261 379.964 343.96C379.964 343.96 373.33 271.88 373.631 269.17C373.932 266.461 376.04 264.042 376.04 264.042L353.439 255.29Z" fill="#FFBE9D"/>
<path d="M371.234 228.743C371.234 228.743 356.461 248.344 355.246 251.064C354.042 253.774 353.44 255.289 353.44 255.289L376.061 264.031L398.081 239.904L406.22 218.496L403.812 193.165C403.812 193.165 398.984 192.864 398.081 197.089C397.178 201.315 397.479 205.229 397.479 205.229L390.72 199.799L379.83 196.477C379.83 196.477 377.266 200.702 381.491 202.81C385.716 204.917 386.921 204.917 386.921 204.917L390.72 211.551L389.059 218.984L381.366 211.769C379.82 210.316 377.463 210.17 375.75 211.416L370.777 215.029L366.116 212.942L357.073 220.895L353.45 224.217C353.45 224.217 355.859 228.743 360.686 226.625C365.514 224.518 365.513 224.518 365.513 224.518L371.234 228.743Z" fill="#FFBE9D"/>
<path d="M353.44 259.255C353.44 259.255 353.419 259.048 353.429 258.632C353.44 258.217 353.481 257.594 353.575 256.795C353.678 255.985 353.834 254.988 354.146 253.836C354.478 252.694 354.862 251.344 355.734 250.036C359.118 244.845 364.444 237.62 371.078 228.64L371.12 228.91C369.334 227.591 367.393 226.169 365.379 224.695L365.586 224.715C364.61 225.141 363.614 225.577 362.607 226.023C361.589 226.449 360.593 226.989 359.43 227.259C358.288 227.518 356.99 227.435 355.9 226.854C354.789 226.304 353.896 225.411 353.242 224.321L353.149 224.175L353.284 224.051C357.177 220.397 361.496 216.711 365.939 212.766L366.074 212.652L366.23 212.745C367.476 213.482 368.856 214.292 370.248 215.112L369.978 215.123C371.525 214.105 373.092 213.077 374.681 212.029C375.49 211.51 376.238 210.98 377.12 210.451C378.065 209.973 379.28 210.067 380.141 210.721C383.131 213.244 386.183 215.829 389.298 218.455L388.862 218.601C389.36 216.368 389.9 213.95 390.44 211.499L390.471 211.686C389.267 209.589 387.98 207.326 386.671 205.052L386.91 205.187C386.194 205.104 385.654 204.897 385.031 204.679C384.439 204.461 383.848 204.211 383.256 203.952C382.664 203.692 382.083 203.402 381.491 203.121C381.2 202.976 380.899 202.789 380.609 202.613C380.349 202.384 380.048 202.208 379.83 201.927C379.134 201.19 378.729 200.163 378.781 199.156C378.802 198.149 379.103 197.204 379.581 196.332L379.685 196.145L379.892 196.207C383.567 197.328 387.201 198.439 390.772 199.529L390.824 199.54L390.866 199.571C393.15 201.408 395.402 203.215 397.624 205L397.199 205.229C397.053 202.498 397.25 199.81 397.769 197.204C397.998 195.875 398.787 194.556 399.97 193.861C401.133 193.145 402.472 192.864 403.812 192.895H404.03L404.05 193.124C404.902 202.125 405.701 210.617 406.438 218.455V218.507L406.417 218.559C403.396 226.449 400.666 233.612 398.237 239.956L398.226 239.987L398.206 240.008C390.969 247.887 385.145 254.231 381.107 258.612C379.103 260.781 377.546 262.463 376.466 263.616C375.947 264.176 375.542 264.602 375.252 264.903C374.982 265.194 374.826 265.329 374.826 265.329C374.826 265.329 374.95 265.162 375.21 264.861C375.49 264.55 375.874 264.114 376.383 263.533C377.442 262.359 378.968 260.657 380.951 258.456C384.948 254.044 390.731 247.659 397.925 239.738L397.884 239.8C400.292 233.446 403.002 226.273 405.992 218.372L405.981 218.476C405.224 210.627 404.414 202.145 403.542 193.145L403.781 193.373C402.576 193.352 401.289 193.612 400.251 194.266C399.192 194.899 398.507 196.031 398.289 197.276C397.78 199.82 397.593 202.498 397.728 205.156L397.759 205.748L397.302 205.374C395.081 203.589 392.828 201.782 390.544 199.945L390.637 199.996C387.056 198.906 383.432 197.806 379.747 196.685L380.058 196.571C379.633 197.339 379.352 198.242 379.332 199.124C379.29 200.017 379.633 200.879 380.235 201.523C380.422 201.772 380.702 201.927 380.93 202.125C381.2 202.28 381.46 202.447 381.751 202.592C382.332 202.883 382.913 203.163 383.495 203.412C384.637 203.91 385.862 204.44 386.921 204.606L387.097 204.637L387.159 204.751C388.467 207.025 389.755 209.288 390.959 211.385L391.011 211.479L390.99 211.582C390.44 214.022 389.9 216.441 389.402 218.684L389.308 219.109L388.976 218.829C385.872 216.202 382.83 213.628 379.861 211.105C379.155 210.575 378.148 210.492 377.369 210.887C376.591 211.344 375.771 211.925 374.982 212.423C373.393 213.462 371.826 214.5 370.279 215.507L370.144 215.59L370.009 215.507C368.618 214.676 367.237 213.866 366.001 213.129L366.292 213.098C361.849 217.033 357.509 220.708 353.616 224.352L353.668 224.082C354.249 225.058 355.111 225.94 356.118 226.428C357.125 226.958 358.288 227.041 359.357 226.802C360.426 226.563 361.433 226.023 362.461 225.598C363.479 225.151 364.475 224.726 365.451 224.3L365.555 224.248L365.648 224.321C367.652 225.805 369.583 227.238 371.369 228.557L371.525 228.671L371.41 228.827C364.735 237.776 359.357 244.97 355.942 250.109C355.08 251.376 354.675 252.715 354.332 253.836C354.011 254.978 353.834 255.964 353.72 256.764C353.606 257.563 353.554 258.176 353.523 258.591C353.46 259.048 353.44 259.255 353.44 259.255Z" fill="#EB996E"/>
<path d="M381.427 233.291C381.323 233.271 381.718 231.693 381.884 229.118C381.936 227.841 381.863 226.284 381.168 224.758C380.483 223.231 379.123 221.913 377.565 220.709C374.43 218.29 371.419 216.348 369.198 215.009C368.159 214.397 367.277 213.878 366.55 213.452C365.927 213.089 365.574 212.87 365.595 212.839C365.616 212.808 365.99 212.954 366.644 213.265C367.308 213.576 368.243 214.054 369.385 214.677C371.668 215.943 374.741 217.843 377.898 220.283C379.476 221.498 380.898 222.899 381.625 224.55C382.341 226.201 382.372 227.841 382.268 229.139C382.154 230.457 381.926 231.485 381.76 232.201C381.583 232.907 381.469 233.291 381.427 233.291Z" fill="#EB996E"/>
<path d="M397.261 223.873C397.178 223.852 397.396 222.824 397.646 221.163C397.895 219.502 398.134 217.177 398.113 214.612C398.092 212.048 397.812 209.733 397.531 208.072C397.261 206.411 397.023 205.383 397.106 205.362C397.168 205.341 397.531 206.338 397.916 207.999C398.289 209.66 398.632 212.006 398.653 214.612C398.673 217.218 398.372 219.564 398.019 221.236C397.677 222.897 397.324 223.893 397.261 223.873Z" fill="#EB996E"/>
<path d="M296.442 146.955L285.625 127.884C290.411 120.108 293.182 110.962 293.182 101.172C293.182 72.996 270.343 50.1562 242.167 50.1562C213.991 50.1562 191.151 72.996 191.151 101.172C191.151 129.348 213.991 152.188 242.167 152.188C253.929 152.188 264.757 148.191 273.385 141.505L273.364 141.526L296.442 146.955Z" fill="white"/>
<path d="M296.444 146.954C295.499 146.736 288.097 145.033 273.334 141.649L273.126 141.607L273.251 141.441L273.272 141.421L273.459 141.607C270.552 143.86 267.064 146.082 262.963 147.93C258.862 149.747 254.159 151.231 248.979 151.916C246.394 152.249 243.684 152.456 240.902 152.321C239.51 152.238 238.099 152.207 236.676 152.093C235.264 151.875 233.821 151.657 232.368 151.439C226.596 150.297 220.688 148.106 215.186 144.691C209.684 141.286 204.586 136.666 200.506 130.977C196.426 125.308 193.333 118.581 191.89 111.282C190.457 103.984 190.581 96.1667 192.492 88.5984C194.423 81.0613 198.025 73.6902 203.424 67.6273L205.51 65.333C206.196 64.5647 207.016 63.9314 207.753 63.2255C208.531 62.561 209.227 61.8032 210.068 61.2114C210.888 60.5989 211.698 59.9864 212.518 59.3842C213.307 58.7406 214.179 58.2319 215.051 57.7128C215.913 57.1833 216.775 56.6642 217.636 56.1451C218.539 55.7091 219.443 55.2627 220.346 54.8267C221.259 54.4114 222.131 53.9131 223.076 53.612C230.478 50.674 238.379 49.5528 245.937 50.103C253.484 50.6428 260.72 52.8126 266.918 56.3009C273.137 59.758 278.38 64.3882 282.428 69.5479C286.488 74.718 289.353 80.4072 291.128 86.086C292.893 91.7856 293.371 97.4436 293.35 102.676C293.205 107.919 292.25 112.757 290.858 117.003C289.467 121.249 287.64 124.903 285.751 127.976V127.841C292.603 140.081 295.997 146.144 296.444 146.954C295.987 146.155 292.52 140.133 285.512 127.945L285.47 127.883L285.512 127.821C287.37 124.748 289.177 121.104 290.537 116.878C291.897 112.653 292.831 107.856 292.956 102.645C292.956 97.4436 292.468 91.8375 290.703 86.1898C288.927 80.5629 286.083 74.9257 282.044 69.8179C278.027 64.7101 272.815 60.1421 266.659 56.7161C260.513 53.2694 253.36 51.1308 245.885 50.6013C238.41 50.0718 230.593 51.1827 223.263 54.0896C222.318 54.3906 221.457 54.8786 220.553 55.2938C219.661 55.7299 218.768 56.1555 217.875 56.5916C217.024 57.1106 216.172 57.6297 215.321 58.1488C214.459 58.6575 213.598 59.1766 212.819 59.8099C212.009 60.412 211.21 61.0142 210.4 61.6163C209.57 62.1977 208.884 62.9555 208.116 63.6096C207.379 64.3052 206.569 64.9385 205.894 65.6963L203.839 67.9595C198.503 73.9602 194.931 81.2481 193.021 88.7022C191.121 96.1874 190.997 103.932 192.409 111.147C193.831 118.384 196.883 125.038 200.922 130.655C204.96 136.282 209.995 140.87 215.446 144.255C220.896 147.65 226.741 149.84 232.461 150.982C233.904 151.2 235.327 151.429 236.728 151.636C238.14 151.761 239.542 151.792 240.922 151.875C243.684 152.02 246.362 151.813 248.937 151.491C254.086 150.826 258.758 149.363 262.838 147.577C266.918 145.76 270.386 143.57 273.303 141.348L274.123 140.725L273.5 141.535L273.479 141.556L273.407 141.337C288.118 144.94 295.509 146.726 296.444 146.954Z" fill="#263238"/>
<path d="M231.111 101.162C231.111 103.446 229.253 105.305 226.969 105.305C224.685 105.305 222.827 103.446 222.827 101.162C222.827 98.8784 224.685 97.02 226.969 97.02C229.253 97.02 231.111 98.8784 231.111 101.162Z" fill="#0084E4"/>
<path d="M247.68 101.162C247.68 103.446 245.822 105.305 243.538 105.305C241.254 105.305 239.395 103.446 239.395 101.162C239.395 98.8784 241.254 97.02 243.538 97.02C245.832 97.02 247.68 98.8784 247.68 101.162Z" fill="#0084E4"/>
<path d="M264.219 99.0972C265.361 101.08 264.686 103.613 262.703 104.755C260.72 105.897 258.187 105.222 257.045 103.239C255.903 101.257 256.578 98.7234 258.561 97.5814C260.544 96.4394 263.077 97.1142 264.219 99.0972Z" fill="#0084E4"/>
<path d="M530 426.648C530 426.811 411.397 426.951 265.132 426.951C118.809 426.951 0.22937 426.811 0.22937 426.648C0.22937 426.484 118.809 426.344 265.132 426.344C411.397 426.333 530 426.473 530 426.648Z" fill="#263238"/>
<path d="M367.193 426.898C367.193 426.898 374.232 414.875 389.399 414.356C404.567 413.837 412.146 426.898 412.146 426.898H367.193Z" fill="#455A64"/>
<path d="M396.261 426.523C396.147 426.523 396.126 425.63 395.815 424.26C395.514 422.889 394.849 421.041 393.655 419.266C392.451 417.501 390.977 416.204 389.804 415.415C388.641 414.626 387.821 414.273 387.862 414.169C387.883 414.106 388.776 414.304 390.053 415.02C391.33 415.726 392.929 417.044 394.195 418.892C395.451 420.751 396.085 422.734 396.272 424.177C396.469 425.62 396.324 426.523 396.261 426.523Z" fill="#263238"/>
<path d="M357.811 426.346V426.253C357.759 423.076 355.163 420.522 351.986 420.522H222.9C219.682 420.522 217.076 423.128 217.076 426.346H357.811Z" fill="#455A64"/>
<path d="M110.683 200.22C110.683 202.941 112.718 365.061 112.718 365.061L233.135 394.037H243.091L236.758 167.695H227.705L110.683 200.22Z" fill="#263238"/>
<path d="M136.15 358.273L98.8273 426.678H132.942C126.837 426.065 186.958 426.678 186.958 426.678L132.942 412.351L149.833 373.991L148.39 358.273H136.15Z" fill="#263238"/>
<path d="M136.98 370.895L132.941 243.418L169.61 239.899L174.126 376.014L161.034 376.678L136.98 370.895Z" fill="#263238"/>
<path d="M179.255 381.069C179.255 381.069 179.244 380.871 179.234 380.477C179.223 380.072 179.223 379.491 179.213 378.733C179.203 377.176 179.192 374.902 179.172 371.964C179.151 366.036 179.13 357.429 179.099 346.612C179.078 324.945 179.037 294.454 179.005 259.094L179.265 259.353C165.696 259.353 151.099 259.364 136.004 259.364L136.274 259.094C136.274 260.952 136.274 262.966 136.274 264.98C136.254 299.458 136.243 331.558 136.233 358.291V358.353L136.202 358.405C124.969 378.992 115.656 396.07 109.136 408.02C105.877 413.968 103.312 418.64 101.558 421.838C100.686 423.416 100.011 424.63 99.5542 425.461C99.0974 426.281 98.8482 426.696 98.8482 426.696C98.8482 426.696 99.0558 426.26 99.4919 425.43C99.9383 424.589 100.592 423.364 101.444 421.775C103.167 418.567 105.7 413.875 108.908 407.895C115.386 395.925 124.647 378.816 135.807 358.187L135.776 358.291C135.766 331.548 135.745 299.458 135.734 264.98C135.734 262.966 135.734 260.963 135.734 259.094V258.824H136.004C151.099 258.824 165.696 258.834 179.265 258.834H179.525V259.094C179.483 294.454 179.452 324.945 179.431 346.612C179.4 357.429 179.369 366.046 179.358 371.964C179.338 374.912 179.327 377.186 179.317 378.733C179.307 379.491 179.296 380.072 179.296 380.477C179.265 380.861 179.255 381.069 179.255 381.069Z" fill="#455A64"/>
<path d="M149.833 373.99C149.968 374.052 144.777 386.053 138.237 400.806C131.696 415.558 126.277 427.466 126.142 427.404C126.007 427.341 131.198 415.34 137.738 400.588C144.279 385.835 149.698 373.927 149.833 373.99Z" fill="#455A64"/>
<path d="M233.136 394.026C233.136 394.026 233.115 393.829 233.105 393.445C233.094 393.04 233.084 392.469 233.073 391.732C233.053 390.205 233.032 387.994 232.99 385.15C232.949 379.44 232.814 371.165 232.617 360.96C232.232 340.529 231.309 312.322 230.177 281.166C229.045 250 228.184 221.783 227.893 201.341C227.737 191.126 227.675 182.851 227.696 177.142C227.706 174.297 227.716 172.086 227.716 170.559C227.727 169.822 227.727 169.251 227.737 168.847C227.748 168.462 227.758 168.265 227.758 168.265C227.758 168.265 227.779 168.462 227.789 168.847C227.799 169.251 227.81 169.822 227.82 170.559C227.841 172.086 227.862 174.297 227.903 177.142C227.945 182.851 228.08 191.126 228.277 201.331C228.661 221.762 229.585 249.969 230.717 281.146C231.848 312.301 232.71 340.519 233.001 360.95C233.156 371.165 233.219 379.44 233.198 385.15C233.188 387.994 233.177 390.205 233.177 391.732C233.167 392.469 233.167 393.04 233.156 393.445C233.146 393.829 233.136 394.026 233.136 394.026Z" fill="#455A64"/>
<path d="M172.682 258.132C172.828 258.132 172.952 285.249 172.952 318.688C172.952 352.138 172.828 379.245 172.682 379.245C172.537 379.245 172.412 352.138 172.412 318.688C172.412 285.249 172.537 258.132 172.682 258.132Z" fill="#455A64"/>
<path d="M107.806 415.996C107.796 416.007 107.609 415.758 107.287 415.27C107.121 415.01 106.924 414.72 106.695 414.367C106.446 414.014 106.197 413.598 105.948 413.1C104.827 411.19 103.55 408.2 102.657 404.327C101.774 400.455 101.473 395.669 102.013 390.447C102.605 385.235 104.007 379.567 106.509 374.044C107.765 371.272 109.395 368.76 111.211 366.559C111.647 365.988 112.104 365.448 112.582 364.939C113.059 364.42 113.516 363.901 113.994 363.413C114.99 362.468 115.935 361.503 116.963 360.683C118.935 358.949 121.033 357.568 122.995 356.312C124.022 355.751 124.978 355.16 125.953 354.682C126.94 354.236 127.853 353.727 128.788 353.384C132.463 351.889 135.629 351.163 137.841 350.976C138.941 350.789 139.803 350.862 140.384 350.82C140.965 350.81 141.277 350.81 141.277 350.83C141.277 350.851 140.976 350.882 140.394 350.934C139.813 351.007 138.951 350.976 137.872 351.194C135.681 351.443 132.567 352.222 128.943 353.748C128.019 354.09 127.127 354.609 126.151 355.056C125.196 355.533 124.24 356.125 123.233 356.696C121.292 357.952 119.237 359.333 117.295 361.067C116.278 361.887 115.354 362.842 114.367 363.787C113.9 364.275 113.444 364.794 112.976 365.303C112.499 365.801 112.052 366.351 111.627 366.912C109.841 369.092 108.232 371.573 106.996 374.293C104.526 379.754 103.114 385.37 102.501 390.53C101.93 395.7 102.19 400.434 103.02 404.276C103.851 408.117 105.065 411.096 106.124 413.027C106.353 413.526 106.592 413.951 106.82 414.315C107.028 414.668 107.214 414.979 107.37 415.239C107.671 415.716 107.817 415.986 107.806 415.996Z" fill="#455A64"/>
</g>
<defs>
<clipPath id="clip0">
<rect width="529.77" height="428.388" fill="white" transform="translate(0.229431)"/>
</clipPath>
</defs>
</svg>
