<svg width="538" height="436" viewBox="0 0 538 436" fill="none" xmlns="http://www.w3.org/2000/svg">
<g clip-path="url(#clip0)" filter="url(#filter0_d)">
<path d="M227.085 59.8506H46.8691V221.079H227.085V59.8506Z" fill="#FAFAFA"/>
<path d="M227.086 221.09C227.086 221.09 227.055 220.052 227.044 218.1C227.034 216.117 227.013 213.231 226.992 209.462C226.972 201.894 226.93 190.827 226.888 176.729C226.837 148.553 226.764 108.303 226.681 59.8515L227.086 60.2563C175.188 60.2771 113.25 60.2979 46.8903 60.329H46.8695L47.3471 59.8515C47.3263 118.508 47.3056 173.708 47.2848 221.079L46.8592 220.654C100.626 220.747 145.62 220.82 177.202 220.872C193.003 220.924 205.45 220.955 213.963 220.986C218.209 221.007 221.469 221.028 223.691 221.038C224.781 221.048 225.611 221.059 226.203 221.059C226.785 221.069 227.086 221.09 227.086 221.09C227.086 221.09 226.816 221.111 226.266 221.111C225.695 221.121 224.874 221.121 223.805 221.131C221.594 221.142 218.365 221.163 214.16 221.183C205.668 221.214 193.252 221.246 177.492 221.298C145.838 221.349 100.751 221.422 46.8695 221.516H46.4439V221.09C46.4231 173.718 46.4024 118.519 46.3816 59.8618V59.3843H46.8592H46.8799C113.24 59.4154 175.177 59.4362 227.075 59.4569H227.48V59.8618C227.397 108.417 227.324 148.76 227.273 176.988C227.231 191.045 227.19 202.081 227.169 209.628C227.148 213.366 227.138 216.231 227.117 218.193C227.117 220.114 227.086 221.09 227.086 221.09Z" fill="#E0E0E0"/>
<path d="M115.97 88.5045C115.97 88.7744 106.481 88.9821 94.7809 88.9821C83.0807 88.9821 73.5918 88.7641 73.5918 88.5045C73.5918 88.2346 83.0703 88.027 94.7809 88.027C106.481 88.0166 115.97 88.2346 115.97 88.5045Z" fill="#E0E0E0"/>
<path d="M192.329 100.61C192.329 100.88 166.271 101.088 134.129 101.088C101.977 101.088 75.929 100.87 75.929 100.61C75.929 100.34 101.987 100.133 134.129 100.133C166.271 100.133 192.329 100.34 192.329 100.61Z" fill="#E0E0E0"/>
<path d="M81.5029 121.112H73.9138V128.701H81.5029V121.112Z" fill="#E0E0E0"/>
<path d="M100.189 121.112H92.6003V128.701H100.189V121.112Z" fill="#E0E0E0"/>
<path d="M119.219 120.771H111.63V128.36H119.219V120.771Z" fill="#E0E0E0"/>
<path d="M137.564 121.112H129.975V128.701H137.564V121.112Z" fill="#E0E0E0"/>
<path d="M156.262 121.112H148.673V128.701H156.262V121.112Z" fill="#E0E0E0"/>
<path d="M174.95 121.112H167.361V128.701H174.95V121.112Z" fill="#E0E0E0"/>
<path d="M193.636 121.112H186.047V128.701H193.636V121.112Z" fill="#EBEBEB"/>
<path d="M81.5029 137.258H73.9138V144.847H81.5029V137.258Z" fill="#EBEBEB"/>
<path d="M100.189 137.258H92.6003V144.847H100.189V137.258Z" fill="#E0E0E0"/>
<path d="M118.876 137.258H111.287V144.847H118.876V137.258Z" fill="#EBEBEB"/>
<path d="M137.564 137.258H129.975V144.847H137.564V137.258Z" fill="#E0E0E0"/>
<path d="M156.262 137.258H148.673V144.847H156.262V137.258Z" fill="#E0E0E0"/>
<path d="M175.292 136.915H167.703V144.504H175.292V136.915Z" fill="#E0E0E0"/>
<path d="M193.636 137.258H186.047V144.847H193.636V137.258Z" fill="#E0E0E0"/>
<path d="M81.5029 153.4H73.9138V160.989H81.5029V153.4Z" fill="#E0E0E0"/>
<path d="M100.532 153.047H92.9426V160.636H100.532V153.047Z" fill="#E0E0E0"/>
<path d="M118.876 153.4H111.287V160.989H118.876V153.4Z" fill="#E0E0E0"/>
<path d="M137.564 153.4H129.975V160.989H137.564V153.4Z" fill="#EBEBEB"/>
<path d="M156.262 153.4H148.673V160.989H156.262V153.4Z" fill="#E0E0E0"/>
<path d="M174.95 153.4H167.361V160.989H174.95V153.4Z" fill="#E0E0E0"/>
<path d="M193.636 153.4H186.047V160.989H193.636V153.4Z" fill="#E0E0E0"/>
<path d="M81.5029 169.534H73.9138V177.123H81.5029V169.534Z" fill="#E0E0E0"/>
<path d="M100.189 169.534H92.6003V177.123H100.189V169.534Z" fill="#E0E0E0"/>
<path d="M118.876 169.534H111.287V177.123H118.876V169.534Z" fill="#E0E0E0"/>
<path d="M137.919 169.191H130.33V176.78H137.919V169.191Z" fill="#E0E0E0"/>
<path d="M156.262 169.534H148.673V177.123H156.262V169.534Z" fill="#E0E0E0"/>
<path d="M174.95 169.534H167.361V177.123H174.95V169.534Z" fill="#EBEBEB"/>
<path d="M193.636 169.534H186.047V177.123H193.636V169.534Z" fill="#E0E0E0"/>
<path d="M81.5029 185.676H73.9138V193.265H81.5029V185.676Z" fill="#E0E0E0"/>
<path d="M100.189 185.676H92.6003V193.265H100.189V185.676Z" fill="#EBEBEB"/>
<path d="M118.876 185.676H111.287V193.265H118.876V185.676Z" fill="#E0E0E0"/>
<path d="M137.564 185.676H129.975V193.265H137.564V185.676Z" fill="#E0E0E0"/>
<path d="M156.262 185.676H148.673V193.265H156.262V185.676Z" fill="#E0E0E0"/>
<path d="M175.292 185.335H167.703V192.924H175.292V185.335Z" fill="#E0E0E0"/>
<path d="M193.636 185.676H186.047V193.265H193.636V185.676Z" fill="#E0E0E0"/>
<path d="M430.595 21.4904L419.009 21.5525L419.318 79.1814L430.904 79.1193L430.595 21.4904Z" fill="#E0E0E0"/>
<path d="M348.667 21.6379L318.675 21.7983L318.845 53.6079L348.837 53.4475L348.667 21.6379Z" fill="#EBEBEB"/>
<path d="M378.527 21.4823L348.534 21.6428L348.704 53.4524L378.697 53.2919L378.527 21.4823Z" fill="#F5F5F5"/>
<path d="M318.725 30.586C338.658 30.7521 358.632 30.6379 378.565 30.3057C378.97 30.2953 378.97 29.6724 378.565 29.6724C358.632 29.5582 338.658 29.662 318.725 30.0358C318.372 30.0461 318.372 30.586 318.725 30.586Z" fill="#E0E0E0"/>
<path d="M354.48 52.9309L299.986 53.2229L300.125 79.146L354.619 78.8541L354.48 52.9309Z" fill="#EBEBEB"/>
<path d="M408.704 52.6392L354.211 52.9312L354.35 78.8543L408.843 78.5623L408.704 52.6392Z" fill="#F5F5F5"/>
<path d="M300.019 60.4237C336.22 60.8286 372.546 60.4652 408.736 59.8839C409.141 59.8735 409.141 59.2506 408.736 59.2506C372.535 59.0637 336.21 59.0845 300.019 59.8735C299.666 59.8942 299.666 60.4237 300.019 60.4237Z" fill="#E0E0E0"/>
<path d="M490.751 79.1414H279.638V88.433H490.751V79.1414Z" fill="#E0E0E0"/>
<path d="M322.763 83.6069H314.198V115.302H322.763V83.6069Z" fill="#E0E0E0"/>
<path d="M450.708 83.6069H442.132V115.302H450.708V83.6069Z" fill="#E0E0E0"/>
<path d="M441.907 0.00185857L430.321 0.0639648L430.746 79.318L442.332 79.2559L441.907 0.00185857Z" fill="#EBEBEB"/>
<path d="M459.987 14.7559L441.995 14.8525L442.34 79.0842L460.332 78.9876L459.987 14.7559Z" fill="#F5F5F5"/>
<path d="M459.862 27.1281C459.862 27.3046 455.834 27.4396 450.862 27.4396C445.889 27.4396 441.861 27.3046 441.861 27.1281C441.861 26.9516 445.889 26.8167 450.862 26.8167C455.834 26.8167 459.862 26.9516 459.862 27.1281Z" fill="#E0E0E0"/>
<path d="M459.862 24.4289C459.862 24.6054 455.834 24.7403 450.862 24.7403C445.889 24.7403 441.861 24.6054 441.861 24.4289C441.861 24.2524 445.889 24.1174 450.862 24.1174C455.834 24.1174 459.862 24.2628 459.862 24.4289Z" fill="#E0E0E0"/>
<path d="M459.862 69.3193C459.862 69.4957 455.834 69.6307 450.862 69.6307C445.889 69.6307 441.861 69.4957 441.861 69.3193C441.861 69.1428 445.889 69.0078 450.862 69.0078C455.834 69.0078 459.862 69.1532 459.862 69.3193Z" fill="#E0E0E0"/>
<path d="M459.862 66.62C459.862 66.7965 455.834 66.9315 450.862 66.9315C445.889 66.9315 441.861 66.7965 441.861 66.62C441.861 66.4436 445.889 66.3086 450.862 66.3086C455.834 66.3086 459.862 66.4539 459.862 66.62Z" fill="#E0E0E0"/>
<path d="M451.154 60.7325C450.977 60.7325 450.842 54.2544 450.842 46.2604C450.842 38.2665 450.977 31.7883 451.154 31.7883C451.33 31.7883 451.465 38.2665 451.465 46.2604C451.465 54.2544 451.33 60.7325 451.154 60.7325Z" fill="#E0E0E0"/>
<path d="M479.652 30.5242H460.062V79.0068H479.652V30.5242Z" fill="#EBEBEB"/>
<path d="M439.257 13.5293C439.257 15.3669 437.762 16.8618 435.925 16.8618C434.087 16.8618 432.592 15.3669 432.592 13.5293C432.592 11.6917 434.087 10.1968 435.925 10.1968C437.773 10.2072 439.257 11.6917 439.257 13.5293Z" fill="#E0E0E0"/>
<path d="M436.953 22.6858H434.897V69.8395H436.953V22.6858Z" fill="#E0E0E0"/>
<path d="M81.2426 323.548C86.6722 320.745 93.0777 320.382 99.1095 321.378C102.349 321.918 105.733 322.884 107.934 325.313C110.135 327.742 110.561 332.03 108.027 334.127C106.522 335.373 104.415 335.56 102.463 335.539C97.7391 335.487 92.5067 334.657 88.7278 337.491C86.5788 339.11 85.1461 341.81 82.5714 342.599C80.0591 343.377 77.2145 341.893 75.8752 339.619C74.536 337.346 74.4945 334.511 75.1174 331.947C75.1174 331.947 75.7714 326.372 81.2426 323.548Z" fill="#0084E4"/>
<path d="M68.7924 299.513C72.1146 304.258 78.572 302.69 81.5619 299.794C84.5518 296.897 85.8184 292.703 86.9708 288.695C89.6077 279.549 92.2551 269.957 90.3033 260.644C89.7219 257.862 88.6734 255.08 86.7216 253.014C84.7699 250.948 81.7592 249.723 79.008 250.449C75.7482 251.311 73.7341 254.498 72.2703 257.53C67.9723 266.447 65.6987 276.331 65.6571 286.225C65.6467 290.855 66.1866 295.693 68.7924 299.513Z" fill="#0084E4"/>
<path d="M59.6681 306.324C63.2705 302.046 63.9557 295.796 62.3569 290.439C60.7478 285.072 57.1245 280.515 52.9511 276.788C48.0509 272.417 42.2891 269.022 36.1016 266.842C33.6619 265.991 31.0976 265.305 28.5229 265.555C25.9483 265.804 23.3632 267.112 22.1589 269.406C20.3837 272.791 22.0863 276.891 23.9238 280.234C27.1629 286.131 30.8692 291.768 34.9907 297.084C38.3129 301.361 42.1126 305.576 47.1685 307.517C52.2244 309.448 57.4775 309.22 60.156 305.721" fill="#0084E4"/>
<path d="M68.577 371.096C68.6392 371.096 68.7431 370.328 68.878 368.936C69.0338 367.369 69.2206 365.396 69.449 363.05C69.7189 360.579 70.0823 357.631 70.7675 354.423C71.4527 351.225 72.522 347.758 73.9028 344.238C75.3251 340.74 77.0692 337.563 79.104 335.019C81.1285 332.465 83.4747 330.617 85.6756 329.548C87.8766 328.458 89.8491 328.022 91.2091 327.825C92.5899 327.679 93.3581 327.576 93.3581 327.513C93.3581 327.451 92.5899 327.441 91.1779 327.482C89.7764 327.576 87.7208 327.929 85.4057 328.988C83.0802 330.015 80.5886 331.894 78.4707 334.5C76.3321 337.096 74.5361 340.345 73.0826 343.906C71.6811 347.488 70.6222 350.986 69.9681 354.257C69.3141 357.517 69.013 360.496 68.8157 362.998C68.6289 365.5 68.5562 367.524 68.5251 368.916C68.4939 370.317 68.5147 371.085 68.577 371.096Z" fill="#263238"/>
<path d="M68.9805 366.559C69.0117 366.559 69.0324 366.217 69.0428 365.563C69.0428 364.815 69.0428 363.86 69.0324 362.697C69.0221 360.216 69.0221 356.624 69.157 352.181C69.375 343.304 70.1433 333.753 71.6175 320.298C73.019 307.643 74.8877 292.901 76.8706 283.329C77.2963 281.149 77.7219 279.187 78.1268 277.474C78.5109 275.751 78.8432 274.266 79.1546 273.072C79.4245 271.94 79.6425 271.027 79.819 270.29C79.9644 269.646 80.0267 269.314 79.9955 269.303C79.9644 269.293 79.8502 269.615 79.6529 270.238C79.4349 270.954 79.165 271.868 78.8224 272.979C78.4486 274.172 78.0749 275.647 77.6493 277.36C77.2028 279.073 76.7253 281.024 76.2685 283.205C74.3063 291.884 72.2404 304.02 70.7454 317.516C69.2712 331.012 68.5964 343.294 68.5445 352.191C68.4926 356.634 68.586 360.237 68.7002 362.729C68.7729 363.891 68.8248 364.836 68.8767 365.584C68.9079 366.227 68.9494 366.57 68.9805 366.559Z" fill="#263238"/>
<path d="M69.032 342.867C69.0943 342.867 69.0839 341.808 69.0112 339.877C68.8971 337.957 68.6375 335.185 68.0977 331.78C67.5267 328.385 66.7273 324.357 65.4607 319.986C64.9105 317.982 63.6335 313.186 60.5294 306.022C56.439 296.316 50.8744 288.384 46.0469 283.463C44.9153 282.155 43.6487 281.221 42.6417 280.297C42.1226 279.85 41.6554 279.414 41.1883 279.061C40.7107 278.739 40.2747 278.428 39.8698 278.148C38.2814 277.058 37.3885 276.486 37.3574 276.538C37.2121 276.736 40.9183 278.916 45.6005 283.899C50.2619 288.872 55.6707 296.752 59.73 306.375C61.9932 311.597 63.5712 316.248 64.6925 320.204C65.9902 324.543 66.8415 328.53 67.4955 331.883C68.108 335.247 68.4714 337.998 68.6894 339.898C68.8451 341.819 68.9697 342.867 69.032 342.867Z" fill="#263238"/>
<path d="M46.1304 384.666L48.5078 417.192H90.2942L92.6716 384.666H46.1304Z" fill="#263238"/>
<path d="M97.6551 371.842H42.1025V384.663H97.6551V371.842Z" fill="#263238"/>
<path d="M42.1025 415.944V419.505H44.7083H96.7415V415.944H42.1025Z" fill="#455A64"/>
<path d="M47.272 425.752L44.7078 419.502H94.7476L91.7577 425.752H47.272Z" fill="#455A64"/>
<path d="M91.8931 395.295C91.9035 395.305 91.8412 395.409 91.6958 395.596C91.5297 395.814 91.3221 396.084 91.0729 396.427C90.4812 397.184 89.661 398.233 88.6436 399.541L88.5398 399.676L88.436 399.531C86.9099 397.413 84.8647 394.589 82.4561 391.257H82.7987C81.0234 393.779 79.0405 396.582 76.9123 399.593L76.7254 399.853L76.5178 399.603C74.348 397.018 71.9809 394.215 69.5309 391.298H69.9358C69.8112 391.454 69.6866 391.62 69.5516 391.786C67.3818 394.506 65.2951 397.133 63.3122 399.614L63.1046 399.873L62.9073 399.603C60.7895 396.603 58.8066 393.8 57.0209 391.267L57.3635 391.288C54.4566 394.599 51.9961 397.402 50.1067 399.552L49.9717 399.697L49.8783 399.531C48.9232 397.922 48.1549 396.645 47.6047 395.71C47.3659 395.295 47.179 394.963 47.0233 394.693C46.8987 394.464 46.8364 394.34 46.8468 394.33C46.8572 394.319 46.9403 394.433 47.0856 394.651C47.2517 394.911 47.4697 395.233 47.7293 395.627C48.3106 396.541 49.11 397.797 50.1171 399.375L49.8887 399.354C51.747 397.174 54.1659 394.34 57.0313 390.987L57.2078 390.779L57.3739 391.007C59.1803 393.53 61.1736 396.323 63.3122 399.302L62.9073 399.292C64.8799 396.8 66.977 394.174 69.1364 391.454C69.2713 391.288 69.3959 391.122 69.5205 390.976L69.7177 390.727L69.9254 390.976C72.3651 393.893 74.7217 396.707 76.8915 399.302L76.497 399.313C78.646 396.312 80.6497 393.52 82.4457 391.018L82.6222 390.779L82.7883 391.018C85.145 394.381 87.1486 397.236 88.6436 399.375L88.436 399.365C89.5053 398.088 90.3462 397.07 90.9691 396.333C91.239 396.011 91.4674 395.752 91.6439 395.544C91.7996 395.378 91.8827 395.285 91.8931 395.295Z" fill="#E0E0E0"/>
<path d="M93.2523 384.449C93.2523 384.594 82.7771 384.709 69.8727 384.709C56.9578 384.709 46.4827 384.594 46.4827 384.449C46.4827 384.304 56.9474 384.189 69.8727 384.189C82.7771 384.189 93.2523 384.314 93.2523 384.449Z" fill="#455A64"/>
<path d="M95.3614 419.845C95.3614 419.991 83.983 420.105 69.9469 420.105C55.9108 420.105 44.5325 419.991 44.5325 419.845C44.5325 419.7 55.9108 419.586 69.9469 419.586C83.983 419.586 95.3614 419.7 95.3614 419.845Z" fill="#263238"/>
<path d="M493.906 426.346H365.401L392.898 304.236C392.898 295.567 399.927 288.529 408.606 288.529H505.706C514.375 288.529 521.413 295.557 521.413 304.236L493.917 426.346H493.906Z" fill="#455A64"/>
<path d="M511.51 291.029C511.651 291.062 504.796 320.964 496.191 357.814C487.584 394.674 480.489 424.51 480.347 424.477C480.206 424.444 487.061 394.542 495.666 357.692C504.271 320.842 511.368 290.996 511.51 291.029Z" fill="#263238"/>
<path d="M419.791 138.932C431.564 155.72 438.426 175.902 439.319 196.385C439.921 210.192 438.063 224.903 444.614 237.081C454.02 254.543 474.357 253.941 480.586 272.773C483.296 280.965 478.302 298.977 476.953 307.5C475.427 317.186 481.344 325.315 479.818 334.991C478.417 343.867 471.772 350.2 463.799 354.332C456.698 358.007 450.137 358.101 442.755 355.049C428.688 349.224 416.978 343.078 406.949 331.617C392.871 315.525 388.625 293.246 386.217 271.995C380.912 225.163 381.991 177.604 389.404 131.063" fill="#263238"/>
<path d="M449.888 357.01C449.888 357.01 450.044 356.958 450.345 356.896C450.646 356.823 451.103 356.751 451.674 356.585C452.837 356.273 454.529 355.723 456.532 354.643C458.526 353.564 460.882 351.975 462.948 349.494C463.966 348.258 464.9 346.774 465.461 345.04C465.99 343.306 466.229 341.355 466.343 339.33C466.54 335.261 465.928 330.807 464.994 326.104C464.09 321.391 462.865 316.366 462.564 310.926C462.419 308.216 462.544 305.392 463.156 302.6C463.737 299.797 464.744 297.066 465.793 294.315C466.852 291.564 467.963 288.792 468.762 285.885C469.52 282.978 469.987 279.895 469.478 276.853C469.032 273.801 467.786 270.956 466.115 268.465C464.443 265.963 462.357 263.793 460.228 261.8C455.941 257.792 451.3 254.491 447.334 250.774C439.33 243.403 433.942 235.015 430.537 227.581C428.834 223.854 427.536 220.366 426.675 217.231C426.176 215.684 425.896 214.189 425.533 212.839C425.263 211.469 425.024 210.223 424.806 209.102C424.474 206.839 424.235 205.074 424.173 203.87C424.131 203.288 424.09 202.831 424.069 202.499C424.048 202.188 424.048 202.032 424.048 202.032C424.048 202.032 424.079 202.188 424.121 202.499C424.162 202.831 424.214 203.278 424.276 203.859C424.38 205.063 424.65 206.808 425.014 209.071C425.242 210.192 425.502 211.438 425.792 212.787C426.166 214.127 426.457 215.611 426.965 217.148C427.858 220.262 429.177 223.73 430.89 227.426C434.326 234.797 439.714 243.112 447.677 250.411C451.622 254.086 456.273 257.387 460.602 261.415C462.751 263.429 464.869 265.62 466.572 268.174C468.285 270.717 469.572 273.645 470.029 276.791C470.558 279.926 470.07 283.092 469.292 286.041C468.471 288.989 467.35 291.782 466.291 294.523C465.243 297.263 464.236 299.973 463.665 302.724C463.063 305.465 462.938 308.237 463.073 310.915C463.353 316.293 464.558 321.308 465.44 326.042C466.343 330.765 466.956 335.261 466.727 339.372C466.603 341.427 466.354 343.369 465.793 345.165C465.212 346.95 464.236 348.456 463.187 349.702C461.059 352.214 458.661 353.782 456.636 354.84C454.601 355.91 452.878 356.429 451.705 356.699C450.521 356.969 449.888 357.01 449.888 357.01Z" fill="#455A64"/>
<path d="M256.589 394.106L306.411 370.446C306.411 370.446 325.815 276.242 329.479 269.162C333.144 262.092 348.488 255.977 348.488 255.977L345.924 383.548L341.377 412.969L271.113 419.624L256.589 394.106Z" fill="#0084E4"/>
<path d="M214.063 416.427C213.793 416.416 212.402 417.289 213.565 419.469C214.728 421.659 223.158 428.895 225.639 426.373C228.12 423.85 224.331 420.777 224.331 420.777L214.063 416.427Z" fill="#FFBE9D"/>
<path d="M224.696 420.881C224.696 420.881 234.88 422.168 238.804 423.653C243.061 425.272 248.252 424.172 251.74 421.805C255.228 419.438 257.263 417.299 257.263 417.299L270.261 417.092C270.261 417.092 276.5 410.624 272.794 400.989C272.15 399.308 271.455 397.979 269.815 395.913C268.268 394.241 265.828 392.892 261.623 392.165L246.186 395.498C246.186 395.498 222.266 393.785 218.01 395.799C218.01 395.799 212.663 398.965 211.013 400.294C210.39 400.792 208.5 406.886 212.383 410.042C212.383 410.042 208.999 412.742 210.826 415.15L211.708 416.219C211.708 416.219 209.435 419.168 210.597 420.455C211.77 421.743 222.007 427.733 225.661 426.311C229.336 424.888 226.315 421.504 224.696 420.881Z" fill="#FFBE9D"/>
<path d="M214.957 404.799C214.967 404.768 215.413 404.945 216.223 405.256C217.033 405.567 218.196 406.003 219.67 406.471C220.407 406.709 221.217 406.938 222.089 407.177C222.961 407.415 223.916 407.602 224.902 407.924C225.878 408.246 226.937 408.713 227.705 409.616C228.442 410.488 228.941 411.796 228.453 413.032C228.214 413.644 227.726 414.101 227.186 414.392C226.636 414.672 226.055 414.807 225.484 414.869C224.331 414.973 223.262 414.838 222.234 414.693C220.189 414.382 218.414 413.831 216.96 413.323C215.496 412.803 214.344 412.316 213.545 411.973C212.745 411.63 212.32 411.423 212.33 411.402C212.34 411.371 212.797 411.527 213.607 411.828C214.417 412.118 215.59 412.565 217.054 413.042C218.518 413.52 220.282 414.029 222.296 414.319C223.293 414.444 224.373 414.568 225.442 414.465C225.972 414.402 226.511 414.278 226.989 414.029C227.456 413.779 227.861 413.385 228.058 412.887C228.463 411.869 228.048 410.696 227.384 409.897C226.709 409.087 225.712 408.63 224.778 408.308C223.823 407.986 222.867 407.789 221.995 407.53C221.113 407.28 220.303 407.021 219.576 406.772C218.113 406.263 216.95 405.785 216.161 405.432C215.361 405.048 214.946 404.82 214.957 404.799Z" fill="#EB996E"/>
<path d="M215.872 397.426C215.882 397.395 216.328 397.571 217.128 397.882C217.927 398.194 219.09 398.64 220.554 399.118C222.007 399.606 223.762 400.135 225.734 400.602C226.71 400.852 227.831 401.049 228.755 401.827C229.212 402.212 229.555 402.772 229.638 403.395C229.731 404.008 229.627 404.641 229.378 405.212C228.869 406.375 227.79 407.122 226.71 407.486C225.62 407.859 224.488 407.88 223.461 407.745C221.395 407.434 219.702 406.697 218.239 406.229C216.837 405.741 215.674 405.337 214.792 405.025C213.982 404.734 213.536 404.558 213.546 404.527C213.556 404.496 214.013 404.62 214.844 404.869C215.737 405.15 216.91 405.513 218.332 405.949C219.806 406.375 221.53 407.081 223.513 407.361C224.499 407.486 225.558 407.454 226.575 407.101C227.572 406.759 228.537 406.074 228.984 405.056C229.451 404.049 229.295 402.814 228.475 402.16C227.686 401.485 226.606 401.257 225.63 401.007C223.647 400.509 221.893 399.948 220.44 399.429C218.986 398.9 217.834 398.412 217.055 398.059C216.287 397.675 215.861 397.457 215.872 397.426Z" fill="#EB996E"/>
<path d="M220.782 399.535C220.657 399.535 220.595 398.601 220.315 397.49C220.055 396.379 219.692 395.518 219.796 395.455C219.889 395.403 220.45 396.213 220.73 397.386C221.021 398.559 220.896 399.546 220.782 399.535Z" fill="#EB996E"/>
<path d="M256.731 399.831L247.647 396.332C247.647 396.332 222.43 384.56 222.004 385.203C221.578 385.836 220.208 385.774 220.509 388.847C220.81 391.92 235.5 398.118 235.967 399.187C236.435 400.257 235.656 405.634 241.086 409.496C246.515 413.358 250.429 413.441 250.429 413.441" fill="#FFBE9D"/>
<path d="M250.432 413.437C250.432 413.447 250.359 413.447 250.213 413.447C250.068 413.437 249.861 413.426 249.58 413.385C249.03 413.312 248.22 413.146 247.224 412.814C246.217 412.492 245.023 411.994 243.704 411.277C242.396 410.55 240.922 409.678 239.52 408.381C238.119 407.093 236.977 405.245 236.427 403.076C236.136 401.996 236.032 400.823 235.887 399.681C235.866 399.536 235.835 399.411 235.793 399.286C235.762 399.203 235.669 399.131 235.555 399.048C235.326 398.881 235.077 398.726 234.817 398.57C234.298 398.269 233.758 397.978 233.219 397.677C231.028 396.514 228.703 395.331 226.356 393.981C225.183 393.306 224 392.59 222.858 391.77C222.287 391.355 221.726 390.919 221.217 390.4C220.958 390.14 220.719 389.849 220.522 389.528C220.439 389.351 220.345 389.175 220.314 388.957C220.273 388.749 220.283 388.583 220.262 388.396C220.231 387.669 220.262 386.891 220.646 386.205C220.844 385.863 221.165 385.603 221.446 385.406C221.591 385.302 221.716 385.209 221.799 385.105C221.83 385.084 221.778 385.115 221.882 385.022C221.996 384.949 222.017 384.97 222.058 384.97C222.152 384.96 222.172 384.98 222.235 384.98C222.328 385.001 222.422 385.022 222.505 385.043C223.875 385.468 225.121 386.008 226.377 386.527C228.869 387.576 231.246 388.635 233.52 389.652C238.046 391.687 242.105 393.576 245.5 395.165C246.352 395.559 247.161 395.964 247.93 396.286C248.719 396.597 249.456 396.888 250.151 397.158C251.532 397.708 252.715 398.175 253.702 398.57C254.646 398.954 255.404 399.255 255.944 399.473C256.183 399.577 256.37 399.65 256.526 399.722C256.65 399.785 256.723 399.816 256.712 399.816C256.712 399.826 256.64 399.805 256.505 399.764C256.349 399.712 256.152 399.639 255.913 399.556C255.363 399.359 254.605 399.079 253.639 398.726C252.643 398.352 251.439 397.906 250.058 397.386C249.362 397.127 248.615 396.836 247.826 396.546C247.037 396.224 246.237 395.829 245.376 395.445C241.95 393.898 237.88 392.05 233.354 390.015C231.09 389.008 228.703 387.96 226.211 386.911C224.965 386.403 223.688 385.852 222.39 385.447C222.307 385.427 222.235 385.406 222.152 385.396C222.131 385.396 222.069 385.385 222.069 385.385C222.069 385.375 222.069 385.416 222.058 385.354C222.027 385.271 222.058 385.292 222.038 385.25C222.027 385.24 222.017 385.229 222.006 385.219C222.297 385.416 222.079 385.281 222.141 385.333L222.121 385.364C221.986 385.541 221.82 385.655 221.685 385.759C221.394 385.967 221.155 386.153 220.999 386.434C220.678 386.984 220.636 387.7 220.667 388.386C220.688 388.759 220.709 389.04 220.875 389.32C221.041 389.6 221.259 389.87 221.498 390.109C221.975 390.597 222.525 391.022 223.086 391.438C224.207 392.237 225.38 392.953 226.543 393.628C228.879 394.978 231.194 396.161 233.385 397.335C233.935 397.636 234.475 397.926 234.994 398.238C235.253 398.394 235.513 398.549 235.762 398.746C235.876 398.84 236.032 398.954 236.115 399.151C236.177 399.317 236.209 399.473 236.229 399.619C236.375 400.812 236.458 401.923 236.738 402.982C237.268 405.09 238.347 406.896 239.697 408.163C241.036 409.44 242.51 410.332 243.787 411.07C245.085 411.796 246.258 412.305 247.244 412.658C248.231 413.001 249.02 413.187 249.559 413.291C249.829 413.343 250.037 413.374 250.182 413.395C250.359 413.426 250.432 413.426 250.432 413.437Z" fill="#EB996E"/>
<path d="M222.619 414.619C222.629 414.598 222.982 414.661 223.584 414.899C224.187 415.138 225.038 415.553 225.962 416.27C226.419 416.633 226.896 417.059 227.332 417.599C227.747 418.138 228.173 418.865 228.069 419.716C227.955 420.578 227.218 421.263 226.387 421.533C225.526 421.824 224.602 421.689 223.74 421.45C220.356 420.422 217.418 419.177 215.383 418.097C214.365 417.557 213.566 417.069 213.037 416.706C212.497 416.342 212.216 416.124 212.237 416.104C212.258 416.072 212.569 416.249 213.12 416.571C213.68 416.882 214.49 417.329 215.518 417.837C217.573 418.844 220.522 420.038 223.854 421.056C224.674 421.284 225.526 421.398 226.252 421.149C226.979 420.921 227.581 420.35 227.675 419.675C227.779 418.99 227.436 418.336 227.052 417.827C226.657 417.308 226.19 416.882 225.765 416.508C224.01 415.055 222.577 414.702 222.619 414.619Z" fill="#EB996E"/>
<g opacity="0.3">
<path opacity="0.3" d="M341.013 413.001C332.853 385.479 325.659 350.036 317.498 322.514C314.519 347.918 318.246 381.461 322.928 406.616C323.478 409.564 323.727 412.45 326.011 414.392L341.013 413.001Z" fill="black"/>
</g>
<path d="M327.653 394.105C327.538 394.126 327.196 392.309 326.095 389.558C325.555 388.177 324.756 386.599 323.759 384.928C322.721 383.277 321.444 381.533 319.929 379.872C318.382 378.232 316.741 376.83 315.174 375.667C313.575 374.536 312.059 373.633 310.73 372.989C308.073 371.681 306.277 371.203 306.318 371.099C306.328 371.068 306.775 371.172 307.585 371.4C307.99 371.504 308.478 371.66 309.028 371.878C309.578 372.096 310.232 372.314 310.896 372.646C312.267 373.248 313.824 374.141 315.464 375.262C317.074 376.415 318.755 377.827 320.333 379.498C321.88 381.19 323.168 382.966 324.195 384.658C325.192 386.371 325.96 387.99 326.469 389.402C326.76 390.098 326.926 390.752 327.102 391.323C327.289 391.894 327.393 392.392 327.476 392.797C327.611 393.648 327.684 394.105 327.653 394.105Z" fill="#263238"/>
<path d="M343.205 254.689C343.205 254.689 317.105 312.982 317.105 323.685C317.105 334.389 336.665 408.753 336.665 408.753C336.478 411.702 335.72 426.527 335.72 426.527L445.34 426.9L447.012 403.334L438.457 380.878L447.001 317.404C447.001 317.404 452.753 280.549 453.262 270.24C453.905 257.346 410.209 242.397 411.403 240.611L403.855 230.51L360.636 265.6L352.092 240.933L341.855 250.609L343.205 254.689Z" fill="#0084E4"/>
<path d="M414.995 270.199C403.128 290.277 381.42 326.862 381.42 326.862L342.51 371.223C342.51 371.223 339.966 393.772 345.053 400.676C350.14 407.58 358.871 412.314 358.871 412.314C358.871 412.314 369.149 412.314 382.189 401.403C395.238 390.492 431.232 345.404 431.232 345.404L443.596 330.496C443.596 330.496 458.338 294.284 455.587 275.846C454.528 268.735 451.497 265.786 447.469 262.527C437.315 254.346 421.629 258.976 414.995 270.199Z" fill="#0084E4"/>
<path d="M448.173 317.903C448.183 317.903 448.121 318.048 447.997 318.318C447.851 318.609 447.664 319.004 447.426 319.502C446.906 320.54 446.117 322.045 445.038 323.956C442.889 327.786 439.556 333.206 435.186 339.725C432.995 342.985 430.555 346.525 427.877 350.284C425.219 354.063 422.136 357.914 419.613 362.441C417.038 366.926 414.817 371.909 412.065 376.861C409.314 381.803 406.065 386.713 402.182 391.302C398.289 395.88 393.887 399.867 389.07 402.888C384.274 405.93 379.041 407.902 373.892 408.764C368.743 409.657 363.666 409.366 359.191 408.141C356.939 407.549 354.862 406.646 352.973 405.618C351.073 404.601 349.349 403.438 347.855 402.151C346.339 400.884 345.041 399.503 343.993 398.06C342.902 396.648 342.103 395.164 341.439 393.742C340.162 390.866 339.622 388.198 339.352 386.018C339.134 383.827 339.123 382.114 339.175 380.962C339.207 380.401 339.238 379.965 339.248 379.643C339.269 379.352 339.279 379.197 339.29 379.197C339.3 379.197 339.3 379.352 339.3 379.643C339.29 379.965 339.29 380.401 339.279 380.951C339.258 382.104 339.3 383.806 339.56 385.976C339.871 388.135 340.432 390.783 341.719 393.607C342.394 394.998 343.193 396.462 344.273 397.842C345.311 399.254 346.609 400.604 348.104 401.839C349.588 403.106 351.301 404.237 353.18 405.234C355.059 406.241 357.094 407.113 359.316 407.695C363.739 408.878 368.743 409.148 373.819 408.255C378.906 407.383 384.056 405.442 388.79 402.421C393.544 399.431 397.905 395.475 401.767 390.928C405.618 386.37 408.857 381.491 411.609 376.581C414.36 371.67 416.581 366.676 419.187 362.171C421.731 357.613 424.856 353.751 427.513 350.003C430.213 346.256 432.673 342.736 434.874 339.497C439.276 333.008 442.66 327.631 444.861 323.841C445.972 321.952 446.792 320.457 447.332 319.44C447.592 318.952 447.799 318.568 447.955 318.287C448.08 318.038 448.163 317.903 448.173 317.903Z" fill="#263238"/>
<path d="M340.558 369.219C340.6 369.302 340.008 369.634 339.291 370.433C338.575 371.212 337.786 372.53 337.63 374.14C337.485 375.749 338.025 377.192 338.585 378.085C339.146 378.998 339.665 379.445 339.613 379.507C339.582 379.559 338.949 379.206 338.274 378.292C337.599 377.399 336.945 375.853 337.101 374.088C337.267 372.323 338.191 370.921 339.021 370.163C339.852 369.385 340.537 369.167 340.558 369.219Z" fill="#263238"/>
<path d="M347.711 381.004C347.722 380.984 347.929 381.036 348.324 381.15C348.521 381.202 348.76 381.285 349.05 381.347C349.352 381.399 349.684 381.461 350.057 381.534C351.573 381.783 353.847 381.752 356.473 380.942C359.09 380.101 362.007 378.492 364.737 376.084C367.468 373.675 369.918 370.457 372.482 367.103C375.036 363.729 377.611 360.563 380.455 358.185C381.867 357.002 383.248 355.953 384.411 354.822C385.563 353.701 386.487 352.486 387.006 351.24C387.982 348.686 387.328 346.278 386.404 345.115C385.449 343.911 384.483 343.786 384.525 343.713C384.525 343.693 384.743 343.745 385.127 343.89C385.501 344.066 386.051 344.367 386.56 344.99C387.577 346.184 388.335 348.665 387.349 351.385C386.819 352.714 385.874 353.981 384.712 355.144C383.549 356.317 382.158 357.386 380.767 358.57C377.984 360.926 375.451 364.062 372.897 367.436C370.333 370.799 367.852 374.028 365.059 376.468C362.266 378.897 359.266 380.506 356.577 381.316C353.878 382.105 351.542 382.074 350.016 381.752C349.642 381.669 349.31 381.586 349.009 381.513C348.718 381.43 348.479 381.326 348.293 381.264C347.908 381.098 347.711 381.015 347.711 381.004Z" fill="#263238"/>
<path d="M420.278 264.031C420.289 264.042 420.143 264.26 419.842 264.654C419.51 265.09 419.064 265.661 418.513 266.388C417.33 267.862 415.7 270.063 413.717 272.804C409.782 278.306 404.737 286.196 399.868 295.301C394.978 304.396 390.919 312.836 387.815 318.857C386.268 321.878 385.001 324.308 384.088 325.969C383.652 326.758 383.299 327.391 383.029 327.879C382.779 328.315 382.645 328.533 382.624 328.523C382.603 328.512 382.717 328.273 382.925 327.827C383.174 327.329 383.485 326.685 383.89 325.875C384.762 324.121 385.977 321.681 387.462 318.691C390.472 312.628 394.469 304.157 399.38 295.042C404.259 285.916 409.367 278.036 413.395 272.576C415.42 269.856 417.101 267.686 418.337 266.253C418.918 265.558 419.385 265.007 419.749 264.582C420.081 264.208 420.257 264.021 420.278 264.031Z" fill="#263238"/>
<g opacity="0.3">
<path opacity="0.3" d="M339.27 379.195C344.337 381.936 349.891 381.645 355.538 380.534C361.186 379.424 366.418 376.299 370.073 371.845C369.087 376.776 366.979 381.604 363.377 385.113C359.774 388.622 354.573 390.667 349.621 389.764C344.669 388.861 339.675 384.21 339.27 379.195Z" fill="black"/>
</g>
<g opacity="0.3">
<path opacity="0.3" d="M387.13 349.246C390.317 354.125 391.449 360.292 390.213 365.981C394.501 359.42 395.508 351.104 394.355 343.349C393.203 335.594 390.047 328.285 386.538 321.267C386.538 321.267 382.666 327.797 382.635 328.524C382.448 332.292 383.839 339.404 384.566 343.11C386.517 344.948 387.441 347.813 386.922 350.439" fill="black"/>
</g>
<g opacity="0.3">
<path opacity="0.3" d="M356.421 406.366C366.74 414.411 382.043 414.785 393.338 408.182C404.208 401.818 410.904 390.357 417.112 379.404C426.726 362.441 438.467 341.459 445.34 323.208C445.34 323.208 426.082 349.484 420.279 360.811C415.898 369.355 412.534 374.992 407.146 382.934C396.307 398.901 376.686 408.452 357.428 407.155" fill="black"/>
</g>
<path d="M335.716 426.528C335.706 426.528 335.695 426.413 335.695 426.206C335.695 425.957 335.706 425.645 335.716 425.261C335.747 424.379 335.789 423.174 335.851 421.659C335.996 418.503 336.204 414.07 336.443 408.744L336.453 408.816C334.584 402.587 332.404 395.04 330.151 386.88C327.162 376.062 324.639 366.22 322.936 359.067C322.085 355.486 321.431 352.589 321.016 350.575C320.818 349.609 320.663 348.831 320.538 348.26C320.434 347.73 320.393 347.45 320.413 347.44C320.434 347.44 320.517 347.71 320.652 348.229C320.797 348.8 320.984 349.568 321.223 350.523C321.732 352.568 322.438 355.444 323.31 358.974C325.106 366.106 327.681 375.917 330.671 386.734C332.923 394.895 335.072 402.452 336.879 408.692L336.889 408.733V408.764C336.567 414.09 336.297 418.513 336.111 421.669C336.007 423.174 335.924 424.379 335.861 425.261C335.83 425.645 335.799 425.946 335.778 426.206C335.747 426.413 335.726 426.528 335.716 426.528Z" fill="#263238"/>
<path d="M445.379 261.906C445.348 261.989 444.258 261.605 442.452 261.158C440.656 260.712 438.123 260.255 435.299 260.172C432.475 260.089 429.921 260.39 428.094 260.733C426.267 261.075 425.156 261.387 425.135 261.304C425.125 261.273 425.395 261.148 425.883 260.972C426.37 260.785 427.108 260.577 428.021 260.349C429.848 259.902 432.444 259.539 435.32 259.622C438.195 259.715 440.76 260.235 442.556 260.785C443.459 261.055 444.165 261.314 444.653 261.532C445.141 261.74 445.4 261.875 445.379 261.906Z" fill="#263238"/>
<path d="M410.665 242.76C410.686 242.771 410.582 242.958 410.385 243.3C410.156 243.695 409.855 244.183 409.502 244.785C408.724 246.072 407.571 247.91 406.108 250.163C403.17 254.668 398.965 260.793 394.002 267.324C390.006 272.587 386.133 277.3 382.956 281.007L382.738 281.266L382.593 280.955C381.088 277.653 379.842 274.913 378.928 272.93C378.523 272.016 378.201 271.269 377.952 270.698C377.734 270.179 377.631 269.909 377.651 269.898C377.672 269.888 377.817 270.147 378.077 270.646C378.357 271.206 378.721 271.933 379.167 272.826C380.112 274.788 381.42 277.498 382.998 280.778L382.634 280.726C385.749 276.989 389.59 272.255 393.577 267.002C398.539 260.482 402.785 254.398 405.796 249.955C407.26 247.775 408.464 245.979 409.336 244.671C409.731 244.089 410.053 243.612 410.302 243.238C410.52 242.916 410.644 242.75 410.665 242.76Z" fill="#263238"/>
<path d="M435.89 410.166C435.745 410.145 436.222 404.757 436.949 398.134C437.686 391.5 438.402 386.143 438.548 386.153C438.693 386.174 438.216 391.562 437.489 398.186C436.762 404.82 436.046 410.177 435.89 410.166Z" fill="#263238"/>
<path d="M360.76 408.753C360.905 408.732 361.466 412.792 361.995 417.796C362.535 422.81 362.846 426.88 362.691 426.901C362.545 426.921 361.985 422.862 361.455 417.858C360.926 412.844 360.614 408.764 360.76 408.753Z" fill="#263238"/>
<path d="M416.207 290.173C416.072 289.311 414.878 288.844 414.193 289.374L414.12 289.436C413.477 290.017 413.715 291.273 414.536 291.564C415.356 291.855 416.342 291.035 416.207 290.173Z" fill="white"/>
<path d="M405.381 263.794C405.246 262.933 404.052 262.466 403.367 262.995L403.294 263.057C402.651 263.639 402.889 264.895 403.71 265.186C404.54 265.466 405.516 264.646 405.381 263.794Z" fill="white"/>
<path d="M380.537 285.032C380.402 284.17 379.208 283.703 378.523 284.232L378.45 284.295C377.806 284.876 378.045 286.132 378.865 286.423C379.696 286.714 380.672 285.893 380.537 285.032Z" fill="white"/>
<path d="M353.68 274.372C353.545 273.51 352.351 273.043 351.666 273.573L351.593 273.635C350.949 274.216 351.188 275.473 352.008 275.763C352.839 276.044 353.825 275.223 353.68 274.372Z" fill="white"/>
<path d="M348.934 263.857C348.799 262.995 347.605 262.528 346.92 263.057L346.848 263.119C346.204 263.701 346.443 264.957 347.263 265.248C348.083 265.528 349.069 264.708 348.934 263.857Z" fill="white"/>
<path d="M350.991 251.701C350.856 250.839 349.662 250.372 348.977 250.901L348.904 250.963C348.261 251.545 348.5 252.801 349.32 253.092C350.15 253.372 351.136 252.562 350.991 251.701Z" fill="white"/>
<path d="M336.123 268.415C335.988 267.553 334.794 267.086 334.109 267.616L334.037 267.678C333.393 268.259 333.632 269.516 334.452 269.806C335.272 270.087 336.258 269.277 336.123 268.415Z" fill="white"/>
<path d="M370.57 273.229C370.435 272.367 369.241 271.9 368.555 272.43L368.483 272.492C367.839 273.073 368.078 274.33 368.898 274.62C369.729 274.911 370.715 274.091 370.57 273.229Z" fill="white"/>
<path d="M341.408 294.895C341.273 294.034 340.079 293.566 339.394 294.096L339.321 294.158C338.678 294.74 338.917 295.996 339.737 296.287C340.557 296.567 341.543 295.757 341.408 294.895Z" fill="white"/>
<path d="M314.706 357.207C314.571 356.345 313.377 355.878 312.691 356.408L312.619 356.47C311.975 357.051 312.214 358.308 313.034 358.598C313.854 358.879 314.84 358.069 314.706 357.207Z" fill="white"/>
<path d="M324.237 321.268C324.102 320.406 322.908 319.939 322.223 320.468L322.15 320.531C321.506 321.112 321.745 322.368 322.565 322.659C323.385 322.949 324.372 322.129 324.237 321.268Z" fill="white"/>
<path d="M394.449 258.167C394.314 257.305 393.12 256.838 392.435 257.367L392.362 257.429C391.719 258.011 391.958 259.267 392.778 259.558C393.608 259.838 394.595 259.028 394.449 258.167Z" fill="white"/>
<path d="M427.971 329.73C427.836 328.868 426.642 328.401 425.957 328.93L425.884 328.992C425.24 329.574 425.479 330.83 426.299 331.121C427.119 331.401 428.106 330.581 427.971 329.73Z" fill="white"/>
<path d="M441.021 268.144C440.886 267.282 439.693 266.815 439.007 267.344L438.935 267.407C438.291 267.988 438.53 269.244 439.35 269.535C440.18 269.815 441.156 269.005 441.021 268.144Z" fill="white"/>
<path d="M435.893 308.475C435.758 307.614 434.564 307.147 433.879 307.676L433.806 307.738C433.163 308.32 433.401 309.576 434.222 309.867C435.052 310.147 436.038 309.327 435.893 308.475Z" fill="white"/>
<path d="M406.616 337.597C406.481 336.735 405.287 336.268 404.602 336.798L404.529 336.86C403.886 337.441 404.124 338.697 404.944 338.988C405.765 339.268 406.751 338.448 406.616 337.597Z" fill="white"/>
<path d="M407.851 313.355C407.716 312.494 406.522 312.026 405.837 312.556L405.764 312.618C405.12 313.2 405.359 314.456 406.179 314.746C406.999 315.027 407.986 314.207 407.851 313.355Z" fill="white"/>
<path d="M425.509 268.351C425.374 267.489 424.18 267.022 423.495 267.552L423.422 267.614C422.779 268.195 423.017 269.452 423.838 269.742C424.668 270.033 425.644 269.213 425.509 268.351Z" fill="white"/>
<path d="M401.726 244.868C401.591 244.006 400.397 243.539 399.712 244.068L399.639 244.13C398.996 244.712 399.234 245.968 400.055 246.259C400.885 246.539 401.871 245.729 401.726 244.868Z" fill="white"/>
<path d="M400.863 282.73C400.728 281.868 399.534 281.401 398.849 281.93L398.776 281.992C398.133 282.574 398.372 283.83 399.192 284.121C400.022 284.401 400.998 283.591 400.863 282.73Z" fill="white"/>
<path d="M370.509 398.226C370.374 397.364 369.18 396.897 368.495 397.427L368.422 397.489C367.778 398.07 368.017 399.327 368.837 399.617C369.657 399.898 370.644 399.088 370.509 398.226Z" fill="white"/>
<path d="M335.677 379.227C335.542 378.366 334.349 377.899 333.663 378.428L333.591 378.49C332.947 379.072 333.186 380.328 334.006 380.619C334.826 380.909 335.812 380.089 335.677 379.227Z" fill="white"/>
<path d="M307.512 388.54C307.377 387.679 306.184 387.211 305.498 387.741L305.426 387.803C304.782 388.385 305.021 389.641 305.841 389.931C306.671 390.212 307.647 389.402 307.512 388.54Z" fill="white"/>
<path d="M304.501 404.58C304.366 403.719 303.172 403.252 302.487 403.781L302.414 403.843C301.771 404.425 302.009 405.681 302.829 405.972C303.65 406.252 304.636 405.442 304.501 404.58Z" fill="white"/>
<path d="M330.9 409.959C330.765 409.097 329.571 408.63 328.886 409.16L328.814 409.222C328.17 409.803 328.409 411.06 329.229 411.35C330.059 411.631 331.035 410.81 330.9 409.959Z" fill="white"/>
<path d="M322.077 374.036C321.942 373.175 320.748 372.708 320.063 373.237L319.99 373.299C319.347 373.881 319.585 375.137 320.406 375.428C321.226 375.708 322.212 374.888 322.077 374.036Z" fill="white"/>
<path d="M354.469 383.164C354.334 382.302 353.14 381.835 352.455 382.364L352.382 382.427C351.738 383.008 351.977 384.264 352.797 384.555C353.617 384.835 354.604 384.025 354.469 383.164Z" fill="white"/>
<path d="M431.469 373.974C431.334 373.113 430.14 372.646 429.455 373.175L429.382 373.237C428.739 373.819 428.978 375.075 429.798 375.366C430.628 375.646 431.615 374.836 431.469 373.974Z" fill="white"/>
<path d="M383.829 419.633C383.694 418.771 382.5 418.304 381.814 418.834L381.742 418.896C381.098 419.477 381.337 420.734 382.157 421.024C382.977 421.305 383.964 420.484 383.829 419.633Z" fill="white"/>
<path d="M404.144 394.22C404.009 393.359 402.815 392.891 402.13 393.421L402.057 393.483C401.414 394.065 401.652 395.321 402.473 395.611C403.303 395.892 404.289 395.072 404.144 394.22Z" fill="white"/>
<path d="M416.217 414.889C416.082 414.027 414.888 413.56 414.203 414.089L414.13 414.152C413.487 414.733 413.725 415.989 414.546 416.28C415.366 416.56 416.352 415.74 416.217 414.889Z" fill="white"/>
<path d="M382.633 306.64C382.499 305.778 381.305 305.311 380.619 305.841L380.547 305.903C379.903 306.484 380.142 307.74 380.962 308.031C381.782 308.322 382.768 307.502 382.633 306.64Z" fill="white"/>
<path d="M409.958 359.41C409.823 358.548 408.63 358.081 407.944 358.61L407.872 358.673C407.228 359.254 407.467 360.51 408.287 360.801C409.118 361.081 410.104 360.271 409.958 359.41Z" fill="white"/>
<path d="M401.104 379.393C400.969 378.531 399.775 378.064 399.09 378.594L399.017 378.656C398.373 379.237 398.612 380.494 399.432 380.784C400.252 381.075 401.239 380.255 401.104 379.393Z" fill="white"/>
<path d="M430.245 395.445C430.11 394.583 428.916 394.116 428.231 394.646L428.158 394.708C427.515 395.289 427.753 396.546 428.574 396.836C429.394 397.127 430.38 396.307 430.245 395.445Z" fill="white"/>
<path d="M350.502 418.626C350.367 417.764 349.173 417.297 348.488 417.826L348.416 417.888C347.772 418.47 348.011 419.726 348.831 420.017C349.651 420.297 350.637 419.487 350.502 418.626Z" fill="white"/>
<path d="M284.059 412.563C283.924 411.701 282.73 411.234 282.045 411.763L281.972 411.825C281.328 412.407 281.567 413.663 282.387 413.954C283.207 414.234 284.194 413.414 284.059 412.563Z" fill="white"/>
<path d="M342.571 401.652C342.436 400.79 341.242 400.323 340.557 400.852L340.485 400.915C339.841 401.496 340.08 402.752 340.9 403.043C341.72 403.323 342.706 402.503 342.571 401.652Z" fill="white"/>
<path d="M286.519 389.775C286.385 388.914 285.191 388.446 284.505 388.976L284.433 389.038C283.789 389.619 284.028 390.876 284.848 391.166C285.668 391.447 286.654 390.637 286.519 389.775Z" fill="white"/>
<path d="M380.174 352.089C380.039 351.227 378.845 350.76 378.16 351.29L378.087 351.352C377.443 351.933 377.682 353.189 378.502 353.48C379.322 353.771 380.309 352.951 380.174 352.089Z" fill="white"/>
<path d="M360.573 294.895C360.438 294.034 359.245 293.566 358.559 294.096L358.487 294.158C357.843 294.74 358.082 295.996 358.902 296.287C359.722 296.567 360.708 295.757 360.573 294.895Z" fill="white"/>
<path d="M355.674 344.503C355.539 343.641 354.345 343.174 353.659 343.703L353.587 343.766C352.943 344.347 353.182 345.603 354.002 345.894C354.833 346.174 355.808 345.354 355.674 344.503Z" fill="white"/>
<path d="M347.7 328.316C347.565 327.454 346.372 326.987 345.686 327.517L345.614 327.579C344.97 328.16 345.209 329.416 346.029 329.707C346.849 329.998 347.835 329.178 347.7 328.316Z" fill="white"/>
<path d="M382.967 379.176C382.832 378.314 381.638 377.847 380.953 378.376L380.88 378.439C380.236 379.02 380.475 380.276 381.295 380.567C382.115 380.857 383.102 380.027 382.967 379.176Z" fill="white"/>
<path d="M358.102 369.189C357.968 368.327 356.774 367.86 356.088 368.389L356.016 368.451C355.372 369.033 355.611 370.289 356.431 370.58C357.262 370.87 358.248 370.05 358.102 369.189Z" fill="white"/>
<path d="M368.742 314.426C368.607 313.564 367.413 313.097 366.728 313.626L366.655 313.689C366.012 314.27 366.251 315.526 367.071 315.817C367.901 316.097 368.877 315.287 368.742 314.426Z" fill="white"/>
<path d="M330.9 353.2C330.765 352.339 329.571 351.871 328.886 352.401L328.814 352.463C328.17 353.045 328.409 354.301 329.229 354.591C330.059 354.882 331.035 354.062 330.9 353.2Z" fill="white"/>
<path d="M389.32 335.407C389.185 334.545 387.991 334.078 387.306 334.607L387.233 334.669C386.59 335.251 386.828 336.507 387.649 336.798C388.469 337.078 389.455 336.268 389.32 335.407Z" fill="white"/>
<path d="M443.491 288.938C443.356 288.076 442.162 287.609 441.477 288.139L441.404 288.201C440.761 288.782 441 290.039 441.82 290.329C442.64 290.62 443.626 289.8 443.491 288.938Z" fill="white"/>
<path d="M421.494 253.765C421.359 252.904 420.165 252.437 419.48 252.966L419.407 253.028C418.763 253.61 419.002 254.866 419.822 255.157C420.643 255.437 421.629 254.617 421.494 253.765Z" fill="white"/>
<path d="M378.866 258.167C378.731 257.305 377.537 256.838 376.852 257.367L376.779 257.429C376.136 258.011 376.374 259.267 377.194 259.558C378.015 259.838 379.001 259.028 378.866 258.167Z" fill="white"/>
<path d="M335.375 131.87C327.194 137.071 323.934 147.972 325.491 154.419C326.28 157.668 327.755 160.939 327.111 164.209C326.55 167.043 324.516 169.306 322.989 171.756C317.902 179.937 318.806 191.378 325.107 198.666C331.409 205.943 342.601 208.487 351.425 204.625" fill="#263238"/>
<path d="M330.538 174.426C310.647 130.678 357.956 108.7 383.775 115.988C408.037 122.84 418.388 134.914 422.375 151.14C426.372 167.377 426.174 184.954 419.81 200.422C416.675 208.042 411.027 215.787 402.836 216.742" fill="#263238"/>
<path d="M353.845 281.261C353.502 260.363 353.264 231.647 353.253 231.761C353.253 231.761 335.282 228.782 331.566 205.34C329.718 193.681 330.299 174.568 331.286 158.944C332.168 144.877 341.491 127.622 355.506 129.107L399.265 140.163C403.521 140.61 406.729 144.244 406.646 148.531L403.791 239.039" fill="#FFBE9D"/>
<path d="M339.102 173.261C339.029 174.839 340.306 176.199 341.947 176.313C343.587 176.417 344.988 175.233 345.061 173.655C345.134 172.077 343.857 170.717 342.217 170.603C340.566 170.489 339.175 171.683 339.102 173.261Z" fill="#263238"/>
<path d="M370.165 173.261C370.092 174.839 371.369 176.199 373.009 176.313C374.65 176.417 376.051 175.233 376.124 173.655C376.197 172.077 374.92 170.717 373.279 170.603C371.629 170.489 370.237 171.683 370.165 173.261Z" fill="#263238"/>
<path d="M335.864 167.799C336.227 168.204 338.553 166.595 341.792 166.709C345.021 166.782 347.336 168.526 347.71 168.142C347.886 167.976 347.533 167.249 346.526 166.471C345.529 165.692 343.827 164.903 341.813 164.841C339.799 164.789 338.075 165.474 337.079 166.201C336.051 166.917 335.688 167.613 335.864 167.799Z" fill="#263238"/>
<path d="M366.573 168.568C366.946 168.962 369.22 167.26 372.449 167.26C375.677 167.208 378.065 168.858 378.408 168.464C378.574 168.287 378.2 167.581 377.162 166.834C376.145 166.086 374.4 165.37 372.386 165.38C370.372 165.401 368.68 166.149 367.704 166.917C366.718 167.685 366.386 168.402 366.573 168.568Z" fill="#263238"/>
<path d="M355.485 193.485C355.495 193.298 353.491 192.955 350.231 192.54C349.401 192.457 348.622 192.291 348.487 191.73C348.29 191.128 348.643 190.245 349.037 189.28C349.816 187.276 350.626 185.19 351.477 182.989C354.872 174.029 357.322 166.669 356.959 166.534C356.595 166.399 353.554 173.552 350.159 182.511C349.339 184.722 348.56 186.819 347.823 188.844C347.511 189.778 346.972 190.848 347.397 192.083C347.615 192.696 348.228 193.152 348.757 193.287C349.287 193.453 349.754 193.453 350.159 193.485C353.439 193.651 355.474 193.671 355.485 193.485Z" fill="#263238"/>
<path d="M353.253 231.772C353.253 231.772 369.023 232.79 384.647 223.394C384.647 223.394 376.716 239.704 353.253 237.513V231.772Z" fill="#EB996E"/>
<path d="M365.772 163.968C366.093 164.85 369.322 164.435 373.111 164.892C376.922 165.276 379.974 166.387 380.483 165.598C380.711 165.224 380.171 164.393 378.936 163.542C377.711 162.691 375.748 161.881 373.475 161.632C371.201 161.383 369.115 161.746 367.723 162.307C366.332 162.857 365.626 163.553 365.772 163.968Z" fill="#263238"/>
<path d="M336.61 159.671C337.181 160.408 339.413 159.64 342.091 159.609C344.77 159.484 347.044 160.107 347.563 159.339C347.791 158.965 347.438 158.228 346.441 157.533C345.465 156.837 343.825 156.276 341.988 156.328C340.15 156.391 338.551 157.055 337.617 157.802C336.672 158.55 336.361 159.308 336.61 159.671Z" fill="#263238"/>
<path d="M402.607 179.399C402.949 179.233 415.158 173.834 415.293 187.87C415.438 201.906 401.319 199.155 401.288 198.75C401.267 198.345 402.607 179.399 402.607 179.399Z" fill="#FFBE9D"/>
<path d="M405.524 193.384C405.587 193.342 405.774 193.55 406.189 193.737C406.594 193.913 407.289 194.038 408.016 193.757C409.49 193.197 410.715 190.83 410.757 188.297C410.778 187.02 410.497 185.805 410.04 184.798C409.604 183.781 408.93 183.064 408.182 182.94C407.435 182.774 406.916 183.23 406.749 183.625C406.563 184.019 406.656 184.3 406.583 184.32C406.542 184.352 406.282 184.092 406.386 183.511C406.438 183.23 406.604 182.898 406.926 182.628C407.258 182.348 407.756 182.203 408.276 182.255C409.355 182.317 410.341 183.303 410.85 184.404C411.421 185.504 411.764 186.874 411.733 188.307C411.67 191.141 410.248 193.799 408.224 194.401C407.237 194.671 406.417 194.38 405.981 194.048C405.555 193.726 405.483 193.415 405.524 193.384Z" fill="#EB996E"/>
<path d="M350.822 122.185C343.015 126.224 339.797 142.191 343.036 150.371C346.264 158.542 354.975 162.539 363.56 164.418C372.146 166.297 380.566 166.525 389.027 164.169C389.618 169.858 393.034 175.713 398.557 177.208C405.876 179.201 413.247 172.495 414.867 165.093C416.497 157.691 414.057 150.07 411.648 142.876" fill="#263238"/>
<path d="M412.751 173.119C412.782 173.16 412.398 173.524 411.672 174.147C410.934 174.759 409.865 175.631 408.432 176.586C407 177.531 405.204 178.58 402.972 179.223C400.781 179.857 398.082 180.085 395.528 179.12C392.974 178.144 391.085 176.213 389.891 174.25C388.686 172.257 388.136 170.222 387.866 168.52C387.607 166.807 387.607 165.416 387.648 164.45C387.69 163.495 387.783 162.966 387.835 162.966C387.991 162.966 387.825 165.094 388.437 168.406C388.77 170.046 389.351 171.987 390.524 173.846C391.687 175.683 393.472 177.469 395.819 178.351C398.155 179.244 400.667 179.068 402.774 178.497C404.903 177.926 406.678 176.96 408.121 176.088C410.986 174.302 412.668 173.005 412.751 173.119Z" fill="#263238"/>
<path d="M356.438 202.498C356.906 203.692 357.393 204.907 358.183 205.914C358.972 206.921 360.124 207.731 361.411 207.783C362.782 207.845 364.09 207.035 364.858 205.904C365.616 204.772 365.875 203.35 365.813 201.99C365.761 200.754 365.19 199.28 363.965 199.135C363.456 199.072 362.948 199.27 362.47 199.467C360.321 200.339 358.172 201.211 356.013 202.083" fill="#EB996E"/>
<path d="M359.015 207.813C359.046 207.606 360.469 208.187 362.462 207.388C363.427 207.003 364.486 206.235 365.068 205.02C365.649 203.827 365.763 202.207 365.151 200.795C365.005 200.442 364.798 200.12 364.59 199.83C364.331 199.56 364.382 199.57 364.102 199.612C363.843 199.684 363.417 199.882 363.064 200.017C362.701 200.162 362.348 200.307 362.005 200.453C360.624 201.013 359.368 201.501 358.32 201.896C356.202 202.685 354.873 203.1 354.8 202.955C354.738 202.809 355.963 202.124 357.998 201.148C359.015 200.66 360.23 200.089 361.59 199.477C361.932 199.321 362.275 199.165 362.638 199.009C363.012 198.854 363.303 198.688 363.822 198.522C364.071 198.449 364.434 198.407 364.777 198.553C365.12 198.688 365.327 198.926 365.493 199.113C365.784 199.497 366.033 199.892 366.22 200.338C366.978 202.103 366.791 204.055 366.023 205.498C365.234 206.972 363.884 207.803 362.742 208.145C361.579 208.498 360.583 208.415 359.949 208.249C359.295 208.093 358.994 207.875 359.015 207.813Z" fill="#263238"/>
<path d="M418.348 169.785C416.905 169.681 405.319 171.187 406.232 192.729C407.083 212.859 421.203 208.426 425.708 200.847C429.975 193.673 432.446 170.782 418.348 169.785Z" fill="#455A64"/>
<path d="M425.51 172.33C425.5 172.33 425.479 172.133 425.459 171.759C425.438 171.344 425.417 170.794 425.386 170.119C425.344 168.634 425.282 166.558 425.209 163.983C425.106 158.689 424.96 151.338 424.784 142.846L425.043 143.106C423.133 143.106 421.119 143.116 419.063 143.116L419.333 142.836C419.375 144.445 419.427 146.137 419.468 147.85C419.666 155.937 419.852 163.464 420.008 169.766V169.953L419.832 169.994C417.143 170.628 415.015 172.185 413.675 173.96C412.305 175.735 411.63 177.614 411.215 179.161C410.8 180.719 410.665 181.985 410.582 182.836C410.54 183.262 410.519 183.594 410.509 183.823C410.499 184.041 410.488 184.165 410.478 184.165C410.467 184.165 410.447 184.051 410.436 183.823C410.426 183.594 410.426 183.262 410.436 182.836C410.467 181.975 410.571 180.687 410.955 179.099C411.339 177.521 411.993 175.59 413.374 173.742C414.724 171.894 416.935 170.233 419.718 169.558L419.541 169.787C419.365 163.485 419.147 155.958 418.908 147.871C418.866 146.158 418.814 144.466 418.773 142.856L418.762 142.576H419.043C421.098 142.576 423.102 142.587 425.023 142.587H425.282V142.846C425.376 151.338 425.459 158.689 425.51 163.983C425.521 166.558 425.521 168.634 425.531 170.119C425.521 170.794 425.521 171.344 425.51 171.759C425.542 172.143 425.531 172.33 425.51 172.33Z" fill="#455A64"/>
<path d="M418.348 142.857C418.348 142.857 412.285 128.665 397.844 121.668C390.847 118.273 385.615 116.529 380.538 115.252C380.538 115.252 388.968 113.248 402.599 119.321C408.797 122.083 415.036 125.665 419.168 131.053C421.795 134.468 425.065 141.154 425.055 142.867H418.348V142.857Z" fill="#455A64"/>
<path d="M430.928 159.683C430.835 159.704 430.97 158.209 429.984 155.842C429.029 153.516 426.662 150.36 422.53 148.377C420.474 147.412 418.014 146.799 415.345 146.623C412.667 146.446 409.791 146.706 406.822 147.277C400.873 148.367 394.624 150.942 387.626 151.99C384.117 152.447 380.65 152.426 377.348 151.98C374.047 151.513 370.953 150.578 368.109 149.478C362.451 147.142 357.883 143.882 354.654 140.591C351.404 137.31 349.307 134.165 348.134 131.87C347.802 131.32 347.563 130.801 347.366 130.344C347.169 129.898 347.003 129.524 346.857 129.192C346.733 128.901 346.639 128.673 346.556 128.486C346.494 128.32 346.463 128.237 346.473 128.237C346.484 128.237 346.525 128.309 346.608 128.465C346.702 128.652 346.816 128.87 346.961 129.15C347.117 129.462 347.293 129.836 347.511 130.272C347.719 130.718 347.968 131.227 348.321 131.767C349.536 134.019 351.674 137.103 354.924 140.311C358.163 143.539 362.7 146.727 368.296 149.011C371.109 150.09 374.161 151.004 377.421 151.45C380.681 151.886 384.097 151.897 387.554 151.45C394.457 150.412 400.718 147.858 406.739 146.779C409.739 146.218 412.657 145.969 415.387 146.166C418.107 146.363 420.609 147.007 422.706 148.024C426.911 150.101 429.267 153.361 430.191 155.748C430.69 156.953 430.814 157.96 430.918 158.634C430.928 158.946 430.939 159.205 430.949 159.403C430.939 159.59 430.939 159.683 430.928 159.683Z" fill="#455A64"/>
<path d="M415.263 137.31C415.263 137.331 415.004 137.372 414.516 137.445C414.028 137.507 413.301 137.621 412.377 137.777C410.529 138.089 407.871 138.67 404.612 139.49C401.352 140.3 397.448 141.276 393.005 141.743C388.572 142.21 383.62 142.169 378.522 141.431C373.425 140.694 368.67 139.334 364.538 137.673C360.396 136.002 356.856 134.081 354.042 132.223C352.651 131.278 351.395 130.406 350.346 129.576C349.319 128.724 348.395 128.029 347.709 127.385C347.055 126.773 346.526 126.274 346.131 125.9C345.778 125.558 345.592 125.371 345.602 125.361C345.612 125.35 345.82 125.506 346.204 125.828C346.619 126.181 347.17 126.648 347.844 127.229C348.55 127.852 349.485 128.517 350.533 129.347C351.592 130.147 352.859 130.998 354.25 131.911C359.866 135.504 368.452 139.469 378.605 140.912C383.661 141.649 388.551 141.701 392.953 141.265C397.355 140.84 401.248 139.905 404.529 139.137C407.799 138.369 410.477 137.839 412.346 137.59C413.28 137.466 414.007 137.383 414.505 137.351C414.993 137.3 415.263 137.289 415.263 137.31Z" fill="#455A64"/>
<path d="M416.799 206.869C416.789 206.889 416.654 206.848 416.395 206.754C416.135 206.65 415.761 206.484 415.315 206.194C414.422 205.633 413.238 204.595 412.273 202.955C411.297 201.325 410.653 199.113 410.404 196.632C410.166 194.161 410.165 191.431 410.394 188.576C410.633 185.731 411.11 183.032 411.723 180.634C412.325 178.236 413.052 176.087 414.038 174.467C415.014 172.837 416.197 171.789 417.09 171.249C417.537 170.969 417.91 170.802 418.17 170.699C418.429 170.605 418.575 170.574 418.575 170.584C418.595 170.626 418.045 170.823 417.204 171.415C416.363 172.007 415.263 173.055 414.36 174.654C413.436 176.253 412.771 178.36 412.2 180.748C411.619 183.126 411.162 185.794 410.923 188.607C410.695 191.421 410.685 194.13 410.892 196.57C411.11 198.999 411.692 201.148 412.595 202.747C413.477 204.356 414.588 205.405 415.419 206.007C416.27 206.63 416.831 206.817 416.799 206.869Z" fill="#263238"/>
<path d="M371.336 209.849L360.685 211.936C359.076 212.247 357.529 211.209 357.207 209.6L357.134 209.205C356.823 207.596 357.861 206.049 359.47 205.727L370.122 203.641C371.731 203.329 373.278 204.367 373.6 205.977L373.672 206.371C373.984 207.98 372.935 209.537 371.336 209.849Z" fill="#455A64"/>
<path d="M372.145 205.248L421.406 189.8C422.62 189.416 423.918 190.09 424.313 191.305C424.718 192.572 423.991 193.911 422.703 194.253L372.331 207.864L372.145 205.248Z" fill="#455A64"/>
<path d="M408.554 198.459C408.543 198.427 409.125 198.22 410.184 197.888C411.336 197.535 412.852 197.078 414.689 196.517C416.579 195.936 418.904 195.323 421.354 194.514C421.946 194.285 422.527 193.974 422.963 193.517C423.389 193.07 423.669 192.437 423.659 191.804C423.659 191.171 423.254 190.6 422.642 190.392C422.029 190.184 421.292 190.278 420.586 190.454C414.855 192.292 409.685 193.963 405.813 195.209C403.986 195.78 402.47 196.247 401.318 196.6C400.248 196.922 399.657 197.078 399.646 197.036C399.636 197.005 400.207 196.777 401.255 196.393C402.397 195.998 403.892 195.469 405.699 194.835C409.467 193.558 414.637 191.783 420.451 189.925C421.199 189.738 422.019 189.613 422.818 189.883C423.628 190.143 424.199 190.973 424.189 191.794C424.199 192.593 423.856 193.34 423.337 193.88C422.808 194.41 422.164 194.742 421.531 194.981C418.987 195.79 416.714 196.341 414.793 196.891C412.945 197.379 411.409 197.784 410.246 198.095C409.166 198.355 408.564 198.49 408.554 198.459Z" fill="#263238"/>
<path d="M328.016 160.723C329.698 166.641 323.687 171.717 321.569 177.5C319.524 183.085 321.268 189.346 323.79 194.744C326.313 200.132 329.635 205.25 330.923 211.064C334.11 225.391 321.153 240.828 323.624 255.29C324.527 260.564 326.645 266.056 328.483 271.081C330.32 276.095 330.196 280.694 328.483 285.75C325.68 294.035 320.925 297.938 317.582 306.026C315.869 310.158 316.004 314.788 316.087 319.252C316.17 323.726 316.139 328.388 314.156 332.395C312.163 336.403 307.616 339.496 303.297 338.334C307.813 343.649 316.16 345.237 322.316 341.957C327.995 338.925 331.172 332.779 333.892 326.945C347.056 298.696 354.022 296.308 353.659 265.142C353.638 263.139 353.264 231.921 353.264 231.921C353.264 231.921 348.333 230.602 345.488 228.64C330.777 218.487 330.248 200.402 330.362 186.387" fill="#263238"/>
<path d="M357.439 255.29V267.052C357.439 267.052 348.396 313.199 345.676 338.831C342.967 364.464 342.5 371.233 342.5 371.233C342.5 371.233 348.988 381.355 362.557 364.163C376.126 346.971 378.545 344.261 383.964 343.96C383.964 343.96 377.33 271.88 377.631 269.17C377.932 266.461 380.04 264.042 380.04 264.042L357.439 255.29Z" fill="#FFBE9D"/>
<path d="M375.234 228.743C375.234 228.743 360.461 248.344 359.246 251.064C358.042 253.774 357.44 255.289 357.44 255.289L380.062 264.031L402.081 239.904L410.221 218.496L407.812 193.165C407.812 193.165 402.985 192.864 402.081 197.089C401.178 201.315 401.479 205.229 401.479 205.229L394.721 199.799L383.83 196.477C383.83 196.477 381.266 200.702 385.491 202.81C389.717 204.917 390.921 204.917 390.921 204.917L394.721 211.551L393.06 218.984L385.367 211.769C383.82 210.316 381.463 210.17 379.75 211.416L374.777 215.029L370.116 212.942L361.074 220.895L357.45 224.217C357.45 224.217 359.859 228.743 364.686 226.625C369.514 224.518 369.514 224.518 369.514 224.518L375.234 228.743Z" fill="#FFBE9D"/>
<path d="M357.44 259.255C357.44 259.255 357.419 259.048 357.429 258.632C357.44 258.217 357.481 257.594 357.575 256.795C357.679 255.985 357.834 254.988 358.146 253.836C358.478 252.694 358.862 251.344 359.734 250.036C363.119 244.845 368.444 237.62 375.078 228.64L375.12 228.91C373.334 227.591 371.393 226.169 369.379 224.695L369.586 224.715C368.611 225.141 367.614 225.577 366.607 226.023C365.589 226.449 364.593 226.989 363.43 227.259C362.288 227.518 360.99 227.435 359.9 226.854C358.789 226.304 357.897 225.411 357.243 224.321L357.149 224.175L357.284 224.051C361.177 220.397 365.496 216.711 369.939 212.766L370.074 212.652L370.23 212.745C371.476 213.482 372.857 214.292 374.248 215.112L373.978 215.123C375.525 214.105 377.092 213.077 378.681 212.029C379.491 211.51 380.238 210.98 381.121 210.451C382.065 209.973 383.28 210.067 384.142 210.721C387.132 213.244 390.184 215.829 393.298 218.455L392.862 218.601C393.361 216.368 393.9 213.95 394.44 211.499L394.471 211.686C393.267 209.589 391.98 207.326 390.672 205.052L390.91 205.187C390.194 205.104 389.654 204.897 389.031 204.679C388.44 204.461 387.848 204.211 387.256 203.952C386.664 203.692 386.083 203.402 385.491 203.121C385.201 202.976 384.899 202.789 384.609 202.613C384.349 202.384 384.048 202.208 383.83 201.927C383.135 201.19 382.73 200.163 382.782 199.156C382.802 198.149 383.103 197.204 383.581 196.332L383.685 196.145L383.892 196.207C387.568 197.328 391.201 198.439 394.772 199.529L394.824 199.54L394.866 199.571C397.15 201.408 399.403 203.215 401.624 205L401.199 205.229C401.053 202.498 401.251 199.81 401.77 197.204C401.998 195.875 402.787 194.556 403.971 193.861C405.133 193.145 406.473 192.864 407.812 192.895H408.03L408.051 193.124C408.902 202.125 409.701 210.617 410.438 218.455V218.507L410.418 218.559C407.397 226.449 404.666 233.612 402.237 239.956L402.227 239.987L402.206 240.008C394.97 247.887 389.146 254.231 385.107 258.612C383.103 260.781 381.546 262.463 380.466 263.616C379.947 264.176 379.543 264.602 379.252 264.903C378.982 265.194 378.826 265.329 378.826 265.329C378.826 265.329 378.951 265.162 379.21 264.861C379.491 264.55 379.875 264.114 380.383 263.533C381.442 262.359 382.968 260.657 384.951 258.456C388.948 254.044 394.731 247.659 401.925 239.738L401.884 239.8C404.293 233.446 407.002 226.273 409.992 218.372L409.982 218.476C409.224 210.627 408.414 202.145 407.542 193.145L407.781 193.373C406.576 193.352 405.289 193.612 404.251 194.266C403.192 194.899 402.507 196.031 402.289 197.276C401.78 199.82 401.593 202.498 401.728 205.156L401.759 205.748L401.303 205.374C399.081 203.589 396.828 201.782 394.544 199.945L394.638 199.996C391.056 198.906 387.433 197.806 383.747 196.685L384.059 196.571C383.633 197.339 383.353 198.242 383.332 199.124C383.29 200.017 383.633 200.879 384.235 201.523C384.422 201.772 384.702 201.927 384.931 202.125C385.201 202.28 385.46 202.447 385.751 202.592C386.332 202.883 386.914 203.163 387.495 203.412C388.637 203.91 389.862 204.44 390.921 204.606L391.097 204.637L391.16 204.751C392.468 207.025 393.755 209.288 394.959 211.385L395.011 211.479L394.99 211.582C394.44 214.022 393.9 216.441 393.402 218.684L393.309 219.109L392.976 218.829C389.872 216.202 386.83 213.628 383.861 211.105C383.155 210.575 382.148 210.492 381.37 210.887C380.591 211.344 379.771 211.925 378.982 212.423C377.394 213.462 375.826 214.5 374.279 215.507L374.144 215.59L374.009 215.507C372.618 214.676 371.237 213.866 370.002 213.129L370.292 213.098C365.849 217.033 361.509 220.708 357.616 224.352L357.668 224.082C358.25 225.058 359.111 225.94 360.118 226.428C361.125 226.958 362.288 227.041 363.357 226.802C364.427 226.563 365.434 226.023 366.462 225.598C367.479 225.151 368.476 224.726 369.451 224.3L369.555 224.248L369.649 224.321C371.652 225.805 373.583 227.238 375.369 228.557L375.525 228.671L375.411 228.827C368.735 237.776 363.357 244.97 359.942 250.109C359.08 251.376 358.675 252.715 358.333 253.836C358.011 254.978 357.834 255.964 357.72 256.764C357.606 257.563 357.554 258.176 357.523 258.591C357.461 259.048 357.44 259.255 357.44 259.255Z" fill="#EB996E"/>
<path d="M385.427 233.291C385.324 233.271 385.718 231.693 385.884 229.118C385.936 227.841 385.863 226.284 385.168 224.758C384.483 223.231 383.123 221.913 381.565 220.709C378.43 218.29 375.419 216.348 373.198 215.009C372.16 214.397 371.277 213.878 370.55 213.452C369.928 213.089 369.575 212.87 369.595 212.839C369.616 212.808 369.99 212.954 370.644 213.265C371.308 213.576 372.243 214.054 373.385 214.677C375.669 215.943 378.742 217.843 381.898 220.283C383.476 221.498 384.898 222.899 385.625 224.55C386.341 226.201 386.372 227.841 386.268 229.139C386.154 230.457 385.926 231.485 385.76 232.201C385.583 232.907 385.469 233.291 385.427 233.291Z" fill="#EB996E"/>
<path d="M401.262 223.873C401.179 223.852 401.397 222.824 401.646 221.163C401.895 219.502 402.134 217.177 402.113 214.612C402.092 212.048 401.812 209.733 401.532 208.072C401.262 206.411 401.023 205.383 401.106 205.362C401.168 205.341 401.532 206.338 401.916 207.999C402.29 209.66 402.632 212.006 402.653 214.612C402.674 217.218 402.373 219.564 402.02 221.236C401.677 222.897 401.324 223.893 401.262 223.873Z" fill="#EB996E"/>
<path d="M300.442 146.955L289.624 127.884C294.41 120.108 297.182 110.962 297.182 101.172C297.182 72.996 274.343 50.1562 246.167 50.1562C217.991 50.1562 195.151 72.996 195.151 101.172C195.151 129.348 217.991 152.188 246.167 152.188C257.929 152.188 268.757 148.191 277.384 141.505L277.364 141.526L300.442 146.955Z" fill="white"/>
<path d="M300.444 146.954C299.499 146.736 292.097 145.033 277.334 141.649L277.126 141.607L277.251 141.441L277.272 141.421L277.459 141.607C274.552 143.86 271.063 146.082 266.963 147.93C262.862 149.747 258.159 151.231 252.979 151.916C250.393 152.249 247.684 152.456 244.902 152.321C243.51 152.238 242.099 152.207 240.676 152.093C239.264 151.875 237.821 151.657 236.368 151.439C230.596 150.297 224.688 148.106 219.186 144.691C213.684 141.286 208.586 136.666 204.506 130.977C200.426 125.308 197.333 118.581 195.889 111.282C194.457 103.984 194.581 96.1667 196.492 88.5984C198.423 81.0613 202.025 73.6902 207.424 67.6273L209.51 65.333C210.195 64.5647 211.016 63.9314 211.753 63.2255C212.531 62.561 213.227 61.8032 214.068 61.2114C214.888 60.5989 215.698 59.9864 216.518 59.3842C217.307 58.7406 218.179 58.2319 219.051 57.7128C219.913 57.1833 220.774 56.6642 221.636 56.1451C222.539 55.7091 223.443 55.2627 224.346 54.8267C225.259 54.4114 226.131 53.9131 227.076 53.612C234.478 50.674 242.379 49.5528 249.937 50.103C257.484 50.6428 264.72 52.8126 270.918 56.3009C277.137 59.758 282.38 64.3882 286.428 69.5479C290.488 74.718 293.353 80.4072 295.128 86.086C296.893 91.7856 297.371 97.4436 297.35 102.676C297.205 107.919 296.25 112.757 294.858 117.003C293.467 121.249 291.64 124.903 289.751 127.976V127.841C296.603 140.081 299.997 146.144 300.444 146.954C299.987 146.155 296.519 140.133 289.512 127.945L289.47 127.883L289.512 127.821C291.37 124.748 293.177 121.104 294.537 116.878C295.897 112.653 296.831 107.856 296.955 102.645C296.955 97.4436 296.468 91.8375 294.703 86.1898C292.927 80.5629 290.083 74.9257 286.044 69.8179C282.027 64.7101 276.815 60.1421 270.659 56.7161C264.513 53.2694 257.36 51.1308 249.885 50.6013C242.41 50.0718 234.593 51.1827 227.263 54.0896C226.318 54.3906 225.457 54.8786 224.553 55.2938C223.661 55.7299 222.768 56.1555 221.875 56.5916C221.024 57.1106 220.172 57.6297 219.321 58.1488C218.459 58.6575 217.598 59.1766 216.819 59.8099C216.009 60.412 215.21 61.0142 214.4 61.6163C213.57 62.1977 212.884 62.9555 212.116 63.6096C211.379 64.3052 210.569 64.9385 209.894 65.6963L207.839 67.9595C202.503 73.9602 198.931 81.2481 197.021 88.7022C195.121 96.1874 194.997 103.932 196.409 111.147C197.831 118.384 200.883 125.038 204.922 130.655C208.96 136.282 213.995 140.87 219.446 144.255C224.896 147.65 230.741 149.84 236.461 150.982C237.904 151.2 239.327 151.429 240.728 151.636C242.14 151.761 243.542 151.792 244.922 151.875C247.684 152.02 250.362 151.813 252.937 151.491C258.086 150.826 262.758 149.363 266.838 147.577C270.918 145.76 274.386 143.57 277.303 141.348L278.123 140.725L277.5 141.535L277.479 141.556L277.407 141.337C292.118 144.94 299.509 146.726 300.444 146.954Z" fill="#263238"/>
<path d="M235.111 101.162C235.111 103.446 233.253 105.305 230.969 105.305C228.685 105.305 226.827 103.446 226.827 101.162C226.827 98.8784 228.685 97.02 230.969 97.02C233.253 97.02 235.111 98.8784 235.111 101.162Z" fill="#0084E4"/>
<path d="M251.68 101.162C251.68 103.446 249.822 105.305 247.538 105.305C245.254 105.305 243.396 103.446 243.396 101.162C243.396 98.8784 245.254 97.02 247.538 97.02C249.832 97.02 251.68 98.8784 251.68 101.162Z" fill="#0084E4"/>
<path d="M268.219 99.0972C269.361 101.08 268.686 103.613 266.703 104.755C264.72 105.897 262.187 105.222 261.045 103.239C259.903 101.257 260.578 98.7234 262.561 97.5814C264.544 96.4394 267.077 97.1142 268.219 99.0972Z" fill="#0084E4"/>
<path d="M534 426.648C534 426.811 415.397 426.951 269.132 426.951C122.809 426.951 4.22949 426.811 4.22949 426.648C4.22949 426.484 122.809 426.344 269.132 426.344C415.397 426.333 534 426.473 534 426.648Z" fill="#263238"/>
<path d="M371.193 426.898C371.193 426.898 378.232 414.875 393.399 414.356C408.567 413.837 416.146 426.898 416.146 426.898H371.193Z" fill="#455A64"/>
<path d="M400.261 426.523C400.147 426.523 400.126 425.63 399.815 424.26C399.514 422.889 398.85 421.041 397.656 419.266C396.451 417.501 394.977 416.204 393.804 415.415C392.641 414.626 391.821 414.273 391.863 414.169C391.883 414.106 392.776 414.304 394.053 415.02C395.33 415.726 396.929 417.044 398.195 418.892C399.452 420.751 400.085 422.734 400.272 424.177C400.469 425.62 400.324 426.523 400.261 426.523Z" fill="#263238"/>
<path d="M361.811 426.346V426.253C361.759 423.076 359.163 420.522 355.987 420.522H226.9C223.682 420.522 221.076 423.128 221.076 426.346H361.811Z" fill="#455A64"/>
<path d="M114.683 200.22C114.683 202.941 116.718 365.061 116.718 365.061L237.135 394.037H247.091L240.758 167.695H231.706L114.683 200.22Z" fill="#263238"/>
<path d="M140.15 358.273L102.827 426.678H136.942C130.837 426.065 190.958 426.678 190.958 426.678L136.942 412.351L153.833 373.991L152.39 358.273H140.15Z" fill="#263238"/>
<path d="M140.98 370.895L136.942 243.418L173.61 239.899L178.126 376.014L165.035 376.678L140.98 370.895Z" fill="#263238"/>
<path d="M183.255 381.069C183.255 381.069 183.244 380.871 183.234 380.477C183.224 380.072 183.224 379.491 183.213 378.733C183.203 377.176 183.192 374.902 183.172 371.964C183.151 366.036 183.13 357.429 183.099 346.612C183.078 324.945 183.037 294.454 183.006 259.094L183.265 259.353C169.696 259.353 155.1 259.364 140.005 259.364L140.274 259.094C140.274 260.952 140.274 262.966 140.274 264.98C140.254 299.458 140.243 331.558 140.233 358.291V358.353L140.202 358.405C128.969 378.992 119.656 396.07 113.137 408.02C109.877 413.968 107.313 418.64 105.558 421.838C104.686 423.416 104.011 424.63 103.554 425.461C103.098 426.281 102.848 426.696 102.848 426.696C102.848 426.696 103.056 426.26 103.492 425.43C103.938 424.589 104.593 423.364 105.444 421.775C107.167 418.567 109.7 413.875 112.908 407.895C119.386 395.925 128.647 378.816 139.807 358.187L139.776 358.291C139.766 331.548 139.745 299.458 139.735 264.98C139.735 262.966 139.735 260.963 139.735 259.094V258.824H140.005C155.1 258.824 169.696 258.834 183.265 258.834H183.525V259.094C183.483 294.454 183.452 324.945 183.431 346.612C183.4 357.429 183.369 366.046 183.359 371.964C183.338 374.912 183.327 377.186 183.317 378.733C183.307 379.491 183.296 380.072 183.296 380.477C183.265 380.861 183.255 381.069 183.255 381.069Z" fill="#455A64"/>
<path d="M153.833 373.99C153.968 374.052 148.777 386.053 142.237 400.806C135.696 415.558 130.277 427.466 130.142 427.404C130.007 427.341 135.198 415.34 141.738 400.588C148.279 385.835 153.698 373.927 153.833 373.99Z" fill="#455A64"/>
<path d="M237.136 394.026C237.136 394.026 237.115 393.829 237.105 393.445C237.094 393.04 237.084 392.469 237.073 391.732C237.053 390.205 237.032 387.994 236.99 385.15C236.949 379.44 236.814 371.165 236.617 360.96C236.233 340.529 235.309 312.322 234.177 281.166C233.045 250 232.184 221.783 231.893 201.341C231.737 191.126 231.675 182.851 231.696 177.142C231.706 174.297 231.717 172.086 231.717 170.559C231.727 169.822 231.727 169.251 231.737 168.847C231.748 168.462 231.758 168.265 231.758 168.265C231.758 168.265 231.779 168.462 231.789 168.847C231.8 169.251 231.81 169.822 231.82 170.559C231.841 172.086 231.862 174.297 231.903 177.142C231.945 182.851 232.08 191.126 232.277 201.331C232.661 221.762 233.585 249.969 234.717 281.146C235.848 312.301 236.71 340.519 237.001 360.95C237.157 371.165 237.219 379.44 237.198 385.15C237.188 387.994 237.177 390.205 237.177 391.732C237.167 392.469 237.167 393.04 237.157 393.445C237.146 393.829 237.136 394.026 237.136 394.026Z" fill="#455A64"/>
<path d="M176.682 258.132C176.828 258.132 176.952 285.249 176.952 318.688C176.952 352.138 176.828 379.245 176.682 379.245C176.537 379.245 176.412 352.138 176.412 318.688C176.412 285.249 176.537 258.132 176.682 258.132Z" fill="#455A64"/>
<path d="M111.806 415.996C111.796 416.007 111.609 415.758 111.287 415.27C111.121 415.01 110.924 414.72 110.696 414.367C110.446 414.014 110.197 413.598 109.948 413.1C108.827 411.19 107.55 408.2 106.657 404.327C105.775 400.455 105.474 395.669 106.013 390.447C106.605 385.235 108.007 379.567 110.509 374.044C111.765 371.272 113.395 368.76 115.212 366.559C115.648 365.988 116.104 365.448 116.582 364.939C117.06 364.42 117.516 363.901 117.994 363.413C118.991 362.468 119.935 361.503 120.963 360.683C122.936 358.949 125.033 357.568 126.995 356.312C128.023 355.751 128.978 355.16 129.954 354.682C130.94 354.236 131.853 353.727 132.788 353.384C136.463 351.889 139.629 351.163 141.841 350.976C142.941 350.789 143.803 350.862 144.384 350.82C144.966 350.81 145.277 350.81 145.277 350.83C145.277 350.851 144.976 350.882 144.395 350.934C143.813 351.007 142.952 350.976 141.872 351.194C139.681 351.443 136.567 352.222 132.944 353.748C132.02 354.09 131.127 354.609 130.151 355.056C129.196 355.533 128.241 356.125 127.234 356.696C125.292 357.952 123.237 359.333 121.295 361.067C120.278 361.887 119.354 362.842 118.368 363.787C117.9 364.275 117.444 364.794 116.976 365.303C116.499 365.801 116.052 366.351 115.627 366.912C113.841 369.092 112.232 371.573 110.997 374.293C108.526 379.754 107.114 385.37 106.501 390.53C105.93 395.7 106.19 400.434 107.02 404.276C107.851 408.117 109.066 411.096 110.125 413.027C110.353 413.526 110.592 413.951 110.82 414.315C111.028 414.668 111.215 414.979 111.37 415.239C111.671 415.716 111.817 415.986 111.806 415.996Z" fill="#455A64"/>
</g>
<defs>
<filter id="filter0_d" x="0.229492" y="0" width="537.77" height="436.388" filterUnits="userSpaceOnUse" color-interpolation-filters="sRGB">
<feFlood flood-opacity="0" result="BackgroundImageFix"/>
<feColorMatrix in="SourceAlpha" type="matrix" values="0 0 0 0 0 0 0 0 0 0 0 0 0 0 0 0 0 0 127 0"/>
<feOffset dy="4"/>
<feGaussianBlur stdDeviation="2"/>
<feColorMatrix type="matrix" values="0 0 0 0 0 0 0 0 0 0 0 0 0 0 0 0 0 0 0.25 0"/>
<feBlend mode="normal" in2="BackgroundImageFix" result="effect1_dropShadow"/>
<feBlend mode="normal" in="SourceGraphic" in2="effect1_dropShadow" result="shape"/>
</filter>
<clipPath id="clip0">
<rect width="529.77" height="428.388" fill="white" transform="translate(4.22949)"/>
</clipPath>
</defs>
</svg>
